%TF.GenerationSoftware,KiCad,Pcbnew,7.0.8*%
%TF.CreationDate,2024-04-29T16:48:28-06:00*%
%TF.ProjectId,GR-LRR-POWER-PCB-HIGH-VOLTAGE,47522d4c-5252-42d5-904f-5745522d5043,rev?*%
%TF.SameCoordinates,Original*%
%TF.FileFunction,Legend,Top*%
%TF.FilePolarity,Positive*%
%FSLAX46Y46*%
G04 Gerber Fmt 4.6, Leading zero omitted, Abs format (unit mm)*
G04 Created by KiCad (PCBNEW 7.0.8) date 2024-04-29 16:48:28*
%MOMM*%
%LPD*%
G01*
G04 APERTURE LIST*
%ADD10C,0.200000*%
%ADD11C,0.300000*%
%ADD12C,0.150000*%
%ADD13C,0.254000*%
%ADD14C,0.100000*%
%ADD15C,0.152400*%
%ADD16C,0.508000*%
%ADD17C,0.127000*%
G04 APERTURE END LIST*
D10*
X244871000Y-72307000D02*
G75*
G03*
X244871000Y-72307000I-3000000J0D01*
G01*
X122623600Y-93871600D02*
G75*
G03*
X122623600Y-93871600I-3000000J0D01*
G01*
D11*
X148626828Y-51511774D02*
X148626828Y-52368917D01*
X148626828Y-51940346D02*
X147126828Y-51940346D01*
X147126828Y-51940346D02*
X147341114Y-52083203D01*
X147341114Y-52083203D02*
X147483971Y-52226060D01*
X147483971Y-52226060D02*
X147555400Y-52368917D01*
X147126828Y-50154632D02*
X147126828Y-50868918D01*
X147126828Y-50868918D02*
X147841114Y-50940346D01*
X147841114Y-50940346D02*
X147769685Y-50868918D01*
X147769685Y-50868918D02*
X147698257Y-50726061D01*
X147698257Y-50726061D02*
X147698257Y-50368918D01*
X147698257Y-50368918D02*
X147769685Y-50226061D01*
X147769685Y-50226061D02*
X147841114Y-50154632D01*
X147841114Y-50154632D02*
X147983971Y-50083203D01*
X147983971Y-50083203D02*
X148341114Y-50083203D01*
X148341114Y-50083203D02*
X148483971Y-50154632D01*
X148483971Y-50154632D02*
X148555400Y-50226061D01*
X148555400Y-50226061D02*
X148626828Y-50368918D01*
X148626828Y-50368918D02*
X148626828Y-50726061D01*
X148626828Y-50726061D02*
X148555400Y-50868918D01*
X148555400Y-50868918D02*
X148483971Y-50940346D01*
X148198257Y-49511775D02*
X148198257Y-48797490D01*
X148626828Y-49654632D02*
X147126828Y-49154632D01*
X147126828Y-49154632D02*
X148626828Y-48654632D01*
X147841114Y-46511776D02*
X147841114Y-47011776D01*
X148626828Y-47011776D02*
X147126828Y-47011776D01*
X147126828Y-47011776D02*
X147126828Y-46297490D01*
X147626828Y-45083205D02*
X148626828Y-45083205D01*
X147626828Y-45726062D02*
X148412542Y-45726062D01*
X148412542Y-45726062D02*
X148555400Y-45654633D01*
X148555400Y-45654633D02*
X148626828Y-45511776D01*
X148626828Y-45511776D02*
X148626828Y-45297490D01*
X148626828Y-45297490D02*
X148555400Y-45154633D01*
X148555400Y-45154633D02*
X148483971Y-45083205D01*
X148555400Y-44440347D02*
X148626828Y-44297490D01*
X148626828Y-44297490D02*
X148626828Y-44011776D01*
X148626828Y-44011776D02*
X148555400Y-43868919D01*
X148555400Y-43868919D02*
X148412542Y-43797490D01*
X148412542Y-43797490D02*
X148341114Y-43797490D01*
X148341114Y-43797490D02*
X148198257Y-43868919D01*
X148198257Y-43868919D02*
X148126828Y-44011776D01*
X148126828Y-44011776D02*
X148126828Y-44226062D01*
X148126828Y-44226062D02*
X148055400Y-44368919D01*
X148055400Y-44368919D02*
X147912542Y-44440347D01*
X147912542Y-44440347D02*
X147841114Y-44440347D01*
X147841114Y-44440347D02*
X147698257Y-44368919D01*
X147698257Y-44368919D02*
X147626828Y-44226062D01*
X147626828Y-44226062D02*
X147626828Y-44011776D01*
X147626828Y-44011776D02*
X147698257Y-43868919D01*
X148555400Y-42583204D02*
X148626828Y-42726061D01*
X148626828Y-42726061D02*
X148626828Y-43011776D01*
X148626828Y-43011776D02*
X148555400Y-43154633D01*
X148555400Y-43154633D02*
X148412542Y-43226061D01*
X148412542Y-43226061D02*
X147841114Y-43226061D01*
X147841114Y-43226061D02*
X147698257Y-43154633D01*
X147698257Y-43154633D02*
X147626828Y-43011776D01*
X147626828Y-43011776D02*
X147626828Y-42726061D01*
X147626828Y-42726061D02*
X147698257Y-42583204D01*
X147698257Y-42583204D02*
X147841114Y-42511776D01*
X147841114Y-42511776D02*
X147983971Y-42511776D01*
X147983971Y-42511776D02*
X148126828Y-43226061D01*
X147126828Y-40440347D02*
X147126828Y-40297490D01*
X147126828Y-40297490D02*
X147198257Y-40154633D01*
X147198257Y-40154633D02*
X147269685Y-40083205D01*
X147269685Y-40083205D02*
X147412542Y-40011776D01*
X147412542Y-40011776D02*
X147698257Y-39940347D01*
X147698257Y-39940347D02*
X148055400Y-39940347D01*
X148055400Y-39940347D02*
X148341114Y-40011776D01*
X148341114Y-40011776D02*
X148483971Y-40083205D01*
X148483971Y-40083205D02*
X148555400Y-40154633D01*
X148555400Y-40154633D02*
X148626828Y-40297490D01*
X148626828Y-40297490D02*
X148626828Y-40440347D01*
X148626828Y-40440347D02*
X148555400Y-40583205D01*
X148555400Y-40583205D02*
X148483971Y-40654633D01*
X148483971Y-40654633D02*
X148341114Y-40726062D01*
X148341114Y-40726062D02*
X148055400Y-40797490D01*
X148055400Y-40797490D02*
X147698257Y-40797490D01*
X147698257Y-40797490D02*
X147412542Y-40726062D01*
X147412542Y-40726062D02*
X147269685Y-40654633D01*
X147269685Y-40654633D02*
X147198257Y-40583205D01*
X147198257Y-40583205D02*
X147126828Y-40440347D01*
X147269685Y-39368919D02*
X147198257Y-39297491D01*
X147198257Y-39297491D02*
X147126828Y-39154634D01*
X147126828Y-39154634D02*
X147126828Y-38797491D01*
X147126828Y-38797491D02*
X147198257Y-38654634D01*
X147198257Y-38654634D02*
X147269685Y-38583205D01*
X147269685Y-38583205D02*
X147412542Y-38511776D01*
X147412542Y-38511776D02*
X147555400Y-38511776D01*
X147555400Y-38511776D02*
X147769685Y-38583205D01*
X147769685Y-38583205D02*
X148626828Y-39440348D01*
X148626828Y-39440348D02*
X148626828Y-38511776D01*
X148626828Y-37083205D02*
X148626828Y-37940348D01*
X148626828Y-37511777D02*
X147126828Y-37511777D01*
X147126828Y-37511777D02*
X147341114Y-37654634D01*
X147341114Y-37654634D02*
X147483971Y-37797491D01*
X147483971Y-37797491D02*
X147555400Y-37940348D01*
X147126828Y-36583206D02*
X147126828Y-35583206D01*
X147126828Y-35583206D02*
X148626828Y-36226063D01*
X147126828Y-34726063D02*
X147126828Y-34583206D01*
X147126828Y-34583206D02*
X147198257Y-34440349D01*
X147198257Y-34440349D02*
X147269685Y-34368921D01*
X147269685Y-34368921D02*
X147412542Y-34297492D01*
X147412542Y-34297492D02*
X147698257Y-34226063D01*
X147698257Y-34226063D02*
X148055400Y-34226063D01*
X148055400Y-34226063D02*
X148341114Y-34297492D01*
X148341114Y-34297492D02*
X148483971Y-34368921D01*
X148483971Y-34368921D02*
X148555400Y-34440349D01*
X148555400Y-34440349D02*
X148626828Y-34583206D01*
X148626828Y-34583206D02*
X148626828Y-34726063D01*
X148626828Y-34726063D02*
X148555400Y-34868921D01*
X148555400Y-34868921D02*
X148483971Y-34940349D01*
X148483971Y-34940349D02*
X148341114Y-35011778D01*
X148341114Y-35011778D02*
X148055400Y-35083206D01*
X148055400Y-35083206D02*
X147698257Y-35083206D01*
X147698257Y-35083206D02*
X147412542Y-35011778D01*
X147412542Y-35011778D02*
X147269685Y-34940349D01*
X147269685Y-34940349D02*
X147198257Y-34868921D01*
X147198257Y-34868921D02*
X147126828Y-34726063D01*
X148626828Y-32797492D02*
X148626828Y-33654635D01*
X148626828Y-33226064D02*
X147126828Y-33226064D01*
X147126828Y-33226064D02*
X147341114Y-33368921D01*
X147341114Y-33368921D02*
X147483971Y-33511778D01*
X147483971Y-33511778D02*
X147555400Y-33654635D01*
X147126828Y-31440350D02*
X147126828Y-32154636D01*
X147126828Y-32154636D02*
X147841114Y-32226064D01*
X147841114Y-32226064D02*
X147769685Y-32154636D01*
X147769685Y-32154636D02*
X147698257Y-32011779D01*
X147698257Y-32011779D02*
X147698257Y-31654636D01*
X147698257Y-31654636D02*
X147769685Y-31511779D01*
X147769685Y-31511779D02*
X147841114Y-31440350D01*
X147841114Y-31440350D02*
X147983971Y-31368921D01*
X147983971Y-31368921D02*
X148341114Y-31368921D01*
X148341114Y-31368921D02*
X148483971Y-31440350D01*
X148483971Y-31440350D02*
X148555400Y-31511779D01*
X148555400Y-31511779D02*
X148626828Y-31654636D01*
X148626828Y-31654636D02*
X148626828Y-32011779D01*
X148626828Y-32011779D02*
X148555400Y-32154636D01*
X148555400Y-32154636D02*
X148483971Y-32226064D01*
X148483971Y-30726065D02*
X148555400Y-30654636D01*
X148555400Y-30654636D02*
X148626828Y-30726065D01*
X148626828Y-30726065D02*
X148555400Y-30797493D01*
X148555400Y-30797493D02*
X148483971Y-30726065D01*
X148483971Y-30726065D02*
X148626828Y-30726065D01*
X148626828Y-30011779D02*
X147126828Y-30011779D01*
X147126828Y-30011779D02*
X148198257Y-29511779D01*
X148198257Y-29511779D02*
X147126828Y-29011779D01*
X147126828Y-29011779D02*
X148626828Y-29011779D01*
X147126828Y-28440350D02*
X148626828Y-27440350D01*
X147126828Y-27440350D02*
X148626828Y-28440350D01*
X148626828Y-26868922D02*
X147126828Y-26868922D01*
X147126828Y-26868922D02*
X147126828Y-26297493D01*
X147126828Y-26297493D02*
X147198257Y-26154636D01*
X147198257Y-26154636D02*
X147269685Y-26083207D01*
X147269685Y-26083207D02*
X147412542Y-26011779D01*
X147412542Y-26011779D02*
X147626828Y-26011779D01*
X147626828Y-26011779D02*
X147769685Y-26083207D01*
X147769685Y-26083207D02*
X147841114Y-26154636D01*
X147841114Y-26154636D02*
X147912542Y-26297493D01*
X147912542Y-26297493D02*
X147912542Y-26868922D01*
X240064226Y-79837656D02*
X239921369Y-79766227D01*
X239921369Y-79766227D02*
X239707083Y-79766227D01*
X239707083Y-79766227D02*
X239492797Y-79837656D01*
X239492797Y-79837656D02*
X239349940Y-79980513D01*
X239349940Y-79980513D02*
X239278511Y-80123370D01*
X239278511Y-80123370D02*
X239207083Y-80409084D01*
X239207083Y-80409084D02*
X239207083Y-80623370D01*
X239207083Y-80623370D02*
X239278511Y-80909084D01*
X239278511Y-80909084D02*
X239349940Y-81051941D01*
X239349940Y-81051941D02*
X239492797Y-81194799D01*
X239492797Y-81194799D02*
X239707083Y-81266227D01*
X239707083Y-81266227D02*
X239849940Y-81266227D01*
X239849940Y-81266227D02*
X240064226Y-81194799D01*
X240064226Y-81194799D02*
X240135654Y-81123370D01*
X240135654Y-81123370D02*
X240135654Y-80623370D01*
X240135654Y-80623370D02*
X239849940Y-80623370D01*
X240778511Y-81266227D02*
X240778511Y-79766227D01*
X240778511Y-79766227D02*
X241635654Y-81266227D01*
X241635654Y-81266227D02*
X241635654Y-79766227D01*
X242349940Y-81266227D02*
X242349940Y-79766227D01*
X242349940Y-79766227D02*
X242707083Y-79766227D01*
X242707083Y-79766227D02*
X242921369Y-79837656D01*
X242921369Y-79837656D02*
X243064226Y-79980513D01*
X243064226Y-79980513D02*
X243135655Y-80123370D01*
X243135655Y-80123370D02*
X243207083Y-80409084D01*
X243207083Y-80409084D02*
X243207083Y-80623370D01*
X243207083Y-80623370D02*
X243135655Y-80909084D01*
X243135655Y-80909084D02*
X243064226Y-81051941D01*
X243064226Y-81051941D02*
X242921369Y-81194799D01*
X242921369Y-81194799D02*
X242707083Y-81266227D01*
X242707083Y-81266227D02*
X242349940Y-81266227D01*
X245278512Y-79766227D02*
X245564226Y-79766227D01*
X245564226Y-79766227D02*
X245707083Y-79837656D01*
X245707083Y-79837656D02*
X245849940Y-79980513D01*
X245849940Y-79980513D02*
X245921369Y-80266227D01*
X245921369Y-80266227D02*
X245921369Y-80766227D01*
X245921369Y-80766227D02*
X245849940Y-81051941D01*
X245849940Y-81051941D02*
X245707083Y-81194799D01*
X245707083Y-81194799D02*
X245564226Y-81266227D01*
X245564226Y-81266227D02*
X245278512Y-81266227D01*
X245278512Y-81266227D02*
X245135655Y-81194799D01*
X245135655Y-81194799D02*
X244992797Y-81051941D01*
X244992797Y-81051941D02*
X244921369Y-80766227D01*
X244921369Y-80766227D02*
X244921369Y-80266227D01*
X244921369Y-80266227D02*
X244992797Y-79980513D01*
X244992797Y-79980513D02*
X245135655Y-79837656D01*
X245135655Y-79837656D02*
X245278512Y-79766227D01*
X246564226Y-79766227D02*
X246564226Y-80980513D01*
X246564226Y-80980513D02*
X246635655Y-81123370D01*
X246635655Y-81123370D02*
X246707084Y-81194799D01*
X246707084Y-81194799D02*
X246849941Y-81266227D01*
X246849941Y-81266227D02*
X247135655Y-81266227D01*
X247135655Y-81266227D02*
X247278512Y-81194799D01*
X247278512Y-81194799D02*
X247349941Y-81123370D01*
X247349941Y-81123370D02*
X247421369Y-80980513D01*
X247421369Y-80980513D02*
X247421369Y-79766227D01*
X247921370Y-79766227D02*
X248778513Y-79766227D01*
X248349941Y-81266227D02*
X248349941Y-79766227D01*
X249278512Y-81266227D02*
X249278512Y-79766227D01*
X249278512Y-79766227D02*
X249849941Y-79766227D01*
X249849941Y-79766227D02*
X249992798Y-79837656D01*
X249992798Y-79837656D02*
X250064227Y-79909084D01*
X250064227Y-79909084D02*
X250135655Y-80051941D01*
X250135655Y-80051941D02*
X250135655Y-80266227D01*
X250135655Y-80266227D02*
X250064227Y-80409084D01*
X250064227Y-80409084D02*
X249992798Y-80480513D01*
X249992798Y-80480513D02*
X249849941Y-80551941D01*
X249849941Y-80551941D02*
X249278512Y-80551941D01*
X250778512Y-79766227D02*
X250778512Y-80980513D01*
X250778512Y-80980513D02*
X250849941Y-81123370D01*
X250849941Y-81123370D02*
X250921370Y-81194799D01*
X250921370Y-81194799D02*
X251064227Y-81266227D01*
X251064227Y-81266227D02*
X251349941Y-81266227D01*
X251349941Y-81266227D02*
X251492798Y-81194799D01*
X251492798Y-81194799D02*
X251564227Y-81123370D01*
X251564227Y-81123370D02*
X251635655Y-80980513D01*
X251635655Y-80980513D02*
X251635655Y-79766227D01*
X252135656Y-79766227D02*
X252992799Y-79766227D01*
X252564227Y-81266227D02*
X252564227Y-79766227D01*
X116280825Y-40889828D02*
X116780825Y-42389828D01*
X116780825Y-42389828D02*
X117280825Y-40889828D01*
X118637967Y-42246971D02*
X118566539Y-42318400D01*
X118566539Y-42318400D02*
X118352253Y-42389828D01*
X118352253Y-42389828D02*
X118209396Y-42389828D01*
X118209396Y-42389828D02*
X117995110Y-42318400D01*
X117995110Y-42318400D02*
X117852253Y-42175542D01*
X117852253Y-42175542D02*
X117780824Y-42032685D01*
X117780824Y-42032685D02*
X117709396Y-41746971D01*
X117709396Y-41746971D02*
X117709396Y-41532685D01*
X117709396Y-41532685D02*
X117780824Y-41246971D01*
X117780824Y-41246971D02*
X117852253Y-41104114D01*
X117852253Y-41104114D02*
X117995110Y-40961257D01*
X117995110Y-40961257D02*
X118209396Y-40889828D01*
X118209396Y-40889828D02*
X118352253Y-40889828D01*
X118352253Y-40889828D02*
X118566539Y-40961257D01*
X118566539Y-40961257D02*
X118637967Y-41032685D01*
X120137967Y-42246971D02*
X120066539Y-42318400D01*
X120066539Y-42318400D02*
X119852253Y-42389828D01*
X119852253Y-42389828D02*
X119709396Y-42389828D01*
X119709396Y-42389828D02*
X119495110Y-42318400D01*
X119495110Y-42318400D02*
X119352253Y-42175542D01*
X119352253Y-42175542D02*
X119280824Y-42032685D01*
X119280824Y-42032685D02*
X119209396Y-41746971D01*
X119209396Y-41746971D02*
X119209396Y-41532685D01*
X119209396Y-41532685D02*
X119280824Y-41246971D01*
X119280824Y-41246971D02*
X119352253Y-41104114D01*
X119352253Y-41104114D02*
X119495110Y-40961257D01*
X119495110Y-40961257D02*
X119709396Y-40889828D01*
X119709396Y-40889828D02*
X119852253Y-40889828D01*
X119852253Y-40889828D02*
X120066539Y-40961257D01*
X120066539Y-40961257D02*
X120137967Y-41032685D01*
X121923681Y-42389828D02*
X121923681Y-40889828D01*
X122637967Y-42389828D02*
X122637967Y-40889828D01*
X122637967Y-40889828D02*
X123495110Y-42389828D01*
X123495110Y-42389828D02*
X123495110Y-40889828D01*
X124209396Y-42389828D02*
X124209396Y-40889828D01*
X124209396Y-40889828D02*
X124780825Y-40889828D01*
X124780825Y-40889828D02*
X124923682Y-40961257D01*
X124923682Y-40961257D02*
X124995111Y-41032685D01*
X124995111Y-41032685D02*
X125066539Y-41175542D01*
X125066539Y-41175542D02*
X125066539Y-41389828D01*
X125066539Y-41389828D02*
X124995111Y-41532685D01*
X124995111Y-41532685D02*
X124923682Y-41604114D01*
X124923682Y-41604114D02*
X124780825Y-41675542D01*
X124780825Y-41675542D02*
X124209396Y-41675542D01*
X125709396Y-40889828D02*
X125709396Y-42104114D01*
X125709396Y-42104114D02*
X125780825Y-42246971D01*
X125780825Y-42246971D02*
X125852254Y-42318400D01*
X125852254Y-42318400D02*
X125995111Y-42389828D01*
X125995111Y-42389828D02*
X126280825Y-42389828D01*
X126280825Y-42389828D02*
X126423682Y-42318400D01*
X126423682Y-42318400D02*
X126495111Y-42246971D01*
X126495111Y-42246971D02*
X126566539Y-42104114D01*
X126566539Y-42104114D02*
X126566539Y-40889828D01*
X127066540Y-40889828D02*
X127923683Y-40889828D01*
X127495111Y-42389828D02*
X127495111Y-40889828D01*
X175466225Y-27224257D02*
X175323368Y-27152828D01*
X175323368Y-27152828D02*
X175109082Y-27152828D01*
X175109082Y-27152828D02*
X174894796Y-27224257D01*
X174894796Y-27224257D02*
X174751939Y-27367114D01*
X174751939Y-27367114D02*
X174680510Y-27509971D01*
X174680510Y-27509971D02*
X174609082Y-27795685D01*
X174609082Y-27795685D02*
X174609082Y-28009971D01*
X174609082Y-28009971D02*
X174680510Y-28295685D01*
X174680510Y-28295685D02*
X174751939Y-28438542D01*
X174751939Y-28438542D02*
X174894796Y-28581400D01*
X174894796Y-28581400D02*
X175109082Y-28652828D01*
X175109082Y-28652828D02*
X175251939Y-28652828D01*
X175251939Y-28652828D02*
X175466225Y-28581400D01*
X175466225Y-28581400D02*
X175537653Y-28509971D01*
X175537653Y-28509971D02*
X175537653Y-28009971D01*
X175537653Y-28009971D02*
X175251939Y-28009971D01*
X177037653Y-28652828D02*
X176537653Y-27938542D01*
X176180510Y-28652828D02*
X176180510Y-27152828D01*
X176180510Y-27152828D02*
X176751939Y-27152828D01*
X176751939Y-27152828D02*
X176894796Y-27224257D01*
X176894796Y-27224257D02*
X176966225Y-27295685D01*
X176966225Y-27295685D02*
X177037653Y-27438542D01*
X177037653Y-27438542D02*
X177037653Y-27652828D01*
X177037653Y-27652828D02*
X176966225Y-27795685D01*
X176966225Y-27795685D02*
X176894796Y-27867114D01*
X176894796Y-27867114D02*
X176751939Y-27938542D01*
X176751939Y-27938542D02*
X176180510Y-27938542D01*
X177680510Y-28081400D02*
X178823368Y-28081400D01*
X180251939Y-28652828D02*
X179537653Y-28652828D01*
X179537653Y-28652828D02*
X179537653Y-27152828D01*
X181609082Y-28652828D02*
X181109082Y-27938542D01*
X180751939Y-28652828D02*
X180751939Y-27152828D01*
X180751939Y-27152828D02*
X181323368Y-27152828D01*
X181323368Y-27152828D02*
X181466225Y-27224257D01*
X181466225Y-27224257D02*
X181537654Y-27295685D01*
X181537654Y-27295685D02*
X181609082Y-27438542D01*
X181609082Y-27438542D02*
X181609082Y-27652828D01*
X181609082Y-27652828D02*
X181537654Y-27795685D01*
X181537654Y-27795685D02*
X181466225Y-27867114D01*
X181466225Y-27867114D02*
X181323368Y-27938542D01*
X181323368Y-27938542D02*
X180751939Y-27938542D01*
X183109082Y-28652828D02*
X182609082Y-27938542D01*
X182251939Y-28652828D02*
X182251939Y-27152828D01*
X182251939Y-27152828D02*
X182823368Y-27152828D01*
X182823368Y-27152828D02*
X182966225Y-27224257D01*
X182966225Y-27224257D02*
X183037654Y-27295685D01*
X183037654Y-27295685D02*
X183109082Y-27438542D01*
X183109082Y-27438542D02*
X183109082Y-27652828D01*
X183109082Y-27652828D02*
X183037654Y-27795685D01*
X183037654Y-27795685D02*
X182966225Y-27867114D01*
X182966225Y-27867114D02*
X182823368Y-27938542D01*
X182823368Y-27938542D02*
X182251939Y-27938542D01*
X183751939Y-28081400D02*
X184894797Y-28081400D01*
X185609082Y-28652828D02*
X185609082Y-27152828D01*
X185609082Y-27152828D02*
X186180511Y-27152828D01*
X186180511Y-27152828D02*
X186323368Y-27224257D01*
X186323368Y-27224257D02*
X186394797Y-27295685D01*
X186394797Y-27295685D02*
X186466225Y-27438542D01*
X186466225Y-27438542D02*
X186466225Y-27652828D01*
X186466225Y-27652828D02*
X186394797Y-27795685D01*
X186394797Y-27795685D02*
X186323368Y-27867114D01*
X186323368Y-27867114D02*
X186180511Y-27938542D01*
X186180511Y-27938542D02*
X185609082Y-27938542D01*
X187394797Y-27152828D02*
X187680511Y-27152828D01*
X187680511Y-27152828D02*
X187823368Y-27224257D01*
X187823368Y-27224257D02*
X187966225Y-27367114D01*
X187966225Y-27367114D02*
X188037654Y-27652828D01*
X188037654Y-27652828D02*
X188037654Y-28152828D01*
X188037654Y-28152828D02*
X187966225Y-28438542D01*
X187966225Y-28438542D02*
X187823368Y-28581400D01*
X187823368Y-28581400D02*
X187680511Y-28652828D01*
X187680511Y-28652828D02*
X187394797Y-28652828D01*
X187394797Y-28652828D02*
X187251940Y-28581400D01*
X187251940Y-28581400D02*
X187109082Y-28438542D01*
X187109082Y-28438542D02*
X187037654Y-28152828D01*
X187037654Y-28152828D02*
X187037654Y-27652828D01*
X187037654Y-27652828D02*
X187109082Y-27367114D01*
X187109082Y-27367114D02*
X187251940Y-27224257D01*
X187251940Y-27224257D02*
X187394797Y-27152828D01*
X188537654Y-27152828D02*
X188894797Y-28652828D01*
X188894797Y-28652828D02*
X189180511Y-27581400D01*
X189180511Y-27581400D02*
X189466226Y-28652828D01*
X189466226Y-28652828D02*
X189823369Y-27152828D01*
X190394797Y-27867114D02*
X190894797Y-27867114D01*
X191109083Y-28652828D02*
X190394797Y-28652828D01*
X190394797Y-28652828D02*
X190394797Y-27152828D01*
X190394797Y-27152828D02*
X191109083Y-27152828D01*
X192609083Y-28652828D02*
X192109083Y-27938542D01*
X191751940Y-28652828D02*
X191751940Y-27152828D01*
X191751940Y-27152828D02*
X192323369Y-27152828D01*
X192323369Y-27152828D02*
X192466226Y-27224257D01*
X192466226Y-27224257D02*
X192537655Y-27295685D01*
X192537655Y-27295685D02*
X192609083Y-27438542D01*
X192609083Y-27438542D02*
X192609083Y-27652828D01*
X192609083Y-27652828D02*
X192537655Y-27795685D01*
X192537655Y-27795685D02*
X192466226Y-27867114D01*
X192466226Y-27867114D02*
X192323369Y-27938542D01*
X192323369Y-27938542D02*
X191751940Y-27938542D01*
X193251940Y-28081400D02*
X194394798Y-28081400D01*
X195037655Y-27295685D02*
X195109083Y-27224257D01*
X195109083Y-27224257D02*
X195251941Y-27152828D01*
X195251941Y-27152828D02*
X195609083Y-27152828D01*
X195609083Y-27152828D02*
X195751941Y-27224257D01*
X195751941Y-27224257D02*
X195823369Y-27295685D01*
X195823369Y-27295685D02*
X195894798Y-27438542D01*
X195894798Y-27438542D02*
X195894798Y-27581400D01*
X195894798Y-27581400D02*
X195823369Y-27795685D01*
X195823369Y-27795685D02*
X194966226Y-28652828D01*
X194966226Y-28652828D02*
X195894798Y-28652828D01*
X197180512Y-27652828D02*
X197180512Y-28652828D01*
X196823369Y-27081400D02*
X196466226Y-28152828D01*
X196466226Y-28152828D02*
X197394797Y-28152828D01*
X197751940Y-27152828D02*
X198251940Y-28652828D01*
X198251940Y-28652828D02*
X198751940Y-27152828D01*
X199251939Y-28081400D02*
X200394797Y-28081400D01*
X201109082Y-28652828D02*
X201109082Y-27152828D01*
X201109082Y-27152828D02*
X201680511Y-27152828D01*
X201680511Y-27152828D02*
X201823368Y-27224257D01*
X201823368Y-27224257D02*
X201894797Y-27295685D01*
X201894797Y-27295685D02*
X201966225Y-27438542D01*
X201966225Y-27438542D02*
X201966225Y-27652828D01*
X201966225Y-27652828D02*
X201894797Y-27795685D01*
X201894797Y-27795685D02*
X201823368Y-27867114D01*
X201823368Y-27867114D02*
X201680511Y-27938542D01*
X201680511Y-27938542D02*
X201109082Y-27938542D01*
X203466225Y-28509971D02*
X203394797Y-28581400D01*
X203394797Y-28581400D02*
X203180511Y-28652828D01*
X203180511Y-28652828D02*
X203037654Y-28652828D01*
X203037654Y-28652828D02*
X202823368Y-28581400D01*
X202823368Y-28581400D02*
X202680511Y-28438542D01*
X202680511Y-28438542D02*
X202609082Y-28295685D01*
X202609082Y-28295685D02*
X202537654Y-28009971D01*
X202537654Y-28009971D02*
X202537654Y-27795685D01*
X202537654Y-27795685D02*
X202609082Y-27509971D01*
X202609082Y-27509971D02*
X202680511Y-27367114D01*
X202680511Y-27367114D02*
X202823368Y-27224257D01*
X202823368Y-27224257D02*
X203037654Y-27152828D01*
X203037654Y-27152828D02*
X203180511Y-27152828D01*
X203180511Y-27152828D02*
X203394797Y-27224257D01*
X203394797Y-27224257D02*
X203466225Y-27295685D01*
X204609082Y-27867114D02*
X204823368Y-27938542D01*
X204823368Y-27938542D02*
X204894797Y-28009971D01*
X204894797Y-28009971D02*
X204966225Y-28152828D01*
X204966225Y-28152828D02*
X204966225Y-28367114D01*
X204966225Y-28367114D02*
X204894797Y-28509971D01*
X204894797Y-28509971D02*
X204823368Y-28581400D01*
X204823368Y-28581400D02*
X204680511Y-28652828D01*
X204680511Y-28652828D02*
X204109082Y-28652828D01*
X204109082Y-28652828D02*
X204109082Y-27152828D01*
X204109082Y-27152828D02*
X204609082Y-27152828D01*
X204609082Y-27152828D02*
X204751940Y-27224257D01*
X204751940Y-27224257D02*
X204823368Y-27295685D01*
X204823368Y-27295685D02*
X204894797Y-27438542D01*
X204894797Y-27438542D02*
X204894797Y-27581400D01*
X204894797Y-27581400D02*
X204823368Y-27724257D01*
X204823368Y-27724257D02*
X204751940Y-27795685D01*
X204751940Y-27795685D02*
X204609082Y-27867114D01*
X204609082Y-27867114D02*
X204109082Y-27867114D01*
X205251940Y-28795685D02*
X206394797Y-28795685D01*
X206680511Y-28224257D02*
X207394797Y-28224257D01*
X206537654Y-28652828D02*
X207037654Y-27152828D01*
X207037654Y-27152828D02*
X207537654Y-28652828D01*
X208323368Y-27152828D02*
X208466225Y-27152828D01*
X208466225Y-27152828D02*
X208609082Y-27224257D01*
X208609082Y-27224257D02*
X208680511Y-27295685D01*
X208680511Y-27295685D02*
X208751939Y-27438542D01*
X208751939Y-27438542D02*
X208823368Y-27724257D01*
X208823368Y-27724257D02*
X208823368Y-28081400D01*
X208823368Y-28081400D02*
X208751939Y-28367114D01*
X208751939Y-28367114D02*
X208680511Y-28509971D01*
X208680511Y-28509971D02*
X208609082Y-28581400D01*
X208609082Y-28581400D02*
X208466225Y-28652828D01*
X208466225Y-28652828D02*
X208323368Y-28652828D01*
X208323368Y-28652828D02*
X208180511Y-28581400D01*
X208180511Y-28581400D02*
X208109082Y-28509971D01*
X208109082Y-28509971D02*
X208037653Y-28367114D01*
X208037653Y-28367114D02*
X207966225Y-28081400D01*
X207966225Y-28081400D02*
X207966225Y-27724257D01*
X207966225Y-27724257D02*
X208037653Y-27438542D01*
X208037653Y-27438542D02*
X208109082Y-27295685D01*
X208109082Y-27295685D02*
X208180511Y-27224257D01*
X208180511Y-27224257D02*
X208323368Y-27152828D01*
X209109082Y-28795685D02*
X210251939Y-28795685D01*
X210894796Y-27152828D02*
X211037653Y-27152828D01*
X211037653Y-27152828D02*
X211180510Y-27224257D01*
X211180510Y-27224257D02*
X211251939Y-27295685D01*
X211251939Y-27295685D02*
X211323367Y-27438542D01*
X211323367Y-27438542D02*
X211394796Y-27724257D01*
X211394796Y-27724257D02*
X211394796Y-28081400D01*
X211394796Y-28081400D02*
X211323367Y-28367114D01*
X211323367Y-28367114D02*
X211251939Y-28509971D01*
X211251939Y-28509971D02*
X211180510Y-28581400D01*
X211180510Y-28581400D02*
X211037653Y-28652828D01*
X211037653Y-28652828D02*
X210894796Y-28652828D01*
X210894796Y-28652828D02*
X210751939Y-28581400D01*
X210751939Y-28581400D02*
X210680510Y-28509971D01*
X210680510Y-28509971D02*
X210609081Y-28367114D01*
X210609081Y-28367114D02*
X210537653Y-28081400D01*
X210537653Y-28081400D02*
X210537653Y-27724257D01*
X210537653Y-27724257D02*
X210609081Y-27438542D01*
X210609081Y-27438542D02*
X210680510Y-27295685D01*
X210680510Y-27295685D02*
X210751939Y-27224257D01*
X210751939Y-27224257D02*
X210894796Y-27152828D01*
X212680510Y-27652828D02*
X212680510Y-28652828D01*
X212323367Y-27081400D02*
X211966224Y-28152828D01*
X211966224Y-28152828D02*
X212894795Y-28152828D01*
X213394795Y-27295685D02*
X213466223Y-27224257D01*
X213466223Y-27224257D02*
X213609081Y-27152828D01*
X213609081Y-27152828D02*
X213966223Y-27152828D01*
X213966223Y-27152828D02*
X214109081Y-27224257D01*
X214109081Y-27224257D02*
X214180509Y-27295685D01*
X214180509Y-27295685D02*
X214251938Y-27438542D01*
X214251938Y-27438542D02*
X214251938Y-27581400D01*
X214251938Y-27581400D02*
X214180509Y-27795685D01*
X214180509Y-27795685D02*
X213323366Y-28652828D01*
X213323366Y-28652828D02*
X214251938Y-28652828D01*
X214966223Y-28652828D02*
X215251937Y-28652828D01*
X215251937Y-28652828D02*
X215394794Y-28581400D01*
X215394794Y-28581400D02*
X215466223Y-28509971D01*
X215466223Y-28509971D02*
X215609080Y-28295685D01*
X215609080Y-28295685D02*
X215680509Y-28009971D01*
X215680509Y-28009971D02*
X215680509Y-27438542D01*
X215680509Y-27438542D02*
X215609080Y-27295685D01*
X215609080Y-27295685D02*
X215537652Y-27224257D01*
X215537652Y-27224257D02*
X215394794Y-27152828D01*
X215394794Y-27152828D02*
X215109080Y-27152828D01*
X215109080Y-27152828D02*
X214966223Y-27224257D01*
X214966223Y-27224257D02*
X214894794Y-27295685D01*
X214894794Y-27295685D02*
X214823366Y-27438542D01*
X214823366Y-27438542D02*
X214823366Y-27795685D01*
X214823366Y-27795685D02*
X214894794Y-27938542D01*
X214894794Y-27938542D02*
X214966223Y-28009971D01*
X214966223Y-28009971D02*
X215109080Y-28081400D01*
X215109080Y-28081400D02*
X215394794Y-28081400D01*
X215394794Y-28081400D02*
X215537652Y-28009971D01*
X215537652Y-28009971D02*
X215609080Y-27938542D01*
X215609080Y-27938542D02*
X215680509Y-27795685D01*
X216251937Y-27295685D02*
X216323365Y-27224257D01*
X216323365Y-27224257D02*
X216466223Y-27152828D01*
X216466223Y-27152828D02*
X216823365Y-27152828D01*
X216823365Y-27152828D02*
X216966223Y-27224257D01*
X216966223Y-27224257D02*
X217037651Y-27295685D01*
X217037651Y-27295685D02*
X217109080Y-27438542D01*
X217109080Y-27438542D02*
X217109080Y-27581400D01*
X217109080Y-27581400D02*
X217037651Y-27795685D01*
X217037651Y-27795685D02*
X216180508Y-28652828D01*
X216180508Y-28652828D02*
X217109080Y-28652828D01*
X218037651Y-27152828D02*
X218180508Y-27152828D01*
X218180508Y-27152828D02*
X218323365Y-27224257D01*
X218323365Y-27224257D02*
X218394794Y-27295685D01*
X218394794Y-27295685D02*
X218466222Y-27438542D01*
X218466222Y-27438542D02*
X218537651Y-27724257D01*
X218537651Y-27724257D02*
X218537651Y-28081400D01*
X218537651Y-28081400D02*
X218466222Y-28367114D01*
X218466222Y-28367114D02*
X218394794Y-28509971D01*
X218394794Y-28509971D02*
X218323365Y-28581400D01*
X218323365Y-28581400D02*
X218180508Y-28652828D01*
X218180508Y-28652828D02*
X218037651Y-28652828D01*
X218037651Y-28652828D02*
X217894794Y-28581400D01*
X217894794Y-28581400D02*
X217823365Y-28509971D01*
X217823365Y-28509971D02*
X217751936Y-28367114D01*
X217751936Y-28367114D02*
X217680508Y-28081400D01*
X217680508Y-28081400D02*
X217680508Y-27724257D01*
X217680508Y-27724257D02*
X217751936Y-27438542D01*
X217751936Y-27438542D02*
X217823365Y-27295685D01*
X217823365Y-27295685D02*
X217894794Y-27224257D01*
X217894794Y-27224257D02*
X218037651Y-27152828D01*
X219109079Y-27295685D02*
X219180507Y-27224257D01*
X219180507Y-27224257D02*
X219323365Y-27152828D01*
X219323365Y-27152828D02*
X219680507Y-27152828D01*
X219680507Y-27152828D02*
X219823365Y-27224257D01*
X219823365Y-27224257D02*
X219894793Y-27295685D01*
X219894793Y-27295685D02*
X219966222Y-27438542D01*
X219966222Y-27438542D02*
X219966222Y-27581400D01*
X219966222Y-27581400D02*
X219894793Y-27795685D01*
X219894793Y-27795685D02*
X219037650Y-28652828D01*
X219037650Y-28652828D02*
X219966222Y-28652828D01*
X221251936Y-27652828D02*
X221251936Y-28652828D01*
X220894793Y-27081400D02*
X220537650Y-28152828D01*
X220537650Y-28152828D02*
X221466221Y-28152828D01*
X117687225Y-75175057D02*
X117544368Y-75103628D01*
X117544368Y-75103628D02*
X117330082Y-75103628D01*
X117330082Y-75103628D02*
X117115796Y-75175057D01*
X117115796Y-75175057D02*
X116972939Y-75317914D01*
X116972939Y-75317914D02*
X116901510Y-75460771D01*
X116901510Y-75460771D02*
X116830082Y-75746485D01*
X116830082Y-75746485D02*
X116830082Y-75960771D01*
X116830082Y-75960771D02*
X116901510Y-76246485D01*
X116901510Y-76246485D02*
X116972939Y-76389342D01*
X116972939Y-76389342D02*
X117115796Y-76532200D01*
X117115796Y-76532200D02*
X117330082Y-76603628D01*
X117330082Y-76603628D02*
X117472939Y-76603628D01*
X117472939Y-76603628D02*
X117687225Y-76532200D01*
X117687225Y-76532200D02*
X117758653Y-76460771D01*
X117758653Y-76460771D02*
X117758653Y-75960771D01*
X117758653Y-75960771D02*
X117472939Y-75960771D01*
X118401510Y-76603628D02*
X118401510Y-75103628D01*
X118401510Y-75103628D02*
X119258653Y-76603628D01*
X119258653Y-76603628D02*
X119258653Y-75103628D01*
X119972939Y-76603628D02*
X119972939Y-75103628D01*
X119972939Y-75103628D02*
X120330082Y-75103628D01*
X120330082Y-75103628D02*
X120544368Y-75175057D01*
X120544368Y-75175057D02*
X120687225Y-75317914D01*
X120687225Y-75317914D02*
X120758654Y-75460771D01*
X120758654Y-75460771D02*
X120830082Y-75746485D01*
X120830082Y-75746485D02*
X120830082Y-75960771D01*
X120830082Y-75960771D02*
X120758654Y-76246485D01*
X120758654Y-76246485D02*
X120687225Y-76389342D01*
X120687225Y-76389342D02*
X120544368Y-76532200D01*
X120544368Y-76532200D02*
X120330082Y-76603628D01*
X120330082Y-76603628D02*
X119972939Y-76603628D01*
X122615796Y-76603628D02*
X122615796Y-75103628D01*
X123330082Y-76603628D02*
X123330082Y-75103628D01*
X123330082Y-75103628D02*
X124187225Y-76603628D01*
X124187225Y-76603628D02*
X124187225Y-75103628D01*
X124901511Y-76603628D02*
X124901511Y-75103628D01*
X124901511Y-75103628D02*
X125472940Y-75103628D01*
X125472940Y-75103628D02*
X125615797Y-75175057D01*
X125615797Y-75175057D02*
X125687226Y-75246485D01*
X125687226Y-75246485D02*
X125758654Y-75389342D01*
X125758654Y-75389342D02*
X125758654Y-75603628D01*
X125758654Y-75603628D02*
X125687226Y-75746485D01*
X125687226Y-75746485D02*
X125615797Y-75817914D01*
X125615797Y-75817914D02*
X125472940Y-75889342D01*
X125472940Y-75889342D02*
X124901511Y-75889342D01*
X126401511Y-75103628D02*
X126401511Y-76317914D01*
X126401511Y-76317914D02*
X126472940Y-76460771D01*
X126472940Y-76460771D02*
X126544369Y-76532200D01*
X126544369Y-76532200D02*
X126687226Y-76603628D01*
X126687226Y-76603628D02*
X126972940Y-76603628D01*
X126972940Y-76603628D02*
X127115797Y-76532200D01*
X127115797Y-76532200D02*
X127187226Y-76460771D01*
X127187226Y-76460771D02*
X127258654Y-76317914D01*
X127258654Y-76317914D02*
X127258654Y-75103628D01*
X127758655Y-75103628D02*
X128615798Y-75103628D01*
X128187226Y-76603628D02*
X128187226Y-75103628D01*
X239177482Y-47625684D02*
X239248910Y-47554256D01*
X239248910Y-47554256D02*
X239391768Y-47482827D01*
X239391768Y-47482827D02*
X239748910Y-47482827D01*
X239748910Y-47482827D02*
X239891768Y-47554256D01*
X239891768Y-47554256D02*
X239963196Y-47625684D01*
X239963196Y-47625684D02*
X240034625Y-47768541D01*
X240034625Y-47768541D02*
X240034625Y-47911399D01*
X240034625Y-47911399D02*
X239963196Y-48125684D01*
X239963196Y-48125684D02*
X239106053Y-48982827D01*
X239106053Y-48982827D02*
X240034625Y-48982827D01*
X241320339Y-47982827D02*
X241320339Y-48982827D01*
X240963196Y-47411399D02*
X240606053Y-48482827D01*
X240606053Y-48482827D02*
X241534624Y-48482827D01*
X241891767Y-47482827D02*
X242391767Y-48982827D01*
X242391767Y-48982827D02*
X242891767Y-47482827D01*
X244820338Y-47482827D02*
X245106052Y-47482827D01*
X245106052Y-47482827D02*
X245248909Y-47554256D01*
X245248909Y-47554256D02*
X245391766Y-47697113D01*
X245391766Y-47697113D02*
X245463195Y-47982827D01*
X245463195Y-47982827D02*
X245463195Y-48482827D01*
X245463195Y-48482827D02*
X245391766Y-48768541D01*
X245391766Y-48768541D02*
X245248909Y-48911399D01*
X245248909Y-48911399D02*
X245106052Y-48982827D01*
X245106052Y-48982827D02*
X244820338Y-48982827D01*
X244820338Y-48982827D02*
X244677481Y-48911399D01*
X244677481Y-48911399D02*
X244534623Y-48768541D01*
X244534623Y-48768541D02*
X244463195Y-48482827D01*
X244463195Y-48482827D02*
X244463195Y-47982827D01*
X244463195Y-47982827D02*
X244534623Y-47697113D01*
X244534623Y-47697113D02*
X244677481Y-47554256D01*
X244677481Y-47554256D02*
X244820338Y-47482827D01*
X246106052Y-47482827D02*
X246106052Y-48697113D01*
X246106052Y-48697113D02*
X246177481Y-48839970D01*
X246177481Y-48839970D02*
X246248910Y-48911399D01*
X246248910Y-48911399D02*
X246391767Y-48982827D01*
X246391767Y-48982827D02*
X246677481Y-48982827D01*
X246677481Y-48982827D02*
X246820338Y-48911399D01*
X246820338Y-48911399D02*
X246891767Y-48839970D01*
X246891767Y-48839970D02*
X246963195Y-48697113D01*
X246963195Y-48697113D02*
X246963195Y-47482827D01*
X247463196Y-47482827D02*
X248320339Y-47482827D01*
X247891767Y-48982827D02*
X247891767Y-47482827D01*
X248820338Y-48982827D02*
X248820338Y-47482827D01*
X248820338Y-47482827D02*
X249391767Y-47482827D01*
X249391767Y-47482827D02*
X249534624Y-47554256D01*
X249534624Y-47554256D02*
X249606053Y-47625684D01*
X249606053Y-47625684D02*
X249677481Y-47768541D01*
X249677481Y-47768541D02*
X249677481Y-47982827D01*
X249677481Y-47982827D02*
X249606053Y-48125684D01*
X249606053Y-48125684D02*
X249534624Y-48197113D01*
X249534624Y-48197113D02*
X249391767Y-48268541D01*
X249391767Y-48268541D02*
X248820338Y-48268541D01*
X250320338Y-47482827D02*
X250320338Y-48697113D01*
X250320338Y-48697113D02*
X250391767Y-48839970D01*
X250391767Y-48839970D02*
X250463196Y-48911399D01*
X250463196Y-48911399D02*
X250606053Y-48982827D01*
X250606053Y-48982827D02*
X250891767Y-48982827D01*
X250891767Y-48982827D02*
X251034624Y-48911399D01*
X251034624Y-48911399D02*
X251106053Y-48839970D01*
X251106053Y-48839970D02*
X251177481Y-48697113D01*
X251177481Y-48697113D02*
X251177481Y-47482827D01*
X251677482Y-47482827D02*
X252534625Y-47482827D01*
X252106053Y-48982827D02*
X252106053Y-47482827D01*
D12*
X128510580Y-32970267D02*
X127796295Y-32970267D01*
X127796295Y-32970267D02*
X127653438Y-32922648D01*
X127653438Y-32922648D02*
X127558200Y-32827410D01*
X127558200Y-32827410D02*
X127510580Y-32684553D01*
X127510580Y-32684553D02*
X127510580Y-32589315D01*
X127510580Y-33970267D02*
X127510580Y-33398839D01*
X127510580Y-33684553D02*
X128510580Y-33684553D01*
X128510580Y-33684553D02*
X128367723Y-33589315D01*
X128367723Y-33589315D02*
X128272485Y-33494077D01*
X128272485Y-33494077D02*
X128224866Y-33398839D01*
X130033619Y-52607733D02*
X129986000Y-52560114D01*
X129986000Y-52560114D02*
X129938380Y-52417257D01*
X129938380Y-52417257D02*
X129938380Y-52322019D01*
X129938380Y-52322019D02*
X129986000Y-52179162D01*
X129986000Y-52179162D02*
X130081238Y-52083924D01*
X130081238Y-52083924D02*
X130176476Y-52036305D01*
X130176476Y-52036305D02*
X130366952Y-51988686D01*
X130366952Y-51988686D02*
X130509809Y-51988686D01*
X130509809Y-51988686D02*
X130700285Y-52036305D01*
X130700285Y-52036305D02*
X130795523Y-52083924D01*
X130795523Y-52083924D02*
X130890761Y-52179162D01*
X130890761Y-52179162D02*
X130938380Y-52322019D01*
X130938380Y-52322019D02*
X130938380Y-52417257D01*
X130938380Y-52417257D02*
X130890761Y-52560114D01*
X130890761Y-52560114D02*
X130843142Y-52607733D01*
X129938380Y-53560114D02*
X129938380Y-52988686D01*
X129938380Y-53274400D02*
X130938380Y-53274400D01*
X130938380Y-53274400D02*
X130795523Y-53179162D01*
X130795523Y-53179162D02*
X130700285Y-53083924D01*
X130700285Y-53083924D02*
X130652666Y-52988686D01*
X243749419Y-70209933D02*
X243701800Y-70162314D01*
X243701800Y-70162314D02*
X243654180Y-70019457D01*
X243654180Y-70019457D02*
X243654180Y-69924219D01*
X243654180Y-69924219D02*
X243701800Y-69781362D01*
X243701800Y-69781362D02*
X243797038Y-69686124D01*
X243797038Y-69686124D02*
X243892276Y-69638505D01*
X243892276Y-69638505D02*
X244082752Y-69590886D01*
X244082752Y-69590886D02*
X244225609Y-69590886D01*
X244225609Y-69590886D02*
X244416085Y-69638505D01*
X244416085Y-69638505D02*
X244511323Y-69686124D01*
X244511323Y-69686124D02*
X244606561Y-69781362D01*
X244606561Y-69781362D02*
X244654180Y-69924219D01*
X244654180Y-69924219D02*
X244654180Y-70019457D01*
X244654180Y-70019457D02*
X244606561Y-70162314D01*
X244606561Y-70162314D02*
X244558942Y-70209933D01*
X244654180Y-70543267D02*
X244654180Y-71162314D01*
X244654180Y-71162314D02*
X244273228Y-70828981D01*
X244273228Y-70828981D02*
X244273228Y-70971838D01*
X244273228Y-70971838D02*
X244225609Y-71067076D01*
X244225609Y-71067076D02*
X244177990Y-71114695D01*
X244177990Y-71114695D02*
X244082752Y-71162314D01*
X244082752Y-71162314D02*
X243844657Y-71162314D01*
X243844657Y-71162314D02*
X243749419Y-71114695D01*
X243749419Y-71114695D02*
X243701800Y-71067076D01*
X243701800Y-71067076D02*
X243654180Y-70971838D01*
X243654180Y-70971838D02*
X243654180Y-70686124D01*
X243654180Y-70686124D02*
X243701800Y-70590886D01*
X243701800Y-70590886D02*
X243749419Y-70543267D01*
X245250818Y-56500332D02*
X245965103Y-56500332D01*
X245965103Y-56500332D02*
X246107960Y-56547951D01*
X246107960Y-56547951D02*
X246203199Y-56643189D01*
X246203199Y-56643189D02*
X246250818Y-56786046D01*
X246250818Y-56786046D02*
X246250818Y-56881284D01*
X245250818Y-56119379D02*
X245250818Y-55500332D01*
X245250818Y-55500332D02*
X245631770Y-55833665D01*
X245631770Y-55833665D02*
X245631770Y-55690808D01*
X245631770Y-55690808D02*
X245679389Y-55595570D01*
X245679389Y-55595570D02*
X245727008Y-55547951D01*
X245727008Y-55547951D02*
X245822246Y-55500332D01*
X245822246Y-55500332D02*
X246060341Y-55500332D01*
X246060341Y-55500332D02*
X246155579Y-55547951D01*
X246155579Y-55547951D02*
X246203199Y-55595570D01*
X246203199Y-55595570D02*
X246250818Y-55690808D01*
X246250818Y-55690808D02*
X246250818Y-55976522D01*
X246250818Y-55976522D02*
X246203199Y-56071760D01*
X246203199Y-56071760D02*
X246155579Y-56119379D01*
X128586581Y-83721166D02*
X127872296Y-83721166D01*
X127872296Y-83721166D02*
X127729439Y-83673547D01*
X127729439Y-83673547D02*
X127634201Y-83578309D01*
X127634201Y-83578309D02*
X127586581Y-83435452D01*
X127586581Y-83435452D02*
X127586581Y-83340214D01*
X128491343Y-84149738D02*
X128538962Y-84197357D01*
X128538962Y-84197357D02*
X128586581Y-84292595D01*
X128586581Y-84292595D02*
X128586581Y-84530690D01*
X128586581Y-84530690D02*
X128538962Y-84625928D01*
X128538962Y-84625928D02*
X128491343Y-84673547D01*
X128491343Y-84673547D02*
X128396105Y-84721166D01*
X128396105Y-84721166D02*
X128300867Y-84721166D01*
X128300867Y-84721166D02*
X128158010Y-84673547D01*
X128158010Y-84673547D02*
X127586581Y-84102119D01*
X127586581Y-84102119D02*
X127586581Y-84721166D01*
D13*
X139881318Y-39284819D02*
X140909413Y-39284819D01*
X140909413Y-39284819D02*
X141030365Y-39224342D01*
X141030365Y-39224342D02*
X141090842Y-39163866D01*
X141090842Y-39163866D02*
X141151318Y-39042914D01*
X141151318Y-39042914D02*
X141151318Y-38801009D01*
X141151318Y-38801009D02*
X141090842Y-38680057D01*
X141090842Y-38680057D02*
X141030365Y-38619580D01*
X141030365Y-38619580D02*
X140909413Y-38559104D01*
X140909413Y-38559104D02*
X139881318Y-38559104D01*
X141151318Y-37289104D02*
X141151318Y-38014819D01*
X141151318Y-37651962D02*
X139881318Y-37651962D01*
X139881318Y-37651962D02*
X140062746Y-37772914D01*
X140062746Y-37772914D02*
X140183699Y-37893866D01*
X140183699Y-37893866D02*
X140244175Y-38014819D01*
X205838456Y-33612918D02*
X205838456Y-32342918D01*
X205838456Y-32342918D02*
X206322266Y-32342918D01*
X206322266Y-32342918D02*
X206443218Y-32403394D01*
X206443218Y-32403394D02*
X206503695Y-32463870D01*
X206503695Y-32463870D02*
X206564171Y-32584822D01*
X206564171Y-32584822D02*
X206564171Y-32766251D01*
X206564171Y-32766251D02*
X206503695Y-32887203D01*
X206503695Y-32887203D02*
X206443218Y-32947680D01*
X206443218Y-32947680D02*
X206322266Y-33008156D01*
X206322266Y-33008156D02*
X205838456Y-33008156D01*
X207047980Y-33552442D02*
X207229409Y-33612918D01*
X207229409Y-33612918D02*
X207531790Y-33612918D01*
X207531790Y-33612918D02*
X207652742Y-33552442D01*
X207652742Y-33552442D02*
X207713218Y-33491965D01*
X207713218Y-33491965D02*
X207773695Y-33371013D01*
X207773695Y-33371013D02*
X207773695Y-33250061D01*
X207773695Y-33250061D02*
X207713218Y-33129108D01*
X207713218Y-33129108D02*
X207652742Y-33068632D01*
X207652742Y-33068632D02*
X207531790Y-33008156D01*
X207531790Y-33008156D02*
X207289885Y-32947680D01*
X207289885Y-32947680D02*
X207168933Y-32887203D01*
X207168933Y-32887203D02*
X207108456Y-32826727D01*
X207108456Y-32826727D02*
X207047980Y-32705775D01*
X207047980Y-32705775D02*
X207047980Y-32584822D01*
X207047980Y-32584822D02*
X207108456Y-32463870D01*
X207108456Y-32463870D02*
X207168933Y-32403394D01*
X207168933Y-32403394D02*
X207289885Y-32342918D01*
X207289885Y-32342918D02*
X207592266Y-32342918D01*
X207592266Y-32342918D02*
X207773695Y-32403394D01*
X208983219Y-33612918D02*
X208257504Y-33612918D01*
X208620361Y-33612918D02*
X208620361Y-32342918D01*
X208620361Y-32342918D02*
X208499409Y-32524346D01*
X208499409Y-32524346D02*
X208378457Y-32645299D01*
X208378457Y-32645299D02*
X208257504Y-32705775D01*
D12*
X245305819Y-88250332D02*
X246020104Y-88250332D01*
X246020104Y-88250332D02*
X246162961Y-88297951D01*
X246162961Y-88297951D02*
X246258200Y-88393189D01*
X246258200Y-88393189D02*
X246305819Y-88536046D01*
X246305819Y-88536046D02*
X246305819Y-88631284D01*
X245639152Y-87345570D02*
X246305819Y-87345570D01*
X245258200Y-87583665D02*
X245972485Y-87821760D01*
X245972485Y-87821760D02*
X245972485Y-87202713D01*
X169345666Y-53761019D02*
X169393285Y-53713400D01*
X169393285Y-53713400D02*
X169536142Y-53665780D01*
X169536142Y-53665780D02*
X169631380Y-53665780D01*
X169631380Y-53665780D02*
X169774237Y-53713400D01*
X169774237Y-53713400D02*
X169869475Y-53808638D01*
X169869475Y-53808638D02*
X169917094Y-53903876D01*
X169917094Y-53903876D02*
X169964713Y-54094352D01*
X169964713Y-54094352D02*
X169964713Y-54237209D01*
X169964713Y-54237209D02*
X169917094Y-54427685D01*
X169917094Y-54427685D02*
X169869475Y-54522923D01*
X169869475Y-54522923D02*
X169774237Y-54618161D01*
X169774237Y-54618161D02*
X169631380Y-54665780D01*
X169631380Y-54665780D02*
X169536142Y-54665780D01*
X169536142Y-54665780D02*
X169393285Y-54618161D01*
X169393285Y-54618161D02*
X169345666Y-54570542D01*
X168964713Y-54570542D02*
X168917094Y-54618161D01*
X168917094Y-54618161D02*
X168821856Y-54665780D01*
X168821856Y-54665780D02*
X168583761Y-54665780D01*
X168583761Y-54665780D02*
X168488523Y-54618161D01*
X168488523Y-54618161D02*
X168440904Y-54570542D01*
X168440904Y-54570542D02*
X168393285Y-54475304D01*
X168393285Y-54475304D02*
X168393285Y-54380066D01*
X168393285Y-54380066D02*
X168440904Y-54237209D01*
X168440904Y-54237209D02*
X169012332Y-53665780D01*
X169012332Y-53665780D02*
X168393285Y-53665780D01*
X135470819Y-69844694D02*
X134470819Y-69844694D01*
X134470819Y-69844694D02*
X134470819Y-69606599D01*
X134470819Y-69606599D02*
X134518438Y-69463742D01*
X134518438Y-69463742D02*
X134613676Y-69368504D01*
X134613676Y-69368504D02*
X134708914Y-69320885D01*
X134708914Y-69320885D02*
X134899390Y-69273266D01*
X134899390Y-69273266D02*
X135042247Y-69273266D01*
X135042247Y-69273266D02*
X135232723Y-69320885D01*
X135232723Y-69320885D02*
X135327961Y-69368504D01*
X135327961Y-69368504D02*
X135423200Y-69463742D01*
X135423200Y-69463742D02*
X135470819Y-69606599D01*
X135470819Y-69606599D02*
X135470819Y-69844694D01*
X135470819Y-68320885D02*
X135470819Y-68892313D01*
X135470819Y-68606599D02*
X134470819Y-68606599D01*
X134470819Y-68606599D02*
X134613676Y-68701837D01*
X134613676Y-68701837D02*
X134708914Y-68797075D01*
X134708914Y-68797075D02*
X134756533Y-68892313D01*
D14*
X135092419Y-75420066D02*
X135092419Y-75896256D01*
X135092419Y-75896256D02*
X134092419Y-75896256D01*
X135092419Y-74562923D02*
X135092419Y-75134351D01*
X135092419Y-74848637D02*
X134092419Y-74848637D01*
X134092419Y-74848637D02*
X134235276Y-74943875D01*
X134235276Y-74943875D02*
X134330514Y-75039113D01*
X134330514Y-75039113D02*
X134378133Y-75134351D01*
D15*
%TO.C,J1*%
X135092399Y-26852001D02*
X115635999Y-26852001D01*
X115635999Y-26852001D02*
X115635999Y-39755201D01*
X135092399Y-39755201D02*
X135092399Y-26852001D01*
X115635999Y-39755201D02*
X135092399Y-39755201D01*
D16*
X132446399Y-25074001D02*
G75*
G03*
X132446399Y-25074001I-381000J0D01*
G01*
D15*
%TO.C,C1*%
X122646200Y-44779750D02*
X122646200Y-46049750D01*
X123281200Y-45414750D02*
X122011200Y-45414750D01*
X129275600Y-52806150D02*
G75*
G03*
X129275600Y-52806150I-6629400J0D01*
G01*
%TO.C,C3*%
X252491000Y-62263200D02*
X252491000Y-63533200D01*
X253126000Y-62898200D02*
X251856000Y-62898200D01*
X259120400Y-70289600D02*
G75*
G03*
X259120400Y-70289600I-6629400J0D01*
G01*
%TO.C,J3*%
X238669000Y-62618599D02*
X258125400Y-62618599D01*
X258125400Y-62618599D02*
X258125400Y-49715399D01*
X238669000Y-49715399D02*
X238669000Y-62618599D01*
X258125400Y-49715399D02*
X238669000Y-49715399D01*
D16*
X242077000Y-64396599D02*
G75*
G03*
X242077000Y-64396599I-381000J0D01*
G01*
D15*
%TO.C,J2*%
X135168400Y-77602900D02*
X115712000Y-77602900D01*
X115712000Y-77602900D02*
X115712000Y-90506100D01*
X135168400Y-90506100D02*
X135168400Y-77602900D01*
X115712000Y-90506100D02*
X135168400Y-90506100D01*
D16*
X132522400Y-75824900D02*
G75*
G03*
X132522400Y-75824900I-381000J0D01*
G01*
D10*
%TO.C,U1*%
X145177000Y-26779200D02*
X141500000Y-26779200D01*
X145177000Y-26779200D02*
X145177000Y-51179200D01*
X135777000Y-26779200D02*
X139454000Y-26779200D01*
X145177000Y-51179200D02*
X141500000Y-51179200D01*
X135777000Y-51179200D02*
X135777000Y-26779200D01*
X135777000Y-51179200D02*
X139454000Y-51179200D01*
X140656490Y-26092200D02*
G75*
G03*
X140656490Y-26092200I-66490J0D01*
G01*
%TO.C,PS1*%
X178715800Y-47933800D02*
X178715800Y-47933800D01*
X178715800Y-47933800D02*
X178815800Y-47933800D01*
X178815800Y-47933800D02*
X178815800Y-47933800D01*
X179365800Y-35233800D02*
X179365800Y-96233800D01*
X179365800Y-96233800D02*
X237265800Y-96233800D01*
X237265800Y-35233800D02*
X179365800Y-35233800D01*
X237265800Y-96233800D02*
X237265800Y-35233800D01*
X178815800Y-47933800D02*
G75*
G03*
X178715800Y-47933800I-50000J0D01*
G01*
X178715800Y-47933800D02*
G75*
G03*
X178815800Y-47933800I50000J0D01*
G01*
D15*
%TO.C,J4*%
X238724001Y-94368599D02*
X258180401Y-94368599D01*
X258180401Y-94368599D02*
X258180401Y-81465399D01*
X238724001Y-81465399D02*
X238724001Y-94368599D01*
X258180401Y-81465399D02*
X238724001Y-81465399D01*
D16*
X242132001Y-96146599D02*
G75*
G03*
X242132001Y-96146599I-381000J0D01*
G01*
D15*
%TO.C,C2*%
X177249850Y-46322800D02*
X175979850Y-46322800D01*
X176614850Y-46957800D02*
X176614850Y-45687800D01*
X175852850Y-46322800D02*
G75*
G03*
X175852850Y-46322800I-6629400J0D01*
G01*
D17*
%TO.C,D1*%
X133523500Y-67584100D02*
X133523500Y-74439100D01*
X132471000Y-67584100D02*
X133523500Y-67584100D01*
X128671000Y-67584100D02*
X127618500Y-67584100D01*
X127618500Y-67584100D02*
X127618500Y-74439100D01*
X133523500Y-74439100D02*
X132471000Y-74439100D01*
X127618500Y-74439100D02*
X128671000Y-74439100D01*
D10*
X130771000Y-65511600D02*
G75*
G03*
X130771000Y-65511600I-100000J0D01*
G01*
D14*
%TO.C,L1*%
X135803400Y-92957200D02*
X139511800Y-97199000D01*
X135758400Y-97269400D02*
X177758400Y-97269400D01*
X177758400Y-97269400D02*
X177758400Y-55269400D01*
X177758400Y-55269400D02*
X135758400Y-55269400D01*
X135758400Y-55269400D02*
X135758400Y-97269400D01*
%TD*%
M02*
