M48
; DRILL file {KiCad 7.0.8} date Mon Apr 29 16:48:25 2024
; FORMAT={-:-/ absolute / inch / decimal}
; #@! TF.CreationDate,2024-04-29T16:48:25-06:00
; #@! TF.GenerationSoftware,Kicad,Pcbnew,7.0.8
; #@! TF.FileFunction,Plated,1,2,PTH
FMAT,2
INCH
; #@! TA.AperFunction,Plated,PTH,ComponentDrill
T1C0.0340
; #@! TA.AperFunction,Plated,PTH,ComponentDrill
T2C0.0480
; #@! TA.AperFunction,Plated,PTH,ComponentDrill
T3C0.0550
; #@! TA.AperFunction,Plated,PTH,ComponentDrill
T4C0.0591
; #@! TA.AperFunction,Plated,PTH,ComponentDrill
T5C0.0709
; #@! TA.AperFunction,Plated,PTH,ComponentDrill
T6C0.0878
; #@! TA.AperFunction,Plated,PTH,ComponentDrill
T7C0.1260
%
G90
G05
T1
X4.8286Y-1.9806
X4.8286Y-2.1774
X6.5639Y-1.8237
X6.7608Y-1.8237
X9.9406Y-2.6689
X9.9406Y-2.8657
T2
X7.2526Y-2.2887
X7.2526Y-2.8872
X9.1542Y-2.2887
X9.1542Y-2.5879
X9.1542Y-2.8872
T3
X4.8766Y-1.2039
X4.8766Y-1.4007
X4.8796Y-3.2019
X4.8796Y-3.3988
X5.1994Y-1.2039
X5.1994Y-1.4007
X5.2024Y-3.2019
X5.2024Y-3.3988
X9.5156Y-2.1217
X9.5156Y-2.3186
X9.5178Y-3.3717
X9.5178Y-3.5686
X9.8384Y-2.1217
X9.8384Y-2.3186
X9.8406Y-3.3717
X9.8406Y-3.5686
T4
X5.5306Y-1.0897
X5.5306Y-1.9795
T5
X5.581Y-2.6681
X5.581Y-3.3374
X6.7621Y-2.6681
X6.7621Y-3.3374
T6
X7.2526Y-1.8872
X7.2526Y-3.2887
X9.1542Y-1.8872
X9.1542Y-3.2887
T7
X7.2526Y-1.5879
X7.2526Y-3.5879
X9.1542Y-1.5879
X9.1542Y-3.5879
T0
M30
