%TF.GenerationSoftware,KiCad,Pcbnew,7.0.8*%
%TF.CreationDate,2024-04-29T16:48:28-06:00*%
%TF.ProjectId,GR-LRR-POWER-PCB-HIGH-VOLTAGE,47522d4c-5252-42d5-904f-5745522d5043,rev?*%
%TF.SameCoordinates,Original*%
%TF.FileFunction,Copper,L2,Bot*%
%TF.FilePolarity,Positive*%
%FSLAX46Y46*%
G04 Gerber Fmt 4.6, Leading zero omitted, Abs format (unit mm)*
G04 Created by KiCad (PCBNEW 7.0.8) date 2024-04-29 16:48:28*
%MOMM*%
%LPD*%
G01*
G04 APERTURE LIST*
%TA.AperFunction,ComponentPad*%
%ADD10C,1.905000*%
%TD*%
%TA.AperFunction,ComponentPad*%
%ADD11C,1.371600*%
%TD*%
%TA.AperFunction,ComponentPad*%
%ADD12C,2.300000*%
%TD*%
%TA.AperFunction,ComponentPad*%
%ADD13C,3.345000*%
%TD*%
%TA.AperFunction,ComponentPad*%
%ADD14C,1.830000*%
%TD*%
%TA.AperFunction,ComponentPad*%
%ADD15C,4.800000*%
%TD*%
%TA.AperFunction,ComponentPad*%
%ADD16C,2.500000*%
%TD*%
G04 APERTURE END LIST*
D10*
%TO.P,J1,1_1,1_1*%
%TO.N,Net-(J1-Pad1_1)*%
X132065399Y-30578600D03*
%TO.P,J1,1_2,1_2*%
X123865400Y-30578600D03*
%TO.P,J1,2_1,2_1*%
X132065399Y-35578600D03*
%TO.P,J1,2_2,2_2*%
X123865400Y-35578600D03*
%TD*%
D11*
%TO.P,C1,1*%
%TO.N,BATT+*%
X122646200Y-50306150D03*
%TO.P,C1,2*%
%TO.N,GND*%
X122646200Y-55306150D03*
%TD*%
%TO.P,C3,1*%
%TO.N,+24V*%
X252491000Y-67789600D03*
%TO.P,C3,2*%
%TO.N,GND*%
X252491000Y-72789600D03*
%TD*%
D10*
%TO.P,J3,1_1,1_1*%
%TO.N,+24V*%
X241696000Y-58892000D03*
%TO.P,J3,1_2,1_2*%
X249895999Y-58892000D03*
%TO.P,J3,2_1,2_1*%
X241696000Y-53892000D03*
%TO.P,J3,2_2,2_2*%
X249895999Y-53892000D03*
%TD*%
%TO.P,J2,1_1,1_1*%
%TO.N,GND*%
X132141400Y-81329499D03*
%TO.P,J2,1_2,1_2*%
X123941401Y-81329499D03*
%TO.P,J2,2_1,2_1*%
X132141400Y-86329499D03*
%TO.P,J2,2_2,2_2*%
X123941401Y-86329499D03*
%TD*%
D12*
%TO.P,U1,1,1*%
%TO.N,Net-(J1-Pad1_1)*%
X140477000Y-27679200D03*
%TO.P,U1,2,2*%
%TO.N,BATT+*%
X140477000Y-50279200D03*
%TD*%
D13*
%TO.P,PS1,1,+VIN*%
%TO.N,Net-(L1-2N2)*%
X184215800Y-47933800D03*
D14*
%TO.P,PS1,2,REMOTE_ON/OFF*%
%TO.N,unconnected-(PS1-REMOTE_ON{slash}OFF-Pad2)*%
X184215800Y-58133800D03*
%TO.P,PS1,3,CASE*%
%TO.N,unconnected-(PS1-CASE-Pad3)*%
X184215800Y-73333800D03*
D13*
%TO.P,PS1,4,-VIN*%
%TO.N,Net-(L1-2N1)*%
X184215800Y-83533800D03*
%TO.P,PS1,5,-VOUT*%
%TO.N,GND*%
X232515800Y-83533800D03*
D14*
%TO.P,PS1,6,-SENSE*%
%TO.N,unconnected-(PS1--SENSE-Pad6)*%
X232515800Y-73333800D03*
%TO.P,PS1,7,TRIM*%
%TO.N,unconnected-(PS1-TRIM-Pad7)*%
X232515800Y-65733800D03*
%TO.P,PS1,8,+SENSE*%
%TO.N,unconnected-(PS1-+SENSE-Pad8)*%
X232515800Y-58133800D03*
D13*
%TO.P,PS1,9,+VOUT*%
%TO.N,+24V*%
X232515800Y-47933800D03*
D15*
%TO.P,PS1,MH1,MH1*%
%TO.N,unconnected-(PS1-PadMH1)*%
X184215800Y-40333800D03*
%TO.P,PS1,MH2,MH2*%
%TO.N,unconnected-(PS1-PadMH2)*%
X184215800Y-91133800D03*
%TO.P,PS1,MH3,MH3*%
%TO.N,unconnected-(PS1-PadMH3)*%
X232515800Y-40333800D03*
%TO.P,PS1,MH4,MH4*%
%TO.N,unconnected-(PS1-PadMH4)*%
X232515800Y-91133800D03*
%TD*%
D10*
%TO.P,J4,1_1,1_1*%
%TO.N,GND*%
X241751001Y-90642000D03*
%TO.P,J4,1_2,1_2*%
X249951000Y-90642000D03*
%TO.P,J4,2_1,2_1*%
X241751001Y-85642000D03*
%TO.P,J4,2_2,2_2*%
X249951000Y-85642000D03*
%TD*%
D11*
%TO.P,C2,1*%
%TO.N,Net-(L1-2N2)*%
X171723450Y-46322800D03*
%TO.P,C2,2*%
%TO.N,Net-(L1-2N1)*%
X166723450Y-46322800D03*
%TD*%
D16*
%TO.P,L1,1,1N1*%
%TO.N,GND*%
X141758400Y-84769400D03*
%TO.P,L1,2,1N2*%
%TO.N,BATT+*%
X141758400Y-67769400D03*
%TO.P,L1,3,2N2*%
%TO.N,Net-(L1-2N2)*%
X171758400Y-67769400D03*
%TO.P,L1,4,2N1*%
%TO.N,Net-(L1-2N1)*%
X171758400Y-84769400D03*
%TD*%
%TA.AperFunction,Conductor*%
%TO.N,BATT+*%
G36*
X144826677Y-40703685D02*
G01*
X144847319Y-40720319D01*
X145774681Y-41647681D01*
X145808166Y-41709004D01*
X145811000Y-41735362D01*
X145811000Y-70620638D01*
X145791315Y-70687677D01*
X145774681Y-70708319D01*
X144847319Y-71635681D01*
X144785996Y-71669166D01*
X144759638Y-71672000D01*
X127812362Y-71672000D01*
X127745323Y-71652315D01*
X127724681Y-71635681D01*
X126797319Y-70708319D01*
X126773668Y-70665005D01*
X140277008Y-70665005D01*
X140553673Y-70793003D01*
X140887656Y-70905536D01*
X141231837Y-70981296D01*
X141582188Y-71019399D01*
X141582195Y-71019400D01*
X141934605Y-71019400D01*
X141934611Y-71019399D01*
X142284962Y-70981296D01*
X142629143Y-70905536D01*
X142963123Y-70793005D01*
X143239790Y-70665003D01*
X141758400Y-69183613D01*
X140277008Y-70665003D01*
X140277008Y-70665005D01*
X126773668Y-70665005D01*
X126763834Y-70646996D01*
X126761000Y-70620638D01*
X126761000Y-67769402D01*
X138503627Y-67769402D01*
X138522706Y-68121300D01*
X138522708Y-68121317D01*
X138579719Y-68469067D01*
X138579725Y-68469093D01*
X138674000Y-68808643D01*
X138674002Y-68808650D01*
X138804443Y-69136034D01*
X138804452Y-69136052D01*
X138864420Y-69249165D01*
X140249592Y-67863994D01*
X140858400Y-67863994D01*
X140897735Y-68049047D01*
X140974684Y-68221878D01*
X141085886Y-68374934D01*
X141226480Y-68501526D01*
X141390321Y-68596119D01*
X141570249Y-68654582D01*
X141711236Y-68669400D01*
X141805564Y-68669400D01*
X141946551Y-68654582D01*
X142126479Y-68596119D01*
X142290320Y-68501526D01*
X142430914Y-68374934D01*
X142542116Y-68221879D01*
X142619065Y-68049047D01*
X142658400Y-67863994D01*
X142658400Y-67769400D01*
X143172613Y-67769400D01*
X144652378Y-69249165D01*
X144712348Y-69136052D01*
X144712356Y-69136034D01*
X144842797Y-68808650D01*
X144842799Y-68808643D01*
X144937074Y-68469093D01*
X144937080Y-68469067D01*
X144994091Y-68121317D01*
X144994093Y-68121300D01*
X145013173Y-67769402D01*
X145013173Y-67769397D01*
X144994093Y-67417499D01*
X144994091Y-67417482D01*
X144937080Y-67069732D01*
X144937074Y-67069706D01*
X144842799Y-66730156D01*
X144842797Y-66730149D01*
X144712356Y-66402765D01*
X144712347Y-66402747D01*
X144652378Y-66289633D01*
X143172613Y-67769399D01*
X143172613Y-67769400D01*
X142658400Y-67769400D01*
X142658400Y-67674806D01*
X142619065Y-67489753D01*
X142542116Y-67316922D01*
X142430914Y-67163866D01*
X142290320Y-67037274D01*
X142126479Y-66942681D01*
X141946551Y-66884218D01*
X141805564Y-66869400D01*
X141711236Y-66869400D01*
X141570249Y-66884218D01*
X141390321Y-66942681D01*
X141226480Y-67037274D01*
X141085886Y-67163866D01*
X140974684Y-67316921D01*
X140897735Y-67489753D01*
X140858400Y-67674806D01*
X140858400Y-67863994D01*
X140249592Y-67863994D01*
X140344186Y-67769400D01*
X140344186Y-67769399D01*
X138864421Y-66289634D01*
X138864420Y-66289634D01*
X138804448Y-66402754D01*
X138804443Y-66402765D01*
X138674002Y-66730149D01*
X138674000Y-66730156D01*
X138579725Y-67069706D01*
X138579719Y-67069732D01*
X138522708Y-67417482D01*
X138522706Y-67417499D01*
X138503627Y-67769397D01*
X138503627Y-67769402D01*
X126761000Y-67769402D01*
X126761000Y-64873795D01*
X140277008Y-64873795D01*
X141758399Y-66355186D01*
X143239790Y-64873795D01*
X143239790Y-64873794D01*
X142963128Y-64745797D01*
X142963117Y-64745793D01*
X142629143Y-64633263D01*
X142284962Y-64557503D01*
X141934611Y-64519400D01*
X141582188Y-64519400D01*
X141231837Y-64557503D01*
X140887656Y-64633263D01*
X140553682Y-64745793D01*
X140277008Y-64873795D01*
X126761000Y-64873795D01*
X126761000Y-53672800D01*
X126760999Y-53672799D01*
X126191204Y-53100570D01*
X139069840Y-53100570D01*
X139108114Y-53121723D01*
X139434987Y-53257118D01*
X139774949Y-53355059D01*
X139774958Y-53355061D01*
X140123748Y-53414323D01*
X140123760Y-53414325D01*
X140477000Y-53434162D01*
X140830239Y-53414325D01*
X140830251Y-53414323D01*
X141179041Y-53355061D01*
X141179050Y-53355059D01*
X141519012Y-53257118D01*
X141845885Y-53121723D01*
X141884157Y-53100571D01*
X141884157Y-53100570D01*
X140477000Y-51693413D01*
X139069840Y-53100570D01*
X126191204Y-53100570D01*
X125761010Y-52668539D01*
X124145556Y-52661654D01*
X124145552Y-52661655D01*
X124053261Y-52661262D01*
X124009542Y-52639261D01*
X124006551Y-52636368D01*
X122646200Y-51276017D01*
X121291116Y-52631098D01*
X121257689Y-52649350D01*
X121134011Y-52648823D01*
X121134009Y-52648822D01*
X116649398Y-52629714D01*
X116582443Y-52609744D01*
X116562058Y-52593209D01*
X116134832Y-52164158D01*
X116101478Y-52102764D01*
X116098700Y-52076664D01*
X116098700Y-50306150D01*
X119955491Y-50306150D01*
X119975108Y-50630473D01*
X120033680Y-50950087D01*
X120130336Y-51260271D01*
X120130347Y-51260300D01*
X120263686Y-51556566D01*
X120263695Y-51556582D01*
X120324807Y-51657674D01*
X121676332Y-50306150D01*
X121676332Y-50306149D01*
X121643700Y-50273517D01*
X122210744Y-50273517D01*
X122220471Y-50403320D01*
X122268027Y-50524488D01*
X122349184Y-50626257D01*
X122456733Y-50699582D01*
X122581117Y-50737950D01*
X122678557Y-50737950D01*
X122774913Y-50723427D01*
X122892189Y-50666949D01*
X122987608Y-50578414D01*
X123052691Y-50465686D01*
X123081656Y-50338783D01*
X123079211Y-50306150D01*
X123616067Y-50306150D01*
X124967592Y-51657675D01*
X125028707Y-51556578D01*
X125162052Y-51260300D01*
X125162063Y-51260271D01*
X125258719Y-50950087D01*
X125317291Y-50630473D01*
X125336908Y-50306150D01*
X125335278Y-50279200D01*
X137322037Y-50279200D01*
X137341874Y-50632439D01*
X137341876Y-50632451D01*
X137401138Y-50981241D01*
X137401140Y-50981250D01*
X137499081Y-51321212D01*
X137634472Y-51648077D01*
X137634473Y-51648079D01*
X137655628Y-51686357D01*
X139018881Y-50323106D01*
X139723172Y-50323106D01*
X139753616Y-50495767D01*
X139823059Y-50656753D01*
X139927756Y-50797385D01*
X140062062Y-50910082D01*
X140218739Y-50988768D01*
X140389338Y-51029200D01*
X140520684Y-51029200D01*
X140651139Y-51013952D01*
X140815891Y-50953987D01*
X140962373Y-50857645D01*
X141082688Y-50730118D01*
X141170350Y-50578282D01*
X141220634Y-50410323D01*
X141228271Y-50279200D01*
X141891213Y-50279200D01*
X143298370Y-51686357D01*
X143298371Y-51686357D01*
X143319523Y-51648085D01*
X143454918Y-51321212D01*
X143552859Y-50981250D01*
X143552861Y-50981241D01*
X143612123Y-50632451D01*
X143612125Y-50632439D01*
X143631962Y-50279200D01*
X143612125Y-49925960D01*
X143612123Y-49925948D01*
X143552861Y-49577158D01*
X143552859Y-49577149D01*
X143454918Y-49237187D01*
X143319523Y-48910314D01*
X143298370Y-48872040D01*
X141891213Y-50279199D01*
X141891213Y-50279200D01*
X141228271Y-50279200D01*
X141230828Y-50235294D01*
X141200384Y-50062633D01*
X141130941Y-49901647D01*
X141026244Y-49761015D01*
X140891938Y-49648318D01*
X140735261Y-49569632D01*
X140564662Y-49529200D01*
X140433316Y-49529200D01*
X140302861Y-49544448D01*
X140138109Y-49604413D01*
X139991627Y-49700755D01*
X139871312Y-49828282D01*
X139783650Y-49980118D01*
X139733366Y-50148077D01*
X139723172Y-50323106D01*
X139018881Y-50323106D01*
X139062786Y-50279201D01*
X139062786Y-50279199D01*
X137655628Y-48872041D01*
X137634478Y-48910309D01*
X137634477Y-48910312D01*
X137499081Y-49237187D01*
X137401140Y-49577149D01*
X137401138Y-49577158D01*
X137341876Y-49925948D01*
X137341874Y-49925960D01*
X137322037Y-50279200D01*
X125335278Y-50279200D01*
X125317291Y-49981826D01*
X125258719Y-49662212D01*
X125162063Y-49352028D01*
X125162052Y-49351999D01*
X125028707Y-49055721D01*
X124967592Y-48954623D01*
X123616067Y-50306149D01*
X123616067Y-50306150D01*
X123079211Y-50306150D01*
X123071929Y-50208980D01*
X123024373Y-50087812D01*
X122943216Y-49986043D01*
X122835667Y-49912718D01*
X122711283Y-49874350D01*
X122613843Y-49874350D01*
X122517487Y-49888873D01*
X122400211Y-49945351D01*
X122304792Y-50033886D01*
X122239709Y-50146614D01*
X122210744Y-50273517D01*
X121643700Y-50273517D01*
X120324807Y-48954623D01*
X120324806Y-48954624D01*
X120263699Y-49055709D01*
X120263686Y-49055733D01*
X120130347Y-49351999D01*
X120130336Y-49352028D01*
X120033680Y-49662212D01*
X119975108Y-49981826D01*
X119955491Y-50306150D01*
X116098700Y-50306150D01*
X116098700Y-47984757D01*
X121294673Y-47984757D01*
X122646199Y-49336282D01*
X123997724Y-47984757D01*
X123896632Y-47923645D01*
X123896616Y-47923636D01*
X123600350Y-47790297D01*
X123600321Y-47790286D01*
X123290137Y-47693630D01*
X122970523Y-47635058D01*
X122646200Y-47615441D01*
X122321876Y-47635058D01*
X122002262Y-47693630D01*
X121692078Y-47790286D01*
X121692049Y-47790297D01*
X121395783Y-47923636D01*
X121395759Y-47923649D01*
X121294674Y-47984756D01*
X121294673Y-47984757D01*
X116098700Y-47984757D01*
X116098700Y-47457828D01*
X139069841Y-47457828D01*
X140477000Y-48864986D01*
X141884158Y-47457828D01*
X141845879Y-47436673D01*
X141845877Y-47436672D01*
X141519012Y-47301281D01*
X141179050Y-47203340D01*
X141179041Y-47203338D01*
X140830251Y-47144076D01*
X140830239Y-47144074D01*
X140477000Y-47124237D01*
X140123760Y-47144074D01*
X140123748Y-47144076D01*
X139774958Y-47203338D01*
X139774949Y-47203340D01*
X139434987Y-47301281D01*
X139108112Y-47436677D01*
X139108109Y-47436678D01*
X139069841Y-47457828D01*
X116098700Y-47457828D01*
X116098700Y-41234862D01*
X116118385Y-41167823D01*
X116135019Y-41147181D01*
X116561881Y-40720319D01*
X116623204Y-40686834D01*
X116649562Y-40684000D01*
X144759638Y-40684000D01*
X144826677Y-40703685D01*
G37*
%TD.AperFunction*%
%TD*%
%TA.AperFunction,Conductor*%
%TO.N,Net-(L1-2N2)*%
G36*
X175704683Y-40626197D02*
G01*
X175740169Y-40631638D01*
X177537506Y-41182583D01*
X177569943Y-41197962D01*
X178123143Y-41566762D01*
X180538951Y-43177301D01*
X181989538Y-43616502D01*
X182371000Y-43732000D01*
X187304638Y-43732000D01*
X187371677Y-43751685D01*
X187392319Y-43768319D01*
X188319681Y-44695681D01*
X188353166Y-44757004D01*
X188356000Y-44783362D01*
X188356000Y-69731589D01*
X188336315Y-69798628D01*
X188319622Y-69819329D01*
X187392378Y-70745326D01*
X187331033Y-70778770D01*
X187304589Y-70781586D01*
X173396395Y-70762887D01*
X173396391Y-70762887D01*
X173340627Y-70762812D01*
X173330234Y-70759753D01*
X173322309Y-70756464D01*
X173267935Y-70712585D01*
X173258271Y-70683484D01*
X170438780Y-67863994D01*
X170858400Y-67863994D01*
X170897735Y-68049047D01*
X170974684Y-68221878D01*
X171085886Y-68374934D01*
X171226480Y-68501526D01*
X171390321Y-68596119D01*
X171570249Y-68654582D01*
X171711236Y-68669400D01*
X171805564Y-68669400D01*
X171946551Y-68654582D01*
X172126479Y-68596119D01*
X172290320Y-68501526D01*
X172430914Y-68374934D01*
X172542116Y-68221879D01*
X172619065Y-68049047D01*
X172658400Y-67863994D01*
X172658400Y-67769400D01*
X173172613Y-67769400D01*
X174652378Y-69249165D01*
X174712348Y-69136052D01*
X174712356Y-69136034D01*
X174842797Y-68808650D01*
X174842799Y-68808643D01*
X174937074Y-68469093D01*
X174937080Y-68469067D01*
X174994091Y-68121317D01*
X174994093Y-68121300D01*
X175013173Y-67769402D01*
X175013173Y-67769397D01*
X174994093Y-67417499D01*
X174994091Y-67417482D01*
X174937080Y-67069732D01*
X174937074Y-67069706D01*
X174842799Y-66730156D01*
X174842797Y-66730149D01*
X174712356Y-66402765D01*
X174712347Y-66402747D01*
X174652378Y-66289633D01*
X173172613Y-67769399D01*
X173172613Y-67769400D01*
X172658400Y-67769400D01*
X172658400Y-67674806D01*
X172619065Y-67489753D01*
X172542116Y-67316922D01*
X172430914Y-67163866D01*
X172290320Y-67037274D01*
X172126479Y-66942681D01*
X171946551Y-66884218D01*
X171805564Y-66869400D01*
X171711236Y-66869400D01*
X171570249Y-66884218D01*
X171390321Y-66942681D01*
X171226480Y-67037274D01*
X171085886Y-67163866D01*
X170974684Y-67316921D01*
X170897735Y-67489753D01*
X170858400Y-67674806D01*
X170858400Y-67863994D01*
X170438780Y-67863994D01*
X170361627Y-67786841D01*
X170361625Y-67786838D01*
X169306000Y-66731213D01*
X169306000Y-64873795D01*
X170277008Y-64873795D01*
X171758399Y-66355186D01*
X173239790Y-64873795D01*
X173239790Y-64873794D01*
X172963128Y-64745797D01*
X172963117Y-64745793D01*
X172629143Y-64633263D01*
X172284962Y-64557503D01*
X171934611Y-64519400D01*
X171582188Y-64519400D01*
X171231837Y-64557503D01*
X170887656Y-64633263D01*
X170553682Y-64745793D01*
X170277008Y-64873795D01*
X169306000Y-64873795D01*
X169306000Y-58133805D01*
X182795449Y-58133805D01*
X182814819Y-58367573D01*
X182814821Y-58367585D01*
X182872407Y-58594987D01*
X182966638Y-58809811D01*
X183094940Y-59006195D01*
X183094943Y-59006198D01*
X183253822Y-59178786D01*
X183438942Y-59322870D01*
X183645252Y-59434520D01*
X183760462Y-59474072D01*
X183867120Y-59510688D01*
X183867122Y-59510688D01*
X183867124Y-59510689D01*
X184098508Y-59549300D01*
X184098509Y-59549300D01*
X184333091Y-59549300D01*
X184333092Y-59549300D01*
X184564476Y-59510689D01*
X184786348Y-59434520D01*
X184992658Y-59322870D01*
X185177778Y-59178786D01*
X185336657Y-59006198D01*
X185464961Y-58809812D01*
X185559192Y-58594987D01*
X185616779Y-58367582D01*
X185636151Y-58133800D01*
X185616779Y-57900018D01*
X185559192Y-57672613D01*
X185464961Y-57457788D01*
X185336659Y-57261404D01*
X185309241Y-57231620D01*
X185177778Y-57088814D01*
X185047134Y-56987130D01*
X184992660Y-56944731D01*
X184786348Y-56833080D01*
X184786340Y-56833077D01*
X184564479Y-56756911D01*
X184390938Y-56727952D01*
X184333092Y-56718300D01*
X184098508Y-56718300D01*
X184052231Y-56726022D01*
X183867120Y-56756911D01*
X183645259Y-56833077D01*
X183645251Y-56833080D01*
X183438939Y-56944731D01*
X183308298Y-57046413D01*
X183253822Y-57088814D01*
X183253819Y-57088816D01*
X183253819Y-57088817D01*
X183094940Y-57261404D01*
X182966638Y-57457788D01*
X182872407Y-57672612D01*
X182814821Y-57900014D01*
X182814819Y-57900026D01*
X182795449Y-58133794D01*
X182795449Y-58133805D01*
X169306000Y-58133805D01*
X169306000Y-51141642D01*
X182422170Y-51141642D01*
X182720006Y-51293398D01*
X183079370Y-51431345D01*
X183451200Y-51530977D01*
X183831390Y-51591193D01*
X184215799Y-51611340D01*
X184215801Y-51611340D01*
X184600209Y-51591193D01*
X184980398Y-51530977D01*
X184980400Y-51530977D01*
X185352229Y-51431345D01*
X185711593Y-51293398D01*
X186009428Y-51141642D01*
X184215800Y-49348014D01*
X182422170Y-51141642D01*
X169306000Y-51141642D01*
X169306000Y-48644192D01*
X170371923Y-48644192D01*
X170473021Y-48705307D01*
X170769299Y-48838652D01*
X170769328Y-48838663D01*
X171079512Y-48935319D01*
X171399126Y-48993891D01*
X171723450Y-49013508D01*
X172047773Y-48993891D01*
X172367387Y-48935319D01*
X172677571Y-48838663D01*
X172677600Y-48838652D01*
X172973878Y-48705307D01*
X173074975Y-48644192D01*
X172364583Y-47933800D01*
X180538260Y-47933800D01*
X180558406Y-48318209D01*
X180618622Y-48698398D01*
X180618622Y-48698400D01*
X180718254Y-49070229D01*
X180856201Y-49429593D01*
X181007956Y-49727428D01*
X182801586Y-47933800D01*
X182748291Y-47880505D01*
X183096997Y-47880505D01*
X183107129Y-48093203D01*
X183157331Y-48300140D01*
X183245789Y-48493836D01*
X183369306Y-48667291D01*
X183523417Y-48814236D01*
X183702553Y-48929360D01*
X183900239Y-49008501D01*
X184109330Y-49048800D01*
X184268917Y-49048800D01*
X184427775Y-49033631D01*
X184632089Y-48973639D01*
X184821357Y-48876065D01*
X184988738Y-48744434D01*
X185128184Y-48583506D01*
X185234653Y-48399095D01*
X185304299Y-48197867D01*
X185334603Y-47987095D01*
X185332064Y-47933800D01*
X185630014Y-47933800D01*
X187423642Y-49727428D01*
X187575398Y-49429593D01*
X187713345Y-49070229D01*
X187812977Y-48698400D01*
X187812977Y-48698398D01*
X187873193Y-48318209D01*
X187893340Y-47933800D01*
X187893340Y-47933799D01*
X187873193Y-47549390D01*
X187812977Y-47169201D01*
X187812977Y-47169199D01*
X187713345Y-46797370D01*
X187575398Y-46438006D01*
X187423642Y-46140170D01*
X185630014Y-47933799D01*
X185630014Y-47933800D01*
X185332064Y-47933800D01*
X185324471Y-47774397D01*
X185274269Y-47567460D01*
X185185811Y-47373764D01*
X185062294Y-47200309D01*
X184908183Y-47053364D01*
X184729047Y-46938240D01*
X184531361Y-46859099D01*
X184322270Y-46818800D01*
X184162683Y-46818800D01*
X184003825Y-46833969D01*
X183799511Y-46893961D01*
X183610243Y-46991535D01*
X183442862Y-47123166D01*
X183303416Y-47284094D01*
X183196947Y-47468505D01*
X183127301Y-47669733D01*
X183096997Y-47880505D01*
X182748291Y-47880505D01*
X181007955Y-46140169D01*
X180856201Y-46438006D01*
X180718254Y-46797370D01*
X180618622Y-47169199D01*
X180618622Y-47169201D01*
X180558406Y-47549390D01*
X180538260Y-47933799D01*
X180538260Y-47933800D01*
X172364583Y-47933800D01*
X171723450Y-47292667D01*
X170371923Y-48644192D01*
X169306000Y-48644192D01*
X169306000Y-47802628D01*
X169325685Y-47735589D01*
X169378489Y-47689834D01*
X169388026Y-47688355D01*
X170753582Y-46322800D01*
X170753582Y-46322799D01*
X170720950Y-46290167D01*
X171287994Y-46290167D01*
X171297721Y-46419970D01*
X171345277Y-46541138D01*
X171426434Y-46642907D01*
X171533983Y-46716232D01*
X171658367Y-46754600D01*
X171755807Y-46754600D01*
X171852163Y-46740077D01*
X171969439Y-46683599D01*
X172064858Y-46595064D01*
X172129941Y-46482336D01*
X172158906Y-46355433D01*
X172156461Y-46322800D01*
X172693317Y-46322800D01*
X174044842Y-47674325D01*
X174105957Y-47573228D01*
X174239302Y-47276950D01*
X174239313Y-47276921D01*
X174335969Y-46966737D01*
X174394541Y-46647123D01*
X174414158Y-46322800D01*
X174394541Y-45998476D01*
X174335969Y-45678862D01*
X174239313Y-45368678D01*
X174239302Y-45368649D01*
X174105957Y-45072371D01*
X174044842Y-44971273D01*
X172693317Y-46322799D01*
X172693317Y-46322800D01*
X172156461Y-46322800D01*
X172149179Y-46225630D01*
X172101623Y-46104462D01*
X172020466Y-46002693D01*
X171912917Y-45929368D01*
X171788533Y-45891000D01*
X171691093Y-45891000D01*
X171594737Y-45905523D01*
X171477461Y-45962001D01*
X171382042Y-46050536D01*
X171316959Y-46163264D01*
X171287994Y-46290167D01*
X170720950Y-46290167D01*
X169387255Y-44956471D01*
X169376018Y-44954602D01*
X169324234Y-44907696D01*
X169306000Y-44842969D01*
X169306000Y-44001407D01*
X170371923Y-44001407D01*
X171723449Y-45352932D01*
X172350426Y-44725955D01*
X182422169Y-44725955D01*
X184215800Y-46519586D01*
X184215801Y-46519586D01*
X186009428Y-44725956D01*
X185711593Y-44574201D01*
X185352229Y-44436254D01*
X184980399Y-44336622D01*
X184600209Y-44276406D01*
X184215801Y-44256260D01*
X184215799Y-44256260D01*
X183831390Y-44276406D01*
X183451201Y-44336622D01*
X183451199Y-44336622D01*
X183079370Y-44436254D01*
X182720006Y-44574201D01*
X182422169Y-44725955D01*
X172350426Y-44725955D01*
X173074974Y-44001407D01*
X172973882Y-43940295D01*
X172973866Y-43940286D01*
X172677600Y-43806947D01*
X172677571Y-43806936D01*
X172367387Y-43710280D01*
X172047773Y-43651708D01*
X171723450Y-43632091D01*
X171399126Y-43651708D01*
X171079512Y-43710280D01*
X170769328Y-43806936D01*
X170769299Y-43806947D01*
X170473033Y-43940286D01*
X170473009Y-43940299D01*
X170371924Y-44001406D01*
X170371923Y-44001407D01*
X169306000Y-44001407D01*
X169306000Y-41633801D01*
X169325685Y-41566762D01*
X169342621Y-41545819D01*
X170269357Y-40625434D01*
X170330793Y-40592162D01*
X170357578Y-40589421D01*
X175704683Y-40626197D01*
G37*
%TD.AperFunction*%
%TD*%
%TA.AperFunction,Conductor*%
%TO.N,+24V*%
G36*
X254261862Y-23397691D02*
G01*
X254338335Y-23403711D01*
X254459128Y-23413220D01*
X254478338Y-23416264D01*
X254663617Y-23460750D01*
X254682118Y-23466762D01*
X254858157Y-23539683D01*
X254875485Y-23548512D01*
X255037956Y-23648075D01*
X255053689Y-23659506D01*
X255160145Y-23750428D01*
X255198583Y-23783258D01*
X255212341Y-23797016D01*
X255336090Y-23941906D01*
X255347527Y-23957648D01*
X255447085Y-24120110D01*
X255455918Y-24137446D01*
X255528836Y-24313479D01*
X255534849Y-24331983D01*
X255579334Y-24517257D01*
X255582378Y-24536475D01*
X255597909Y-24733736D01*
X255598100Y-24738604D01*
X255598100Y-33560251D01*
X255598100Y-33626144D01*
X255598099Y-33904931D01*
X255636144Y-34461191D01*
X255636143Y-34461190D01*
X255636144Y-34461204D01*
X255636145Y-34461205D01*
X255672263Y-34723991D01*
X255712064Y-35013580D01*
X255825503Y-35559497D01*
X255866185Y-35704693D01*
X255975934Y-36096398D01*
X256162652Y-36621779D01*
X256162654Y-36621783D01*
X256384788Y-37133195D01*
X256384789Y-37133195D01*
X256540289Y-37433300D01*
X256641307Y-37628256D01*
X256931013Y-38104659D01*
X257079441Y-38314934D01*
X257252558Y-38560187D01*
X257252558Y-38560186D01*
X257604432Y-38992698D01*
X257985006Y-39400194D01*
X258392502Y-39780768D01*
X258657674Y-39996501D01*
X258825014Y-40132642D01*
X258825013Y-40132642D01*
X258825019Y-40132646D01*
X259280541Y-40454187D01*
X259706517Y-40713228D01*
X259756951Y-40743897D01*
X259972932Y-40855808D01*
X260252005Y-41000411D01*
X260252005Y-41000412D01*
X260527052Y-41119880D01*
X260763421Y-41222548D01*
X261067307Y-41330547D01*
X261288798Y-41409265D01*
X261288799Y-41409265D01*
X261288802Y-41409266D01*
X261499710Y-41468359D01*
X261825703Y-41559697D01*
X262073056Y-41611096D01*
X262371613Y-41673135D01*
X262371619Y-41673135D01*
X262371620Y-41673136D01*
X262924010Y-41749057D01*
X262924009Y-41749056D01*
X262924024Y-41749057D01*
X263480269Y-41787101D01*
X263480274Y-41787100D01*
X263480275Y-41787101D01*
X263480951Y-41787100D01*
X263756594Y-41787100D01*
X263761462Y-41787291D01*
X263837935Y-41793311D01*
X263958728Y-41802820D01*
X263977938Y-41805864D01*
X264163217Y-41850350D01*
X264181718Y-41856362D01*
X264357757Y-41929283D01*
X264375085Y-41938112D01*
X264537556Y-42037675D01*
X264553289Y-42049106D01*
X264659745Y-42140028D01*
X264698183Y-42172858D01*
X264711941Y-42186616D01*
X264835690Y-42331506D01*
X264847127Y-42347248D01*
X264946685Y-42509710D01*
X264955518Y-42527046D01*
X265028436Y-42703079D01*
X265034449Y-42721583D01*
X265078934Y-42906857D01*
X265081978Y-42926075D01*
X265097509Y-43123336D01*
X265097700Y-43128204D01*
X265097700Y-51376879D01*
X265078015Y-51443918D01*
X265025211Y-51489673D01*
X264973700Y-51500879D01*
X263875384Y-51500879D01*
X263731462Y-51500879D01*
X263731459Y-51500879D01*
X263731457Y-51500880D01*
X263705265Y-51508569D01*
X263687991Y-51512327D01*
X263660967Y-51516213D01*
X263660964Y-51516214D01*
X263636133Y-51527554D01*
X263619564Y-51533734D01*
X263606594Y-51537542D01*
X263593370Y-51541426D01*
X263593368Y-51541426D01*
X263593368Y-51541427D01*
X263570405Y-51556184D01*
X263554884Y-51564659D01*
X263530051Y-51576000D01*
X263530048Y-51576002D01*
X263509423Y-51593874D01*
X263495263Y-51604474D01*
X263472299Y-51619232D01*
X263472294Y-51619236D01*
X263454416Y-51639868D01*
X263441912Y-51652372D01*
X263421280Y-51670250D01*
X263421276Y-51670255D01*
X263406518Y-51693219D01*
X263395918Y-51707379D01*
X263378046Y-51728004D01*
X263378044Y-51728007D01*
X263366703Y-51752840D01*
X263358228Y-51768361D01*
X263343471Y-51791324D01*
X263335778Y-51817520D01*
X263329598Y-51834089D01*
X263318258Y-51858920D01*
X263318257Y-51858923D01*
X263314371Y-51885947D01*
X263310613Y-51903221D01*
X263302924Y-51929413D01*
X263302923Y-51929421D01*
X263302923Y-58731478D01*
X263310613Y-58757669D01*
X263314370Y-58774938D01*
X263318258Y-58801972D01*
X263321838Y-58809812D01*
X263329596Y-58826798D01*
X263335778Y-58843373D01*
X263343469Y-58869566D01*
X263343470Y-58869568D01*
X263358229Y-58892534D01*
X263366705Y-58908056D01*
X263378046Y-58932888D01*
X263389860Y-58946522D01*
X263395919Y-58953515D01*
X263406518Y-58967675D01*
X263421276Y-58990638D01*
X263421280Y-58990643D01*
X263441911Y-59008521D01*
X263454415Y-59021025D01*
X263472294Y-59041657D01*
X263472295Y-59041658D01*
X263495267Y-59056420D01*
X263509419Y-59067015D01*
X263530050Y-59084892D01*
X263553322Y-59095520D01*
X263554874Y-59096229D01*
X263570401Y-59104707D01*
X263593370Y-59119468D01*
X263619559Y-59127158D01*
X263636136Y-59133341D01*
X263660961Y-59144678D01*
X263660962Y-59144678D01*
X263660966Y-59144680D01*
X263687987Y-59148565D01*
X263705269Y-59152324D01*
X263731462Y-59160015D01*
X263767624Y-59160015D01*
X264973700Y-59160015D01*
X265040739Y-59179700D01*
X265086494Y-59232504D01*
X265097700Y-59284015D01*
X265097700Y-69367580D01*
X265078015Y-69434619D01*
X265061326Y-69455316D01*
X264634573Y-69881536D01*
X264573229Y-69914983D01*
X264546792Y-69917800D01*
X254230558Y-69904903D01*
X254230555Y-69904905D01*
X253635694Y-69904161D01*
X252491000Y-68759467D01*
X251349162Y-69901303D01*
X250747089Y-69900551D01*
X250747088Y-69900550D01*
X226237315Y-69869914D01*
X226170300Y-69850146D01*
X226149734Y-69833540D01*
X225222264Y-68904909D01*
X225188817Y-68843565D01*
X225186000Y-68817283D01*
X225186000Y-67789600D01*
X249800291Y-67789600D01*
X249819908Y-68113923D01*
X249878480Y-68433537D01*
X249975136Y-68743721D01*
X249975147Y-68743750D01*
X250108486Y-69040016D01*
X250108495Y-69040032D01*
X250169607Y-69141124D01*
X251521132Y-67789600D01*
X251521132Y-67789599D01*
X251488500Y-67756967D01*
X252055544Y-67756967D01*
X252065271Y-67886770D01*
X252112827Y-68007938D01*
X252193984Y-68109707D01*
X252301533Y-68183032D01*
X252425917Y-68221400D01*
X252523357Y-68221400D01*
X252619713Y-68206877D01*
X252736989Y-68150399D01*
X252832408Y-68061864D01*
X252897491Y-67949136D01*
X252926456Y-67822233D01*
X252924011Y-67789600D01*
X253460867Y-67789600D01*
X254812392Y-69141125D01*
X254873507Y-69040028D01*
X255006852Y-68743750D01*
X255006863Y-68743721D01*
X255103519Y-68433537D01*
X255162091Y-68113923D01*
X255181708Y-67789600D01*
X255162091Y-67465276D01*
X255103519Y-67145662D01*
X255006863Y-66835478D01*
X255006852Y-66835449D01*
X254873507Y-66539171D01*
X254812392Y-66438073D01*
X253460867Y-67789599D01*
X253460867Y-67789600D01*
X252924011Y-67789600D01*
X252916729Y-67692430D01*
X252869173Y-67571262D01*
X252788016Y-67469493D01*
X252680467Y-67396168D01*
X252556083Y-67357800D01*
X252458643Y-67357800D01*
X252362287Y-67372323D01*
X252245011Y-67428801D01*
X252149592Y-67517336D01*
X252084509Y-67630064D01*
X252055544Y-67756967D01*
X251488500Y-67756967D01*
X250169607Y-66438073D01*
X250169606Y-66438074D01*
X250108499Y-66539159D01*
X250108486Y-66539183D01*
X249975147Y-66835449D01*
X249975136Y-66835478D01*
X249878480Y-67145662D01*
X249819908Y-67465276D01*
X249800291Y-67789600D01*
X225186000Y-67789600D01*
X225186000Y-65733805D01*
X231095449Y-65733805D01*
X231114819Y-65967573D01*
X231114821Y-65967585D01*
X231172407Y-66194987D01*
X231266638Y-66409811D01*
X231394940Y-66606195D01*
X231394943Y-66606198D01*
X231553822Y-66778786D01*
X231738942Y-66922870D01*
X231945252Y-67034520D01*
X232060462Y-67074072D01*
X232167120Y-67110688D01*
X232167122Y-67110688D01*
X232167124Y-67110689D01*
X232398508Y-67149300D01*
X232398509Y-67149300D01*
X232633091Y-67149300D01*
X232633092Y-67149300D01*
X232864476Y-67110689D01*
X233086348Y-67034520D01*
X233292658Y-66922870D01*
X233477778Y-66778786D01*
X233636657Y-66606198D01*
X233764961Y-66409812D01*
X233859192Y-66194987D01*
X233916779Y-65967582D01*
X233936151Y-65733800D01*
X233916779Y-65500018D01*
X233908723Y-65468207D01*
X251139473Y-65468207D01*
X252490999Y-66819732D01*
X253842524Y-65468207D01*
X253741432Y-65407095D01*
X253741416Y-65407086D01*
X253445150Y-65273747D01*
X253445121Y-65273736D01*
X253134937Y-65177080D01*
X252815323Y-65118508D01*
X252491000Y-65098891D01*
X252166676Y-65118508D01*
X251847062Y-65177080D01*
X251536878Y-65273736D01*
X251536849Y-65273747D01*
X251240583Y-65407086D01*
X251240559Y-65407099D01*
X251139474Y-65468206D01*
X251139473Y-65468207D01*
X233908723Y-65468207D01*
X233859479Y-65273747D01*
X233859192Y-65272612D01*
X233764961Y-65057788D01*
X233636659Y-64861404D01*
X233609241Y-64831620D01*
X233477778Y-64688814D01*
X233347134Y-64587130D01*
X233292660Y-64544731D01*
X233086348Y-64433080D01*
X233086340Y-64433077D01*
X232864479Y-64356911D01*
X232690938Y-64327952D01*
X232633092Y-64318300D01*
X232398508Y-64318300D01*
X232352231Y-64326022D01*
X232167120Y-64356911D01*
X231945259Y-64433077D01*
X231945251Y-64433080D01*
X231738939Y-64544731D01*
X231608298Y-64646413D01*
X231553822Y-64688814D01*
X231553819Y-64688816D01*
X231553819Y-64688817D01*
X231394940Y-64861404D01*
X231266638Y-65057788D01*
X231172407Y-65272612D01*
X231114821Y-65500014D01*
X231114819Y-65500026D01*
X231095449Y-65733794D01*
X231095449Y-65733805D01*
X225186000Y-65733805D01*
X225186000Y-61541706D01*
X240393330Y-61541706D01*
X240524585Y-61607624D01*
X240524586Y-61607625D01*
X240847780Y-61725258D01*
X241182433Y-61804572D01*
X241524042Y-61844499D01*
X241524043Y-61844500D01*
X241867957Y-61844500D01*
X241867957Y-61844499D01*
X242209565Y-61804572D01*
X242209567Y-61804572D01*
X242544219Y-61725258D01*
X242867413Y-61607625D01*
X242867414Y-61607624D01*
X242998668Y-61541706D01*
X248593329Y-61541706D01*
X248724584Y-61607624D01*
X248724585Y-61607625D01*
X249047779Y-61725258D01*
X249382432Y-61804572D01*
X249724041Y-61844499D01*
X249724042Y-61844500D01*
X250067956Y-61844500D01*
X250067956Y-61844499D01*
X250409564Y-61804572D01*
X250409566Y-61804572D01*
X250744218Y-61725258D01*
X251067412Y-61607625D01*
X251067413Y-61607624D01*
X251198667Y-61541706D01*
X251198667Y-61541705D01*
X249895999Y-60239038D01*
X248593329Y-61541705D01*
X248593329Y-61541706D01*
X242998668Y-61541706D01*
X242998668Y-61541705D01*
X241696000Y-60239038D01*
X240393330Y-61541705D01*
X240393330Y-61541706D01*
X225186000Y-61541706D01*
X225186000Y-58133805D01*
X231095449Y-58133805D01*
X231114819Y-58367573D01*
X231114821Y-58367585D01*
X231172407Y-58594987D01*
X231266638Y-58809811D01*
X231394940Y-59006195D01*
X231394943Y-59006198D01*
X231553822Y-59178786D01*
X231738942Y-59322870D01*
X231945252Y-59434520D01*
X232060462Y-59474072D01*
X232167120Y-59510688D01*
X232167122Y-59510688D01*
X232167124Y-59510689D01*
X232398508Y-59549300D01*
X232398509Y-59549300D01*
X232633091Y-59549300D01*
X232633092Y-59549300D01*
X232864476Y-59510689D01*
X233086348Y-59434520D01*
X233292658Y-59322870D01*
X233477778Y-59178786D01*
X233636657Y-59006198D01*
X233711264Y-58892003D01*
X238738496Y-58892003D01*
X238758494Y-59235345D01*
X238758495Y-59235356D01*
X238818213Y-59574038D01*
X238818216Y-59574048D01*
X238916855Y-59903527D01*
X239043602Y-60197358D01*
X239043603Y-60197359D01*
X240264149Y-58976813D01*
X240997500Y-58976813D01*
X241038095Y-59141511D01*
X241116924Y-59291707D01*
X241229407Y-59418675D01*
X241369007Y-59515033D01*
X241527610Y-59575184D01*
X241653750Y-59590500D01*
X241738250Y-59590500D01*
X241864390Y-59575184D01*
X242022993Y-59515033D01*
X242162593Y-59418675D01*
X242275076Y-59291707D01*
X242353905Y-59141511D01*
X242394500Y-58976813D01*
X242394500Y-58892001D01*
X243043038Y-58892001D01*
X244348396Y-60197359D01*
X244475144Y-59903527D01*
X244573783Y-59574048D01*
X244573786Y-59574038D01*
X244633504Y-59235356D01*
X244633505Y-59235345D01*
X244653504Y-58892003D01*
X246938495Y-58892003D01*
X246958493Y-59235345D01*
X246958494Y-59235356D01*
X247018212Y-59574038D01*
X247018215Y-59574048D01*
X247116854Y-59903527D01*
X247243601Y-60197358D01*
X247243602Y-60197359D01*
X248464148Y-58976813D01*
X249197499Y-58976813D01*
X249238094Y-59141511D01*
X249316923Y-59291707D01*
X249429406Y-59418675D01*
X249569006Y-59515033D01*
X249727609Y-59575184D01*
X249853749Y-59590500D01*
X249938249Y-59590500D01*
X250064389Y-59575184D01*
X250222992Y-59515033D01*
X250362592Y-59418675D01*
X250475075Y-59291707D01*
X250553904Y-59141511D01*
X250594499Y-58976813D01*
X250594499Y-58892001D01*
X251243037Y-58892001D01*
X252548395Y-60197359D01*
X252675143Y-59903527D01*
X252773782Y-59574048D01*
X252773785Y-59574038D01*
X252833503Y-59235356D01*
X252833504Y-59235345D01*
X252853503Y-58892003D01*
X252853503Y-58891996D01*
X252833504Y-58548654D01*
X252833503Y-58548643D01*
X252773785Y-58209961D01*
X252773782Y-58209951D01*
X252675143Y-57880472D01*
X252548395Y-57586639D01*
X251243037Y-58891999D01*
X251243037Y-58892001D01*
X250594499Y-58892001D01*
X250594499Y-58807187D01*
X250553904Y-58642489D01*
X250475075Y-58492293D01*
X250362592Y-58365325D01*
X250222992Y-58268967D01*
X250064389Y-58208816D01*
X249938249Y-58193500D01*
X249853749Y-58193500D01*
X249727609Y-58208816D01*
X249569006Y-58268967D01*
X249429406Y-58365325D01*
X249316923Y-58492293D01*
X249238094Y-58642489D01*
X249197499Y-58807187D01*
X249197499Y-58976813D01*
X248464148Y-58976813D01*
X248548961Y-58892000D01*
X248548961Y-58891999D01*
X247243602Y-57586640D01*
X247243601Y-57586640D01*
X247116854Y-57880472D01*
X247018215Y-58209951D01*
X247018212Y-58209961D01*
X246958494Y-58548643D01*
X246958493Y-58548654D01*
X246938495Y-58891996D01*
X246938495Y-58892003D01*
X244653504Y-58892003D01*
X244653504Y-58891996D01*
X244633505Y-58548654D01*
X244633504Y-58548643D01*
X244573786Y-58209961D01*
X244573783Y-58209951D01*
X244475144Y-57880472D01*
X244348396Y-57586639D01*
X243043038Y-58891999D01*
X243043038Y-58892001D01*
X242394500Y-58892001D01*
X242394500Y-58807187D01*
X242353905Y-58642489D01*
X242275076Y-58492293D01*
X242162593Y-58365325D01*
X242022993Y-58268967D01*
X241864390Y-58208816D01*
X241738250Y-58193500D01*
X241653750Y-58193500D01*
X241527610Y-58208816D01*
X241369007Y-58268967D01*
X241229407Y-58365325D01*
X241116924Y-58492293D01*
X241038095Y-58642489D01*
X240997500Y-58807187D01*
X240997500Y-58976813D01*
X240264149Y-58976813D01*
X240348962Y-58892000D01*
X240348962Y-58891999D01*
X239043602Y-57586640D01*
X238916855Y-57880472D01*
X238818216Y-58209951D01*
X238818213Y-58209961D01*
X238758495Y-58548643D01*
X238758494Y-58548654D01*
X238738496Y-58891996D01*
X238738496Y-58892003D01*
X233711264Y-58892003D01*
X233764961Y-58809812D01*
X233859192Y-58594987D01*
X233916779Y-58367582D01*
X233920027Y-58328387D01*
X233936151Y-58133805D01*
X233936151Y-58133794D01*
X233916780Y-57900026D01*
X233916778Y-57900014D01*
X233859192Y-57672612D01*
X233764961Y-57457788D01*
X233636659Y-57261404D01*
X233609241Y-57231620D01*
X233477778Y-57088814D01*
X233347134Y-56987130D01*
X233292660Y-56944731D01*
X233086348Y-56833080D01*
X233086340Y-56833077D01*
X232864479Y-56756911D01*
X232690938Y-56727952D01*
X232633092Y-56718300D01*
X232398508Y-56718300D01*
X232352231Y-56726022D01*
X232167120Y-56756911D01*
X231945259Y-56833077D01*
X231945251Y-56833080D01*
X231738939Y-56944731D01*
X231608298Y-57046413D01*
X231553822Y-57088814D01*
X231553819Y-57088816D01*
X231553819Y-57088817D01*
X231394940Y-57261404D01*
X231266638Y-57457788D01*
X231172407Y-57672612D01*
X231114821Y-57900014D01*
X231114819Y-57900026D01*
X231095449Y-58133794D01*
X231095449Y-58133805D01*
X225186000Y-58133805D01*
X225186000Y-56392000D01*
X240543038Y-56392000D01*
X241696000Y-57544962D01*
X242848962Y-56392000D01*
X248743037Y-56392000D01*
X249895999Y-57544962D01*
X251048961Y-56392000D01*
X249895999Y-55239038D01*
X248743037Y-56392000D01*
X242848962Y-56392000D01*
X241696000Y-55239038D01*
X240543038Y-56392000D01*
X225186000Y-56392000D01*
X225186000Y-53892003D01*
X238738496Y-53892003D01*
X238758494Y-54235345D01*
X238758495Y-54235356D01*
X238818213Y-54574038D01*
X238818216Y-54574048D01*
X238916855Y-54903527D01*
X239043602Y-55197358D01*
X239043603Y-55197359D01*
X240264149Y-53976813D01*
X240997500Y-53976813D01*
X241038095Y-54141511D01*
X241116924Y-54291707D01*
X241229407Y-54418675D01*
X241369007Y-54515033D01*
X241527610Y-54575184D01*
X241653750Y-54590500D01*
X241738250Y-54590500D01*
X241864390Y-54575184D01*
X242022993Y-54515033D01*
X242162593Y-54418675D01*
X242275076Y-54291707D01*
X242353905Y-54141511D01*
X242394500Y-53976813D01*
X242394500Y-53892001D01*
X243043038Y-53892001D01*
X244348396Y-55197359D01*
X244475144Y-54903527D01*
X244573783Y-54574048D01*
X244573786Y-54574038D01*
X244633504Y-54235356D01*
X244633505Y-54235345D01*
X244653504Y-53892003D01*
X246938495Y-53892003D01*
X246958493Y-54235345D01*
X246958494Y-54235356D01*
X247018212Y-54574038D01*
X247018215Y-54574048D01*
X247116854Y-54903527D01*
X247243601Y-55197358D01*
X247243602Y-55197359D01*
X248464148Y-53976813D01*
X249197499Y-53976813D01*
X249238094Y-54141511D01*
X249316923Y-54291707D01*
X249429406Y-54418675D01*
X249569006Y-54515033D01*
X249727609Y-54575184D01*
X249853749Y-54590500D01*
X249938249Y-54590500D01*
X250064389Y-54575184D01*
X250222992Y-54515033D01*
X250362592Y-54418675D01*
X250475075Y-54291707D01*
X250553904Y-54141511D01*
X250594499Y-53976813D01*
X250594499Y-53892001D01*
X251243037Y-53892001D01*
X252548395Y-55197359D01*
X252675143Y-54903527D01*
X252773782Y-54574048D01*
X252773785Y-54574038D01*
X252833503Y-54235356D01*
X252833504Y-54235345D01*
X252853503Y-53892003D01*
X252853503Y-53891996D01*
X252833504Y-53548654D01*
X252833503Y-53548643D01*
X252773785Y-53209961D01*
X252773782Y-53209951D01*
X252675143Y-52880472D01*
X252548395Y-52586639D01*
X251243037Y-53891999D01*
X251243037Y-53892001D01*
X250594499Y-53892001D01*
X250594499Y-53807187D01*
X250553904Y-53642489D01*
X250475075Y-53492293D01*
X250362592Y-53365325D01*
X250222992Y-53268967D01*
X250064389Y-53208816D01*
X249938249Y-53193500D01*
X249853749Y-53193500D01*
X249727609Y-53208816D01*
X249569006Y-53268967D01*
X249429406Y-53365325D01*
X249316923Y-53492293D01*
X249238094Y-53642489D01*
X249197499Y-53807187D01*
X249197499Y-53976813D01*
X248464148Y-53976813D01*
X248548961Y-53892000D01*
X248548961Y-53891999D01*
X247243602Y-52586640D01*
X247243601Y-52586640D01*
X247116854Y-52880472D01*
X247018215Y-53209951D01*
X247018212Y-53209961D01*
X246958494Y-53548643D01*
X246958493Y-53548654D01*
X246938495Y-53891996D01*
X246938495Y-53892003D01*
X244653504Y-53892003D01*
X244653504Y-53891996D01*
X244633505Y-53548654D01*
X244633504Y-53548643D01*
X244573786Y-53209961D01*
X244573783Y-53209951D01*
X244475144Y-52880472D01*
X244348396Y-52586639D01*
X243043038Y-53891999D01*
X243043038Y-53892001D01*
X242394500Y-53892001D01*
X242394500Y-53807187D01*
X242353905Y-53642489D01*
X242275076Y-53492293D01*
X242162593Y-53365325D01*
X242022993Y-53268967D01*
X241864390Y-53208816D01*
X241738250Y-53193500D01*
X241653750Y-53193500D01*
X241527610Y-53208816D01*
X241369007Y-53268967D01*
X241229407Y-53365325D01*
X241116924Y-53492293D01*
X241038095Y-53642489D01*
X240997500Y-53807187D01*
X240997500Y-53976813D01*
X240264149Y-53976813D01*
X240348962Y-53892000D01*
X240348962Y-53891999D01*
X239043602Y-52586640D01*
X238916855Y-52880472D01*
X238818216Y-53209951D01*
X238818213Y-53209961D01*
X238758495Y-53548643D01*
X238758494Y-53548654D01*
X238738496Y-53891996D01*
X238738496Y-53892003D01*
X225186000Y-53892003D01*
X225186000Y-51141642D01*
X230722170Y-51141642D01*
X231020006Y-51293398D01*
X231379370Y-51431345D01*
X231751200Y-51530977D01*
X232131390Y-51591193D01*
X232515799Y-51611340D01*
X232515801Y-51611340D01*
X232900209Y-51591193D01*
X233280398Y-51530977D01*
X233280400Y-51530977D01*
X233652229Y-51431345D01*
X234011593Y-51293398D01*
X234111891Y-51242293D01*
X240393331Y-51242293D01*
X241696000Y-52544962D01*
X241696001Y-52544962D01*
X242998667Y-51242293D01*
X248593330Y-51242293D01*
X249895999Y-52544962D01*
X249896000Y-52544962D01*
X251198666Y-51242293D01*
X251067402Y-51176370D01*
X250744218Y-51058741D01*
X250409565Y-50979427D01*
X250067956Y-50939500D01*
X249724042Y-50939500D01*
X249382433Y-50979427D01*
X249382431Y-50979427D01*
X249047779Y-51058741D01*
X248724591Y-51176372D01*
X248593330Y-51242293D01*
X242998667Y-51242293D01*
X242867403Y-51176370D01*
X242544219Y-51058741D01*
X242209566Y-50979427D01*
X241867957Y-50939500D01*
X241524043Y-50939500D01*
X241182434Y-50979427D01*
X241182432Y-50979427D01*
X240847780Y-51058741D01*
X240524592Y-51176372D01*
X240393331Y-51242293D01*
X234111891Y-51242293D01*
X234309428Y-51141642D01*
X232515800Y-49348014D01*
X230722170Y-51141642D01*
X225186000Y-51141642D01*
X225186000Y-47933800D01*
X228838260Y-47933800D01*
X228858406Y-48318209D01*
X228918622Y-48698398D01*
X228918622Y-48698400D01*
X229018254Y-49070229D01*
X229156201Y-49429593D01*
X229307956Y-49727428D01*
X231101586Y-47933800D01*
X231048291Y-47880505D01*
X231396997Y-47880505D01*
X231407129Y-48093203D01*
X231457331Y-48300140D01*
X231545789Y-48493836D01*
X231669306Y-48667291D01*
X231823417Y-48814236D01*
X232002553Y-48929360D01*
X232200239Y-49008501D01*
X232409330Y-49048800D01*
X232568917Y-49048800D01*
X232727775Y-49033631D01*
X232932089Y-48973639D01*
X233121357Y-48876065D01*
X233288738Y-48744434D01*
X233428184Y-48583506D01*
X233534653Y-48399095D01*
X233604299Y-48197867D01*
X233634603Y-47987095D01*
X233632064Y-47933800D01*
X233930014Y-47933800D01*
X235723642Y-49727428D01*
X235875398Y-49429593D01*
X236013345Y-49070229D01*
X236112977Y-48698400D01*
X236112977Y-48698398D01*
X236173193Y-48318209D01*
X236193340Y-47933800D01*
X236193340Y-47933799D01*
X236173193Y-47549390D01*
X236112977Y-47169201D01*
X236112977Y-47169199D01*
X236013345Y-46797370D01*
X235875398Y-46438006D01*
X235723642Y-46140170D01*
X233930014Y-47933799D01*
X233930014Y-47933800D01*
X233632064Y-47933800D01*
X233624471Y-47774397D01*
X233574269Y-47567460D01*
X233485811Y-47373764D01*
X233362294Y-47200309D01*
X233208183Y-47053364D01*
X233029047Y-46938240D01*
X232831361Y-46859099D01*
X232622270Y-46818800D01*
X232462683Y-46818800D01*
X232303825Y-46833969D01*
X232099511Y-46893961D01*
X231910243Y-46991535D01*
X231742862Y-47123166D01*
X231603416Y-47284094D01*
X231496947Y-47468505D01*
X231427301Y-47669733D01*
X231396997Y-47880505D01*
X231048291Y-47880505D01*
X229307955Y-46140169D01*
X229156201Y-46438006D01*
X229018254Y-46797370D01*
X228918622Y-47169199D01*
X228918622Y-47169201D01*
X228858406Y-47549390D01*
X228838260Y-47933799D01*
X228838260Y-47933800D01*
X225186000Y-47933800D01*
X225186000Y-44725955D01*
X230722169Y-44725955D01*
X232515800Y-46519586D01*
X232515801Y-46519586D01*
X234309428Y-44725956D01*
X234011593Y-44574201D01*
X233652229Y-44436254D01*
X233280399Y-44336622D01*
X232900209Y-44276406D01*
X232515801Y-44256260D01*
X232515799Y-44256260D01*
X232131390Y-44276406D01*
X231751201Y-44336622D01*
X231751199Y-44336622D01*
X231379370Y-44436254D01*
X231020006Y-44574201D01*
X230722169Y-44725955D01*
X225186000Y-44725955D01*
X225186000Y-40333803D01*
X229610384Y-40333803D01*
X229630029Y-40671098D01*
X229630030Y-40671109D01*
X229688696Y-41003817D01*
X229688699Y-41003831D01*
X229785601Y-41327510D01*
X229919421Y-41637739D01*
X229919427Y-41637752D01*
X230088360Y-41930353D01*
X230290118Y-42201361D01*
X230290123Y-42201367D01*
X230409869Y-42328289D01*
X230521983Y-42447123D01*
X230521989Y-42447128D01*
X230521991Y-42447130D01*
X230780801Y-42664299D01*
X230780806Y-42664302D01*
X231063092Y-42849964D01*
X231365024Y-43001600D01*
X231682517Y-43117158D01*
X232011280Y-43195076D01*
X232346865Y-43234300D01*
X232346872Y-43234300D01*
X232684728Y-43234300D01*
X232684735Y-43234300D01*
X233020320Y-43195076D01*
X233349083Y-43117158D01*
X233666576Y-43001600D01*
X233968508Y-42849964D01*
X234250794Y-42664302D01*
X234509617Y-42447123D01*
X234741478Y-42201365D01*
X234943240Y-41930352D01*
X235112175Y-41637748D01*
X235245998Y-41327511D01*
X235342900Y-41003835D01*
X235401571Y-40671098D01*
X235421216Y-40333800D01*
X235401571Y-39996502D01*
X235386371Y-39910302D01*
X235342903Y-39663782D01*
X235342902Y-39663781D01*
X235342900Y-39663765D01*
X235245998Y-39340089D01*
X235112175Y-39029852D01*
X234943240Y-38737248D01*
X234943239Y-38737246D01*
X234741481Y-38466238D01*
X234741476Y-38466232D01*
X234629364Y-38347401D01*
X234509617Y-38220477D01*
X234509610Y-38220471D01*
X234509608Y-38220469D01*
X234250798Y-38003300D01*
X234109651Y-37910467D01*
X233968508Y-37817636D01*
X233963393Y-37815067D01*
X233666583Y-37666003D01*
X233666577Y-37666000D01*
X233349084Y-37550442D01*
X233349081Y-37550441D01*
X233122439Y-37496726D01*
X233020320Y-37472524D01*
X232684735Y-37433300D01*
X232346865Y-37433300D01*
X232011280Y-37472524D01*
X231682518Y-37550441D01*
X231682515Y-37550442D01*
X231365022Y-37666000D01*
X231365016Y-37666003D01*
X231063095Y-37817634D01*
X230780801Y-38003300D01*
X230521991Y-38220469D01*
X230521981Y-38220479D01*
X230290123Y-38466232D01*
X230290118Y-38466238D01*
X230088360Y-38737246D01*
X229919427Y-39029847D01*
X229919421Y-39029860D01*
X229785601Y-39340089D01*
X229688699Y-39663768D01*
X229688696Y-39663782D01*
X229630030Y-39996490D01*
X229630029Y-39996501D01*
X229610384Y-40333796D01*
X229610384Y-40333803D01*
X225186000Y-40333803D01*
X225186000Y-33943647D01*
X247385150Y-33943647D01*
X247404140Y-34233381D01*
X247404142Y-34233393D01*
X247460784Y-34518153D01*
X247460788Y-34518168D01*
X247554120Y-34793113D01*
X247682538Y-35053520D01*
X247843856Y-35294948D01*
X248035300Y-35513249D01*
X248183649Y-35643347D01*
X248253603Y-35704695D01*
X248495026Y-35866009D01*
X248495029Y-35866011D01*
X248742406Y-35988003D01*
X248755440Y-35994431D01*
X249030389Y-36087764D01*
X249315167Y-36144410D01*
X249604903Y-36163400D01*
X249894639Y-36144410D01*
X250179417Y-36087764D01*
X250454366Y-35994431D01*
X250714780Y-35866009D01*
X250956203Y-35704695D01*
X251174505Y-35513249D01*
X251365951Y-35294947D01*
X251527265Y-35053524D01*
X251655687Y-34793110D01*
X251749020Y-34518161D01*
X251805666Y-34233383D01*
X251824656Y-33943647D01*
X251805666Y-33653911D01*
X251749020Y-33369133D01*
X251655687Y-33094184D01*
X251615981Y-33013669D01*
X251527270Y-32833780D01*
X251527261Y-32833765D01*
X251470015Y-32748090D01*
X251365951Y-32592347D01*
X251324005Y-32544517D01*
X251174505Y-32374044D01*
X250956204Y-32182600D01*
X250714776Y-32021282D01*
X250454369Y-31892864D01*
X250179424Y-31799532D01*
X250179418Y-31799530D01*
X250179417Y-31799530D01*
X250179415Y-31799529D01*
X250179409Y-31799528D01*
X249894649Y-31742886D01*
X249894639Y-31742884D01*
X249604903Y-31723894D01*
X249315167Y-31742884D01*
X249315161Y-31742885D01*
X249315156Y-31742886D01*
X249030396Y-31799528D01*
X249030381Y-31799532D01*
X248755436Y-31892864D01*
X248495036Y-32021279D01*
X248495021Y-32021288D01*
X248253601Y-32182600D01*
X248035300Y-32374044D01*
X247843856Y-32592345D01*
X247682544Y-32833765D01*
X247682535Y-32833780D01*
X247554120Y-33094180D01*
X247460788Y-33369125D01*
X247460784Y-33369140D01*
X247404142Y-33653900D01*
X247404140Y-33653912D01*
X247385150Y-33943647D01*
X225186000Y-33943647D01*
X225186000Y-23948362D01*
X225205685Y-23881323D01*
X225222319Y-23860681D01*
X225649181Y-23433819D01*
X225710504Y-23400334D01*
X225736862Y-23397500D01*
X254256995Y-23397500D01*
X254261862Y-23397691D01*
G37*
%TD.AperFunction*%
%TD*%
%TA.AperFunction,Conductor*%
%TO.N,Net-(L1-2N1)*%
G36*
X167686677Y-40449685D02*
G01*
X167707319Y-40466319D01*
X168634681Y-41393681D01*
X168668166Y-41455004D01*
X168671000Y-41481362D01*
X168671000Y-44182024D01*
X168651315Y-44249063D01*
X168598511Y-44294818D01*
X168529353Y-44304762D01*
X168470527Y-44279635D01*
X168251954Y-44108394D01*
X168251945Y-44108388D01*
X167973882Y-43940295D01*
X167973866Y-43940286D01*
X167677600Y-43806947D01*
X167677571Y-43806936D01*
X167367387Y-43710280D01*
X167047773Y-43651708D01*
X166723450Y-43632091D01*
X166399126Y-43651708D01*
X166079512Y-43710280D01*
X165769328Y-43806936D01*
X165769299Y-43806947D01*
X165473033Y-43940286D01*
X165473009Y-43940299D01*
X165371924Y-44001406D01*
X165371923Y-44001407D01*
X166723450Y-45352932D01*
X167605636Y-46235118D01*
X167639121Y-46296441D01*
X167634137Y-46366133D01*
X167605636Y-46410480D01*
X165371923Y-48644192D01*
X165473021Y-48705307D01*
X165769299Y-48838652D01*
X165769328Y-48838663D01*
X166079512Y-48935319D01*
X166399126Y-48993891D01*
X166723450Y-49013508D01*
X167047773Y-48993891D01*
X167367387Y-48935319D01*
X167677571Y-48838663D01*
X167677600Y-48838652D01*
X167973866Y-48705313D01*
X167973882Y-48705304D01*
X168251945Y-48537211D01*
X168251954Y-48537205D01*
X168470527Y-48365964D01*
X168535439Y-48340115D01*
X168604022Y-48353464D01*
X168654500Y-48401772D01*
X168671000Y-48463575D01*
X168671000Y-73212001D01*
X169312935Y-74978756D01*
X169312937Y-74978758D01*
X171686663Y-77814042D01*
X173328600Y-78580800D01*
X187152520Y-78580800D01*
X187219559Y-78600485D01*
X187239859Y-78616778D01*
X188175133Y-79544792D01*
X188208857Y-79605984D01*
X188211790Y-79631848D01*
X188271607Y-87308382D01*
X188252446Y-87375573D01*
X188235869Y-87396449D01*
X187315953Y-88328586D01*
X187254852Y-88362475D01*
X187228365Y-88365483D01*
X185143903Y-88376749D01*
X185100824Y-88369273D01*
X185049090Y-88350444D01*
X185049081Y-88350441D01*
X184822439Y-88296726D01*
X184720320Y-88272524D01*
X184384735Y-88233300D01*
X184046865Y-88233300D01*
X183711280Y-88272524D01*
X183382516Y-88350442D01*
X183302812Y-88379451D01*
X183261073Y-88386927D01*
X161137401Y-88506515D01*
X161070256Y-88487193D01*
X161049217Y-88470366D01*
X160482225Y-87905536D01*
X160240773Y-87665005D01*
X170277008Y-87665005D01*
X170553673Y-87793003D01*
X170887656Y-87905536D01*
X171231837Y-87981296D01*
X171582188Y-88019399D01*
X171582195Y-88019400D01*
X171934605Y-88019400D01*
X171934611Y-88019399D01*
X172284962Y-87981296D01*
X172629143Y-87905536D01*
X172963123Y-87793005D01*
X173239790Y-87665003D01*
X172316429Y-86741642D01*
X182422170Y-86741642D01*
X182720006Y-86893398D01*
X183079370Y-87031345D01*
X183451200Y-87130977D01*
X183831390Y-87191193D01*
X184215799Y-87211340D01*
X184215801Y-87211340D01*
X184600209Y-87191193D01*
X184980398Y-87130977D01*
X184980400Y-87130977D01*
X185352229Y-87031345D01*
X185711593Y-86893398D01*
X186009428Y-86741642D01*
X184215800Y-84948014D01*
X182422170Y-86741642D01*
X172316429Y-86741642D01*
X171758400Y-86183613D01*
X170277008Y-87665003D01*
X170277008Y-87665005D01*
X160240773Y-87665005D01*
X160123951Y-87548628D01*
X160090350Y-87487369D01*
X160087466Y-87460590D01*
X160091731Y-84769402D01*
X168503627Y-84769402D01*
X168522706Y-85121300D01*
X168522708Y-85121317D01*
X168579719Y-85469067D01*
X168579725Y-85469093D01*
X168674000Y-85808643D01*
X168674002Y-85808650D01*
X168804443Y-86136034D01*
X168804452Y-86136052D01*
X168864420Y-86249165D01*
X170249592Y-84863994D01*
X170858400Y-84863994D01*
X170897735Y-85049047D01*
X170974684Y-85221878D01*
X171085886Y-85374934D01*
X171226480Y-85501526D01*
X171390321Y-85596119D01*
X171570249Y-85654582D01*
X171711236Y-85669400D01*
X171805564Y-85669400D01*
X171946551Y-85654582D01*
X172126479Y-85596119D01*
X172290320Y-85501526D01*
X172430914Y-85374934D01*
X172542116Y-85221879D01*
X172619065Y-85049047D01*
X172658400Y-84863994D01*
X172658400Y-84769400D01*
X173172613Y-84769400D01*
X174652378Y-86249165D01*
X174712348Y-86136052D01*
X174712356Y-86136034D01*
X174842797Y-85808650D01*
X174842799Y-85808643D01*
X174937074Y-85469093D01*
X174937080Y-85469067D01*
X174994091Y-85121317D01*
X174994093Y-85121300D01*
X175013173Y-84769402D01*
X175013173Y-84769397D01*
X174994093Y-84417499D01*
X174994091Y-84417482D01*
X174937080Y-84069732D01*
X174937074Y-84069706D01*
X174842799Y-83730156D01*
X174842797Y-83730149D01*
X174764565Y-83533800D01*
X180538260Y-83533800D01*
X180558406Y-83918209D01*
X180618622Y-84298398D01*
X180618622Y-84298400D01*
X180718254Y-84670229D01*
X180856201Y-85029593D01*
X181007956Y-85327428D01*
X182801586Y-83533800D01*
X182748291Y-83480505D01*
X183096997Y-83480505D01*
X183107129Y-83693203D01*
X183157331Y-83900140D01*
X183245789Y-84093836D01*
X183369306Y-84267291D01*
X183523417Y-84414236D01*
X183702553Y-84529360D01*
X183900239Y-84608501D01*
X184109330Y-84648800D01*
X184268917Y-84648800D01*
X184427775Y-84633631D01*
X184632089Y-84573639D01*
X184821357Y-84476065D01*
X184988738Y-84344434D01*
X185128184Y-84183506D01*
X185234653Y-83999095D01*
X185304299Y-83797867D01*
X185334603Y-83587095D01*
X185332064Y-83533800D01*
X185630014Y-83533800D01*
X187423642Y-85327428D01*
X187575398Y-85029593D01*
X187713345Y-84670229D01*
X187812977Y-84298400D01*
X187812977Y-84298398D01*
X187873193Y-83918209D01*
X187893340Y-83533800D01*
X187893340Y-83533799D01*
X187873193Y-83149390D01*
X187812977Y-82769201D01*
X187812977Y-82769199D01*
X187713345Y-82397370D01*
X187575398Y-82038006D01*
X187423642Y-81740170D01*
X185630014Y-83533799D01*
X185630014Y-83533800D01*
X185332064Y-83533800D01*
X185324471Y-83374397D01*
X185274269Y-83167460D01*
X185185811Y-82973764D01*
X185062294Y-82800309D01*
X184908183Y-82653364D01*
X184729047Y-82538240D01*
X184531361Y-82459099D01*
X184322270Y-82418800D01*
X184162683Y-82418800D01*
X184003825Y-82433969D01*
X183799511Y-82493961D01*
X183610243Y-82591535D01*
X183442862Y-82723166D01*
X183303416Y-82884094D01*
X183196947Y-83068505D01*
X183127301Y-83269733D01*
X183096997Y-83480505D01*
X182748291Y-83480505D01*
X181007955Y-81740169D01*
X180856201Y-82038006D01*
X180718254Y-82397370D01*
X180618622Y-82769199D01*
X180618622Y-82769201D01*
X180558406Y-83149390D01*
X180538260Y-83533799D01*
X180538260Y-83533800D01*
X174764565Y-83533800D01*
X174712356Y-83402765D01*
X174712347Y-83402747D01*
X174652378Y-83289633D01*
X173172613Y-84769399D01*
X173172613Y-84769400D01*
X172658400Y-84769400D01*
X172658400Y-84674806D01*
X172619065Y-84489753D01*
X172542116Y-84316922D01*
X172430914Y-84163866D01*
X172290320Y-84037274D01*
X172126479Y-83942681D01*
X171946551Y-83884218D01*
X171805564Y-83869400D01*
X171711236Y-83869400D01*
X171570249Y-83884218D01*
X171390321Y-83942681D01*
X171226480Y-84037274D01*
X171085886Y-84163866D01*
X170974684Y-84316921D01*
X170897735Y-84489753D01*
X170858400Y-84674806D01*
X170858400Y-84863994D01*
X170249592Y-84863994D01*
X170344186Y-84769400D01*
X170344186Y-84769399D01*
X168864421Y-83289634D01*
X168864420Y-83289634D01*
X168804448Y-83402754D01*
X168804443Y-83402765D01*
X168674002Y-83730149D01*
X168674000Y-83730156D01*
X168579725Y-84069706D01*
X168579719Y-84069732D01*
X168522708Y-84417482D01*
X168522706Y-84417499D01*
X168503627Y-84769397D01*
X168503627Y-84769402D01*
X160091731Y-84769402D01*
X160096320Y-81873795D01*
X170277008Y-81873795D01*
X171758399Y-83355186D01*
X173239790Y-81873795D01*
X173239790Y-81873794D01*
X172963128Y-81745797D01*
X172963117Y-81745793D01*
X172629143Y-81633263D01*
X172284962Y-81557503D01*
X171934611Y-81519400D01*
X171582188Y-81519400D01*
X171231837Y-81557503D01*
X170887656Y-81633263D01*
X170553682Y-81745793D01*
X170277008Y-81873795D01*
X160096320Y-81873795D01*
X160098773Y-80325955D01*
X182422169Y-80325955D01*
X184215800Y-82119586D01*
X184215801Y-82119586D01*
X186009428Y-80325956D01*
X185711593Y-80174201D01*
X185352229Y-80036254D01*
X184980399Y-79936622D01*
X184600209Y-79876406D01*
X184215801Y-79856260D01*
X184215799Y-79856260D01*
X183831390Y-79876406D01*
X183451201Y-79936622D01*
X183451199Y-79936622D01*
X183079370Y-80036254D01*
X182720006Y-80174201D01*
X182422169Y-80325955D01*
X160098773Y-80325955D01*
X160152660Y-46322800D01*
X164032741Y-46322800D01*
X164052358Y-46647123D01*
X164110930Y-46966737D01*
X164207586Y-47276921D01*
X164207597Y-47276950D01*
X164340936Y-47573216D01*
X164340945Y-47573232D01*
X164402057Y-47674324D01*
X165753582Y-46322800D01*
X165753582Y-46322799D01*
X165720950Y-46290167D01*
X166287994Y-46290167D01*
X166297721Y-46419970D01*
X166345277Y-46541138D01*
X166426434Y-46642907D01*
X166533983Y-46716232D01*
X166658367Y-46754600D01*
X166755807Y-46754600D01*
X166852163Y-46740077D01*
X166969439Y-46683599D01*
X167064858Y-46595064D01*
X167129941Y-46482336D01*
X167158906Y-46355433D01*
X167149179Y-46225630D01*
X167101623Y-46104462D01*
X167020466Y-46002693D01*
X166912917Y-45929368D01*
X166788533Y-45891000D01*
X166691093Y-45891000D01*
X166594737Y-45905523D01*
X166477461Y-45962001D01*
X166382042Y-46050536D01*
X166316959Y-46163264D01*
X166287994Y-46290167D01*
X165720950Y-46290167D01*
X164402057Y-44971273D01*
X164402056Y-44971274D01*
X164340949Y-45072359D01*
X164340936Y-45072383D01*
X164207597Y-45368649D01*
X164207586Y-45368678D01*
X164110930Y-45678862D01*
X164052358Y-45998476D01*
X164032741Y-46322800D01*
X160152660Y-46322800D01*
X160160333Y-41481300D01*
X160180124Y-41414295D01*
X160196714Y-41393756D01*
X160895750Y-40695827D01*
X161125694Y-40466249D01*
X161187044Y-40432813D01*
X161213306Y-40430000D01*
X167619638Y-40430000D01*
X167686677Y-40449685D01*
G37*
%TD.AperFunction*%
%TD*%
%TA.AperFunction,Conductor*%
%TO.N,Net-(J1-Pad1_1)*%
G36*
X144764923Y-23417185D02*
G01*
X144785758Y-23434012D01*
X145014328Y-23663593D01*
X145210345Y-23860476D01*
X145243695Y-23921873D01*
X145246470Y-23948511D01*
X145180637Y-38870808D01*
X145160657Y-38937760D01*
X145144126Y-38958135D01*
X144212286Y-39885874D01*
X144150889Y-39919224D01*
X144124798Y-39922000D01*
X116649562Y-39922000D01*
X116582523Y-39902315D01*
X116561881Y-39885681D01*
X116135019Y-39458819D01*
X116101534Y-39397496D01*
X116098700Y-39371138D01*
X116098700Y-38228306D01*
X122562730Y-38228306D01*
X122693985Y-38294224D01*
X122693986Y-38294225D01*
X123017180Y-38411858D01*
X123351833Y-38491172D01*
X123693442Y-38531099D01*
X123693443Y-38531100D01*
X124037357Y-38531100D01*
X124037357Y-38531099D01*
X124378965Y-38491172D01*
X124378967Y-38491172D01*
X124713619Y-38411858D01*
X125036813Y-38294225D01*
X125036814Y-38294224D01*
X125168068Y-38228306D01*
X130762729Y-38228306D01*
X130893984Y-38294224D01*
X130893985Y-38294225D01*
X131217179Y-38411858D01*
X131551832Y-38491172D01*
X131893441Y-38531099D01*
X131893442Y-38531100D01*
X132237356Y-38531100D01*
X132237356Y-38531099D01*
X132578964Y-38491172D01*
X132578966Y-38491172D01*
X132913618Y-38411858D01*
X133236812Y-38294225D01*
X133236813Y-38294224D01*
X133368067Y-38228306D01*
X133368067Y-38228305D01*
X132065399Y-36925638D01*
X130762729Y-38228305D01*
X130762729Y-38228306D01*
X125168068Y-38228306D01*
X125168068Y-38228305D01*
X123865400Y-36925638D01*
X122562730Y-38228305D01*
X122562730Y-38228306D01*
X116098700Y-38228306D01*
X116098700Y-35578603D01*
X120907896Y-35578603D01*
X120927894Y-35921945D01*
X120927895Y-35921956D01*
X120987613Y-36260638D01*
X120987616Y-36260648D01*
X121086255Y-36590127D01*
X121213002Y-36883958D01*
X121213003Y-36883959D01*
X122433549Y-35663413D01*
X123166900Y-35663413D01*
X123207495Y-35828111D01*
X123286324Y-35978307D01*
X123398807Y-36105275D01*
X123538407Y-36201633D01*
X123697010Y-36261784D01*
X123823150Y-36277100D01*
X123907650Y-36277100D01*
X124033790Y-36261784D01*
X124192393Y-36201633D01*
X124331993Y-36105275D01*
X124444476Y-35978307D01*
X124523305Y-35828111D01*
X124563900Y-35663413D01*
X124563900Y-35578601D01*
X125212438Y-35578601D01*
X126517796Y-36883959D01*
X126644544Y-36590127D01*
X126743183Y-36260648D01*
X126743186Y-36260638D01*
X126802904Y-35921956D01*
X126802905Y-35921945D01*
X126822904Y-35578603D01*
X129107895Y-35578603D01*
X129127893Y-35921945D01*
X129127894Y-35921956D01*
X129187612Y-36260638D01*
X129187615Y-36260648D01*
X129286254Y-36590127D01*
X129413001Y-36883958D01*
X129413002Y-36883959D01*
X130633548Y-35663413D01*
X131366899Y-35663413D01*
X131407494Y-35828111D01*
X131486323Y-35978307D01*
X131598806Y-36105275D01*
X131738406Y-36201633D01*
X131897009Y-36261784D01*
X132023149Y-36277100D01*
X132107649Y-36277100D01*
X132233789Y-36261784D01*
X132392392Y-36201633D01*
X132531992Y-36105275D01*
X132644475Y-35978307D01*
X132723304Y-35828111D01*
X132763899Y-35663413D01*
X132763899Y-35578601D01*
X133412437Y-35578601D01*
X134717795Y-36883959D01*
X134844543Y-36590127D01*
X134943182Y-36260648D01*
X134943185Y-36260638D01*
X135002903Y-35921956D01*
X135002904Y-35921945D01*
X135022903Y-35578603D01*
X135022903Y-35578596D01*
X135002904Y-35235254D01*
X135002903Y-35235243D01*
X134943185Y-34896561D01*
X134943182Y-34896551D01*
X134844543Y-34567072D01*
X134717795Y-34273239D01*
X133412437Y-35578599D01*
X133412437Y-35578601D01*
X132763899Y-35578601D01*
X132763899Y-35493787D01*
X132723304Y-35329089D01*
X132644475Y-35178893D01*
X132531992Y-35051925D01*
X132392392Y-34955567D01*
X132233789Y-34895416D01*
X132107649Y-34880100D01*
X132023149Y-34880100D01*
X131897009Y-34895416D01*
X131738406Y-34955567D01*
X131598806Y-35051925D01*
X131486323Y-35178893D01*
X131407494Y-35329089D01*
X131366899Y-35493787D01*
X131366899Y-35663413D01*
X130633548Y-35663413D01*
X130718361Y-35578600D01*
X130718361Y-35578599D01*
X129413001Y-34273240D01*
X129286254Y-34567072D01*
X129187615Y-34896551D01*
X129187612Y-34896561D01*
X129127894Y-35235243D01*
X129127893Y-35235254D01*
X129107895Y-35578596D01*
X129107895Y-35578603D01*
X126822904Y-35578603D01*
X126822904Y-35578596D01*
X126802905Y-35235254D01*
X126802904Y-35235243D01*
X126743186Y-34896561D01*
X126743183Y-34896551D01*
X126644544Y-34567072D01*
X126517796Y-34273239D01*
X125212438Y-35578599D01*
X125212438Y-35578601D01*
X124563900Y-35578601D01*
X124563900Y-35493787D01*
X124523305Y-35329089D01*
X124444476Y-35178893D01*
X124331993Y-35051925D01*
X124192393Y-34955567D01*
X124033790Y-34895416D01*
X123907650Y-34880100D01*
X123823150Y-34880100D01*
X123697010Y-34895416D01*
X123538407Y-34955567D01*
X123398807Y-35051925D01*
X123286324Y-35178893D01*
X123207495Y-35329089D01*
X123166900Y-35493787D01*
X123166900Y-35663413D01*
X122433549Y-35663413D01*
X122518362Y-35578600D01*
X122518362Y-35578599D01*
X121213002Y-34273240D01*
X121086255Y-34567072D01*
X120987616Y-34896551D01*
X120987613Y-34896561D01*
X120927895Y-35235243D01*
X120927894Y-35235254D01*
X120907896Y-35578596D01*
X120907896Y-35578603D01*
X116098700Y-35578603D01*
X116098700Y-33078600D01*
X122712438Y-33078600D01*
X123865400Y-34231562D01*
X125018362Y-33078600D01*
X130912437Y-33078600D01*
X132065399Y-34231562D01*
X133218361Y-33078600D01*
X132065399Y-31925638D01*
X130912437Y-33078600D01*
X125018362Y-33078600D01*
X123865400Y-31925638D01*
X122712438Y-33078600D01*
X116098700Y-33078600D01*
X116098700Y-30578603D01*
X120907896Y-30578603D01*
X120927894Y-30921945D01*
X120927895Y-30921956D01*
X120987613Y-31260638D01*
X120987616Y-31260648D01*
X121086255Y-31590127D01*
X121213002Y-31883958D01*
X121213003Y-31883959D01*
X122433549Y-30663413D01*
X123166900Y-30663413D01*
X123207495Y-30828111D01*
X123286324Y-30978307D01*
X123398807Y-31105275D01*
X123538407Y-31201633D01*
X123697010Y-31261784D01*
X123823150Y-31277100D01*
X123907650Y-31277100D01*
X124033790Y-31261784D01*
X124192393Y-31201633D01*
X124331993Y-31105275D01*
X124444476Y-30978307D01*
X124523305Y-30828111D01*
X124563900Y-30663413D01*
X124563900Y-30578601D01*
X125212438Y-30578601D01*
X126517796Y-31883959D01*
X126644544Y-31590127D01*
X126743183Y-31260648D01*
X126743186Y-31260638D01*
X126802904Y-30921956D01*
X126802905Y-30921945D01*
X126822904Y-30578603D01*
X129107895Y-30578603D01*
X129127893Y-30921945D01*
X129127894Y-30921956D01*
X129187612Y-31260638D01*
X129187615Y-31260648D01*
X129286254Y-31590127D01*
X129413001Y-31883958D01*
X129413002Y-31883959D01*
X130633548Y-30663413D01*
X131366899Y-30663413D01*
X131407494Y-30828111D01*
X131486323Y-30978307D01*
X131598806Y-31105275D01*
X131738406Y-31201633D01*
X131897009Y-31261784D01*
X132023149Y-31277100D01*
X132107649Y-31277100D01*
X132233789Y-31261784D01*
X132392392Y-31201633D01*
X132531992Y-31105275D01*
X132644475Y-30978307D01*
X132723304Y-30828111D01*
X132763899Y-30663413D01*
X132763899Y-30578601D01*
X133412437Y-30578601D01*
X134717795Y-31883959D01*
X134844543Y-31590127D01*
X134943182Y-31260648D01*
X134943185Y-31260638D01*
X135002903Y-30921956D01*
X135002904Y-30921945D01*
X135022903Y-30578603D01*
X135022903Y-30578596D01*
X135018358Y-30500570D01*
X139069840Y-30500570D01*
X139108114Y-30521723D01*
X139434987Y-30657118D01*
X139774949Y-30755059D01*
X139774958Y-30755061D01*
X140123748Y-30814323D01*
X140123760Y-30814325D01*
X140477000Y-30834162D01*
X140830239Y-30814325D01*
X140830251Y-30814323D01*
X141179041Y-30755061D01*
X141179050Y-30755059D01*
X141519012Y-30657118D01*
X141845885Y-30521723D01*
X141884157Y-30500571D01*
X141884157Y-30500570D01*
X140477000Y-29093413D01*
X139069840Y-30500570D01*
X135018358Y-30500570D01*
X135002904Y-30235254D01*
X135002903Y-30235243D01*
X134943185Y-29896561D01*
X134943182Y-29896551D01*
X134844543Y-29567072D01*
X134717795Y-29273239D01*
X133412437Y-30578599D01*
X133412437Y-30578601D01*
X132763899Y-30578601D01*
X132763899Y-30493787D01*
X132723304Y-30329089D01*
X132644475Y-30178893D01*
X132531992Y-30051925D01*
X132392392Y-29955567D01*
X132233789Y-29895416D01*
X132107649Y-29880100D01*
X132023149Y-29880100D01*
X131897009Y-29895416D01*
X131738406Y-29955567D01*
X131598806Y-30051925D01*
X131486323Y-30178893D01*
X131407494Y-30329089D01*
X131366899Y-30493787D01*
X131366899Y-30663413D01*
X130633548Y-30663413D01*
X130718361Y-30578600D01*
X130718361Y-30578599D01*
X129413002Y-29273240D01*
X129413001Y-29273240D01*
X129286254Y-29567072D01*
X129187615Y-29896551D01*
X129187612Y-29896561D01*
X129127894Y-30235243D01*
X129127893Y-30235254D01*
X129107895Y-30578596D01*
X129107895Y-30578603D01*
X126822904Y-30578603D01*
X126822904Y-30578596D01*
X126802905Y-30235254D01*
X126802904Y-30235243D01*
X126743186Y-29896561D01*
X126743183Y-29896551D01*
X126644544Y-29567072D01*
X126517796Y-29273239D01*
X125212438Y-30578599D01*
X125212438Y-30578601D01*
X124563900Y-30578601D01*
X124563900Y-30493787D01*
X124523305Y-30329089D01*
X124444476Y-30178893D01*
X124331993Y-30051925D01*
X124192393Y-29955567D01*
X124033790Y-29895416D01*
X123907650Y-29880100D01*
X123823150Y-29880100D01*
X123697010Y-29895416D01*
X123538407Y-29955567D01*
X123398807Y-30051925D01*
X123286324Y-30178893D01*
X123207495Y-30329089D01*
X123166900Y-30493787D01*
X123166900Y-30663413D01*
X122433549Y-30663413D01*
X122518362Y-30578600D01*
X122518362Y-30578599D01*
X121213002Y-29273240D01*
X121086255Y-29567072D01*
X120987616Y-29896551D01*
X120987613Y-29896561D01*
X120927895Y-30235243D01*
X120927894Y-30235254D01*
X120907896Y-30578596D01*
X120907896Y-30578603D01*
X116098700Y-30578603D01*
X116098700Y-27928893D01*
X122562731Y-27928893D01*
X123865400Y-29231562D01*
X123865401Y-29231562D01*
X125168067Y-27928893D01*
X130762730Y-27928893D01*
X132065399Y-29231562D01*
X132065400Y-29231562D01*
X133368066Y-27928893D01*
X133236802Y-27862970D01*
X132913618Y-27745341D01*
X132634546Y-27679200D01*
X137322037Y-27679200D01*
X137341874Y-28032439D01*
X137341876Y-28032451D01*
X137401138Y-28381241D01*
X137401140Y-28381250D01*
X137499081Y-28721212D01*
X137634472Y-29048077D01*
X137634473Y-29048079D01*
X137655628Y-29086357D01*
X139018880Y-27723106D01*
X139723172Y-27723106D01*
X139753616Y-27895767D01*
X139823059Y-28056753D01*
X139927756Y-28197385D01*
X140062062Y-28310082D01*
X140218739Y-28388768D01*
X140389338Y-28429200D01*
X140520684Y-28429200D01*
X140651139Y-28413952D01*
X140815891Y-28353987D01*
X140962373Y-28257645D01*
X141082688Y-28130118D01*
X141170350Y-27978282D01*
X141220634Y-27810323D01*
X141228271Y-27679200D01*
X141891213Y-27679200D01*
X143298370Y-29086357D01*
X143298371Y-29086357D01*
X143319523Y-29048085D01*
X143454918Y-28721212D01*
X143552859Y-28381250D01*
X143552861Y-28381241D01*
X143612123Y-28032451D01*
X143612125Y-28032439D01*
X143631962Y-27679200D01*
X143612125Y-27325960D01*
X143612123Y-27325948D01*
X143552861Y-26977158D01*
X143552859Y-26977149D01*
X143454918Y-26637187D01*
X143319523Y-26310314D01*
X143298370Y-26272040D01*
X141891213Y-27679199D01*
X141891213Y-27679200D01*
X141228271Y-27679200D01*
X141230828Y-27635294D01*
X141200384Y-27462633D01*
X141130941Y-27301647D01*
X141026244Y-27161015D01*
X140891938Y-27048318D01*
X140735261Y-26969632D01*
X140564662Y-26929200D01*
X140433316Y-26929200D01*
X140302861Y-26944448D01*
X140138109Y-27004413D01*
X139991627Y-27100755D01*
X139871312Y-27228282D01*
X139783650Y-27380118D01*
X139733366Y-27548077D01*
X139723172Y-27723106D01*
X139018880Y-27723106D01*
X139062786Y-27679200D01*
X139062786Y-27679199D01*
X137655628Y-26272041D01*
X137634478Y-26310309D01*
X137634477Y-26310312D01*
X137499081Y-26637187D01*
X137401140Y-26977149D01*
X137401138Y-26977158D01*
X137341876Y-27325948D01*
X137341874Y-27325960D01*
X137322037Y-27679200D01*
X132634546Y-27679200D01*
X132578965Y-27666027D01*
X132237356Y-27626100D01*
X131893442Y-27626100D01*
X131551833Y-27666027D01*
X131551831Y-27666027D01*
X131217179Y-27745341D01*
X130893991Y-27862972D01*
X130762730Y-27928893D01*
X125168067Y-27928893D01*
X125036803Y-27862970D01*
X124713619Y-27745341D01*
X124378966Y-27666027D01*
X124037357Y-27626100D01*
X123693443Y-27626100D01*
X123351834Y-27666027D01*
X123351832Y-27666027D01*
X123017180Y-27745341D01*
X122693992Y-27862972D01*
X122562731Y-27928893D01*
X116098700Y-27928893D01*
X116098700Y-25898877D01*
X116098813Y-25895133D01*
X116116697Y-25599465D01*
X116117601Y-25592026D01*
X116170656Y-25302516D01*
X116172446Y-25295250D01*
X116260016Y-25014230D01*
X116262665Y-25007248D01*
X116329913Y-24857828D01*
X139069841Y-24857828D01*
X140477000Y-26264986D01*
X141884158Y-24857828D01*
X141845879Y-24836673D01*
X141845877Y-24836672D01*
X141519012Y-24701281D01*
X141179050Y-24603340D01*
X141179041Y-24603338D01*
X140830251Y-24544076D01*
X140830239Y-24544074D01*
X140477000Y-24524237D01*
X140123760Y-24544074D01*
X140123748Y-24544076D01*
X139774958Y-24603338D01*
X139774949Y-24603340D01*
X139434987Y-24701281D01*
X139108112Y-24836677D01*
X139108109Y-24836678D01*
X139069841Y-24857828D01*
X116329913Y-24857828D01*
X116339432Y-24836678D01*
X116383468Y-24738834D01*
X116386945Y-24732211D01*
X116464851Y-24603340D01*
X116539212Y-24480330D01*
X116543452Y-24474186D01*
X116724993Y-24242465D01*
X116729937Y-24236884D01*
X116938084Y-24028737D01*
X116943665Y-24023793D01*
X117175386Y-23842252D01*
X117181534Y-23838010D01*
X117433415Y-23685742D01*
X117440034Y-23682268D01*
X117708448Y-23561465D01*
X117715430Y-23558816D01*
X117996450Y-23471246D01*
X118003716Y-23469456D01*
X118293226Y-23416401D01*
X118300658Y-23415497D01*
X118525772Y-23401880D01*
X118596334Y-23397613D01*
X118600078Y-23397500D01*
X144697884Y-23397500D01*
X144764923Y-23417185D01*
G37*
%TD.AperFunction*%
%TD*%
%TA.AperFunction,Conductor*%
%TO.N,GND*%
G36*
X149372562Y-23397691D02*
G01*
X149449035Y-23403711D01*
X149569828Y-23413220D01*
X149589038Y-23416264D01*
X149774317Y-23460750D01*
X149792818Y-23466762D01*
X149968857Y-23539683D01*
X149986185Y-23548512D01*
X150148656Y-23648075D01*
X150164389Y-23659506D01*
X150189075Y-23680590D01*
X150309283Y-23783258D01*
X150323041Y-23797016D01*
X150338836Y-23815509D01*
X150442653Y-23937063D01*
X150446790Y-23941906D01*
X150458227Y-23957648D01*
X150557785Y-24120110D01*
X150566618Y-24137446D01*
X150639536Y-24313479D01*
X150645549Y-24331983D01*
X150690034Y-24517257D01*
X150693078Y-24536475D01*
X150708609Y-24733736D01*
X150708800Y-24738604D01*
X150708800Y-25011463D01*
X150720642Y-25184588D01*
X150746377Y-25560812D01*
X150746377Y-25560811D01*
X150821353Y-26106309D01*
X150821353Y-26106310D01*
X150933382Y-26645422D01*
X151081938Y-27175628D01*
X151081942Y-27175641D01*
X151266337Y-27694479D01*
X151485710Y-28199525D01*
X151739036Y-28688422D01*
X152025135Y-29158893D01*
X152342674Y-29608742D01*
X152690170Y-30035873D01*
X153066006Y-30438294D01*
X153468427Y-30814130D01*
X153895558Y-31161626D01*
X154345405Y-31479163D01*
X154345405Y-31479164D01*
X154345407Y-31479165D01*
X154794324Y-31752157D01*
X154815885Y-31765268D01*
X155005060Y-31863290D01*
X155304775Y-32018590D01*
X155809821Y-32237963D01*
X156328659Y-32422358D01*
X156328673Y-32422362D01*
X156328672Y-32422362D01*
X156858878Y-32570918D01*
X157397990Y-32682947D01*
X157397991Y-32682947D01*
X157943489Y-32757923D01*
X157943488Y-32757923D01*
X158035047Y-32764185D01*
X158492837Y-32795500D01*
X158492842Y-32795500D01*
X159043464Y-32795500D01*
X159043469Y-32795500D01*
X159501259Y-32764185D01*
X159592818Y-32757923D01*
X159592817Y-32757923D01*
X160138315Y-32682947D01*
X160138316Y-32682947D01*
X160677428Y-32570918D01*
X161207634Y-32422362D01*
X161207633Y-32422362D01*
X161207647Y-32422358D01*
X161726485Y-32237963D01*
X162231531Y-32018590D01*
X162531245Y-31863290D01*
X162720421Y-31765268D01*
X162741982Y-31752157D01*
X163190899Y-31479165D01*
X163190901Y-31479164D01*
X163190901Y-31479163D01*
X163640748Y-31161626D01*
X164067879Y-30814130D01*
X164470300Y-30438294D01*
X164846136Y-30035873D01*
X165193632Y-29608742D01*
X165511171Y-29158893D01*
X165797270Y-28688422D01*
X166050596Y-28199525D01*
X166269969Y-27694479D01*
X166454364Y-27175641D01*
X166454368Y-27175628D01*
X166602924Y-26645422D01*
X166714953Y-26106310D01*
X166714953Y-26106309D01*
X166789929Y-25560811D01*
X166789929Y-25560812D01*
X166815664Y-25184588D01*
X166827506Y-25011463D01*
X166827506Y-24738628D01*
X166827698Y-24733757D01*
X166832958Y-24666972D01*
X166843237Y-24536493D01*
X166846279Y-24517299D01*
X166890776Y-24332003D01*
X166896780Y-24313525D01*
X166969718Y-24137459D01*
X166978535Y-24120156D01*
X167078118Y-23957659D01*
X167089536Y-23941945D01*
X167213297Y-23797043D01*
X167227046Y-23783294D01*
X167371943Y-23659538D01*
X167387681Y-23648105D01*
X167387735Y-23648072D01*
X167550154Y-23548536D01*
X167567468Y-23539714D01*
X167743524Y-23466781D01*
X167762007Y-23460775D01*
X167947303Y-23416278D01*
X167966499Y-23413236D01*
X168087326Y-23403718D01*
X168163838Y-23397692D01*
X168168709Y-23397500D01*
X209742085Y-23397500D01*
X209809124Y-23417185D01*
X209854879Y-23469989D01*
X209866085Y-23521500D01*
X209866085Y-24763740D01*
X209873775Y-24789931D01*
X209877532Y-24807200D01*
X209881420Y-24834232D01*
X209881420Y-24834234D01*
X209892758Y-24859060D01*
X209898940Y-24875635D01*
X209906632Y-24901830D01*
X209921386Y-24924789D01*
X209921391Y-24924796D01*
X209929867Y-24940318D01*
X209941208Y-24965150D01*
X209953022Y-24978784D01*
X209959081Y-24985777D01*
X209969680Y-24999937D01*
X209984438Y-25022900D01*
X209984442Y-25022905D01*
X210005073Y-25040783D01*
X210017577Y-25053287D01*
X210028624Y-25066035D01*
X210035457Y-25073920D01*
X210058429Y-25088682D01*
X210072581Y-25099277D01*
X210093212Y-25117154D01*
X210116484Y-25127782D01*
X210118036Y-25128491D01*
X210133563Y-25136969D01*
X210156532Y-25151730D01*
X210182721Y-25159420D01*
X210199298Y-25165603D01*
X210224123Y-25176940D01*
X210224124Y-25176940D01*
X210224128Y-25176942D01*
X210251149Y-25180827D01*
X210268431Y-25184586D01*
X210294624Y-25192277D01*
X217096681Y-25192277D01*
X217096682Y-25192277D01*
X217122874Y-25184586D01*
X217140157Y-25180827D01*
X217144603Y-25180187D01*
X217167178Y-25176942D01*
X217192008Y-25165601D01*
X217208583Y-25159419D01*
X217234774Y-25151730D01*
X217257741Y-25136969D01*
X217273261Y-25128494D01*
X217298094Y-25117154D01*
X217318727Y-25099274D01*
X217332869Y-25088687D01*
X217355849Y-25073920D01*
X217373736Y-25053276D01*
X217386220Y-25040792D01*
X217406864Y-25022905D01*
X217421631Y-24999925D01*
X217432218Y-24985783D01*
X217450098Y-24965150D01*
X217461438Y-24940317D01*
X217469914Y-24924796D01*
X217484674Y-24901830D01*
X217492365Y-24875635D01*
X217498545Y-24859064D01*
X217509886Y-24834234D01*
X217513771Y-24807212D01*
X217517530Y-24789930D01*
X217525221Y-24763738D01*
X217525221Y-24619816D01*
X217525221Y-23521500D01*
X217544906Y-23454461D01*
X217597710Y-23408706D01*
X217649221Y-23397500D01*
X224689951Y-23397500D01*
X224756990Y-23417185D01*
X224802745Y-23469989D01*
X224812689Y-23539147D01*
X224790529Y-23594024D01*
X224782698Y-23604883D01*
X224780432Y-23608027D01*
X224720663Y-23738899D01*
X224700978Y-23805937D01*
X224700976Y-23805942D01*
X224680500Y-23948363D01*
X224680500Y-68830784D01*
X224681940Y-68857735D01*
X224681940Y-68857736D01*
X224686197Y-68897449D01*
X224694802Y-68950707D01*
X224694803Y-68950709D01*
X224744998Y-69085547D01*
X224745000Y-69085550D01*
X224778446Y-69146892D01*
X224864600Y-69262131D01*
X225697268Y-70095840D01*
X225801604Y-70200307D01*
X225801605Y-70200308D01*
X225801604Y-70200308D01*
X225821670Y-70218360D01*
X225852738Y-70243447D01*
X225896471Y-70275055D01*
X225896482Y-70275062D01*
X226027280Y-70334992D01*
X226027286Y-70334993D01*
X226094296Y-70354760D01*
X226236683Y-70375414D01*
X240275029Y-70392960D01*
X240342043Y-70412728D01*
X240387732Y-70465590D01*
X240397589Y-70534760D01*
X240368484Y-70598280D01*
X240356632Y-70610188D01*
X240294650Y-70664544D01*
X240103206Y-70882845D01*
X239941894Y-71124265D01*
X239941885Y-71124280D01*
X239813470Y-71384680D01*
X239720138Y-71659625D01*
X239720134Y-71659640D01*
X239663492Y-71944400D01*
X239663490Y-71944412D01*
X239644500Y-72234147D01*
X239663490Y-72523881D01*
X239663492Y-72523893D01*
X239720134Y-72808653D01*
X239720138Y-72808668D01*
X239813470Y-73083613D01*
X239941888Y-73344020D01*
X240103206Y-73585448D01*
X240294650Y-73803749D01*
X240465123Y-73953249D01*
X240512953Y-73995195D01*
X240731351Y-74141124D01*
X240754379Y-74156511D01*
X240855129Y-74206195D01*
X241014790Y-74284931D01*
X241289739Y-74378264D01*
X241574517Y-74434910D01*
X241864253Y-74453900D01*
X242153989Y-74434910D01*
X242438767Y-74378264D01*
X242713716Y-74284931D01*
X242974130Y-74156509D01*
X243215553Y-73995195D01*
X243433855Y-73803749D01*
X243625301Y-73585447D01*
X243786615Y-73344024D01*
X243915037Y-73083610D01*
X244008370Y-72808661D01*
X244012161Y-72789600D01*
X249800291Y-72789600D01*
X249819908Y-73113923D01*
X249878480Y-73433537D01*
X249975136Y-73743721D01*
X249975147Y-73743750D01*
X250108486Y-74040016D01*
X250108495Y-74040032D01*
X250169607Y-74141124D01*
X251521132Y-72789600D01*
X251521132Y-72789599D01*
X251488500Y-72756967D01*
X252055544Y-72756967D01*
X252065271Y-72886770D01*
X252112827Y-73007938D01*
X252193984Y-73109707D01*
X252301533Y-73183032D01*
X252425917Y-73221400D01*
X252523357Y-73221400D01*
X252619713Y-73206877D01*
X252736989Y-73150399D01*
X252832408Y-73061864D01*
X252897491Y-72949136D01*
X252926456Y-72822233D01*
X252924011Y-72789600D01*
X253460867Y-72789600D01*
X254812392Y-74141125D01*
X254873507Y-74040028D01*
X255006852Y-73743750D01*
X255006863Y-73743721D01*
X255103519Y-73433537D01*
X255162091Y-73113923D01*
X255181708Y-72789600D01*
X255162091Y-72465276D01*
X255103519Y-72145662D01*
X255006863Y-71835478D01*
X255006851Y-71835446D01*
X254873507Y-71539171D01*
X254812392Y-71438073D01*
X253460867Y-72789599D01*
X253460867Y-72789600D01*
X252924011Y-72789600D01*
X252916729Y-72692430D01*
X252869173Y-72571262D01*
X252788016Y-72469493D01*
X252680467Y-72396168D01*
X252556083Y-72357800D01*
X252458643Y-72357800D01*
X252362287Y-72372323D01*
X252245011Y-72428801D01*
X252149592Y-72517336D01*
X252084509Y-72630064D01*
X252055544Y-72756967D01*
X251488500Y-72756967D01*
X250169607Y-71438073D01*
X250169606Y-71438074D01*
X250108499Y-71539159D01*
X250108486Y-71539183D01*
X249975149Y-71835446D01*
X249975136Y-71835478D01*
X249878480Y-72145662D01*
X249819908Y-72465276D01*
X249800291Y-72789600D01*
X244012161Y-72789600D01*
X244065016Y-72523883D01*
X244084006Y-72234147D01*
X244065016Y-71944411D01*
X244008370Y-71659633D01*
X243915037Y-71384684D01*
X243866215Y-71285683D01*
X243786620Y-71124280D01*
X243786611Y-71124265D01*
X243765961Y-71093360D01*
X243625301Y-70882847D01*
X243520248Y-70763057D01*
X243433855Y-70664544D01*
X243376411Y-70614167D01*
X243338987Y-70555165D01*
X243339403Y-70485296D01*
X243377527Y-70426744D01*
X243441254Y-70398098D01*
X243458313Y-70396939D01*
X251026460Y-70406400D01*
X251093474Y-70426168D01*
X251113985Y-70442719D01*
X252490999Y-71819732D01*
X253864355Y-70446376D01*
X253925678Y-70412891D01*
X253952185Y-70410057D01*
X254229923Y-70410405D01*
X254229923Y-70410404D01*
X254229925Y-70410405D01*
X254230146Y-70410403D01*
X264559737Y-70423317D01*
X264559737Y-70423316D01*
X264559742Y-70423317D01*
X264574800Y-70422525D01*
X264586852Y-70421893D01*
X264621465Y-70418204D01*
X264626799Y-70417636D01*
X264626798Y-70417636D01*
X264645536Y-70414614D01*
X264680374Y-70408997D01*
X264815214Y-70358800D01*
X264876558Y-70325353D01*
X264899452Y-70308236D01*
X264964928Y-70283861D01*
X265033192Y-70298753D01*
X265082568Y-70348188D01*
X265097700Y-70407550D01*
X265097700Y-87838579D01*
X265078015Y-87905618D01*
X265025211Y-87951373D01*
X264973700Y-87962579D01*
X263875384Y-87962579D01*
X263731462Y-87962579D01*
X263731459Y-87962579D01*
X263731457Y-87962580D01*
X263705265Y-87970269D01*
X263687991Y-87974027D01*
X263660967Y-87977913D01*
X263660964Y-87977914D01*
X263636133Y-87989254D01*
X263619564Y-87995434D01*
X263606594Y-87999242D01*
X263593370Y-88003126D01*
X263593368Y-88003126D01*
X263593368Y-88003127D01*
X263570405Y-88017884D01*
X263554884Y-88026359D01*
X263530051Y-88037700D01*
X263530048Y-88037702D01*
X263509423Y-88055574D01*
X263495263Y-88066174D01*
X263472299Y-88080932D01*
X263472294Y-88080936D01*
X263454416Y-88101568D01*
X263441912Y-88114072D01*
X263421280Y-88131950D01*
X263421276Y-88131955D01*
X263406518Y-88154919D01*
X263395918Y-88169079D01*
X263378046Y-88189704D01*
X263378044Y-88189707D01*
X263366703Y-88214540D01*
X263358228Y-88230061D01*
X263343471Y-88253024D01*
X263335778Y-88279220D01*
X263329598Y-88295789D01*
X263318258Y-88320620D01*
X263318257Y-88320623D01*
X263314371Y-88347647D01*
X263310613Y-88364921D01*
X263302924Y-88391113D01*
X263302923Y-88391121D01*
X263302923Y-94895122D01*
X263302810Y-94898867D01*
X263284925Y-95194536D01*
X263284021Y-95201975D01*
X263230966Y-95491485D01*
X263229173Y-95498761D01*
X263141615Y-95779748D01*
X263138957Y-95786755D01*
X263018159Y-96055159D01*
X263014676Y-96061794D01*
X262862412Y-96313672D01*
X262858155Y-96319839D01*
X262676638Y-96551531D01*
X262671669Y-96557140D01*
X262463554Y-96765256D01*
X262457945Y-96770226D01*
X262226254Y-96951745D01*
X262220087Y-96956002D01*
X261968210Y-97108270D01*
X261961574Y-97111753D01*
X261693180Y-97232548D01*
X261686173Y-97235205D01*
X261405177Y-97322770D01*
X261397901Y-97324563D01*
X261108395Y-97377619D01*
X261100956Y-97378522D01*
X260805665Y-97396387D01*
X260801920Y-97396500D01*
X118600078Y-97396500D01*
X118596333Y-97396387D01*
X118300665Y-97378502D01*
X118293226Y-97377598D01*
X118003716Y-97324543D01*
X117996440Y-97322750D01*
X117903058Y-97293651D01*
X117715444Y-97235188D01*
X117708448Y-97232534D01*
X117440046Y-97111737D01*
X117433411Y-97108254D01*
X117181534Y-96955989D01*
X117175375Y-96951739D01*
X116943675Y-96770214D01*
X116938075Y-96765253D01*
X116729945Y-96557123D01*
X116724984Y-96551523D01*
X116543457Y-96319821D01*
X116539210Y-96313665D01*
X116386945Y-96061788D01*
X116383462Y-96055153D01*
X116359230Y-96001312D01*
X116276436Y-95817350D01*
X116262665Y-95786751D01*
X116260014Y-95779764D01*
X116172447Y-95498753D01*
X116170656Y-95491483D01*
X116117601Y-95201973D01*
X116116697Y-95194534D01*
X116110838Y-95097678D01*
X116098813Y-94898866D01*
X116098700Y-94895122D01*
X116098700Y-93897005D01*
X117105898Y-93897005D01*
X117125549Y-94209357D01*
X117125550Y-94209364D01*
X117184199Y-94516814D01*
X117280916Y-94814479D01*
X117280918Y-94814484D01*
X117414177Y-95097672D01*
X117414180Y-95097678D01*
X117581881Y-95361933D01*
X117581884Y-95361937D01*
X117581885Y-95361938D01*
X117622679Y-95411250D01*
X117781391Y-95603099D01*
X118009545Y-95817350D01*
X118009555Y-95817358D01*
X118262746Y-96001312D01*
X118262764Y-96001324D01*
X118537029Y-96152102D01*
X118537037Y-96152106D01*
X118828032Y-96267319D01*
X118828035Y-96267320D01*
X118929087Y-96293265D01*
X119131189Y-96345156D01*
X119283240Y-96364364D01*
X119441697Y-96384383D01*
X119441703Y-96384383D01*
X119441707Y-96384384D01*
X119441709Y-96384384D01*
X119754691Y-96384384D01*
X119754693Y-96384384D01*
X119754698Y-96384383D01*
X119754702Y-96384383D01*
X119837133Y-96373969D01*
X120065211Y-96345156D01*
X120368364Y-96267320D01*
X120368367Y-96267319D01*
X120659362Y-96152106D01*
X120659366Y-96152103D01*
X120659371Y-96152102D01*
X120933642Y-96001320D01*
X121186853Y-95817352D01*
X121415010Y-95603098D01*
X121614515Y-95361938D01*
X121782221Y-95097676D01*
X121915484Y-94814478D01*
X122012202Y-94516810D01*
X122070849Y-94209368D01*
X122070850Y-94209357D01*
X122090502Y-93897005D01*
X122090502Y-93896994D01*
X122070850Y-93584642D01*
X122070849Y-93584635D01*
X122070849Y-93584632D01*
X122012202Y-93277190D01*
X121915484Y-92979522D01*
X121782221Y-92696324D01*
X121680355Y-92535809D01*
X121614518Y-92432066D01*
X121415008Y-92190900D01*
X121186854Y-91976649D01*
X121186844Y-91976641D01*
X120933653Y-91792687D01*
X120933635Y-91792675D01*
X120659370Y-91641897D01*
X120659362Y-91641893D01*
X120368367Y-91526680D01*
X120368364Y-91526679D01*
X120065208Y-91448843D01*
X119754702Y-91409616D01*
X119754693Y-91409616D01*
X119441707Y-91409616D01*
X119441697Y-91409616D01*
X119131191Y-91448843D01*
X118828035Y-91526679D01*
X118828032Y-91526680D01*
X118537037Y-91641893D01*
X118537029Y-91641897D01*
X118262764Y-91792675D01*
X118262746Y-91792687D01*
X118009555Y-91976641D01*
X118009545Y-91976649D01*
X117781391Y-92190900D01*
X117581881Y-92432066D01*
X117414180Y-92696321D01*
X117414177Y-92696327D01*
X117280918Y-92979515D01*
X117280916Y-92979520D01*
X117184199Y-93277185D01*
X117125550Y-93584635D01*
X117125549Y-93584642D01*
X117105898Y-93896994D01*
X117105898Y-93897005D01*
X116098700Y-93897005D01*
X116098700Y-88979205D01*
X122638731Y-88979205D01*
X122769986Y-89045123D01*
X122769987Y-89045124D01*
X123093181Y-89162757D01*
X123427834Y-89242071D01*
X123769443Y-89281998D01*
X123769444Y-89281999D01*
X124113358Y-89281999D01*
X124113358Y-89281998D01*
X124454966Y-89242071D01*
X124454968Y-89242071D01*
X124789620Y-89162757D01*
X125112814Y-89045124D01*
X125112815Y-89045123D01*
X125244069Y-88979205D01*
X130838730Y-88979205D01*
X130969985Y-89045123D01*
X130969986Y-89045124D01*
X131293180Y-89162757D01*
X131627833Y-89242071D01*
X131969442Y-89281998D01*
X131969443Y-89281999D01*
X132313357Y-89281999D01*
X132313357Y-89281998D01*
X132654965Y-89242071D01*
X132654967Y-89242071D01*
X132989619Y-89162757D01*
X133312813Y-89045124D01*
X133312814Y-89045123D01*
X133444068Y-88979205D01*
X133444068Y-88979204D01*
X132141400Y-87676537D01*
X130838730Y-88979204D01*
X130838730Y-88979205D01*
X125244069Y-88979205D01*
X125244069Y-88979204D01*
X123941401Y-87676537D01*
X122638731Y-88979204D01*
X122638731Y-88979205D01*
X116098700Y-88979205D01*
X116098700Y-87665005D01*
X140277008Y-87665005D01*
X140553673Y-87793003D01*
X140887656Y-87905536D01*
X141231837Y-87981296D01*
X141582188Y-88019399D01*
X141582195Y-88019400D01*
X141934605Y-88019400D01*
X141934611Y-88019399D01*
X142284962Y-87981296D01*
X142629143Y-87905536D01*
X142963123Y-87793005D01*
X143239790Y-87665003D01*
X143048337Y-87473550D01*
X159581945Y-87473550D01*
X159583399Y-87501035D01*
X159584817Y-87514201D01*
X159587755Y-87541489D01*
X159587755Y-87541490D01*
X159596606Y-87595752D01*
X159596609Y-87595764D01*
X159647140Y-87730462D01*
X159647141Y-87730465D01*
X159647144Y-87730471D01*
X159664661Y-87762407D01*
X159678921Y-87788406D01*
X159679168Y-87788928D01*
X159680746Y-87791733D01*
X159680747Y-87791735D01*
X159767191Y-87906752D01*
X159884014Y-88023129D01*
X160702208Y-88838203D01*
X160722735Y-88856538D01*
X160754521Y-88881961D01*
X160754527Y-88881965D01*
X160754526Y-88881965D01*
X160763615Y-88888456D01*
X160799264Y-88913917D01*
X160799265Y-88913917D01*
X160799266Y-88913918D01*
X160842143Y-88933220D01*
X160930464Y-88972979D01*
X160997609Y-88992301D01*
X160997613Y-88992301D01*
X160997615Y-88992302D01*
X161036948Y-88997740D01*
X161140130Y-89012007D01*
X161140131Y-89012008D01*
X161140132Y-89012007D01*
X161140133Y-89012008D01*
X182048471Y-88898988D01*
X182115614Y-88918310D01*
X182161653Y-88970866D01*
X182171970Y-89039969D01*
X182143290Y-89103681D01*
X182139333Y-89108080D01*
X181990123Y-89266232D01*
X181990118Y-89266238D01*
X181788360Y-89537246D01*
X181619427Y-89829847D01*
X181619421Y-89829860D01*
X181485601Y-90140089D01*
X181388699Y-90463768D01*
X181388696Y-90463782D01*
X181330030Y-90796490D01*
X181330029Y-90796501D01*
X181310384Y-91133796D01*
X181310384Y-91133803D01*
X181330029Y-91471098D01*
X181330030Y-91471109D01*
X181388696Y-91803817D01*
X181388699Y-91803831D01*
X181485601Y-92127510D01*
X181619421Y-92437739D01*
X181619427Y-92437752D01*
X181788360Y-92730353D01*
X181990118Y-93001361D01*
X181990123Y-93001367D01*
X182109869Y-93128289D01*
X182221983Y-93247123D01*
X182221989Y-93247128D01*
X182221991Y-93247130D01*
X182480801Y-93464299D01*
X182480806Y-93464302D01*
X182763092Y-93649964D01*
X183065024Y-93801600D01*
X183382517Y-93917158D01*
X183711280Y-93995076D01*
X184046865Y-94034300D01*
X184046872Y-94034300D01*
X184384728Y-94034300D01*
X184384735Y-94034300D01*
X184720320Y-93995076D01*
X185049083Y-93917158D01*
X185366576Y-93801600D01*
X185668508Y-93649964D01*
X185950794Y-93464302D01*
X186209617Y-93247123D01*
X186441478Y-93001365D01*
X186643240Y-92730352D01*
X186812175Y-92437748D01*
X186945998Y-92127511D01*
X187042900Y-91803835D01*
X187101571Y-91471098D01*
X187121216Y-91133803D01*
X229610384Y-91133803D01*
X229630029Y-91471098D01*
X229630030Y-91471109D01*
X229688696Y-91803817D01*
X229688699Y-91803831D01*
X229785601Y-92127510D01*
X229919421Y-92437739D01*
X229919427Y-92437752D01*
X230088360Y-92730353D01*
X230290118Y-93001361D01*
X230290123Y-93001367D01*
X230409869Y-93128289D01*
X230521983Y-93247123D01*
X230521989Y-93247128D01*
X230521991Y-93247130D01*
X230780801Y-93464299D01*
X230780806Y-93464302D01*
X231063092Y-93649964D01*
X231365024Y-93801600D01*
X231682517Y-93917158D01*
X232011280Y-93995076D01*
X232346865Y-94034300D01*
X232346872Y-94034300D01*
X232684728Y-94034300D01*
X232684735Y-94034300D01*
X233020320Y-93995076D01*
X233349083Y-93917158D01*
X233666576Y-93801600D01*
X233968508Y-93649964D01*
X234250794Y-93464302D01*
X234456485Y-93291706D01*
X240448331Y-93291706D01*
X240579586Y-93357624D01*
X240579587Y-93357625D01*
X240902781Y-93475258D01*
X241237434Y-93554572D01*
X241579043Y-93594499D01*
X241579044Y-93594500D01*
X241922958Y-93594500D01*
X241922958Y-93594499D01*
X242264566Y-93554572D01*
X242264568Y-93554572D01*
X242599220Y-93475258D01*
X242922414Y-93357625D01*
X242922415Y-93357624D01*
X243053669Y-93291706D01*
X248648330Y-93291706D01*
X248779585Y-93357624D01*
X248779586Y-93357625D01*
X249102780Y-93475258D01*
X249437433Y-93554572D01*
X249779042Y-93594499D01*
X249779043Y-93594500D01*
X250122957Y-93594500D01*
X250122957Y-93594499D01*
X250464565Y-93554572D01*
X250464567Y-93554572D01*
X250799219Y-93475258D01*
X251122413Y-93357625D01*
X251122414Y-93357624D01*
X251253668Y-93291706D01*
X251253668Y-93291705D01*
X249951000Y-91989038D01*
X248648330Y-93291705D01*
X248648330Y-93291706D01*
X243053669Y-93291706D01*
X243053669Y-93291705D01*
X241751001Y-91989038D01*
X240448331Y-93291705D01*
X240448331Y-93291706D01*
X234456485Y-93291706D01*
X234509617Y-93247123D01*
X234741478Y-93001365D01*
X234943240Y-92730352D01*
X235112175Y-92437748D01*
X235245998Y-92127511D01*
X235342900Y-91803835D01*
X235401571Y-91471098D01*
X235421216Y-91133800D01*
X235401571Y-90796502D01*
X235374328Y-90642003D01*
X238793497Y-90642003D01*
X238813495Y-90985345D01*
X238813496Y-90985356D01*
X238873214Y-91324038D01*
X238873217Y-91324048D01*
X238971856Y-91653527D01*
X239098603Y-91947358D01*
X239098604Y-91947359D01*
X240319150Y-90726813D01*
X241052501Y-90726813D01*
X241093096Y-90891511D01*
X241171925Y-91041707D01*
X241284408Y-91168675D01*
X241424008Y-91265033D01*
X241582611Y-91325184D01*
X241708751Y-91340500D01*
X241793251Y-91340500D01*
X241919391Y-91325184D01*
X242077994Y-91265033D01*
X242217594Y-91168675D01*
X242330077Y-91041707D01*
X242408906Y-90891511D01*
X242449501Y-90726813D01*
X242449501Y-90642001D01*
X243098039Y-90642001D01*
X244403397Y-91947359D01*
X244530145Y-91653527D01*
X244628784Y-91324048D01*
X244628787Y-91324038D01*
X244688505Y-90985356D01*
X244688506Y-90985345D01*
X244708505Y-90642003D01*
X246993496Y-90642003D01*
X247013494Y-90985345D01*
X247013495Y-90985356D01*
X247073213Y-91324038D01*
X247073216Y-91324048D01*
X247171855Y-91653527D01*
X247298602Y-91947358D01*
X247298603Y-91947359D01*
X248519149Y-90726813D01*
X249252500Y-90726813D01*
X249293095Y-90891511D01*
X249371924Y-91041707D01*
X249484407Y-91168675D01*
X249624007Y-91265033D01*
X249782610Y-91325184D01*
X249908750Y-91340500D01*
X249993250Y-91340500D01*
X250119390Y-91325184D01*
X250277993Y-91265033D01*
X250417593Y-91168675D01*
X250530076Y-91041707D01*
X250608905Y-90891511D01*
X250649500Y-90726813D01*
X250649500Y-90642001D01*
X251298038Y-90642001D01*
X252603396Y-91947359D01*
X252730144Y-91653527D01*
X252828783Y-91324048D01*
X252828786Y-91324038D01*
X252888504Y-90985356D01*
X252888505Y-90985345D01*
X252908504Y-90642003D01*
X252908504Y-90641996D01*
X252888505Y-90298654D01*
X252888504Y-90298643D01*
X252828786Y-89959961D01*
X252828783Y-89959951D01*
X252730144Y-89630472D01*
X252603396Y-89336639D01*
X251298038Y-90641999D01*
X251298038Y-90642001D01*
X250649500Y-90642001D01*
X250649500Y-90557187D01*
X250608905Y-90392489D01*
X250530076Y-90242293D01*
X250417593Y-90115325D01*
X250277993Y-90018967D01*
X250119390Y-89958816D01*
X249993250Y-89943500D01*
X249908750Y-89943500D01*
X249782610Y-89958816D01*
X249624007Y-90018967D01*
X249484407Y-90115325D01*
X249371924Y-90242293D01*
X249293095Y-90392489D01*
X249252500Y-90557187D01*
X249252500Y-90726813D01*
X248519149Y-90726813D01*
X248603962Y-90642000D01*
X248603962Y-90641999D01*
X247298603Y-89336640D01*
X247298602Y-89336640D01*
X247171855Y-89630472D01*
X247073216Y-89959951D01*
X247073213Y-89959961D01*
X247013495Y-90298643D01*
X247013494Y-90298654D01*
X246993496Y-90641996D01*
X246993496Y-90642003D01*
X244708505Y-90642003D01*
X244708505Y-90641996D01*
X244688506Y-90298654D01*
X244688505Y-90298643D01*
X244628787Y-89959961D01*
X244628784Y-89959951D01*
X244530145Y-89630472D01*
X244403397Y-89336639D01*
X243098039Y-90641999D01*
X243098039Y-90642001D01*
X242449501Y-90642001D01*
X242449501Y-90557187D01*
X242408906Y-90392489D01*
X242330077Y-90242293D01*
X242217594Y-90115325D01*
X242077994Y-90018967D01*
X241919391Y-89958816D01*
X241793251Y-89943500D01*
X241708751Y-89943500D01*
X241582611Y-89958816D01*
X241424008Y-90018967D01*
X241284408Y-90115325D01*
X241171925Y-90242293D01*
X241093096Y-90392489D01*
X241052501Y-90557187D01*
X241052501Y-90726813D01*
X240319150Y-90726813D01*
X240403963Y-90642000D01*
X240403963Y-90641999D01*
X239098603Y-89336640D01*
X238971856Y-89630472D01*
X238873217Y-89959951D01*
X238873214Y-89959961D01*
X238813496Y-90298643D01*
X238813495Y-90298654D01*
X238793497Y-90641996D01*
X238793497Y-90642003D01*
X235374328Y-90642003D01*
X235342900Y-90463765D01*
X235245998Y-90140089D01*
X235112175Y-89829852D01*
X234943240Y-89537248D01*
X234793893Y-89336640D01*
X234741481Y-89266238D01*
X234741476Y-89266232D01*
X234532869Y-89045123D01*
X234509617Y-89020477D01*
X234509610Y-89020471D01*
X234509608Y-89020469D01*
X234250798Y-88803300D01*
X234068893Y-88683660D01*
X233968508Y-88617636D01*
X233944415Y-88605536D01*
X233666583Y-88466003D01*
X233666577Y-88466000D01*
X233349084Y-88350442D01*
X233349081Y-88350441D01*
X233084458Y-88287725D01*
X233020320Y-88272524D01*
X232684735Y-88233300D01*
X232346865Y-88233300D01*
X232011280Y-88272524D01*
X231682518Y-88350441D01*
X231682515Y-88350442D01*
X231365022Y-88466000D01*
X231365016Y-88466003D01*
X231063095Y-88617634D01*
X230780801Y-88803300D01*
X230521991Y-89020469D01*
X230521981Y-89020479D01*
X230290123Y-89266232D01*
X230290118Y-89266238D01*
X230088360Y-89537246D01*
X229919427Y-89829847D01*
X229919421Y-89829860D01*
X229785601Y-90140089D01*
X229688699Y-90463768D01*
X229688696Y-90463782D01*
X229630030Y-90796490D01*
X229630029Y-90796501D01*
X229610384Y-91133796D01*
X229610384Y-91133803D01*
X187121216Y-91133803D01*
X187121216Y-91133800D01*
X187101571Y-90796502D01*
X187042900Y-90463765D01*
X186945998Y-90140089D01*
X186812175Y-89829852D01*
X186643240Y-89537248D01*
X186493893Y-89336640D01*
X186441481Y-89266238D01*
X186441476Y-89266232D01*
X186270280Y-89084776D01*
X186238592Y-89022505D01*
X186245602Y-88952988D01*
X186289082Y-88898296D01*
X186355229Y-88875793D01*
X186359761Y-88875685D01*
X187244708Y-88870902D01*
X187271869Y-88869291D01*
X187271868Y-88869291D01*
X187271871Y-88869290D01*
X187271882Y-88869290D01*
X187311891Y-88864746D01*
X187311890Y-88864747D01*
X187331905Y-88861373D01*
X187365561Y-88855703D01*
X187500035Y-88804533D01*
X187561136Y-88770644D01*
X187675746Y-88683662D01*
X188210307Y-88142000D01*
X240598039Y-88142000D01*
X241751001Y-89294962D01*
X242903963Y-88142000D01*
X248798038Y-88142000D01*
X249951000Y-89294962D01*
X251103962Y-88142000D01*
X249951000Y-86989038D01*
X248798038Y-88142000D01*
X242903963Y-88142000D01*
X241751001Y-86989038D01*
X240598039Y-88142000D01*
X188210307Y-88142000D01*
X188605224Y-87741837D01*
X188615301Y-87730462D01*
X188623275Y-87721461D01*
X188623274Y-87721461D01*
X188623276Y-87721459D01*
X188648318Y-87689923D01*
X188679819Y-87645541D01*
X188738566Y-87514201D01*
X188738653Y-87513899D01*
X188751374Y-87469289D01*
X188757727Y-87447010D01*
X188777092Y-87304443D01*
X188772706Y-86741642D01*
X230722170Y-86741642D01*
X231020006Y-86893398D01*
X231379370Y-87031345D01*
X231751200Y-87130977D01*
X232131390Y-87191193D01*
X232515799Y-87211340D01*
X232515801Y-87211340D01*
X232900209Y-87191193D01*
X233280398Y-87130977D01*
X233280400Y-87130977D01*
X233652229Y-87031345D01*
X234011593Y-86893398D01*
X234309428Y-86741642D01*
X233209789Y-85642003D01*
X238793497Y-85642003D01*
X238813495Y-85985345D01*
X238813496Y-85985356D01*
X238873214Y-86324038D01*
X238873217Y-86324048D01*
X238971856Y-86653527D01*
X239098603Y-86947358D01*
X239098604Y-86947359D01*
X240319150Y-85726813D01*
X241052501Y-85726813D01*
X241093096Y-85891511D01*
X241171925Y-86041707D01*
X241284408Y-86168675D01*
X241424008Y-86265033D01*
X241582611Y-86325184D01*
X241708751Y-86340500D01*
X241793251Y-86340500D01*
X241919391Y-86325184D01*
X242077994Y-86265033D01*
X242217594Y-86168675D01*
X242330077Y-86041707D01*
X242408906Y-85891511D01*
X242449501Y-85726813D01*
X242449501Y-85642001D01*
X243098039Y-85642001D01*
X244403397Y-86947359D01*
X244530145Y-86653527D01*
X244628784Y-86324048D01*
X244628787Y-86324038D01*
X244688505Y-85985356D01*
X244688506Y-85985345D01*
X244708505Y-85642003D01*
X246993496Y-85642003D01*
X247013494Y-85985345D01*
X247013495Y-85985356D01*
X247073213Y-86324038D01*
X247073216Y-86324048D01*
X247171855Y-86653527D01*
X247298602Y-86947358D01*
X247298603Y-86947359D01*
X248519149Y-85726813D01*
X249252500Y-85726813D01*
X249293095Y-85891511D01*
X249371924Y-86041707D01*
X249484407Y-86168675D01*
X249624007Y-86265033D01*
X249782610Y-86325184D01*
X249908750Y-86340500D01*
X249993250Y-86340500D01*
X250119390Y-86325184D01*
X250277993Y-86265033D01*
X250417593Y-86168675D01*
X250530076Y-86041707D01*
X250608905Y-85891511D01*
X250649500Y-85726813D01*
X250649500Y-85642001D01*
X251298038Y-85642001D01*
X252603396Y-86947359D01*
X252730144Y-86653527D01*
X252828783Y-86324048D01*
X252828786Y-86324038D01*
X252888504Y-85985356D01*
X252888505Y-85985345D01*
X252908504Y-85642003D01*
X252908504Y-85641996D01*
X252888505Y-85298654D01*
X252888504Y-85298643D01*
X252828786Y-84959961D01*
X252828783Y-84959951D01*
X252730144Y-84630472D01*
X252603396Y-84336639D01*
X251298038Y-85641999D01*
X251298038Y-85642001D01*
X250649500Y-85642001D01*
X250649500Y-85557187D01*
X250608905Y-85392489D01*
X250530076Y-85242293D01*
X250417593Y-85115325D01*
X250277993Y-85018967D01*
X250119390Y-84958816D01*
X249993250Y-84943500D01*
X249908750Y-84943500D01*
X249782610Y-84958816D01*
X249624007Y-85018967D01*
X249484407Y-85115325D01*
X249371924Y-85242293D01*
X249293095Y-85392489D01*
X249252500Y-85557187D01*
X249252500Y-85726813D01*
X248519149Y-85726813D01*
X248603962Y-85642000D01*
X248603962Y-85641999D01*
X247298603Y-84336640D01*
X247298602Y-84336640D01*
X247171855Y-84630472D01*
X247073216Y-84959951D01*
X247073213Y-84959961D01*
X247013495Y-85298643D01*
X247013494Y-85298654D01*
X246993496Y-85641996D01*
X246993496Y-85642003D01*
X244708505Y-85642003D01*
X244708505Y-85641996D01*
X244688506Y-85298654D01*
X244688505Y-85298643D01*
X244628787Y-84959961D01*
X244628784Y-84959951D01*
X244530145Y-84630472D01*
X244403397Y-84336639D01*
X243098039Y-85641999D01*
X243098039Y-85642001D01*
X242449501Y-85642001D01*
X242449501Y-85557187D01*
X242408906Y-85392489D01*
X242330077Y-85242293D01*
X242217594Y-85115325D01*
X242077994Y-85018967D01*
X241919391Y-84958816D01*
X241793251Y-84943500D01*
X241708751Y-84943500D01*
X241582611Y-84958816D01*
X241424008Y-85018967D01*
X241284408Y-85115325D01*
X241171925Y-85242293D01*
X241093096Y-85392489D01*
X241052501Y-85557187D01*
X241052501Y-85726813D01*
X240319150Y-85726813D01*
X240403963Y-85642000D01*
X240403963Y-85641999D01*
X239098603Y-84336640D01*
X238971856Y-84630472D01*
X238873217Y-84959951D01*
X238873214Y-84959961D01*
X238813496Y-85298643D01*
X238813495Y-85298654D01*
X238793497Y-85641996D01*
X238793497Y-85642003D01*
X233209789Y-85642003D01*
X232515800Y-84948014D01*
X230722170Y-86741642D01*
X188772706Y-86741642D01*
X188767987Y-86136034D01*
X188747710Y-83533799D01*
X228838260Y-83533799D01*
X228858406Y-83918209D01*
X228918622Y-84298398D01*
X228918622Y-84298400D01*
X229018254Y-84670229D01*
X229156201Y-85029593D01*
X229307956Y-85327428D01*
X231101586Y-83533800D01*
X231048291Y-83480505D01*
X231396997Y-83480505D01*
X231407129Y-83693203D01*
X231457331Y-83900140D01*
X231545789Y-84093836D01*
X231669306Y-84267291D01*
X231823417Y-84414236D01*
X232002553Y-84529360D01*
X232200239Y-84608501D01*
X232409330Y-84648800D01*
X232568917Y-84648800D01*
X232727775Y-84633631D01*
X232932089Y-84573639D01*
X233121357Y-84476065D01*
X233288738Y-84344434D01*
X233428184Y-84183506D01*
X233534653Y-83999095D01*
X233604299Y-83797867D01*
X233634603Y-83587095D01*
X233632064Y-83533800D01*
X233930014Y-83533800D01*
X235723642Y-85327428D01*
X235875398Y-85029593D01*
X236013345Y-84670229D01*
X236112977Y-84298400D01*
X236112977Y-84298398D01*
X236173193Y-83918209D01*
X236193340Y-83533799D01*
X236173193Y-83149390D01*
X236148311Y-82992293D01*
X240448332Y-82992293D01*
X241751001Y-84294962D01*
X241751002Y-84294962D01*
X243053668Y-82992293D01*
X248648331Y-82992293D01*
X249951000Y-84294962D01*
X249951001Y-84294962D01*
X251253667Y-82992293D01*
X251122403Y-82926370D01*
X250799219Y-82808741D01*
X250464566Y-82729427D01*
X250122957Y-82689500D01*
X249779043Y-82689500D01*
X249437434Y-82729427D01*
X249437432Y-82729427D01*
X249102780Y-82808741D01*
X248779592Y-82926372D01*
X248648331Y-82992293D01*
X243053668Y-82992293D01*
X242922404Y-82926370D01*
X242599220Y-82808741D01*
X242264567Y-82729427D01*
X241922958Y-82689500D01*
X241579044Y-82689500D01*
X241237435Y-82729427D01*
X241237433Y-82729427D01*
X240902781Y-82808741D01*
X240579593Y-82926372D01*
X240448332Y-82992293D01*
X236148311Y-82992293D01*
X236112977Y-82769201D01*
X236112977Y-82769199D01*
X236013345Y-82397370D01*
X235875398Y-82038006D01*
X235723642Y-81740170D01*
X233930014Y-83533799D01*
X233930014Y-83533800D01*
X233632064Y-83533800D01*
X233624471Y-83374397D01*
X233574269Y-83167460D01*
X233485811Y-82973764D01*
X233362294Y-82800309D01*
X233208183Y-82653364D01*
X233029047Y-82538240D01*
X232831361Y-82459099D01*
X232622270Y-82418800D01*
X232462683Y-82418800D01*
X232303825Y-82433969D01*
X232099511Y-82493961D01*
X231910243Y-82591535D01*
X231742862Y-82723166D01*
X231603416Y-82884094D01*
X231496947Y-83068505D01*
X231427301Y-83269733D01*
X231396997Y-83480505D01*
X231048291Y-83480505D01*
X229307955Y-81740169D01*
X229156201Y-82038006D01*
X229018254Y-82397370D01*
X228918622Y-82769199D01*
X228918622Y-82769201D01*
X228858406Y-83149390D01*
X228838260Y-83533799D01*
X188747710Y-83533799D01*
X188722714Y-80325955D01*
X230722169Y-80325955D01*
X232515800Y-82119586D01*
X232515801Y-82119586D01*
X234309428Y-80325956D01*
X234011593Y-80174201D01*
X233652229Y-80036254D01*
X233280399Y-79936622D01*
X232900209Y-79876406D01*
X232515801Y-79856260D01*
X232515799Y-79856260D01*
X232131390Y-79876406D01*
X231751201Y-79936622D01*
X231751199Y-79936622D01*
X231379370Y-80036254D01*
X231020006Y-80174201D01*
X230722169Y-80325955D01*
X188722714Y-80325955D01*
X188717171Y-79614620D01*
X188717171Y-79614621D01*
X188715568Y-79588093D01*
X188711138Y-79549025D01*
X188702382Y-79496606D01*
X188651575Y-79361994D01*
X188631241Y-79325099D01*
X188617856Y-79300810D01*
X188617852Y-79300804D01*
X188617851Y-79300802D01*
X188531180Y-79185960D01*
X188531177Y-79185956D01*
X187586477Y-78248589D01*
X187586476Y-78248589D01*
X187586469Y-78248582D01*
X187566637Y-78230873D01*
X187535970Y-78206258D01*
X187492856Y-78175233D01*
X187492854Y-78175232D01*
X187361982Y-78115463D01*
X187294945Y-78095778D01*
X187294939Y-78095776D01*
X187209486Y-78083490D01*
X187152520Y-78075300D01*
X187152518Y-78075300D01*
X173468340Y-78075300D01*
X173415873Y-78063653D01*
X172027164Y-77415147D01*
X171984553Y-77382394D01*
X170082915Y-75110992D01*
X251139473Y-75110992D01*
X251240571Y-75172107D01*
X251536849Y-75305452D01*
X251536878Y-75305463D01*
X251847062Y-75402119D01*
X252166676Y-75460691D01*
X252491000Y-75480308D01*
X252815323Y-75460691D01*
X253134937Y-75402119D01*
X253445121Y-75305463D01*
X253445150Y-75305452D01*
X253741428Y-75172107D01*
X253842525Y-75110992D01*
X252491000Y-73759467D01*
X251139473Y-75110992D01*
X170082915Y-75110992D01*
X169771669Y-74739226D01*
X169750202Y-74701972D01*
X169253090Y-73333805D01*
X182795449Y-73333805D01*
X182814819Y-73567573D01*
X182814821Y-73567585D01*
X182872407Y-73794987D01*
X182966638Y-74009811D01*
X183094940Y-74206195D01*
X183094943Y-74206198D01*
X183253822Y-74378786D01*
X183438942Y-74522870D01*
X183645252Y-74634520D01*
X183760462Y-74674072D01*
X183867120Y-74710688D01*
X183867122Y-74710688D01*
X183867124Y-74710689D01*
X184098508Y-74749300D01*
X184098509Y-74749300D01*
X184333091Y-74749300D01*
X184333092Y-74749300D01*
X184564476Y-74710689D01*
X184786348Y-74634520D01*
X184992658Y-74522870D01*
X185177778Y-74378786D01*
X185336657Y-74206198D01*
X185464961Y-74009812D01*
X185559192Y-73794987D01*
X185616779Y-73567582D01*
X185626676Y-73448147D01*
X185636151Y-73333805D01*
X231095449Y-73333805D01*
X231114819Y-73567573D01*
X231114821Y-73567585D01*
X231172407Y-73794987D01*
X231266638Y-74009811D01*
X231394940Y-74206195D01*
X231394943Y-74206198D01*
X231553822Y-74378786D01*
X231738942Y-74522870D01*
X231945252Y-74634520D01*
X232060462Y-74674072D01*
X232167120Y-74710688D01*
X232167122Y-74710688D01*
X232167124Y-74710689D01*
X232398508Y-74749300D01*
X232398509Y-74749300D01*
X232633091Y-74749300D01*
X232633092Y-74749300D01*
X232864476Y-74710689D01*
X233086348Y-74634520D01*
X233292658Y-74522870D01*
X233477778Y-74378786D01*
X233636657Y-74206198D01*
X233764961Y-74009812D01*
X233859192Y-73794987D01*
X233916779Y-73567582D01*
X233926676Y-73448147D01*
X233936151Y-73333805D01*
X233936151Y-73333794D01*
X233916780Y-73100026D01*
X233916778Y-73100014D01*
X233859192Y-72872612D01*
X233764961Y-72657788D01*
X233636659Y-72461404D01*
X233606646Y-72428801D01*
X233477778Y-72288814D01*
X233334760Y-72177499D01*
X233292660Y-72144731D01*
X233086348Y-72033080D01*
X233086340Y-72033077D01*
X232864479Y-71956911D01*
X232690938Y-71927952D01*
X232633092Y-71918300D01*
X232398508Y-71918300D01*
X232352231Y-71926022D01*
X232167120Y-71956911D01*
X231945259Y-72033077D01*
X231945251Y-72033080D01*
X231738939Y-72144731D01*
X231624058Y-72234147D01*
X231553822Y-72288814D01*
X231553819Y-72288816D01*
X231553819Y-72288817D01*
X231394940Y-72461404D01*
X231266638Y-72657788D01*
X231172407Y-72872612D01*
X231114821Y-73100014D01*
X231114819Y-73100026D01*
X231095449Y-73333794D01*
X231095449Y-73333805D01*
X185636151Y-73333805D01*
X185636151Y-73333794D01*
X185616780Y-73100026D01*
X185616778Y-73100014D01*
X185559192Y-72872612D01*
X185464961Y-72657788D01*
X185336659Y-72461404D01*
X185306646Y-72428801D01*
X185177778Y-72288814D01*
X185034760Y-72177499D01*
X184992660Y-72144731D01*
X184786348Y-72033080D01*
X184786340Y-72033077D01*
X184564479Y-71956911D01*
X184390938Y-71927952D01*
X184333092Y-71918300D01*
X184098508Y-71918300D01*
X184052231Y-71926022D01*
X183867120Y-71956911D01*
X183645259Y-72033077D01*
X183645251Y-72033080D01*
X183438939Y-72144731D01*
X183324058Y-72234147D01*
X183253822Y-72288814D01*
X183253819Y-72288816D01*
X183253819Y-72288817D01*
X183094940Y-72461404D01*
X182966638Y-72657788D01*
X182872407Y-72872612D01*
X182814821Y-73100014D01*
X182814819Y-73100026D01*
X182795449Y-73333794D01*
X182795449Y-73333805D01*
X169253090Y-73333805D01*
X169183955Y-73143530D01*
X169176500Y-73101184D01*
X169176500Y-67615960D01*
X169196185Y-67548921D01*
X169248989Y-67503166D01*
X169318147Y-67493222D01*
X169381703Y-67522247D01*
X169388174Y-67528273D01*
X169541619Y-67681718D01*
X169670765Y-67810864D01*
X170036277Y-68176376D01*
X170069486Y-68236461D01*
X170080980Y-68286816D01*
X170176832Y-68531043D01*
X170308014Y-68758257D01*
X170387345Y-68857735D01*
X170471598Y-68963385D01*
X170603259Y-69085547D01*
X170663921Y-69141833D01*
X170880696Y-69289628D01*
X170880701Y-69289630D01*
X170880702Y-69289631D01*
X170880703Y-69289632D01*
X171081735Y-69386443D01*
X171117077Y-69403463D01*
X171117085Y-69403465D01*
X171117089Y-69403467D01*
X171192086Y-69426599D01*
X171299229Y-69459648D01*
X171350360Y-69490458D01*
X172830288Y-70970386D01*
X172847024Y-70993611D01*
X172847457Y-70993311D01*
X172852506Y-71000594D01*
X172852508Y-71000596D01*
X172852509Y-71000598D01*
X172950479Y-71105970D01*
X173002285Y-71147777D01*
X173002911Y-71148339D01*
X173004853Y-71149849D01*
X173004854Y-71149850D01*
X173128543Y-71223353D01*
X173148976Y-71231833D01*
X173174512Y-71240860D01*
X173179531Y-71242337D01*
X173197887Y-71247741D01*
X173197893Y-71247742D01*
X173197896Y-71247743D01*
X173339947Y-71268312D01*
X187317490Y-71287104D01*
X187317491Y-71287104D01*
X187344607Y-71285683D01*
X187344606Y-71285683D01*
X187384570Y-71281427D01*
X187438152Y-71272790D01*
X187438153Y-71272789D01*
X187438156Y-71272789D01*
X187572998Y-71222598D01*
X187634343Y-71189154D01*
X187749580Y-71103009D01*
X188686434Y-70167414D01*
X188704597Y-70147215D01*
X188729815Y-70115941D01*
X188761567Y-70071925D01*
X188821338Y-69941048D01*
X188841023Y-69874009D01*
X188841024Y-69874005D01*
X188861500Y-69731589D01*
X188861500Y-44769823D01*
X188860051Y-44742784D01*
X188855769Y-44702964D01*
X188847114Y-44649552D01*
X188796832Y-44514743D01*
X188763347Y-44453420D01*
X188677123Y-44338239D01*
X188677117Y-44338233D01*
X188677113Y-44338228D01*
X187740181Y-43401296D01*
X187740180Y-43401296D01*
X187720044Y-43383209D01*
X187720045Y-43383209D01*
X187688861Y-43358080D01*
X187644974Y-43326433D01*
X187514100Y-43266663D01*
X187447063Y-43246978D01*
X187447057Y-43246976D01*
X187361604Y-43234690D01*
X187304638Y-43226500D01*
X187304636Y-43226500D01*
X185441961Y-43226500D01*
X185374922Y-43206815D01*
X185329167Y-43154011D01*
X185319223Y-43084853D01*
X185348248Y-43021297D01*
X185386310Y-42991690D01*
X185510290Y-42929423D01*
X185668508Y-42849964D01*
X185950794Y-42664302D01*
X186209617Y-42447123D01*
X186441478Y-42201365D01*
X186643240Y-41930352D01*
X186812175Y-41637748D01*
X186945998Y-41327511D01*
X187042900Y-41003835D01*
X187101571Y-40671098D01*
X187118293Y-40383971D01*
X187121216Y-40333803D01*
X187121216Y-40333796D01*
X187114510Y-40218662D01*
X187101571Y-39996502D01*
X187086371Y-39910302D01*
X187042903Y-39663782D01*
X187042902Y-39663781D01*
X187042900Y-39663765D01*
X186945998Y-39340089D01*
X186812175Y-39029852D01*
X186643240Y-38737248D01*
X186643239Y-38737246D01*
X186441481Y-38466238D01*
X186441476Y-38466232D01*
X186329364Y-38347401D01*
X186209617Y-38220477D01*
X186209610Y-38220471D01*
X186209608Y-38220469D01*
X185950798Y-38003300D01*
X185756094Y-37875242D01*
X185668508Y-37817636D01*
X185661105Y-37813918D01*
X185366583Y-37666003D01*
X185366577Y-37666000D01*
X185049084Y-37550442D01*
X185049081Y-37550441D01*
X184822439Y-37496726D01*
X184720320Y-37472524D01*
X184384735Y-37433300D01*
X184046865Y-37433300D01*
X183711280Y-37472524D01*
X183382518Y-37550441D01*
X183382515Y-37550442D01*
X183065022Y-37666000D01*
X183065016Y-37666003D01*
X182763095Y-37817634D01*
X182480801Y-38003300D01*
X182221991Y-38220469D01*
X182221981Y-38220479D01*
X181990123Y-38466232D01*
X181990118Y-38466238D01*
X181788360Y-38737246D01*
X181619427Y-39029847D01*
X181619421Y-39029860D01*
X181485601Y-39340089D01*
X181388699Y-39663768D01*
X181388696Y-39663782D01*
X181330030Y-39996490D01*
X181330029Y-39996501D01*
X181310384Y-40333796D01*
X181310384Y-40333803D01*
X181330029Y-40671098D01*
X181330030Y-40671109D01*
X181388696Y-41003817D01*
X181388699Y-41003831D01*
X181485601Y-41327510D01*
X181619421Y-41637739D01*
X181619427Y-41637752D01*
X181788360Y-41930353D01*
X181990118Y-42201361D01*
X181990123Y-42201367D01*
X182109869Y-42328289D01*
X182221983Y-42447123D01*
X182221989Y-42447128D01*
X182221991Y-42447130D01*
X182480801Y-42664299D01*
X182480806Y-42664302D01*
X182763092Y-42849964D01*
X182873310Y-42905317D01*
X183045290Y-42991690D01*
X183096364Y-43039368D01*
X183113554Y-43107090D01*
X183091401Y-43173355D01*
X183036940Y-43217124D01*
X182989639Y-43226500D01*
X182464208Y-43226500D01*
X182428275Y-43221179D01*
X180774645Y-42720500D01*
X180741795Y-42704995D01*
X177850336Y-40777356D01*
X177823934Y-40762401D01*
X177786503Y-40741199D01*
X177786495Y-40741195D01*
X177786493Y-40741194D01*
X177754064Y-40725819D01*
X177685664Y-40699283D01*
X177685663Y-40699283D01*
X177685655Y-40699280D01*
X175888318Y-40148335D01*
X175816781Y-40131977D01*
X175781295Y-40126536D01*
X175708160Y-40120709D01*
X173027727Y-40102273D01*
X170347302Y-40083838D01*
X170347301Y-40083838D01*
X170347300Y-40083838D01*
X170347295Y-40083838D01*
X170328969Y-40084710D01*
X170319803Y-40085146D01*
X170319805Y-40085146D01*
X170305199Y-40086640D01*
X170279332Y-40089288D01*
X170279328Y-40089288D01*
X170279324Y-40089289D01*
X170279323Y-40089289D01*
X170225045Y-40097847D01*
X170191137Y-40110361D01*
X170090065Y-40147662D01*
X170090061Y-40147664D01*
X170090056Y-40147666D01*
X170047077Y-40170942D01*
X170028629Y-40180934D01*
X170028624Y-40180937D01*
X170004352Y-40198977D01*
X169913141Y-40266768D01*
X169152671Y-41022027D01*
X169091233Y-41055301D01*
X169021559Y-41050077D01*
X168977611Y-41021726D01*
X168055181Y-40099296D01*
X168055180Y-40099296D01*
X168044039Y-40089289D01*
X168035044Y-40081209D01*
X168035045Y-40081209D01*
X168003861Y-40056080D01*
X167959974Y-40024433D01*
X167829100Y-39964663D01*
X167762063Y-39944978D01*
X167762057Y-39944976D01*
X167676604Y-39932690D01*
X167619638Y-39924500D01*
X161199818Y-39924500D01*
X161199815Y-39924500D01*
X161194981Y-39924758D01*
X161172880Y-39925939D01*
X161151496Y-39928229D01*
X161133204Y-39930188D01*
X161133205Y-39930188D01*
X161079990Y-39938779D01*
X161079987Y-39938779D01*
X161079987Y-39938780D01*
X161063329Y-39944978D01*
X160945134Y-39988954D01*
X160883795Y-40022385D01*
X160883786Y-40022389D01*
X160768534Y-40108523D01*
X159830014Y-41045556D01*
X159830014Y-41045555D01*
X159830006Y-41045564D01*
X159811951Y-41065625D01*
X159811946Y-41065631D01*
X159811946Y-41065630D01*
X159786872Y-41096674D01*
X159786872Y-41096675D01*
X159755309Y-41140318D01*
X159695329Y-41271103D01*
X159695325Y-41271113D01*
X159675539Y-41338102D01*
X159675535Y-41338119D01*
X159665750Y-41405420D01*
X159656834Y-41466747D01*
X159654834Y-41480500D01*
X159654833Y-41480501D01*
X159648734Y-45329253D01*
X159647161Y-46321999D01*
X159647160Y-46322799D01*
X159593274Y-80325154D01*
X159593000Y-80498023D01*
X159590821Y-81872994D01*
X159590490Y-82082074D01*
X159588189Y-83533799D01*
X159586232Y-84768601D01*
X159586231Y-84769397D01*
X159583378Y-86569575D01*
X159581972Y-87456724D01*
X159581945Y-87473550D01*
X143048337Y-87473550D01*
X141758400Y-86183613D01*
X140277008Y-87665003D01*
X140277008Y-87665005D01*
X116098700Y-87665005D01*
X116098700Y-86329502D01*
X120983897Y-86329502D01*
X121003895Y-86672844D01*
X121003896Y-86672855D01*
X121063614Y-87011537D01*
X121063617Y-87011547D01*
X121162256Y-87341026D01*
X121289003Y-87634857D01*
X121289004Y-87634858D01*
X122509550Y-86414312D01*
X123242901Y-86414312D01*
X123283496Y-86579010D01*
X123362325Y-86729206D01*
X123474808Y-86856174D01*
X123614408Y-86952532D01*
X123773011Y-87012683D01*
X123899151Y-87027999D01*
X123983651Y-87027999D01*
X124109791Y-87012683D01*
X124268394Y-86952532D01*
X124407994Y-86856174D01*
X124520477Y-86729206D01*
X124599306Y-86579010D01*
X124639901Y-86414312D01*
X124639901Y-86329500D01*
X125288439Y-86329500D01*
X126593797Y-87634858D01*
X126720545Y-87341026D01*
X126819184Y-87011547D01*
X126819187Y-87011537D01*
X126878905Y-86672855D01*
X126878906Y-86672844D01*
X126898905Y-86329502D01*
X129183896Y-86329502D01*
X129203894Y-86672844D01*
X129203895Y-86672855D01*
X129263613Y-87011537D01*
X129263616Y-87011547D01*
X129362255Y-87341026D01*
X129489002Y-87634857D01*
X129489003Y-87634858D01*
X130709549Y-86414312D01*
X131442900Y-86414312D01*
X131483495Y-86579010D01*
X131562324Y-86729206D01*
X131674807Y-86856174D01*
X131814407Y-86952532D01*
X131973010Y-87012683D01*
X132099150Y-87027999D01*
X132183650Y-87027999D01*
X132309790Y-87012683D01*
X132468393Y-86952532D01*
X132607993Y-86856174D01*
X132720476Y-86729206D01*
X132799305Y-86579010D01*
X132839900Y-86414312D01*
X132839900Y-86329500D01*
X133488438Y-86329500D01*
X134793796Y-87634858D01*
X134920544Y-87341026D01*
X135019183Y-87011547D01*
X135019186Y-87011537D01*
X135078904Y-86672855D01*
X135078905Y-86672844D01*
X135098904Y-86329502D01*
X135098904Y-86329495D01*
X135078905Y-85986153D01*
X135078904Y-85986142D01*
X135019186Y-85647460D01*
X135019183Y-85647450D01*
X134920544Y-85317971D01*
X134793796Y-85024138D01*
X133488438Y-86329498D01*
X133488438Y-86329500D01*
X132839900Y-86329500D01*
X132839900Y-86244686D01*
X132799305Y-86079988D01*
X132720476Y-85929792D01*
X132607993Y-85802824D01*
X132468393Y-85706466D01*
X132309790Y-85646315D01*
X132183650Y-85630999D01*
X132099150Y-85630999D01*
X131973010Y-85646315D01*
X131814407Y-85706466D01*
X131674807Y-85802824D01*
X131562324Y-85929792D01*
X131483495Y-86079988D01*
X131442900Y-86244686D01*
X131442900Y-86414312D01*
X130709549Y-86414312D01*
X130794362Y-86329499D01*
X130794362Y-86329498D01*
X129489003Y-85024139D01*
X129489002Y-85024139D01*
X129362255Y-85317971D01*
X129263616Y-85647450D01*
X129263613Y-85647460D01*
X129203895Y-85986142D01*
X129203894Y-85986153D01*
X129183896Y-86329495D01*
X129183896Y-86329502D01*
X126898905Y-86329502D01*
X126898905Y-86329495D01*
X126878906Y-85986153D01*
X126878905Y-85986142D01*
X126819187Y-85647460D01*
X126819184Y-85647450D01*
X126720545Y-85317971D01*
X126593797Y-85024138D01*
X125288439Y-86329498D01*
X125288439Y-86329500D01*
X124639901Y-86329500D01*
X124639901Y-86244686D01*
X124599306Y-86079988D01*
X124520477Y-85929792D01*
X124407994Y-85802824D01*
X124268394Y-85706466D01*
X124109791Y-85646315D01*
X123983651Y-85630999D01*
X123899151Y-85630999D01*
X123773011Y-85646315D01*
X123614408Y-85706466D01*
X123474808Y-85802824D01*
X123362325Y-85929792D01*
X123283496Y-86079988D01*
X123242901Y-86244686D01*
X123242901Y-86414312D01*
X122509550Y-86414312D01*
X122594363Y-86329499D01*
X122594363Y-86329498D01*
X121289004Y-85024139D01*
X121289003Y-85024139D01*
X121162256Y-85317971D01*
X121063617Y-85647450D01*
X121063614Y-85647460D01*
X121003896Y-85986142D01*
X121003895Y-85986153D01*
X120983897Y-86329495D01*
X120983897Y-86329502D01*
X116098700Y-86329502D01*
X116098700Y-83829499D01*
X122788439Y-83829499D01*
X123941401Y-84982461D01*
X125094363Y-83829499D01*
X130988438Y-83829499D01*
X132141400Y-84982461D01*
X132354464Y-84769397D01*
X138503627Y-84769397D01*
X138522706Y-85121300D01*
X138522708Y-85121317D01*
X138579719Y-85469067D01*
X138579725Y-85469093D01*
X138674000Y-85808643D01*
X138674002Y-85808650D01*
X138804443Y-86136034D01*
X138804452Y-86136052D01*
X138864420Y-86249165D01*
X140249592Y-84863994D01*
X140858400Y-84863994D01*
X140897735Y-85049047D01*
X140974684Y-85221878D01*
X141085886Y-85374934D01*
X141226480Y-85501526D01*
X141390321Y-85596119D01*
X141570249Y-85654582D01*
X141711236Y-85669400D01*
X141805564Y-85669400D01*
X141946551Y-85654582D01*
X142126479Y-85596119D01*
X142290320Y-85501526D01*
X142430914Y-85374934D01*
X142542116Y-85221879D01*
X142619065Y-85049047D01*
X142658400Y-84863994D01*
X142658400Y-84769400D01*
X143172613Y-84769400D01*
X144652378Y-86249165D01*
X144712348Y-86136052D01*
X144712356Y-86136034D01*
X144842797Y-85808650D01*
X144842799Y-85808643D01*
X144937074Y-85469093D01*
X144937080Y-85469067D01*
X144994091Y-85121317D01*
X144994093Y-85121300D01*
X145013173Y-84769397D01*
X144994093Y-84417499D01*
X144994091Y-84417482D01*
X144937080Y-84069732D01*
X144937074Y-84069706D01*
X144842799Y-83730156D01*
X144842797Y-83730149D01*
X144712356Y-83402765D01*
X144712347Y-83402747D01*
X144652378Y-83289633D01*
X143172613Y-84769399D01*
X143172613Y-84769400D01*
X142658400Y-84769400D01*
X142658400Y-84674806D01*
X142619065Y-84489753D01*
X142542116Y-84316922D01*
X142430914Y-84163866D01*
X142290320Y-84037274D01*
X142126479Y-83942681D01*
X141946551Y-83884218D01*
X141805564Y-83869400D01*
X141711236Y-83869400D01*
X141570249Y-83884218D01*
X141390321Y-83942681D01*
X141226480Y-84037274D01*
X141085886Y-84163866D01*
X140974684Y-84316921D01*
X140897735Y-84489753D01*
X140858400Y-84674806D01*
X140858400Y-84863994D01*
X140249592Y-84863994D01*
X140344186Y-84769400D01*
X140344186Y-84769399D01*
X138864421Y-83289634D01*
X138864420Y-83289634D01*
X138804448Y-83402754D01*
X138804443Y-83402765D01*
X138674002Y-83730149D01*
X138674000Y-83730156D01*
X138579725Y-84069706D01*
X138579719Y-84069732D01*
X138522708Y-84417482D01*
X138522706Y-84417499D01*
X138503627Y-84769397D01*
X132354464Y-84769397D01*
X133294362Y-83829499D01*
X132141400Y-82676537D01*
X130988438Y-83829499D01*
X125094363Y-83829499D01*
X123941401Y-82676537D01*
X122788439Y-83829499D01*
X116098700Y-83829499D01*
X116098700Y-81329502D01*
X120983897Y-81329502D01*
X121003895Y-81672844D01*
X121003896Y-81672855D01*
X121063614Y-82011537D01*
X121063617Y-82011547D01*
X121162256Y-82341026D01*
X121289003Y-82634857D01*
X121289004Y-82634858D01*
X122509550Y-81414312D01*
X123242901Y-81414312D01*
X123283496Y-81579010D01*
X123362325Y-81729206D01*
X123474808Y-81856174D01*
X123614408Y-81952532D01*
X123773011Y-82012683D01*
X123899151Y-82027999D01*
X123983651Y-82027999D01*
X124109791Y-82012683D01*
X124268394Y-81952532D01*
X124407994Y-81856174D01*
X124520477Y-81729206D01*
X124599306Y-81579010D01*
X124639901Y-81414312D01*
X124639901Y-81329500D01*
X125288439Y-81329500D01*
X126593797Y-82634858D01*
X126720545Y-82341026D01*
X126819184Y-82011547D01*
X126819187Y-82011537D01*
X126878905Y-81672855D01*
X126878906Y-81672844D01*
X126898905Y-81329502D01*
X129183896Y-81329502D01*
X129203894Y-81672844D01*
X129203895Y-81672855D01*
X129263613Y-82011537D01*
X129263616Y-82011547D01*
X129362255Y-82341026D01*
X129489002Y-82634857D01*
X129489003Y-82634858D01*
X130709549Y-81414312D01*
X131442900Y-81414312D01*
X131483495Y-81579010D01*
X131562324Y-81729206D01*
X131674807Y-81856174D01*
X131814407Y-81952532D01*
X131973010Y-82012683D01*
X132099150Y-82027999D01*
X132183650Y-82027999D01*
X132309790Y-82012683D01*
X132468393Y-81952532D01*
X132607993Y-81856174D01*
X132720476Y-81729206D01*
X132799305Y-81579010D01*
X132839900Y-81414312D01*
X132839900Y-81329500D01*
X133488438Y-81329500D01*
X134793796Y-82634858D01*
X134920544Y-82341026D01*
X135019183Y-82011547D01*
X135019186Y-82011537D01*
X135043473Y-81873795D01*
X140277008Y-81873795D01*
X141758399Y-83355186D01*
X143239790Y-81873795D01*
X143239790Y-81873794D01*
X142963128Y-81745797D01*
X142963117Y-81745793D01*
X142629143Y-81633263D01*
X142284962Y-81557503D01*
X141934611Y-81519400D01*
X141582188Y-81519400D01*
X141231837Y-81557503D01*
X140887656Y-81633263D01*
X140553682Y-81745793D01*
X140277008Y-81873795D01*
X135043473Y-81873795D01*
X135078904Y-81672855D01*
X135078905Y-81672844D01*
X135098904Y-81329502D01*
X135098904Y-81329495D01*
X135078905Y-80986153D01*
X135078904Y-80986142D01*
X135019186Y-80647460D01*
X135019183Y-80647450D01*
X134920544Y-80317971D01*
X134793796Y-80024138D01*
X133488438Y-81329498D01*
X133488438Y-81329500D01*
X132839900Y-81329500D01*
X132839900Y-81244686D01*
X132799305Y-81079988D01*
X132720476Y-80929792D01*
X132607993Y-80802824D01*
X132468393Y-80706466D01*
X132309790Y-80646315D01*
X132183650Y-80630999D01*
X132099150Y-80630999D01*
X131973010Y-80646315D01*
X131814407Y-80706466D01*
X131674807Y-80802824D01*
X131562324Y-80929792D01*
X131483495Y-81079988D01*
X131442900Y-81244686D01*
X131442900Y-81414312D01*
X130709549Y-81414312D01*
X130794362Y-81329499D01*
X130794362Y-81329498D01*
X129489003Y-80024139D01*
X129489002Y-80024139D01*
X129362255Y-80317971D01*
X129263616Y-80647450D01*
X129263613Y-80647460D01*
X129203895Y-80986142D01*
X129203894Y-80986153D01*
X129183896Y-81329495D01*
X129183896Y-81329502D01*
X126898905Y-81329502D01*
X126898905Y-81329495D01*
X126878906Y-80986153D01*
X126878905Y-80986142D01*
X126819187Y-80647460D01*
X126819184Y-80647450D01*
X126720545Y-80317971D01*
X126593797Y-80024138D01*
X125288439Y-81329498D01*
X125288439Y-81329500D01*
X124639901Y-81329500D01*
X124639901Y-81244686D01*
X124599306Y-81079988D01*
X124520477Y-80929792D01*
X124407994Y-80802824D01*
X124268394Y-80706466D01*
X124109791Y-80646315D01*
X123983651Y-80630999D01*
X123899151Y-80630999D01*
X123773011Y-80646315D01*
X123614408Y-80706466D01*
X123474808Y-80802824D01*
X123362325Y-80929792D01*
X123283496Y-81079988D01*
X123242901Y-81244686D01*
X123242901Y-81414312D01*
X122509550Y-81414312D01*
X122594363Y-81329499D01*
X122594363Y-81329498D01*
X121289004Y-80024139D01*
X121289003Y-80024139D01*
X121162256Y-80317971D01*
X121063617Y-80647450D01*
X121063614Y-80647460D01*
X121003896Y-80986142D01*
X121003895Y-80986153D01*
X120983897Y-81329495D01*
X120983897Y-81329502D01*
X116098700Y-81329502D01*
X116098700Y-78679792D01*
X122638732Y-78679792D01*
X123941401Y-79982461D01*
X123941402Y-79982461D01*
X125244068Y-78679792D01*
X130838731Y-78679792D01*
X132141400Y-79982461D01*
X132141401Y-79982461D01*
X133444067Y-78679792D01*
X133312803Y-78613869D01*
X132989619Y-78496240D01*
X132654966Y-78416926D01*
X132313357Y-78376999D01*
X131969443Y-78376999D01*
X131627834Y-78416926D01*
X131627832Y-78416926D01*
X131293180Y-78496240D01*
X130969992Y-78613871D01*
X130838731Y-78679792D01*
X125244068Y-78679792D01*
X125112804Y-78613869D01*
X124789620Y-78496240D01*
X124454967Y-78416926D01*
X124113358Y-78376999D01*
X123769444Y-78376999D01*
X123427835Y-78416926D01*
X123427833Y-78416926D01*
X123093181Y-78496240D01*
X122769993Y-78613871D01*
X122638732Y-78679792D01*
X116098700Y-78679792D01*
X116098700Y-57627542D01*
X121294673Y-57627542D01*
X121395771Y-57688657D01*
X121692049Y-57822002D01*
X121692078Y-57822013D01*
X122002262Y-57918669D01*
X122321876Y-57977241D01*
X122646200Y-57996858D01*
X122970523Y-57977241D01*
X123290137Y-57918669D01*
X123600321Y-57822013D01*
X123600350Y-57822002D01*
X123896628Y-57688657D01*
X123997725Y-57627542D01*
X122646200Y-56276017D01*
X121294673Y-57627542D01*
X116098700Y-57627542D01*
X116098700Y-55306150D01*
X119955491Y-55306150D01*
X119975108Y-55630473D01*
X120033680Y-55950087D01*
X120130336Y-56260271D01*
X120130347Y-56260300D01*
X120263686Y-56556566D01*
X120263695Y-56556582D01*
X120324807Y-56657674D01*
X121676332Y-55306150D01*
X121676332Y-55306149D01*
X121643700Y-55273517D01*
X122210744Y-55273517D01*
X122220471Y-55403320D01*
X122268027Y-55524488D01*
X122349184Y-55626257D01*
X122456733Y-55699582D01*
X122581117Y-55737950D01*
X122678557Y-55737950D01*
X122774913Y-55723427D01*
X122892189Y-55666949D01*
X122987608Y-55578414D01*
X123052691Y-55465686D01*
X123081656Y-55338783D01*
X123079211Y-55306150D01*
X123616067Y-55306150D01*
X124967592Y-56657675D01*
X125028707Y-56556578D01*
X125162052Y-56260300D01*
X125162063Y-56260271D01*
X125258719Y-55950087D01*
X125317291Y-55630473D01*
X125336908Y-55306150D01*
X125317291Y-54981826D01*
X125258719Y-54662212D01*
X125162063Y-54352028D01*
X125162052Y-54351999D01*
X125028707Y-54055721D01*
X124967592Y-53954623D01*
X123616067Y-55306149D01*
X123616067Y-55306150D01*
X123079211Y-55306150D01*
X123071929Y-55208980D01*
X123024373Y-55087812D01*
X122943216Y-54986043D01*
X122835667Y-54912718D01*
X122711283Y-54874350D01*
X122613843Y-54874350D01*
X122517487Y-54888873D01*
X122400211Y-54945351D01*
X122304792Y-55033886D01*
X122239709Y-55146614D01*
X122210744Y-55273517D01*
X121643700Y-55273517D01*
X120324807Y-53954623D01*
X120324806Y-53954624D01*
X120263699Y-54055709D01*
X120263686Y-54055733D01*
X120130347Y-54351999D01*
X120130336Y-54352028D01*
X120033680Y-54662212D01*
X119975108Y-54981826D01*
X119955491Y-55306150D01*
X116098700Y-55306150D01*
X116098700Y-53125604D01*
X116118385Y-53058565D01*
X116171189Y-53012810D01*
X116240347Y-53002866D01*
X116295602Y-53025298D01*
X116307340Y-53033829D01*
X116307348Y-53033833D01*
X116437947Y-53094151D01*
X116437957Y-53094155D01*
X116437958Y-53094155D01*
X116437962Y-53094157D01*
X116504917Y-53114127D01*
X116647244Y-53135209D01*
X121255535Y-53154845D01*
X121365135Y-53143299D01*
X121365145Y-53143295D01*
X121369205Y-53142341D01*
X121372511Y-53142521D01*
X121372916Y-53142479D01*
X121372922Y-53142544D01*
X121438971Y-53146151D01*
X121485282Y-53175365D01*
X122646199Y-54336281D01*
X123801969Y-53180512D01*
X123863292Y-53147027D01*
X123907820Y-53145531D01*
X123908776Y-53145672D01*
X123908780Y-53145674D01*
X124051107Y-53166757D01*
X125498897Y-53172925D01*
X125565850Y-53192895D01*
X125586233Y-53209428D01*
X125833001Y-53457250D01*
X126219367Y-53845266D01*
X126252721Y-53906659D01*
X126255499Y-53932759D01*
X126255500Y-64873795D01*
X126255500Y-70634173D01*
X126256950Y-70661227D01*
X126256950Y-70661228D01*
X126261231Y-70701039D01*
X126269887Y-70754453D01*
X126320170Y-70889262D01*
X126320171Y-70889263D01*
X126330003Y-70907268D01*
X126353651Y-70950578D01*
X126353652Y-70950579D01*
X126439877Y-71065761D01*
X126439881Y-71065765D01*
X126439886Y-71065771D01*
X127376819Y-72002704D01*
X127376820Y-72002704D01*
X127396956Y-72020791D01*
X127396955Y-72020791D01*
X127428139Y-72045920D01*
X127428142Y-72045922D01*
X127472026Y-72077567D01*
X127602903Y-72137338D01*
X127645675Y-72149897D01*
X127669937Y-72157022D01*
X127669942Y-72157023D01*
X127669946Y-72157024D01*
X127812362Y-72177500D01*
X127812365Y-72177500D01*
X144773173Y-72177500D01*
X144773177Y-72177500D01*
X144800216Y-72176051D01*
X144800223Y-72176050D01*
X144800227Y-72176050D01*
X144800228Y-72176050D01*
X144840036Y-72171769D01*
X144893448Y-72163114D01*
X145028257Y-72112832D01*
X145089580Y-72079347D01*
X145204761Y-71993123D01*
X146141697Y-71056188D01*
X146141697Y-71056187D01*
X146141704Y-71056181D01*
X146141704Y-71056180D01*
X146159791Y-71036044D01*
X146159791Y-71036045D01*
X146184920Y-71004861D01*
X146193032Y-70993611D01*
X146216567Y-70960974D01*
X146276338Y-70830097D01*
X146296023Y-70763058D01*
X146296024Y-70763054D01*
X146316500Y-70620638D01*
X146316500Y-41721823D01*
X146315051Y-41694784D01*
X146310769Y-41654964D01*
X146302114Y-41601552D01*
X146251832Y-41466743D01*
X146218347Y-41405420D01*
X146132123Y-41290239D01*
X146132117Y-41290233D01*
X146132113Y-41290228D01*
X145195181Y-40353296D01*
X145195180Y-40353296D01*
X145175044Y-40335209D01*
X145175045Y-40335209D01*
X145143861Y-40310080D01*
X145099974Y-40278433D01*
X144969100Y-40218663D01*
X144902063Y-40198978D01*
X144902055Y-40198976D01*
X144896451Y-40198170D01*
X144832897Y-40169141D01*
X144795126Y-40110361D01*
X144795130Y-40040491D01*
X144826615Y-39987561D01*
X145510274Y-39306912D01*
X145510282Y-39306903D01*
X145510281Y-39306905D01*
X145520471Y-39295621D01*
X145528234Y-39287028D01*
X145528238Y-39287023D01*
X145528239Y-39287023D01*
X145553207Y-39256250D01*
X145553206Y-39256250D01*
X145584701Y-39212927D01*
X145645048Y-39082313D01*
X145665028Y-39015361D01*
X145686132Y-38873038D01*
X145752025Y-23937063D01*
X145750666Y-23909739D01*
X145746475Y-23869501D01*
X145746474Y-23869500D01*
X145745018Y-23860357D01*
X145737878Y-23815509D01*
X145687894Y-23680590D01*
X145654544Y-23619193D01*
X145636957Y-23595591D01*
X145612685Y-23530073D01*
X145627687Y-23461833D01*
X145677202Y-23412537D01*
X145736388Y-23397500D01*
X149367695Y-23397500D01*
X149372562Y-23397691D01*
G37*
%TD.AperFunction*%
%TD*%
M02*
