%TF.GenerationSoftware,KiCad,Pcbnew,7.0.8*%
%TF.CreationDate,2024-04-29T16:48:28-06:00*%
%TF.ProjectId,GR-LRR-POWER-PCB-HIGH-VOLTAGE,47522d4c-5252-42d5-904f-5745522d5043,rev?*%
%TF.SameCoordinates,Original*%
%TF.FileFunction,Profile,NP*%
%FSLAX46Y46*%
G04 Gerber Fmt 4.6, Leading zero omitted, Abs format (unit mm)*
G04 Created by KiCad (PCBNEW 7.0.8) date 2024-04-29 16:48:28*
%MOMM*%
%LPD*%
G01*
G04 APERTURE LIST*
%TA.AperFunction,Profile*%
%ADD10C,0.250000*%
%TD*%
G04 APERTURE END LIST*
D10*
X210366585Y-24691777D02*
X210366585Y-22897000D01*
X243578753Y-72234147D02*
G75*
G03*
X243578753Y-72234147I-1714500J0D01*
G01*
X260803423Y-97897023D02*
G75*
G03*
X263803423Y-94897000I-23J3000023D01*
G01*
X149370153Y-22897000D02*
X118598200Y-22897000D01*
X217024721Y-24691777D02*
X210366585Y-24691777D01*
X265598200Y-52001379D02*
X265598200Y-43125747D01*
X263803423Y-52001379D02*
X265598200Y-52001379D01*
X151209300Y-24736147D02*
G75*
G03*
X166327006Y-24736147I7558853J0D01*
G01*
X210366585Y-22897000D02*
X168166153Y-22897000D01*
X254259453Y-22897000D02*
X217024721Y-22897000D01*
X263803423Y-58659515D02*
X263803423Y-52001379D01*
X118598200Y-97897000D02*
X260803423Y-97897000D01*
X263803423Y-88463079D02*
X265598200Y-88463079D01*
X118598200Y-22897000D02*
G75*
G03*
X115598200Y-25897000I0J-3000000D01*
G01*
X115598200Y-25897000D02*
X115598200Y-94897000D01*
X217024721Y-22897000D02*
X217024721Y-24691777D01*
X256098600Y-33626147D02*
X256098600Y-24736147D01*
X121585084Y-93897000D02*
G75*
G03*
X121585084Y-93897000I-1986884J0D01*
G01*
X256098600Y-24736147D02*
G75*
G03*
X254259453Y-22897000I-1839200J-53D01*
G01*
X263803423Y-94897000D02*
X263803423Y-88463079D01*
X251319403Y-33943647D02*
G75*
G03*
X251319403Y-33943647I-1714500J0D01*
G01*
X265598200Y-58659515D02*
X263803423Y-58659515D01*
X265598200Y-88463079D02*
X265598200Y-58659515D01*
X115598200Y-94897000D02*
G75*
G03*
X118598200Y-97897000I3000000J0D01*
G01*
X168166153Y-22897006D02*
G75*
G03*
X166327006Y-24736147I147J-1839294D01*
G01*
X256098600Y-33626147D02*
G75*
G03*
X263759053Y-41286600I7660400J-53D01*
G01*
X265598200Y-43125747D02*
G75*
G03*
X263759053Y-41286600I-1839200J-53D01*
G01*
X151209300Y-24736147D02*
G75*
G03*
X149370153Y-22897000I-1839200J-53D01*
G01*
M02*
