%TF.GenerationSoftware,KiCad,Pcbnew,7.0.8*%
%TF.CreationDate,2024-04-29T16:50:17-06:00*%
%TF.ProjectId,GR-LRR-POWER-PCB-INPUT,47522d4c-5252-42d5-904f-5745522d5043,rev?*%
%TF.SameCoordinates,Original*%
%TF.FileFunction,Copper,L2,Bot*%
%TF.FilePolarity,Positive*%
%FSLAX46Y46*%
G04 Gerber Fmt 4.6, Leading zero omitted, Abs format (unit mm)*
G04 Created by KiCad (PCBNEW 7.0.8) date 2024-04-29 16:50:17*
%MOMM*%
%LPD*%
G01*
G04 APERTURE LIST*
%TA.AperFunction,ComponentPad*%
%ADD10C,1.905000*%
%TD*%
%TA.AperFunction,ComponentPad*%
%ADD11C,1.371600*%
%TD*%
%TA.AperFunction,ViaPad*%
%ADD12C,0.800000*%
%TD*%
G04 APERTURE END LIST*
D10*
%TO.P,J3,1_1,1_1*%
%TO.N,BV1*%
X64907600Y-98957099D03*
%TO.P,J3,1_2,1_2*%
X56707601Y-98957099D03*
%TO.P,J3,2_1,2_1*%
%TO.N,BG*%
X64907600Y-103957099D03*
%TO.P,J3,2_2,2_2*%
X56707601Y-103957099D03*
%TD*%
%TO.P,J1,1_1,1_1*%
%TO.N,BV1*%
X64882399Y-60830000D03*
%TO.P,J1,1_2,1_2*%
X56682400Y-60830000D03*
%TO.P,J1,2_1,2_1*%
%TO.N,BG*%
X64882399Y-65830000D03*
%TO.P,J1,2_2,2_2*%
X56682400Y-65830000D03*
%TD*%
%TO.P,J4,1_1,1_1*%
%TO.N,BV1*%
X64907600Y-120420099D03*
%TO.P,J4,1_2,1_2*%
X56707601Y-120420099D03*
%TO.P,J4,2_1,2_1*%
%TO.N,BG*%
X64907600Y-125420099D03*
%TO.P,J4,2_2,2_2*%
X56707601Y-125420099D03*
%TD*%
%TO.P,J7,1_1,1_1*%
%TO.N,BV_OUT*%
X79826001Y-136852000D03*
%TO.P,J7,1_2,1_2*%
X88026000Y-136852000D03*
%TO.P,J7,2_1,2_1*%
X79826001Y-131852000D03*
%TO.P,J7,2_2,2_2*%
X88026000Y-131852000D03*
%TD*%
%TO.P,J6,1_1,1_1*%
%TO.N,BG*%
X79826001Y-152752000D03*
%TO.P,J6,1_2,1_2*%
X88026000Y-152752000D03*
%TO.P,J6,2_1,2_1*%
X79826001Y-147752000D03*
%TO.P,J6,2_2,2_2*%
X88026000Y-147752000D03*
%TD*%
%TO.P,J9,1_1,1_1*%
%TO.N,BG*%
X79826001Y-86252000D03*
%TO.P,J9,1_2,1_2*%
X88026000Y-86252000D03*
%TO.P,J9,2_1,2_1*%
X79826001Y-81252000D03*
%TO.P,J9,2_2,2_2*%
X88026000Y-81252000D03*
%TD*%
%TO.P,J5,1_1,1_1*%
%TO.N,BV_OUT*%
X79726001Y-52452000D03*
%TO.P,J5,1_2,1_2*%
X87926000Y-52452000D03*
%TO.P,J5,2_1,2_1*%
X79726001Y-47452000D03*
%TO.P,J5,2_2,2_2*%
X87926000Y-47452000D03*
%TD*%
D11*
%TO.P,C1,1*%
%TO.N,BV_OUT*%
X88626000Y-115452000D03*
%TO.P,C1,2*%
%TO.N,BG*%
X88626000Y-118952001D03*
%TD*%
D10*
%TO.P,J2,1_1,1_1*%
%TO.N,BV1*%
X64907600Y-81227899D03*
%TO.P,J2,1_2,1_2*%
X56707601Y-81227899D03*
%TO.P,J2,2_1,2_1*%
%TO.N,BG*%
X64907600Y-86227899D03*
%TO.P,J2,2_2,2_2*%
X56707601Y-86227899D03*
%TD*%
%TO.P,J8,1_1,1_1*%
%TO.N,BV*%
X70026000Y-45152000D03*
%TO.P,J8,1_2,1_2*%
X70026000Y-36952001D03*
%TO.P,J8,2_1,2_1*%
%TO.N,BV1*%
X65026000Y-45152000D03*
%TO.P,J8,2_2,2_2*%
X65026000Y-36952001D03*
%TD*%
D12*
%TO.N,BG*%
X73678000Y-112409200D03*
%TD*%
%TA.AperFunction,Conductor*%
%TO.N,BG*%
G36*
X89387923Y-24482286D02*
G01*
X89433678Y-24535090D01*
X89444884Y-24586601D01*
X89444884Y-25828841D01*
X89452574Y-25855032D01*
X89456331Y-25872301D01*
X89456832Y-25875779D01*
X89460219Y-25899335D01*
X89471557Y-25924161D01*
X89477739Y-25940736D01*
X89485430Y-25966929D01*
X89485431Y-25966931D01*
X89500190Y-25989897D01*
X89508666Y-26005419D01*
X89520007Y-26030251D01*
X89531821Y-26043885D01*
X89537880Y-26050878D01*
X89548479Y-26065038D01*
X89563237Y-26088001D01*
X89563241Y-26088006D01*
X89583872Y-26105884D01*
X89596376Y-26118388D01*
X89614255Y-26139020D01*
X89614256Y-26139021D01*
X89637228Y-26153783D01*
X89651380Y-26164378D01*
X89672011Y-26182255D01*
X89695283Y-26192883D01*
X89696835Y-26193592D01*
X89712362Y-26202070D01*
X89735331Y-26216831D01*
X89761520Y-26224521D01*
X89778097Y-26230704D01*
X89802922Y-26242041D01*
X89802923Y-26242041D01*
X89802927Y-26242043D01*
X89829948Y-26245928D01*
X89847230Y-26249687D01*
X89873423Y-26257378D01*
X89909585Y-26257378D01*
X93306012Y-26257378D01*
X93370026Y-26257378D01*
X93373771Y-26257491D01*
X93419937Y-26260283D01*
X93669445Y-26275376D01*
X93676879Y-26276280D01*
X93966388Y-26329335D01*
X93973658Y-26331126D01*
X94254665Y-26418691D01*
X94261658Y-26421344D01*
X94530061Y-26542142D01*
X94536696Y-26545625D01*
X94788574Y-26697889D01*
X94794741Y-26702146D01*
X95026427Y-26883660D01*
X95032036Y-26888629D01*
X95240160Y-27096751D01*
X95245130Y-27102360D01*
X95426645Y-27334046D01*
X95430902Y-27340213D01*
X95583171Y-27592094D01*
X95586654Y-27598730D01*
X95707448Y-27867121D01*
X95710105Y-27874128D01*
X95797669Y-28155122D01*
X95799462Y-28162398D01*
X95852518Y-28451907D01*
X95853421Y-28459346D01*
X95871292Y-28754734D01*
X95871405Y-28758479D01*
X95871405Y-156955735D01*
X95871292Y-156959480D01*
X95853404Y-157255149D01*
X95852501Y-157262588D01*
X95799446Y-157552093D01*
X95797653Y-157559369D01*
X95710091Y-157840363D01*
X95707433Y-157847370D01*
X95586640Y-158115759D01*
X95583157Y-158122395D01*
X95430888Y-158374276D01*
X95426631Y-158380443D01*
X95245115Y-158612130D01*
X95240145Y-158617739D01*
X95032032Y-158825852D01*
X95026423Y-158830821D01*
X94794733Y-159012339D01*
X94788565Y-159016596D01*
X94536689Y-159168859D01*
X94530054Y-159172342D01*
X94261654Y-159293138D01*
X94254648Y-159295796D01*
X93973657Y-159383356D01*
X93966381Y-159385150D01*
X93676878Y-159438202D01*
X93669440Y-159439105D01*
X93412665Y-159454639D01*
X93373553Y-159457005D01*
X93369816Y-159457118D01*
X90017345Y-159457118D01*
X89873423Y-159457118D01*
X89873420Y-159457118D01*
X89873418Y-159457119D01*
X89847226Y-159464808D01*
X89829952Y-159468566D01*
X89802928Y-159472452D01*
X89802925Y-159472453D01*
X89778094Y-159483793D01*
X89761525Y-159489973D01*
X89748555Y-159493781D01*
X89735331Y-159497665D01*
X89735329Y-159497665D01*
X89735329Y-159497666D01*
X89712366Y-159512423D01*
X89696845Y-159520898D01*
X89672012Y-159532239D01*
X89672009Y-159532241D01*
X89651384Y-159550113D01*
X89637224Y-159560713D01*
X89614260Y-159575471D01*
X89614255Y-159575475D01*
X89596377Y-159596107D01*
X89583873Y-159608611D01*
X89563241Y-159626489D01*
X89563237Y-159626494D01*
X89548479Y-159649458D01*
X89537879Y-159663618D01*
X89520007Y-159684243D01*
X89520005Y-159684246D01*
X89508664Y-159709079D01*
X89500189Y-159724600D01*
X89485432Y-159747563D01*
X89477739Y-159773759D01*
X89471559Y-159790328D01*
X89460219Y-159815159D01*
X89460218Y-159815162D01*
X89456332Y-159842186D01*
X89452574Y-159859460D01*
X89444885Y-159885652D01*
X89444884Y-159885660D01*
X89444884Y-161127895D01*
X89425199Y-161194934D01*
X89372395Y-161240689D01*
X89320884Y-161251895D01*
X52713109Y-161251895D01*
X52708241Y-161251704D01*
X52510978Y-161236173D01*
X52491761Y-161233129D01*
X52306494Y-161188647D01*
X52287989Y-161182635D01*
X52111948Y-161109714D01*
X52094611Y-161100880D01*
X51932148Y-161001321D01*
X51916407Y-160989884D01*
X51771520Y-160866137D01*
X51757762Y-160852379D01*
X51634015Y-160707492D01*
X51622578Y-160691751D01*
X51523019Y-160529288D01*
X51514185Y-160511951D01*
X51491881Y-160458105D01*
X51441261Y-160335903D01*
X51435252Y-160317405D01*
X51420858Y-160257455D01*
X51390769Y-160132137D01*
X51387725Y-160112921D01*
X51372196Y-159915658D01*
X51372005Y-159910791D01*
X51372005Y-155401706D01*
X78523331Y-155401706D01*
X78654586Y-155467624D01*
X78654587Y-155467625D01*
X78977781Y-155585258D01*
X79312434Y-155664572D01*
X79654043Y-155704499D01*
X79654044Y-155704500D01*
X79997958Y-155704500D01*
X79997958Y-155704499D01*
X80339566Y-155664572D01*
X80339568Y-155664572D01*
X80674220Y-155585258D01*
X80997414Y-155467625D01*
X80997415Y-155467624D01*
X81128669Y-155401706D01*
X86723330Y-155401706D01*
X86854585Y-155467624D01*
X86854586Y-155467625D01*
X87177780Y-155585258D01*
X87512433Y-155664572D01*
X87854042Y-155704499D01*
X87854043Y-155704500D01*
X88197957Y-155704500D01*
X88197957Y-155704499D01*
X88539565Y-155664572D01*
X88539567Y-155664572D01*
X88874219Y-155585258D01*
X89197413Y-155467625D01*
X89197414Y-155467624D01*
X89328668Y-155401706D01*
X89328668Y-155401705D01*
X88026000Y-154099038D01*
X86723330Y-155401705D01*
X86723330Y-155401706D01*
X81128669Y-155401706D01*
X81128669Y-155401705D01*
X79826001Y-154099038D01*
X78523331Y-155401705D01*
X78523331Y-155401706D01*
X51372005Y-155401706D01*
X51372005Y-150744467D01*
X51369356Y-150705748D01*
X55145449Y-150705748D01*
X55164439Y-150995482D01*
X55164441Y-150995494D01*
X55221083Y-151280254D01*
X55221087Y-151280269D01*
X55314419Y-151555214D01*
X55442837Y-151815621D01*
X55442840Y-151815625D01*
X55601783Y-152053500D01*
X55604155Y-152057049D01*
X55795599Y-152275350D01*
X55947591Y-152408643D01*
X56013902Y-152466796D01*
X56255325Y-152628110D01*
X56255328Y-152628112D01*
X56334565Y-152667187D01*
X56515739Y-152756532D01*
X56790688Y-152849865D01*
X57075466Y-152906511D01*
X57365202Y-152925501D01*
X57654938Y-152906511D01*
X57939716Y-152849865D01*
X58214665Y-152756532D01*
X58223849Y-152752003D01*
X76868497Y-152752003D01*
X76888495Y-153095345D01*
X76888496Y-153095356D01*
X76948214Y-153434038D01*
X76948217Y-153434048D01*
X77046856Y-153763527D01*
X77173603Y-154057358D01*
X77173604Y-154057359D01*
X78394150Y-152836813D01*
X79127501Y-152836813D01*
X79168096Y-153001511D01*
X79246925Y-153151707D01*
X79359408Y-153278675D01*
X79499008Y-153375033D01*
X79657611Y-153435184D01*
X79783751Y-153450500D01*
X79868251Y-153450500D01*
X79994391Y-153435184D01*
X80152994Y-153375033D01*
X80292594Y-153278675D01*
X80405077Y-153151707D01*
X80483906Y-153001511D01*
X80524501Y-152836813D01*
X80524501Y-152752001D01*
X81173039Y-152752001D01*
X82478397Y-154057359D01*
X82605145Y-153763527D01*
X82703784Y-153434048D01*
X82703787Y-153434038D01*
X82763505Y-153095356D01*
X82763506Y-153095345D01*
X82783505Y-152752003D01*
X85068496Y-152752003D01*
X85088494Y-153095345D01*
X85088495Y-153095356D01*
X85148213Y-153434038D01*
X85148216Y-153434048D01*
X85246855Y-153763527D01*
X85373602Y-154057358D01*
X85373603Y-154057359D01*
X86594149Y-152836813D01*
X87327500Y-152836813D01*
X87368095Y-153001511D01*
X87446924Y-153151707D01*
X87559407Y-153278675D01*
X87699007Y-153375033D01*
X87857610Y-153435184D01*
X87983750Y-153450500D01*
X88068250Y-153450500D01*
X88194390Y-153435184D01*
X88352993Y-153375033D01*
X88492593Y-153278675D01*
X88605076Y-153151707D01*
X88683905Y-153001511D01*
X88724500Y-152836813D01*
X88724500Y-152752000D01*
X89373038Y-152752000D01*
X90678396Y-154057359D01*
X90805144Y-153763527D01*
X90903783Y-153434048D01*
X90903786Y-153434038D01*
X90963504Y-153095356D01*
X90963505Y-153095345D01*
X90983504Y-152752003D01*
X90983504Y-152751996D01*
X90963505Y-152408654D01*
X90963504Y-152408643D01*
X90903786Y-152069961D01*
X90903783Y-152069951D01*
X90805144Y-151740472D01*
X90678396Y-151446639D01*
X89373038Y-152751999D01*
X89373038Y-152752000D01*
X88724500Y-152752000D01*
X88724500Y-152667187D01*
X88683905Y-152502489D01*
X88605076Y-152352293D01*
X88492593Y-152225325D01*
X88352993Y-152128967D01*
X88194390Y-152068816D01*
X88068250Y-152053500D01*
X87983750Y-152053500D01*
X87857610Y-152068816D01*
X87699007Y-152128967D01*
X87559407Y-152225325D01*
X87446924Y-152352293D01*
X87368095Y-152502489D01*
X87327500Y-152667187D01*
X87327500Y-152836813D01*
X86594149Y-152836813D01*
X86678962Y-152752000D01*
X86678962Y-152751999D01*
X85373602Y-151446640D01*
X85246855Y-151740472D01*
X85148216Y-152069951D01*
X85148213Y-152069961D01*
X85088495Y-152408643D01*
X85088494Y-152408654D01*
X85068496Y-152751996D01*
X85068496Y-152752003D01*
X82783505Y-152752003D01*
X82783505Y-152751996D01*
X82763506Y-152408654D01*
X82763505Y-152408643D01*
X82703787Y-152069961D01*
X82703784Y-152069951D01*
X82605145Y-151740472D01*
X82478397Y-151446639D01*
X81173039Y-152751999D01*
X81173039Y-152752001D01*
X80524501Y-152752001D01*
X80524501Y-152667187D01*
X80483906Y-152502489D01*
X80405077Y-152352293D01*
X80292594Y-152225325D01*
X80152994Y-152128967D01*
X79994391Y-152068816D01*
X79868251Y-152053500D01*
X79783751Y-152053500D01*
X79657611Y-152068816D01*
X79499008Y-152128967D01*
X79359408Y-152225325D01*
X79246925Y-152352293D01*
X79168096Y-152502489D01*
X79127501Y-152667187D01*
X79127501Y-152836813D01*
X78394150Y-152836813D01*
X78478963Y-152752000D01*
X78478963Y-152751999D01*
X77173604Y-151446640D01*
X77173603Y-151446640D01*
X77046856Y-151740472D01*
X76948217Y-152069951D01*
X76948214Y-152069961D01*
X76888496Y-152408643D01*
X76888495Y-152408654D01*
X76868497Y-152751996D01*
X76868497Y-152752003D01*
X58223849Y-152752003D01*
X58475079Y-152628110D01*
X58716502Y-152466796D01*
X58934804Y-152275350D01*
X59126250Y-152057048D01*
X59287564Y-151815625D01*
X59415986Y-151555211D01*
X59509319Y-151280262D01*
X59565965Y-150995484D01*
X59584955Y-150705748D01*
X59565965Y-150416012D01*
X59533341Y-150252000D01*
X78673039Y-150252000D01*
X79826001Y-151404962D01*
X80978963Y-150252000D01*
X86873038Y-150252000D01*
X88026000Y-151404962D01*
X89178962Y-150252000D01*
X88026000Y-149099038D01*
X86873038Y-150252000D01*
X80978963Y-150252000D01*
X79826001Y-149099038D01*
X78673039Y-150252000D01*
X59533341Y-150252000D01*
X59509319Y-150131234D01*
X59415986Y-149856285D01*
X59376280Y-149775770D01*
X59287569Y-149595881D01*
X59287560Y-149595866D01*
X59224367Y-149501291D01*
X59126250Y-149354448D01*
X59084304Y-149306618D01*
X58934804Y-149136145D01*
X58716503Y-148944701D01*
X58475075Y-148783383D01*
X58214668Y-148654965D01*
X57939723Y-148561633D01*
X57939717Y-148561631D01*
X57939716Y-148561631D01*
X57939714Y-148561630D01*
X57939708Y-148561629D01*
X57654948Y-148504987D01*
X57654938Y-148504985D01*
X57365202Y-148485995D01*
X57075466Y-148504985D01*
X57075460Y-148504986D01*
X57075455Y-148504987D01*
X56790695Y-148561629D01*
X56790680Y-148561633D01*
X56515735Y-148654965D01*
X56255335Y-148783380D01*
X56255320Y-148783389D01*
X56013900Y-148944701D01*
X55795599Y-149136145D01*
X55604155Y-149354446D01*
X55442843Y-149595866D01*
X55442834Y-149595881D01*
X55314419Y-149856281D01*
X55221087Y-150131226D01*
X55221083Y-150131241D01*
X55164441Y-150416001D01*
X55164439Y-150416013D01*
X55145449Y-150705748D01*
X51369356Y-150705748D01*
X51356135Y-150512463D01*
X51333954Y-150188188D01*
X51258031Y-149635809D01*
X51199564Y-149354448D01*
X51144592Y-149089904D01*
X50994158Y-148553001D01*
X50896662Y-148278675D01*
X50807438Y-148027622D01*
X50687720Y-147752003D01*
X76868497Y-147752003D01*
X76888495Y-148095345D01*
X76888496Y-148095356D01*
X76948214Y-148434038D01*
X76948217Y-148434048D01*
X77046856Y-148763527D01*
X77173603Y-149057358D01*
X77173604Y-149057359D01*
X78394150Y-147836813D01*
X79127501Y-147836813D01*
X79168096Y-148001511D01*
X79246925Y-148151707D01*
X79359408Y-148278675D01*
X79499008Y-148375033D01*
X79657611Y-148435184D01*
X79783751Y-148450500D01*
X79868251Y-148450500D01*
X79994391Y-148435184D01*
X80152994Y-148375033D01*
X80292594Y-148278675D01*
X80405077Y-148151707D01*
X80483906Y-148001511D01*
X80524501Y-147836813D01*
X80524501Y-147752001D01*
X81173039Y-147752001D01*
X82478397Y-149057359D01*
X82605145Y-148763527D01*
X82703784Y-148434048D01*
X82703787Y-148434038D01*
X82763505Y-148095356D01*
X82763506Y-148095345D01*
X82783505Y-147752003D01*
X85068496Y-147752003D01*
X85088494Y-148095345D01*
X85088495Y-148095356D01*
X85148213Y-148434038D01*
X85148216Y-148434048D01*
X85246855Y-148763527D01*
X85373602Y-149057358D01*
X85373603Y-149057359D01*
X86594149Y-147836813D01*
X87327500Y-147836813D01*
X87368095Y-148001511D01*
X87446924Y-148151707D01*
X87559407Y-148278675D01*
X87699007Y-148375033D01*
X87857610Y-148435184D01*
X87983750Y-148450500D01*
X88068250Y-148450500D01*
X88194390Y-148435184D01*
X88352993Y-148375033D01*
X88492593Y-148278675D01*
X88605076Y-148151707D01*
X88683905Y-148001511D01*
X88724500Y-147836813D01*
X88724500Y-147752000D01*
X89373038Y-147752000D01*
X90678396Y-149057359D01*
X90805144Y-148763527D01*
X90903783Y-148434048D01*
X90903786Y-148434038D01*
X90963504Y-148095356D01*
X90963505Y-148095345D01*
X90983504Y-147752003D01*
X90983504Y-147751996D01*
X90963505Y-147408654D01*
X90963504Y-147408643D01*
X90903786Y-147069961D01*
X90903783Y-147069951D01*
X90805144Y-146740472D01*
X90678396Y-146446639D01*
X89373038Y-147751999D01*
X89373038Y-147752000D01*
X88724500Y-147752000D01*
X88724500Y-147667187D01*
X88683905Y-147502489D01*
X88605076Y-147352293D01*
X88492593Y-147225325D01*
X88352993Y-147128967D01*
X88194390Y-147068816D01*
X88068250Y-147053500D01*
X87983750Y-147053500D01*
X87857610Y-147068816D01*
X87699007Y-147128967D01*
X87559407Y-147225325D01*
X87446924Y-147352293D01*
X87368095Y-147502489D01*
X87327500Y-147667187D01*
X87327500Y-147836813D01*
X86594149Y-147836813D01*
X86678962Y-147752000D01*
X86678962Y-147751999D01*
X85373602Y-146446640D01*
X85246855Y-146740472D01*
X85148216Y-147069951D01*
X85148213Y-147069961D01*
X85088495Y-147408643D01*
X85088494Y-147408654D01*
X85068496Y-147751996D01*
X85068496Y-147752003D01*
X82783505Y-147752003D01*
X82783505Y-147751996D01*
X82763506Y-147408654D01*
X82763505Y-147408643D01*
X82703787Y-147069961D01*
X82703784Y-147069951D01*
X82605145Y-146740472D01*
X82478397Y-146446639D01*
X81173039Y-147751999D01*
X81173039Y-147752001D01*
X80524501Y-147752001D01*
X80524501Y-147667187D01*
X80483906Y-147502489D01*
X80405077Y-147352293D01*
X80292594Y-147225325D01*
X80152994Y-147128967D01*
X79994391Y-147068816D01*
X79868251Y-147053500D01*
X79783751Y-147053500D01*
X79657611Y-147068816D01*
X79499008Y-147128967D01*
X79359408Y-147225325D01*
X79246925Y-147352293D01*
X79168096Y-147502489D01*
X79127501Y-147667187D01*
X79127501Y-147836813D01*
X78394150Y-147836813D01*
X78478963Y-147752000D01*
X78478963Y-147751999D01*
X77173604Y-146446640D01*
X77173603Y-146446640D01*
X77046856Y-146740472D01*
X76948217Y-147069951D01*
X76948214Y-147069961D01*
X76888496Y-147408643D01*
X76888495Y-147408654D01*
X76868497Y-147751996D01*
X76868497Y-147752003D01*
X50687720Y-147752003D01*
X50585300Y-147516210D01*
X50428046Y-147212722D01*
X50328785Y-147021156D01*
X50039078Y-146544752D01*
X49717536Y-146089232D01*
X49365654Y-145656710D01*
X48985082Y-145249218D01*
X48827764Y-145102293D01*
X78523332Y-145102293D01*
X79826001Y-146404962D01*
X79826002Y-146404962D01*
X81128668Y-145102293D01*
X86723331Y-145102293D01*
X88026000Y-146404962D01*
X88026001Y-146404962D01*
X89328667Y-145102293D01*
X89197403Y-145036370D01*
X88874219Y-144918741D01*
X88539566Y-144839427D01*
X88197957Y-144799500D01*
X87854043Y-144799500D01*
X87512434Y-144839427D01*
X87512432Y-144839427D01*
X87177780Y-144918741D01*
X86854592Y-145036372D01*
X86723331Y-145102293D01*
X81128668Y-145102293D01*
X80997404Y-145036370D01*
X80674220Y-144918741D01*
X80339567Y-144839427D01*
X79997958Y-144799500D01*
X79654044Y-144799500D01*
X79312435Y-144839427D01*
X79312433Y-144839427D01*
X78977781Y-144918741D01*
X78654593Y-145036372D01*
X78523332Y-145102293D01*
X48827764Y-145102293D01*
X48577590Y-144868646D01*
X48145068Y-144516764D01*
X47689548Y-144195222D01*
X47213144Y-143905515D01*
X46935065Y-143761427D01*
X46718090Y-143649000D01*
X46206678Y-143426862D01*
X45681299Y-143240142D01*
X45470355Y-143181038D01*
X45144396Y-143089708D01*
X44803961Y-143018966D01*
X44598491Y-142976269D01*
X44046112Y-142900346D01*
X44046113Y-142900346D01*
X43966644Y-142894910D01*
X43489839Y-142862295D01*
X43489833Y-142862295D01*
X43213509Y-142862295D01*
X43208641Y-142862104D01*
X43011378Y-142846573D01*
X42992161Y-142843529D01*
X42806894Y-142799047D01*
X42788389Y-142793035D01*
X42612348Y-142720114D01*
X42595011Y-142711280D01*
X42432548Y-142611721D01*
X42416807Y-142600284D01*
X42271920Y-142476537D01*
X42258162Y-142462779D01*
X42134415Y-142317892D01*
X42122978Y-142302151D01*
X42023419Y-142139688D01*
X42014585Y-142122351D01*
X41941661Y-141946303D01*
X41935652Y-141927805D01*
X41891170Y-141742538D01*
X41888125Y-141723321D01*
X41872596Y-141526058D01*
X41872405Y-141521191D01*
X41872405Y-136852000D01*
X78617847Y-136852000D01*
X78638417Y-137073997D01*
X78638418Y-137073999D01*
X78699429Y-137288431D01*
X78699435Y-137288446D01*
X78798808Y-137488011D01*
X78933164Y-137665928D01*
X79097926Y-137816128D01*
X79287480Y-137933495D01*
X79495374Y-138014033D01*
X79714527Y-138055000D01*
X79714529Y-138055000D01*
X79937473Y-138055000D01*
X79937475Y-138055000D01*
X80156628Y-138014033D01*
X80364522Y-137933495D01*
X80554076Y-137816128D01*
X80718838Y-137665928D01*
X80853194Y-137488011D01*
X80952571Y-137288436D01*
X81013584Y-137073998D01*
X81034155Y-136852000D01*
X86817846Y-136852000D01*
X86838416Y-137073997D01*
X86838417Y-137073999D01*
X86899428Y-137288431D01*
X86899434Y-137288446D01*
X86998807Y-137488011D01*
X87133163Y-137665928D01*
X87297925Y-137816128D01*
X87487479Y-137933495D01*
X87695373Y-138014033D01*
X87914526Y-138055000D01*
X87914528Y-138055000D01*
X88137472Y-138055000D01*
X88137474Y-138055000D01*
X88356627Y-138014033D01*
X88564521Y-137933495D01*
X88754075Y-137816128D01*
X88918837Y-137665928D01*
X89053193Y-137488011D01*
X89152570Y-137288436D01*
X89213583Y-137073998D01*
X89234154Y-136852000D01*
X89213583Y-136630002D01*
X89152570Y-136415564D01*
X89053193Y-136215989D01*
X88918837Y-136038072D01*
X88918834Y-136038069D01*
X88918831Y-136038066D01*
X88754076Y-135887873D01*
X88754075Y-135887872D01*
X88564521Y-135770505D01*
X88356627Y-135689967D01*
X88137474Y-135649000D01*
X87914526Y-135649000D01*
X87695373Y-135689967D01*
X87695370Y-135689967D01*
X87695370Y-135689968D01*
X87487481Y-135770504D01*
X87487480Y-135770504D01*
X87297923Y-135887873D01*
X87133168Y-136038066D01*
X87133165Y-136038069D01*
X86998807Y-136215988D01*
X86899434Y-136415553D01*
X86899428Y-136415568D01*
X86838417Y-136630000D01*
X86838416Y-136630002D01*
X86817846Y-136851999D01*
X86817846Y-136852000D01*
X81034155Y-136852000D01*
X81013584Y-136630002D01*
X80952571Y-136415564D01*
X80853194Y-136215989D01*
X80718838Y-136038072D01*
X80718835Y-136038069D01*
X80718832Y-136038066D01*
X80554077Y-135887873D01*
X80554076Y-135887872D01*
X80364522Y-135770505D01*
X80156628Y-135689967D01*
X79937475Y-135649000D01*
X79714527Y-135649000D01*
X79495374Y-135689967D01*
X79495371Y-135689967D01*
X79495371Y-135689968D01*
X79287482Y-135770504D01*
X79287481Y-135770504D01*
X79097924Y-135887873D01*
X78933169Y-136038066D01*
X78933166Y-136038069D01*
X78798808Y-136215988D01*
X78699435Y-136415553D01*
X78699429Y-136415568D01*
X78638418Y-136630000D01*
X78638417Y-136630002D01*
X78617847Y-136851999D01*
X78617847Y-136852000D01*
X41872405Y-136852000D01*
X41872405Y-133272516D01*
X41892090Y-133205477D01*
X41944894Y-133159722D01*
X41996405Y-133148516D01*
X43238642Y-133148516D01*
X43238643Y-133148516D01*
X43264835Y-133140825D01*
X43282118Y-133137066D01*
X43286564Y-133136426D01*
X43309139Y-133133181D01*
X43333969Y-133121840D01*
X43350544Y-133115658D01*
X43376735Y-133107969D01*
X43399702Y-133093208D01*
X43415222Y-133084733D01*
X43440055Y-133073393D01*
X43460688Y-133055513D01*
X43474830Y-133044926D01*
X43497810Y-133030159D01*
X43515697Y-133009515D01*
X43528181Y-132997031D01*
X43548825Y-132979144D01*
X43563592Y-132956164D01*
X43574179Y-132942022D01*
X43592059Y-132921389D01*
X43603399Y-132896556D01*
X43611874Y-132881036D01*
X43626635Y-132858069D01*
X43634324Y-132831878D01*
X43640506Y-132815303D01*
X43651847Y-132790473D01*
X43655732Y-132763452D01*
X43659491Y-132746169D01*
X43667182Y-132719977D01*
X43667182Y-132576055D01*
X43667182Y-131852000D01*
X78617847Y-131852000D01*
X78638417Y-132073997D01*
X78638418Y-132073999D01*
X78699429Y-132288431D01*
X78699435Y-132288446D01*
X78742357Y-132374643D01*
X78798808Y-132488011D01*
X78933164Y-132665928D01*
X79097926Y-132816128D01*
X79287480Y-132933495D01*
X79495374Y-133014033D01*
X79714527Y-133055000D01*
X79714529Y-133055000D01*
X79937473Y-133055000D01*
X79937475Y-133055000D01*
X80156628Y-133014033D01*
X80364522Y-132933495D01*
X80554076Y-132816128D01*
X80718838Y-132665928D01*
X80853194Y-132488011D01*
X80952571Y-132288436D01*
X81013584Y-132073998D01*
X81034155Y-131852000D01*
X86817846Y-131852000D01*
X86838416Y-132073997D01*
X86838417Y-132073999D01*
X86899428Y-132288431D01*
X86899434Y-132288446D01*
X86942356Y-132374643D01*
X86998807Y-132488011D01*
X87133163Y-132665928D01*
X87297925Y-132816128D01*
X87487479Y-132933495D01*
X87695373Y-133014033D01*
X87914526Y-133055000D01*
X87914528Y-133055000D01*
X88137472Y-133055000D01*
X88137474Y-133055000D01*
X88356627Y-133014033D01*
X88564521Y-132933495D01*
X88754075Y-132816128D01*
X88918837Y-132665928D01*
X89053193Y-132488011D01*
X89152570Y-132288436D01*
X89213583Y-132073998D01*
X89234154Y-131852000D01*
X89213583Y-131630002D01*
X89152570Y-131415564D01*
X89053193Y-131215989D01*
X88918837Y-131038072D01*
X88918834Y-131038069D01*
X88918831Y-131038066D01*
X88754076Y-130887873D01*
X88754075Y-130887872D01*
X88564521Y-130770505D01*
X88356627Y-130689967D01*
X88137474Y-130649000D01*
X87914526Y-130649000D01*
X87695373Y-130689967D01*
X87695370Y-130689967D01*
X87695370Y-130689968D01*
X87487481Y-130770504D01*
X87487480Y-130770504D01*
X87297923Y-130887873D01*
X87133168Y-131038066D01*
X87133165Y-131038069D01*
X86998807Y-131215988D01*
X86899434Y-131415553D01*
X86899428Y-131415568D01*
X86838417Y-131630000D01*
X86838416Y-131630002D01*
X86817846Y-131851999D01*
X86817846Y-131852000D01*
X81034155Y-131852000D01*
X81013584Y-131630002D01*
X80952571Y-131415564D01*
X80853194Y-131215989D01*
X80718838Y-131038072D01*
X80718835Y-131038069D01*
X80718832Y-131038066D01*
X80554077Y-130887873D01*
X80554076Y-130887872D01*
X80364522Y-130770505D01*
X80156628Y-130689967D01*
X79937475Y-130649000D01*
X79714527Y-130649000D01*
X79495374Y-130689967D01*
X79495371Y-130689967D01*
X79495371Y-130689968D01*
X79287482Y-130770504D01*
X79287481Y-130770504D01*
X79097924Y-130887873D01*
X78933169Y-131038066D01*
X78933166Y-131038069D01*
X78798808Y-131215988D01*
X78699435Y-131415553D01*
X78699429Y-131415568D01*
X78638418Y-131630000D01*
X78638417Y-131630002D01*
X78617847Y-131851999D01*
X78617847Y-131852000D01*
X43667182Y-131852000D01*
X43667182Y-128069805D01*
X55404931Y-128069805D01*
X55536186Y-128135723D01*
X55536187Y-128135724D01*
X55859381Y-128253357D01*
X56194034Y-128332671D01*
X56535643Y-128372598D01*
X56535644Y-128372599D01*
X56879558Y-128372599D01*
X56879558Y-128372598D01*
X57221166Y-128332671D01*
X57221168Y-128332671D01*
X57555820Y-128253357D01*
X57879014Y-128135724D01*
X57879015Y-128135723D01*
X58010269Y-128069805D01*
X63604930Y-128069805D01*
X63736185Y-128135723D01*
X63736186Y-128135724D01*
X64059380Y-128253357D01*
X64394033Y-128332671D01*
X64735642Y-128372598D01*
X64735643Y-128372599D01*
X65079557Y-128372599D01*
X65079557Y-128372598D01*
X65421165Y-128332671D01*
X65421167Y-128332671D01*
X65755819Y-128253357D01*
X66079013Y-128135724D01*
X66079014Y-128135723D01*
X66210268Y-128069805D01*
X66210268Y-128069804D01*
X64907600Y-126767137D01*
X63604930Y-128069804D01*
X63604930Y-128069805D01*
X58010269Y-128069805D01*
X58010269Y-128069804D01*
X56707601Y-126767137D01*
X55404931Y-128069804D01*
X55404931Y-128069805D01*
X43667182Y-128069805D01*
X43667182Y-125954081D01*
X43667182Y-125917919D01*
X43659491Y-125891726D01*
X43655732Y-125874444D01*
X43651847Y-125847426D01*
X43651847Y-125847423D01*
X43651845Y-125847418D01*
X43640508Y-125822593D01*
X43634325Y-125806016D01*
X43626635Y-125779828D01*
X43626635Y-125779826D01*
X43611874Y-125756858D01*
X43603396Y-125741331D01*
X43602687Y-125739779D01*
X43592059Y-125716507D01*
X43574182Y-125695876D01*
X43563587Y-125681724D01*
X43548825Y-125658752D01*
X43548824Y-125658751D01*
X43528192Y-125640872D01*
X43515688Y-125628368D01*
X43497810Y-125607737D01*
X43497805Y-125607733D01*
X43474842Y-125592975D01*
X43460682Y-125582376D01*
X43453689Y-125576317D01*
X43440055Y-125564503D01*
X43415223Y-125553162D01*
X43399701Y-125544686D01*
X43376735Y-125529927D01*
X43376733Y-125529926D01*
X43350540Y-125522235D01*
X43333970Y-125516054D01*
X43309139Y-125504715D01*
X43282105Y-125500827D01*
X43264836Y-125497070D01*
X43238645Y-125489380D01*
X43238643Y-125489380D01*
X43202481Y-125489380D01*
X41996405Y-125489380D01*
X41929366Y-125469695D01*
X41886393Y-125420102D01*
X53750097Y-125420102D01*
X53770095Y-125763444D01*
X53770096Y-125763455D01*
X53829814Y-126102137D01*
X53829817Y-126102147D01*
X53928456Y-126431626D01*
X54055203Y-126725457D01*
X54055204Y-126725458D01*
X55275750Y-125504912D01*
X56009101Y-125504912D01*
X56049696Y-125669610D01*
X56128525Y-125819806D01*
X56241008Y-125946774D01*
X56380608Y-126043132D01*
X56539211Y-126103283D01*
X56665351Y-126118599D01*
X56749851Y-126118599D01*
X56875991Y-126103283D01*
X57034594Y-126043132D01*
X57174194Y-125946774D01*
X57286677Y-125819806D01*
X57365506Y-125669610D01*
X57406101Y-125504912D01*
X57406101Y-125420099D01*
X58054639Y-125420099D01*
X59359997Y-126725458D01*
X59486745Y-126431626D01*
X59585384Y-126102147D01*
X59585387Y-126102137D01*
X59645105Y-125763455D01*
X59645106Y-125763444D01*
X59665105Y-125420102D01*
X61950096Y-125420102D01*
X61970094Y-125763444D01*
X61970095Y-125763455D01*
X62029813Y-126102137D01*
X62029816Y-126102147D01*
X62128455Y-126431626D01*
X62255202Y-126725457D01*
X62255203Y-126725458D01*
X63475749Y-125504912D01*
X64209100Y-125504912D01*
X64249695Y-125669610D01*
X64328524Y-125819806D01*
X64441007Y-125946774D01*
X64580607Y-126043132D01*
X64739210Y-126103283D01*
X64865350Y-126118599D01*
X64949850Y-126118599D01*
X65075990Y-126103283D01*
X65234593Y-126043132D01*
X65374193Y-125946774D01*
X65486676Y-125819806D01*
X65565505Y-125669610D01*
X65606100Y-125504912D01*
X65606100Y-125420100D01*
X66254638Y-125420100D01*
X67559996Y-126725458D01*
X67686744Y-126431626D01*
X67785383Y-126102147D01*
X67785386Y-126102137D01*
X67845104Y-125763455D01*
X67845105Y-125763444D01*
X67865104Y-125420102D01*
X67865104Y-125420095D01*
X67845105Y-125076753D01*
X67845104Y-125076742D01*
X67785386Y-124738060D01*
X67785383Y-124738050D01*
X67686744Y-124408571D01*
X67559996Y-124114738D01*
X66254638Y-125420098D01*
X66254638Y-125420100D01*
X65606100Y-125420100D01*
X65606100Y-125335286D01*
X65565505Y-125170588D01*
X65486676Y-125020392D01*
X65374193Y-124893424D01*
X65234593Y-124797066D01*
X65075990Y-124736915D01*
X64949850Y-124721599D01*
X64865350Y-124721599D01*
X64739210Y-124736915D01*
X64580607Y-124797066D01*
X64441007Y-124893424D01*
X64328524Y-125020392D01*
X64249695Y-125170588D01*
X64209100Y-125335286D01*
X64209100Y-125504912D01*
X63475749Y-125504912D01*
X63560562Y-125420099D01*
X63560562Y-125420098D01*
X62255203Y-124114739D01*
X62255202Y-124114739D01*
X62128455Y-124408571D01*
X62029816Y-124738050D01*
X62029813Y-124738060D01*
X61970095Y-125076742D01*
X61970094Y-125076753D01*
X61950096Y-125420095D01*
X61950096Y-125420102D01*
X59665105Y-125420102D01*
X59665105Y-125420095D01*
X59645106Y-125076753D01*
X59645105Y-125076742D01*
X59585387Y-124738060D01*
X59585384Y-124738050D01*
X59486745Y-124408571D01*
X59359997Y-124114738D01*
X58054639Y-125420098D01*
X58054639Y-125420099D01*
X57406101Y-125420099D01*
X57406101Y-125335286D01*
X57365506Y-125170588D01*
X57286677Y-125020392D01*
X57174194Y-124893424D01*
X57034594Y-124797066D01*
X56875991Y-124736915D01*
X56749851Y-124721599D01*
X56665351Y-124721599D01*
X56539211Y-124736915D01*
X56380608Y-124797066D01*
X56241008Y-124893424D01*
X56128525Y-125020392D01*
X56049696Y-125170588D01*
X56009101Y-125335286D01*
X56009101Y-125504912D01*
X55275750Y-125504912D01*
X55360563Y-125420099D01*
X55360563Y-125420098D01*
X54055204Y-124114739D01*
X54055203Y-124114739D01*
X53928456Y-124408571D01*
X53829817Y-124738050D01*
X53829814Y-124738060D01*
X53770096Y-125076742D01*
X53770095Y-125076753D01*
X53750097Y-125420095D01*
X53750097Y-125420102D01*
X41886393Y-125420102D01*
X41883611Y-125416891D01*
X41872405Y-125365380D01*
X41872405Y-122770392D01*
X55404932Y-122770392D01*
X56707601Y-124073061D01*
X56707602Y-124073061D01*
X58010268Y-122770392D01*
X63604931Y-122770392D01*
X64907600Y-124073061D01*
X64907601Y-124073061D01*
X66210267Y-122770392D01*
X66079003Y-122704469D01*
X65755819Y-122586840D01*
X65421166Y-122507526D01*
X65079557Y-122467599D01*
X64735643Y-122467599D01*
X64394034Y-122507526D01*
X64394032Y-122507526D01*
X64059380Y-122586840D01*
X63736192Y-122704471D01*
X63604931Y-122770392D01*
X58010268Y-122770392D01*
X57879004Y-122704469D01*
X57555820Y-122586840D01*
X57221167Y-122507526D01*
X56879558Y-122467599D01*
X56535644Y-122467599D01*
X56194035Y-122507526D01*
X56194033Y-122507526D01*
X55859381Y-122586840D01*
X55536193Y-122704471D01*
X55404932Y-122770392D01*
X41872405Y-122770392D01*
X41872405Y-120420099D01*
X55499447Y-120420099D01*
X55520017Y-120642096D01*
X55520018Y-120642098D01*
X55581029Y-120856530D01*
X55581035Y-120856545D01*
X55680408Y-121056110D01*
X55814766Y-121234029D01*
X55814769Y-121234032D01*
X55924987Y-121334508D01*
X55979526Y-121384227D01*
X56169080Y-121501594D01*
X56376974Y-121582132D01*
X56596127Y-121623099D01*
X56596129Y-121623099D01*
X56819073Y-121623099D01*
X56819075Y-121623099D01*
X57038228Y-121582132D01*
X57246122Y-121501594D01*
X57435676Y-121384227D01*
X57600438Y-121234027D01*
X57734794Y-121056110D01*
X57834171Y-120856535D01*
X57895184Y-120642097D01*
X57915755Y-120420099D01*
X63699446Y-120420099D01*
X63720016Y-120642096D01*
X63720017Y-120642098D01*
X63781028Y-120856530D01*
X63781034Y-120856545D01*
X63880407Y-121056110D01*
X64014765Y-121234029D01*
X64014768Y-121234032D01*
X64124986Y-121334508D01*
X64179525Y-121384227D01*
X64369079Y-121501594D01*
X64576973Y-121582132D01*
X64796126Y-121623099D01*
X64796128Y-121623099D01*
X65019072Y-121623099D01*
X65019074Y-121623099D01*
X65238227Y-121582132D01*
X65446121Y-121501594D01*
X65635675Y-121384227D01*
X65757254Y-121273393D01*
X87274473Y-121273393D01*
X87375571Y-121334508D01*
X87671849Y-121467853D01*
X87671878Y-121467864D01*
X87982062Y-121564520D01*
X88301676Y-121623092D01*
X88626000Y-121642709D01*
X88950323Y-121623092D01*
X89269937Y-121564520D01*
X89580121Y-121467864D01*
X89580150Y-121467853D01*
X89876428Y-121334508D01*
X89977525Y-121273393D01*
X88626000Y-119921868D01*
X87274473Y-121273393D01*
X65757254Y-121273393D01*
X65800437Y-121234027D01*
X65934793Y-121056110D01*
X66034170Y-120856535D01*
X66095183Y-120642097D01*
X66115754Y-120420099D01*
X66095183Y-120198101D01*
X66034170Y-119983663D01*
X65995573Y-119906151D01*
X65985730Y-119886384D01*
X65934793Y-119784088D01*
X65800437Y-119606171D01*
X65800434Y-119606168D01*
X65800431Y-119606165D01*
X65635676Y-119455972D01*
X65635675Y-119455971D01*
X65446121Y-119338604D01*
X65238227Y-119258066D01*
X65019074Y-119217099D01*
X64796126Y-119217099D01*
X64576973Y-119258066D01*
X64576970Y-119258066D01*
X64576970Y-119258067D01*
X64369081Y-119338603D01*
X64369080Y-119338603D01*
X64179523Y-119455972D01*
X64014768Y-119606165D01*
X64014765Y-119606168D01*
X63880407Y-119784087D01*
X63781034Y-119983652D01*
X63781028Y-119983667D01*
X63720017Y-120198099D01*
X63720016Y-120198101D01*
X63699446Y-120420098D01*
X63699446Y-120420099D01*
X57915755Y-120420099D01*
X57895184Y-120198101D01*
X57834171Y-119983663D01*
X57795574Y-119906151D01*
X57785731Y-119886384D01*
X57734794Y-119784088D01*
X57600438Y-119606171D01*
X57600435Y-119606168D01*
X57600432Y-119606165D01*
X57435677Y-119455972D01*
X57435676Y-119455971D01*
X57246122Y-119338604D01*
X57038228Y-119258066D01*
X56819075Y-119217099D01*
X56596127Y-119217099D01*
X56376974Y-119258066D01*
X56376971Y-119258066D01*
X56376971Y-119258067D01*
X56169082Y-119338603D01*
X56169081Y-119338603D01*
X55979524Y-119455972D01*
X55814769Y-119606165D01*
X55814766Y-119606168D01*
X55680408Y-119784087D01*
X55581035Y-119983652D01*
X55581029Y-119983667D01*
X55520018Y-120198099D01*
X55520017Y-120198101D01*
X55499447Y-120420098D01*
X55499447Y-120420099D01*
X41872405Y-120420099D01*
X41872405Y-118952001D01*
X85935291Y-118952001D01*
X85954908Y-119276324D01*
X86013480Y-119595938D01*
X86110136Y-119906122D01*
X86110147Y-119906151D01*
X86243486Y-120202417D01*
X86243495Y-120202433D01*
X86304607Y-120303525D01*
X87656132Y-118952001D01*
X87656132Y-118952000D01*
X87623500Y-118919368D01*
X88190544Y-118919368D01*
X88200271Y-119049171D01*
X88247827Y-119170339D01*
X88328984Y-119272108D01*
X88436533Y-119345433D01*
X88560917Y-119383801D01*
X88658357Y-119383801D01*
X88754713Y-119369278D01*
X88871989Y-119312800D01*
X88967408Y-119224265D01*
X89032491Y-119111537D01*
X89061456Y-118984634D01*
X89059011Y-118952001D01*
X89595867Y-118952001D01*
X90947392Y-120303526D01*
X91008507Y-120202429D01*
X91141852Y-119906151D01*
X91141863Y-119906122D01*
X91238519Y-119595938D01*
X91297091Y-119276324D01*
X91316708Y-118952001D01*
X91297091Y-118627677D01*
X91238519Y-118308063D01*
X91141863Y-117997879D01*
X91141852Y-117997850D01*
X91008507Y-117701572D01*
X90947392Y-117600474D01*
X89595867Y-118952000D01*
X89595867Y-118952001D01*
X89059011Y-118952001D01*
X89051729Y-118854831D01*
X89004173Y-118733663D01*
X88923016Y-118631894D01*
X88815467Y-118558569D01*
X88691083Y-118520201D01*
X88593643Y-118520201D01*
X88497287Y-118534724D01*
X88380011Y-118591202D01*
X88284592Y-118679737D01*
X88219509Y-118792465D01*
X88190544Y-118919368D01*
X87623500Y-118919368D01*
X86304607Y-117600474D01*
X86304606Y-117600475D01*
X86243499Y-117701560D01*
X86243486Y-117701584D01*
X86110147Y-117997850D01*
X86110136Y-117997879D01*
X86013480Y-118308063D01*
X85954908Y-118627677D01*
X85935291Y-118952001D01*
X41872405Y-118952001D01*
X41872405Y-116630608D01*
X87274473Y-116630608D01*
X88625999Y-117982133D01*
X89977524Y-116630608D01*
X89876432Y-116569496D01*
X89876416Y-116569487D01*
X89580150Y-116436148D01*
X89580121Y-116436137D01*
X89311676Y-116352487D01*
X89253528Y-116313750D01*
X89225554Y-116249725D01*
X89236636Y-116180739D01*
X89256416Y-116151130D01*
X89387655Y-116005375D01*
X89486064Y-115834925D01*
X89546884Y-115647740D01*
X89567457Y-115452000D01*
X89546884Y-115256260D01*
X89486064Y-115069075D01*
X89387655Y-114898625D01*
X89336072Y-114841337D01*
X89255963Y-114752365D01*
X89255960Y-114752363D01*
X89255959Y-114752362D01*
X89255958Y-114752361D01*
X89176343Y-114694517D01*
X89096727Y-114636672D01*
X88923082Y-114559362D01*
X88916926Y-114556621D01*
X88916924Y-114556620D01*
X88724409Y-114515700D01*
X88527591Y-114515700D01*
X88335074Y-114556620D01*
X88335069Y-114556622D01*
X88155272Y-114636674D01*
X88155267Y-114636676D01*
X87996042Y-114752360D01*
X87864343Y-114898626D01*
X87765936Y-115069073D01*
X87705117Y-115256256D01*
X87705116Y-115256260D01*
X87684543Y-115452000D01*
X87705116Y-115647740D01*
X87705117Y-115647743D01*
X87765936Y-115834926D01*
X87843548Y-115969353D01*
X87864345Y-116005375D01*
X87934685Y-116083496D01*
X87995583Y-116151130D01*
X88025813Y-116214122D01*
X88017188Y-116283457D01*
X87972446Y-116337122D01*
X87940323Y-116352487D01*
X87671878Y-116436137D01*
X87671849Y-116436148D01*
X87375583Y-116569487D01*
X87375559Y-116569500D01*
X87274474Y-116630607D01*
X87274473Y-116630608D01*
X41872405Y-116630608D01*
X41872405Y-112415248D01*
X62886099Y-112415248D01*
X62905089Y-112704982D01*
X62905091Y-112704994D01*
X62961733Y-112989754D01*
X62961737Y-112989769D01*
X63055069Y-113264714D01*
X63183487Y-113525121D01*
X63344805Y-113766549D01*
X63536249Y-113984850D01*
X63706722Y-114134350D01*
X63754552Y-114176296D01*
X63995975Y-114337610D01*
X63995978Y-114337612D01*
X64243355Y-114459604D01*
X64256389Y-114466032D01*
X64531338Y-114559365D01*
X64816116Y-114616011D01*
X65105852Y-114635001D01*
X65395588Y-114616011D01*
X65680366Y-114559365D01*
X65955315Y-114466032D01*
X66215729Y-114337610D01*
X66457152Y-114176296D01*
X66675454Y-113984850D01*
X66866900Y-113766548D01*
X67028214Y-113525125D01*
X67156636Y-113264711D01*
X67249969Y-112989762D01*
X67306615Y-112704984D01*
X67325605Y-112415248D01*
X67306615Y-112125512D01*
X67249969Y-111840734D01*
X67156636Y-111565785D01*
X67116930Y-111485270D01*
X67028219Y-111305381D01*
X67028210Y-111305366D01*
X66970964Y-111219691D01*
X66866900Y-111063948D01*
X66824954Y-111016118D01*
X66675454Y-110845645D01*
X66457153Y-110654201D01*
X66215725Y-110492883D01*
X65955318Y-110364465D01*
X65680373Y-110271133D01*
X65680367Y-110271131D01*
X65680366Y-110271131D01*
X65680364Y-110271130D01*
X65680358Y-110271129D01*
X65395598Y-110214487D01*
X65395588Y-110214485D01*
X65105852Y-110195495D01*
X64816116Y-110214485D01*
X64816110Y-110214486D01*
X64816105Y-110214487D01*
X64531345Y-110271129D01*
X64531330Y-110271133D01*
X64256385Y-110364465D01*
X63995985Y-110492880D01*
X63995970Y-110492889D01*
X63754550Y-110654201D01*
X63536249Y-110845645D01*
X63344805Y-111063946D01*
X63183493Y-111305366D01*
X63183484Y-111305381D01*
X63055069Y-111565781D01*
X62961737Y-111840726D01*
X62961733Y-111840741D01*
X62905091Y-112125501D01*
X62905089Y-112125513D01*
X62886099Y-112415248D01*
X41872405Y-112415248D01*
X41872405Y-106606805D01*
X55404931Y-106606805D01*
X55536186Y-106672723D01*
X55536187Y-106672724D01*
X55859381Y-106790357D01*
X56194034Y-106869671D01*
X56535643Y-106909598D01*
X56535644Y-106909599D01*
X56879558Y-106909599D01*
X56879558Y-106909598D01*
X57221166Y-106869671D01*
X57221168Y-106869671D01*
X57555820Y-106790357D01*
X57879014Y-106672724D01*
X57879015Y-106672723D01*
X58010269Y-106606805D01*
X63604930Y-106606805D01*
X63736185Y-106672723D01*
X63736186Y-106672724D01*
X64059380Y-106790357D01*
X64394033Y-106869671D01*
X64735642Y-106909598D01*
X64735643Y-106909599D01*
X65079557Y-106909599D01*
X65079557Y-106909598D01*
X65421165Y-106869671D01*
X65421167Y-106869671D01*
X65755819Y-106790357D01*
X66079013Y-106672724D01*
X66079014Y-106672723D01*
X66210268Y-106606805D01*
X66210268Y-106606804D01*
X64907600Y-105304137D01*
X63604930Y-106606804D01*
X63604930Y-106606805D01*
X58010269Y-106606805D01*
X58010269Y-106606804D01*
X56707601Y-105304137D01*
X55404931Y-106606804D01*
X55404931Y-106606805D01*
X41872405Y-106606805D01*
X41872405Y-103957102D01*
X53750097Y-103957102D01*
X53770095Y-104300444D01*
X53770096Y-104300455D01*
X53829814Y-104639137D01*
X53829817Y-104639147D01*
X53928456Y-104968626D01*
X54055203Y-105262457D01*
X54055204Y-105262458D01*
X55275750Y-104041912D01*
X56009101Y-104041912D01*
X56049696Y-104206610D01*
X56128525Y-104356806D01*
X56241008Y-104483774D01*
X56380608Y-104580132D01*
X56539211Y-104640283D01*
X56665351Y-104655599D01*
X56749851Y-104655599D01*
X56875991Y-104640283D01*
X57034594Y-104580132D01*
X57174194Y-104483774D01*
X57286677Y-104356806D01*
X57365506Y-104206610D01*
X57406101Y-104041912D01*
X57406101Y-103957099D01*
X58054639Y-103957099D01*
X59359997Y-105262458D01*
X59486745Y-104968626D01*
X59585384Y-104639147D01*
X59585387Y-104639137D01*
X59645105Y-104300455D01*
X59645106Y-104300444D01*
X59665105Y-103957102D01*
X61950096Y-103957102D01*
X61970094Y-104300444D01*
X61970095Y-104300455D01*
X62029813Y-104639137D01*
X62029816Y-104639147D01*
X62128455Y-104968626D01*
X62255202Y-105262457D01*
X62255203Y-105262458D01*
X63475749Y-104041912D01*
X64209100Y-104041912D01*
X64249695Y-104206610D01*
X64328524Y-104356806D01*
X64441007Y-104483774D01*
X64580607Y-104580132D01*
X64739210Y-104640283D01*
X64865350Y-104655599D01*
X64949850Y-104655599D01*
X65075990Y-104640283D01*
X65234593Y-104580132D01*
X65374193Y-104483774D01*
X65486676Y-104356806D01*
X65565505Y-104206610D01*
X65606100Y-104041912D01*
X65606100Y-103957100D01*
X66254638Y-103957100D01*
X67559996Y-105262458D01*
X67686744Y-104968626D01*
X67785383Y-104639147D01*
X67785386Y-104639137D01*
X67845104Y-104300455D01*
X67845105Y-104300444D01*
X67865104Y-103957102D01*
X67865104Y-103957095D01*
X67845105Y-103613753D01*
X67845104Y-103613742D01*
X67785386Y-103275060D01*
X67785383Y-103275050D01*
X67686744Y-102945571D01*
X67559996Y-102651738D01*
X66254638Y-103957098D01*
X66254638Y-103957100D01*
X65606100Y-103957100D01*
X65606100Y-103872286D01*
X65565505Y-103707588D01*
X65486676Y-103557392D01*
X65374193Y-103430424D01*
X65234593Y-103334066D01*
X65075990Y-103273915D01*
X64949850Y-103258599D01*
X64865350Y-103258599D01*
X64739210Y-103273915D01*
X64580607Y-103334066D01*
X64441007Y-103430424D01*
X64328524Y-103557392D01*
X64249695Y-103707588D01*
X64209100Y-103872286D01*
X64209100Y-104041912D01*
X63475749Y-104041912D01*
X63560562Y-103957099D01*
X63560562Y-103957098D01*
X62255203Y-102651739D01*
X62255202Y-102651739D01*
X62128455Y-102945571D01*
X62029816Y-103275050D01*
X62029813Y-103275060D01*
X61970095Y-103613742D01*
X61970094Y-103613753D01*
X61950096Y-103957095D01*
X61950096Y-103957102D01*
X59665105Y-103957102D01*
X59665105Y-103957095D01*
X59645106Y-103613753D01*
X59645105Y-103613742D01*
X59585387Y-103275060D01*
X59585384Y-103275050D01*
X59486745Y-102945571D01*
X59359997Y-102651738D01*
X58054639Y-103957098D01*
X58054639Y-103957099D01*
X57406101Y-103957099D01*
X57406101Y-103872286D01*
X57365506Y-103707588D01*
X57286677Y-103557392D01*
X57174194Y-103430424D01*
X57034594Y-103334066D01*
X56875991Y-103273915D01*
X56749851Y-103258599D01*
X56665351Y-103258599D01*
X56539211Y-103273915D01*
X56380608Y-103334066D01*
X56241008Y-103430424D01*
X56128525Y-103557392D01*
X56049696Y-103707588D01*
X56009101Y-103872286D01*
X56009101Y-104041912D01*
X55275750Y-104041912D01*
X55360563Y-103957099D01*
X55360563Y-103957098D01*
X54055204Y-102651739D01*
X54055203Y-102651739D01*
X53928456Y-102945571D01*
X53829817Y-103275050D01*
X53829814Y-103275060D01*
X53770096Y-103613742D01*
X53770095Y-103613753D01*
X53750097Y-103957095D01*
X53750097Y-103957102D01*
X41872405Y-103957102D01*
X41872405Y-101307392D01*
X55404932Y-101307392D01*
X56707601Y-102610061D01*
X56707602Y-102610061D01*
X58010268Y-101307392D01*
X63604931Y-101307392D01*
X64907600Y-102610061D01*
X64907601Y-102610061D01*
X66210267Y-101307392D01*
X66079003Y-101241469D01*
X65755819Y-101123840D01*
X65421166Y-101044526D01*
X65079557Y-101004599D01*
X64735643Y-101004599D01*
X64394034Y-101044526D01*
X64394032Y-101044526D01*
X64059380Y-101123840D01*
X63736192Y-101241471D01*
X63604931Y-101307392D01*
X58010268Y-101307392D01*
X57879004Y-101241469D01*
X57555820Y-101123840D01*
X57221167Y-101044526D01*
X56879558Y-101004599D01*
X56535644Y-101004599D01*
X56194035Y-101044526D01*
X56194033Y-101044526D01*
X55859381Y-101123840D01*
X55536193Y-101241471D01*
X55404932Y-101307392D01*
X41872405Y-101307392D01*
X41872405Y-98957099D01*
X55499447Y-98957099D01*
X55520017Y-99179096D01*
X55520018Y-99179098D01*
X55581029Y-99393530D01*
X55581035Y-99393545D01*
X55680408Y-99593110D01*
X55814764Y-99771027D01*
X55979526Y-99921227D01*
X56169080Y-100038594D01*
X56376974Y-100119132D01*
X56596127Y-100160099D01*
X56596129Y-100160099D01*
X56819073Y-100160099D01*
X56819075Y-100160099D01*
X57038228Y-100119132D01*
X57246122Y-100038594D01*
X57435676Y-99921227D01*
X57600438Y-99771027D01*
X57734794Y-99593110D01*
X57834171Y-99393535D01*
X57895184Y-99179097D01*
X57915755Y-98957099D01*
X63699446Y-98957099D01*
X63720016Y-99179096D01*
X63720017Y-99179098D01*
X63781028Y-99393530D01*
X63781034Y-99393545D01*
X63880407Y-99593110D01*
X64014763Y-99771027D01*
X64179525Y-99921227D01*
X64369079Y-100038594D01*
X64576973Y-100119132D01*
X64796126Y-100160099D01*
X64796128Y-100160099D01*
X65019072Y-100160099D01*
X65019074Y-100160099D01*
X65238227Y-100119132D01*
X65446121Y-100038594D01*
X65635675Y-99921227D01*
X65800437Y-99771027D01*
X65934793Y-99593110D01*
X66034170Y-99393535D01*
X66095183Y-99179097D01*
X66115754Y-98957099D01*
X66095183Y-98735101D01*
X66034170Y-98520663D01*
X65934793Y-98321088D01*
X65800437Y-98143171D01*
X65800434Y-98143168D01*
X65800431Y-98143165D01*
X65635676Y-97992972D01*
X65635675Y-97992971D01*
X65446121Y-97875604D01*
X65238227Y-97795066D01*
X65019074Y-97754099D01*
X64796126Y-97754099D01*
X64576973Y-97795066D01*
X64576970Y-97795066D01*
X64576970Y-97795067D01*
X64369081Y-97875603D01*
X64369080Y-97875603D01*
X64179523Y-97992972D01*
X64014768Y-98143165D01*
X64014765Y-98143168D01*
X63880407Y-98321087D01*
X63781034Y-98520652D01*
X63781028Y-98520667D01*
X63720017Y-98735099D01*
X63720016Y-98735101D01*
X63699446Y-98957098D01*
X63699446Y-98957099D01*
X57915755Y-98957099D01*
X57895184Y-98735101D01*
X57834171Y-98520663D01*
X57734794Y-98321088D01*
X57600438Y-98143171D01*
X57600435Y-98143168D01*
X57600432Y-98143165D01*
X57435677Y-97992972D01*
X57435676Y-97992971D01*
X57246122Y-97875604D01*
X57038228Y-97795066D01*
X56819075Y-97754099D01*
X56596127Y-97754099D01*
X56376974Y-97795066D01*
X56376971Y-97795066D01*
X56376971Y-97795067D01*
X56169082Y-97875603D01*
X56169081Y-97875603D01*
X55979524Y-97992972D01*
X55814769Y-98143165D01*
X55814766Y-98143168D01*
X55680408Y-98321087D01*
X55581035Y-98520652D01*
X55581029Y-98520667D01*
X55520018Y-98735099D01*
X55520017Y-98735101D01*
X55499447Y-98957098D01*
X55499447Y-98957099D01*
X41872405Y-98957099D01*
X41872405Y-96810816D01*
X41892090Y-96743777D01*
X41944894Y-96698022D01*
X41996405Y-96686816D01*
X43238642Y-96686816D01*
X43238643Y-96686816D01*
X43264835Y-96679125D01*
X43282118Y-96675366D01*
X43286564Y-96674726D01*
X43309139Y-96671481D01*
X43333969Y-96660140D01*
X43350544Y-96653958D01*
X43376735Y-96646269D01*
X43399702Y-96631508D01*
X43415222Y-96623033D01*
X43440055Y-96611693D01*
X43460688Y-96593813D01*
X43474830Y-96583226D01*
X43497810Y-96568459D01*
X43515697Y-96547815D01*
X43528181Y-96535331D01*
X43548825Y-96517444D01*
X43563592Y-96494464D01*
X43574179Y-96480322D01*
X43592059Y-96459689D01*
X43603399Y-96434856D01*
X43611874Y-96419336D01*
X43626635Y-96396369D01*
X43634324Y-96370178D01*
X43640506Y-96353603D01*
X43651847Y-96328773D01*
X43655732Y-96301752D01*
X43659491Y-96284469D01*
X43667182Y-96258277D01*
X43667182Y-96114355D01*
X43667182Y-89492381D01*
X43667182Y-89456219D01*
X43659491Y-89430026D01*
X43655732Y-89412744D01*
X43651847Y-89385726D01*
X43651847Y-89385723D01*
X43651845Y-89385718D01*
X43640508Y-89360893D01*
X43634325Y-89344316D01*
X43626635Y-89318128D01*
X43626635Y-89318126D01*
X43611874Y-89295158D01*
X43603396Y-89279631D01*
X43602687Y-89278079D01*
X43592059Y-89254807D01*
X43574182Y-89234176D01*
X43563587Y-89220024D01*
X43548825Y-89197052D01*
X43548824Y-89197051D01*
X43528192Y-89179172D01*
X43515688Y-89166668D01*
X43497810Y-89146037D01*
X43497805Y-89146033D01*
X43474842Y-89131275D01*
X43460682Y-89120676D01*
X43453689Y-89114617D01*
X43440055Y-89102803D01*
X43415223Y-89091462D01*
X43399701Y-89082986D01*
X43376735Y-89068227D01*
X43376733Y-89068226D01*
X43350540Y-89060535D01*
X43333970Y-89054354D01*
X43309139Y-89043015D01*
X43282105Y-89039127D01*
X43264836Y-89035370D01*
X43238645Y-89027680D01*
X43238643Y-89027680D01*
X43202481Y-89027680D01*
X41996405Y-89027680D01*
X41929366Y-89007995D01*
X41883611Y-88955191D01*
X41872405Y-88903680D01*
X41872405Y-88877605D01*
X55404931Y-88877605D01*
X55536186Y-88943523D01*
X55536187Y-88943524D01*
X55859381Y-89061157D01*
X56194034Y-89140471D01*
X56535643Y-89180398D01*
X56535644Y-89180399D01*
X56879558Y-89180399D01*
X56879558Y-89180398D01*
X57221166Y-89140471D01*
X57221168Y-89140471D01*
X57555820Y-89061157D01*
X57879014Y-88943524D01*
X57879015Y-88943523D01*
X58010269Y-88877605D01*
X63604930Y-88877605D01*
X63736185Y-88943523D01*
X63736186Y-88943524D01*
X64059380Y-89061157D01*
X64394033Y-89140471D01*
X64735642Y-89180398D01*
X64735643Y-89180399D01*
X65079557Y-89180399D01*
X65079557Y-89180398D01*
X65421165Y-89140471D01*
X65421167Y-89140471D01*
X65755819Y-89061157D01*
X66079013Y-88943524D01*
X66079014Y-88943523D01*
X66162279Y-88901706D01*
X78523331Y-88901706D01*
X78654586Y-88967624D01*
X78654587Y-88967625D01*
X78977781Y-89085258D01*
X79312434Y-89164572D01*
X79654043Y-89204499D01*
X79654044Y-89204500D01*
X79997958Y-89204500D01*
X79997958Y-89204499D01*
X80339566Y-89164572D01*
X80339568Y-89164572D01*
X80674220Y-89085258D01*
X80997414Y-88967625D01*
X80997415Y-88967624D01*
X81128669Y-88901706D01*
X86723330Y-88901706D01*
X86854585Y-88967624D01*
X86854586Y-88967625D01*
X87177780Y-89085258D01*
X87512433Y-89164572D01*
X87854042Y-89204499D01*
X87854043Y-89204500D01*
X88197957Y-89204500D01*
X88197957Y-89204499D01*
X88539565Y-89164572D01*
X88539567Y-89164572D01*
X88874219Y-89085258D01*
X89197413Y-88967625D01*
X89197414Y-88967624D01*
X89328668Y-88901706D01*
X89328668Y-88901705D01*
X88026000Y-87599038D01*
X86723330Y-88901705D01*
X86723330Y-88901706D01*
X81128669Y-88901706D01*
X81128669Y-88901705D01*
X79826001Y-87599038D01*
X78523331Y-88901705D01*
X78523331Y-88901706D01*
X66162279Y-88901706D01*
X66210268Y-88877605D01*
X66210268Y-88877604D01*
X64907600Y-87574937D01*
X63604930Y-88877604D01*
X63604930Y-88877605D01*
X58010269Y-88877605D01*
X58010269Y-88877604D01*
X56707601Y-87574937D01*
X55404931Y-88877604D01*
X55404931Y-88877605D01*
X41872405Y-88877605D01*
X41872405Y-86227902D01*
X53750097Y-86227902D01*
X53770095Y-86571244D01*
X53770096Y-86571255D01*
X53829814Y-86909937D01*
X53829817Y-86909947D01*
X53928456Y-87239426D01*
X54055203Y-87533257D01*
X54055204Y-87533258D01*
X55275750Y-86312712D01*
X56009101Y-86312712D01*
X56049696Y-86477410D01*
X56128525Y-86627606D01*
X56241008Y-86754574D01*
X56380608Y-86850932D01*
X56539211Y-86911083D01*
X56665351Y-86926399D01*
X56749851Y-86926399D01*
X56875991Y-86911083D01*
X57034594Y-86850932D01*
X57174194Y-86754574D01*
X57286677Y-86627606D01*
X57365506Y-86477410D01*
X57406101Y-86312712D01*
X57406101Y-86227899D01*
X58054639Y-86227899D01*
X59359997Y-87533258D01*
X59486745Y-87239426D01*
X59585384Y-86909947D01*
X59585387Y-86909937D01*
X59645105Y-86571255D01*
X59645106Y-86571244D01*
X59665105Y-86227902D01*
X61950096Y-86227902D01*
X61970094Y-86571244D01*
X61970095Y-86571255D01*
X62029813Y-86909937D01*
X62029816Y-86909947D01*
X62128455Y-87239426D01*
X62255202Y-87533257D01*
X62255203Y-87533258D01*
X63475749Y-86312712D01*
X64209100Y-86312712D01*
X64249695Y-86477410D01*
X64328524Y-86627606D01*
X64441007Y-86754574D01*
X64580607Y-86850932D01*
X64739210Y-86911083D01*
X64865350Y-86926399D01*
X64949850Y-86926399D01*
X65075990Y-86911083D01*
X65234593Y-86850932D01*
X65374193Y-86754574D01*
X65486676Y-86627606D01*
X65565505Y-86477410D01*
X65606100Y-86312712D01*
X65606100Y-86227900D01*
X66254638Y-86227900D01*
X67559996Y-87533258D01*
X67686744Y-87239426D01*
X67785383Y-86909947D01*
X67785386Y-86909937D01*
X67845104Y-86571255D01*
X67845105Y-86571244D01*
X67863700Y-86252003D01*
X76868497Y-86252003D01*
X76888495Y-86595345D01*
X76888496Y-86595356D01*
X76948214Y-86934038D01*
X76948217Y-86934048D01*
X77046856Y-87263527D01*
X77173603Y-87557358D01*
X77173604Y-87557359D01*
X78394150Y-86336813D01*
X79127501Y-86336813D01*
X79168096Y-86501511D01*
X79246925Y-86651707D01*
X79359408Y-86778675D01*
X79499008Y-86875033D01*
X79657611Y-86935184D01*
X79783751Y-86950500D01*
X79868251Y-86950500D01*
X79994391Y-86935184D01*
X80152994Y-86875033D01*
X80292594Y-86778675D01*
X80405077Y-86651707D01*
X80483906Y-86501511D01*
X80524501Y-86336813D01*
X80524501Y-86252001D01*
X81173039Y-86252001D01*
X82478397Y-87557359D01*
X82605145Y-87263527D01*
X82703784Y-86934048D01*
X82703787Y-86934038D01*
X82763505Y-86595356D01*
X82763506Y-86595345D01*
X82783505Y-86252003D01*
X85068496Y-86252003D01*
X85088494Y-86595345D01*
X85088495Y-86595356D01*
X85148213Y-86934038D01*
X85148216Y-86934048D01*
X85246855Y-87263527D01*
X85373602Y-87557358D01*
X85373603Y-87557359D01*
X86594149Y-86336813D01*
X87327500Y-86336813D01*
X87368095Y-86501511D01*
X87446924Y-86651707D01*
X87559407Y-86778675D01*
X87699007Y-86875033D01*
X87857610Y-86935184D01*
X87983750Y-86950500D01*
X88068250Y-86950500D01*
X88194390Y-86935184D01*
X88352993Y-86875033D01*
X88492593Y-86778675D01*
X88605076Y-86651707D01*
X88683905Y-86501511D01*
X88724500Y-86336813D01*
X88724500Y-86252000D01*
X89373038Y-86252000D01*
X90678396Y-87557359D01*
X90805144Y-87263527D01*
X90903783Y-86934048D01*
X90903786Y-86934038D01*
X90963504Y-86595356D01*
X90963505Y-86595345D01*
X90983504Y-86252003D01*
X90983504Y-86251996D01*
X90963505Y-85908654D01*
X90963504Y-85908643D01*
X90903786Y-85569961D01*
X90903783Y-85569951D01*
X90805144Y-85240472D01*
X90678396Y-84946639D01*
X89373038Y-86251999D01*
X89373038Y-86252000D01*
X88724500Y-86252000D01*
X88724500Y-86167187D01*
X88683905Y-86002489D01*
X88605076Y-85852293D01*
X88492593Y-85725325D01*
X88352993Y-85628967D01*
X88194390Y-85568816D01*
X88068250Y-85553500D01*
X87983750Y-85553500D01*
X87857610Y-85568816D01*
X87699007Y-85628967D01*
X87559407Y-85725325D01*
X87446924Y-85852293D01*
X87368095Y-86002489D01*
X87327500Y-86167187D01*
X87327500Y-86336813D01*
X86594149Y-86336813D01*
X86678962Y-86252000D01*
X86678962Y-86251999D01*
X85373602Y-84946640D01*
X85246855Y-85240472D01*
X85148216Y-85569951D01*
X85148213Y-85569961D01*
X85088495Y-85908643D01*
X85088494Y-85908654D01*
X85068496Y-86251996D01*
X85068496Y-86252003D01*
X82783505Y-86252003D01*
X82783505Y-86251996D01*
X82763506Y-85908654D01*
X82763505Y-85908643D01*
X82703787Y-85569961D01*
X82703784Y-85569951D01*
X82605145Y-85240472D01*
X82478397Y-84946639D01*
X81173039Y-86251999D01*
X81173039Y-86252001D01*
X80524501Y-86252001D01*
X80524501Y-86167187D01*
X80483906Y-86002489D01*
X80405077Y-85852293D01*
X80292594Y-85725325D01*
X80152994Y-85628967D01*
X79994391Y-85568816D01*
X79868251Y-85553500D01*
X79783751Y-85553500D01*
X79657611Y-85568816D01*
X79499008Y-85628967D01*
X79359408Y-85725325D01*
X79246925Y-85852293D01*
X79168096Y-86002489D01*
X79127501Y-86167187D01*
X79127501Y-86336813D01*
X78394150Y-86336813D01*
X78478963Y-86252000D01*
X78478963Y-86251999D01*
X77173604Y-84946640D01*
X77173603Y-84946640D01*
X77046856Y-85240472D01*
X76948217Y-85569951D01*
X76948214Y-85569961D01*
X76888496Y-85908643D01*
X76888495Y-85908654D01*
X76868497Y-86251996D01*
X76868497Y-86252003D01*
X67863700Y-86252003D01*
X67865104Y-86227902D01*
X67865104Y-86227895D01*
X67845105Y-85884553D01*
X67845104Y-85884542D01*
X67785386Y-85545860D01*
X67785383Y-85545850D01*
X67686744Y-85216371D01*
X67559996Y-84922538D01*
X66254638Y-86227898D01*
X66254638Y-86227900D01*
X65606100Y-86227900D01*
X65606100Y-86143086D01*
X65565505Y-85978388D01*
X65486676Y-85828192D01*
X65374193Y-85701224D01*
X65234593Y-85604866D01*
X65075990Y-85544715D01*
X64949850Y-85529399D01*
X64865350Y-85529399D01*
X64739210Y-85544715D01*
X64580607Y-85604866D01*
X64441007Y-85701224D01*
X64328524Y-85828192D01*
X64249695Y-85978388D01*
X64209100Y-86143086D01*
X64209100Y-86312712D01*
X63475749Y-86312712D01*
X63560562Y-86227899D01*
X63560562Y-86227898D01*
X62255203Y-84922539D01*
X62255202Y-84922539D01*
X62128455Y-85216371D01*
X62029816Y-85545850D01*
X62029813Y-85545860D01*
X61970095Y-85884542D01*
X61970094Y-85884553D01*
X61950096Y-86227895D01*
X61950096Y-86227902D01*
X59665105Y-86227902D01*
X59665105Y-86227895D01*
X59645106Y-85884553D01*
X59645105Y-85884542D01*
X59585387Y-85545860D01*
X59585384Y-85545850D01*
X59486745Y-85216371D01*
X59359997Y-84922538D01*
X58054639Y-86227898D01*
X58054639Y-86227899D01*
X57406101Y-86227899D01*
X57406101Y-86143086D01*
X57365506Y-85978388D01*
X57286677Y-85828192D01*
X57174194Y-85701224D01*
X57034594Y-85604866D01*
X56875991Y-85544715D01*
X56749851Y-85529399D01*
X56665351Y-85529399D01*
X56539211Y-85544715D01*
X56380608Y-85604866D01*
X56241008Y-85701224D01*
X56128525Y-85828192D01*
X56049696Y-85978388D01*
X56009101Y-86143086D01*
X56009101Y-86312712D01*
X55275750Y-86312712D01*
X55360563Y-86227899D01*
X55360563Y-86227898D01*
X54055204Y-84922539D01*
X54055203Y-84922539D01*
X53928456Y-85216371D01*
X53829817Y-85545850D01*
X53829814Y-85545860D01*
X53770096Y-85884542D01*
X53770095Y-85884553D01*
X53750097Y-86227895D01*
X53750097Y-86227902D01*
X41872405Y-86227902D01*
X41872405Y-83578192D01*
X55404932Y-83578192D01*
X56707601Y-84880861D01*
X56707602Y-84880861D01*
X58010268Y-83578192D01*
X63604931Y-83578192D01*
X64907600Y-84880861D01*
X64907601Y-84880861D01*
X66036459Y-83752000D01*
X78673039Y-83752000D01*
X79826001Y-84904962D01*
X80978963Y-83752000D01*
X86873038Y-83752000D01*
X88026000Y-84904962D01*
X89178962Y-83752000D01*
X88026000Y-82599038D01*
X86873038Y-83752000D01*
X80978963Y-83752000D01*
X79826001Y-82599038D01*
X78673039Y-83752000D01*
X66036459Y-83752000D01*
X66210267Y-83578192D01*
X66079003Y-83512269D01*
X65755819Y-83394640D01*
X65421166Y-83315326D01*
X65079557Y-83275399D01*
X64735643Y-83275399D01*
X64394034Y-83315326D01*
X64394032Y-83315326D01*
X64059380Y-83394640D01*
X63736192Y-83512271D01*
X63604931Y-83578192D01*
X58010268Y-83578192D01*
X57879004Y-83512269D01*
X57555820Y-83394640D01*
X57221167Y-83315326D01*
X56879558Y-83275399D01*
X56535644Y-83275399D01*
X56194035Y-83315326D01*
X56194033Y-83315326D01*
X55859381Y-83394640D01*
X55536193Y-83512271D01*
X55404932Y-83578192D01*
X41872405Y-83578192D01*
X41872405Y-81227899D01*
X55499447Y-81227899D01*
X55520017Y-81449896D01*
X55520018Y-81449898D01*
X55581029Y-81664330D01*
X55581035Y-81664345D01*
X55680408Y-81863910D01*
X55814764Y-82041827D01*
X55979526Y-82192027D01*
X56169080Y-82309394D01*
X56376974Y-82389932D01*
X56596127Y-82430899D01*
X56596129Y-82430899D01*
X56819073Y-82430899D01*
X56819075Y-82430899D01*
X57038228Y-82389932D01*
X57246122Y-82309394D01*
X57435676Y-82192027D01*
X57600438Y-82041827D01*
X57734794Y-81863910D01*
X57834171Y-81664335D01*
X57895184Y-81449897D01*
X57915755Y-81227899D01*
X63699446Y-81227899D01*
X63720016Y-81449896D01*
X63720017Y-81449898D01*
X63781028Y-81664330D01*
X63781034Y-81664345D01*
X63880407Y-81863910D01*
X64014763Y-82041827D01*
X64179525Y-82192027D01*
X64369079Y-82309394D01*
X64576973Y-82389932D01*
X64796126Y-82430899D01*
X64796128Y-82430899D01*
X65019072Y-82430899D01*
X65019074Y-82430899D01*
X65238227Y-82389932D01*
X65446121Y-82309394D01*
X65635675Y-82192027D01*
X65800437Y-82041827D01*
X65934793Y-81863910D01*
X66034170Y-81664335D01*
X66095183Y-81449897D01*
X66113520Y-81252003D01*
X76868497Y-81252003D01*
X76888495Y-81595345D01*
X76888496Y-81595356D01*
X76948214Y-81934038D01*
X76948217Y-81934048D01*
X77046856Y-82263527D01*
X77173603Y-82557358D01*
X77173604Y-82557359D01*
X78394150Y-81336813D01*
X79127501Y-81336813D01*
X79168096Y-81501511D01*
X79246925Y-81651707D01*
X79359408Y-81778675D01*
X79499008Y-81875033D01*
X79657611Y-81935184D01*
X79783751Y-81950500D01*
X79868251Y-81950500D01*
X79994391Y-81935184D01*
X80152994Y-81875033D01*
X80292594Y-81778675D01*
X80405077Y-81651707D01*
X80483906Y-81501511D01*
X80524501Y-81336813D01*
X80524501Y-81252001D01*
X81173039Y-81252001D01*
X82478397Y-82557359D01*
X82605145Y-82263527D01*
X82703784Y-81934048D01*
X82703787Y-81934038D01*
X82763505Y-81595356D01*
X82763506Y-81595345D01*
X82783505Y-81252003D01*
X85068496Y-81252003D01*
X85088494Y-81595345D01*
X85088495Y-81595356D01*
X85148213Y-81934038D01*
X85148216Y-81934048D01*
X85246855Y-82263527D01*
X85373602Y-82557358D01*
X85373603Y-82557359D01*
X86594149Y-81336813D01*
X87327500Y-81336813D01*
X87368095Y-81501511D01*
X87446924Y-81651707D01*
X87559407Y-81778675D01*
X87699007Y-81875033D01*
X87857610Y-81935184D01*
X87983750Y-81950500D01*
X88068250Y-81950500D01*
X88194390Y-81935184D01*
X88352993Y-81875033D01*
X88492593Y-81778675D01*
X88605076Y-81651707D01*
X88683905Y-81501511D01*
X88724500Y-81336813D01*
X88724500Y-81252000D01*
X89373038Y-81252000D01*
X90678396Y-82557359D01*
X90805144Y-82263527D01*
X90903783Y-81934048D01*
X90903786Y-81934038D01*
X90963504Y-81595356D01*
X90963505Y-81595345D01*
X90983504Y-81252003D01*
X90983504Y-81251996D01*
X90963505Y-80908654D01*
X90963504Y-80908643D01*
X90903786Y-80569961D01*
X90903783Y-80569951D01*
X90805144Y-80240472D01*
X90678396Y-79946639D01*
X89373038Y-81251999D01*
X89373038Y-81252000D01*
X88724500Y-81252000D01*
X88724500Y-81167187D01*
X88683905Y-81002489D01*
X88605076Y-80852293D01*
X88492593Y-80725325D01*
X88352993Y-80628967D01*
X88194390Y-80568816D01*
X88068250Y-80553500D01*
X87983750Y-80553500D01*
X87857610Y-80568816D01*
X87699007Y-80628967D01*
X87559407Y-80725325D01*
X87446924Y-80852293D01*
X87368095Y-81002489D01*
X87327500Y-81167187D01*
X87327500Y-81336813D01*
X86594149Y-81336813D01*
X86678962Y-81252000D01*
X86678962Y-81251999D01*
X85373602Y-79946640D01*
X85246855Y-80240472D01*
X85148216Y-80569951D01*
X85148213Y-80569961D01*
X85088495Y-80908643D01*
X85088494Y-80908654D01*
X85068496Y-81251996D01*
X85068496Y-81252003D01*
X82783505Y-81252003D01*
X82783505Y-81251996D01*
X82763506Y-80908654D01*
X82763505Y-80908643D01*
X82703787Y-80569961D01*
X82703784Y-80569951D01*
X82605145Y-80240472D01*
X82478397Y-79946639D01*
X81173039Y-81251999D01*
X81173039Y-81252001D01*
X80524501Y-81252001D01*
X80524501Y-81167187D01*
X80483906Y-81002489D01*
X80405077Y-80852293D01*
X80292594Y-80725325D01*
X80152994Y-80628967D01*
X79994391Y-80568816D01*
X79868251Y-80553500D01*
X79783751Y-80553500D01*
X79657611Y-80568816D01*
X79499008Y-80628967D01*
X79359408Y-80725325D01*
X79246925Y-80852293D01*
X79168096Y-81002489D01*
X79127501Y-81167187D01*
X79127501Y-81336813D01*
X78394150Y-81336813D01*
X78478963Y-81252000D01*
X78478963Y-81251999D01*
X77173604Y-79946640D01*
X77173603Y-79946640D01*
X77046856Y-80240472D01*
X76948217Y-80569951D01*
X76948214Y-80569961D01*
X76888496Y-80908643D01*
X76888495Y-80908654D01*
X76868497Y-81251996D01*
X76868497Y-81252003D01*
X66113520Y-81252003D01*
X66115754Y-81227899D01*
X66095183Y-81005901D01*
X66034170Y-80791463D01*
X65934793Y-80591888D01*
X65800437Y-80413971D01*
X65800434Y-80413968D01*
X65800431Y-80413965D01*
X65635676Y-80263772D01*
X65635675Y-80263771D01*
X65446121Y-80146404D01*
X65238227Y-80065866D01*
X65019074Y-80024899D01*
X64796126Y-80024899D01*
X64576973Y-80065866D01*
X64576970Y-80065866D01*
X64576970Y-80065867D01*
X64369081Y-80146403D01*
X64369080Y-80146403D01*
X64179523Y-80263772D01*
X64014768Y-80413965D01*
X64014765Y-80413968D01*
X63880407Y-80591887D01*
X63781034Y-80791452D01*
X63781028Y-80791467D01*
X63720017Y-81005899D01*
X63720016Y-81005901D01*
X63699446Y-81227898D01*
X63699446Y-81227899D01*
X57915755Y-81227899D01*
X57895184Y-81005901D01*
X57834171Y-80791463D01*
X57734794Y-80591888D01*
X57600438Y-80413971D01*
X57600435Y-80413968D01*
X57600432Y-80413965D01*
X57435677Y-80263772D01*
X57435676Y-80263771D01*
X57246122Y-80146404D01*
X57038228Y-80065866D01*
X56819075Y-80024899D01*
X56596127Y-80024899D01*
X56376974Y-80065866D01*
X56376971Y-80065866D01*
X56376971Y-80065867D01*
X56169082Y-80146403D01*
X56169081Y-80146403D01*
X55979524Y-80263772D01*
X55814769Y-80413965D01*
X55814766Y-80413968D01*
X55680408Y-80591887D01*
X55581035Y-80791452D01*
X55581029Y-80791467D01*
X55520018Y-81005899D01*
X55520017Y-81005901D01*
X55499447Y-81227898D01*
X55499447Y-81227899D01*
X41872405Y-81227899D01*
X41872405Y-78602293D01*
X78523332Y-78602293D01*
X79826001Y-79904962D01*
X79826002Y-79904962D01*
X81128668Y-78602293D01*
X86723331Y-78602293D01*
X88026000Y-79904962D01*
X88026001Y-79904962D01*
X89328667Y-78602293D01*
X89197403Y-78536370D01*
X88874219Y-78418741D01*
X88539566Y-78339427D01*
X88197957Y-78299500D01*
X87854043Y-78299500D01*
X87512434Y-78339427D01*
X87512432Y-78339427D01*
X87177780Y-78418741D01*
X86854592Y-78536372D01*
X86723331Y-78602293D01*
X81128668Y-78602293D01*
X80997404Y-78536370D01*
X80674220Y-78418741D01*
X80339567Y-78339427D01*
X79997958Y-78299500D01*
X79654044Y-78299500D01*
X79312435Y-78339427D01*
X79312433Y-78339427D01*
X78977781Y-78418741D01*
X78654593Y-78536372D01*
X78523332Y-78602293D01*
X41872405Y-78602293D01*
X41872405Y-73299248D01*
X62886099Y-73299248D01*
X62905089Y-73588982D01*
X62905091Y-73588994D01*
X62961733Y-73873754D01*
X62961737Y-73873769D01*
X63055069Y-74148714D01*
X63183487Y-74409121D01*
X63344805Y-74650549D01*
X63536249Y-74868850D01*
X63706722Y-75018350D01*
X63754552Y-75060296D01*
X63995975Y-75221610D01*
X63995978Y-75221612D01*
X64243355Y-75343604D01*
X64256389Y-75350032D01*
X64531338Y-75443365D01*
X64816116Y-75500011D01*
X65105852Y-75519001D01*
X65395588Y-75500011D01*
X65680366Y-75443365D01*
X65955315Y-75350032D01*
X66215729Y-75221610D01*
X66457152Y-75060296D01*
X66675454Y-74868850D01*
X66866900Y-74650548D01*
X67028214Y-74409125D01*
X67156636Y-74148711D01*
X67249969Y-73873762D01*
X67306615Y-73588984D01*
X67325605Y-73299248D01*
X67306615Y-73009512D01*
X67249969Y-72724734D01*
X67156636Y-72449785D01*
X67116930Y-72369270D01*
X67028219Y-72189381D01*
X67028210Y-72189366D01*
X66970964Y-72103691D01*
X66866900Y-71947948D01*
X66824954Y-71900118D01*
X66675454Y-71729645D01*
X66457153Y-71538201D01*
X66215725Y-71376883D01*
X65955318Y-71248465D01*
X65680373Y-71155133D01*
X65680367Y-71155131D01*
X65680366Y-71155131D01*
X65680364Y-71155130D01*
X65680358Y-71155129D01*
X65395598Y-71098487D01*
X65395588Y-71098485D01*
X65105852Y-71079495D01*
X64816116Y-71098485D01*
X64816110Y-71098486D01*
X64816105Y-71098487D01*
X64531345Y-71155129D01*
X64531330Y-71155133D01*
X64256385Y-71248465D01*
X63995985Y-71376880D01*
X63995970Y-71376889D01*
X63754550Y-71538201D01*
X63536249Y-71729645D01*
X63344805Y-71947946D01*
X63183493Y-72189366D01*
X63183484Y-72189381D01*
X63055069Y-72449781D01*
X62961737Y-72724726D01*
X62961733Y-72724741D01*
X62905091Y-73009501D01*
X62905089Y-73009513D01*
X62886099Y-73299248D01*
X41872405Y-73299248D01*
X41872405Y-68479706D01*
X55379730Y-68479706D01*
X55510985Y-68545624D01*
X55510986Y-68545625D01*
X55834180Y-68663258D01*
X56168833Y-68742572D01*
X56510442Y-68782499D01*
X56510443Y-68782500D01*
X56854357Y-68782500D01*
X56854357Y-68782499D01*
X57195965Y-68742572D01*
X57195967Y-68742572D01*
X57530619Y-68663258D01*
X57853813Y-68545625D01*
X57853814Y-68545624D01*
X57985068Y-68479706D01*
X63579729Y-68479706D01*
X63710984Y-68545624D01*
X63710985Y-68545625D01*
X64034179Y-68663258D01*
X64368832Y-68742572D01*
X64710441Y-68782499D01*
X64710442Y-68782500D01*
X65054356Y-68782500D01*
X65054356Y-68782499D01*
X65395964Y-68742572D01*
X65395966Y-68742572D01*
X65730618Y-68663258D01*
X66053812Y-68545625D01*
X66053813Y-68545624D01*
X66185067Y-68479706D01*
X66185067Y-68479705D01*
X64882399Y-67177038D01*
X63579729Y-68479705D01*
X63579729Y-68479706D01*
X57985068Y-68479706D01*
X57985068Y-68479705D01*
X56682400Y-67177038D01*
X55379730Y-68479705D01*
X55379730Y-68479706D01*
X41872405Y-68479706D01*
X41872405Y-65830003D01*
X53724896Y-65830003D01*
X53744894Y-66173345D01*
X53744895Y-66173356D01*
X53804613Y-66512038D01*
X53804616Y-66512048D01*
X53903255Y-66841527D01*
X54030002Y-67135358D01*
X54030003Y-67135359D01*
X55250549Y-65914813D01*
X55983900Y-65914813D01*
X56024495Y-66079511D01*
X56103324Y-66229707D01*
X56215807Y-66356675D01*
X56355407Y-66453033D01*
X56514010Y-66513184D01*
X56640150Y-66528500D01*
X56724650Y-66528500D01*
X56850790Y-66513184D01*
X57009393Y-66453033D01*
X57148993Y-66356675D01*
X57261476Y-66229707D01*
X57340305Y-66079511D01*
X57380900Y-65914813D01*
X57380900Y-65830001D01*
X58029438Y-65830001D01*
X59334796Y-67135359D01*
X59461544Y-66841527D01*
X59560183Y-66512048D01*
X59560186Y-66512038D01*
X59619904Y-66173356D01*
X59619905Y-66173345D01*
X59639904Y-65830003D01*
X61924895Y-65830003D01*
X61944893Y-66173345D01*
X61944894Y-66173356D01*
X62004612Y-66512038D01*
X62004615Y-66512048D01*
X62103254Y-66841527D01*
X62230001Y-67135358D01*
X62230002Y-67135359D01*
X63450548Y-65914813D01*
X64183899Y-65914813D01*
X64224494Y-66079511D01*
X64303323Y-66229707D01*
X64415806Y-66356675D01*
X64555406Y-66453033D01*
X64714009Y-66513184D01*
X64840149Y-66528500D01*
X64924649Y-66528500D01*
X65050789Y-66513184D01*
X65209392Y-66453033D01*
X65348992Y-66356675D01*
X65461475Y-66229707D01*
X65540304Y-66079511D01*
X65580899Y-65914813D01*
X65580899Y-65830001D01*
X66229437Y-65830001D01*
X67534795Y-67135359D01*
X67661543Y-66841527D01*
X67760182Y-66512048D01*
X67760185Y-66512038D01*
X67819903Y-66173356D01*
X67819904Y-66173345D01*
X67839903Y-65830003D01*
X67839903Y-65829996D01*
X67819904Y-65486654D01*
X67819903Y-65486643D01*
X67760185Y-65147961D01*
X67760182Y-65147951D01*
X67661543Y-64818472D01*
X67534795Y-64524639D01*
X66229437Y-65829999D01*
X66229437Y-65830001D01*
X65580899Y-65830001D01*
X65580899Y-65745187D01*
X65540304Y-65580489D01*
X65461475Y-65430293D01*
X65348992Y-65303325D01*
X65209392Y-65206967D01*
X65050789Y-65146816D01*
X64924649Y-65131500D01*
X64840149Y-65131500D01*
X64714009Y-65146816D01*
X64555406Y-65206967D01*
X64415806Y-65303325D01*
X64303323Y-65430293D01*
X64224494Y-65580489D01*
X64183899Y-65745187D01*
X64183899Y-65914813D01*
X63450548Y-65914813D01*
X63535361Y-65830000D01*
X63535361Y-65829999D01*
X62230002Y-64524640D01*
X62230001Y-64524640D01*
X62103254Y-64818472D01*
X62004615Y-65147951D01*
X62004612Y-65147961D01*
X61944894Y-65486643D01*
X61944893Y-65486654D01*
X61924895Y-65829996D01*
X61924895Y-65830003D01*
X59639904Y-65830003D01*
X59639904Y-65829996D01*
X59619905Y-65486654D01*
X59619904Y-65486643D01*
X59560186Y-65147961D01*
X59560183Y-65147951D01*
X59461544Y-64818472D01*
X59334796Y-64524639D01*
X58029438Y-65829999D01*
X58029438Y-65830001D01*
X57380900Y-65830001D01*
X57380900Y-65745187D01*
X57340305Y-65580489D01*
X57261476Y-65430293D01*
X57148993Y-65303325D01*
X57009393Y-65206967D01*
X56850790Y-65146816D01*
X56724650Y-65131500D01*
X56640150Y-65131500D01*
X56514010Y-65146816D01*
X56355407Y-65206967D01*
X56215807Y-65303325D01*
X56103324Y-65430293D01*
X56024495Y-65580489D01*
X55983900Y-65745187D01*
X55983900Y-65914813D01*
X55250549Y-65914813D01*
X55335362Y-65830000D01*
X55335362Y-65829999D01*
X54030003Y-64524640D01*
X54030002Y-64524640D01*
X53903255Y-64818472D01*
X53804616Y-65147951D01*
X53804613Y-65147961D01*
X53744895Y-65486643D01*
X53744894Y-65486654D01*
X53724896Y-65829996D01*
X53724896Y-65830003D01*
X41872405Y-65830003D01*
X41872405Y-63180293D01*
X55379731Y-63180293D01*
X56682400Y-64482962D01*
X56682401Y-64482962D01*
X57985067Y-63180293D01*
X63579730Y-63180293D01*
X64882399Y-64482962D01*
X64882400Y-64482962D01*
X66185066Y-63180293D01*
X66053802Y-63114370D01*
X65730618Y-62996741D01*
X65395965Y-62917427D01*
X65054356Y-62877500D01*
X64710442Y-62877500D01*
X64368833Y-62917427D01*
X64368831Y-62917427D01*
X64034179Y-62996741D01*
X63710991Y-63114372D01*
X63579730Y-63180293D01*
X57985067Y-63180293D01*
X57853803Y-63114370D01*
X57530619Y-62996741D01*
X57195966Y-62917427D01*
X56854357Y-62877500D01*
X56510443Y-62877500D01*
X56168834Y-62917427D01*
X56168832Y-62917427D01*
X55834180Y-62996741D01*
X55510992Y-63114372D01*
X55379731Y-63180293D01*
X41872405Y-63180293D01*
X41872405Y-60830000D01*
X55474246Y-60830000D01*
X55494816Y-61051997D01*
X55494817Y-61051999D01*
X55555828Y-61266431D01*
X55555834Y-61266446D01*
X55655207Y-61466011D01*
X55789563Y-61643928D01*
X55954325Y-61794128D01*
X56143879Y-61911495D01*
X56351773Y-61992033D01*
X56570926Y-62033000D01*
X56570928Y-62033000D01*
X56793872Y-62033000D01*
X56793874Y-62033000D01*
X57013027Y-61992033D01*
X57220921Y-61911495D01*
X57410475Y-61794128D01*
X57575237Y-61643928D01*
X57709593Y-61466011D01*
X57808970Y-61266436D01*
X57869983Y-61051998D01*
X57890554Y-60830000D01*
X63674245Y-60830000D01*
X63694815Y-61051997D01*
X63694816Y-61051999D01*
X63755827Y-61266431D01*
X63755833Y-61266446D01*
X63855206Y-61466011D01*
X63989562Y-61643928D01*
X64154324Y-61794128D01*
X64343878Y-61911495D01*
X64551772Y-61992033D01*
X64770925Y-62033000D01*
X64770927Y-62033000D01*
X64993871Y-62033000D01*
X64993873Y-62033000D01*
X65213026Y-61992033D01*
X65420920Y-61911495D01*
X65610474Y-61794128D01*
X65775236Y-61643928D01*
X65909592Y-61466011D01*
X66008969Y-61266436D01*
X66069982Y-61051998D01*
X66090553Y-60830000D01*
X66069982Y-60608002D01*
X66008969Y-60393564D01*
X65986836Y-60349116D01*
X65925091Y-60225116D01*
X65909592Y-60193989D01*
X65775236Y-60016072D01*
X65775233Y-60016069D01*
X65775230Y-60016066D01*
X65610475Y-59865873D01*
X65610474Y-59865872D01*
X65420920Y-59748505D01*
X65213026Y-59667967D01*
X64993873Y-59627000D01*
X64770925Y-59627000D01*
X64551772Y-59667967D01*
X64551769Y-59667967D01*
X64551769Y-59667968D01*
X64343880Y-59748504D01*
X64343879Y-59748504D01*
X64154322Y-59865873D01*
X63989567Y-60016066D01*
X63989564Y-60016069D01*
X63855206Y-60193988D01*
X63755833Y-60393553D01*
X63755827Y-60393568D01*
X63694816Y-60608000D01*
X63694815Y-60608002D01*
X63674245Y-60829999D01*
X63674245Y-60830000D01*
X57890554Y-60830000D01*
X57869983Y-60608002D01*
X57808970Y-60393564D01*
X57786837Y-60349116D01*
X57725092Y-60225116D01*
X57709593Y-60193989D01*
X57575237Y-60016072D01*
X57575234Y-60016069D01*
X57575231Y-60016066D01*
X57410476Y-59865873D01*
X57410475Y-59865872D01*
X57220921Y-59748505D01*
X57013027Y-59667967D01*
X56793874Y-59627000D01*
X56570926Y-59627000D01*
X56351773Y-59667967D01*
X56351770Y-59667967D01*
X56351770Y-59667968D01*
X56143881Y-59748504D01*
X56143880Y-59748504D01*
X55954323Y-59865873D01*
X55789568Y-60016066D01*
X55789565Y-60016069D01*
X55655207Y-60193988D01*
X55555834Y-60393553D01*
X55555828Y-60393568D01*
X55494817Y-60608000D01*
X55494816Y-60608002D01*
X55474246Y-60829999D01*
X55474246Y-60830000D01*
X41872405Y-60830000D01*
X41872405Y-60349116D01*
X41892090Y-60282077D01*
X41944894Y-60236322D01*
X41996405Y-60225116D01*
X43238642Y-60225116D01*
X43238643Y-60225116D01*
X43264835Y-60217425D01*
X43282118Y-60213666D01*
X43286564Y-60213026D01*
X43309139Y-60209781D01*
X43333969Y-60198440D01*
X43350544Y-60192258D01*
X43376735Y-60184569D01*
X43399702Y-60169808D01*
X43415222Y-60161333D01*
X43440055Y-60149993D01*
X43460688Y-60132113D01*
X43474830Y-60121526D01*
X43497810Y-60106759D01*
X43515697Y-60086115D01*
X43528181Y-60073631D01*
X43548825Y-60055744D01*
X43563592Y-60032764D01*
X43574179Y-60018622D01*
X43592059Y-59997989D01*
X43603399Y-59973156D01*
X43611874Y-59957636D01*
X43626635Y-59934669D01*
X43634324Y-59908478D01*
X43640506Y-59891903D01*
X43651847Y-59867073D01*
X43655732Y-59840052D01*
X43659491Y-59822769D01*
X43667182Y-59796577D01*
X43667182Y-59652655D01*
X43667182Y-53030681D01*
X43667182Y-52994519D01*
X43659491Y-52968326D01*
X43655732Y-52951044D01*
X43651847Y-52924026D01*
X43651847Y-52924023D01*
X43651845Y-52924018D01*
X43640508Y-52899193D01*
X43634325Y-52882616D01*
X43626635Y-52856428D01*
X43626635Y-52856426D01*
X43611874Y-52833458D01*
X43603396Y-52817931D01*
X43602687Y-52816379D01*
X43592059Y-52793107D01*
X43574182Y-52772476D01*
X43563587Y-52758324D01*
X43548825Y-52735352D01*
X43548824Y-52735351D01*
X43528192Y-52717472D01*
X43515688Y-52704968D01*
X43497810Y-52684337D01*
X43497805Y-52684333D01*
X43474842Y-52669575D01*
X43460682Y-52658976D01*
X43453689Y-52652917D01*
X43440055Y-52641103D01*
X43415223Y-52629762D01*
X43399701Y-52621286D01*
X43376735Y-52606527D01*
X43376733Y-52606526D01*
X43350540Y-52598835D01*
X43333970Y-52592654D01*
X43309139Y-52581315D01*
X43282105Y-52577427D01*
X43264836Y-52573670D01*
X43238645Y-52565980D01*
X43238643Y-52565980D01*
X43202481Y-52565980D01*
X41996405Y-52565980D01*
X41929366Y-52546295D01*
X41883611Y-52493491D01*
X41874585Y-52452000D01*
X78517847Y-52452000D01*
X78538417Y-52673997D01*
X78538418Y-52673999D01*
X78599429Y-52888431D01*
X78599435Y-52888446D01*
X78652254Y-52994519D01*
X78698808Y-53088011D01*
X78833164Y-53265928D01*
X78997926Y-53416128D01*
X79187480Y-53533495D01*
X79395374Y-53614033D01*
X79614527Y-53655000D01*
X79614529Y-53655000D01*
X79837473Y-53655000D01*
X79837475Y-53655000D01*
X80056628Y-53614033D01*
X80264522Y-53533495D01*
X80454076Y-53416128D01*
X80618838Y-53265928D01*
X80753194Y-53088011D01*
X80852571Y-52888436D01*
X80913584Y-52673998D01*
X80934155Y-52452000D01*
X86717846Y-52452000D01*
X86738416Y-52673997D01*
X86738417Y-52673999D01*
X86799428Y-52888431D01*
X86799434Y-52888446D01*
X86852253Y-52994519D01*
X86898807Y-53088011D01*
X87033163Y-53265928D01*
X87197925Y-53416128D01*
X87387479Y-53533495D01*
X87595373Y-53614033D01*
X87814526Y-53655000D01*
X87814528Y-53655000D01*
X88037472Y-53655000D01*
X88037474Y-53655000D01*
X88256627Y-53614033D01*
X88464521Y-53533495D01*
X88654075Y-53416128D01*
X88818837Y-53265928D01*
X88953193Y-53088011D01*
X89052570Y-52888436D01*
X89113583Y-52673998D01*
X89134154Y-52452000D01*
X89113583Y-52230002D01*
X89052570Y-52015564D01*
X88953193Y-51815989D01*
X88818837Y-51638072D01*
X88818834Y-51638069D01*
X88818831Y-51638066D01*
X88654076Y-51487873D01*
X88654075Y-51487872D01*
X88464521Y-51370505D01*
X88256627Y-51289967D01*
X88037474Y-51249000D01*
X87814526Y-51249000D01*
X87595373Y-51289967D01*
X87595370Y-51289967D01*
X87595370Y-51289968D01*
X87387481Y-51370504D01*
X87387480Y-51370504D01*
X87197923Y-51487873D01*
X87033168Y-51638066D01*
X87033165Y-51638069D01*
X86898807Y-51815988D01*
X86799434Y-52015553D01*
X86799428Y-52015568D01*
X86738417Y-52230000D01*
X86738416Y-52230002D01*
X86717846Y-52451999D01*
X86717846Y-52452000D01*
X80934155Y-52452000D01*
X80913584Y-52230002D01*
X80852571Y-52015564D01*
X80753194Y-51815989D01*
X80618838Y-51638072D01*
X80618835Y-51638069D01*
X80618832Y-51638066D01*
X80454077Y-51487873D01*
X80454076Y-51487872D01*
X80264522Y-51370505D01*
X80056628Y-51289967D01*
X79837475Y-51249000D01*
X79614527Y-51249000D01*
X79395374Y-51289967D01*
X79395371Y-51289967D01*
X79395371Y-51289968D01*
X79187482Y-51370504D01*
X79187481Y-51370504D01*
X78997924Y-51487873D01*
X78833169Y-51638066D01*
X78833166Y-51638069D01*
X78698808Y-51815988D01*
X78599435Y-52015553D01*
X78599429Y-52015568D01*
X78538418Y-52230000D01*
X78538417Y-52230002D01*
X78517847Y-52451999D01*
X78517847Y-52452000D01*
X41874585Y-52452000D01*
X41872405Y-52441980D01*
X41872405Y-47452000D01*
X78517847Y-47452000D01*
X78538417Y-47673997D01*
X78538418Y-47673999D01*
X78599429Y-47888431D01*
X78599435Y-47888446D01*
X78698808Y-48088011D01*
X78833164Y-48265928D01*
X78997926Y-48416128D01*
X79187480Y-48533495D01*
X79395374Y-48614033D01*
X79614527Y-48655000D01*
X79614529Y-48655000D01*
X79837473Y-48655000D01*
X79837475Y-48655000D01*
X80056628Y-48614033D01*
X80264522Y-48533495D01*
X80454076Y-48416128D01*
X80618838Y-48265928D01*
X80753194Y-48088011D01*
X80852571Y-47888436D01*
X80913584Y-47673998D01*
X80934155Y-47452000D01*
X86717846Y-47452000D01*
X86738416Y-47673997D01*
X86738417Y-47673999D01*
X86799428Y-47888431D01*
X86799434Y-47888446D01*
X86898807Y-48088011D01*
X87033163Y-48265928D01*
X87197925Y-48416128D01*
X87387479Y-48533495D01*
X87595373Y-48614033D01*
X87814526Y-48655000D01*
X87814528Y-48655000D01*
X88037472Y-48655000D01*
X88037474Y-48655000D01*
X88256627Y-48614033D01*
X88464521Y-48533495D01*
X88654075Y-48416128D01*
X88818837Y-48265928D01*
X88953193Y-48088011D01*
X89052570Y-47888436D01*
X89113583Y-47673998D01*
X89134154Y-47452000D01*
X89113583Y-47230002D01*
X89052570Y-47015564D01*
X88953193Y-46815989D01*
X88818837Y-46638072D01*
X88818834Y-46638069D01*
X88818831Y-46638066D01*
X88654076Y-46487873D01*
X88654075Y-46487872D01*
X88464521Y-46370505D01*
X88256627Y-46289967D01*
X88037474Y-46249000D01*
X87814526Y-46249000D01*
X87595373Y-46289967D01*
X87595370Y-46289967D01*
X87595370Y-46289968D01*
X87387481Y-46370504D01*
X87387480Y-46370504D01*
X87197923Y-46487873D01*
X87033168Y-46638066D01*
X87033165Y-46638069D01*
X86898807Y-46815988D01*
X86799434Y-47015553D01*
X86799428Y-47015568D01*
X86738417Y-47230000D01*
X86738416Y-47230002D01*
X86717846Y-47451999D01*
X86717846Y-47452000D01*
X80934155Y-47452000D01*
X80913584Y-47230002D01*
X80852571Y-47015564D01*
X80753194Y-46815989D01*
X80618838Y-46638072D01*
X80618835Y-46638069D01*
X80618832Y-46638066D01*
X80454077Y-46487873D01*
X80454076Y-46487872D01*
X80264522Y-46370505D01*
X80056628Y-46289967D01*
X79837475Y-46249000D01*
X79614527Y-46249000D01*
X79395374Y-46289967D01*
X79395371Y-46289967D01*
X79395371Y-46289968D01*
X79187482Y-46370504D01*
X79187481Y-46370504D01*
X78997924Y-46487873D01*
X78833169Y-46638066D01*
X78833166Y-46638069D01*
X78698808Y-46815988D01*
X78599435Y-47015553D01*
X78599429Y-47015568D01*
X78538418Y-47230000D01*
X78538417Y-47230002D01*
X78517847Y-47451999D01*
X78517847Y-47452000D01*
X41872405Y-47452000D01*
X41872405Y-45152000D01*
X63817846Y-45152000D01*
X63838416Y-45373997D01*
X63838417Y-45373999D01*
X63899428Y-45588431D01*
X63899434Y-45588446D01*
X63998807Y-45788011D01*
X64133163Y-45965928D01*
X64297925Y-46116128D01*
X64487479Y-46233495D01*
X64695373Y-46314033D01*
X64914526Y-46355000D01*
X64914528Y-46355000D01*
X65137472Y-46355000D01*
X65137474Y-46355000D01*
X65356627Y-46314033D01*
X65564521Y-46233495D01*
X65754075Y-46116128D01*
X65918837Y-45965928D01*
X66053193Y-45788011D01*
X66152570Y-45588436D01*
X66213583Y-45373998D01*
X66234154Y-45152000D01*
X68817846Y-45152000D01*
X68838416Y-45373997D01*
X68838417Y-45373999D01*
X68899428Y-45588431D01*
X68899434Y-45588446D01*
X68998807Y-45788011D01*
X69133163Y-45965928D01*
X69297925Y-46116128D01*
X69487479Y-46233495D01*
X69695373Y-46314033D01*
X69914526Y-46355000D01*
X69914528Y-46355000D01*
X70137472Y-46355000D01*
X70137474Y-46355000D01*
X70356627Y-46314033D01*
X70564521Y-46233495D01*
X70754075Y-46116128D01*
X70918837Y-45965928D01*
X71053193Y-45788011D01*
X71152570Y-45588436D01*
X71213583Y-45373998D01*
X71234154Y-45152000D01*
X71213583Y-44930002D01*
X71152570Y-44715564D01*
X71053193Y-44515989D01*
X70918837Y-44338072D01*
X70918834Y-44338069D01*
X70918831Y-44338066D01*
X70754076Y-44187873D01*
X70754075Y-44187872D01*
X70564521Y-44070505D01*
X70356627Y-43989967D01*
X70137474Y-43949000D01*
X69914526Y-43949000D01*
X69695373Y-43989967D01*
X69695370Y-43989967D01*
X69695370Y-43989968D01*
X69487481Y-44070504D01*
X69487480Y-44070504D01*
X69297923Y-44187873D01*
X69133168Y-44338066D01*
X69133165Y-44338069D01*
X68998807Y-44515988D01*
X68899434Y-44715553D01*
X68899428Y-44715568D01*
X68838417Y-44930000D01*
X68838416Y-44930002D01*
X68817846Y-45151999D01*
X68817846Y-45152000D01*
X66234154Y-45152000D01*
X66213583Y-44930002D01*
X66152570Y-44715564D01*
X66053193Y-44515989D01*
X65918837Y-44338072D01*
X65918834Y-44338069D01*
X65918831Y-44338066D01*
X65754076Y-44187873D01*
X65754075Y-44187872D01*
X65564521Y-44070505D01*
X65356627Y-43989967D01*
X65137474Y-43949000D01*
X64914526Y-43949000D01*
X64695373Y-43989967D01*
X64695370Y-43989967D01*
X64695370Y-43989968D01*
X64487481Y-44070504D01*
X64487480Y-44070504D01*
X64297923Y-44187873D01*
X64133168Y-44338066D01*
X64133165Y-44338069D01*
X63998807Y-44515988D01*
X63899434Y-44715553D01*
X63899428Y-44715568D01*
X63838417Y-44930000D01*
X63838416Y-44930002D01*
X63817846Y-45151999D01*
X63817846Y-45152000D01*
X41872405Y-45152000D01*
X41872405Y-44193284D01*
X41872596Y-44188418D01*
X41875222Y-44155049D01*
X41888119Y-43991158D01*
X41891161Y-43971952D01*
X41935646Y-43786660D01*
X41941654Y-43768171D01*
X42014576Y-43592119D01*
X42023399Y-43574803D01*
X42122968Y-43412321D01*
X42134389Y-43396601D01*
X42258161Y-43251682D01*
X42271884Y-43237959D01*
X42416803Y-43114187D01*
X42432523Y-43102766D01*
X42595001Y-43003200D01*
X42612326Y-42994372D01*
X42788373Y-42921453D01*
X42806863Y-42915445D01*
X42992154Y-42870961D01*
X43011359Y-42867920D01*
X43208649Y-42852393D01*
X43213460Y-42852204D01*
X43489839Y-42852204D01*
X44046112Y-42814154D01*
X44432028Y-42761110D01*
X44598487Y-42738232D01*
X44598488Y-42738232D01*
X45144397Y-42624791D01*
X45681287Y-42474362D01*
X45681286Y-42474362D01*
X45681300Y-42474358D01*
X46206679Y-42287638D01*
X46718091Y-42065500D01*
X47065823Y-41885320D01*
X47213145Y-41808984D01*
X47263559Y-41778327D01*
X47412791Y-41687577D01*
X47689549Y-41519277D01*
X48145070Y-41197735D01*
X48145074Y-41197732D01*
X48577590Y-40845854D01*
X48985084Y-40465281D01*
X48985091Y-40465274D01*
X48985092Y-40465273D01*
X49365655Y-40057788D01*
X49717538Y-39625266D01*
X49890650Y-39380022D01*
X50039076Y-39169750D01*
X50328782Y-38693348D01*
X50585302Y-38198287D01*
X50585304Y-38198283D01*
X50807435Y-37686885D01*
X50807435Y-37686884D01*
X50807439Y-37686875D01*
X50994159Y-37161496D01*
X50994163Y-37161483D01*
X51144592Y-36624593D01*
X51258033Y-36078684D01*
X51258033Y-36078683D01*
X51286646Y-35870505D01*
X51333955Y-35526308D01*
X51369357Y-35008748D01*
X55145449Y-35008748D01*
X55164439Y-35298482D01*
X55164441Y-35298494D01*
X55221083Y-35583254D01*
X55221087Y-35583269D01*
X55314419Y-35858214D01*
X55442837Y-36118621D01*
X55463493Y-36149535D01*
X55574715Y-36315990D01*
X55604155Y-36360049D01*
X55795599Y-36578350D01*
X55943940Y-36708441D01*
X56013902Y-36769796D01*
X56255325Y-36931110D01*
X56255328Y-36931112D01*
X56502705Y-37053104D01*
X56515739Y-37059532D01*
X56790688Y-37152865D01*
X57075466Y-37209511D01*
X57365202Y-37228501D01*
X57654938Y-37209511D01*
X57939716Y-37152865D01*
X58214665Y-37059532D01*
X58432716Y-36952001D01*
X63817846Y-36952001D01*
X63838416Y-37173998D01*
X63838417Y-37174000D01*
X63899428Y-37388432D01*
X63899434Y-37388447D01*
X63998807Y-37588012D01*
X64133163Y-37765929D01*
X64297925Y-37916129D01*
X64487479Y-38033496D01*
X64695373Y-38114034D01*
X64914526Y-38155001D01*
X64914528Y-38155001D01*
X65137472Y-38155001D01*
X65137474Y-38155001D01*
X65356627Y-38114034D01*
X65564521Y-38033496D01*
X65754075Y-37916129D01*
X65918837Y-37765929D01*
X66053193Y-37588012D01*
X66152570Y-37388437D01*
X66213583Y-37173999D01*
X66234154Y-36952001D01*
X68817846Y-36952001D01*
X68838416Y-37173998D01*
X68838417Y-37174000D01*
X68899428Y-37388432D01*
X68899434Y-37388447D01*
X68998807Y-37588012D01*
X69133163Y-37765929D01*
X69297925Y-37916129D01*
X69487479Y-38033496D01*
X69695373Y-38114034D01*
X69914526Y-38155001D01*
X69914528Y-38155001D01*
X70137472Y-38155001D01*
X70137474Y-38155001D01*
X70356627Y-38114034D01*
X70564521Y-38033496D01*
X70754075Y-37916129D01*
X70918837Y-37765929D01*
X71053193Y-37588012D01*
X71152570Y-37388437D01*
X71213583Y-37173999D01*
X71234154Y-36952001D01*
X71213583Y-36730003D01*
X71152570Y-36515565D01*
X71053193Y-36315990D01*
X70918837Y-36138073D01*
X70918834Y-36138070D01*
X70918831Y-36138067D01*
X70754076Y-35987874D01*
X70754075Y-35987873D01*
X70564521Y-35870506D01*
X70356627Y-35789968D01*
X70137474Y-35749001D01*
X69914526Y-35749001D01*
X69695373Y-35789968D01*
X69695370Y-35789968D01*
X69695370Y-35789969D01*
X69487481Y-35870505D01*
X69487480Y-35870505D01*
X69297923Y-35987874D01*
X69133168Y-36138067D01*
X69133165Y-36138070D01*
X68998807Y-36315989D01*
X68899434Y-36515554D01*
X68899428Y-36515569D01*
X68838417Y-36730001D01*
X68838416Y-36730003D01*
X68817846Y-36952000D01*
X68817846Y-36952001D01*
X66234154Y-36952001D01*
X66213583Y-36730003D01*
X66152570Y-36515565D01*
X66053193Y-36315990D01*
X65918837Y-36138073D01*
X65918834Y-36138070D01*
X65918831Y-36138067D01*
X65754076Y-35987874D01*
X65754075Y-35987873D01*
X65564521Y-35870506D01*
X65356627Y-35789968D01*
X65137474Y-35749001D01*
X64914526Y-35749001D01*
X64695373Y-35789968D01*
X64695370Y-35789968D01*
X64695370Y-35789969D01*
X64487481Y-35870505D01*
X64487480Y-35870505D01*
X64297923Y-35987874D01*
X64133168Y-36138067D01*
X64133165Y-36138070D01*
X63998807Y-36315989D01*
X63899434Y-36515554D01*
X63899428Y-36515569D01*
X63838417Y-36730001D01*
X63838416Y-36730003D01*
X63817846Y-36952000D01*
X63817846Y-36952001D01*
X58432716Y-36952001D01*
X58475079Y-36931110D01*
X58716502Y-36769796D01*
X58934804Y-36578350D01*
X59126250Y-36360048D01*
X59287564Y-36118625D01*
X59415986Y-35858211D01*
X59509319Y-35583262D01*
X59565965Y-35298484D01*
X59584955Y-35008748D01*
X59565965Y-34719012D01*
X59509319Y-34434234D01*
X59415986Y-34159285D01*
X59376280Y-34078770D01*
X59287569Y-33898881D01*
X59287560Y-33898866D01*
X59230314Y-33813191D01*
X59126250Y-33657448D01*
X59084304Y-33609618D01*
X58934804Y-33439145D01*
X58716503Y-33247701D01*
X58475075Y-33086383D01*
X58214668Y-32957965D01*
X57939723Y-32864633D01*
X57939717Y-32864631D01*
X57939716Y-32864631D01*
X57939714Y-32864630D01*
X57939708Y-32864629D01*
X57654948Y-32807987D01*
X57654938Y-32807985D01*
X57365202Y-32788995D01*
X57075466Y-32807985D01*
X57075460Y-32807986D01*
X57075455Y-32807987D01*
X56790695Y-32864629D01*
X56790680Y-32864633D01*
X56515735Y-32957965D01*
X56255335Y-33086380D01*
X56255320Y-33086389D01*
X56013900Y-33247701D01*
X55795599Y-33439145D01*
X55604155Y-33657446D01*
X55442843Y-33898866D01*
X55442834Y-33898881D01*
X55314419Y-34159281D01*
X55221087Y-34434226D01*
X55221083Y-34434241D01*
X55164441Y-34719001D01*
X55164439Y-34719013D01*
X55145449Y-35008748D01*
X51369357Y-35008748D01*
X51372005Y-34970034D01*
X51372005Y-34691248D01*
X51372005Y-34625356D01*
X51372005Y-25875779D01*
X51372006Y-25875750D01*
X51372005Y-25867130D01*
X51372007Y-25867127D01*
X51372005Y-25803670D01*
X51372196Y-25798806D01*
X51375975Y-25750778D01*
X51387716Y-25601541D01*
X51390757Y-25582342D01*
X51435235Y-25397062D01*
X51441247Y-25378558D01*
X51477890Y-25290090D01*
X51514165Y-25202511D01*
X51522992Y-25185186D01*
X51622555Y-25022711D01*
X51633981Y-25006984D01*
X51757743Y-24862077D01*
X51771478Y-24848342D01*
X51916388Y-24724580D01*
X51932113Y-24713155D01*
X52094589Y-24613591D01*
X52111909Y-24604766D01*
X52287973Y-24531840D01*
X52306449Y-24525838D01*
X52491745Y-24481357D01*
X52510954Y-24478315D01*
X52708265Y-24462791D01*
X52713121Y-24462601D01*
X52776530Y-24462603D01*
X52776533Y-24462601D01*
X52785153Y-24462602D01*
X52785182Y-24462601D01*
X89320884Y-24462601D01*
X89387923Y-24482286D01*
G37*
%TD.AperFunction*%
%TD*%
M02*
