%TF.GenerationSoftware,KiCad,Pcbnew,7.0.8*%
%TF.CreationDate,2024-04-29T16:50:17-06:00*%
%TF.ProjectId,GR-LRR-POWER-PCB-INPUT,47522d4c-5252-42d5-904f-5745522d5043,rev?*%
%TF.SameCoordinates,Original*%
%TF.FileFunction,Legend,Top*%
%TF.FilePolarity,Positive*%
%FSLAX46Y46*%
G04 Gerber Fmt 4.6, Leading zero omitted, Abs format (unit mm)*
G04 Created by KiCad (PCBNEW 7.0.8) date 2024-04-29 16:50:17*
%MOMM*%
%LPD*%
G01*
G04 APERTURE LIST*
%ADD10C,0.200000*%
%ADD11C,0.300000*%
%ADD12C,0.150000*%
%ADD13C,0.152400*%
%ADD14C,0.508000*%
%ADD15C,0.120000*%
G04 APERTURE END LIST*
D10*
X68064400Y-73348400D02*
G75*
G03*
X68064400Y-73348400I-3000000J0D01*
G01*
X112057407Y-94936703D02*
G75*
G03*
X112057407Y-94936703I-3000000J0D01*
G01*
X68112400Y-112413600D02*
G75*
G03*
X68112400Y-112413600I-3000000J0D01*
G01*
D11*
X70540171Y-137006510D02*
X69325885Y-137006510D01*
X69325885Y-137006510D02*
X69183028Y-137077939D01*
X69183028Y-137077939D02*
X69111600Y-137149368D01*
X69111600Y-137149368D02*
X69040171Y-137292225D01*
X69040171Y-137292225D02*
X69040171Y-137577939D01*
X69040171Y-137577939D02*
X69111600Y-137720796D01*
X69111600Y-137720796D02*
X69183028Y-137792225D01*
X69183028Y-137792225D02*
X69325885Y-137863653D01*
X69325885Y-137863653D02*
X70540171Y-137863653D01*
X70540171Y-138363654D02*
X69040171Y-138863654D01*
X69040171Y-138863654D02*
X70540171Y-139363654D01*
X69040171Y-140577939D02*
X69040171Y-139863653D01*
X69040171Y-139863653D02*
X70540171Y-139863653D01*
X70540171Y-141363654D02*
X70540171Y-141649368D01*
X70540171Y-141649368D02*
X70468742Y-141792225D01*
X70468742Y-141792225D02*
X70325885Y-141935082D01*
X70325885Y-141935082D02*
X70040171Y-142006511D01*
X70040171Y-142006511D02*
X69540171Y-142006511D01*
X69540171Y-142006511D02*
X69254457Y-141935082D01*
X69254457Y-141935082D02*
X69111600Y-141792225D01*
X69111600Y-141792225D02*
X69040171Y-141649368D01*
X69040171Y-141649368D02*
X69040171Y-141363654D01*
X69040171Y-141363654D02*
X69111600Y-141220797D01*
X69111600Y-141220797D02*
X69254457Y-141077939D01*
X69254457Y-141077939D02*
X69540171Y-141006511D01*
X69540171Y-141006511D02*
X70040171Y-141006511D01*
X70040171Y-141006511D02*
X70325885Y-141077939D01*
X70325885Y-141077939D02*
X70468742Y-141220797D01*
X70468742Y-141220797D02*
X70540171Y-141363654D01*
X69825885Y-143792225D02*
X69825885Y-144935083D01*
X69397314Y-144935083D02*
X69397314Y-143792225D01*
X69040171Y-147577940D02*
X69040171Y-146720797D01*
X69040171Y-147149368D02*
X70540171Y-147149368D01*
X70540171Y-147149368D02*
X70325885Y-147006511D01*
X70325885Y-147006511D02*
X70183028Y-146863654D01*
X70183028Y-146863654D02*
X70111600Y-146720797D01*
X70540171Y-148935082D02*
X70540171Y-148220796D01*
X70540171Y-148220796D02*
X69825885Y-148149368D01*
X69825885Y-148149368D02*
X69897314Y-148220796D01*
X69897314Y-148220796D02*
X69968742Y-148363654D01*
X69968742Y-148363654D02*
X69968742Y-148720796D01*
X69968742Y-148720796D02*
X69897314Y-148863654D01*
X69897314Y-148863654D02*
X69825885Y-148935082D01*
X69825885Y-148935082D02*
X69683028Y-149006511D01*
X69683028Y-149006511D02*
X69325885Y-149006511D01*
X69325885Y-149006511D02*
X69183028Y-148935082D01*
X69183028Y-148935082D02*
X69111600Y-148863654D01*
X69111600Y-148863654D02*
X69040171Y-148720796D01*
X69040171Y-148720796D02*
X69040171Y-148363654D01*
X69040171Y-148363654D02*
X69111600Y-148220796D01*
X69111600Y-148220796D02*
X69183028Y-148149368D01*
X70540171Y-149435082D02*
X69040171Y-149935082D01*
X69040171Y-149935082D02*
X70540171Y-150435082D01*
X68125171Y-137292225D02*
X68125171Y-137577939D01*
X68125171Y-137577939D02*
X68053742Y-137720796D01*
X68053742Y-137720796D02*
X67910885Y-137863653D01*
X67910885Y-137863653D02*
X67625171Y-137935082D01*
X67625171Y-137935082D02*
X67125171Y-137935082D01*
X67125171Y-137935082D02*
X66839457Y-137863653D01*
X66839457Y-137863653D02*
X66696600Y-137720796D01*
X66696600Y-137720796D02*
X66625171Y-137577939D01*
X66625171Y-137577939D02*
X66625171Y-137292225D01*
X66625171Y-137292225D02*
X66696600Y-137149368D01*
X66696600Y-137149368D02*
X66839457Y-137006510D01*
X66839457Y-137006510D02*
X67125171Y-136935082D01*
X67125171Y-136935082D02*
X67625171Y-136935082D01*
X67625171Y-136935082D02*
X67910885Y-137006510D01*
X67910885Y-137006510D02*
X68053742Y-137149368D01*
X68053742Y-137149368D02*
X68125171Y-137292225D01*
X68125171Y-138363654D02*
X66625171Y-138863654D01*
X66625171Y-138863654D02*
X68125171Y-139363654D01*
X66625171Y-140577939D02*
X66625171Y-139863653D01*
X66625171Y-139863653D02*
X68125171Y-139863653D01*
X68125171Y-141363654D02*
X68125171Y-141649368D01*
X68125171Y-141649368D02*
X68053742Y-141792225D01*
X68053742Y-141792225D02*
X67910885Y-141935082D01*
X67910885Y-141935082D02*
X67625171Y-142006511D01*
X67625171Y-142006511D02*
X67125171Y-142006511D01*
X67125171Y-142006511D02*
X66839457Y-141935082D01*
X66839457Y-141935082D02*
X66696600Y-141792225D01*
X66696600Y-141792225D02*
X66625171Y-141649368D01*
X66625171Y-141649368D02*
X66625171Y-141363654D01*
X66625171Y-141363654D02*
X66696600Y-141220797D01*
X66696600Y-141220797D02*
X66839457Y-141077939D01*
X66839457Y-141077939D02*
X67125171Y-141006511D01*
X67125171Y-141006511D02*
X67625171Y-141006511D01*
X67625171Y-141006511D02*
X67910885Y-141077939D01*
X67910885Y-141077939D02*
X68053742Y-141220797D01*
X68053742Y-141220797D02*
X68125171Y-141363654D01*
X67410885Y-143792225D02*
X67410885Y-144935083D01*
X66982314Y-144935083D02*
X66982314Y-143792225D01*
X67982314Y-146720797D02*
X68053742Y-146792225D01*
X68053742Y-146792225D02*
X68125171Y-146935083D01*
X68125171Y-146935083D02*
X68125171Y-147292225D01*
X68125171Y-147292225D02*
X68053742Y-147435083D01*
X68053742Y-147435083D02*
X67982314Y-147506511D01*
X67982314Y-147506511D02*
X67839457Y-147577940D01*
X67839457Y-147577940D02*
X67696600Y-147577940D01*
X67696600Y-147577940D02*
X67482314Y-147506511D01*
X67482314Y-147506511D02*
X66625171Y-146649368D01*
X66625171Y-146649368D02*
X66625171Y-147577940D01*
X67625171Y-148863654D02*
X66625171Y-148863654D01*
X68196600Y-148506511D02*
X67125171Y-148149368D01*
X67125171Y-148149368D02*
X67125171Y-149077939D01*
X68125171Y-149435082D02*
X66625171Y-149935082D01*
X66625171Y-149935082D02*
X68125171Y-150435082D01*
X74653742Y-117792225D02*
X74725171Y-117649368D01*
X74725171Y-117649368D02*
X74725171Y-117435082D01*
X74725171Y-117435082D02*
X74653742Y-117220796D01*
X74653742Y-117220796D02*
X74510885Y-117077939D01*
X74510885Y-117077939D02*
X74368028Y-117006510D01*
X74368028Y-117006510D02*
X74082314Y-116935082D01*
X74082314Y-116935082D02*
X73868028Y-116935082D01*
X73868028Y-116935082D02*
X73582314Y-117006510D01*
X73582314Y-117006510D02*
X73439457Y-117077939D01*
X73439457Y-117077939D02*
X73296600Y-117220796D01*
X73296600Y-117220796D02*
X73225171Y-117435082D01*
X73225171Y-117435082D02*
X73225171Y-117577939D01*
X73225171Y-117577939D02*
X73296600Y-117792225D01*
X73296600Y-117792225D02*
X73368028Y-117863653D01*
X73368028Y-117863653D02*
X73868028Y-117863653D01*
X73868028Y-117863653D02*
X73868028Y-117577939D01*
X73225171Y-119363653D02*
X73939457Y-118863653D01*
X73225171Y-118506510D02*
X74725171Y-118506510D01*
X74725171Y-118506510D02*
X74725171Y-119077939D01*
X74725171Y-119077939D02*
X74653742Y-119220796D01*
X74653742Y-119220796D02*
X74582314Y-119292225D01*
X74582314Y-119292225D02*
X74439457Y-119363653D01*
X74439457Y-119363653D02*
X74225171Y-119363653D01*
X74225171Y-119363653D02*
X74082314Y-119292225D01*
X74082314Y-119292225D02*
X74010885Y-119220796D01*
X74010885Y-119220796D02*
X73939457Y-119077939D01*
X73939457Y-119077939D02*
X73939457Y-118506510D01*
X73796600Y-120006510D02*
X73796600Y-121149368D01*
X73225171Y-122577939D02*
X73225171Y-121863653D01*
X73225171Y-121863653D02*
X74725171Y-121863653D01*
X73225171Y-123792225D02*
X73225171Y-123077939D01*
X73225171Y-123077939D02*
X74725171Y-123077939D01*
X73225171Y-125149368D02*
X73939457Y-124649368D01*
X73225171Y-124292225D02*
X74725171Y-124292225D01*
X74725171Y-124292225D02*
X74725171Y-124863654D01*
X74725171Y-124863654D02*
X74653742Y-125006511D01*
X74653742Y-125006511D02*
X74582314Y-125077940D01*
X74582314Y-125077940D02*
X74439457Y-125149368D01*
X74439457Y-125149368D02*
X74225171Y-125149368D01*
X74225171Y-125149368D02*
X74082314Y-125077940D01*
X74082314Y-125077940D02*
X74010885Y-125006511D01*
X74010885Y-125006511D02*
X73939457Y-124863654D01*
X73939457Y-124863654D02*
X73939457Y-124292225D01*
X73796600Y-125792225D02*
X73796600Y-126935083D01*
X73225171Y-127649368D02*
X74725171Y-127649368D01*
X74725171Y-127649368D02*
X74725171Y-128220797D01*
X74725171Y-128220797D02*
X74653742Y-128363654D01*
X74653742Y-128363654D02*
X74582314Y-128435083D01*
X74582314Y-128435083D02*
X74439457Y-128506511D01*
X74439457Y-128506511D02*
X74225171Y-128506511D01*
X74225171Y-128506511D02*
X74082314Y-128435083D01*
X74082314Y-128435083D02*
X74010885Y-128363654D01*
X74010885Y-128363654D02*
X73939457Y-128220797D01*
X73939457Y-128220797D02*
X73939457Y-127649368D01*
X74725171Y-129435083D02*
X74725171Y-129720797D01*
X74725171Y-129720797D02*
X74653742Y-129863654D01*
X74653742Y-129863654D02*
X74510885Y-130006511D01*
X74510885Y-130006511D02*
X74225171Y-130077940D01*
X74225171Y-130077940D02*
X73725171Y-130077940D01*
X73725171Y-130077940D02*
X73439457Y-130006511D01*
X73439457Y-130006511D02*
X73296600Y-129863654D01*
X73296600Y-129863654D02*
X73225171Y-129720797D01*
X73225171Y-129720797D02*
X73225171Y-129435083D01*
X73225171Y-129435083D02*
X73296600Y-129292226D01*
X73296600Y-129292226D02*
X73439457Y-129149368D01*
X73439457Y-129149368D02*
X73725171Y-129077940D01*
X73725171Y-129077940D02*
X74225171Y-129077940D01*
X74225171Y-129077940D02*
X74510885Y-129149368D01*
X74510885Y-129149368D02*
X74653742Y-129292226D01*
X74653742Y-129292226D02*
X74725171Y-129435083D01*
X74725171Y-130577940D02*
X73225171Y-130935083D01*
X73225171Y-130935083D02*
X74296600Y-131220797D01*
X74296600Y-131220797D02*
X73225171Y-131506512D01*
X73225171Y-131506512D02*
X74725171Y-131863655D01*
X74010885Y-132435083D02*
X74010885Y-132935083D01*
X73225171Y-133149369D02*
X73225171Y-132435083D01*
X73225171Y-132435083D02*
X74725171Y-132435083D01*
X74725171Y-132435083D02*
X74725171Y-133149369D01*
X73225171Y-134649369D02*
X73939457Y-134149369D01*
X73225171Y-133792226D02*
X74725171Y-133792226D01*
X74725171Y-133792226D02*
X74725171Y-134363655D01*
X74725171Y-134363655D02*
X74653742Y-134506512D01*
X74653742Y-134506512D02*
X74582314Y-134577941D01*
X74582314Y-134577941D02*
X74439457Y-134649369D01*
X74439457Y-134649369D02*
X74225171Y-134649369D01*
X74225171Y-134649369D02*
X74082314Y-134577941D01*
X74082314Y-134577941D02*
X74010885Y-134506512D01*
X74010885Y-134506512D02*
X73939457Y-134363655D01*
X73939457Y-134363655D02*
X73939457Y-133792226D01*
X73796600Y-135292226D02*
X73796600Y-136435084D01*
X73225171Y-137149369D02*
X74725171Y-137149369D01*
X73225171Y-137863655D02*
X74725171Y-137863655D01*
X74725171Y-137863655D02*
X73225171Y-138720798D01*
X73225171Y-138720798D02*
X74725171Y-138720798D01*
X73225171Y-139435084D02*
X74725171Y-139435084D01*
X74725171Y-139435084D02*
X74725171Y-140006513D01*
X74725171Y-140006513D02*
X74653742Y-140149370D01*
X74653742Y-140149370D02*
X74582314Y-140220799D01*
X74582314Y-140220799D02*
X74439457Y-140292227D01*
X74439457Y-140292227D02*
X74225171Y-140292227D01*
X74225171Y-140292227D02*
X74082314Y-140220799D01*
X74082314Y-140220799D02*
X74010885Y-140149370D01*
X74010885Y-140149370D02*
X73939457Y-140006513D01*
X73939457Y-140006513D02*
X73939457Y-139435084D01*
X74725171Y-140935084D02*
X73510885Y-140935084D01*
X73510885Y-140935084D02*
X73368028Y-141006513D01*
X73368028Y-141006513D02*
X73296600Y-141077942D01*
X73296600Y-141077942D02*
X73225171Y-141220799D01*
X73225171Y-141220799D02*
X73225171Y-141506513D01*
X73225171Y-141506513D02*
X73296600Y-141649370D01*
X73296600Y-141649370D02*
X73368028Y-141720799D01*
X73368028Y-141720799D02*
X73510885Y-141792227D01*
X73510885Y-141792227D02*
X74725171Y-141792227D01*
X74725171Y-142292228D02*
X74725171Y-143149371D01*
X73225171Y-142720799D02*
X74725171Y-142720799D01*
X73082314Y-143292228D02*
X73082314Y-144435085D01*
X73653742Y-144720799D02*
X73653742Y-145435085D01*
X73225171Y-144577942D02*
X74725171Y-145077942D01*
X74725171Y-145077942D02*
X73225171Y-145577942D01*
X74725171Y-146363656D02*
X74725171Y-146506513D01*
X74725171Y-146506513D02*
X74653742Y-146649370D01*
X74653742Y-146649370D02*
X74582314Y-146720799D01*
X74582314Y-146720799D02*
X74439457Y-146792227D01*
X74439457Y-146792227D02*
X74153742Y-146863656D01*
X74153742Y-146863656D02*
X73796600Y-146863656D01*
X73796600Y-146863656D02*
X73510885Y-146792227D01*
X73510885Y-146792227D02*
X73368028Y-146720799D01*
X73368028Y-146720799D02*
X73296600Y-146649370D01*
X73296600Y-146649370D02*
X73225171Y-146506513D01*
X73225171Y-146506513D02*
X73225171Y-146363656D01*
X73225171Y-146363656D02*
X73296600Y-146220799D01*
X73296600Y-146220799D02*
X73368028Y-146149370D01*
X73368028Y-146149370D02*
X73510885Y-146077941D01*
X73510885Y-146077941D02*
X73796600Y-146006513D01*
X73796600Y-146006513D02*
X74153742Y-146006513D01*
X74153742Y-146006513D02*
X74439457Y-146077941D01*
X74439457Y-146077941D02*
X74582314Y-146149370D01*
X74582314Y-146149370D02*
X74653742Y-146220799D01*
X74653742Y-146220799D02*
X74725171Y-146363656D01*
X73082314Y-147149370D02*
X73082314Y-148292227D01*
X74725171Y-148935084D02*
X74725171Y-149077941D01*
X74725171Y-149077941D02*
X74653742Y-149220798D01*
X74653742Y-149220798D02*
X74582314Y-149292227D01*
X74582314Y-149292227D02*
X74439457Y-149363655D01*
X74439457Y-149363655D02*
X74153742Y-149435084D01*
X74153742Y-149435084D02*
X73796600Y-149435084D01*
X73796600Y-149435084D02*
X73510885Y-149363655D01*
X73510885Y-149363655D02*
X73368028Y-149292227D01*
X73368028Y-149292227D02*
X73296600Y-149220798D01*
X73296600Y-149220798D02*
X73225171Y-149077941D01*
X73225171Y-149077941D02*
X73225171Y-148935084D01*
X73225171Y-148935084D02*
X73296600Y-148792227D01*
X73296600Y-148792227D02*
X73368028Y-148720798D01*
X73368028Y-148720798D02*
X73510885Y-148649369D01*
X73510885Y-148649369D02*
X73796600Y-148577941D01*
X73796600Y-148577941D02*
X74153742Y-148577941D01*
X74153742Y-148577941D02*
X74439457Y-148649369D01*
X74439457Y-148649369D02*
X74582314Y-148720798D01*
X74582314Y-148720798D02*
X74653742Y-148792227D01*
X74653742Y-148792227D02*
X74725171Y-148935084D01*
X74225171Y-150720798D02*
X73225171Y-150720798D01*
X74796600Y-150363655D02*
X73725171Y-150006512D01*
X73725171Y-150006512D02*
X73725171Y-150935083D01*
X74582314Y-151435083D02*
X74653742Y-151506511D01*
X74653742Y-151506511D02*
X74725171Y-151649369D01*
X74725171Y-151649369D02*
X74725171Y-152006511D01*
X74725171Y-152006511D02*
X74653742Y-152149369D01*
X74653742Y-152149369D02*
X74582314Y-152220797D01*
X74582314Y-152220797D02*
X74439457Y-152292226D01*
X74439457Y-152292226D02*
X74296600Y-152292226D01*
X74296600Y-152292226D02*
X74082314Y-152220797D01*
X74082314Y-152220797D02*
X73225171Y-151363654D01*
X73225171Y-151363654D02*
X73225171Y-152292226D01*
X73225171Y-153006511D02*
X73225171Y-153292225D01*
X73225171Y-153292225D02*
X73296600Y-153435082D01*
X73296600Y-153435082D02*
X73368028Y-153506511D01*
X73368028Y-153506511D02*
X73582314Y-153649368D01*
X73582314Y-153649368D02*
X73868028Y-153720797D01*
X73868028Y-153720797D02*
X74439457Y-153720797D01*
X74439457Y-153720797D02*
X74582314Y-153649368D01*
X74582314Y-153649368D02*
X74653742Y-153577940D01*
X74653742Y-153577940D02*
X74725171Y-153435082D01*
X74725171Y-153435082D02*
X74725171Y-153149368D01*
X74725171Y-153149368D02*
X74653742Y-153006511D01*
X74653742Y-153006511D02*
X74582314Y-152935082D01*
X74582314Y-152935082D02*
X74439457Y-152863654D01*
X74439457Y-152863654D02*
X74082314Y-152863654D01*
X74082314Y-152863654D02*
X73939457Y-152935082D01*
X73939457Y-152935082D02*
X73868028Y-153006511D01*
X73868028Y-153006511D02*
X73796600Y-153149368D01*
X73796600Y-153149368D02*
X73796600Y-153435082D01*
X73796600Y-153435082D02*
X73868028Y-153577940D01*
X73868028Y-153577940D02*
X73939457Y-153649368D01*
X73939457Y-153649368D02*
X74082314Y-153720797D01*
X74582314Y-154292225D02*
X74653742Y-154363653D01*
X74653742Y-154363653D02*
X74725171Y-154506511D01*
X74725171Y-154506511D02*
X74725171Y-154863653D01*
X74725171Y-154863653D02*
X74653742Y-155006511D01*
X74653742Y-155006511D02*
X74582314Y-155077939D01*
X74582314Y-155077939D02*
X74439457Y-155149368D01*
X74439457Y-155149368D02*
X74296600Y-155149368D01*
X74296600Y-155149368D02*
X74082314Y-155077939D01*
X74082314Y-155077939D02*
X73225171Y-154220796D01*
X73225171Y-154220796D02*
X73225171Y-155149368D01*
X74725171Y-156077939D02*
X74725171Y-156220796D01*
X74725171Y-156220796D02*
X74653742Y-156363653D01*
X74653742Y-156363653D02*
X74582314Y-156435082D01*
X74582314Y-156435082D02*
X74439457Y-156506510D01*
X74439457Y-156506510D02*
X74153742Y-156577939D01*
X74153742Y-156577939D02*
X73796600Y-156577939D01*
X73796600Y-156577939D02*
X73510885Y-156506510D01*
X73510885Y-156506510D02*
X73368028Y-156435082D01*
X73368028Y-156435082D02*
X73296600Y-156363653D01*
X73296600Y-156363653D02*
X73225171Y-156220796D01*
X73225171Y-156220796D02*
X73225171Y-156077939D01*
X73225171Y-156077939D02*
X73296600Y-155935082D01*
X73296600Y-155935082D02*
X73368028Y-155863653D01*
X73368028Y-155863653D02*
X73510885Y-155792224D01*
X73510885Y-155792224D02*
X73796600Y-155720796D01*
X73796600Y-155720796D02*
X74153742Y-155720796D01*
X74153742Y-155720796D02*
X74439457Y-155792224D01*
X74439457Y-155792224D02*
X74582314Y-155863653D01*
X74582314Y-155863653D02*
X74653742Y-155935082D01*
X74653742Y-155935082D02*
X74725171Y-156077939D01*
X74582314Y-157149367D02*
X74653742Y-157220795D01*
X74653742Y-157220795D02*
X74725171Y-157363653D01*
X74725171Y-157363653D02*
X74725171Y-157720795D01*
X74725171Y-157720795D02*
X74653742Y-157863653D01*
X74653742Y-157863653D02*
X74582314Y-157935081D01*
X74582314Y-157935081D02*
X74439457Y-158006510D01*
X74439457Y-158006510D02*
X74296600Y-158006510D01*
X74296600Y-158006510D02*
X74082314Y-157935081D01*
X74082314Y-157935081D02*
X73225171Y-157077938D01*
X73225171Y-157077938D02*
X73225171Y-158006510D01*
X74225171Y-159292224D02*
X73225171Y-159292224D01*
X74796600Y-158935081D02*
X73725171Y-158577938D01*
X73725171Y-158577938D02*
X73725171Y-159506509D01*
D12*
X61352781Y-101348766D02*
X60638496Y-101348766D01*
X60638496Y-101348766D02*
X60495639Y-101301147D01*
X60495639Y-101301147D02*
X60400401Y-101205909D01*
X60400401Y-101205909D02*
X60352781Y-101063052D01*
X60352781Y-101063052D02*
X60352781Y-100967814D01*
X61352781Y-101729719D02*
X61352781Y-102348766D01*
X61352781Y-102348766D02*
X60971829Y-102015433D01*
X60971829Y-102015433D02*
X60971829Y-102158290D01*
X60971829Y-102158290D02*
X60924210Y-102253528D01*
X60924210Y-102253528D02*
X60876591Y-102301147D01*
X60876591Y-102301147D02*
X60781353Y-102348766D01*
X60781353Y-102348766D02*
X60543258Y-102348766D01*
X60543258Y-102348766D02*
X60448020Y-102301147D01*
X60448020Y-102301147D02*
X60400401Y-102253528D01*
X60400401Y-102253528D02*
X60352781Y-102158290D01*
X60352781Y-102158290D02*
X60352781Y-101872576D01*
X60352781Y-101872576D02*
X60400401Y-101777338D01*
X60400401Y-101777338D02*
X60448020Y-101729719D01*
X78578545Y-106031820D02*
X78578545Y-106841343D01*
X78578545Y-106841343D02*
X78626164Y-106936581D01*
X78626164Y-106936581D02*
X78673783Y-106984201D01*
X78673783Y-106984201D02*
X78769021Y-107031820D01*
X78769021Y-107031820D02*
X78959497Y-107031820D01*
X78959497Y-107031820D02*
X79054735Y-106984201D01*
X79054735Y-106984201D02*
X79102354Y-106936581D01*
X79102354Y-106936581D02*
X79149973Y-106841343D01*
X79149973Y-106841343D02*
X79149973Y-106031820D01*
X80149973Y-107031820D02*
X79578545Y-107031820D01*
X79864259Y-107031820D02*
X79864259Y-106031820D01*
X79864259Y-106031820D02*
X79769021Y-106174677D01*
X79769021Y-106174677D02*
X79673783Y-106269915D01*
X79673783Y-106269915D02*
X79578545Y-106317534D01*
X77772000Y-103507420D02*
X77772000Y-103745515D01*
X77533905Y-103650277D02*
X77772000Y-103745515D01*
X77772000Y-103745515D02*
X78010095Y-103650277D01*
X77629143Y-103935991D02*
X77772000Y-103745515D01*
X77772000Y-103745515D02*
X77914857Y-103935991D01*
X77772000Y-103507420D02*
X77772000Y-103745515D01*
X77533905Y-103650277D02*
X77772000Y-103745515D01*
X77772000Y-103745515D02*
X78010095Y-103650277D01*
X77629143Y-103935991D02*
X77772000Y-103745515D01*
X77772000Y-103745515D02*
X77914857Y-103935991D01*
X61327580Y-63221667D02*
X60613295Y-63221667D01*
X60613295Y-63221667D02*
X60470438Y-63174048D01*
X60470438Y-63174048D02*
X60375200Y-63078810D01*
X60375200Y-63078810D02*
X60327580Y-62935953D01*
X60327580Y-62935953D02*
X60327580Y-62840715D01*
X60327580Y-64221667D02*
X60327580Y-63650239D01*
X60327580Y-63935953D02*
X61327580Y-63935953D01*
X61327580Y-63935953D02*
X61184723Y-63840715D01*
X61184723Y-63840715D02*
X61089485Y-63745477D01*
X61089485Y-63745477D02*
X61041866Y-63650239D01*
X61352781Y-122811766D02*
X60638496Y-122811766D01*
X60638496Y-122811766D02*
X60495639Y-122764147D01*
X60495639Y-122764147D02*
X60400401Y-122668909D01*
X60400401Y-122668909D02*
X60352781Y-122526052D01*
X60352781Y-122526052D02*
X60352781Y-122430814D01*
X61019448Y-123716528D02*
X60352781Y-123716528D01*
X61400401Y-123478433D02*
X60686115Y-123240338D01*
X60686115Y-123240338D02*
X60686115Y-123859385D01*
X83380819Y-134460332D02*
X84095104Y-134460332D01*
X84095104Y-134460332D02*
X84237961Y-134507951D01*
X84237961Y-134507951D02*
X84333200Y-134603189D01*
X84333200Y-134603189D02*
X84380819Y-134746046D01*
X84380819Y-134746046D02*
X84380819Y-134841284D01*
X83380819Y-134079379D02*
X83380819Y-133412713D01*
X83380819Y-133412713D02*
X84380819Y-133841284D01*
X83380819Y-150360332D02*
X84095104Y-150360332D01*
X84095104Y-150360332D02*
X84237961Y-150407951D01*
X84237961Y-150407951D02*
X84333200Y-150503189D01*
X84333200Y-150503189D02*
X84380819Y-150646046D01*
X84380819Y-150646046D02*
X84380819Y-150741284D01*
X83380819Y-149455570D02*
X83380819Y-149646046D01*
X83380819Y-149646046D02*
X83428438Y-149741284D01*
X83428438Y-149741284D02*
X83476057Y-149788903D01*
X83476057Y-149788903D02*
X83618914Y-149884141D01*
X83618914Y-149884141D02*
X83809390Y-149931760D01*
X83809390Y-149931760D02*
X84190342Y-149931760D01*
X84190342Y-149931760D02*
X84285580Y-149884141D01*
X84285580Y-149884141D02*
X84333200Y-149836522D01*
X84333200Y-149836522D02*
X84380819Y-149741284D01*
X84380819Y-149741284D02*
X84380819Y-149550808D01*
X84380819Y-149550808D02*
X84333200Y-149455570D01*
X84333200Y-149455570D02*
X84285580Y-149407951D01*
X84285580Y-149407951D02*
X84190342Y-149360332D01*
X84190342Y-149360332D02*
X83952247Y-149360332D01*
X83952247Y-149360332D02*
X83857009Y-149407951D01*
X83857009Y-149407951D02*
X83809390Y-149455570D01*
X83809390Y-149455570D02*
X83761771Y-149550808D01*
X83761771Y-149550808D02*
X83761771Y-149741284D01*
X83761771Y-149741284D02*
X83809390Y-149836522D01*
X83809390Y-149836522D02*
X83857009Y-149884141D01*
X83857009Y-149884141D02*
X83952247Y-149931760D01*
X83380819Y-83860332D02*
X84095104Y-83860332D01*
X84095104Y-83860332D02*
X84237961Y-83907951D01*
X84237961Y-83907951D02*
X84333200Y-84003189D01*
X84333200Y-84003189D02*
X84380819Y-84146046D01*
X84380819Y-84146046D02*
X84380819Y-84241284D01*
X84380819Y-83336522D02*
X84380819Y-83146046D01*
X84380819Y-83146046D02*
X84333200Y-83050808D01*
X84333200Y-83050808D02*
X84285580Y-83003189D01*
X84285580Y-83003189D02*
X84142723Y-82907951D01*
X84142723Y-82907951D02*
X83952247Y-82860332D01*
X83952247Y-82860332D02*
X83571295Y-82860332D01*
X83571295Y-82860332D02*
X83476057Y-82907951D01*
X83476057Y-82907951D02*
X83428438Y-82955570D01*
X83428438Y-82955570D02*
X83380819Y-83050808D01*
X83380819Y-83050808D02*
X83380819Y-83241284D01*
X83380819Y-83241284D02*
X83428438Y-83336522D01*
X83428438Y-83336522D02*
X83476057Y-83384141D01*
X83476057Y-83384141D02*
X83571295Y-83431760D01*
X83571295Y-83431760D02*
X83809390Y-83431760D01*
X83809390Y-83431760D02*
X83904628Y-83384141D01*
X83904628Y-83384141D02*
X83952247Y-83336522D01*
X83952247Y-83336522D02*
X83999866Y-83241284D01*
X83999866Y-83241284D02*
X83999866Y-83050808D01*
X83999866Y-83050808D02*
X83952247Y-82955570D01*
X83952247Y-82955570D02*
X83904628Y-82907951D01*
X83904628Y-82907951D02*
X83809390Y-82860332D01*
X83280819Y-50060332D02*
X83995104Y-50060332D01*
X83995104Y-50060332D02*
X84137961Y-50107951D01*
X84137961Y-50107951D02*
X84233200Y-50203189D01*
X84233200Y-50203189D02*
X84280819Y-50346046D01*
X84280819Y-50346046D02*
X84280819Y-50441284D01*
X83280819Y-49107951D02*
X83280819Y-49584141D01*
X83280819Y-49584141D02*
X83757009Y-49631760D01*
X83757009Y-49631760D02*
X83709390Y-49584141D01*
X83709390Y-49584141D02*
X83661771Y-49488903D01*
X83661771Y-49488903D02*
X83661771Y-49250808D01*
X83661771Y-49250808D02*
X83709390Y-49155570D01*
X83709390Y-49155570D02*
X83757009Y-49107951D01*
X83757009Y-49107951D02*
X83852247Y-49060332D01*
X83852247Y-49060332D02*
X84090342Y-49060332D01*
X84090342Y-49060332D02*
X84185580Y-49107951D01*
X84185580Y-49107951D02*
X84233200Y-49155570D01*
X84233200Y-49155570D02*
X84280819Y-49250808D01*
X84280819Y-49250808D02*
X84280819Y-49488903D01*
X84280819Y-49488903D02*
X84233200Y-49584141D01*
X84233200Y-49584141D02*
X84185580Y-49631760D01*
X79103333Y-104442019D02*
X78770000Y-103965828D01*
X78531905Y-104442019D02*
X78531905Y-103442019D01*
X78531905Y-103442019D02*
X78912857Y-103442019D01*
X78912857Y-103442019D02*
X79008095Y-103489638D01*
X79008095Y-103489638D02*
X79055714Y-103537257D01*
X79055714Y-103537257D02*
X79103333Y-103632495D01*
X79103333Y-103632495D02*
X79103333Y-103775352D01*
X79103333Y-103775352D02*
X79055714Y-103870590D01*
X79055714Y-103870590D02*
X79008095Y-103918209D01*
X79008095Y-103918209D02*
X78912857Y-103965828D01*
X78912857Y-103965828D02*
X78531905Y-103965828D01*
X79960476Y-103775352D02*
X79960476Y-104442019D01*
X79722381Y-103394400D02*
X79484286Y-104108685D01*
X79484286Y-104108685D02*
X80103333Y-104108685D01*
X87021819Y-116987133D02*
X86974200Y-116939514D01*
X86974200Y-116939514D02*
X86926580Y-116796657D01*
X86926580Y-116796657D02*
X86926580Y-116701419D01*
X86926580Y-116701419D02*
X86974200Y-116558562D01*
X86974200Y-116558562D02*
X87069438Y-116463324D01*
X87069438Y-116463324D02*
X87164676Y-116415705D01*
X87164676Y-116415705D02*
X87355152Y-116368086D01*
X87355152Y-116368086D02*
X87498009Y-116368086D01*
X87498009Y-116368086D02*
X87688485Y-116415705D01*
X87688485Y-116415705D02*
X87783723Y-116463324D01*
X87783723Y-116463324D02*
X87878961Y-116558562D01*
X87878961Y-116558562D02*
X87926580Y-116701419D01*
X87926580Y-116701419D02*
X87926580Y-116796657D01*
X87926580Y-116796657D02*
X87878961Y-116939514D01*
X87878961Y-116939514D02*
X87831342Y-116987133D01*
X86926580Y-117939514D02*
X86926580Y-117368086D01*
X86926580Y-117653800D02*
X87926580Y-117653800D01*
X87926580Y-117653800D02*
X87783723Y-117558562D01*
X87783723Y-117558562D02*
X87688485Y-117463324D01*
X87688485Y-117463324D02*
X87640866Y-117368086D01*
X75906019Y-109064266D02*
X75429828Y-109397599D01*
X75906019Y-109635694D02*
X74906019Y-109635694D01*
X74906019Y-109635694D02*
X74906019Y-109254742D01*
X74906019Y-109254742D02*
X74953638Y-109159504D01*
X74953638Y-109159504D02*
X75001257Y-109111885D01*
X75001257Y-109111885D02*
X75096495Y-109064266D01*
X75096495Y-109064266D02*
X75239352Y-109064266D01*
X75239352Y-109064266D02*
X75334590Y-109111885D01*
X75334590Y-109111885D02*
X75382209Y-109159504D01*
X75382209Y-109159504D02*
X75429828Y-109254742D01*
X75429828Y-109254742D02*
X75429828Y-109635694D01*
X75906019Y-108111885D02*
X75906019Y-108683313D01*
X75906019Y-108397599D02*
X74906019Y-108397599D01*
X74906019Y-108397599D02*
X75048876Y-108492837D01*
X75048876Y-108492837D02*
X75144114Y-108588075D01*
X75144114Y-108588075D02*
X75191733Y-108683313D01*
X75906019Y-103882666D02*
X75429828Y-104215999D01*
X75906019Y-104454094D02*
X74906019Y-104454094D01*
X74906019Y-104454094D02*
X74906019Y-104073142D01*
X74906019Y-104073142D02*
X74953638Y-103977904D01*
X74953638Y-103977904D02*
X75001257Y-103930285D01*
X75001257Y-103930285D02*
X75096495Y-103882666D01*
X75096495Y-103882666D02*
X75239352Y-103882666D01*
X75239352Y-103882666D02*
X75334590Y-103930285D01*
X75334590Y-103930285D02*
X75382209Y-103977904D01*
X75382209Y-103977904D02*
X75429828Y-104073142D01*
X75429828Y-104073142D02*
X75429828Y-104454094D01*
X75001257Y-103501713D02*
X74953638Y-103454094D01*
X74953638Y-103454094D02*
X74906019Y-103358856D01*
X74906019Y-103358856D02*
X74906019Y-103120761D01*
X74906019Y-103120761D02*
X74953638Y-103025523D01*
X74953638Y-103025523D02*
X75001257Y-102977904D01*
X75001257Y-102977904D02*
X75096495Y-102930285D01*
X75096495Y-102930285D02*
X75191733Y-102930285D01*
X75191733Y-102930285D02*
X75334590Y-102977904D01*
X75334590Y-102977904D02*
X75906019Y-103549332D01*
X75906019Y-103549332D02*
X75906019Y-102930285D01*
X78287904Y-32397180D02*
X78287904Y-31587657D01*
X78287904Y-31587657D02*
X78240285Y-31492419D01*
X78240285Y-31492419D02*
X78192666Y-31444800D01*
X78192666Y-31444800D02*
X78097428Y-31397180D01*
X78097428Y-31397180D02*
X77906952Y-31397180D01*
X77906952Y-31397180D02*
X77811714Y-31444800D01*
X77811714Y-31444800D02*
X77764095Y-31492419D01*
X77764095Y-31492419D02*
X77716476Y-31587657D01*
X77716476Y-31587657D02*
X77716476Y-32397180D01*
X77335523Y-32397180D02*
X76716476Y-32397180D01*
X76716476Y-32397180D02*
X77049809Y-32016228D01*
X77049809Y-32016228D02*
X76906952Y-32016228D01*
X76906952Y-32016228D02*
X76811714Y-31968609D01*
X76811714Y-31968609D02*
X76764095Y-31920990D01*
X76764095Y-31920990D02*
X76716476Y-31825752D01*
X76716476Y-31825752D02*
X76716476Y-31587657D01*
X76716476Y-31587657D02*
X76764095Y-31492419D01*
X76764095Y-31492419D02*
X76811714Y-31444800D01*
X76811714Y-31444800D02*
X76906952Y-31397180D01*
X76906952Y-31397180D02*
X77192666Y-31397180D01*
X77192666Y-31397180D02*
X77287904Y-31444800D01*
X77287904Y-31444800D02*
X77335523Y-31492419D01*
X81386895Y-31205219D02*
X81386895Y-32014742D01*
X81386895Y-32014742D02*
X81434514Y-32109980D01*
X81434514Y-32109980D02*
X81482133Y-32157600D01*
X81482133Y-32157600D02*
X81577371Y-32205219D01*
X81577371Y-32205219D02*
X81767847Y-32205219D01*
X81767847Y-32205219D02*
X81863085Y-32157600D01*
X81863085Y-32157600D02*
X81910704Y-32109980D01*
X81910704Y-32109980D02*
X81958323Y-32014742D01*
X81958323Y-32014742D02*
X81958323Y-31205219D01*
X82386895Y-31300457D02*
X82434514Y-31252838D01*
X82434514Y-31252838D02*
X82529752Y-31205219D01*
X82529752Y-31205219D02*
X82767847Y-31205219D01*
X82767847Y-31205219D02*
X82863085Y-31252838D01*
X82863085Y-31252838D02*
X82910704Y-31300457D01*
X82910704Y-31300457D02*
X82958323Y-31395695D01*
X82958323Y-31395695D02*
X82958323Y-31490933D01*
X82958323Y-31490933D02*
X82910704Y-31633790D01*
X82910704Y-31633790D02*
X82339276Y-32205219D01*
X82339276Y-32205219D02*
X82958323Y-32205219D01*
X61352781Y-83619566D02*
X60638496Y-83619566D01*
X60638496Y-83619566D02*
X60495639Y-83571947D01*
X60495639Y-83571947D02*
X60400401Y-83476709D01*
X60400401Y-83476709D02*
X60352781Y-83333852D01*
X60352781Y-83333852D02*
X60352781Y-83238614D01*
X61257543Y-84048138D02*
X61305162Y-84095757D01*
X61305162Y-84095757D02*
X61352781Y-84190995D01*
X61352781Y-84190995D02*
X61352781Y-84429090D01*
X61352781Y-84429090D02*
X61305162Y-84524328D01*
X61305162Y-84524328D02*
X61257543Y-84571947D01*
X61257543Y-84571947D02*
X61162305Y-84619566D01*
X61162305Y-84619566D02*
X61067067Y-84619566D01*
X61067067Y-84619566D02*
X60924210Y-84571947D01*
X60924210Y-84571947D02*
X60352781Y-84000519D01*
X60352781Y-84000519D02*
X60352781Y-84619566D01*
X75906019Y-98777866D02*
X75429828Y-99111199D01*
X75906019Y-99349294D02*
X74906019Y-99349294D01*
X74906019Y-99349294D02*
X74906019Y-98968342D01*
X74906019Y-98968342D02*
X74953638Y-98873104D01*
X74953638Y-98873104D02*
X75001257Y-98825485D01*
X75001257Y-98825485D02*
X75096495Y-98777866D01*
X75096495Y-98777866D02*
X75239352Y-98777866D01*
X75239352Y-98777866D02*
X75334590Y-98825485D01*
X75334590Y-98825485D02*
X75382209Y-98873104D01*
X75382209Y-98873104D02*
X75429828Y-98968342D01*
X75429828Y-98968342D02*
X75429828Y-99349294D01*
X74906019Y-98444532D02*
X74906019Y-97825485D01*
X74906019Y-97825485D02*
X75286971Y-98158818D01*
X75286971Y-98158818D02*
X75286971Y-98015961D01*
X75286971Y-98015961D02*
X75334590Y-97920723D01*
X75334590Y-97920723D02*
X75382209Y-97873104D01*
X75382209Y-97873104D02*
X75477447Y-97825485D01*
X75477447Y-97825485D02*
X75715542Y-97825485D01*
X75715542Y-97825485D02*
X75810780Y-97873104D01*
X75810780Y-97873104D02*
X75858400Y-97920723D01*
X75858400Y-97920723D02*
X75906019Y-98015961D01*
X75906019Y-98015961D02*
X75906019Y-98301675D01*
X75906019Y-98301675D02*
X75858400Y-98396913D01*
X75858400Y-98396913D02*
X75810780Y-98444532D01*
X67634332Y-41597181D02*
X67634332Y-40882896D01*
X67634332Y-40882896D02*
X67681951Y-40740039D01*
X67681951Y-40740039D02*
X67777189Y-40644801D01*
X67777189Y-40644801D02*
X67920046Y-40597181D01*
X67920046Y-40597181D02*
X68015284Y-40597181D01*
X67015284Y-41168610D02*
X67110522Y-41216229D01*
X67110522Y-41216229D02*
X67158141Y-41263848D01*
X67158141Y-41263848D02*
X67205760Y-41359086D01*
X67205760Y-41359086D02*
X67205760Y-41406705D01*
X67205760Y-41406705D02*
X67158141Y-41501943D01*
X67158141Y-41501943D02*
X67110522Y-41549562D01*
X67110522Y-41549562D02*
X67015284Y-41597181D01*
X67015284Y-41597181D02*
X66824808Y-41597181D01*
X66824808Y-41597181D02*
X66729570Y-41549562D01*
X66729570Y-41549562D02*
X66681951Y-41501943D01*
X66681951Y-41501943D02*
X66634332Y-41406705D01*
X66634332Y-41406705D02*
X66634332Y-41359086D01*
X66634332Y-41359086D02*
X66681951Y-41263848D01*
X66681951Y-41263848D02*
X66729570Y-41216229D01*
X66729570Y-41216229D02*
X66824808Y-41168610D01*
X66824808Y-41168610D02*
X67015284Y-41168610D01*
X67015284Y-41168610D02*
X67110522Y-41120991D01*
X67110522Y-41120991D02*
X67158141Y-41073372D01*
X67158141Y-41073372D02*
X67205760Y-40978134D01*
X67205760Y-40978134D02*
X67205760Y-40787658D01*
X67205760Y-40787658D02*
X67158141Y-40692420D01*
X67158141Y-40692420D02*
X67110522Y-40644801D01*
X67110522Y-40644801D02*
X67015284Y-40597181D01*
X67015284Y-40597181D02*
X66824808Y-40597181D01*
X66824808Y-40597181D02*
X66729570Y-40644801D01*
X66729570Y-40644801D02*
X66681951Y-40692420D01*
X66681951Y-40692420D02*
X66634332Y-40787658D01*
X66634332Y-40787658D02*
X66634332Y-40978134D01*
X66634332Y-40978134D02*
X66681951Y-41073372D01*
X66681951Y-41073372D02*
X66729570Y-41120991D01*
X66729570Y-41120991D02*
X66824808Y-41168610D01*
D13*
%TO.C,J3*%
X67934600Y-95230500D02*
X48478200Y-95230500D01*
X48478200Y-95230500D02*
X48478200Y-108133700D01*
X67934600Y-108133700D02*
X67934600Y-95230500D01*
X48478200Y-108133700D02*
X67934600Y-108133700D01*
D14*
X65288600Y-93452500D02*
G75*
G03*
X65288600Y-93452500I-381000J0D01*
G01*
D13*
%TO.C,U1*%
X78337150Y-108151801D02*
X80343750Y-108151801D01*
X80343750Y-105002201D02*
X78337150Y-105002201D01*
%TO.C,J1*%
X67909399Y-57103401D02*
X48452999Y-57103401D01*
X48452999Y-57103401D02*
X48452999Y-70006601D01*
X67909399Y-70006601D02*
X67909399Y-57103401D01*
X48452999Y-70006601D02*
X67909399Y-70006601D01*
D14*
X65263399Y-55325401D02*
G75*
G03*
X65263399Y-55325401I-381000J0D01*
G01*
D13*
%TO.C,J4*%
X67934600Y-116693500D02*
X48478200Y-116693500D01*
X48478200Y-116693500D02*
X48478200Y-129596700D01*
X67934600Y-129596700D02*
X67934600Y-116693500D01*
X48478200Y-129596700D02*
X67934600Y-129596700D01*
D14*
X65288600Y-114915500D02*
G75*
G03*
X65288600Y-114915500I-381000J0D01*
G01*
D13*
%TO.C,J7*%
X76799001Y-140578599D02*
X96255401Y-140578599D01*
X96255401Y-140578599D02*
X96255401Y-127675399D01*
X76799001Y-127675399D02*
X76799001Y-140578599D01*
X96255401Y-127675399D02*
X76799001Y-127675399D01*
D14*
X80207001Y-142356599D02*
G75*
G03*
X80207001Y-142356599I-381000J0D01*
G01*
D13*
%TO.C,J6*%
X76799001Y-156478599D02*
X96255401Y-156478599D01*
X96255401Y-156478599D02*
X96255401Y-143575399D01*
X76799001Y-143575399D02*
X76799001Y-156478599D01*
X96255401Y-143575399D02*
X76799001Y-143575399D01*
D14*
X80207001Y-158256599D02*
G75*
G03*
X80207001Y-158256599I-381000J0D01*
G01*
D13*
%TO.C,J9*%
X76799001Y-89978599D02*
X96255401Y-89978599D01*
X96255401Y-89978599D02*
X96255401Y-77075399D01*
X76799001Y-77075399D02*
X76799001Y-89978599D01*
X96255401Y-77075399D02*
X76799001Y-77075399D01*
D14*
X80207001Y-91756599D02*
G75*
G03*
X80207001Y-91756599I-381000J0D01*
G01*
D13*
%TO.C,J5*%
X76699001Y-56178599D02*
X96155401Y-56178599D01*
X96155401Y-56178599D02*
X96155401Y-43275399D01*
X76699001Y-43275399D02*
X76699001Y-56178599D01*
X96155401Y-43275399D02*
X76699001Y-43275399D01*
D14*
X80107001Y-57956599D02*
G75*
G03*
X80107001Y-57956599I-381000J0D01*
G01*
D15*
%TO.C,R4*%
X79997064Y-103077200D02*
X78542936Y-103077200D01*
X79997064Y-101257200D02*
X78542936Y-101257200D01*
D13*
%TO.C,C1*%
X88626000Y-111423500D02*
X88626000Y-112693500D01*
X89261000Y-112058500D02*
X87991000Y-112058500D01*
X93007500Y-117202000D02*
G75*
G03*
X93007500Y-117202000I-4381500J0D01*
G01*
D15*
%TO.C,R1*%
X74541200Y-108170536D02*
X74541200Y-109624664D01*
X72721200Y-108170536D02*
X72721200Y-109624664D01*
%TO.C,R2*%
X74541200Y-102988936D02*
X74541200Y-104443064D01*
X72721200Y-102988936D02*
X72721200Y-104443064D01*
D13*
%TO.C,U3*%
X79227800Y-33553800D02*
X79227800Y-33362939D01*
X79227800Y-30341061D02*
X79227800Y-30150200D01*
X79227800Y-30150200D02*
X75824200Y-30150200D01*
X75824200Y-33553800D02*
X79227800Y-33553800D01*
X75824200Y-33362939D02*
X75824200Y-33553800D01*
X75824200Y-30150200D02*
X75824200Y-30341061D01*
%TO.C,U2*%
X80447000Y-30048600D02*
X80447000Y-30239461D01*
X80447000Y-33261339D02*
X80447000Y-33452200D01*
X80447000Y-33452200D02*
X83850600Y-33452200D01*
X83850600Y-30048600D02*
X80447000Y-30048600D01*
X83850600Y-30239461D02*
X83850600Y-30048600D01*
X83850600Y-33452200D02*
X83850600Y-33261339D01*
%TO.C,J2*%
X67934600Y-77501300D02*
X48478200Y-77501300D01*
X48478200Y-77501300D02*
X48478200Y-90404500D01*
X67934600Y-90404500D02*
X67934600Y-77501300D01*
X48478200Y-90404500D02*
X67934600Y-90404500D01*
D14*
X65288600Y-75723300D02*
G75*
G03*
X65288600Y-75723300I-381000J0D01*
G01*
D15*
%TO.C,R3*%
X74541200Y-97884136D02*
X74541200Y-99338264D01*
X72721200Y-97884136D02*
X72721200Y-99338264D01*
D13*
%TO.C,J8*%
X73752599Y-48179000D02*
X73752599Y-28722600D01*
X73752599Y-28722600D02*
X60849399Y-28722600D01*
X60849399Y-48179000D02*
X73752599Y-48179000D01*
X60849399Y-28722600D02*
X60849399Y-48179000D01*
D14*
X75911599Y-45152000D02*
G75*
G03*
X75911599Y-45152000I-381000J0D01*
G01*
%TD*%
M02*
