%TF.GenerationSoftware,KiCad,Pcbnew,7.0.8*%
%TF.CreationDate,2024-04-29T16:50:17-06:00*%
%TF.ProjectId,GR-LRR-POWER-PCB-INPUT,47522d4c-5252-42d5-904f-5745522d5043,rev?*%
%TF.SameCoordinates,Original*%
%TF.FileFunction,Profile,NP*%
%FSLAX46Y46*%
G04 Gerber Fmt 4.6, Leading zero omitted, Abs format (unit mm)*
G04 Created by KiCad (PCBNEW 7.0.8) date 2024-04-29 16:50:17*
%MOMM*%
%LPD*%
G01*
G04 APERTURE LIST*
%TA.AperFunction,Profile*%
%ADD10C,0.250000*%
%TD*%
G04 APERTURE END LIST*
D10*
X43166682Y-132648016D02*
X41371905Y-132648016D01*
X52710652Y-23962105D02*
G75*
G03*
X50871505Y-25801248I-52J-1839095D01*
G01*
X50871505Y-25801248D02*
X50871505Y-34691248D01*
X50871505Y-151023248D02*
G75*
G03*
X43211052Y-143362795I-7660455J-2D01*
G01*
X43166682Y-59724616D02*
X41371905Y-59724616D01*
X43166682Y-96186316D02*
X41371905Y-96186316D01*
X59079702Y-150705748D02*
G75*
G03*
X59079702Y-150705748I-1714500J0D01*
G01*
X89945384Y-25756878D02*
X89945384Y-23962101D01*
X93371905Y-25756878D02*
X89945384Y-25756878D01*
X41371905Y-132648016D02*
X41371905Y-141523648D01*
X41371905Y-125989880D02*
X43166682Y-125989880D01*
X41371905Y-59724616D02*
X41371905Y-89528180D01*
X41371905Y-89528180D02*
X43166682Y-89528180D01*
X52710652Y-161752395D02*
X89945384Y-161752395D01*
X50871505Y-159913248D02*
G75*
G03*
X52710652Y-161752395I1839195J48D01*
G01*
X89945384Y-159957618D02*
X93371905Y-159957618D01*
X89945384Y-23962101D02*
X52710652Y-23962101D01*
X93371905Y-159957605D02*
G75*
G03*
X96371905Y-156957618I-5J3000005D01*
G01*
X43166682Y-89528180D02*
X43166682Y-96186316D01*
X43166682Y-53066480D02*
X43166682Y-59724616D01*
X41371905Y-53066480D02*
X43166682Y-53066480D01*
X43211052Y-42351705D02*
G75*
G03*
X41371905Y-44190848I-12J-1839135D01*
G01*
X43211052Y-42351705D02*
G75*
G03*
X50871505Y-34691248I-2J7660455D01*
G01*
X43166682Y-125989880D02*
X43166682Y-132648016D01*
X66820352Y-112415248D02*
G75*
G03*
X66820352Y-112415248I-1714500J0D01*
G01*
X50871505Y-151023248D02*
X50871505Y-159913248D01*
X41371905Y-96186316D02*
X41371905Y-125989880D01*
X66820352Y-73299248D02*
G75*
G03*
X66820352Y-73299248I-1714500J0D01*
G01*
X41371905Y-141523648D02*
G75*
G03*
X43211052Y-143362795I1839195J48D01*
G01*
X59079702Y-35008748D02*
G75*
G03*
X59079702Y-35008748I-1714500J0D01*
G01*
X96371905Y-28756878D02*
X96371905Y-156957618D01*
X96371922Y-28756878D02*
G75*
G03*
X93371905Y-25756878I-3000022J-22D01*
G01*
X89945384Y-161752395D02*
X89945384Y-159957618D01*
X41371905Y-44190848D02*
X41371905Y-53066480D01*
M02*
