%TF.GenerationSoftware,KiCad,Pcbnew,7.0.8*%
%TF.CreationDate,2024-04-29T16:50:17-06:00*%
%TF.ProjectId,GR-LRR-POWER-PCB-INPUT,47522d4c-5252-42d5-904f-5745522d5043,rev?*%
%TF.SameCoordinates,Original*%
%TF.FileFunction,Copper,L1,Top*%
%TF.FilePolarity,Positive*%
%FSLAX46Y46*%
G04 Gerber Fmt 4.6, Leading zero omitted, Abs format (unit mm)*
G04 Created by KiCad (PCBNEW 7.0.8) date 2024-04-29 16:50:17*
%MOMM*%
%LPD*%
G01*
G04 APERTURE LIST*
G04 Aperture macros list*
%AMRoundRect*
0 Rectangle with rounded corners*
0 $1 Rounding radius*
0 $2 $3 $4 $5 $6 $7 $8 $9 X,Y pos of 4 corners*
0 Add a 4 corners polygon primitive as box body*
4,1,4,$2,$3,$4,$5,$6,$7,$8,$9,$2,$3,0*
0 Add four circle primitives for the rounded corners*
1,1,$1+$1,$2,$3*
1,1,$1+$1,$4,$5*
1,1,$1+$1,$6,$7*
1,1,$1+$1,$8,$9*
0 Add four rect primitives between the rounded corners*
20,1,$1+$1,$2,$3,$4,$5,0*
20,1,$1+$1,$4,$5,$6,$7,0*
20,1,$1+$1,$6,$7,$8,$9,0*
20,1,$1+$1,$8,$9,$2,$3,0*%
G04 Aperture macros list end*
%TA.AperFunction,ComponentPad*%
%ADD10C,1.905000*%
%TD*%
%TA.AperFunction,SMDPad,CuDef*%
%ADD11R,0.876300X0.406400*%
%TD*%
%TA.AperFunction,SMDPad,CuDef*%
%ADD12RoundRect,0.250000X0.400000X0.625000X-0.400000X0.625000X-0.400000X-0.625000X0.400000X-0.625000X0*%
%TD*%
%TA.AperFunction,ComponentPad*%
%ADD13C,1.371600*%
%TD*%
%TA.AperFunction,SMDPad,CuDef*%
%ADD14RoundRect,0.250000X-0.625000X0.400000X-0.625000X-0.400000X0.625000X-0.400000X0.625000X0.400000X0*%
%TD*%
%TA.AperFunction,SMDPad,CuDef*%
%ADD15R,0.558800X0.406400*%
%TD*%
%TA.AperFunction,SMDPad,CuDef*%
%ADD16R,0.508000X0.406400*%
%TD*%
%TA.AperFunction,ViaPad*%
%ADD17C,0.800000*%
%TD*%
%TA.AperFunction,Conductor*%
%ADD18C,0.250000*%
%TD*%
G04 APERTURE END LIST*
D10*
%TO.P,J3,1_1,1_1*%
%TO.N,BV1*%
X64907600Y-98957099D03*
%TO.P,J3,1_2,1_2*%
X56707601Y-98957099D03*
%TO.P,J3,2_1,2_1*%
%TO.N,BG*%
X64907600Y-103957099D03*
%TO.P,J3,2_2,2_2*%
X56707601Y-103957099D03*
%TD*%
D11*
%TO.P,U1,1,VIN*%
%TO.N,BV*%
X78026000Y-105602002D03*
%TO.P,U1,2,UV*%
%TO.N,Net-(U1-UV)*%
X78026000Y-106252000D03*
%TO.P,U1,3,OV*%
%TO.N,Net-(U1-OV)*%
X78026000Y-106902002D03*
%TO.P,U1,4,GND*%
%TO.N,BG*%
X78026000Y-107552000D03*
%TO.P,U1,5,\u002ASHDN*%
%TO.N,Net-(U1-\u002ASHDN)*%
X80654900Y-107552000D03*
%TO.P,U1,6,\u002AFAULT*%
%TO.N,unconnected-(U1-\u002AFAULT-Pad6)*%
X80654900Y-106902002D03*
%TO.P,U1,7,VOUT*%
%TO.N,BV_OUT*%
X80654900Y-106252000D03*
%TO.P,U1,8,GATE*%
%TO.N,Net-(U1-GATE)*%
X80654900Y-105602002D03*
%TD*%
D10*
%TO.P,J1,1_1,1_1*%
%TO.N,BV1*%
X64882399Y-60830000D03*
%TO.P,J1,1_2,1_2*%
X56682400Y-60830000D03*
%TO.P,J1,2_1,2_1*%
%TO.N,BG*%
X64882399Y-65830000D03*
%TO.P,J1,2_2,2_2*%
X56682400Y-65830000D03*
%TD*%
%TO.P,J4,1_1,1_1*%
%TO.N,BV1*%
X64907600Y-120420099D03*
%TO.P,J4,1_2,1_2*%
X56707601Y-120420099D03*
%TO.P,J4,2_1,2_1*%
%TO.N,BG*%
X64907600Y-125420099D03*
%TO.P,J4,2_2,2_2*%
X56707601Y-125420099D03*
%TD*%
%TO.P,J7,1_1,1_1*%
%TO.N,BV_OUT*%
X79826001Y-136852000D03*
%TO.P,J7,1_2,1_2*%
X88026000Y-136852000D03*
%TO.P,J7,2_1,2_1*%
X79826001Y-131852000D03*
%TO.P,J7,2_2,2_2*%
X88026000Y-131852000D03*
%TD*%
%TO.P,J6,1_1,1_1*%
%TO.N,BG*%
X79826001Y-152752000D03*
%TO.P,J6,1_2,1_2*%
X88026000Y-152752000D03*
%TO.P,J6,2_1,2_1*%
X79826001Y-147752000D03*
%TO.P,J6,2_2,2_2*%
X88026000Y-147752000D03*
%TD*%
%TO.P,J9,1_1,1_1*%
%TO.N,BG*%
X79826001Y-86252000D03*
%TO.P,J9,1_2,1_2*%
X88026000Y-86252000D03*
%TO.P,J9,2_1,2_1*%
X79826001Y-81252000D03*
%TO.P,J9,2_2,2_2*%
X88026000Y-81252000D03*
%TD*%
%TO.P,J5,1_1,1_1*%
%TO.N,BV_OUT*%
X79726001Y-52452000D03*
%TO.P,J5,1_2,1_2*%
X87926000Y-52452000D03*
%TO.P,J5,2_1,2_1*%
X79726001Y-47452000D03*
%TO.P,J5,2_2,2_2*%
X87926000Y-47452000D03*
%TD*%
D12*
%TO.P,R4,1*%
%TO.N,Net-(U1-\u002ASHDN)*%
X80820000Y-102167200D03*
%TO.P,R4,2*%
%TO.N,BV*%
X77720000Y-102167200D03*
%TD*%
D13*
%TO.P,C1,1*%
%TO.N,BV_OUT*%
X88626000Y-115452000D03*
%TO.P,C1,2*%
%TO.N,BG*%
X88626000Y-118952001D03*
%TD*%
D14*
%TO.P,R1,1*%
%TO.N,Net-(U1-OV)*%
X73631200Y-107347600D03*
%TO.P,R1,2*%
%TO.N,BG*%
X73631200Y-110447600D03*
%TD*%
%TO.P,R2,1*%
%TO.N,Net-(U1-UV)*%
X73631200Y-102166000D03*
%TO.P,R2,2*%
%TO.N,Net-(U1-OV)*%
X73631200Y-105266000D03*
%TD*%
D15*
%TO.P,U3,1,S*%
%TO.N,Net-(U2-S-Pad1)*%
X79043500Y-32826999D03*
%TO.P,U3,2,S*%
X79043500Y-32177001D03*
%TO.P,U3,3,S*%
X79043500Y-31526999D03*
%TO.P,U3,4,G*%
%TO.N,Net-(U1-GATE)*%
X79043500Y-30877001D03*
D16*
%TO.P,U3,5,D*%
%TO.N,BV*%
X76008500Y-30877001D03*
%TO.P,U3,6,D*%
X76008500Y-31526999D03*
%TO.P,U3,7,D*%
X76008500Y-32177001D03*
%TO.P,U3,8,D*%
X76008500Y-32826999D03*
%TD*%
D15*
%TO.P,U2,1,S*%
%TO.N,Net-(U2-S-Pad1)*%
X80631300Y-30775401D03*
%TO.P,U2,2,S*%
X80631300Y-31425399D03*
%TO.P,U2,3,S*%
X80631300Y-32075401D03*
%TO.P,U2,4,G*%
%TO.N,Net-(U1-GATE)*%
X80631300Y-32725399D03*
D16*
%TO.P,U2,5,D*%
%TO.N,BV_OUT*%
X83666300Y-32725399D03*
%TO.P,U2,6,D*%
X83666300Y-32075401D03*
%TO.P,U2,7,D*%
X83666300Y-31425399D03*
%TO.P,U2,8,D*%
X83666300Y-30775401D03*
%TD*%
D10*
%TO.P,J2,1_1,1_1*%
%TO.N,BV1*%
X64907600Y-81227899D03*
%TO.P,J2,1_2,1_2*%
X56707601Y-81227899D03*
%TO.P,J2,2_1,2_1*%
%TO.N,BG*%
X64907600Y-86227899D03*
%TO.P,J2,2_2,2_2*%
X56707601Y-86227899D03*
%TD*%
D14*
%TO.P,R3,1*%
%TO.N,BV*%
X73631200Y-97061200D03*
%TO.P,R3,2*%
%TO.N,Net-(U1-UV)*%
X73631200Y-100161200D03*
%TD*%
D10*
%TO.P,J8,1_1,1_1*%
%TO.N,BV*%
X70026000Y-45152000D03*
%TO.P,J8,1_2,1_2*%
X70026000Y-36952001D03*
%TO.P,J8,2_1,2_1*%
%TO.N,BV1*%
X65026000Y-45152000D03*
%TO.P,J8,2_2,2_2*%
X65026000Y-36952001D03*
%TD*%
D17*
%TO.N,BG*%
X73678000Y-112409200D03*
%TD*%
D18*
%TO.N,Net-(U1-OV)*%
X78026000Y-106902002D02*
X74076798Y-106902002D01*
X73631200Y-105266000D02*
X73631200Y-107347600D01*
X74076798Y-106902002D02*
X73631200Y-107347600D01*
%TO.N,Net-(U1-UV)*%
X78026000Y-106252000D02*
X77575028Y-106252000D01*
X73631200Y-102308172D02*
X73631200Y-102166000D01*
X77575028Y-106252000D02*
X73631200Y-102308172D01*
X73631200Y-102166000D02*
X73631200Y-100161200D01*
%TO.N,Net-(U1-\u002ASHDN)*%
X80203928Y-107552000D02*
X80654900Y-107552000D01*
X79778000Y-107126072D02*
X80203928Y-107552000D01*
X79778000Y-103209200D02*
X79778000Y-107126072D01*
X80820000Y-102167200D02*
X79778000Y-103209200D01*
%TO.N,BV_OUT*%
X80654900Y-106252000D02*
X81105868Y-106252000D01*
%TO.N,BG*%
X75130400Y-110447600D02*
X78026000Y-107552000D01*
X73631200Y-110447600D02*
X73631200Y-112362400D01*
X73631200Y-110447600D02*
X75130400Y-110447600D01*
X73631200Y-112362400D02*
X73678000Y-112409200D01*
%TO.N,BV*%
X78026000Y-105602002D02*
X77720000Y-105296002D01*
X77720000Y-102167200D02*
X77720000Y-101150000D01*
X73631200Y-97057200D02*
X70026000Y-93452000D01*
X70026000Y-93452000D02*
X70026000Y-45152000D01*
X77720000Y-105296002D02*
X77720000Y-102167200D01*
X73631200Y-97061200D02*
X73631200Y-97057200D01*
X77720000Y-101150000D02*
X73631200Y-97061200D01*
%TO.N,Net-(U1-GATE)*%
X79641200Y-100967200D02*
X70626000Y-91952000D01*
X79673300Y-30247201D02*
X81045320Y-30247201D01*
X81795000Y-104461902D02*
X81795000Y-101304026D01*
X81045320Y-30247201D02*
X81235700Y-30437581D01*
X81458174Y-100967200D02*
X79641200Y-100967200D01*
X80923522Y-32725399D02*
X80631300Y-32725399D01*
X81235700Y-32413221D02*
X80923522Y-32725399D01*
X81235700Y-30437581D02*
X81235700Y-32413221D01*
X81795000Y-101304026D02*
X81458174Y-100967200D01*
X70626000Y-51152000D02*
X80631300Y-41146700D01*
X70626000Y-91952000D02*
X70626000Y-51152000D01*
X79043500Y-30877001D02*
X79673300Y-30247201D01*
X80631300Y-41146700D02*
X80631300Y-32725399D01*
X80654900Y-105602002D02*
X81795000Y-104461902D01*
%TD*%
%TA.AperFunction,Conductor*%
%TO.N,BV_OUT*%
G36*
X95342023Y-29171685D02*
G01*
X95362246Y-29187900D01*
X95834667Y-29655823D01*
X95868444Y-29716982D01*
X95871405Y-29743920D01*
X95871405Y-50052000D01*
X89178963Y-50052000D01*
X87926000Y-48799038D01*
X86673035Y-50052000D01*
X80978964Y-50052000D01*
X79726001Y-48799038D01*
X78473036Y-50052000D01*
X76732142Y-50052000D01*
X76740491Y-49052105D01*
X76747057Y-48599040D01*
X76767710Y-48532297D01*
X76821171Y-48487312D01*
X76890467Y-48478372D01*
X76953595Y-48508315D01*
X76984902Y-48551727D01*
X77073603Y-48757358D01*
X77073604Y-48757359D01*
X78294150Y-47536813D01*
X79027501Y-47536813D01*
X79068096Y-47701511D01*
X79146925Y-47851707D01*
X79259408Y-47978675D01*
X79399008Y-48075033D01*
X79557611Y-48135184D01*
X79683751Y-48150500D01*
X79768251Y-48150500D01*
X79894391Y-48135184D01*
X80052994Y-48075033D01*
X80192594Y-47978675D01*
X80305077Y-47851707D01*
X80383906Y-47701511D01*
X80424501Y-47536813D01*
X80424501Y-47452001D01*
X81073039Y-47452001D01*
X82378397Y-48757359D01*
X82505145Y-48463527D01*
X82603784Y-48134048D01*
X82603787Y-48134038D01*
X82663505Y-47795356D01*
X82663506Y-47795345D01*
X82683505Y-47452003D01*
X84968496Y-47452003D01*
X84988494Y-47795345D01*
X84988495Y-47795356D01*
X85048213Y-48134038D01*
X85048216Y-48134048D01*
X85146855Y-48463527D01*
X85273602Y-48757358D01*
X85273603Y-48757359D01*
X86494149Y-47536813D01*
X87227500Y-47536813D01*
X87268095Y-47701511D01*
X87346924Y-47851707D01*
X87459407Y-47978675D01*
X87599007Y-48075033D01*
X87757610Y-48135184D01*
X87883750Y-48150500D01*
X87968250Y-48150500D01*
X88094390Y-48135184D01*
X88252993Y-48075033D01*
X88392593Y-47978675D01*
X88505076Y-47851707D01*
X88583905Y-47701511D01*
X88624500Y-47536813D01*
X88624500Y-47452001D01*
X89273038Y-47452001D01*
X90578396Y-48757359D01*
X90705144Y-48463527D01*
X90803783Y-48134048D01*
X90803786Y-48134038D01*
X90863504Y-47795356D01*
X90863505Y-47795345D01*
X90883504Y-47452003D01*
X90883504Y-47451996D01*
X90863505Y-47108654D01*
X90863504Y-47108643D01*
X90803786Y-46769961D01*
X90803783Y-46769951D01*
X90705144Y-46440472D01*
X90578396Y-46146639D01*
X89273038Y-47451999D01*
X89273038Y-47452001D01*
X88624500Y-47452001D01*
X88624500Y-47367187D01*
X88583905Y-47202489D01*
X88505076Y-47052293D01*
X88392593Y-46925325D01*
X88252993Y-46828967D01*
X88094390Y-46768816D01*
X87968250Y-46753500D01*
X87883750Y-46753500D01*
X87757610Y-46768816D01*
X87599007Y-46828967D01*
X87459407Y-46925325D01*
X87346924Y-47052293D01*
X87268095Y-47202489D01*
X87227500Y-47367187D01*
X87227500Y-47536813D01*
X86494149Y-47536813D01*
X86578962Y-47452000D01*
X86578962Y-47451999D01*
X85273603Y-46146640D01*
X85273602Y-46146640D01*
X85146855Y-46440472D01*
X85048216Y-46769951D01*
X85048213Y-46769961D01*
X84988495Y-47108643D01*
X84988494Y-47108654D01*
X84968496Y-47451996D01*
X84968496Y-47452003D01*
X82683505Y-47452003D01*
X82683505Y-47451996D01*
X82663506Y-47108654D01*
X82663505Y-47108643D01*
X82603787Y-46769961D01*
X82603784Y-46769951D01*
X82505145Y-46440472D01*
X82378397Y-46146639D01*
X81073039Y-47451999D01*
X81073039Y-47452001D01*
X80424501Y-47452001D01*
X80424501Y-47367187D01*
X80383906Y-47202489D01*
X80305077Y-47052293D01*
X80192594Y-46925325D01*
X80052994Y-46828967D01*
X79894391Y-46768816D01*
X79768251Y-46753500D01*
X79683751Y-46753500D01*
X79557611Y-46768816D01*
X79399008Y-46828967D01*
X79259408Y-46925325D01*
X79146925Y-47052293D01*
X79068096Y-47202489D01*
X79027501Y-47367187D01*
X79027501Y-47536813D01*
X78294150Y-47536813D01*
X78378963Y-47452000D01*
X78378963Y-47451999D01*
X77073603Y-46146640D01*
X77019360Y-46272389D01*
X76974732Y-46326149D01*
X76908124Y-46347247D01*
X76840683Y-46328985D01*
X76793821Y-46277161D01*
X76781514Y-46221481D01*
X76790991Y-45567619D01*
X76811644Y-45500876D01*
X76827287Y-45481749D01*
X77506743Y-44802293D01*
X78423332Y-44802293D01*
X79726001Y-46104962D01*
X79726002Y-46104962D01*
X81028668Y-44802293D01*
X86623331Y-44802293D01*
X87926000Y-46104962D01*
X87926001Y-46104962D01*
X89228667Y-44802293D01*
X89097403Y-44736370D01*
X88774219Y-44618741D01*
X88439566Y-44539427D01*
X88097957Y-44499500D01*
X87754043Y-44499500D01*
X87412434Y-44539427D01*
X87412432Y-44539427D01*
X87077780Y-44618741D01*
X86754592Y-44736372D01*
X86623331Y-44802293D01*
X81028668Y-44802293D01*
X80897404Y-44736370D01*
X80574220Y-44618741D01*
X80239567Y-44539427D01*
X79897958Y-44499500D01*
X79554044Y-44499500D01*
X79212435Y-44539427D01*
X79212433Y-44539427D01*
X78877781Y-44618741D01*
X78554593Y-44736372D01*
X78423332Y-44802293D01*
X77506743Y-44802293D01*
X79169317Y-43139719D01*
X79230636Y-43106237D01*
X79254497Y-43103430D01*
X80826200Y-43071996D01*
X81826000Y-43052000D01*
X81887305Y-34530496D01*
X81907472Y-34463603D01*
X81926000Y-34447780D01*
X81926000Y-35552000D01*
X86026000Y-35552000D01*
X86026000Y-29152000D01*
X95274984Y-29152000D01*
X95342023Y-29171685D01*
G37*
%TD.AperFunction*%
%TD*%
%TA.AperFunction,Conductor*%
%TO.N,Net-(U2-S-Pad1)*%
G36*
X80895848Y-30587053D02*
G01*
X80910200Y-30621701D01*
X80910200Y-32258098D01*
X80895848Y-32292746D01*
X80881247Y-32307347D01*
X80846599Y-32321699D01*
X80332152Y-32321699D01*
X80273669Y-32333332D01*
X80207347Y-32377646D01*
X80164329Y-32442028D01*
X80163033Y-32443968D01*
X80151400Y-32502451D01*
X80151400Y-32948347D01*
X80163033Y-33006830D01*
X80180782Y-33033394D01*
X80207347Y-33073151D01*
X80273669Y-33117466D01*
X80275548Y-33118244D01*
X80276986Y-33119682D01*
X80277682Y-33120147D01*
X80277589Y-33120285D01*
X80302069Y-33144760D01*
X80305800Y-33163515D01*
X80305800Y-33835000D01*
X80291448Y-33869648D01*
X80256800Y-33884000D01*
X78611496Y-33884000D01*
X78576848Y-33869648D01*
X78505552Y-33798352D01*
X78491200Y-33763704D01*
X78491200Y-31194198D01*
X78505552Y-31159550D01*
X78540200Y-31145198D01*
X78574848Y-31159550D01*
X78580938Y-31166970D01*
X78596242Y-31189874D01*
X78619547Y-31224753D01*
X78646112Y-31242502D01*
X78685869Y-31269068D01*
X78744352Y-31280701D01*
X78744355Y-31280701D01*
X79342645Y-31280701D01*
X79342648Y-31280701D01*
X79401131Y-31269068D01*
X79467452Y-31224753D01*
X79511767Y-31158432D01*
X79523400Y-31099949D01*
X79523400Y-30877723D01*
X79537752Y-30843075D01*
X79793774Y-30587053D01*
X79828422Y-30572701D01*
X80861200Y-30572701D01*
X80895848Y-30587053D01*
G37*
%TD.AperFunction*%
%TD*%
%TA.AperFunction,Conductor*%
%TO.N,BV*%
G36*
X76940352Y-29166352D02*
G01*
X77911648Y-30137648D01*
X77926000Y-30172296D01*
X77926000Y-34452000D01*
X73826000Y-34452000D01*
X73826000Y-29152000D01*
X76905704Y-29152000D01*
X76940352Y-29166352D01*
G37*
%TD.AperFunction*%
%TD*%
%TA.AperFunction,Conductor*%
%TO.N,BV_OUT*%
G36*
X79726001Y-51104962D02*
G01*
X79726002Y-51104962D01*
X80778962Y-50052000D01*
X86873037Y-50052000D01*
X87926000Y-51104962D01*
X87926001Y-51104962D01*
X88978961Y-50052000D01*
X95871405Y-50052000D01*
X95871405Y-140101138D01*
X95851720Y-140168177D01*
X95835086Y-140188819D01*
X95408224Y-140615681D01*
X95346901Y-140649166D01*
X95320543Y-140652000D01*
X77577442Y-140652000D01*
X77510403Y-140632315D01*
X77489664Y-140615584D01*
X76564543Y-139688417D01*
X76531126Y-139627057D01*
X76528321Y-139600564D01*
X76528539Y-139501706D01*
X78523331Y-139501706D01*
X78654586Y-139567624D01*
X78654587Y-139567625D01*
X78977781Y-139685258D01*
X79312434Y-139764572D01*
X79654043Y-139804499D01*
X79654044Y-139804500D01*
X79997958Y-139804500D01*
X79997958Y-139804499D01*
X80339566Y-139764572D01*
X80339568Y-139764572D01*
X80674220Y-139685258D01*
X80997414Y-139567625D01*
X80997415Y-139567624D01*
X81128669Y-139501706D01*
X86723330Y-139501706D01*
X86854585Y-139567624D01*
X86854586Y-139567625D01*
X87177780Y-139685258D01*
X87512433Y-139764572D01*
X87854042Y-139804499D01*
X87854043Y-139804500D01*
X88197957Y-139804500D01*
X88197957Y-139804499D01*
X88539565Y-139764572D01*
X88539567Y-139764572D01*
X88874219Y-139685258D01*
X89197413Y-139567625D01*
X89197414Y-139567624D01*
X89328668Y-139501706D01*
X89328668Y-139501705D01*
X88026000Y-138199038D01*
X86723330Y-139501705D01*
X86723330Y-139501706D01*
X81128669Y-139501706D01*
X81128669Y-139501705D01*
X79826001Y-138199038D01*
X78523331Y-139501705D01*
X78523331Y-139501706D01*
X76528539Y-139501706D01*
X76534388Y-136852003D01*
X76868497Y-136852003D01*
X76888495Y-137195345D01*
X76888496Y-137195356D01*
X76948214Y-137534038D01*
X76948217Y-137534048D01*
X77046856Y-137863527D01*
X77173603Y-138157358D01*
X77173604Y-138157359D01*
X78394150Y-136936813D01*
X79127501Y-136936813D01*
X79168096Y-137101511D01*
X79246925Y-137251707D01*
X79359408Y-137378675D01*
X79499008Y-137475033D01*
X79657611Y-137535184D01*
X79783751Y-137550500D01*
X79868251Y-137550500D01*
X79994391Y-137535184D01*
X80152994Y-137475033D01*
X80292594Y-137378675D01*
X80405077Y-137251707D01*
X80483906Y-137101511D01*
X80524501Y-136936813D01*
X80524501Y-136852001D01*
X81173039Y-136852001D01*
X82478397Y-138157359D01*
X82605145Y-137863527D01*
X82703784Y-137534048D01*
X82703787Y-137534038D01*
X82763505Y-137195356D01*
X82763506Y-137195345D01*
X82783505Y-136852003D01*
X85068496Y-136852003D01*
X85088494Y-137195345D01*
X85088495Y-137195356D01*
X85148213Y-137534038D01*
X85148216Y-137534048D01*
X85246855Y-137863527D01*
X85373602Y-138157358D01*
X85373603Y-138157359D01*
X86594149Y-136936813D01*
X87327500Y-136936813D01*
X87368095Y-137101511D01*
X87446924Y-137251707D01*
X87559407Y-137378675D01*
X87699007Y-137475033D01*
X87857610Y-137535184D01*
X87983750Y-137550500D01*
X88068250Y-137550500D01*
X88194390Y-137535184D01*
X88352993Y-137475033D01*
X88492593Y-137378675D01*
X88605076Y-137251707D01*
X88683905Y-137101511D01*
X88724500Y-136936813D01*
X88724500Y-136852000D01*
X89373038Y-136852000D01*
X90678396Y-138157359D01*
X90805144Y-137863527D01*
X90903783Y-137534048D01*
X90903786Y-137534038D01*
X90963504Y-137195356D01*
X90963505Y-137195345D01*
X90983504Y-136852003D01*
X90983504Y-136851996D01*
X90963505Y-136508654D01*
X90963504Y-136508643D01*
X90903786Y-136169961D01*
X90903783Y-136169951D01*
X90805144Y-135840472D01*
X90678396Y-135546639D01*
X89373038Y-136851999D01*
X89373038Y-136852000D01*
X88724500Y-136852000D01*
X88724500Y-136767187D01*
X88683905Y-136602489D01*
X88605076Y-136452293D01*
X88492593Y-136325325D01*
X88352993Y-136228967D01*
X88194390Y-136168816D01*
X88068250Y-136153500D01*
X87983750Y-136153500D01*
X87857610Y-136168816D01*
X87699007Y-136228967D01*
X87559407Y-136325325D01*
X87446924Y-136452293D01*
X87368095Y-136602489D01*
X87327500Y-136767187D01*
X87327500Y-136936813D01*
X86594149Y-136936813D01*
X86678962Y-136852000D01*
X86678962Y-136851999D01*
X85373602Y-135546640D01*
X85246855Y-135840472D01*
X85148216Y-136169951D01*
X85148213Y-136169961D01*
X85088495Y-136508643D01*
X85088494Y-136508654D01*
X85068496Y-136851996D01*
X85068496Y-136852003D01*
X82783505Y-136852003D01*
X82783505Y-136851996D01*
X82763506Y-136508654D01*
X82763505Y-136508643D01*
X82703787Y-136169961D01*
X82703784Y-136169951D01*
X82605145Y-135840472D01*
X82478397Y-135546639D01*
X81173039Y-136851999D01*
X81173039Y-136852001D01*
X80524501Y-136852001D01*
X80524501Y-136767187D01*
X80483906Y-136602489D01*
X80405077Y-136452293D01*
X80292594Y-136325325D01*
X80152994Y-136228967D01*
X79994391Y-136168816D01*
X79868251Y-136153500D01*
X79783751Y-136153500D01*
X79657611Y-136168816D01*
X79499008Y-136228967D01*
X79359408Y-136325325D01*
X79246925Y-136452293D01*
X79168096Y-136602489D01*
X79127501Y-136767187D01*
X79127501Y-136936813D01*
X78394150Y-136936813D01*
X78478963Y-136852000D01*
X78478963Y-136851999D01*
X77173604Y-135546640D01*
X77173603Y-135546640D01*
X77046856Y-135840472D01*
X76948217Y-136169951D01*
X76948214Y-136169961D01*
X76888496Y-136508643D01*
X76888495Y-136508654D01*
X76868497Y-136851996D01*
X76868497Y-136852003D01*
X76534388Y-136852003D01*
X76539907Y-134352000D01*
X78673039Y-134352000D01*
X79826001Y-135504962D01*
X80978963Y-134352000D01*
X86873038Y-134352000D01*
X88026000Y-135504962D01*
X89178962Y-134352000D01*
X88026000Y-133199038D01*
X86873038Y-134352000D01*
X80978963Y-134352000D01*
X79826001Y-133199038D01*
X78673039Y-134352000D01*
X76539907Y-134352000D01*
X76545426Y-131852003D01*
X76868497Y-131852003D01*
X76888495Y-132195345D01*
X76888496Y-132195356D01*
X76948214Y-132534038D01*
X76948217Y-132534048D01*
X77046856Y-132863527D01*
X77173603Y-133157358D01*
X77173604Y-133157359D01*
X78394150Y-131936813D01*
X79127501Y-131936813D01*
X79168096Y-132101511D01*
X79246925Y-132251707D01*
X79359408Y-132378675D01*
X79499008Y-132475033D01*
X79657611Y-132535184D01*
X79783751Y-132550500D01*
X79868251Y-132550500D01*
X79994391Y-132535184D01*
X80152994Y-132475033D01*
X80292594Y-132378675D01*
X80405077Y-132251707D01*
X80483906Y-132101511D01*
X80524501Y-131936813D01*
X80524501Y-131852001D01*
X81173039Y-131852001D01*
X82478397Y-133157359D01*
X82605145Y-132863527D01*
X82703784Y-132534048D01*
X82703787Y-132534038D01*
X82763505Y-132195356D01*
X82763506Y-132195345D01*
X82783505Y-131852003D01*
X85068496Y-131852003D01*
X85088494Y-132195345D01*
X85088495Y-132195356D01*
X85148213Y-132534038D01*
X85148216Y-132534048D01*
X85246855Y-132863527D01*
X85373602Y-133157358D01*
X85373603Y-133157359D01*
X86594149Y-131936813D01*
X87327500Y-131936813D01*
X87368095Y-132101511D01*
X87446924Y-132251707D01*
X87559407Y-132378675D01*
X87699007Y-132475033D01*
X87857610Y-132535184D01*
X87983750Y-132550500D01*
X88068250Y-132550500D01*
X88194390Y-132535184D01*
X88352993Y-132475033D01*
X88492593Y-132378675D01*
X88605076Y-132251707D01*
X88683905Y-132101511D01*
X88724500Y-131936813D01*
X88724500Y-131852000D01*
X89373038Y-131852000D01*
X90678396Y-133157359D01*
X90805144Y-132863527D01*
X90903783Y-132534048D01*
X90903786Y-132534038D01*
X90963504Y-132195356D01*
X90963505Y-132195345D01*
X90983504Y-131852003D01*
X90983504Y-131851996D01*
X90963505Y-131508654D01*
X90963504Y-131508643D01*
X90903786Y-131169961D01*
X90903783Y-131169951D01*
X90805144Y-130840472D01*
X90678396Y-130546639D01*
X89373038Y-131851999D01*
X89373038Y-131852000D01*
X88724500Y-131852000D01*
X88724500Y-131767187D01*
X88683905Y-131602489D01*
X88605076Y-131452293D01*
X88492593Y-131325325D01*
X88352993Y-131228967D01*
X88194390Y-131168816D01*
X88068250Y-131153500D01*
X87983750Y-131153500D01*
X87857610Y-131168816D01*
X87699007Y-131228967D01*
X87559407Y-131325325D01*
X87446924Y-131452293D01*
X87368095Y-131602489D01*
X87327500Y-131767187D01*
X87327500Y-131936813D01*
X86594149Y-131936813D01*
X86678962Y-131852000D01*
X86678962Y-131851999D01*
X85373602Y-130546640D01*
X85246855Y-130840472D01*
X85148216Y-131169951D01*
X85148213Y-131169961D01*
X85088495Y-131508643D01*
X85088494Y-131508654D01*
X85068496Y-131851996D01*
X85068496Y-131852003D01*
X82783505Y-131852003D01*
X82783505Y-131851996D01*
X82763506Y-131508654D01*
X82763505Y-131508643D01*
X82703787Y-131169961D01*
X82703784Y-131169951D01*
X82605145Y-130840472D01*
X82478397Y-130546639D01*
X81173039Y-131851999D01*
X81173039Y-131852001D01*
X80524501Y-131852001D01*
X80524501Y-131767187D01*
X80483906Y-131602489D01*
X80405077Y-131452293D01*
X80292594Y-131325325D01*
X80152994Y-131228967D01*
X79994391Y-131168816D01*
X79868251Y-131153500D01*
X79783751Y-131153500D01*
X79657611Y-131168816D01*
X79499008Y-131228967D01*
X79359408Y-131325325D01*
X79246925Y-131452293D01*
X79168096Y-131602489D01*
X79127501Y-131767187D01*
X79127501Y-131936813D01*
X78394150Y-131936813D01*
X78478963Y-131852000D01*
X78478963Y-131851999D01*
X77173604Y-130546640D01*
X77173603Y-130546640D01*
X77046856Y-130840472D01*
X76948217Y-131169951D01*
X76948214Y-131169961D01*
X76888496Y-131508643D01*
X76888495Y-131508654D01*
X76868497Y-131851996D01*
X76868497Y-131852003D01*
X76545426Y-131852003D01*
X76551275Y-129202293D01*
X78523332Y-129202293D01*
X79826001Y-130504962D01*
X79826002Y-130504962D01*
X81128668Y-129202293D01*
X86723331Y-129202293D01*
X88026000Y-130504962D01*
X88026001Y-130504962D01*
X89328667Y-129202293D01*
X89197403Y-129136370D01*
X88874219Y-129018741D01*
X88539566Y-128939427D01*
X88197957Y-128899500D01*
X87854043Y-128899500D01*
X87512434Y-128939427D01*
X87512432Y-128939427D01*
X87177780Y-129018741D01*
X86854592Y-129136372D01*
X86723331Y-129202293D01*
X81128668Y-129202293D01*
X80997404Y-129136370D01*
X80674220Y-129018741D01*
X80339567Y-128939427D01*
X79997958Y-128899500D01*
X79654044Y-128899500D01*
X79312435Y-128939427D01*
X79312433Y-128939427D01*
X78977781Y-129018741D01*
X78654593Y-129136372D01*
X78523332Y-129202293D01*
X76551275Y-129202293D01*
X76576504Y-117773392D01*
X87274473Y-117773392D01*
X87375571Y-117834507D01*
X87671849Y-117967852D01*
X87671863Y-117967857D01*
X87940324Y-118051512D01*
X87998472Y-118090250D01*
X88026446Y-118154275D01*
X88015365Y-118223260D01*
X87995584Y-118252870D01*
X87864344Y-118398627D01*
X87765936Y-118569074D01*
X87705117Y-118756257D01*
X87705116Y-118756261D01*
X87684543Y-118952001D01*
X87705116Y-119147741D01*
X87705117Y-119147744D01*
X87765936Y-119334927D01*
X87843548Y-119469354D01*
X87864345Y-119505376D01*
X87910220Y-119556326D01*
X87996036Y-119651635D01*
X87996039Y-119651637D01*
X87996042Y-119651640D01*
X88115463Y-119738405D01*
X88155272Y-119767328D01*
X88224292Y-119798057D01*
X88335074Y-119847380D01*
X88527591Y-119888301D01*
X88724409Y-119888301D01*
X88916926Y-119847380D01*
X89096729Y-119767327D01*
X89255958Y-119651640D01*
X89387655Y-119505376D01*
X89486064Y-119334926D01*
X89546884Y-119147741D01*
X89567457Y-118952001D01*
X89546884Y-118756261D01*
X89486064Y-118569076D01*
X89387655Y-118398626D01*
X89308564Y-118310787D01*
X89256416Y-118252870D01*
X89226186Y-118189878D01*
X89234811Y-118120543D01*
X89279553Y-118066878D01*
X89311676Y-118051512D01*
X89580136Y-117967857D01*
X89580150Y-117967852D01*
X89876428Y-117834507D01*
X89977525Y-117773392D01*
X88626000Y-116421867D01*
X87274473Y-117773392D01*
X76576504Y-117773392D01*
X76581629Y-115452000D01*
X85935291Y-115452000D01*
X85954908Y-115776323D01*
X86013480Y-116095937D01*
X86110136Y-116406121D01*
X86110147Y-116406150D01*
X86243486Y-116702416D01*
X86243495Y-116702432D01*
X86304607Y-116803524D01*
X87656132Y-115452000D01*
X87656132Y-115451999D01*
X87623500Y-115419367D01*
X88190544Y-115419367D01*
X88200271Y-115549170D01*
X88247827Y-115670338D01*
X88328984Y-115772107D01*
X88436533Y-115845432D01*
X88560917Y-115883800D01*
X88658357Y-115883800D01*
X88754713Y-115869277D01*
X88871989Y-115812799D01*
X88967408Y-115724264D01*
X89032491Y-115611536D01*
X89061456Y-115484633D01*
X89059011Y-115452000D01*
X89595867Y-115452000D01*
X90947392Y-116803525D01*
X91008507Y-116702428D01*
X91141852Y-116406150D01*
X91141863Y-116406121D01*
X91238519Y-116095937D01*
X91297091Y-115776323D01*
X91316708Y-115452000D01*
X91297091Y-115127676D01*
X91238519Y-114808062D01*
X91141863Y-114497878D01*
X91141852Y-114497849D01*
X91008507Y-114201571D01*
X90947392Y-114100473D01*
X89595867Y-115451999D01*
X89595867Y-115452000D01*
X89059011Y-115452000D01*
X89051729Y-115354830D01*
X89004173Y-115233662D01*
X88923016Y-115131893D01*
X88815467Y-115058568D01*
X88691083Y-115020200D01*
X88593643Y-115020200D01*
X88497287Y-115034723D01*
X88380011Y-115091201D01*
X88284592Y-115179736D01*
X88219509Y-115292464D01*
X88190544Y-115419367D01*
X87623500Y-115419367D01*
X86304607Y-114100473D01*
X86304606Y-114100474D01*
X86243499Y-114201559D01*
X86243486Y-114201583D01*
X86110147Y-114497849D01*
X86110136Y-114497878D01*
X86013480Y-114808062D01*
X85954908Y-115127676D01*
X85935291Y-115452000D01*
X76581629Y-115452000D01*
X76586753Y-113130607D01*
X87274473Y-113130607D01*
X88625999Y-114482132D01*
X89977524Y-113130607D01*
X89876432Y-113069495D01*
X89876416Y-113069486D01*
X89580150Y-112936147D01*
X89580121Y-112936136D01*
X89269937Y-112839480D01*
X88950323Y-112780908D01*
X88626000Y-112761291D01*
X88301676Y-112780908D01*
X87982062Y-112839480D01*
X87671878Y-112936136D01*
X87671849Y-112936147D01*
X87375583Y-113069486D01*
X87375559Y-113069499D01*
X87274474Y-113130606D01*
X87274473Y-113130607D01*
X76586753Y-113130607D01*
X76594623Y-109565494D01*
X76614455Y-109498505D01*
X76630930Y-109478106D01*
X78067019Y-108042019D01*
X78128342Y-108008534D01*
X78154700Y-108005700D01*
X78488826Y-108005700D01*
X78488827Y-108005699D01*
X78561890Y-107991166D01*
X78644751Y-107935801D01*
X78650599Y-107927048D01*
X78704208Y-107882245D01*
X78773532Y-107873536D01*
X78836561Y-107903690D01*
X78841381Y-107908259D01*
X78903672Y-107970550D01*
X78903684Y-107970560D01*
X79132710Y-108142007D01*
X79132711Y-108142008D01*
X79383792Y-108279108D01*
X79383791Y-108279108D01*
X79651854Y-108379090D01*
X79931387Y-108439899D01*
X80145316Y-108455200D01*
X80451700Y-108455200D01*
X80451700Y-108129700D01*
X80471385Y-108062661D01*
X80524189Y-108016906D01*
X80575700Y-108005700D01*
X80734100Y-108005700D01*
X80801139Y-108025385D01*
X80846894Y-108078189D01*
X80858100Y-108129700D01*
X80858100Y-108455200D01*
X81164484Y-108455200D01*
X81378412Y-108439899D01*
X81657945Y-108379090D01*
X81926008Y-108279108D01*
X82177088Y-108142008D01*
X82177089Y-108142007D01*
X82406115Y-107970560D01*
X82406127Y-107970550D01*
X82608400Y-107768277D01*
X82608410Y-107768265D01*
X82779857Y-107539239D01*
X82779858Y-107539238D01*
X82916958Y-107288158D01*
X83016940Y-107020095D01*
X83077749Y-106740562D01*
X83093050Y-106526634D01*
X83093050Y-106455200D01*
X81164615Y-106455200D01*
X81140422Y-106452817D01*
X81117725Y-106448302D01*
X81117724Y-106448302D01*
X80575700Y-106448302D01*
X80508661Y-106428617D01*
X80462906Y-106375813D01*
X80451700Y-106324302D01*
X80451700Y-106179702D01*
X80471385Y-106112663D01*
X80524189Y-106066908D01*
X80575700Y-106055702D01*
X81117725Y-106055702D01*
X81140442Y-106051183D01*
X81164635Y-106048800D01*
X83093050Y-106048800D01*
X83093050Y-105977366D01*
X83077749Y-105763437D01*
X83016940Y-105483904D01*
X82916958Y-105215841D01*
X82779858Y-104964761D01*
X82779857Y-104964760D01*
X82608410Y-104735734D01*
X82608400Y-104735722D01*
X82406127Y-104533449D01*
X82406115Y-104533439D01*
X82220189Y-104394256D01*
X82178318Y-104338322D01*
X82170500Y-104294989D01*
X82170500Y-101355830D01*
X82173139Y-101330385D01*
X82174295Y-101324870D01*
X82175367Y-101319758D01*
X82172887Y-101299864D01*
X82170977Y-101284532D01*
X82170500Y-101276856D01*
X82170500Y-101272915D01*
X82170498Y-101272902D01*
X82166657Y-101249885D01*
X82161085Y-101205181D01*
X82159866Y-101195400D01*
X82159864Y-101195396D01*
X82157622Y-101187866D01*
X82155065Y-101180418D01*
X82155065Y-101180416D01*
X82128944Y-101132148D01*
X82104826Y-101082815D01*
X82104824Y-101082813D01*
X82104824Y-101082812D01*
X82100276Y-101076442D01*
X82095420Y-101070202D01*
X82095419Y-101070200D01*
X82055030Y-101033019D01*
X81760323Y-100738311D01*
X81744196Y-100718452D01*
X81738260Y-100709367D01*
X81738257Y-100709363D01*
X81710248Y-100687563D01*
X81704484Y-100682472D01*
X81701689Y-100679677D01*
X81682679Y-100666106D01*
X81639363Y-100632390D01*
X81632448Y-100628648D01*
X81625374Y-100625190D01*
X81572770Y-100609529D01*
X81520832Y-100591699D01*
X81513097Y-100590408D01*
X81505259Y-100589431D01*
X81450418Y-100591700D01*
X79848099Y-100591700D01*
X79781060Y-100572015D01*
X79760418Y-100555381D01*
X76657874Y-97452837D01*
X76624389Y-97391514D01*
X76621556Y-97364896D01*
X76646088Y-86252000D01*
X78617847Y-86252000D01*
X78638417Y-86473997D01*
X78638418Y-86473999D01*
X78699429Y-86688431D01*
X78699435Y-86688446D01*
X78798808Y-86888011D01*
X78933164Y-87065928D01*
X79097926Y-87216128D01*
X79287480Y-87333495D01*
X79495374Y-87414033D01*
X79714527Y-87455000D01*
X79714529Y-87455000D01*
X79937473Y-87455000D01*
X79937475Y-87455000D01*
X80156628Y-87414033D01*
X80364522Y-87333495D01*
X80554076Y-87216128D01*
X80718838Y-87065928D01*
X80853194Y-86888011D01*
X80952571Y-86688436D01*
X81013584Y-86473998D01*
X81034155Y-86252000D01*
X86817846Y-86252000D01*
X86838416Y-86473997D01*
X86838417Y-86473999D01*
X86899428Y-86688431D01*
X86899434Y-86688446D01*
X86998807Y-86888011D01*
X87133163Y-87065928D01*
X87297925Y-87216128D01*
X87487479Y-87333495D01*
X87695373Y-87414033D01*
X87914526Y-87455000D01*
X87914528Y-87455000D01*
X88137472Y-87455000D01*
X88137474Y-87455000D01*
X88356627Y-87414033D01*
X88564521Y-87333495D01*
X88754075Y-87216128D01*
X88918837Y-87065928D01*
X89053193Y-86888011D01*
X89152570Y-86688436D01*
X89213583Y-86473998D01*
X89234154Y-86252000D01*
X89213583Y-86030002D01*
X89152570Y-85815564D01*
X89053193Y-85615989D01*
X88918837Y-85438072D01*
X88918834Y-85438069D01*
X88918831Y-85438066D01*
X88754076Y-85287873D01*
X88754075Y-85287872D01*
X88564521Y-85170505D01*
X88356627Y-85089967D01*
X88137474Y-85049000D01*
X87914526Y-85049000D01*
X87695373Y-85089967D01*
X87695370Y-85089967D01*
X87695370Y-85089968D01*
X87487481Y-85170504D01*
X87487480Y-85170504D01*
X87297923Y-85287873D01*
X87133168Y-85438066D01*
X87133165Y-85438069D01*
X86998807Y-85615988D01*
X86899434Y-85815553D01*
X86899428Y-85815568D01*
X86838417Y-86030000D01*
X86838416Y-86030002D01*
X86817846Y-86251999D01*
X86817846Y-86252000D01*
X81034155Y-86252000D01*
X81013584Y-86030002D01*
X80952571Y-85815564D01*
X80853194Y-85615989D01*
X80718838Y-85438072D01*
X80718835Y-85438069D01*
X80718832Y-85438066D01*
X80554077Y-85287873D01*
X80554076Y-85287872D01*
X80364522Y-85170505D01*
X80156628Y-85089967D01*
X79937475Y-85049000D01*
X79714527Y-85049000D01*
X79495374Y-85089967D01*
X79495371Y-85089967D01*
X79495371Y-85089968D01*
X79287482Y-85170504D01*
X79287481Y-85170504D01*
X79097924Y-85287873D01*
X78933169Y-85438066D01*
X78933166Y-85438069D01*
X78798808Y-85615988D01*
X78699435Y-85815553D01*
X78699429Y-85815568D01*
X78638418Y-86030000D01*
X78638417Y-86030002D01*
X78617847Y-86251999D01*
X78617847Y-86252000D01*
X76646088Y-86252000D01*
X76657125Y-81252000D01*
X78617847Y-81252000D01*
X78638417Y-81473997D01*
X78638418Y-81473999D01*
X78699429Y-81688431D01*
X78699435Y-81688446D01*
X78798808Y-81888011D01*
X78933164Y-82065928D01*
X79097926Y-82216128D01*
X79287480Y-82333495D01*
X79495374Y-82414033D01*
X79714527Y-82455000D01*
X79714529Y-82455000D01*
X79937473Y-82455000D01*
X79937475Y-82455000D01*
X80156628Y-82414033D01*
X80364522Y-82333495D01*
X80554076Y-82216128D01*
X80718838Y-82065928D01*
X80853194Y-81888011D01*
X80952571Y-81688436D01*
X81013584Y-81473998D01*
X81034155Y-81252000D01*
X86817846Y-81252000D01*
X86838416Y-81473997D01*
X86838417Y-81473999D01*
X86899428Y-81688431D01*
X86899434Y-81688446D01*
X86998807Y-81888011D01*
X87133163Y-82065928D01*
X87297925Y-82216128D01*
X87487479Y-82333495D01*
X87695373Y-82414033D01*
X87914526Y-82455000D01*
X87914528Y-82455000D01*
X88137472Y-82455000D01*
X88137474Y-82455000D01*
X88356627Y-82414033D01*
X88564521Y-82333495D01*
X88754075Y-82216128D01*
X88918837Y-82065928D01*
X89053193Y-81888011D01*
X89152570Y-81688436D01*
X89213583Y-81473998D01*
X89234154Y-81252000D01*
X89213583Y-81030002D01*
X89152570Y-80815564D01*
X89053193Y-80615989D01*
X88918837Y-80438072D01*
X88918834Y-80438069D01*
X88918831Y-80438066D01*
X88754076Y-80287873D01*
X88754075Y-80287872D01*
X88564521Y-80170505D01*
X88356627Y-80089967D01*
X88137474Y-80049000D01*
X87914526Y-80049000D01*
X87695373Y-80089967D01*
X87695370Y-80089967D01*
X87695370Y-80089968D01*
X87487481Y-80170504D01*
X87487480Y-80170504D01*
X87297923Y-80287873D01*
X87133168Y-80438066D01*
X87133165Y-80438069D01*
X86998807Y-80615988D01*
X86899434Y-80815553D01*
X86899428Y-80815568D01*
X86838417Y-81030000D01*
X86838416Y-81030002D01*
X86817846Y-81251999D01*
X86817846Y-81252000D01*
X81034155Y-81252000D01*
X81013584Y-81030002D01*
X80952571Y-80815564D01*
X80853194Y-80615989D01*
X80718838Y-80438072D01*
X80718835Y-80438069D01*
X80718832Y-80438066D01*
X80554077Y-80287873D01*
X80554076Y-80287872D01*
X80364522Y-80170505D01*
X80156628Y-80089967D01*
X79937475Y-80049000D01*
X79714527Y-80049000D01*
X79495374Y-80089967D01*
X79495371Y-80089967D01*
X79495371Y-80089968D01*
X79287482Y-80170504D01*
X79287481Y-80170504D01*
X79097924Y-80287873D01*
X78933169Y-80438066D01*
X78933166Y-80438069D01*
X78798808Y-80615988D01*
X78699435Y-80815553D01*
X78699429Y-80815568D01*
X78638418Y-81030000D01*
X78638417Y-81030002D01*
X78617847Y-81251999D01*
X78617847Y-81252000D01*
X76657125Y-81252000D01*
X76714852Y-55101706D01*
X78423331Y-55101706D01*
X78554586Y-55167624D01*
X78554587Y-55167625D01*
X78877781Y-55285258D01*
X79212434Y-55364572D01*
X79554043Y-55404499D01*
X79554044Y-55404500D01*
X79897958Y-55404500D01*
X79897958Y-55404499D01*
X80239566Y-55364572D01*
X80239568Y-55364572D01*
X80574220Y-55285258D01*
X80897414Y-55167625D01*
X80897415Y-55167624D01*
X81028669Y-55101706D01*
X86623330Y-55101706D01*
X86754585Y-55167624D01*
X86754586Y-55167625D01*
X87077780Y-55285258D01*
X87412433Y-55364572D01*
X87754042Y-55404499D01*
X87754043Y-55404500D01*
X88097957Y-55404500D01*
X88097957Y-55404499D01*
X88439565Y-55364572D01*
X88439567Y-55364572D01*
X88774219Y-55285258D01*
X89097413Y-55167625D01*
X89097414Y-55167624D01*
X89228668Y-55101706D01*
X89228668Y-55101705D01*
X87926000Y-53799038D01*
X86623330Y-55101705D01*
X86623330Y-55101706D01*
X81028669Y-55101706D01*
X81028669Y-55101705D01*
X79726001Y-53799038D01*
X78423331Y-55101705D01*
X78423331Y-55101706D01*
X76714852Y-55101706D01*
X76718313Y-53533958D01*
X76738145Y-53466966D01*
X76791050Y-53421328D01*
X76860230Y-53411537D01*
X76923721Y-53440703D01*
X76956171Y-53485122D01*
X77073603Y-53757358D01*
X77073604Y-53757359D01*
X78294150Y-52536813D01*
X79027501Y-52536813D01*
X79068096Y-52701511D01*
X79146925Y-52851707D01*
X79259408Y-52978675D01*
X79399008Y-53075033D01*
X79557611Y-53135184D01*
X79683751Y-53150500D01*
X79768251Y-53150500D01*
X79894391Y-53135184D01*
X80052994Y-53075033D01*
X80192594Y-52978675D01*
X80305077Y-52851707D01*
X80383906Y-52701511D01*
X80424501Y-52536813D01*
X80424501Y-52452001D01*
X81073039Y-52452001D01*
X82378397Y-53757359D01*
X82505145Y-53463527D01*
X82603784Y-53134048D01*
X82603787Y-53134038D01*
X82663505Y-52795356D01*
X82663506Y-52795345D01*
X82683505Y-52452003D01*
X84968496Y-52452003D01*
X84988494Y-52795345D01*
X84988495Y-52795356D01*
X85048213Y-53134038D01*
X85048216Y-53134048D01*
X85146855Y-53463527D01*
X85273602Y-53757358D01*
X85273603Y-53757359D01*
X86494149Y-52536813D01*
X87227500Y-52536813D01*
X87268095Y-52701511D01*
X87346924Y-52851707D01*
X87459407Y-52978675D01*
X87599007Y-53075033D01*
X87757610Y-53135184D01*
X87883750Y-53150500D01*
X87968250Y-53150500D01*
X88094390Y-53135184D01*
X88252993Y-53075033D01*
X88392593Y-52978675D01*
X88505076Y-52851707D01*
X88583905Y-52701511D01*
X88624500Y-52536813D01*
X88624500Y-52452001D01*
X89273038Y-52452001D01*
X90578396Y-53757359D01*
X90705144Y-53463527D01*
X90803783Y-53134048D01*
X90803786Y-53134038D01*
X90863504Y-52795356D01*
X90863505Y-52795345D01*
X90883504Y-52452003D01*
X90883504Y-52451996D01*
X90863505Y-52108654D01*
X90863504Y-52108643D01*
X90803786Y-51769961D01*
X90803783Y-51769951D01*
X90705144Y-51440472D01*
X90578396Y-51146639D01*
X89273038Y-52451999D01*
X89273038Y-52452001D01*
X88624500Y-52452001D01*
X88624500Y-52367187D01*
X88583905Y-52202489D01*
X88505076Y-52052293D01*
X88392593Y-51925325D01*
X88252993Y-51828967D01*
X88094390Y-51768816D01*
X87968250Y-51753500D01*
X87883750Y-51753500D01*
X87757610Y-51768816D01*
X87599007Y-51828967D01*
X87459407Y-51925325D01*
X87346924Y-52052293D01*
X87268095Y-52202489D01*
X87227500Y-52367187D01*
X87227500Y-52536813D01*
X86494149Y-52536813D01*
X86578962Y-52452000D01*
X86578962Y-52451999D01*
X85273603Y-51146640D01*
X85273602Y-51146640D01*
X85146855Y-51440472D01*
X85048216Y-51769951D01*
X85048213Y-51769961D01*
X84988495Y-52108643D01*
X84988494Y-52108654D01*
X84968496Y-52451996D01*
X84968496Y-52452003D01*
X82683505Y-52452003D01*
X82683505Y-52451996D01*
X82663506Y-52108654D01*
X82663505Y-52108643D01*
X82603787Y-51769961D01*
X82603784Y-51769951D01*
X82505145Y-51440472D01*
X82378397Y-51146639D01*
X81073039Y-52451999D01*
X81073039Y-52452001D01*
X80424501Y-52452001D01*
X80424501Y-52367187D01*
X80383906Y-52202489D01*
X80305077Y-52052293D01*
X80192594Y-51925325D01*
X80052994Y-51828967D01*
X79894391Y-51768816D01*
X79768251Y-51753500D01*
X79683751Y-51753500D01*
X79557611Y-51768816D01*
X79399008Y-51828967D01*
X79259408Y-51925325D01*
X79146925Y-52052293D01*
X79068096Y-52202489D01*
X79027501Y-52367187D01*
X79027501Y-52536813D01*
X78294150Y-52536813D01*
X78378963Y-52452000D01*
X78378963Y-52451999D01*
X77073603Y-51146640D01*
X76960974Y-51407743D01*
X76916346Y-51461503D01*
X76849738Y-51482601D01*
X76782297Y-51464339D01*
X76735435Y-51412515D01*
X76723115Y-51358358D01*
X76723792Y-51051998D01*
X76732142Y-50052000D01*
X78673038Y-50052000D01*
X79726001Y-51104962D01*
G37*
%TD.AperFunction*%
%TD*%
%TA.AperFunction,Conductor*%
%TO.N,BV_OUT*%
G36*
X86026000Y-35552000D02*
G01*
X81926000Y-35552000D01*
X81926000Y-30154712D01*
X81933135Y-30137746D01*
X82911670Y-29166226D01*
X82946193Y-29152000D01*
X86026000Y-29152000D01*
X86026000Y-35552000D01*
G37*
%TD.AperFunction*%
%TD*%
%TA.AperFunction,Conductor*%
%TO.N,BV*%
G36*
X73826000Y-30130092D02*
G01*
X73769800Y-30388438D01*
X73754500Y-30602367D01*
X73754500Y-30673801D01*
X73826000Y-30673801D01*
X73826000Y-31080201D01*
X73754500Y-31080201D01*
X73754500Y-31151636D01*
X73757469Y-31193155D01*
X73757469Y-31210845D01*
X73754500Y-31252364D01*
X73754500Y-31323799D01*
X73826000Y-31323799D01*
X73826000Y-31730199D01*
X73754500Y-31730199D01*
X73754500Y-31801633D01*
X73757469Y-31843156D01*
X73757469Y-31860844D01*
X73754500Y-31902367D01*
X73754500Y-31973801D01*
X73826000Y-31973801D01*
X73826000Y-32380201D01*
X73754500Y-32380201D01*
X73754500Y-32451635D01*
X73769800Y-32665563D01*
X73826000Y-32923908D01*
X73826000Y-34452000D01*
X77926000Y-34452000D01*
X77926000Y-40901643D01*
X77906315Y-40968682D01*
X77890890Y-40988098D01*
X76961495Y-41943668D01*
X76900643Y-41978002D01*
X76876048Y-41981165D01*
X75325614Y-42024232D01*
X75325613Y-42024232D01*
X74326000Y-42052000D01*
X74341150Y-43051883D01*
X74397875Y-46795830D01*
X74379208Y-46863160D01*
X74361570Y-46885390D01*
X72604012Y-48642948D01*
X72542689Y-48676433D01*
X72518102Y-48679254D01*
X68628987Y-48734813D01*
X68477773Y-48736973D01*
X68410460Y-48718249D01*
X68388950Y-48701292D01*
X68329767Y-48642948D01*
X67640887Y-47963840D01*
X67606967Y-47902760D01*
X67603943Y-47875669D01*
X67603873Y-47801706D01*
X68723330Y-47801706D01*
X68854585Y-47867624D01*
X68854586Y-47867625D01*
X69177780Y-47985258D01*
X69512433Y-48064572D01*
X69854042Y-48104499D01*
X69854043Y-48104500D01*
X70197957Y-48104500D01*
X70197957Y-48104499D01*
X70539565Y-48064572D01*
X70539567Y-48064572D01*
X70874219Y-47985258D01*
X71197413Y-47867625D01*
X71197414Y-47867624D01*
X71328668Y-47801706D01*
X71328668Y-47801705D01*
X70026000Y-46499038D01*
X68723330Y-47801705D01*
X68723330Y-47801706D01*
X67603873Y-47801706D01*
X67602434Y-46280002D01*
X67622054Y-46212948D01*
X67638752Y-46192208D01*
X68594149Y-45236813D01*
X69327500Y-45236813D01*
X69368095Y-45401511D01*
X69446924Y-45551707D01*
X69559407Y-45678675D01*
X69699007Y-45775033D01*
X69857610Y-45835184D01*
X69983750Y-45850500D01*
X70068250Y-45850500D01*
X70194390Y-45835184D01*
X70352993Y-45775033D01*
X70492593Y-45678675D01*
X70605076Y-45551707D01*
X70683905Y-45401511D01*
X70724500Y-45236813D01*
X70724500Y-45152001D01*
X71373038Y-45152001D01*
X72678396Y-46457359D01*
X72805144Y-46163527D01*
X72903783Y-45834048D01*
X72903786Y-45834038D01*
X72963504Y-45495356D01*
X72963505Y-45495345D01*
X72983504Y-45152003D01*
X72983504Y-45151996D01*
X72963505Y-44808654D01*
X72963504Y-44808643D01*
X72903786Y-44469961D01*
X72903783Y-44469951D01*
X72805144Y-44140472D01*
X72678396Y-43846639D01*
X71373038Y-45151999D01*
X71373038Y-45152001D01*
X70724500Y-45152001D01*
X70724500Y-45067187D01*
X70683905Y-44902489D01*
X70605076Y-44752293D01*
X70492593Y-44625325D01*
X70352993Y-44528967D01*
X70194390Y-44468816D01*
X70068250Y-44453500D01*
X69983750Y-44453500D01*
X69857610Y-44468816D01*
X69699007Y-44528967D01*
X69559407Y-44625325D01*
X69446924Y-44752293D01*
X69368095Y-44902489D01*
X69327500Y-45067187D01*
X69327500Y-45236813D01*
X68594149Y-45236813D01*
X68678962Y-45152000D01*
X68678962Y-45151999D01*
X67636616Y-44109654D01*
X67603131Y-44048331D01*
X67600297Y-44022097D01*
X67598859Y-42502293D01*
X68723331Y-42502293D01*
X70026000Y-43804962D01*
X70026001Y-43804962D01*
X71328667Y-42502293D01*
X71197403Y-42436370D01*
X70874219Y-42318741D01*
X70539566Y-42239427D01*
X70197957Y-42199500D01*
X69854043Y-42199500D01*
X69512434Y-42239427D01*
X69512432Y-42239427D01*
X69177780Y-42318741D01*
X68854592Y-42436372D01*
X68723331Y-42502293D01*
X67598859Y-42502293D01*
X67596115Y-39601707D01*
X68723330Y-39601707D01*
X68854585Y-39667625D01*
X68854586Y-39667626D01*
X69177780Y-39785259D01*
X69512433Y-39864573D01*
X69854042Y-39904500D01*
X69854043Y-39904501D01*
X70197957Y-39904501D01*
X70197957Y-39904500D01*
X70539565Y-39864573D01*
X70539567Y-39864573D01*
X70874219Y-39785259D01*
X71197413Y-39667626D01*
X71197414Y-39667625D01*
X71328668Y-39601707D01*
X71328668Y-39601706D01*
X70026000Y-38299039D01*
X68723330Y-39601706D01*
X68723330Y-39601707D01*
X67596115Y-39601707D01*
X67594683Y-38087754D01*
X67614304Y-38020699D01*
X67631002Y-37999959D01*
X68594149Y-37036814D01*
X69327500Y-37036814D01*
X69368095Y-37201512D01*
X69446924Y-37351708D01*
X69559407Y-37478676D01*
X69699007Y-37575034D01*
X69857610Y-37635185D01*
X69983750Y-37650501D01*
X70068250Y-37650501D01*
X70194390Y-37635185D01*
X70352993Y-37575034D01*
X70492593Y-37478676D01*
X70605076Y-37351708D01*
X70683905Y-37201512D01*
X70724500Y-37036814D01*
X70724500Y-36952002D01*
X71373038Y-36952002D01*
X72678396Y-38257360D01*
X72805144Y-37963528D01*
X72903783Y-37634049D01*
X72903786Y-37634039D01*
X72963504Y-37295357D01*
X72963505Y-37295346D01*
X72983504Y-36952004D01*
X72983504Y-36951997D01*
X72963505Y-36608655D01*
X72963504Y-36608644D01*
X72903786Y-36269962D01*
X72903783Y-36269952D01*
X72805144Y-35940473D01*
X72678396Y-35646640D01*
X71373038Y-36952000D01*
X71373038Y-36952002D01*
X70724500Y-36952002D01*
X70724500Y-36867188D01*
X70683905Y-36702490D01*
X70605076Y-36552294D01*
X70492593Y-36425326D01*
X70352993Y-36328968D01*
X70194390Y-36268817D01*
X70068250Y-36253501D01*
X69983750Y-36253501D01*
X69857610Y-36268817D01*
X69699007Y-36328968D01*
X69559407Y-36425326D01*
X69446924Y-36552294D01*
X69368095Y-36702490D01*
X69327500Y-36867188D01*
X69327500Y-37036814D01*
X68594149Y-37036814D01*
X68678962Y-36952001D01*
X67628851Y-35901890D01*
X67595366Y-35840567D01*
X67592533Y-35814336D01*
X67591102Y-34302294D01*
X68723331Y-34302294D01*
X70026000Y-35604963D01*
X70026001Y-35604963D01*
X71328667Y-34302294D01*
X71197403Y-34236371D01*
X70874219Y-34118742D01*
X70539566Y-34039428D01*
X70197957Y-33999501D01*
X69854043Y-33999501D01*
X69512434Y-34039428D01*
X69512432Y-34039428D01*
X69177780Y-34118742D01*
X68854592Y-34236373D01*
X68723331Y-34302294D01*
X67591102Y-34302294D01*
X67587072Y-30042402D01*
X67606693Y-29975347D01*
X67623382Y-29954617D01*
X68389681Y-29188319D01*
X68451004Y-29154834D01*
X68477362Y-29152000D01*
X73826000Y-29152000D01*
X73826000Y-30130092D01*
G37*
%TD.AperFunction*%
%TD*%
%TA.AperFunction,Conductor*%
%TO.N,BV1*%
G36*
X66658880Y-24482286D02*
G01*
X66679901Y-24499300D01*
X67198781Y-25022715D01*
X67291056Y-25115796D01*
X67324274Y-25177264D01*
X67326994Y-25202978D01*
X67336290Y-35030257D01*
X67336291Y-35030259D01*
X67337197Y-35987840D01*
X66373038Y-36952000D01*
X66373038Y-36952001D01*
X67339023Y-37917986D01*
X67339924Y-38870107D01*
X67339923Y-38870109D01*
X67344054Y-43238020D01*
X67344055Y-43238022D01*
X67344056Y-43238023D01*
X67344947Y-44180089D01*
X66373038Y-45151999D01*
X66373038Y-45152000D01*
X67346788Y-46125750D01*
X67347674Y-47062356D01*
X67347674Y-47062357D01*
X67359038Y-59074605D01*
X67359039Y-59074607D01*
X67359630Y-59699805D01*
X66229437Y-60829999D01*
X66229437Y-60830000D01*
X67361770Y-61962333D01*
X67362357Y-62582072D01*
X67362357Y-62582073D01*
X67371601Y-72353767D01*
X67351980Y-72420825D01*
X67299219Y-72466630D01*
X67230070Y-72476638D01*
X67166487Y-72447674D01*
X67136389Y-72408728D01*
X67028219Y-72189381D01*
X67028210Y-72189366D01*
X66970964Y-72103691D01*
X66866900Y-71947948D01*
X66824954Y-71900118D01*
X66675454Y-71729645D01*
X66457153Y-71538201D01*
X66215725Y-71376883D01*
X65955318Y-71248465D01*
X65680373Y-71155133D01*
X65680367Y-71155131D01*
X65680366Y-71155131D01*
X65680364Y-71155130D01*
X65680358Y-71155129D01*
X65395598Y-71098487D01*
X65395588Y-71098485D01*
X65105852Y-71079495D01*
X64816116Y-71098485D01*
X64816110Y-71098486D01*
X64816105Y-71098487D01*
X64531345Y-71155129D01*
X64531330Y-71155133D01*
X64256385Y-71248465D01*
X63995985Y-71376880D01*
X63995970Y-71376889D01*
X63754550Y-71538201D01*
X63536249Y-71729645D01*
X63344805Y-71947946D01*
X63183493Y-72189366D01*
X63183484Y-72189381D01*
X63055069Y-72449781D01*
X62961737Y-72724726D01*
X62961733Y-72724741D01*
X62905091Y-73009501D01*
X62905089Y-73009513D01*
X62886099Y-73299248D01*
X62905089Y-73588982D01*
X62905091Y-73588994D01*
X62961733Y-73873754D01*
X62961737Y-73873769D01*
X63055069Y-74148714D01*
X63183487Y-74409121D01*
X63344805Y-74650549D01*
X63536249Y-74868850D01*
X63706722Y-75018350D01*
X63754552Y-75060296D01*
X63995975Y-75221610D01*
X63995978Y-75221612D01*
X64243355Y-75343604D01*
X64256389Y-75350032D01*
X64531338Y-75443365D01*
X64816116Y-75500011D01*
X65105852Y-75519001D01*
X65395588Y-75500011D01*
X65680366Y-75443365D01*
X65955315Y-75350032D01*
X66215729Y-75221610D01*
X66457152Y-75060296D01*
X66675454Y-74868850D01*
X66866900Y-74650548D01*
X67028214Y-74409125D01*
X67138174Y-74186147D01*
X67185479Y-74134728D01*
X67253074Y-74117046D01*
X67319498Y-74138716D01*
X67363663Y-74192857D01*
X67373386Y-74240874D01*
X67378330Y-79466595D01*
X67378331Y-79466597D01*
X67378933Y-80103602D01*
X66254638Y-81227898D01*
X66254638Y-81227899D01*
X67381063Y-82354324D01*
X67381660Y-82985869D01*
X67381660Y-82985870D01*
X67395119Y-97212584D01*
X67395120Y-97212586D01*
X67395691Y-97816044D01*
X66254638Y-98957098D01*
X66254638Y-98957099D01*
X67397852Y-100100313D01*
X67398418Y-100698312D01*
X67408690Y-111557140D01*
X67389069Y-111624198D01*
X67336308Y-111670003D01*
X67267159Y-111680011D01*
X67203576Y-111651047D01*
X67167272Y-111597118D01*
X67156636Y-111565785D01*
X67152373Y-111557140D01*
X67028219Y-111305381D01*
X67028210Y-111305366D01*
X66970964Y-111219691D01*
X66866900Y-111063948D01*
X66824954Y-111016118D01*
X66675454Y-110845645D01*
X66457153Y-110654201D01*
X66215725Y-110492883D01*
X65955318Y-110364465D01*
X65680373Y-110271133D01*
X65680367Y-110271131D01*
X65680366Y-110271131D01*
X65680364Y-110271130D01*
X65680358Y-110271129D01*
X65395598Y-110214487D01*
X65395588Y-110214485D01*
X65105852Y-110195495D01*
X64816116Y-110214485D01*
X64816110Y-110214486D01*
X64816105Y-110214487D01*
X64531345Y-110271129D01*
X64531330Y-110271133D01*
X64256385Y-110364465D01*
X63995985Y-110492880D01*
X63995970Y-110492889D01*
X63754550Y-110654201D01*
X63536249Y-110845645D01*
X63344805Y-111063946D01*
X63183493Y-111305366D01*
X63183484Y-111305381D01*
X63055069Y-111565781D01*
X62961737Y-111840726D01*
X62961733Y-111840741D01*
X62905091Y-112125501D01*
X62905089Y-112125513D01*
X62886099Y-112415248D01*
X62905089Y-112704982D01*
X62905091Y-112704994D01*
X62961733Y-112989754D01*
X62961737Y-112989769D01*
X63055069Y-113264714D01*
X63183487Y-113525121D01*
X63344805Y-113766549D01*
X63536249Y-113984850D01*
X63706722Y-114134350D01*
X63754552Y-114176296D01*
X63995975Y-114337610D01*
X63995978Y-114337612D01*
X64243355Y-114459604D01*
X64256389Y-114466032D01*
X64531338Y-114559365D01*
X64816116Y-114616011D01*
X65105852Y-114635001D01*
X65395588Y-114616011D01*
X65680366Y-114559365D01*
X65955315Y-114466032D01*
X66215729Y-114337610D01*
X66457152Y-114176296D01*
X66675454Y-113984850D01*
X66866900Y-113766548D01*
X67028214Y-113525125D01*
X67156636Y-113264711D01*
X67168890Y-113228609D01*
X67209078Y-113171457D01*
X67273786Y-113145103D01*
X67342471Y-113157917D01*
X67393325Y-113205830D01*
X67410309Y-113268352D01*
X67415443Y-118695908D01*
X67415444Y-118695910D01*
X67415445Y-118695911D01*
X67415977Y-119258758D01*
X66254638Y-120420098D01*
X66254638Y-120420099D01*
X67418177Y-121583638D01*
X67418704Y-122141025D01*
X67418704Y-122141026D01*
X67425005Y-128800484D01*
X67405384Y-128867542D01*
X67388584Y-128888384D01*
X66462474Y-129812336D01*
X66401112Y-129845750D01*
X66374488Y-129848552D01*
X64604968Y-129842750D01*
X48328990Y-129789386D01*
X44217915Y-129775906D01*
X44150945Y-129756004D01*
X44130505Y-129739449D01*
X43978785Y-129587231D01*
X43703357Y-129310897D01*
X43669973Y-129249519D01*
X43667182Y-129223360D01*
X43667182Y-125917919D01*
X43659491Y-125891726D01*
X43655732Y-125874444D01*
X43651847Y-125847423D01*
X43651845Y-125847418D01*
X43640508Y-125822593D01*
X43634325Y-125806016D01*
X43626635Y-125779828D01*
X43626635Y-125779826D01*
X43611874Y-125756858D01*
X43603396Y-125741331D01*
X43602687Y-125739779D01*
X43592059Y-125716507D01*
X43574182Y-125695876D01*
X43563587Y-125681724D01*
X43548825Y-125658752D01*
X43548824Y-125658751D01*
X43528192Y-125640872D01*
X43515688Y-125628368D01*
X43497810Y-125607737D01*
X43497805Y-125607733D01*
X43474842Y-125592975D01*
X43460682Y-125582376D01*
X43453689Y-125576317D01*
X43440055Y-125564503D01*
X43415223Y-125553162D01*
X43399701Y-125544686D01*
X43376735Y-125529927D01*
X43376733Y-125529926D01*
X43350540Y-125522235D01*
X43333970Y-125516054D01*
X43309139Y-125504715D01*
X43282105Y-125500827D01*
X43264836Y-125497070D01*
X43238645Y-125489380D01*
X43238643Y-125489380D01*
X43202481Y-125489380D01*
X41996405Y-125489380D01*
X41929366Y-125469695D01*
X41886391Y-125420099D01*
X55499447Y-125420099D01*
X55520017Y-125642096D01*
X55520018Y-125642098D01*
X55581029Y-125856530D01*
X55581035Y-125856545D01*
X55629603Y-125954081D01*
X55680408Y-126056110D01*
X55814764Y-126234027D01*
X55979526Y-126384227D01*
X56169080Y-126501594D01*
X56376974Y-126582132D01*
X56596127Y-126623099D01*
X56596129Y-126623099D01*
X56819073Y-126623099D01*
X56819075Y-126623099D01*
X57038228Y-126582132D01*
X57246122Y-126501594D01*
X57435676Y-126384227D01*
X57600438Y-126234027D01*
X57734794Y-126056110D01*
X57834171Y-125856535D01*
X57895184Y-125642097D01*
X57915755Y-125420099D01*
X63699446Y-125420099D01*
X63720016Y-125642096D01*
X63720017Y-125642098D01*
X63781028Y-125856530D01*
X63781034Y-125856545D01*
X63829602Y-125954081D01*
X63880407Y-126056110D01*
X64014763Y-126234027D01*
X64179525Y-126384227D01*
X64369079Y-126501594D01*
X64576973Y-126582132D01*
X64796126Y-126623099D01*
X64796128Y-126623099D01*
X65019072Y-126623099D01*
X65019074Y-126623099D01*
X65238227Y-126582132D01*
X65446121Y-126501594D01*
X65635675Y-126384227D01*
X65800437Y-126234027D01*
X65934793Y-126056110D01*
X66034170Y-125856535D01*
X66095183Y-125642097D01*
X66115754Y-125420099D01*
X66095183Y-125198101D01*
X66034170Y-124983663D01*
X65934793Y-124784088D01*
X65800437Y-124606171D01*
X65800434Y-124606168D01*
X65800431Y-124606165D01*
X65635676Y-124455972D01*
X65635675Y-124455971D01*
X65446121Y-124338604D01*
X65238227Y-124258066D01*
X65019074Y-124217099D01*
X64796126Y-124217099D01*
X64576973Y-124258066D01*
X64576970Y-124258066D01*
X64576970Y-124258067D01*
X64369081Y-124338603D01*
X64369080Y-124338603D01*
X64179523Y-124455972D01*
X64014768Y-124606165D01*
X64014765Y-124606168D01*
X63880407Y-124784087D01*
X63781034Y-124983652D01*
X63781028Y-124983667D01*
X63720017Y-125198099D01*
X63720016Y-125198101D01*
X63699446Y-125420098D01*
X63699446Y-125420099D01*
X57915755Y-125420099D01*
X57895184Y-125198101D01*
X57834171Y-124983663D01*
X57734794Y-124784088D01*
X57600438Y-124606171D01*
X57600435Y-124606168D01*
X57600432Y-124606165D01*
X57435677Y-124455972D01*
X57435676Y-124455971D01*
X57246122Y-124338604D01*
X57038228Y-124258066D01*
X56819075Y-124217099D01*
X56596127Y-124217099D01*
X56376974Y-124258066D01*
X56376971Y-124258066D01*
X56376971Y-124258067D01*
X56169082Y-124338603D01*
X56169081Y-124338603D01*
X55979524Y-124455972D01*
X55814769Y-124606165D01*
X55814766Y-124606168D01*
X55680408Y-124784087D01*
X55581035Y-124983652D01*
X55581029Y-124983667D01*
X55520018Y-125198099D01*
X55520017Y-125198101D01*
X55499447Y-125420098D01*
X55499447Y-125420099D01*
X41886391Y-125420099D01*
X41883611Y-125416891D01*
X41872405Y-125365380D01*
X41872405Y-123069805D01*
X55404931Y-123069805D01*
X55536186Y-123135723D01*
X55536187Y-123135724D01*
X55859381Y-123253357D01*
X56194034Y-123332671D01*
X56535643Y-123372598D01*
X56535644Y-123372599D01*
X56879558Y-123372599D01*
X56879558Y-123372598D01*
X57221166Y-123332671D01*
X57221168Y-123332671D01*
X57555820Y-123253357D01*
X57879014Y-123135724D01*
X57879015Y-123135723D01*
X58010269Y-123069805D01*
X63604930Y-123069805D01*
X63736185Y-123135723D01*
X63736186Y-123135724D01*
X64059380Y-123253357D01*
X64394033Y-123332671D01*
X64735642Y-123372598D01*
X64735643Y-123372599D01*
X65079557Y-123372599D01*
X65079557Y-123372598D01*
X65421165Y-123332671D01*
X65421167Y-123332671D01*
X65755819Y-123253357D01*
X66079013Y-123135724D01*
X66079014Y-123135723D01*
X66210268Y-123069805D01*
X66210268Y-123069804D01*
X64907600Y-121767137D01*
X63604930Y-123069804D01*
X63604930Y-123069805D01*
X58010269Y-123069805D01*
X58010269Y-123069804D01*
X56707601Y-121767137D01*
X55404931Y-123069804D01*
X55404931Y-123069805D01*
X41872405Y-123069805D01*
X41872405Y-120420102D01*
X53750097Y-120420102D01*
X53770095Y-120763444D01*
X53770096Y-120763455D01*
X53829814Y-121102137D01*
X53829817Y-121102147D01*
X53928456Y-121431626D01*
X54055203Y-121725457D01*
X54055204Y-121725458D01*
X55275750Y-120504912D01*
X56009101Y-120504912D01*
X56049696Y-120669610D01*
X56128525Y-120819806D01*
X56241008Y-120946774D01*
X56380608Y-121043132D01*
X56539211Y-121103283D01*
X56665351Y-121118599D01*
X56749851Y-121118599D01*
X56875991Y-121103283D01*
X57034594Y-121043132D01*
X57174194Y-120946774D01*
X57286677Y-120819806D01*
X57365506Y-120669610D01*
X57406101Y-120504912D01*
X57406101Y-120420099D01*
X58054639Y-120420099D01*
X59359997Y-121725458D01*
X59486745Y-121431626D01*
X59585384Y-121102147D01*
X59585387Y-121102137D01*
X59645105Y-120763455D01*
X59645106Y-120763444D01*
X59665105Y-120420102D01*
X61950096Y-120420102D01*
X61970094Y-120763444D01*
X61970095Y-120763455D01*
X62029813Y-121102137D01*
X62029816Y-121102147D01*
X62128455Y-121431626D01*
X62255202Y-121725457D01*
X62255203Y-121725458D01*
X63475749Y-120504912D01*
X64209100Y-120504912D01*
X64249695Y-120669610D01*
X64328524Y-120819806D01*
X64441007Y-120946774D01*
X64580607Y-121043132D01*
X64739210Y-121103283D01*
X64865350Y-121118599D01*
X64949850Y-121118599D01*
X65075990Y-121103283D01*
X65234593Y-121043132D01*
X65374193Y-120946774D01*
X65486676Y-120819806D01*
X65565505Y-120669610D01*
X65606100Y-120504912D01*
X65606100Y-120335286D01*
X65565505Y-120170588D01*
X65486676Y-120020392D01*
X65374193Y-119893424D01*
X65234593Y-119797066D01*
X65075990Y-119736915D01*
X64949850Y-119721599D01*
X64865350Y-119721599D01*
X64739210Y-119736915D01*
X64580607Y-119797066D01*
X64441007Y-119893424D01*
X64328524Y-120020392D01*
X64249695Y-120170588D01*
X64209100Y-120335286D01*
X64209100Y-120504912D01*
X63475749Y-120504912D01*
X63560562Y-120420099D01*
X63560562Y-120420098D01*
X62255203Y-119114739D01*
X62255202Y-119114739D01*
X62128455Y-119408571D01*
X62029816Y-119738050D01*
X62029813Y-119738060D01*
X61970095Y-120076742D01*
X61970094Y-120076753D01*
X61950096Y-120420095D01*
X61950096Y-120420102D01*
X59665105Y-120420102D01*
X59665105Y-120420095D01*
X59645106Y-120076753D01*
X59645105Y-120076742D01*
X59585387Y-119738060D01*
X59585384Y-119738050D01*
X59486745Y-119408571D01*
X59359997Y-119114738D01*
X58054639Y-120420098D01*
X58054639Y-120420099D01*
X57406101Y-120420099D01*
X57406101Y-120335286D01*
X57365506Y-120170588D01*
X57286677Y-120020392D01*
X57174194Y-119893424D01*
X57034594Y-119797066D01*
X56875991Y-119736915D01*
X56749851Y-119721599D01*
X56665351Y-119721599D01*
X56539211Y-119736915D01*
X56380608Y-119797066D01*
X56241008Y-119893424D01*
X56128525Y-120020392D01*
X56049696Y-120170588D01*
X56009101Y-120335286D01*
X56009101Y-120504912D01*
X55275750Y-120504912D01*
X55360563Y-120420099D01*
X55360563Y-120420098D01*
X54055204Y-119114739D01*
X54055203Y-119114739D01*
X53928456Y-119408571D01*
X53829817Y-119738050D01*
X53829814Y-119738060D01*
X53770096Y-120076742D01*
X53770095Y-120076753D01*
X53750097Y-120420095D01*
X53750097Y-120420102D01*
X41872405Y-120420102D01*
X41872405Y-117770392D01*
X55404932Y-117770392D01*
X56707601Y-119073061D01*
X56707602Y-119073061D01*
X58010268Y-117770392D01*
X63604931Y-117770392D01*
X64907600Y-119073061D01*
X64907601Y-119073061D01*
X66210267Y-117770392D01*
X66079003Y-117704469D01*
X65755819Y-117586840D01*
X65421166Y-117507526D01*
X65079557Y-117467599D01*
X64735643Y-117467599D01*
X64394034Y-117507526D01*
X64394032Y-117507526D01*
X64059380Y-117586840D01*
X63736192Y-117704471D01*
X63604931Y-117770392D01*
X58010268Y-117770392D01*
X57879004Y-117704469D01*
X57555820Y-117586840D01*
X57221167Y-117507526D01*
X56879558Y-117467599D01*
X56535644Y-117467599D01*
X56194035Y-117507526D01*
X56194033Y-117507526D01*
X55859381Y-117586840D01*
X55536193Y-117704471D01*
X55404932Y-117770392D01*
X41872405Y-117770392D01*
X41872405Y-103957099D01*
X55499447Y-103957099D01*
X55520017Y-104179096D01*
X55520018Y-104179098D01*
X55581029Y-104393530D01*
X55581035Y-104393545D01*
X55680408Y-104593110D01*
X55814764Y-104771027D01*
X55979526Y-104921227D01*
X56169080Y-105038594D01*
X56376974Y-105119132D01*
X56596127Y-105160099D01*
X56596129Y-105160099D01*
X56819073Y-105160099D01*
X56819075Y-105160099D01*
X57038228Y-105119132D01*
X57246122Y-105038594D01*
X57435676Y-104921227D01*
X57600438Y-104771027D01*
X57734794Y-104593110D01*
X57834171Y-104393535D01*
X57895184Y-104179097D01*
X57915755Y-103957099D01*
X63699446Y-103957099D01*
X63720016Y-104179096D01*
X63720017Y-104179098D01*
X63781028Y-104393530D01*
X63781034Y-104393545D01*
X63880407Y-104593110D01*
X64014763Y-104771027D01*
X64179525Y-104921227D01*
X64369079Y-105038594D01*
X64576973Y-105119132D01*
X64796126Y-105160099D01*
X64796128Y-105160099D01*
X65019072Y-105160099D01*
X65019074Y-105160099D01*
X65238227Y-105119132D01*
X65446121Y-105038594D01*
X65635675Y-104921227D01*
X65800437Y-104771027D01*
X65934793Y-104593110D01*
X66034170Y-104393535D01*
X66095183Y-104179097D01*
X66115754Y-103957099D01*
X66095183Y-103735101D01*
X66034170Y-103520663D01*
X65934793Y-103321088D01*
X65800437Y-103143171D01*
X65800434Y-103143168D01*
X65800431Y-103143165D01*
X65635676Y-102992972D01*
X65635675Y-102992971D01*
X65446121Y-102875604D01*
X65238227Y-102795066D01*
X65019074Y-102754099D01*
X64796126Y-102754099D01*
X64576973Y-102795066D01*
X64576970Y-102795066D01*
X64576970Y-102795067D01*
X64369081Y-102875603D01*
X64369080Y-102875603D01*
X64179523Y-102992972D01*
X64014768Y-103143165D01*
X64014765Y-103143168D01*
X63880407Y-103321087D01*
X63781034Y-103520652D01*
X63781028Y-103520667D01*
X63720017Y-103735099D01*
X63720016Y-103735101D01*
X63699446Y-103957098D01*
X63699446Y-103957099D01*
X57915755Y-103957099D01*
X57895184Y-103735101D01*
X57834171Y-103520663D01*
X57734794Y-103321088D01*
X57600438Y-103143171D01*
X57600435Y-103143168D01*
X57600432Y-103143165D01*
X57435677Y-102992972D01*
X57435676Y-102992971D01*
X57246122Y-102875604D01*
X57038228Y-102795066D01*
X56819075Y-102754099D01*
X56596127Y-102754099D01*
X56376974Y-102795066D01*
X56376971Y-102795066D01*
X56376971Y-102795067D01*
X56169082Y-102875603D01*
X56169081Y-102875603D01*
X55979524Y-102992972D01*
X55814769Y-103143165D01*
X55814766Y-103143168D01*
X55680408Y-103321087D01*
X55581035Y-103520652D01*
X55581029Y-103520667D01*
X55520018Y-103735099D01*
X55520017Y-103735101D01*
X55499447Y-103957098D01*
X55499447Y-103957099D01*
X41872405Y-103957099D01*
X41872405Y-101606805D01*
X55404931Y-101606805D01*
X55536186Y-101672723D01*
X55536187Y-101672724D01*
X55859381Y-101790357D01*
X56194034Y-101869671D01*
X56535643Y-101909598D01*
X56535644Y-101909599D01*
X56879558Y-101909599D01*
X56879558Y-101909598D01*
X57221166Y-101869671D01*
X57221168Y-101869671D01*
X57555820Y-101790357D01*
X57879014Y-101672724D01*
X57879015Y-101672723D01*
X58010269Y-101606805D01*
X63604930Y-101606805D01*
X63736185Y-101672723D01*
X63736186Y-101672724D01*
X64059380Y-101790357D01*
X64394033Y-101869671D01*
X64735642Y-101909598D01*
X64735643Y-101909599D01*
X65079557Y-101909599D01*
X65079557Y-101909598D01*
X65421165Y-101869671D01*
X65421167Y-101869671D01*
X65755819Y-101790357D01*
X66079013Y-101672724D01*
X66079014Y-101672723D01*
X66210268Y-101606805D01*
X66210268Y-101606804D01*
X64907600Y-100304137D01*
X63604930Y-101606804D01*
X63604930Y-101606805D01*
X58010269Y-101606805D01*
X58010269Y-101606804D01*
X56707601Y-100304137D01*
X55404931Y-101606804D01*
X55404931Y-101606805D01*
X41872405Y-101606805D01*
X41872405Y-98957102D01*
X53750097Y-98957102D01*
X53770095Y-99300444D01*
X53770096Y-99300455D01*
X53829814Y-99639137D01*
X53829817Y-99639147D01*
X53928456Y-99968626D01*
X54055203Y-100262457D01*
X54055204Y-100262458D01*
X55275750Y-99041912D01*
X56009101Y-99041912D01*
X56049696Y-99206610D01*
X56128525Y-99356806D01*
X56241008Y-99483774D01*
X56380608Y-99580132D01*
X56539211Y-99640283D01*
X56665351Y-99655599D01*
X56749851Y-99655599D01*
X56875991Y-99640283D01*
X57034594Y-99580132D01*
X57174194Y-99483774D01*
X57286677Y-99356806D01*
X57365506Y-99206610D01*
X57406101Y-99041912D01*
X57406101Y-98957099D01*
X58054639Y-98957099D01*
X59359997Y-100262458D01*
X59486745Y-99968626D01*
X59585384Y-99639147D01*
X59585387Y-99639137D01*
X59645105Y-99300455D01*
X59645106Y-99300444D01*
X59665105Y-98957102D01*
X61950096Y-98957102D01*
X61970094Y-99300444D01*
X61970095Y-99300455D01*
X62029813Y-99639137D01*
X62029816Y-99639147D01*
X62128455Y-99968626D01*
X62255202Y-100262457D01*
X62255203Y-100262458D01*
X63475749Y-99041912D01*
X64209100Y-99041912D01*
X64249695Y-99206610D01*
X64328524Y-99356806D01*
X64441007Y-99483774D01*
X64580607Y-99580132D01*
X64739210Y-99640283D01*
X64865350Y-99655599D01*
X64949850Y-99655599D01*
X65075990Y-99640283D01*
X65234593Y-99580132D01*
X65374193Y-99483774D01*
X65486676Y-99356806D01*
X65565505Y-99206610D01*
X65606100Y-99041912D01*
X65606100Y-98872286D01*
X65565505Y-98707588D01*
X65486676Y-98557392D01*
X65374193Y-98430424D01*
X65234593Y-98334066D01*
X65075990Y-98273915D01*
X64949850Y-98258599D01*
X64865350Y-98258599D01*
X64739210Y-98273915D01*
X64580607Y-98334066D01*
X64441007Y-98430424D01*
X64328524Y-98557392D01*
X64249695Y-98707588D01*
X64209100Y-98872286D01*
X64209100Y-99041912D01*
X63475749Y-99041912D01*
X63560562Y-98957099D01*
X63560562Y-98957098D01*
X62255203Y-97651739D01*
X62255202Y-97651739D01*
X62128455Y-97945571D01*
X62029816Y-98275050D01*
X62029813Y-98275060D01*
X61970095Y-98613742D01*
X61970094Y-98613753D01*
X61950096Y-98957095D01*
X61950096Y-98957102D01*
X59665105Y-98957102D01*
X59665105Y-98957095D01*
X59645106Y-98613753D01*
X59645105Y-98613742D01*
X59585387Y-98275060D01*
X59585384Y-98275050D01*
X59486745Y-97945571D01*
X59359997Y-97651738D01*
X58054639Y-98957098D01*
X58054639Y-98957099D01*
X57406101Y-98957099D01*
X57406101Y-98872286D01*
X57365506Y-98707588D01*
X57286677Y-98557392D01*
X57174194Y-98430424D01*
X57034594Y-98334066D01*
X56875991Y-98273915D01*
X56749851Y-98258599D01*
X56665351Y-98258599D01*
X56539211Y-98273915D01*
X56380608Y-98334066D01*
X56241008Y-98430424D01*
X56128525Y-98557392D01*
X56049696Y-98707588D01*
X56009101Y-98872286D01*
X56009101Y-99041912D01*
X55275750Y-99041912D01*
X55360563Y-98957099D01*
X55360563Y-98957098D01*
X54055204Y-97651739D01*
X54055203Y-97651739D01*
X53928456Y-97945571D01*
X53829817Y-98275050D01*
X53829814Y-98275060D01*
X53770096Y-98613742D01*
X53770095Y-98613753D01*
X53750097Y-98957095D01*
X53750097Y-98957102D01*
X41872405Y-98957102D01*
X41872405Y-96810816D01*
X41892090Y-96743777D01*
X41944894Y-96698022D01*
X41996405Y-96686816D01*
X43238642Y-96686816D01*
X43238643Y-96686816D01*
X43264835Y-96679125D01*
X43282118Y-96675366D01*
X43286564Y-96674726D01*
X43309139Y-96671481D01*
X43333969Y-96660140D01*
X43350544Y-96653958D01*
X43376735Y-96646269D01*
X43399702Y-96631508D01*
X43415222Y-96623033D01*
X43440055Y-96611693D01*
X43460688Y-96593813D01*
X43474830Y-96583226D01*
X43497810Y-96568459D01*
X43515697Y-96547815D01*
X43528181Y-96535331D01*
X43548825Y-96517444D01*
X43563592Y-96494464D01*
X43574179Y-96480322D01*
X43592059Y-96459689D01*
X43603399Y-96434856D01*
X43611874Y-96419336D01*
X43626635Y-96396369D01*
X43634324Y-96370178D01*
X43640506Y-96353603D01*
X43651847Y-96328773D01*
X43654921Y-96307392D01*
X55404932Y-96307392D01*
X56707601Y-97610061D01*
X56707602Y-97610061D01*
X58010268Y-96307392D01*
X63604931Y-96307392D01*
X64907600Y-97610061D01*
X64907601Y-97610061D01*
X66210267Y-96307392D01*
X66079003Y-96241469D01*
X65755819Y-96123840D01*
X65421166Y-96044526D01*
X65079557Y-96004599D01*
X64735643Y-96004599D01*
X64394034Y-96044526D01*
X64394032Y-96044526D01*
X64059380Y-96123840D01*
X63736192Y-96241471D01*
X63604931Y-96307392D01*
X58010268Y-96307392D01*
X57879004Y-96241469D01*
X57555820Y-96123840D01*
X57221167Y-96044526D01*
X56879558Y-96004599D01*
X56535644Y-96004599D01*
X56194035Y-96044526D01*
X56194033Y-96044526D01*
X55859381Y-96123840D01*
X55536193Y-96241471D01*
X55404932Y-96307392D01*
X43654921Y-96307392D01*
X43655732Y-96301752D01*
X43659491Y-96284469D01*
X43667182Y-96258277D01*
X43667182Y-96114355D01*
X43667182Y-89492381D01*
X43667182Y-89456219D01*
X43659491Y-89430026D01*
X43655732Y-89412744D01*
X43651847Y-89385726D01*
X43651847Y-89385723D01*
X43651845Y-89385718D01*
X43640508Y-89360893D01*
X43634325Y-89344316D01*
X43626635Y-89318128D01*
X43626635Y-89318126D01*
X43611874Y-89295158D01*
X43603396Y-89279631D01*
X43602687Y-89278079D01*
X43592059Y-89254807D01*
X43574182Y-89234176D01*
X43563587Y-89220024D01*
X43548825Y-89197052D01*
X43548824Y-89197051D01*
X43528192Y-89179172D01*
X43515688Y-89166668D01*
X43497810Y-89146037D01*
X43497805Y-89146033D01*
X43474842Y-89131275D01*
X43460682Y-89120676D01*
X43453689Y-89114617D01*
X43440055Y-89102803D01*
X43415223Y-89091462D01*
X43399701Y-89082986D01*
X43376735Y-89068227D01*
X43376733Y-89068226D01*
X43350540Y-89060535D01*
X43333970Y-89054354D01*
X43309139Y-89043015D01*
X43282105Y-89039127D01*
X43264836Y-89035370D01*
X43238645Y-89027680D01*
X43238643Y-89027680D01*
X43202481Y-89027680D01*
X41996405Y-89027680D01*
X41929366Y-89007995D01*
X41883611Y-88955191D01*
X41872405Y-88903680D01*
X41872405Y-86227899D01*
X55499447Y-86227899D01*
X55520017Y-86449896D01*
X55520018Y-86449898D01*
X55581029Y-86664330D01*
X55581035Y-86664345D01*
X55680408Y-86863910D01*
X55814764Y-87041827D01*
X55979526Y-87192027D01*
X56169080Y-87309394D01*
X56376974Y-87389932D01*
X56596127Y-87430899D01*
X56596129Y-87430899D01*
X56819073Y-87430899D01*
X56819075Y-87430899D01*
X57038228Y-87389932D01*
X57246122Y-87309394D01*
X57435676Y-87192027D01*
X57600438Y-87041827D01*
X57734794Y-86863910D01*
X57834171Y-86664335D01*
X57895184Y-86449897D01*
X57915755Y-86227899D01*
X63699446Y-86227899D01*
X63720016Y-86449896D01*
X63720017Y-86449898D01*
X63781028Y-86664330D01*
X63781034Y-86664345D01*
X63880407Y-86863910D01*
X64014763Y-87041827D01*
X64179525Y-87192027D01*
X64369079Y-87309394D01*
X64576973Y-87389932D01*
X64796126Y-87430899D01*
X64796128Y-87430899D01*
X65019072Y-87430899D01*
X65019074Y-87430899D01*
X65238227Y-87389932D01*
X65446121Y-87309394D01*
X65635675Y-87192027D01*
X65800437Y-87041827D01*
X65934793Y-86863910D01*
X66034170Y-86664335D01*
X66095183Y-86449897D01*
X66115754Y-86227899D01*
X66095183Y-86005901D01*
X66034170Y-85791463D01*
X65934793Y-85591888D01*
X65800437Y-85413971D01*
X65800434Y-85413968D01*
X65800431Y-85413965D01*
X65635676Y-85263772D01*
X65635675Y-85263771D01*
X65446121Y-85146404D01*
X65238227Y-85065866D01*
X65019074Y-85024899D01*
X64796126Y-85024899D01*
X64576973Y-85065866D01*
X64576970Y-85065866D01*
X64576970Y-85065867D01*
X64369081Y-85146403D01*
X64369080Y-85146403D01*
X64179523Y-85263772D01*
X64014768Y-85413965D01*
X64014765Y-85413968D01*
X63880407Y-85591887D01*
X63781034Y-85791452D01*
X63781028Y-85791467D01*
X63720017Y-86005899D01*
X63720016Y-86005901D01*
X63699446Y-86227898D01*
X63699446Y-86227899D01*
X57915755Y-86227899D01*
X57895184Y-86005901D01*
X57834171Y-85791463D01*
X57734794Y-85591888D01*
X57600438Y-85413971D01*
X57600435Y-85413968D01*
X57600432Y-85413965D01*
X57435677Y-85263772D01*
X57435676Y-85263771D01*
X57246122Y-85146404D01*
X57038228Y-85065866D01*
X56819075Y-85024899D01*
X56596127Y-85024899D01*
X56376974Y-85065866D01*
X56376971Y-85065866D01*
X56376971Y-85065867D01*
X56169082Y-85146403D01*
X56169081Y-85146403D01*
X55979524Y-85263772D01*
X55814769Y-85413965D01*
X55814766Y-85413968D01*
X55680408Y-85591887D01*
X55581035Y-85791452D01*
X55581029Y-85791467D01*
X55520018Y-86005899D01*
X55520017Y-86005901D01*
X55499447Y-86227898D01*
X55499447Y-86227899D01*
X41872405Y-86227899D01*
X41872405Y-83877605D01*
X55404931Y-83877605D01*
X55536186Y-83943523D01*
X55536187Y-83943524D01*
X55859381Y-84061157D01*
X56194034Y-84140471D01*
X56535643Y-84180398D01*
X56535644Y-84180399D01*
X56879558Y-84180399D01*
X56879558Y-84180398D01*
X57221166Y-84140471D01*
X57221168Y-84140471D01*
X57555820Y-84061157D01*
X57879014Y-83943524D01*
X57879015Y-83943523D01*
X58010269Y-83877605D01*
X63604930Y-83877605D01*
X63736185Y-83943523D01*
X63736186Y-83943524D01*
X64059380Y-84061157D01*
X64394033Y-84140471D01*
X64735642Y-84180398D01*
X64735643Y-84180399D01*
X65079557Y-84180399D01*
X65079557Y-84180398D01*
X65421165Y-84140471D01*
X65421167Y-84140471D01*
X65755819Y-84061157D01*
X66079013Y-83943524D01*
X66079014Y-83943523D01*
X66210268Y-83877605D01*
X66210268Y-83877604D01*
X64907600Y-82574937D01*
X63604930Y-83877604D01*
X63604930Y-83877605D01*
X58010269Y-83877605D01*
X58010269Y-83877604D01*
X56707601Y-82574937D01*
X55404931Y-83877604D01*
X55404931Y-83877605D01*
X41872405Y-83877605D01*
X41872405Y-81227902D01*
X53750097Y-81227902D01*
X53770095Y-81571244D01*
X53770096Y-81571255D01*
X53829814Y-81909937D01*
X53829817Y-81909947D01*
X53928456Y-82239426D01*
X54055203Y-82533257D01*
X54055204Y-82533258D01*
X55275750Y-81312712D01*
X56009101Y-81312712D01*
X56049696Y-81477410D01*
X56128525Y-81627606D01*
X56241008Y-81754574D01*
X56380608Y-81850932D01*
X56539211Y-81911083D01*
X56665351Y-81926399D01*
X56749851Y-81926399D01*
X56875991Y-81911083D01*
X57034594Y-81850932D01*
X57174194Y-81754574D01*
X57286677Y-81627606D01*
X57365506Y-81477410D01*
X57406101Y-81312712D01*
X57406101Y-81227899D01*
X58054639Y-81227899D01*
X59359997Y-82533258D01*
X59486745Y-82239426D01*
X59585384Y-81909947D01*
X59585387Y-81909937D01*
X59645105Y-81571255D01*
X59645106Y-81571244D01*
X59665105Y-81227902D01*
X61950096Y-81227902D01*
X61970094Y-81571244D01*
X61970095Y-81571255D01*
X62029813Y-81909937D01*
X62029816Y-81909947D01*
X62128455Y-82239426D01*
X62255202Y-82533257D01*
X62255203Y-82533258D01*
X63475749Y-81312712D01*
X64209100Y-81312712D01*
X64249695Y-81477410D01*
X64328524Y-81627606D01*
X64441007Y-81754574D01*
X64580607Y-81850932D01*
X64739210Y-81911083D01*
X64865350Y-81926399D01*
X64949850Y-81926399D01*
X65075990Y-81911083D01*
X65234593Y-81850932D01*
X65374193Y-81754574D01*
X65486676Y-81627606D01*
X65565505Y-81477410D01*
X65606100Y-81312712D01*
X65606100Y-81143086D01*
X65565505Y-80978388D01*
X65486676Y-80828192D01*
X65374193Y-80701224D01*
X65234593Y-80604866D01*
X65075990Y-80544715D01*
X64949850Y-80529399D01*
X64865350Y-80529399D01*
X64739210Y-80544715D01*
X64580607Y-80604866D01*
X64441007Y-80701224D01*
X64328524Y-80828192D01*
X64249695Y-80978388D01*
X64209100Y-81143086D01*
X64209100Y-81312712D01*
X63475749Y-81312712D01*
X63560562Y-81227899D01*
X63560562Y-81227898D01*
X62255203Y-79922539D01*
X62255202Y-79922539D01*
X62128455Y-80216371D01*
X62029816Y-80545850D01*
X62029813Y-80545860D01*
X61970095Y-80884542D01*
X61970094Y-80884553D01*
X61950096Y-81227895D01*
X61950096Y-81227902D01*
X59665105Y-81227902D01*
X59665105Y-81227895D01*
X59645106Y-80884553D01*
X59645105Y-80884542D01*
X59585387Y-80545860D01*
X59585384Y-80545850D01*
X59486745Y-80216371D01*
X59359997Y-79922538D01*
X58054639Y-81227898D01*
X58054639Y-81227899D01*
X57406101Y-81227899D01*
X57406101Y-81143086D01*
X57365506Y-80978388D01*
X57286677Y-80828192D01*
X57174194Y-80701224D01*
X57034594Y-80604866D01*
X56875991Y-80544715D01*
X56749851Y-80529399D01*
X56665351Y-80529399D01*
X56539211Y-80544715D01*
X56380608Y-80604866D01*
X56241008Y-80701224D01*
X56128525Y-80828192D01*
X56049696Y-80978388D01*
X56009101Y-81143086D01*
X56009101Y-81312712D01*
X55275750Y-81312712D01*
X55360563Y-81227899D01*
X55360563Y-81227898D01*
X54055204Y-79922539D01*
X54055203Y-79922539D01*
X53928456Y-80216371D01*
X53829817Y-80545850D01*
X53829814Y-80545860D01*
X53770096Y-80884542D01*
X53770095Y-80884553D01*
X53750097Y-81227895D01*
X53750097Y-81227902D01*
X41872405Y-81227902D01*
X41872405Y-78578192D01*
X55404932Y-78578192D01*
X56707601Y-79880861D01*
X56707602Y-79880861D01*
X58010268Y-78578192D01*
X63604931Y-78578192D01*
X64907600Y-79880861D01*
X64907601Y-79880861D01*
X66210267Y-78578192D01*
X66079003Y-78512269D01*
X65755819Y-78394640D01*
X65421166Y-78315326D01*
X65079557Y-78275399D01*
X64735643Y-78275399D01*
X64394034Y-78315326D01*
X64394032Y-78315326D01*
X64059380Y-78394640D01*
X63736192Y-78512271D01*
X63604931Y-78578192D01*
X58010268Y-78578192D01*
X57879004Y-78512269D01*
X57555820Y-78394640D01*
X57221167Y-78315326D01*
X56879558Y-78275399D01*
X56535644Y-78275399D01*
X56194035Y-78315326D01*
X56194033Y-78315326D01*
X55859381Y-78394640D01*
X55536193Y-78512271D01*
X55404932Y-78578192D01*
X41872405Y-78578192D01*
X41872405Y-65830000D01*
X55474246Y-65830000D01*
X55494816Y-66051997D01*
X55494817Y-66051999D01*
X55555828Y-66266431D01*
X55555834Y-66266446D01*
X55655207Y-66466011D01*
X55789563Y-66643928D01*
X55954325Y-66794128D01*
X56143879Y-66911495D01*
X56351773Y-66992033D01*
X56570926Y-67033000D01*
X56570928Y-67033000D01*
X56793872Y-67033000D01*
X56793874Y-67033000D01*
X57013027Y-66992033D01*
X57220921Y-66911495D01*
X57410475Y-66794128D01*
X57575237Y-66643928D01*
X57709593Y-66466011D01*
X57808970Y-66266436D01*
X57869983Y-66051998D01*
X57890554Y-65830000D01*
X63674245Y-65830000D01*
X63694815Y-66051997D01*
X63694816Y-66051999D01*
X63755827Y-66266431D01*
X63755833Y-66266446D01*
X63855206Y-66466011D01*
X63989562Y-66643928D01*
X64154324Y-66794128D01*
X64343878Y-66911495D01*
X64551772Y-66992033D01*
X64770925Y-67033000D01*
X64770927Y-67033000D01*
X64993871Y-67033000D01*
X64993873Y-67033000D01*
X65213026Y-66992033D01*
X65420920Y-66911495D01*
X65610474Y-66794128D01*
X65775236Y-66643928D01*
X65909592Y-66466011D01*
X66008969Y-66266436D01*
X66069982Y-66051998D01*
X66090553Y-65830000D01*
X66069982Y-65608002D01*
X66008969Y-65393564D01*
X65909592Y-65193989D01*
X65775236Y-65016072D01*
X65775233Y-65016069D01*
X65775230Y-65016066D01*
X65610475Y-64865873D01*
X65610474Y-64865872D01*
X65420920Y-64748505D01*
X65213026Y-64667967D01*
X64993873Y-64627000D01*
X64770925Y-64627000D01*
X64551772Y-64667967D01*
X64551769Y-64667967D01*
X64551769Y-64667968D01*
X64343880Y-64748504D01*
X64343879Y-64748504D01*
X64154322Y-64865873D01*
X63989567Y-65016066D01*
X63989564Y-65016069D01*
X63855206Y-65193988D01*
X63755833Y-65393553D01*
X63755827Y-65393568D01*
X63694816Y-65608000D01*
X63694815Y-65608002D01*
X63674245Y-65829999D01*
X63674245Y-65830000D01*
X57890554Y-65830000D01*
X57869983Y-65608002D01*
X57808970Y-65393564D01*
X57709593Y-65193989D01*
X57575237Y-65016072D01*
X57575234Y-65016069D01*
X57575231Y-65016066D01*
X57410476Y-64865873D01*
X57410475Y-64865872D01*
X57220921Y-64748505D01*
X57013027Y-64667967D01*
X56793874Y-64627000D01*
X56570926Y-64627000D01*
X56351773Y-64667967D01*
X56351770Y-64667967D01*
X56351770Y-64667968D01*
X56143881Y-64748504D01*
X56143880Y-64748504D01*
X55954323Y-64865873D01*
X55789568Y-65016066D01*
X55789565Y-65016069D01*
X55655207Y-65193988D01*
X55555834Y-65393553D01*
X55555828Y-65393568D01*
X55494817Y-65608000D01*
X55494816Y-65608002D01*
X55474246Y-65829999D01*
X55474246Y-65830000D01*
X41872405Y-65830000D01*
X41872405Y-63479706D01*
X55379730Y-63479706D01*
X55510985Y-63545624D01*
X55510986Y-63545625D01*
X55834180Y-63663258D01*
X56168833Y-63742572D01*
X56510442Y-63782499D01*
X56510443Y-63782500D01*
X56854357Y-63782500D01*
X56854357Y-63782499D01*
X57195965Y-63742572D01*
X57195967Y-63742572D01*
X57530619Y-63663258D01*
X57853813Y-63545625D01*
X57853814Y-63545624D01*
X57985068Y-63479706D01*
X63579729Y-63479706D01*
X63710984Y-63545624D01*
X63710985Y-63545625D01*
X64034179Y-63663258D01*
X64368832Y-63742572D01*
X64710441Y-63782499D01*
X64710442Y-63782500D01*
X65054356Y-63782500D01*
X65054356Y-63782499D01*
X65395964Y-63742572D01*
X65395966Y-63742572D01*
X65730618Y-63663258D01*
X66053812Y-63545625D01*
X66053813Y-63545624D01*
X66185067Y-63479706D01*
X66185067Y-63479705D01*
X64882399Y-62177038D01*
X63579729Y-63479705D01*
X63579729Y-63479706D01*
X57985068Y-63479706D01*
X57985068Y-63479705D01*
X56682400Y-62177038D01*
X55379730Y-63479705D01*
X55379730Y-63479706D01*
X41872405Y-63479706D01*
X41872405Y-60830003D01*
X53724896Y-60830003D01*
X53744894Y-61173345D01*
X53744895Y-61173356D01*
X53804613Y-61512038D01*
X53804616Y-61512048D01*
X53903255Y-61841527D01*
X54030002Y-62135358D01*
X54030003Y-62135359D01*
X55250549Y-60914813D01*
X55983900Y-60914813D01*
X56024495Y-61079511D01*
X56103324Y-61229707D01*
X56215807Y-61356675D01*
X56355407Y-61453033D01*
X56514010Y-61513184D01*
X56640150Y-61528500D01*
X56724650Y-61528500D01*
X56850790Y-61513184D01*
X57009393Y-61453033D01*
X57148993Y-61356675D01*
X57261476Y-61229707D01*
X57340305Y-61079511D01*
X57380900Y-60914813D01*
X57380900Y-60830001D01*
X58029438Y-60830001D01*
X59334796Y-62135359D01*
X59461544Y-61841527D01*
X59560183Y-61512048D01*
X59560186Y-61512038D01*
X59619904Y-61173356D01*
X59619905Y-61173345D01*
X59639904Y-60830003D01*
X61924895Y-60830003D01*
X61944893Y-61173345D01*
X61944894Y-61173356D01*
X62004612Y-61512038D01*
X62004615Y-61512048D01*
X62103254Y-61841527D01*
X62230001Y-62135358D01*
X62230002Y-62135359D01*
X63450548Y-60914813D01*
X64183899Y-60914813D01*
X64224494Y-61079511D01*
X64303323Y-61229707D01*
X64415806Y-61356675D01*
X64555406Y-61453033D01*
X64714009Y-61513184D01*
X64840149Y-61528500D01*
X64924649Y-61528500D01*
X65050789Y-61513184D01*
X65209392Y-61453033D01*
X65348992Y-61356675D01*
X65461475Y-61229707D01*
X65540304Y-61079511D01*
X65580899Y-60914813D01*
X65580899Y-60745187D01*
X65540304Y-60580489D01*
X65461475Y-60430293D01*
X65348992Y-60303325D01*
X65209392Y-60206967D01*
X65050789Y-60146816D01*
X64924649Y-60131500D01*
X64840149Y-60131500D01*
X64714009Y-60146816D01*
X64555406Y-60206967D01*
X64415806Y-60303325D01*
X64303323Y-60430293D01*
X64224494Y-60580489D01*
X64183899Y-60745187D01*
X64183899Y-60914813D01*
X63450548Y-60914813D01*
X63535361Y-60830000D01*
X63535361Y-60829999D01*
X62230002Y-59524640D01*
X62230001Y-59524640D01*
X62103254Y-59818472D01*
X62004615Y-60147951D01*
X62004612Y-60147961D01*
X61944894Y-60486643D01*
X61944893Y-60486654D01*
X61924895Y-60829996D01*
X61924895Y-60830003D01*
X59639904Y-60830003D01*
X59639904Y-60829996D01*
X59619905Y-60486654D01*
X59619904Y-60486643D01*
X59560186Y-60147961D01*
X59560183Y-60147951D01*
X59461544Y-59818472D01*
X59334796Y-59524639D01*
X58029438Y-60829999D01*
X58029438Y-60830001D01*
X57380900Y-60830001D01*
X57380900Y-60745187D01*
X57340305Y-60580489D01*
X57261476Y-60430293D01*
X57148993Y-60303325D01*
X57009393Y-60206967D01*
X56850790Y-60146816D01*
X56724650Y-60131500D01*
X56640150Y-60131500D01*
X56514010Y-60146816D01*
X56355407Y-60206967D01*
X56215807Y-60303325D01*
X56103324Y-60430293D01*
X56024495Y-60580489D01*
X55983900Y-60745187D01*
X55983900Y-60914813D01*
X55250549Y-60914813D01*
X55335362Y-60830000D01*
X55335362Y-60829999D01*
X54030003Y-59524640D01*
X54030002Y-59524640D01*
X53903255Y-59818472D01*
X53804616Y-60147951D01*
X53804613Y-60147961D01*
X53744895Y-60486643D01*
X53744894Y-60486654D01*
X53724896Y-60829996D01*
X53724896Y-60830003D01*
X41872405Y-60830003D01*
X41872405Y-60349116D01*
X41892090Y-60282077D01*
X41944894Y-60236322D01*
X41996405Y-60225116D01*
X43238642Y-60225116D01*
X43238643Y-60225116D01*
X43264835Y-60217425D01*
X43282118Y-60213666D01*
X43286564Y-60213026D01*
X43309139Y-60209781D01*
X43333969Y-60198440D01*
X43350544Y-60192258D01*
X43376735Y-60184569D01*
X43399702Y-60169808D01*
X43415222Y-60161333D01*
X43440055Y-60149993D01*
X43460688Y-60132113D01*
X43474830Y-60121526D01*
X43497810Y-60106759D01*
X43515697Y-60086115D01*
X43528181Y-60073631D01*
X43548825Y-60055744D01*
X43563592Y-60032764D01*
X43574179Y-60018622D01*
X43592059Y-59997989D01*
X43603399Y-59973156D01*
X43611874Y-59957636D01*
X43626635Y-59934669D01*
X43634324Y-59908478D01*
X43640506Y-59891903D01*
X43651847Y-59867073D01*
X43655732Y-59840052D01*
X43659491Y-59822769D01*
X43667182Y-59796577D01*
X43667182Y-59652655D01*
X43667182Y-58180293D01*
X55379731Y-58180293D01*
X56682400Y-59482962D01*
X56682401Y-59482962D01*
X57985067Y-58180293D01*
X63579730Y-58180293D01*
X64882399Y-59482962D01*
X64882400Y-59482962D01*
X66185066Y-58180293D01*
X66053802Y-58114370D01*
X65730618Y-57996741D01*
X65395965Y-57917427D01*
X65054356Y-57877500D01*
X64710442Y-57877500D01*
X64368833Y-57917427D01*
X64368831Y-57917427D01*
X64034179Y-57996741D01*
X63710991Y-58114372D01*
X63579730Y-58180293D01*
X57985067Y-58180293D01*
X57853803Y-58114370D01*
X57530619Y-57996741D01*
X57195966Y-57917427D01*
X56854357Y-57877500D01*
X56510443Y-57877500D01*
X56168834Y-57917427D01*
X56168832Y-57917427D01*
X55834180Y-57996741D01*
X55510992Y-58114372D01*
X55379731Y-58180293D01*
X43667182Y-58180293D01*
X43667182Y-53030681D01*
X43667182Y-52994519D01*
X43659491Y-52968326D01*
X43655732Y-52951044D01*
X43651847Y-52924026D01*
X43651847Y-52924023D01*
X43651845Y-52924018D01*
X43640508Y-52899193D01*
X43634325Y-52882616D01*
X43626635Y-52856428D01*
X43626635Y-52856426D01*
X43611874Y-52833458D01*
X43603396Y-52817931D01*
X43602687Y-52816379D01*
X43592059Y-52793107D01*
X43574182Y-52772476D01*
X43563587Y-52758324D01*
X43548825Y-52735352D01*
X43548824Y-52735351D01*
X43528192Y-52717472D01*
X43515688Y-52704968D01*
X43497810Y-52684337D01*
X43497805Y-52684333D01*
X43474842Y-52669575D01*
X43460682Y-52658976D01*
X43453689Y-52652917D01*
X43440055Y-52641103D01*
X43415223Y-52629762D01*
X43399701Y-52621286D01*
X43376735Y-52606527D01*
X43376733Y-52606526D01*
X43350540Y-52598835D01*
X43333970Y-52592654D01*
X43309139Y-52581315D01*
X43282105Y-52577427D01*
X43264836Y-52573670D01*
X43238645Y-52565980D01*
X43238643Y-52565980D01*
X43202481Y-52565980D01*
X41996405Y-52565980D01*
X41929366Y-52546295D01*
X41883611Y-52493491D01*
X41872405Y-52441980D01*
X41872405Y-47801706D01*
X63723330Y-47801706D01*
X63854585Y-47867624D01*
X63854586Y-47867625D01*
X64177780Y-47985258D01*
X64512433Y-48064572D01*
X64854042Y-48104499D01*
X64854043Y-48104500D01*
X65197957Y-48104500D01*
X65197957Y-48104499D01*
X65539565Y-48064572D01*
X65539567Y-48064572D01*
X65874219Y-47985258D01*
X66197413Y-47867625D01*
X66197414Y-47867624D01*
X66328668Y-47801706D01*
X66328668Y-47801705D01*
X65026000Y-46499038D01*
X63723330Y-47801705D01*
X63723330Y-47801706D01*
X41872405Y-47801706D01*
X41872405Y-45152003D01*
X62068496Y-45152003D01*
X62088494Y-45495345D01*
X62088495Y-45495356D01*
X62148213Y-45834038D01*
X62148216Y-45834048D01*
X62246855Y-46163527D01*
X62373602Y-46457358D01*
X62373603Y-46457359D01*
X63594149Y-45236813D01*
X64327500Y-45236813D01*
X64368095Y-45401511D01*
X64446924Y-45551707D01*
X64559407Y-45678675D01*
X64699007Y-45775033D01*
X64857610Y-45835184D01*
X64983750Y-45850500D01*
X65068250Y-45850500D01*
X65194390Y-45835184D01*
X65352993Y-45775033D01*
X65492593Y-45678675D01*
X65605076Y-45551707D01*
X65683905Y-45401511D01*
X65724500Y-45236813D01*
X65724500Y-45067187D01*
X65683905Y-44902489D01*
X65605076Y-44752293D01*
X65492593Y-44625325D01*
X65352993Y-44528967D01*
X65194390Y-44468816D01*
X65068250Y-44453500D01*
X64983750Y-44453500D01*
X64857610Y-44468816D01*
X64699007Y-44528967D01*
X64559407Y-44625325D01*
X64446924Y-44752293D01*
X64368095Y-44902489D01*
X64327500Y-45067187D01*
X64327500Y-45236813D01*
X63594149Y-45236813D01*
X63678962Y-45152000D01*
X63678962Y-45151999D01*
X62373603Y-43846640D01*
X62373602Y-43846640D01*
X62246855Y-44140472D01*
X62148216Y-44469951D01*
X62148213Y-44469961D01*
X62088495Y-44808643D01*
X62088494Y-44808654D01*
X62068496Y-45151996D01*
X62068496Y-45152003D01*
X41872405Y-45152003D01*
X41872405Y-44193284D01*
X41872596Y-44188418D01*
X41888119Y-43991158D01*
X41891161Y-43971952D01*
X41935646Y-43786660D01*
X41941654Y-43768171D01*
X42014576Y-43592119D01*
X42023399Y-43574803D01*
X42122968Y-43412321D01*
X42134389Y-43396601D01*
X42258161Y-43251682D01*
X42271884Y-43237959D01*
X42416803Y-43114187D01*
X42432523Y-43102766D01*
X42595001Y-43003200D01*
X42612326Y-42994372D01*
X42788373Y-42921453D01*
X42806863Y-42915445D01*
X42992154Y-42870961D01*
X43011359Y-42867920D01*
X43208649Y-42852393D01*
X43213460Y-42852204D01*
X43489839Y-42852204D01*
X44046112Y-42814154D01*
X44432028Y-42761110D01*
X44598487Y-42738232D01*
X44598488Y-42738232D01*
X45144397Y-42624791D01*
X45581600Y-42502293D01*
X63723331Y-42502293D01*
X65026000Y-43804962D01*
X65026001Y-43804962D01*
X66328667Y-42502293D01*
X66197403Y-42436370D01*
X65874219Y-42318741D01*
X65539566Y-42239427D01*
X65197957Y-42199500D01*
X64854043Y-42199500D01*
X64512434Y-42239427D01*
X64512432Y-42239427D01*
X64177780Y-42318741D01*
X63854592Y-42436372D01*
X63723331Y-42502293D01*
X45581600Y-42502293D01*
X45681287Y-42474362D01*
X45681286Y-42474362D01*
X45681300Y-42474358D01*
X46206679Y-42287638D01*
X46718091Y-42065500D01*
X47065823Y-41885320D01*
X47213145Y-41808984D01*
X47263559Y-41778327D01*
X47412791Y-41687577D01*
X47689549Y-41519277D01*
X48145070Y-41197735D01*
X48145074Y-41197732D01*
X48577590Y-40845854D01*
X48985084Y-40465281D01*
X48985091Y-40465274D01*
X48985092Y-40465273D01*
X49365655Y-40057788D01*
X49490364Y-39904501D01*
X49717535Y-39625270D01*
X49734168Y-39601707D01*
X63723330Y-39601707D01*
X63854585Y-39667625D01*
X63854586Y-39667626D01*
X64177780Y-39785259D01*
X64512433Y-39864573D01*
X64854042Y-39904500D01*
X64854043Y-39904501D01*
X65197957Y-39904501D01*
X65197957Y-39904500D01*
X65539565Y-39864573D01*
X65539567Y-39864573D01*
X65874219Y-39785259D01*
X66197413Y-39667626D01*
X66197414Y-39667625D01*
X66328668Y-39601707D01*
X66328668Y-39601706D01*
X65026000Y-38299039D01*
X63723330Y-39601706D01*
X63723330Y-39601707D01*
X49734168Y-39601707D01*
X50039076Y-39169750D01*
X50328782Y-38693348D01*
X50585302Y-38198287D01*
X50585304Y-38198283D01*
X50807435Y-37686885D01*
X50807435Y-37686884D01*
X50807439Y-37686875D01*
X50994159Y-37161496D01*
X50994163Y-37161483D01*
X51144592Y-36624593D01*
X51258033Y-36078684D01*
X51258033Y-36078683D01*
X51280911Y-35912224D01*
X51333955Y-35526308D01*
X51369357Y-35008748D01*
X55145449Y-35008748D01*
X55164439Y-35298482D01*
X55164441Y-35298494D01*
X55221083Y-35583254D01*
X55221087Y-35583269D01*
X55314419Y-35858214D01*
X55442837Y-36118621D01*
X55604155Y-36360049D01*
X55795599Y-36578350D01*
X55937154Y-36702490D01*
X56013902Y-36769796D01*
X56255325Y-36931110D01*
X56255328Y-36931112D01*
X56469671Y-37036814D01*
X56515739Y-37059532D01*
X56790688Y-37152865D01*
X57075466Y-37209511D01*
X57365202Y-37228501D01*
X57654938Y-37209511D01*
X57939716Y-37152865D01*
X58214665Y-37059532D01*
X58432710Y-36952004D01*
X62068496Y-36952004D01*
X62088494Y-37295346D01*
X62088495Y-37295357D01*
X62148213Y-37634039D01*
X62148216Y-37634049D01*
X62246855Y-37963528D01*
X62373602Y-38257359D01*
X62373603Y-38257360D01*
X63594149Y-37036814D01*
X64327500Y-37036814D01*
X64368095Y-37201512D01*
X64446924Y-37351708D01*
X64559407Y-37478676D01*
X64699007Y-37575034D01*
X64857610Y-37635185D01*
X64983750Y-37650501D01*
X65068250Y-37650501D01*
X65194390Y-37635185D01*
X65352993Y-37575034D01*
X65492593Y-37478676D01*
X65605076Y-37351708D01*
X65683905Y-37201512D01*
X65724500Y-37036814D01*
X65724500Y-36867188D01*
X65683905Y-36702490D01*
X65605076Y-36552294D01*
X65492593Y-36425326D01*
X65352993Y-36328968D01*
X65194390Y-36268817D01*
X65068250Y-36253501D01*
X64983750Y-36253501D01*
X64857610Y-36268817D01*
X64699007Y-36328968D01*
X64559407Y-36425326D01*
X64446924Y-36552294D01*
X64368095Y-36702490D01*
X64327500Y-36867188D01*
X64327500Y-37036814D01*
X63594149Y-37036814D01*
X63678962Y-36952001D01*
X63678962Y-36952000D01*
X62373603Y-35646641D01*
X62373602Y-35646641D01*
X62246855Y-35940473D01*
X62148216Y-36269952D01*
X62148213Y-36269962D01*
X62088495Y-36608644D01*
X62088494Y-36608655D01*
X62068496Y-36951997D01*
X62068496Y-36952004D01*
X58432710Y-36952004D01*
X58475079Y-36931110D01*
X58716502Y-36769796D01*
X58934804Y-36578350D01*
X59126250Y-36360048D01*
X59287564Y-36118625D01*
X59415986Y-35858211D01*
X59509319Y-35583262D01*
X59565965Y-35298484D01*
X59584955Y-35008748D01*
X59565965Y-34719012D01*
X59509319Y-34434234D01*
X59464531Y-34302294D01*
X63723331Y-34302294D01*
X65026000Y-35604963D01*
X65026001Y-35604963D01*
X66328667Y-34302294D01*
X66197403Y-34236371D01*
X65874219Y-34118742D01*
X65539566Y-34039428D01*
X65197957Y-33999501D01*
X64854043Y-33999501D01*
X64512434Y-34039428D01*
X64512432Y-34039428D01*
X64177780Y-34118742D01*
X63854592Y-34236373D01*
X63723331Y-34302294D01*
X59464531Y-34302294D01*
X59415986Y-34159285D01*
X59337189Y-33999501D01*
X59287569Y-33898881D01*
X59287560Y-33898866D01*
X59230314Y-33813191D01*
X59126250Y-33657448D01*
X59084304Y-33609618D01*
X58934804Y-33439145D01*
X58716503Y-33247701D01*
X58475075Y-33086383D01*
X58214668Y-32957965D01*
X57939723Y-32864633D01*
X57939717Y-32864631D01*
X57939716Y-32864631D01*
X57939714Y-32864630D01*
X57939708Y-32864629D01*
X57654948Y-32807987D01*
X57654938Y-32807985D01*
X57365202Y-32788995D01*
X57075466Y-32807985D01*
X57075460Y-32807986D01*
X57075455Y-32807987D01*
X56790695Y-32864629D01*
X56790680Y-32864633D01*
X56515735Y-32957965D01*
X56255335Y-33086380D01*
X56255320Y-33086389D01*
X56013900Y-33247701D01*
X55795599Y-33439145D01*
X55604155Y-33657446D01*
X55442843Y-33898866D01*
X55442834Y-33898881D01*
X55314419Y-34159281D01*
X55221087Y-34434226D01*
X55221083Y-34434241D01*
X55164441Y-34719001D01*
X55164439Y-34719013D01*
X55145449Y-35008748D01*
X51369357Y-35008748D01*
X51372005Y-34970034D01*
X51372005Y-34691248D01*
X51372005Y-34625356D01*
X51372005Y-25875779D01*
X51372006Y-25875750D01*
X51372005Y-25867130D01*
X51372007Y-25867127D01*
X51372005Y-25803670D01*
X51372196Y-25798806D01*
X51387716Y-25601541D01*
X51390757Y-25582342D01*
X51435235Y-25397062D01*
X51441247Y-25378558D01*
X51514165Y-25202511D01*
X51522992Y-25185186D01*
X51622555Y-25022711D01*
X51633981Y-25006984D01*
X51757743Y-24862077D01*
X51771478Y-24848342D01*
X51916388Y-24724580D01*
X51932113Y-24713155D01*
X52094589Y-24613591D01*
X52111909Y-24604766D01*
X52287973Y-24531840D01*
X52306449Y-24525838D01*
X52491745Y-24481357D01*
X52510954Y-24478315D01*
X52708265Y-24462791D01*
X52713121Y-24462601D01*
X52776530Y-24462603D01*
X52776533Y-24462601D01*
X52785153Y-24462602D01*
X52785182Y-24462601D01*
X66591841Y-24462601D01*
X66658880Y-24482286D01*
G37*
%TD.AperFunction*%
%TD*%
%TA.AperFunction,Conductor*%
%TO.N,BG*%
G36*
X67809726Y-48489433D02*
G01*
X67815665Y-48494918D01*
X68214614Y-48888208D01*
X68214615Y-48888208D01*
X68225214Y-48897559D01*
X68252283Y-48918899D01*
X68253000Y-48919462D01*
X68253005Y-48919465D01*
X68289240Y-48937764D01*
X68341989Y-48964403D01*
X68409302Y-48983127D01*
X68409308Y-48983127D01*
X68409313Y-48983129D01*
X68432022Y-48986063D01*
X68481423Y-48992447D01*
X69524730Y-48977541D01*
X69592042Y-48996265D01*
X69638547Y-49048410D01*
X69650500Y-49101528D01*
X69650500Y-93400196D01*
X69647862Y-93425634D01*
X69645633Y-93436268D01*
X69645633Y-93436269D01*
X69645633Y-93436271D01*
X69650023Y-93471491D01*
X69650500Y-93479167D01*
X69650500Y-93483116D01*
X69654342Y-93506141D01*
X69661134Y-93560627D01*
X69663373Y-93568147D01*
X69665934Y-93575608D01*
X69665935Y-93575610D01*
X69692055Y-93623877D01*
X69716174Y-93673211D01*
X69720742Y-93679609D01*
X69725582Y-93685827D01*
X69765971Y-93723009D01*
X72479375Y-96436412D01*
X72512860Y-96497735D01*
X72512431Y-96545949D01*
X72512938Y-96546004D01*
X72512384Y-96551148D01*
X72512372Y-96552603D01*
X72512108Y-96553717D01*
X72505701Y-96613316D01*
X72505700Y-96613335D01*
X72505700Y-97509070D01*
X72505701Y-97509076D01*
X72512108Y-97568683D01*
X72562402Y-97703528D01*
X72562406Y-97703535D01*
X72648652Y-97818744D01*
X72648655Y-97818747D01*
X72763864Y-97904993D01*
X72763871Y-97904997D01*
X72898717Y-97955291D01*
X72898716Y-97955291D01*
X72905644Y-97956035D01*
X72958327Y-97961700D01*
X73949300Y-97961699D01*
X74016339Y-97981383D01*
X74036981Y-97998018D01*
X76472056Y-100433093D01*
X76505541Y-100494416D01*
X76500557Y-100564108D01*
X76465441Y-100614605D01*
X76466786Y-100613443D01*
X76466753Y-100613475D01*
X76435055Y-100646181D01*
X76388652Y-100734412D01*
X76388651Y-100734416D01*
X76368821Y-100801399D01*
X76368818Y-100801413D01*
X76358311Y-100873366D01*
X76357330Y-101317884D01*
X76357330Y-101317885D01*
X76365196Y-101381363D01*
X76380362Y-101441060D01*
X76380362Y-101441058D01*
X76391941Y-101475914D01*
X76391946Y-101475924D01*
X76447326Y-101558808D01*
X76447330Y-101558813D01*
X76496732Y-101608215D01*
X76531682Y-101637424D01*
X76623089Y-101677212D01*
X76691362Y-101692064D01*
X76710953Y-101694524D01*
X76775014Y-101722407D01*
X76813833Y-101780500D01*
X76819500Y-101817557D01*
X76819500Y-102507572D01*
X76799815Y-102574611D01*
X76747011Y-102620366D01*
X76712878Y-102630348D01*
X76646038Y-102639809D01*
X76601692Y-102650184D01*
X76514953Y-102699322D01*
X76467747Y-102740044D01*
X76462047Y-102744962D01*
X76462046Y-102744963D01*
X76462046Y-102744962D01*
X76430352Y-102777663D01*
X76430349Y-102777668D01*
X76383946Y-102865900D01*
X76383946Y-102865902D01*
X76364115Y-102932887D01*
X76353606Y-103004851D01*
X76353606Y-103004852D01*
X76350971Y-104197817D01*
X76331138Y-104264813D01*
X76278233Y-104310451D01*
X76209053Y-104320242D01*
X76145561Y-104291076D01*
X76139290Y-104285224D01*
X74746130Y-102892064D01*
X74712645Y-102830741D01*
X74717628Y-102761055D01*
X74750291Y-102673483D01*
X74756700Y-102613873D01*
X74756699Y-101718128D01*
X74750291Y-101658517D01*
X74735039Y-101617625D01*
X74699997Y-101523671D01*
X74699993Y-101523664D01*
X74613747Y-101408455D01*
X74613744Y-101408452D01*
X74498535Y-101322206D01*
X74498528Y-101322202D01*
X74384792Y-101279782D01*
X74328858Y-101237911D01*
X74304441Y-101172447D01*
X74319292Y-101104174D01*
X74368697Y-101054768D01*
X74384792Y-101047418D01*
X74498528Y-101004997D01*
X74498527Y-101004997D01*
X74498531Y-101004996D01*
X74613746Y-100918746D01*
X74699996Y-100803531D01*
X74750291Y-100668683D01*
X74756700Y-100609073D01*
X74756699Y-99713328D01*
X74750291Y-99653717D01*
X74748421Y-99648704D01*
X74699997Y-99518871D01*
X74699993Y-99518864D01*
X74613747Y-99403655D01*
X74613744Y-99403652D01*
X74498535Y-99317406D01*
X74498528Y-99317402D01*
X74363682Y-99267108D01*
X74363683Y-99267108D01*
X74304083Y-99260701D01*
X74304081Y-99260700D01*
X74304073Y-99260700D01*
X74304064Y-99260700D01*
X72958329Y-99260700D01*
X72958323Y-99260701D01*
X72898716Y-99267108D01*
X72763871Y-99317402D01*
X72763864Y-99317406D01*
X72648655Y-99403652D01*
X72648652Y-99403655D01*
X72562406Y-99518864D01*
X72562402Y-99518871D01*
X72512108Y-99653717D01*
X72505701Y-99713316D01*
X72505701Y-99713323D01*
X72505700Y-99713335D01*
X72505700Y-100609070D01*
X72505701Y-100609076D01*
X72512108Y-100668683D01*
X72562402Y-100803528D01*
X72562406Y-100803535D01*
X72648652Y-100918744D01*
X72648655Y-100918747D01*
X72763864Y-101004993D01*
X72763871Y-101004997D01*
X72877607Y-101047418D01*
X72933541Y-101089289D01*
X72957958Y-101154753D01*
X72943106Y-101223026D01*
X72893701Y-101272432D01*
X72877607Y-101279782D01*
X72763871Y-101322202D01*
X72763864Y-101322206D01*
X72648655Y-101408452D01*
X72648652Y-101408455D01*
X72562406Y-101523664D01*
X72562402Y-101523671D01*
X72512108Y-101658517D01*
X72505701Y-101718116D01*
X72505701Y-101718123D01*
X72505700Y-101718135D01*
X72505700Y-102613870D01*
X72505701Y-102613876D01*
X72512108Y-102673483D01*
X72562402Y-102808328D01*
X72562406Y-102808335D01*
X72648652Y-102923544D01*
X72648655Y-102923547D01*
X72763864Y-103009793D01*
X72763871Y-103009797D01*
X72898717Y-103060091D01*
X72898716Y-103060091D01*
X72905644Y-103060835D01*
X72958327Y-103066500D01*
X73807128Y-103066499D01*
X73874167Y-103086183D01*
X73894809Y-103102818D01*
X76374124Y-105582133D01*
X76407609Y-105643456D01*
X76402625Y-105713148D01*
X76360755Y-105769080D01*
X76274787Y-105833436D01*
X76274772Y-105833449D01*
X76072499Y-106035722D01*
X76072489Y-106035734D01*
X75901042Y-106264760D01*
X75901038Y-106264766D01*
X75793381Y-106461928D01*
X75743976Y-106511334D01*
X75684549Y-106526502D01*
X74570123Y-106526502D01*
X74506449Y-106507805D01*
X74506314Y-106508054D01*
X74505170Y-106507429D01*
X74503084Y-106506817D01*
X74499530Y-106504349D01*
X74498528Y-106503802D01*
X74363682Y-106453508D01*
X74363683Y-106453508D01*
X74304083Y-106447101D01*
X74304081Y-106447100D01*
X74304073Y-106447100D01*
X74304065Y-106447100D01*
X74130700Y-106447100D01*
X74063661Y-106427415D01*
X74017906Y-106374611D01*
X74006700Y-106323100D01*
X74006700Y-106290499D01*
X74026385Y-106223460D01*
X74079189Y-106177705D01*
X74130700Y-106166499D01*
X74304071Y-106166499D01*
X74304072Y-106166499D01*
X74363683Y-106160091D01*
X74498531Y-106109796D01*
X74613746Y-106023546D01*
X74699996Y-105908331D01*
X74750291Y-105773483D01*
X74756700Y-105713873D01*
X74756699Y-104818128D01*
X74750291Y-104758517D01*
X74746338Y-104747919D01*
X74699997Y-104623671D01*
X74699993Y-104623664D01*
X74613747Y-104508455D01*
X74613744Y-104508452D01*
X74498535Y-104422206D01*
X74498528Y-104422202D01*
X74363682Y-104371908D01*
X74363683Y-104371908D01*
X74304083Y-104365501D01*
X74304081Y-104365500D01*
X74304073Y-104365500D01*
X74304064Y-104365500D01*
X72958329Y-104365500D01*
X72958323Y-104365501D01*
X72898716Y-104371908D01*
X72763871Y-104422202D01*
X72763864Y-104422206D01*
X72648655Y-104508452D01*
X72648652Y-104508455D01*
X72562406Y-104623664D01*
X72562402Y-104623671D01*
X72512108Y-104758517D01*
X72506692Y-104808898D01*
X72505701Y-104818123D01*
X72505700Y-104818135D01*
X72505700Y-105713870D01*
X72505701Y-105713876D01*
X72512108Y-105773483D01*
X72562402Y-105908328D01*
X72562406Y-105908335D01*
X72648652Y-106023544D01*
X72648655Y-106023547D01*
X72763864Y-106109793D01*
X72763871Y-106109797D01*
X72808818Y-106126561D01*
X72898717Y-106160091D01*
X72958327Y-106166500D01*
X73131700Y-106166499D01*
X73198739Y-106186183D01*
X73244494Y-106238987D01*
X73255700Y-106290499D01*
X73255700Y-106323100D01*
X73236015Y-106390139D01*
X73183211Y-106435894D01*
X73131701Y-106447100D01*
X72958330Y-106447100D01*
X72958323Y-106447101D01*
X72898716Y-106453508D01*
X72763871Y-106503802D01*
X72763864Y-106503806D01*
X72648655Y-106590052D01*
X72648652Y-106590055D01*
X72562406Y-106705264D01*
X72562402Y-106705271D01*
X72512108Y-106840117D01*
X72505701Y-106899716D01*
X72505700Y-106899735D01*
X72505700Y-107753922D01*
X72486015Y-107820961D01*
X72433211Y-107866716D01*
X72420412Y-107871724D01*
X72160679Y-107957078D01*
X72160667Y-107957083D01*
X71889581Y-108088428D01*
X71889576Y-108088431D01*
X71638411Y-108254741D01*
X71411648Y-108453048D01*
X71213341Y-108679811D01*
X71047031Y-108930976D01*
X71047028Y-108930981D01*
X70915683Y-109202067D01*
X70915678Y-109202079D01*
X70821638Y-109488244D01*
X70821636Y-109488255D01*
X70766574Y-109784420D01*
X70766573Y-109784426D01*
X70765801Y-109797599D01*
X70765802Y-109797600D01*
X74157200Y-109797600D01*
X74224239Y-109817285D01*
X74269994Y-109870089D01*
X74281200Y-109921600D01*
X74281200Y-113097599D01*
X74342206Y-113097599D01*
X74519375Y-113087226D01*
X74815544Y-113032163D01*
X74815555Y-113032161D01*
X75101720Y-112938121D01*
X75101732Y-112938116D01*
X75372818Y-112806771D01*
X75372823Y-112806768D01*
X75623988Y-112640458D01*
X75850751Y-112442151D01*
X76049058Y-112215389D01*
X76105921Y-112129513D01*
X76159345Y-112084484D01*
X76228633Y-112075487D01*
X76291786Y-112105378D01*
X76328754Y-112164667D01*
X76333310Y-112198246D01*
X76331254Y-113130043D01*
X76331098Y-113200911D01*
X76326130Y-115451436D01*
X76326129Y-115451999D01*
X76321159Y-117703086D01*
X76321005Y-117772828D01*
X76295776Y-129201729D01*
X76295577Y-129291911D01*
X76289927Y-131851439D01*
X76289926Y-131852000D01*
X76284408Y-134351436D01*
X76284407Y-134352000D01*
X76278889Y-136851439D01*
X76278888Y-136852000D01*
X76273237Y-139412087D01*
X76273040Y-139501142D01*
X76272806Y-139606892D01*
X76273517Y-139620616D01*
X76273517Y-139620619D01*
X76277046Y-139653958D01*
X76277059Y-139654082D01*
X76277060Y-139654087D01*
X76306743Y-139749255D01*
X76340156Y-139810610D01*
X76340160Y-139810615D01*
X76340161Y-139810617D01*
X76383678Y-139868883D01*
X77313657Y-140800920D01*
X77317467Y-140804347D01*
X77323888Y-140810124D01*
X77327694Y-140813194D01*
X77349977Y-140831171D01*
X77350083Y-140831257D01*
X77430664Y-140873409D01*
X77438418Y-140877465D01*
X77438419Y-140877466D01*
X77488547Y-140892184D01*
X77505457Y-140897150D01*
X77505461Y-140897150D01*
X77505463Y-140897151D01*
X77517094Y-140898823D01*
X77577442Y-140907500D01*
X77577443Y-140907500D01*
X95327385Y-140907500D01*
X95327386Y-140907500D01*
X95329663Y-140907377D01*
X95341058Y-140906767D01*
X95341058Y-140906766D01*
X95374215Y-140903202D01*
X95469349Y-140873413D01*
X95530672Y-140839928D01*
X95588890Y-140796347D01*
X95659725Y-140725511D01*
X95721046Y-140692028D01*
X95790738Y-140697012D01*
X95846672Y-140738883D01*
X95871089Y-140804347D01*
X95871405Y-140813194D01*
X95871405Y-156955735D01*
X95871292Y-156959480D01*
X95853404Y-157255149D01*
X95852501Y-157262588D01*
X95799446Y-157552093D01*
X95797653Y-157559369D01*
X95710091Y-157840363D01*
X95707433Y-157847370D01*
X95586640Y-158115759D01*
X95583157Y-158122395D01*
X95430888Y-158374276D01*
X95426631Y-158380443D01*
X95245115Y-158612130D01*
X95240145Y-158617739D01*
X95032032Y-158825852D01*
X95026423Y-158830821D01*
X94794733Y-159012339D01*
X94788565Y-159016596D01*
X94536689Y-159168859D01*
X94530054Y-159172342D01*
X94261654Y-159293138D01*
X94254648Y-159295796D01*
X93973657Y-159383356D01*
X93966381Y-159385150D01*
X93676878Y-159438202D01*
X93669440Y-159439105D01*
X93412665Y-159454639D01*
X93373553Y-159457005D01*
X93369816Y-159457118D01*
X90017345Y-159457118D01*
X89873423Y-159457118D01*
X89873420Y-159457118D01*
X89873418Y-159457119D01*
X89847226Y-159464808D01*
X89829952Y-159468566D01*
X89802928Y-159472452D01*
X89802925Y-159472453D01*
X89778094Y-159483793D01*
X89761525Y-159489973D01*
X89748555Y-159493781D01*
X89735331Y-159497665D01*
X89735329Y-159497665D01*
X89735329Y-159497666D01*
X89712366Y-159512423D01*
X89696845Y-159520898D01*
X89672012Y-159532239D01*
X89672009Y-159532241D01*
X89651384Y-159550113D01*
X89637224Y-159560713D01*
X89614260Y-159575471D01*
X89614255Y-159575475D01*
X89596377Y-159596107D01*
X89583873Y-159608611D01*
X89563241Y-159626489D01*
X89563237Y-159626494D01*
X89548479Y-159649458D01*
X89537879Y-159663618D01*
X89520007Y-159684243D01*
X89520005Y-159684246D01*
X89508664Y-159709079D01*
X89500189Y-159724600D01*
X89485432Y-159747563D01*
X89477739Y-159773759D01*
X89471559Y-159790328D01*
X89460219Y-159815159D01*
X89460218Y-159815162D01*
X89456332Y-159842186D01*
X89452574Y-159859460D01*
X89444885Y-159885652D01*
X89444884Y-159885660D01*
X89444884Y-161127895D01*
X89425199Y-161194934D01*
X89372395Y-161240689D01*
X89320884Y-161251895D01*
X52713109Y-161251895D01*
X52708241Y-161251704D01*
X52510978Y-161236173D01*
X52491761Y-161233129D01*
X52306494Y-161188647D01*
X52287989Y-161182635D01*
X52111948Y-161109714D01*
X52094611Y-161100880D01*
X51932148Y-161001321D01*
X51916407Y-160989884D01*
X51771520Y-160866137D01*
X51757762Y-160852379D01*
X51634015Y-160707492D01*
X51622578Y-160691751D01*
X51523019Y-160529288D01*
X51514185Y-160511951D01*
X51491881Y-160458105D01*
X51441261Y-160335903D01*
X51435252Y-160317405D01*
X51420858Y-160257455D01*
X51390769Y-160132137D01*
X51387725Y-160112921D01*
X51372196Y-159915658D01*
X51372005Y-159910791D01*
X51372005Y-155401706D01*
X78523331Y-155401706D01*
X78654586Y-155467624D01*
X78654587Y-155467625D01*
X78977781Y-155585258D01*
X79312434Y-155664572D01*
X79654043Y-155704499D01*
X79654044Y-155704500D01*
X79997958Y-155704500D01*
X79997958Y-155704499D01*
X80339566Y-155664572D01*
X80339568Y-155664572D01*
X80674220Y-155585258D01*
X80997414Y-155467625D01*
X80997415Y-155467624D01*
X81128669Y-155401706D01*
X86723330Y-155401706D01*
X86854585Y-155467624D01*
X86854586Y-155467625D01*
X87177780Y-155585258D01*
X87512433Y-155664572D01*
X87854042Y-155704499D01*
X87854043Y-155704500D01*
X88197957Y-155704500D01*
X88197957Y-155704499D01*
X88539565Y-155664572D01*
X88539567Y-155664572D01*
X88874219Y-155585258D01*
X89197413Y-155467625D01*
X89197414Y-155467624D01*
X89328668Y-155401706D01*
X89328668Y-155401705D01*
X88026000Y-154099038D01*
X86723330Y-155401705D01*
X86723330Y-155401706D01*
X81128669Y-155401706D01*
X81128669Y-155401705D01*
X79826001Y-154099038D01*
X78523331Y-155401705D01*
X78523331Y-155401706D01*
X51372005Y-155401706D01*
X51372005Y-150744467D01*
X51369356Y-150705748D01*
X55145449Y-150705748D01*
X55164439Y-150995482D01*
X55164441Y-150995494D01*
X55221083Y-151280254D01*
X55221087Y-151280269D01*
X55314419Y-151555214D01*
X55442837Y-151815621D01*
X55442840Y-151815625D01*
X55601783Y-152053500D01*
X55604155Y-152057049D01*
X55795599Y-152275350D01*
X55947591Y-152408643D01*
X56013902Y-152466796D01*
X56255325Y-152628110D01*
X56255328Y-152628112D01*
X56334565Y-152667187D01*
X56515739Y-152756532D01*
X56790688Y-152849865D01*
X57075466Y-152906511D01*
X57365202Y-152925501D01*
X57654938Y-152906511D01*
X57939716Y-152849865D01*
X58214665Y-152756532D01*
X58223849Y-152752003D01*
X76868497Y-152752003D01*
X76888495Y-153095345D01*
X76888496Y-153095356D01*
X76948214Y-153434038D01*
X76948217Y-153434048D01*
X77046856Y-153763527D01*
X77173603Y-154057358D01*
X77173604Y-154057359D01*
X78394150Y-152836813D01*
X79127501Y-152836813D01*
X79168096Y-153001511D01*
X79246925Y-153151707D01*
X79359408Y-153278675D01*
X79499008Y-153375033D01*
X79657611Y-153435184D01*
X79783751Y-153450500D01*
X79868251Y-153450500D01*
X79994391Y-153435184D01*
X80152994Y-153375033D01*
X80292594Y-153278675D01*
X80405077Y-153151707D01*
X80483906Y-153001511D01*
X80524501Y-152836813D01*
X80524501Y-152752001D01*
X81173039Y-152752001D01*
X82478397Y-154057359D01*
X82605145Y-153763527D01*
X82703784Y-153434048D01*
X82703787Y-153434038D01*
X82763505Y-153095356D01*
X82763506Y-153095345D01*
X82783505Y-152752003D01*
X85068496Y-152752003D01*
X85088494Y-153095345D01*
X85088495Y-153095356D01*
X85148213Y-153434038D01*
X85148216Y-153434048D01*
X85246855Y-153763527D01*
X85373602Y-154057358D01*
X85373603Y-154057359D01*
X86594149Y-152836813D01*
X87327500Y-152836813D01*
X87368095Y-153001511D01*
X87446924Y-153151707D01*
X87559407Y-153278675D01*
X87699007Y-153375033D01*
X87857610Y-153435184D01*
X87983750Y-153450500D01*
X88068250Y-153450500D01*
X88194390Y-153435184D01*
X88352993Y-153375033D01*
X88492593Y-153278675D01*
X88605076Y-153151707D01*
X88683905Y-153001511D01*
X88724500Y-152836813D01*
X88724500Y-152752000D01*
X89373038Y-152752000D01*
X90678396Y-154057359D01*
X90805144Y-153763527D01*
X90903783Y-153434048D01*
X90903786Y-153434038D01*
X90963504Y-153095356D01*
X90963505Y-153095345D01*
X90983504Y-152752003D01*
X90983504Y-152751996D01*
X90963505Y-152408654D01*
X90963504Y-152408643D01*
X90903786Y-152069961D01*
X90903783Y-152069951D01*
X90805144Y-151740472D01*
X90678396Y-151446639D01*
X89373038Y-152751999D01*
X89373038Y-152752000D01*
X88724500Y-152752000D01*
X88724500Y-152667187D01*
X88683905Y-152502489D01*
X88605076Y-152352293D01*
X88492593Y-152225325D01*
X88352993Y-152128967D01*
X88194390Y-152068816D01*
X88068250Y-152053500D01*
X87983750Y-152053500D01*
X87857610Y-152068816D01*
X87699007Y-152128967D01*
X87559407Y-152225325D01*
X87446924Y-152352293D01*
X87368095Y-152502489D01*
X87327500Y-152667187D01*
X87327500Y-152836813D01*
X86594149Y-152836813D01*
X86678962Y-152752000D01*
X86678962Y-152751999D01*
X85373602Y-151446640D01*
X85246855Y-151740472D01*
X85148216Y-152069951D01*
X85148213Y-152069961D01*
X85088495Y-152408643D01*
X85088494Y-152408654D01*
X85068496Y-152751996D01*
X85068496Y-152752003D01*
X82783505Y-152752003D01*
X82783505Y-152751996D01*
X82763506Y-152408654D01*
X82763505Y-152408643D01*
X82703787Y-152069961D01*
X82703784Y-152069951D01*
X82605145Y-151740472D01*
X82478397Y-151446639D01*
X81173039Y-152751999D01*
X81173039Y-152752001D01*
X80524501Y-152752001D01*
X80524501Y-152667187D01*
X80483906Y-152502489D01*
X80405077Y-152352293D01*
X80292594Y-152225325D01*
X80152994Y-152128967D01*
X79994391Y-152068816D01*
X79868251Y-152053500D01*
X79783751Y-152053500D01*
X79657611Y-152068816D01*
X79499008Y-152128967D01*
X79359408Y-152225325D01*
X79246925Y-152352293D01*
X79168096Y-152502489D01*
X79127501Y-152667187D01*
X79127501Y-152836813D01*
X78394150Y-152836813D01*
X78478963Y-152752000D01*
X78478963Y-152751999D01*
X77173604Y-151446640D01*
X77173603Y-151446640D01*
X77046856Y-151740472D01*
X76948217Y-152069951D01*
X76948214Y-152069961D01*
X76888496Y-152408643D01*
X76888495Y-152408654D01*
X76868497Y-152751996D01*
X76868497Y-152752003D01*
X58223849Y-152752003D01*
X58475079Y-152628110D01*
X58716502Y-152466796D01*
X58934804Y-152275350D01*
X59126250Y-152057048D01*
X59287564Y-151815625D01*
X59415986Y-151555211D01*
X59509319Y-151280262D01*
X59565965Y-150995484D01*
X59584955Y-150705748D01*
X59565965Y-150416012D01*
X59533341Y-150252000D01*
X78673039Y-150252000D01*
X79826001Y-151404962D01*
X80978963Y-150252000D01*
X86873038Y-150252000D01*
X88026000Y-151404962D01*
X89178962Y-150252000D01*
X88026000Y-149099038D01*
X86873038Y-150252000D01*
X80978963Y-150252000D01*
X79826001Y-149099038D01*
X78673039Y-150252000D01*
X59533341Y-150252000D01*
X59509319Y-150131234D01*
X59415986Y-149856285D01*
X59376280Y-149775770D01*
X59287569Y-149595881D01*
X59287560Y-149595866D01*
X59224367Y-149501291D01*
X59126250Y-149354448D01*
X59084304Y-149306618D01*
X58934804Y-149136145D01*
X58716503Y-148944701D01*
X58475075Y-148783383D01*
X58214668Y-148654965D01*
X57939723Y-148561633D01*
X57939717Y-148561631D01*
X57939716Y-148561631D01*
X57939714Y-148561630D01*
X57939708Y-148561629D01*
X57654948Y-148504987D01*
X57654938Y-148504985D01*
X57365202Y-148485995D01*
X57075466Y-148504985D01*
X57075460Y-148504986D01*
X57075455Y-148504987D01*
X56790695Y-148561629D01*
X56790680Y-148561633D01*
X56515735Y-148654965D01*
X56255335Y-148783380D01*
X56255320Y-148783389D01*
X56013900Y-148944701D01*
X55795599Y-149136145D01*
X55604155Y-149354446D01*
X55442843Y-149595866D01*
X55442834Y-149595881D01*
X55314419Y-149856281D01*
X55221087Y-150131226D01*
X55221083Y-150131241D01*
X55164441Y-150416001D01*
X55164439Y-150416013D01*
X55145449Y-150705748D01*
X51369356Y-150705748D01*
X51356135Y-150512463D01*
X51333954Y-150188188D01*
X51258031Y-149635809D01*
X51199564Y-149354448D01*
X51144592Y-149089904D01*
X50994158Y-148553001D01*
X50896662Y-148278675D01*
X50807438Y-148027622D01*
X50687720Y-147752003D01*
X76868497Y-147752003D01*
X76888495Y-148095345D01*
X76888496Y-148095356D01*
X76948214Y-148434038D01*
X76948217Y-148434048D01*
X77046856Y-148763527D01*
X77173603Y-149057358D01*
X77173604Y-149057359D01*
X78394150Y-147836813D01*
X79127501Y-147836813D01*
X79168096Y-148001511D01*
X79246925Y-148151707D01*
X79359408Y-148278675D01*
X79499008Y-148375033D01*
X79657611Y-148435184D01*
X79783751Y-148450500D01*
X79868251Y-148450500D01*
X79994391Y-148435184D01*
X80152994Y-148375033D01*
X80292594Y-148278675D01*
X80405077Y-148151707D01*
X80483906Y-148001511D01*
X80524501Y-147836813D01*
X80524501Y-147752001D01*
X81173039Y-147752001D01*
X82478397Y-149057359D01*
X82605145Y-148763527D01*
X82703784Y-148434048D01*
X82703787Y-148434038D01*
X82763505Y-148095356D01*
X82763506Y-148095345D01*
X82783505Y-147752003D01*
X85068496Y-147752003D01*
X85088494Y-148095345D01*
X85088495Y-148095356D01*
X85148213Y-148434038D01*
X85148216Y-148434048D01*
X85246855Y-148763527D01*
X85373602Y-149057358D01*
X85373603Y-149057359D01*
X86594149Y-147836813D01*
X87327500Y-147836813D01*
X87368095Y-148001511D01*
X87446924Y-148151707D01*
X87559407Y-148278675D01*
X87699007Y-148375033D01*
X87857610Y-148435184D01*
X87983750Y-148450500D01*
X88068250Y-148450500D01*
X88194390Y-148435184D01*
X88352993Y-148375033D01*
X88492593Y-148278675D01*
X88605076Y-148151707D01*
X88683905Y-148001511D01*
X88724500Y-147836813D01*
X88724500Y-147752000D01*
X89373038Y-147752000D01*
X90678396Y-149057359D01*
X90805144Y-148763527D01*
X90903783Y-148434048D01*
X90903786Y-148434038D01*
X90963504Y-148095356D01*
X90963505Y-148095345D01*
X90983504Y-147752003D01*
X90983504Y-147751996D01*
X90963505Y-147408654D01*
X90963504Y-147408643D01*
X90903786Y-147069961D01*
X90903783Y-147069951D01*
X90805144Y-146740472D01*
X90678396Y-146446639D01*
X89373038Y-147751999D01*
X89373038Y-147752000D01*
X88724500Y-147752000D01*
X88724500Y-147667187D01*
X88683905Y-147502489D01*
X88605076Y-147352293D01*
X88492593Y-147225325D01*
X88352993Y-147128967D01*
X88194390Y-147068816D01*
X88068250Y-147053500D01*
X87983750Y-147053500D01*
X87857610Y-147068816D01*
X87699007Y-147128967D01*
X87559407Y-147225325D01*
X87446924Y-147352293D01*
X87368095Y-147502489D01*
X87327500Y-147667187D01*
X87327500Y-147836813D01*
X86594149Y-147836813D01*
X86678962Y-147752000D01*
X86678962Y-147751999D01*
X85373602Y-146446640D01*
X85246855Y-146740472D01*
X85148216Y-147069951D01*
X85148213Y-147069961D01*
X85088495Y-147408643D01*
X85088494Y-147408654D01*
X85068496Y-147751996D01*
X85068496Y-147752003D01*
X82783505Y-147752003D01*
X82783505Y-147751996D01*
X82763506Y-147408654D01*
X82763505Y-147408643D01*
X82703787Y-147069961D01*
X82703784Y-147069951D01*
X82605145Y-146740472D01*
X82478397Y-146446639D01*
X81173039Y-147751999D01*
X81173039Y-147752001D01*
X80524501Y-147752001D01*
X80524501Y-147667187D01*
X80483906Y-147502489D01*
X80405077Y-147352293D01*
X80292594Y-147225325D01*
X80152994Y-147128967D01*
X79994391Y-147068816D01*
X79868251Y-147053500D01*
X79783751Y-147053500D01*
X79657611Y-147068816D01*
X79499008Y-147128967D01*
X79359408Y-147225325D01*
X79246925Y-147352293D01*
X79168096Y-147502489D01*
X79127501Y-147667187D01*
X79127501Y-147836813D01*
X78394150Y-147836813D01*
X78478963Y-147752000D01*
X78478963Y-147751999D01*
X77173604Y-146446640D01*
X77173603Y-146446640D01*
X77046856Y-146740472D01*
X76948217Y-147069951D01*
X76948214Y-147069961D01*
X76888496Y-147408643D01*
X76888495Y-147408654D01*
X76868497Y-147751996D01*
X76868497Y-147752003D01*
X50687720Y-147752003D01*
X50585300Y-147516210D01*
X50428046Y-147212722D01*
X50328785Y-147021156D01*
X50039078Y-146544752D01*
X49717536Y-146089232D01*
X49365654Y-145656710D01*
X48985082Y-145249218D01*
X48827764Y-145102293D01*
X78523332Y-145102293D01*
X79826001Y-146404962D01*
X79826002Y-146404962D01*
X81128668Y-145102293D01*
X86723331Y-145102293D01*
X88026000Y-146404962D01*
X88026001Y-146404962D01*
X89328667Y-145102293D01*
X89197403Y-145036370D01*
X88874219Y-144918741D01*
X88539566Y-144839427D01*
X88197957Y-144799500D01*
X87854043Y-144799500D01*
X87512434Y-144839427D01*
X87512432Y-144839427D01*
X87177780Y-144918741D01*
X86854592Y-145036372D01*
X86723331Y-145102293D01*
X81128668Y-145102293D01*
X80997404Y-145036370D01*
X80674220Y-144918741D01*
X80339567Y-144839427D01*
X79997958Y-144799500D01*
X79654044Y-144799500D01*
X79312435Y-144839427D01*
X79312433Y-144839427D01*
X78977781Y-144918741D01*
X78654593Y-145036372D01*
X78523332Y-145102293D01*
X48827764Y-145102293D01*
X48577590Y-144868646D01*
X48145068Y-144516764D01*
X47689548Y-144195222D01*
X47213144Y-143905515D01*
X46935065Y-143761427D01*
X46718090Y-143649000D01*
X46206678Y-143426862D01*
X45681299Y-143240142D01*
X45470355Y-143181038D01*
X45144396Y-143089708D01*
X44803961Y-143018966D01*
X44598491Y-142976269D01*
X44046112Y-142900346D01*
X44046113Y-142900346D01*
X43966644Y-142894910D01*
X43489839Y-142862295D01*
X43489833Y-142862295D01*
X43213509Y-142862295D01*
X43208641Y-142862104D01*
X43011378Y-142846573D01*
X42992161Y-142843529D01*
X42806894Y-142799047D01*
X42788389Y-142793035D01*
X42612348Y-142720114D01*
X42595011Y-142711280D01*
X42432548Y-142611721D01*
X42416807Y-142600284D01*
X42271920Y-142476537D01*
X42258162Y-142462779D01*
X42134415Y-142317892D01*
X42122978Y-142302151D01*
X42023419Y-142139688D01*
X42014585Y-142122351D01*
X41941661Y-141946303D01*
X41935652Y-141927805D01*
X41891170Y-141742538D01*
X41888125Y-141723321D01*
X41872596Y-141526058D01*
X41872405Y-141521191D01*
X41872405Y-133272516D01*
X41892090Y-133205477D01*
X41944894Y-133159722D01*
X41996405Y-133148516D01*
X43238642Y-133148516D01*
X43238643Y-133148516D01*
X43264835Y-133140825D01*
X43282118Y-133137066D01*
X43286564Y-133136426D01*
X43309139Y-133133181D01*
X43333969Y-133121840D01*
X43350544Y-133115658D01*
X43376735Y-133107969D01*
X43399702Y-133093208D01*
X43415222Y-133084733D01*
X43440055Y-133073393D01*
X43460688Y-133055513D01*
X43474830Y-133044926D01*
X43497810Y-133030159D01*
X43515697Y-133009515D01*
X43528181Y-132997031D01*
X43548825Y-132979144D01*
X43563592Y-132956164D01*
X43574179Y-132942022D01*
X43592059Y-132921389D01*
X43603399Y-132896556D01*
X43611874Y-132881036D01*
X43626635Y-132858069D01*
X43634324Y-132831878D01*
X43640506Y-132815303D01*
X43651847Y-132790473D01*
X43655732Y-132763452D01*
X43659491Y-132746169D01*
X43667182Y-132719977D01*
X43667182Y-132576055D01*
X43667182Y-129936587D01*
X43686867Y-129869548D01*
X43739671Y-129823793D01*
X43808829Y-129813849D01*
X43872385Y-129842874D01*
X43879005Y-129849048D01*
X43954336Y-129924627D01*
X43964420Y-129933722D01*
X43982788Y-129948599D01*
X43990138Y-129954552D01*
X44078160Y-130000917D01*
X44078162Y-130000918D01*
X44145132Y-130020820D01*
X44145139Y-130020821D01*
X44145138Y-130020821D01*
X44217077Y-130031405D01*
X66380550Y-130104073D01*
X66380550Y-130104072D01*
X66380559Y-130104073D01*
X66394359Y-130103372D01*
X66394365Y-130103371D01*
X66394371Y-130103371D01*
X66405524Y-130102197D01*
X66427854Y-130099847D01*
X66428130Y-130099818D01*
X66523300Y-130070139D01*
X66584662Y-130036725D01*
X66642929Y-129993212D01*
X67573930Y-129064381D01*
X67583167Y-129054111D01*
X67604306Y-129027886D01*
X67604479Y-129027672D01*
X67650603Y-128939292D01*
X67670224Y-128872234D01*
X67680505Y-128800242D01*
X67678306Y-126476786D01*
X67685790Y-126434247D01*
X67686747Y-126431617D01*
X67785382Y-126102152D01*
X67785386Y-126102137D01*
X67845104Y-125763455D01*
X67845105Y-125763444D01*
X67865104Y-125420102D01*
X67865104Y-125420095D01*
X67845105Y-125076753D01*
X67845104Y-125076742D01*
X67785386Y-124738060D01*
X67785383Y-124738050D01*
X67686745Y-124408575D01*
X67686447Y-124407884D01*
X67686384Y-124407582D01*
X67685513Y-124405188D01*
X67685862Y-124405060D01*
X67676302Y-124358882D01*
X67673677Y-121583396D01*
X67654228Y-121485862D01*
X67598843Y-121402972D01*
X67598841Y-121402969D01*
X67598840Y-121402968D01*
X66703650Y-120507779D01*
X66670165Y-120446456D01*
X66675149Y-120376765D01*
X66703650Y-120332417D01*
X67596812Y-119439255D01*
X67596814Y-119439253D01*
X67652121Y-119356310D01*
X67671477Y-119258516D01*
X67665809Y-113268110D01*
X67656874Y-113201373D01*
X67656748Y-113200911D01*
X67639889Y-113138848D01*
X67639889Y-113138847D01*
X67634443Y-113123641D01*
X67626361Y-113101072D01*
X67568533Y-113019867D01*
X67568525Y-113019860D01*
X67568523Y-113019857D01*
X67517681Y-112971955D01*
X67517682Y-112971956D01*
X67481880Y-112943802D01*
X67481879Y-112943801D01*
X67389329Y-112906751D01*
X67389326Y-112906750D01*
X67383472Y-112905050D01*
X67384190Y-112902576D01*
X67331894Y-112875975D01*
X67296630Y-112815657D01*
X67295357Y-112761580D01*
X67306615Y-112704984D01*
X67325605Y-112415248D01*
X67306615Y-112125512D01*
X67294432Y-112064264D01*
X67300659Y-111994673D01*
X67343522Y-111939495D01*
X67387420Y-111919423D01*
X67417224Y-111912352D01*
X67503807Y-111862939D01*
X67556568Y-111817134D01*
X67588164Y-111784328D01*
X67634288Y-111695948D01*
X67653909Y-111628890D01*
X67664190Y-111556898D01*
X67663755Y-111097600D01*
X70765802Y-111097600D01*
X70766573Y-111110773D01*
X70766574Y-111110779D01*
X70821636Y-111406944D01*
X70821638Y-111406955D01*
X70915678Y-111693120D01*
X70915683Y-111693132D01*
X71047028Y-111964218D01*
X71047031Y-111964223D01*
X71213341Y-112215388D01*
X71411648Y-112442151D01*
X71638411Y-112640458D01*
X71889576Y-112806768D01*
X71889581Y-112806771D01*
X72160667Y-112938116D01*
X72160679Y-112938121D01*
X72446844Y-113032161D01*
X72446855Y-113032163D01*
X72743024Y-113087226D01*
X72920192Y-113097600D01*
X72981199Y-113097598D01*
X72981200Y-113097598D01*
X72981200Y-111097600D01*
X70765802Y-111097600D01*
X67663755Y-111097600D01*
X67658044Y-105060875D01*
X67668187Y-105011646D01*
X67686741Y-104968634D01*
X67785383Y-104639147D01*
X67785386Y-104639137D01*
X67845104Y-104300455D01*
X67845105Y-104300444D01*
X67865104Y-103957102D01*
X67865104Y-103957095D01*
X67845105Y-103613753D01*
X67845104Y-103613742D01*
X67785386Y-103275060D01*
X67785383Y-103275050D01*
X67686742Y-102945567D01*
X67666093Y-102897697D01*
X67655952Y-102848704D01*
X67653352Y-100100071D01*
X67633903Y-100002537D01*
X67578518Y-99919647D01*
X67578516Y-99919644D01*
X67578515Y-99919643D01*
X66703650Y-99044779D01*
X66670165Y-98983456D01*
X66675149Y-98913765D01*
X66703650Y-98869417D01*
X67576526Y-97996541D01*
X67576528Y-97996539D01*
X67631835Y-97913596D01*
X67651191Y-97815802D01*
X67641308Y-87370472D01*
X67651450Y-87321244D01*
X67686742Y-87239430D01*
X67785383Y-86909947D01*
X67785386Y-86909937D01*
X67845104Y-86571255D01*
X67845105Y-86571244D01*
X67865104Y-86227902D01*
X67865104Y-86227895D01*
X67845105Y-85884553D01*
X67845104Y-85884542D01*
X67785386Y-85545860D01*
X67785383Y-85545850D01*
X67686742Y-85216367D01*
X67649283Y-85129528D01*
X67639142Y-85080536D01*
X67636563Y-82354082D01*
X67617114Y-82256548D01*
X67561729Y-82173658D01*
X67561727Y-82173655D01*
X67561726Y-82173654D01*
X66703650Y-81315579D01*
X66670165Y-81254256D01*
X66675149Y-81184565D01*
X66703650Y-81140217D01*
X67559768Y-80284099D01*
X67559770Y-80284097D01*
X67615077Y-80201154D01*
X67634433Y-80103360D01*
X67628886Y-74240632D01*
X67623804Y-74190167D01*
X67614081Y-74142150D01*
X67608380Y-74119413D01*
X67561646Y-74031354D01*
X67517481Y-73977213D01*
X67517480Y-73977212D01*
X67517476Y-73977207D01*
X67485662Y-73944629D01*
X67398742Y-73895815D01*
X67398740Y-73895814D01*
X67359544Y-73883027D01*
X67301916Y-73843521D01*
X67274794Y-73779130D01*
X67276386Y-73740950D01*
X67306615Y-73588984D01*
X67325605Y-73299248D01*
X67306615Y-73009512D01*
X67276163Y-72856423D01*
X67282390Y-72786834D01*
X67325252Y-72731657D01*
X67369153Y-72711584D01*
X67380135Y-72708979D01*
X67466718Y-72659566D01*
X67519479Y-72613761D01*
X67551075Y-72580955D01*
X67597199Y-72492575D01*
X67616820Y-72425517D01*
X67622696Y-72384368D01*
X67627100Y-72353535D01*
X67627100Y-72353532D01*
X67627101Y-72353525D01*
X67621997Y-66958924D01*
X67632139Y-66909694D01*
X67661541Y-66841531D01*
X67760182Y-66512048D01*
X67760185Y-66512038D01*
X67819903Y-66173356D01*
X67819904Y-66173345D01*
X67839903Y-65830003D01*
X67839903Y-65829996D01*
X67819904Y-65486654D01*
X67819903Y-65486643D01*
X67760185Y-65147961D01*
X67760182Y-65147951D01*
X67661541Y-64818468D01*
X67629997Y-64745343D01*
X67619856Y-64696352D01*
X67617270Y-61962091D01*
X67597821Y-61864557D01*
X67542436Y-61781667D01*
X67542434Y-61781664D01*
X67542433Y-61781663D01*
X66678449Y-60917680D01*
X66644964Y-60856357D01*
X66649948Y-60786666D01*
X66678449Y-60742318D01*
X67540465Y-59880302D01*
X67540467Y-59880300D01*
X67595774Y-59797357D01*
X67615130Y-59699563D01*
X67604612Y-48583337D01*
X67624233Y-48516282D01*
X67676994Y-48470477D01*
X67746143Y-48460468D01*
X67809726Y-48489433D01*
G37*
%TD.AperFunction*%
%TA.AperFunction,Conductor*%
G36*
X78172239Y-107375387D02*
G01*
X78217994Y-107428191D01*
X78229200Y-107479702D01*
X78229200Y-107629335D01*
X78209515Y-107696374D01*
X78156711Y-107742129D01*
X78118457Y-107752624D01*
X78104565Y-107754117D01*
X78101028Y-107754498D01*
X78101027Y-107754498D01*
X78097811Y-107754844D01*
X78091177Y-107755200D01*
X77716850Y-107755200D01*
X77649811Y-107735515D01*
X77604056Y-107682711D01*
X77592850Y-107631200D01*
X77592850Y-107479702D01*
X77612535Y-107412663D01*
X77665339Y-107366908D01*
X77716850Y-107355702D01*
X78105200Y-107355702D01*
X78172239Y-107375387D01*
G37*
%TD.AperFunction*%
%TD*%
M02*
