M48
; DRILL file {KiCad 7.0.8} date Mon Apr 29 16:50:12 2024
; FORMAT={-:-/ absolute / inch / decimal}
; #@! TF.CreationDate,2024-04-29T16:50:12-06:00
; #@! TF.GenerationSoftware,Kicad,Pcbnew,7.0.8
; #@! TF.FileFunction,Plated,1,2,PTH
FMAT,2
INCH
; #@! TA.AperFunction,Plated,PTH,ViaDrill
T1C0.0157
; #@! TA.AperFunction,Plated,PTH,ComponentDrill
T2C0.0340
; #@! TA.AperFunction,Plated,PTH,ComponentDrill
T3C0.0550
%
G90
G05
T1
X2.9007Y-4.4256
T2
X3.4892Y-4.5454
X3.4892Y-4.6831
T3
X2.2316Y-2.3949
X2.2316Y-2.5917
X2.2326Y-3.1979
X2.2326Y-3.3948
X2.2326Y-3.8959
X2.2326Y-4.0928
X2.2326Y-4.7409
X2.2326Y-4.9378
X2.5544Y-2.3949
X2.5544Y-2.5917
X2.5554Y-3.1979
X2.5554Y-3.3948
X2.5554Y-3.8959
X2.5554Y-4.0928
X2.5554Y-4.7409
X2.5554Y-4.9378
X2.5601Y-1.4548
X2.5601Y-1.7776
X2.7569Y-1.4548
X2.7569Y-1.7776
X3.1388Y-1.8682
X3.1388Y-2.065
X3.1428Y-3.1989
X3.1428Y-3.3957
X3.1428Y-5.191
X3.1428Y-5.3879
X3.1428Y-5.817
X3.1428Y-6.0139
X3.4617Y-1.8682
X3.4617Y-2.065
X3.4656Y-3.1989
X3.4656Y-3.3957
X3.4656Y-5.191
X3.4656Y-5.3879
X3.4656Y-5.817
X3.4656Y-6.0139
T0
M30
