%TF.GenerationSoftware,KiCad,Pcbnew,7.0.8*%
%TF.CreationDate,2023-12-07T15:37:41-07:00*%
%TF.ProjectId,GR-LRR-POWER-PCB,47522d4c-5252-42d5-904f-5745522d5043,rev?*%
%TF.SameCoordinates,Original*%
%TF.FileFunction,Legend,Top*%
%TF.FilePolarity,Positive*%
%FSLAX46Y46*%
G04 Gerber Fmt 4.6, Leading zero omitted, Abs format (unit mm)*
G04 Created by KiCad (PCBNEW 7.0.8) date 2023-12-07 15:37:41*
%MOMM*%
%LPD*%
G01*
G04 APERTURE LIST*
%ADD10C,0.300000*%
%ADD11C,0.200000*%
%ADD12C,0.254000*%
%ADD13C,0.100000*%
%ADD14C,0.508000*%
G04 APERTURE END LIST*
D10*
X131276225Y-100395257D02*
X131133368Y-100323828D01*
X131133368Y-100323828D02*
X130919082Y-100323828D01*
X130919082Y-100323828D02*
X130704796Y-100395257D01*
X130704796Y-100395257D02*
X130561939Y-100538114D01*
X130561939Y-100538114D02*
X130490510Y-100680971D01*
X130490510Y-100680971D02*
X130419082Y-100966685D01*
X130419082Y-100966685D02*
X130419082Y-101180971D01*
X130419082Y-101180971D02*
X130490510Y-101466685D01*
X130490510Y-101466685D02*
X130561939Y-101609542D01*
X130561939Y-101609542D02*
X130704796Y-101752400D01*
X130704796Y-101752400D02*
X130919082Y-101823828D01*
X130919082Y-101823828D02*
X131061939Y-101823828D01*
X131061939Y-101823828D02*
X131276225Y-101752400D01*
X131276225Y-101752400D02*
X131347653Y-101680971D01*
X131347653Y-101680971D02*
X131347653Y-101180971D01*
X131347653Y-101180971D02*
X131061939Y-101180971D01*
X132847653Y-101823828D02*
X132347653Y-101109542D01*
X131990510Y-101823828D02*
X131990510Y-100323828D01*
X131990510Y-100323828D02*
X132561939Y-100323828D01*
X132561939Y-100323828D02*
X132704796Y-100395257D01*
X132704796Y-100395257D02*
X132776225Y-100466685D01*
X132776225Y-100466685D02*
X132847653Y-100609542D01*
X132847653Y-100609542D02*
X132847653Y-100823828D01*
X132847653Y-100823828D02*
X132776225Y-100966685D01*
X132776225Y-100966685D02*
X132704796Y-101038114D01*
X132704796Y-101038114D02*
X132561939Y-101109542D01*
X132561939Y-101109542D02*
X131990510Y-101109542D01*
X133490510Y-101252400D02*
X134633368Y-101252400D01*
X136061939Y-101823828D02*
X135347653Y-101823828D01*
X135347653Y-101823828D02*
X135347653Y-100323828D01*
X137419082Y-101823828D02*
X136919082Y-101109542D01*
X136561939Y-101823828D02*
X136561939Y-100323828D01*
X136561939Y-100323828D02*
X137133368Y-100323828D01*
X137133368Y-100323828D02*
X137276225Y-100395257D01*
X137276225Y-100395257D02*
X137347654Y-100466685D01*
X137347654Y-100466685D02*
X137419082Y-100609542D01*
X137419082Y-100609542D02*
X137419082Y-100823828D01*
X137419082Y-100823828D02*
X137347654Y-100966685D01*
X137347654Y-100966685D02*
X137276225Y-101038114D01*
X137276225Y-101038114D02*
X137133368Y-101109542D01*
X137133368Y-101109542D02*
X136561939Y-101109542D01*
X138919082Y-101823828D02*
X138419082Y-101109542D01*
X138061939Y-101823828D02*
X138061939Y-100323828D01*
X138061939Y-100323828D02*
X138633368Y-100323828D01*
X138633368Y-100323828D02*
X138776225Y-100395257D01*
X138776225Y-100395257D02*
X138847654Y-100466685D01*
X138847654Y-100466685D02*
X138919082Y-100609542D01*
X138919082Y-100609542D02*
X138919082Y-100823828D01*
X138919082Y-100823828D02*
X138847654Y-100966685D01*
X138847654Y-100966685D02*
X138776225Y-101038114D01*
X138776225Y-101038114D02*
X138633368Y-101109542D01*
X138633368Y-101109542D02*
X138061939Y-101109542D01*
X139561939Y-101252400D02*
X140704797Y-101252400D01*
X141419082Y-101823828D02*
X141419082Y-100323828D01*
X141419082Y-100323828D02*
X141990511Y-100323828D01*
X141990511Y-100323828D02*
X142133368Y-100395257D01*
X142133368Y-100395257D02*
X142204797Y-100466685D01*
X142204797Y-100466685D02*
X142276225Y-100609542D01*
X142276225Y-100609542D02*
X142276225Y-100823828D01*
X142276225Y-100823828D02*
X142204797Y-100966685D01*
X142204797Y-100966685D02*
X142133368Y-101038114D01*
X142133368Y-101038114D02*
X141990511Y-101109542D01*
X141990511Y-101109542D02*
X141419082Y-101109542D01*
X143204797Y-100323828D02*
X143490511Y-100323828D01*
X143490511Y-100323828D02*
X143633368Y-100395257D01*
X143633368Y-100395257D02*
X143776225Y-100538114D01*
X143776225Y-100538114D02*
X143847654Y-100823828D01*
X143847654Y-100823828D02*
X143847654Y-101323828D01*
X143847654Y-101323828D02*
X143776225Y-101609542D01*
X143776225Y-101609542D02*
X143633368Y-101752400D01*
X143633368Y-101752400D02*
X143490511Y-101823828D01*
X143490511Y-101823828D02*
X143204797Y-101823828D01*
X143204797Y-101823828D02*
X143061940Y-101752400D01*
X143061940Y-101752400D02*
X142919082Y-101609542D01*
X142919082Y-101609542D02*
X142847654Y-101323828D01*
X142847654Y-101323828D02*
X142847654Y-100823828D01*
X142847654Y-100823828D02*
X142919082Y-100538114D01*
X142919082Y-100538114D02*
X143061940Y-100395257D01*
X143061940Y-100395257D02*
X143204797Y-100323828D01*
X144347654Y-100323828D02*
X144704797Y-101823828D01*
X144704797Y-101823828D02*
X144990511Y-100752400D01*
X144990511Y-100752400D02*
X145276226Y-101823828D01*
X145276226Y-101823828D02*
X145633369Y-100323828D01*
X146204797Y-101038114D02*
X146704797Y-101038114D01*
X146919083Y-101823828D02*
X146204797Y-101823828D01*
X146204797Y-101823828D02*
X146204797Y-100323828D01*
X146204797Y-100323828D02*
X146919083Y-100323828D01*
X148419083Y-101823828D02*
X147919083Y-101109542D01*
X147561940Y-101823828D02*
X147561940Y-100323828D01*
X147561940Y-100323828D02*
X148133369Y-100323828D01*
X148133369Y-100323828D02*
X148276226Y-100395257D01*
X148276226Y-100395257D02*
X148347655Y-100466685D01*
X148347655Y-100466685D02*
X148419083Y-100609542D01*
X148419083Y-100609542D02*
X148419083Y-100823828D01*
X148419083Y-100823828D02*
X148347655Y-100966685D01*
X148347655Y-100966685D02*
X148276226Y-101038114D01*
X148276226Y-101038114D02*
X148133369Y-101109542D01*
X148133369Y-101109542D02*
X147561940Y-101109542D01*
X149061940Y-101252400D02*
X150204798Y-101252400D01*
X150847655Y-101395257D02*
X151561941Y-101395257D01*
X150704798Y-101823828D02*
X151204798Y-100323828D01*
X151204798Y-100323828D02*
X151704798Y-101823828D01*
X152990512Y-101823828D02*
X152133369Y-101823828D01*
X152561940Y-101823828D02*
X152561940Y-100323828D01*
X152561940Y-100323828D02*
X152419083Y-100538114D01*
X152419083Y-100538114D02*
X152276226Y-100680971D01*
X152276226Y-100680971D02*
X152133369Y-100752400D01*
X131276225Y-104238828D02*
X130419082Y-104238828D01*
X130847653Y-104238828D02*
X130847653Y-102738828D01*
X130847653Y-102738828D02*
X130704796Y-102953114D01*
X130704796Y-102953114D02*
X130561939Y-103095971D01*
X130561939Y-103095971D02*
X130419082Y-103167400D01*
X131847653Y-102881685D02*
X131919081Y-102810257D01*
X131919081Y-102810257D02*
X132061939Y-102738828D01*
X132061939Y-102738828D02*
X132419081Y-102738828D01*
X132419081Y-102738828D02*
X132561939Y-102810257D01*
X132561939Y-102810257D02*
X132633367Y-102881685D01*
X132633367Y-102881685D02*
X132704796Y-103024542D01*
X132704796Y-103024542D02*
X132704796Y-103167400D01*
X132704796Y-103167400D02*
X132633367Y-103381685D01*
X132633367Y-103381685D02*
X131776224Y-104238828D01*
X131776224Y-104238828D02*
X132704796Y-104238828D01*
X133633367Y-102738828D02*
X133776224Y-102738828D01*
X133776224Y-102738828D02*
X133919081Y-102810257D01*
X133919081Y-102810257D02*
X133990510Y-102881685D01*
X133990510Y-102881685D02*
X134061938Y-103024542D01*
X134061938Y-103024542D02*
X134133367Y-103310257D01*
X134133367Y-103310257D02*
X134133367Y-103667400D01*
X134133367Y-103667400D02*
X134061938Y-103953114D01*
X134061938Y-103953114D02*
X133990510Y-104095971D01*
X133990510Y-104095971D02*
X133919081Y-104167400D01*
X133919081Y-104167400D02*
X133776224Y-104238828D01*
X133776224Y-104238828D02*
X133633367Y-104238828D01*
X133633367Y-104238828D02*
X133490510Y-104167400D01*
X133490510Y-104167400D02*
X133419081Y-104095971D01*
X133419081Y-104095971D02*
X133347652Y-103953114D01*
X133347652Y-103953114D02*
X133276224Y-103667400D01*
X133276224Y-103667400D02*
X133276224Y-103310257D01*
X133276224Y-103310257D02*
X133347652Y-103024542D01*
X133347652Y-103024542D02*
X133419081Y-102881685D01*
X133419081Y-102881685D02*
X133490510Y-102810257D01*
X133490510Y-102810257D02*
X133633367Y-102738828D01*
X134633366Y-102738828D02*
X135633366Y-102738828D01*
X135633366Y-102738828D02*
X134990509Y-104238828D01*
X136133366Y-102881685D02*
X136204794Y-102810257D01*
X136204794Y-102810257D02*
X136347652Y-102738828D01*
X136347652Y-102738828D02*
X136704794Y-102738828D01*
X136704794Y-102738828D02*
X136847652Y-102810257D01*
X136847652Y-102810257D02*
X136919080Y-102881685D01*
X136919080Y-102881685D02*
X136990509Y-103024542D01*
X136990509Y-103024542D02*
X136990509Y-103167400D01*
X136990509Y-103167400D02*
X136919080Y-103381685D01*
X136919080Y-103381685D02*
X136061937Y-104238828D01*
X136061937Y-104238828D02*
X136990509Y-104238828D01*
X137919080Y-102738828D02*
X138061937Y-102738828D01*
X138061937Y-102738828D02*
X138204794Y-102810257D01*
X138204794Y-102810257D02*
X138276223Y-102881685D01*
X138276223Y-102881685D02*
X138347651Y-103024542D01*
X138347651Y-103024542D02*
X138419080Y-103310257D01*
X138419080Y-103310257D02*
X138419080Y-103667400D01*
X138419080Y-103667400D02*
X138347651Y-103953114D01*
X138347651Y-103953114D02*
X138276223Y-104095971D01*
X138276223Y-104095971D02*
X138204794Y-104167400D01*
X138204794Y-104167400D02*
X138061937Y-104238828D01*
X138061937Y-104238828D02*
X137919080Y-104238828D01*
X137919080Y-104238828D02*
X137776223Y-104167400D01*
X137776223Y-104167400D02*
X137704794Y-104095971D01*
X137704794Y-104095971D02*
X137633365Y-103953114D01*
X137633365Y-103953114D02*
X137561937Y-103667400D01*
X137561937Y-103667400D02*
X137561937Y-103310257D01*
X137561937Y-103310257D02*
X137633365Y-103024542D01*
X137633365Y-103024542D02*
X137704794Y-102881685D01*
X137704794Y-102881685D02*
X137776223Y-102810257D01*
X137776223Y-102810257D02*
X137919080Y-102738828D01*
X138990508Y-102881685D02*
X139061936Y-102810257D01*
X139061936Y-102810257D02*
X139204794Y-102738828D01*
X139204794Y-102738828D02*
X139561936Y-102738828D01*
X139561936Y-102738828D02*
X139704794Y-102810257D01*
X139704794Y-102810257D02*
X139776222Y-102881685D01*
X139776222Y-102881685D02*
X139847651Y-103024542D01*
X139847651Y-103024542D02*
X139847651Y-103167400D01*
X139847651Y-103167400D02*
X139776222Y-103381685D01*
X139776222Y-103381685D02*
X138919079Y-104238828D01*
X138919079Y-104238828D02*
X139847651Y-104238828D01*
X140347650Y-102738828D02*
X141276222Y-102738828D01*
X141276222Y-102738828D02*
X140776222Y-103310257D01*
X140776222Y-103310257D02*
X140990507Y-103310257D01*
X140990507Y-103310257D02*
X141133365Y-103381685D01*
X141133365Y-103381685D02*
X141204793Y-103453114D01*
X141204793Y-103453114D02*
X141276222Y-103595971D01*
X141276222Y-103595971D02*
X141276222Y-103953114D01*
X141276222Y-103953114D02*
X141204793Y-104095971D01*
X141204793Y-104095971D02*
X141133365Y-104167400D01*
X141133365Y-104167400D02*
X140990507Y-104238828D01*
X140990507Y-104238828D02*
X140561936Y-104238828D01*
X140561936Y-104238828D02*
X140419079Y-104167400D01*
X140419079Y-104167400D02*
X140347650Y-104095971D01*
D11*
X161940000Y-109518000D02*
G75*
G03*
X161940000Y-109518000I-3000000J0D01*
G01*
X28526000Y-25952000D02*
G75*
G03*
X28526000Y-25952000I-4000000J0D01*
G01*
X161940000Y-25952000D02*
G75*
G03*
X161940000Y-25952000I-3000000J0D01*
G01*
X27574000Y-109518000D02*
G75*
G03*
X27574000Y-109518000I-3000000J0D01*
G01*
D10*
X40813114Y-87381489D02*
X40884542Y-87167203D01*
X40884542Y-87167203D02*
X40955971Y-87095774D01*
X40955971Y-87095774D02*
X41098828Y-87024346D01*
X41098828Y-87024346D02*
X41313114Y-87024346D01*
X41313114Y-87024346D02*
X41455971Y-87095774D01*
X41455971Y-87095774D02*
X41527400Y-87167203D01*
X41527400Y-87167203D02*
X41598828Y-87310060D01*
X41598828Y-87310060D02*
X41598828Y-87881489D01*
X41598828Y-87881489D02*
X40098828Y-87881489D01*
X40098828Y-87881489D02*
X40098828Y-87381489D01*
X40098828Y-87381489D02*
X40170257Y-87238632D01*
X40170257Y-87238632D02*
X40241685Y-87167203D01*
X40241685Y-87167203D02*
X40384542Y-87095774D01*
X40384542Y-87095774D02*
X40527400Y-87095774D01*
X40527400Y-87095774D02*
X40670257Y-87167203D01*
X40670257Y-87167203D02*
X40741685Y-87238632D01*
X40741685Y-87238632D02*
X40813114Y-87381489D01*
X40813114Y-87381489D02*
X40813114Y-87881489D01*
X41170257Y-86452917D02*
X41170257Y-85738632D01*
X41598828Y-86595774D02*
X40098828Y-86095774D01*
X40098828Y-86095774D02*
X41598828Y-85595774D01*
X40098828Y-85310060D02*
X40098828Y-84452918D01*
X41598828Y-84881489D02*
X40098828Y-84881489D01*
X40098828Y-84167203D02*
X40098828Y-83310061D01*
X41598828Y-83738632D02*
X40098828Y-83738632D01*
X41027400Y-82810061D02*
X41027400Y-81667204D01*
X41598828Y-82238632D02*
X40455971Y-82238632D01*
X40813114Y-100081489D02*
X40884542Y-99867203D01*
X40884542Y-99867203D02*
X40955971Y-99795774D01*
X40955971Y-99795774D02*
X41098828Y-99724346D01*
X41098828Y-99724346D02*
X41313114Y-99724346D01*
X41313114Y-99724346D02*
X41455971Y-99795774D01*
X41455971Y-99795774D02*
X41527400Y-99867203D01*
X41527400Y-99867203D02*
X41598828Y-100010060D01*
X41598828Y-100010060D02*
X41598828Y-100581489D01*
X41598828Y-100581489D02*
X40098828Y-100581489D01*
X40098828Y-100581489D02*
X40098828Y-100081489D01*
X40098828Y-100081489D02*
X40170257Y-99938632D01*
X40170257Y-99938632D02*
X40241685Y-99867203D01*
X40241685Y-99867203D02*
X40384542Y-99795774D01*
X40384542Y-99795774D02*
X40527400Y-99795774D01*
X40527400Y-99795774D02*
X40670257Y-99867203D01*
X40670257Y-99867203D02*
X40741685Y-99938632D01*
X40741685Y-99938632D02*
X40813114Y-100081489D01*
X40813114Y-100081489D02*
X40813114Y-100581489D01*
X41170257Y-99152917D02*
X41170257Y-98438632D01*
X41598828Y-99295774D02*
X40098828Y-98795774D01*
X40098828Y-98795774D02*
X41598828Y-98295774D01*
X40098828Y-98010060D02*
X40098828Y-97152918D01*
X41598828Y-97581489D02*
X40098828Y-97581489D01*
X40098828Y-96867203D02*
X40098828Y-96010061D01*
X41598828Y-96438632D02*
X40098828Y-96438632D01*
X41027400Y-95510061D02*
X41027400Y-94367204D01*
X41852828Y-74419489D02*
X40352828Y-74419489D01*
X40352828Y-74419489D02*
X40352828Y-73848060D01*
X40352828Y-73848060D02*
X40424257Y-73705203D01*
X40424257Y-73705203D02*
X40495685Y-73633774D01*
X40495685Y-73633774D02*
X40638542Y-73562346D01*
X40638542Y-73562346D02*
X40852828Y-73562346D01*
X40852828Y-73562346D02*
X40995685Y-73633774D01*
X40995685Y-73633774D02*
X41067114Y-73705203D01*
X41067114Y-73705203D02*
X41138542Y-73848060D01*
X41138542Y-73848060D02*
X41138542Y-74419489D01*
X40352828Y-72633774D02*
X40352828Y-72348060D01*
X40352828Y-72348060D02*
X40424257Y-72205203D01*
X40424257Y-72205203D02*
X40567114Y-72062346D01*
X40567114Y-72062346D02*
X40852828Y-71990917D01*
X40852828Y-71990917D02*
X41352828Y-71990917D01*
X41352828Y-71990917D02*
X41638542Y-72062346D01*
X41638542Y-72062346D02*
X41781400Y-72205203D01*
X41781400Y-72205203D02*
X41852828Y-72348060D01*
X41852828Y-72348060D02*
X41852828Y-72633774D01*
X41852828Y-72633774D02*
X41781400Y-72776632D01*
X41781400Y-72776632D02*
X41638542Y-72919489D01*
X41638542Y-72919489D02*
X41352828Y-72990917D01*
X41352828Y-72990917D02*
X40852828Y-72990917D01*
X40852828Y-72990917D02*
X40567114Y-72919489D01*
X40567114Y-72919489D02*
X40424257Y-72776632D01*
X40424257Y-72776632D02*
X40352828Y-72633774D01*
X40352828Y-71490917D02*
X41852828Y-71133774D01*
X41852828Y-71133774D02*
X40781400Y-70848060D01*
X40781400Y-70848060D02*
X41852828Y-70562345D01*
X41852828Y-70562345D02*
X40352828Y-70205203D01*
X41781400Y-68562345D02*
X41852828Y-68348060D01*
X41852828Y-68348060D02*
X41852828Y-67990917D01*
X41852828Y-67990917D02*
X41781400Y-67848060D01*
X41781400Y-67848060D02*
X41709971Y-67776631D01*
X41709971Y-67776631D02*
X41567114Y-67705202D01*
X41567114Y-67705202D02*
X41424257Y-67705202D01*
X41424257Y-67705202D02*
X41281400Y-67776631D01*
X41281400Y-67776631D02*
X41209971Y-67848060D01*
X41209971Y-67848060D02*
X41138542Y-67990917D01*
X41138542Y-67990917D02*
X41067114Y-68276631D01*
X41067114Y-68276631D02*
X40995685Y-68419488D01*
X40995685Y-68419488D02*
X40924257Y-68490917D01*
X40924257Y-68490917D02*
X40781400Y-68562345D01*
X40781400Y-68562345D02*
X40638542Y-68562345D01*
X40638542Y-68562345D02*
X40495685Y-68490917D01*
X40495685Y-68490917D02*
X40424257Y-68419488D01*
X40424257Y-68419488D02*
X40352828Y-68276631D01*
X40352828Y-68276631D02*
X40352828Y-67919488D01*
X40352828Y-67919488D02*
X40424257Y-67705202D01*
X40352828Y-67205203D02*
X41852828Y-66848060D01*
X41852828Y-66848060D02*
X40781400Y-66562346D01*
X40781400Y-66562346D02*
X41852828Y-66276631D01*
X41852828Y-66276631D02*
X40352828Y-65919489D01*
D12*
X148800318Y-29439332D02*
X149707461Y-29439332D01*
X149707461Y-29439332D02*
X149888889Y-29499809D01*
X149888889Y-29499809D02*
X150009842Y-29620761D01*
X150009842Y-29620761D02*
X150070318Y-29802190D01*
X150070318Y-29802190D02*
X150070318Y-29923142D01*
X148800318Y-28229809D02*
X148800318Y-28834571D01*
X148800318Y-28834571D02*
X149405080Y-28895047D01*
X149405080Y-28895047D02*
X149344603Y-28834571D01*
X149344603Y-28834571D02*
X149284127Y-28713618D01*
X149284127Y-28713618D02*
X149284127Y-28411237D01*
X149284127Y-28411237D02*
X149344603Y-28290285D01*
X149344603Y-28290285D02*
X149405080Y-28229809D01*
X149405080Y-28229809D02*
X149526032Y-28169332D01*
X149526032Y-28169332D02*
X149828413Y-28169332D01*
X149828413Y-28169332D02*
X149949365Y-28229809D01*
X149949365Y-28229809D02*
X150009842Y-28290285D01*
X150009842Y-28290285D02*
X150070318Y-28411237D01*
X150070318Y-28411237D02*
X150070318Y-28713618D01*
X150070318Y-28713618D02*
X150009842Y-28834571D01*
X150009842Y-28834571D02*
X149949365Y-28895047D01*
X148800318Y-61439332D02*
X149707461Y-61439332D01*
X149707461Y-61439332D02*
X149888889Y-61499809D01*
X149888889Y-61499809D02*
X150009842Y-61620761D01*
X150009842Y-61620761D02*
X150070318Y-61802190D01*
X150070318Y-61802190D02*
X150070318Y-61923142D01*
X149223651Y-60290285D02*
X150070318Y-60290285D01*
X148739842Y-60592666D02*
X149646984Y-60895047D01*
X149646984Y-60895047D02*
X149646984Y-60108856D01*
D11*
%TO.C,J5*%
X154226000Y-58762000D02*
X150526000Y-58757000D01*
X157826000Y-58762000D02*
X161526000Y-58762000D01*
X161526000Y-58762000D02*
X161526000Y-30577000D01*
X150526000Y-58757000D02*
X150526000Y-30577000D01*
D13*
X150026000Y-38952000D02*
X150026000Y-38952000D01*
X150126000Y-38952000D02*
X150126000Y-38952000D01*
D11*
X150526000Y-30577000D02*
X154026000Y-30577000D01*
X154026000Y-30577000D02*
X154226000Y-30577000D01*
X161526000Y-30577000D02*
X157626000Y-30577000D01*
D13*
X150126000Y-38952000D02*
G75*
G03*
X150026000Y-38952000I-50000J0D01*
G01*
X150026000Y-38952000D02*
G75*
G03*
X150126000Y-38952000I50000J0D01*
G01*
D11*
%TO.C,J4*%
X154226000Y-90762000D02*
X150526000Y-90757000D01*
X157826000Y-90762000D02*
X161526000Y-90762000D01*
X161526000Y-90762000D02*
X161526000Y-62577000D01*
X150526000Y-90757000D02*
X150526000Y-62577000D01*
D13*
X150026000Y-70952000D02*
X150026000Y-70952000D01*
X150126000Y-70952000D02*
X150126000Y-70952000D01*
D11*
X150526000Y-62577000D02*
X154026000Y-62577000D01*
X154026000Y-62577000D02*
X154226000Y-62577000D01*
X161526000Y-62577000D02*
X157626000Y-62577000D01*
D13*
X150126000Y-70952000D02*
G75*
G03*
X150026000Y-70952000I-50000J0D01*
G01*
X150026000Y-70952000D02*
G75*
G03*
X150126000Y-70952000I50000J0D01*
G01*
D14*
%TO.C,J1*%
X36662999Y-93646599D02*
G75*
G03*
X36662999Y-93646599I-381000J0D01*
G01*
%TO.C,J3*%
X36662999Y-79890599D02*
G75*
G03*
X36662999Y-79890599I-381000J0D01*
G01*
%TO.C,J2*%
X36662999Y-107402599D02*
G75*
G03*
X36662999Y-107402599I-381000J0D01*
G01*
%TD*%
M02*
