%TF.GenerationSoftware,KiCad,Pcbnew,7.0.8*%
%TF.CreationDate,2024-04-29T16:46:21-06:00*%
%TF.ProjectId,GR-LRR-POWER-PCB-LOW-VOLTAGE,47522d4c-5252-42d5-904f-5745522d5043,rev?*%
%TF.SameCoordinates,Original*%
%TF.FileFunction,Legend,Top*%
%TF.FilePolarity,Positive*%
%FSLAX46Y46*%
G04 Gerber Fmt 4.6, Leading zero omitted, Abs format (unit mm)*
G04 Created by KiCad (PCBNEW 7.0.8) date 2024-04-29 16:46:21*
%MOMM*%
%LPD*%
G01*
G04 APERTURE LIST*
%ADD10C,0.200000*%
%ADD11C,0.300000*%
%ADD12C,0.150000*%
%ADD13C,0.254000*%
%ADD14C,0.152400*%
%ADD15C,0.100000*%
%ADD16C,0.508000*%
%ADD17C,0.120000*%
%ADD18C,0.127000*%
G04 APERTURE END LIST*
D10*
X238752400Y-112616800D02*
G75*
G03*
X238752400Y-112616800I-3000000J0D01*
G01*
X116527600Y-110965800D02*
G75*
G03*
X116527600Y-110965800I-3000000J0D01*
G01*
D11*
X253668742Y-111292225D02*
X253740171Y-111149368D01*
X253740171Y-111149368D02*
X253740171Y-110935082D01*
X253740171Y-110935082D02*
X253668742Y-110720796D01*
X253668742Y-110720796D02*
X253525885Y-110577939D01*
X253525885Y-110577939D02*
X253383028Y-110506510D01*
X253383028Y-110506510D02*
X253097314Y-110435082D01*
X253097314Y-110435082D02*
X252883028Y-110435082D01*
X252883028Y-110435082D02*
X252597314Y-110506510D01*
X252597314Y-110506510D02*
X252454457Y-110577939D01*
X252454457Y-110577939D02*
X252311600Y-110720796D01*
X252311600Y-110720796D02*
X252240171Y-110935082D01*
X252240171Y-110935082D02*
X252240171Y-111077939D01*
X252240171Y-111077939D02*
X252311600Y-111292225D01*
X252311600Y-111292225D02*
X252383028Y-111363653D01*
X252383028Y-111363653D02*
X252883028Y-111363653D01*
X252883028Y-111363653D02*
X252883028Y-111077939D01*
X252240171Y-112863653D02*
X252954457Y-112363653D01*
X252240171Y-112006510D02*
X253740171Y-112006510D01*
X253740171Y-112006510D02*
X253740171Y-112577939D01*
X253740171Y-112577939D02*
X253668742Y-112720796D01*
X253668742Y-112720796D02*
X253597314Y-112792225D01*
X253597314Y-112792225D02*
X253454457Y-112863653D01*
X253454457Y-112863653D02*
X253240171Y-112863653D01*
X253240171Y-112863653D02*
X253097314Y-112792225D01*
X253097314Y-112792225D02*
X253025885Y-112720796D01*
X253025885Y-112720796D02*
X252954457Y-112577939D01*
X252954457Y-112577939D02*
X252954457Y-112006510D01*
X252811600Y-113506510D02*
X252811600Y-114649368D01*
X252240171Y-116077939D02*
X252240171Y-115363653D01*
X252240171Y-115363653D02*
X253740171Y-115363653D01*
X252240171Y-117292225D02*
X252240171Y-116577939D01*
X252240171Y-116577939D02*
X253740171Y-116577939D01*
X252240171Y-118649368D02*
X252954457Y-118149368D01*
X252240171Y-117792225D02*
X253740171Y-117792225D01*
X253740171Y-117792225D02*
X253740171Y-118363654D01*
X253740171Y-118363654D02*
X253668742Y-118506511D01*
X253668742Y-118506511D02*
X253597314Y-118577940D01*
X253597314Y-118577940D02*
X253454457Y-118649368D01*
X253454457Y-118649368D02*
X253240171Y-118649368D01*
X253240171Y-118649368D02*
X253097314Y-118577940D01*
X253097314Y-118577940D02*
X253025885Y-118506511D01*
X253025885Y-118506511D02*
X252954457Y-118363654D01*
X252954457Y-118363654D02*
X252954457Y-117792225D01*
X252811600Y-119292225D02*
X252811600Y-120435083D01*
X252240171Y-121149368D02*
X253740171Y-121149368D01*
X253740171Y-121149368D02*
X253740171Y-121720797D01*
X253740171Y-121720797D02*
X253668742Y-121863654D01*
X253668742Y-121863654D02*
X253597314Y-121935083D01*
X253597314Y-121935083D02*
X253454457Y-122006511D01*
X253454457Y-122006511D02*
X253240171Y-122006511D01*
X253240171Y-122006511D02*
X253097314Y-121935083D01*
X253097314Y-121935083D02*
X253025885Y-121863654D01*
X253025885Y-121863654D02*
X252954457Y-121720797D01*
X252954457Y-121720797D02*
X252954457Y-121149368D01*
X253740171Y-122935083D02*
X253740171Y-123220797D01*
X253740171Y-123220797D02*
X253668742Y-123363654D01*
X253668742Y-123363654D02*
X253525885Y-123506511D01*
X253525885Y-123506511D02*
X253240171Y-123577940D01*
X253240171Y-123577940D02*
X252740171Y-123577940D01*
X252740171Y-123577940D02*
X252454457Y-123506511D01*
X252454457Y-123506511D02*
X252311600Y-123363654D01*
X252311600Y-123363654D02*
X252240171Y-123220797D01*
X252240171Y-123220797D02*
X252240171Y-122935083D01*
X252240171Y-122935083D02*
X252311600Y-122792226D01*
X252311600Y-122792226D02*
X252454457Y-122649368D01*
X252454457Y-122649368D02*
X252740171Y-122577940D01*
X252740171Y-122577940D02*
X253240171Y-122577940D01*
X253240171Y-122577940D02*
X253525885Y-122649368D01*
X253525885Y-122649368D02*
X253668742Y-122792226D01*
X253668742Y-122792226D02*
X253740171Y-122935083D01*
X253740171Y-124077940D02*
X252240171Y-124435083D01*
X252240171Y-124435083D02*
X253311600Y-124720797D01*
X253311600Y-124720797D02*
X252240171Y-125006512D01*
X252240171Y-125006512D02*
X253740171Y-125363655D01*
X253025885Y-125935083D02*
X253025885Y-126435083D01*
X252240171Y-126649369D02*
X252240171Y-125935083D01*
X252240171Y-125935083D02*
X253740171Y-125935083D01*
X253740171Y-125935083D02*
X253740171Y-126649369D01*
X252240171Y-128149369D02*
X252954457Y-127649369D01*
X252240171Y-127292226D02*
X253740171Y-127292226D01*
X253740171Y-127292226D02*
X253740171Y-127863655D01*
X253740171Y-127863655D02*
X253668742Y-128006512D01*
X253668742Y-128006512D02*
X253597314Y-128077941D01*
X253597314Y-128077941D02*
X253454457Y-128149369D01*
X253454457Y-128149369D02*
X253240171Y-128149369D01*
X253240171Y-128149369D02*
X253097314Y-128077941D01*
X253097314Y-128077941D02*
X253025885Y-128006512D01*
X253025885Y-128006512D02*
X252954457Y-127863655D01*
X252954457Y-127863655D02*
X252954457Y-127292226D01*
X252811600Y-128792226D02*
X252811600Y-129935084D01*
X253740171Y-131363655D02*
X253740171Y-130649369D01*
X253740171Y-130649369D02*
X253025885Y-130577941D01*
X253025885Y-130577941D02*
X253097314Y-130649369D01*
X253097314Y-130649369D02*
X253168742Y-130792227D01*
X253168742Y-130792227D02*
X253168742Y-131149369D01*
X253168742Y-131149369D02*
X253097314Y-131292227D01*
X253097314Y-131292227D02*
X253025885Y-131363655D01*
X253025885Y-131363655D02*
X252883028Y-131435084D01*
X252883028Y-131435084D02*
X252525885Y-131435084D01*
X252525885Y-131435084D02*
X252383028Y-131363655D01*
X252383028Y-131363655D02*
X252311600Y-131292227D01*
X252311600Y-131292227D02*
X252240171Y-131149369D01*
X252240171Y-131149369D02*
X252240171Y-130792227D01*
X252240171Y-130792227D02*
X252311600Y-130649369D01*
X252311600Y-130649369D02*
X252383028Y-130577941D01*
X253740171Y-131863655D02*
X252240171Y-132363655D01*
X252240171Y-132363655D02*
X253740171Y-132863655D01*
X253811600Y-134435083D02*
X251883028Y-133149369D01*
X253740171Y-134792226D02*
X253740171Y-135720798D01*
X253740171Y-135720798D02*
X253168742Y-135220798D01*
X253168742Y-135220798D02*
X253168742Y-135435083D01*
X253168742Y-135435083D02*
X253097314Y-135577941D01*
X253097314Y-135577941D02*
X253025885Y-135649369D01*
X253025885Y-135649369D02*
X252883028Y-135720798D01*
X252883028Y-135720798D02*
X252525885Y-135720798D01*
X252525885Y-135720798D02*
X252383028Y-135649369D01*
X252383028Y-135649369D02*
X252311600Y-135577941D01*
X252311600Y-135577941D02*
X252240171Y-135435083D01*
X252240171Y-135435083D02*
X252240171Y-135006512D01*
X252240171Y-135006512D02*
X252311600Y-134863655D01*
X252311600Y-134863655D02*
X252383028Y-134792226D01*
X252383028Y-136363654D02*
X252311600Y-136435083D01*
X252311600Y-136435083D02*
X252240171Y-136363654D01*
X252240171Y-136363654D02*
X252311600Y-136292226D01*
X252311600Y-136292226D02*
X252383028Y-136363654D01*
X252383028Y-136363654D02*
X252240171Y-136363654D01*
X253740171Y-136935083D02*
X253740171Y-137863655D01*
X253740171Y-137863655D02*
X253168742Y-137363655D01*
X253168742Y-137363655D02*
X253168742Y-137577940D01*
X253168742Y-137577940D02*
X253097314Y-137720798D01*
X253097314Y-137720798D02*
X253025885Y-137792226D01*
X253025885Y-137792226D02*
X252883028Y-137863655D01*
X252883028Y-137863655D02*
X252525885Y-137863655D01*
X252525885Y-137863655D02*
X252383028Y-137792226D01*
X252383028Y-137792226D02*
X252311600Y-137720798D01*
X252311600Y-137720798D02*
X252240171Y-137577940D01*
X252240171Y-137577940D02*
X252240171Y-137149369D01*
X252240171Y-137149369D02*
X252311600Y-137006512D01*
X252311600Y-137006512D02*
X252383028Y-136935083D01*
X253740171Y-138292226D02*
X252240171Y-138792226D01*
X252240171Y-138792226D02*
X253740171Y-139292226D01*
X252811600Y-139792225D02*
X252811600Y-140935083D01*
X249825171Y-110506510D02*
X251325171Y-110506510D01*
X251325171Y-110506510D02*
X251325171Y-111077939D01*
X251325171Y-111077939D02*
X251253742Y-111220796D01*
X251253742Y-111220796D02*
X251182314Y-111292225D01*
X251182314Y-111292225D02*
X251039457Y-111363653D01*
X251039457Y-111363653D02*
X250825171Y-111363653D01*
X250825171Y-111363653D02*
X250682314Y-111292225D01*
X250682314Y-111292225D02*
X250610885Y-111220796D01*
X250610885Y-111220796D02*
X250539457Y-111077939D01*
X250539457Y-111077939D02*
X250539457Y-110506510D01*
X249968028Y-112863653D02*
X249896600Y-112792225D01*
X249896600Y-112792225D02*
X249825171Y-112577939D01*
X249825171Y-112577939D02*
X249825171Y-112435082D01*
X249825171Y-112435082D02*
X249896600Y-112220796D01*
X249896600Y-112220796D02*
X250039457Y-112077939D01*
X250039457Y-112077939D02*
X250182314Y-112006510D01*
X250182314Y-112006510D02*
X250468028Y-111935082D01*
X250468028Y-111935082D02*
X250682314Y-111935082D01*
X250682314Y-111935082D02*
X250968028Y-112006510D01*
X250968028Y-112006510D02*
X251110885Y-112077939D01*
X251110885Y-112077939D02*
X251253742Y-112220796D01*
X251253742Y-112220796D02*
X251325171Y-112435082D01*
X251325171Y-112435082D02*
X251325171Y-112577939D01*
X251325171Y-112577939D02*
X251253742Y-112792225D01*
X251253742Y-112792225D02*
X251182314Y-112863653D01*
X250610885Y-114006510D02*
X250539457Y-114220796D01*
X250539457Y-114220796D02*
X250468028Y-114292225D01*
X250468028Y-114292225D02*
X250325171Y-114363653D01*
X250325171Y-114363653D02*
X250110885Y-114363653D01*
X250110885Y-114363653D02*
X249968028Y-114292225D01*
X249968028Y-114292225D02*
X249896600Y-114220796D01*
X249896600Y-114220796D02*
X249825171Y-114077939D01*
X249825171Y-114077939D02*
X249825171Y-113506510D01*
X249825171Y-113506510D02*
X251325171Y-113506510D01*
X251325171Y-113506510D02*
X251325171Y-114006510D01*
X251325171Y-114006510D02*
X251253742Y-114149368D01*
X251253742Y-114149368D02*
X251182314Y-114220796D01*
X251182314Y-114220796D02*
X251039457Y-114292225D01*
X251039457Y-114292225D02*
X250896600Y-114292225D01*
X250896600Y-114292225D02*
X250753742Y-114220796D01*
X250753742Y-114220796D02*
X250682314Y-114149368D01*
X250682314Y-114149368D02*
X250610885Y-114006510D01*
X250610885Y-114006510D02*
X250610885Y-113506510D01*
X249682314Y-114649368D02*
X249682314Y-115792225D01*
X250253742Y-116077939D02*
X250253742Y-116792225D01*
X249825171Y-115935082D02*
X251325171Y-116435082D01*
X251325171Y-116435082D02*
X249825171Y-116935082D01*
X251325171Y-117720796D02*
X251325171Y-117863653D01*
X251325171Y-117863653D02*
X251253742Y-118006510D01*
X251253742Y-118006510D02*
X251182314Y-118077939D01*
X251182314Y-118077939D02*
X251039457Y-118149367D01*
X251039457Y-118149367D02*
X250753742Y-118220796D01*
X250753742Y-118220796D02*
X250396600Y-118220796D01*
X250396600Y-118220796D02*
X250110885Y-118149367D01*
X250110885Y-118149367D02*
X249968028Y-118077939D01*
X249968028Y-118077939D02*
X249896600Y-118006510D01*
X249896600Y-118006510D02*
X249825171Y-117863653D01*
X249825171Y-117863653D02*
X249825171Y-117720796D01*
X249825171Y-117720796D02*
X249896600Y-117577939D01*
X249896600Y-117577939D02*
X249968028Y-117506510D01*
X249968028Y-117506510D02*
X250110885Y-117435081D01*
X250110885Y-117435081D02*
X250396600Y-117363653D01*
X250396600Y-117363653D02*
X250753742Y-117363653D01*
X250753742Y-117363653D02*
X251039457Y-117435081D01*
X251039457Y-117435081D02*
X251182314Y-117506510D01*
X251182314Y-117506510D02*
X251253742Y-117577939D01*
X251253742Y-117577939D02*
X251325171Y-117720796D01*
X249682314Y-118506510D02*
X249682314Y-119649367D01*
X251325171Y-120292224D02*
X251325171Y-120435081D01*
X251325171Y-120435081D02*
X251253742Y-120577938D01*
X251253742Y-120577938D02*
X251182314Y-120649367D01*
X251182314Y-120649367D02*
X251039457Y-120720795D01*
X251039457Y-120720795D02*
X250753742Y-120792224D01*
X250753742Y-120792224D02*
X250396600Y-120792224D01*
X250396600Y-120792224D02*
X250110885Y-120720795D01*
X250110885Y-120720795D02*
X249968028Y-120649367D01*
X249968028Y-120649367D02*
X249896600Y-120577938D01*
X249896600Y-120577938D02*
X249825171Y-120435081D01*
X249825171Y-120435081D02*
X249825171Y-120292224D01*
X249825171Y-120292224D02*
X249896600Y-120149367D01*
X249896600Y-120149367D02*
X249968028Y-120077938D01*
X249968028Y-120077938D02*
X250110885Y-120006509D01*
X250110885Y-120006509D02*
X250396600Y-119935081D01*
X250396600Y-119935081D02*
X250753742Y-119935081D01*
X250753742Y-119935081D02*
X251039457Y-120006509D01*
X251039457Y-120006509D02*
X251182314Y-120077938D01*
X251182314Y-120077938D02*
X251253742Y-120149367D01*
X251253742Y-120149367D02*
X251325171Y-120292224D01*
X250825171Y-122077938D02*
X249825171Y-122077938D01*
X251396600Y-121720795D02*
X250325171Y-121363652D01*
X250325171Y-121363652D02*
X250325171Y-122292223D01*
X251182314Y-122792223D02*
X251253742Y-122863651D01*
X251253742Y-122863651D02*
X251325171Y-123006509D01*
X251325171Y-123006509D02*
X251325171Y-123363651D01*
X251325171Y-123363651D02*
X251253742Y-123506509D01*
X251253742Y-123506509D02*
X251182314Y-123577937D01*
X251182314Y-123577937D02*
X251039457Y-123649366D01*
X251039457Y-123649366D02*
X250896600Y-123649366D01*
X250896600Y-123649366D02*
X250682314Y-123577937D01*
X250682314Y-123577937D02*
X249825171Y-122720794D01*
X249825171Y-122720794D02*
X249825171Y-123649366D01*
X249825171Y-124363651D02*
X249825171Y-124649365D01*
X249825171Y-124649365D02*
X249896600Y-124792222D01*
X249896600Y-124792222D02*
X249968028Y-124863651D01*
X249968028Y-124863651D02*
X250182314Y-125006508D01*
X250182314Y-125006508D02*
X250468028Y-125077937D01*
X250468028Y-125077937D02*
X251039457Y-125077937D01*
X251039457Y-125077937D02*
X251182314Y-125006508D01*
X251182314Y-125006508D02*
X251253742Y-124935080D01*
X251253742Y-124935080D02*
X251325171Y-124792222D01*
X251325171Y-124792222D02*
X251325171Y-124506508D01*
X251325171Y-124506508D02*
X251253742Y-124363651D01*
X251253742Y-124363651D02*
X251182314Y-124292222D01*
X251182314Y-124292222D02*
X251039457Y-124220794D01*
X251039457Y-124220794D02*
X250682314Y-124220794D01*
X250682314Y-124220794D02*
X250539457Y-124292222D01*
X250539457Y-124292222D02*
X250468028Y-124363651D01*
X250468028Y-124363651D02*
X250396600Y-124506508D01*
X250396600Y-124506508D02*
X250396600Y-124792222D01*
X250396600Y-124792222D02*
X250468028Y-124935080D01*
X250468028Y-124935080D02*
X250539457Y-125006508D01*
X250539457Y-125006508D02*
X250682314Y-125077937D01*
X251182314Y-125649365D02*
X251253742Y-125720793D01*
X251253742Y-125720793D02*
X251325171Y-125863651D01*
X251325171Y-125863651D02*
X251325171Y-126220793D01*
X251325171Y-126220793D02*
X251253742Y-126363651D01*
X251253742Y-126363651D02*
X251182314Y-126435079D01*
X251182314Y-126435079D02*
X251039457Y-126506508D01*
X251039457Y-126506508D02*
X250896600Y-126506508D01*
X250896600Y-126506508D02*
X250682314Y-126435079D01*
X250682314Y-126435079D02*
X249825171Y-125577936D01*
X249825171Y-125577936D02*
X249825171Y-126506508D01*
X251325171Y-127435079D02*
X251325171Y-127577936D01*
X251325171Y-127577936D02*
X251253742Y-127720793D01*
X251253742Y-127720793D02*
X251182314Y-127792222D01*
X251182314Y-127792222D02*
X251039457Y-127863650D01*
X251039457Y-127863650D02*
X250753742Y-127935079D01*
X250753742Y-127935079D02*
X250396600Y-127935079D01*
X250396600Y-127935079D02*
X250110885Y-127863650D01*
X250110885Y-127863650D02*
X249968028Y-127792222D01*
X249968028Y-127792222D02*
X249896600Y-127720793D01*
X249896600Y-127720793D02*
X249825171Y-127577936D01*
X249825171Y-127577936D02*
X249825171Y-127435079D01*
X249825171Y-127435079D02*
X249896600Y-127292222D01*
X249896600Y-127292222D02*
X249968028Y-127220793D01*
X249968028Y-127220793D02*
X250110885Y-127149364D01*
X250110885Y-127149364D02*
X250396600Y-127077936D01*
X250396600Y-127077936D02*
X250753742Y-127077936D01*
X250753742Y-127077936D02*
X251039457Y-127149364D01*
X251039457Y-127149364D02*
X251182314Y-127220793D01*
X251182314Y-127220793D02*
X251253742Y-127292222D01*
X251253742Y-127292222D02*
X251325171Y-127435079D01*
X251182314Y-128506507D02*
X251253742Y-128577935D01*
X251253742Y-128577935D02*
X251325171Y-128720793D01*
X251325171Y-128720793D02*
X251325171Y-129077935D01*
X251325171Y-129077935D02*
X251253742Y-129220793D01*
X251253742Y-129220793D02*
X251182314Y-129292221D01*
X251182314Y-129292221D02*
X251039457Y-129363650D01*
X251039457Y-129363650D02*
X250896600Y-129363650D01*
X250896600Y-129363650D02*
X250682314Y-129292221D01*
X250682314Y-129292221D02*
X249825171Y-128435078D01*
X249825171Y-128435078D02*
X249825171Y-129363650D01*
X250825171Y-130649364D02*
X249825171Y-130649364D01*
X251396600Y-130292221D02*
X250325171Y-129935078D01*
X250325171Y-129935078D02*
X250325171Y-130863649D01*
X234337653Y-128352828D02*
X235266225Y-128352828D01*
X235266225Y-128352828D02*
X234766225Y-128924257D01*
X234766225Y-128924257D02*
X234980510Y-128924257D01*
X234980510Y-128924257D02*
X235123368Y-128995685D01*
X235123368Y-128995685D02*
X235194796Y-129067114D01*
X235194796Y-129067114D02*
X235266225Y-129209971D01*
X235266225Y-129209971D02*
X235266225Y-129567114D01*
X235266225Y-129567114D02*
X235194796Y-129709971D01*
X235194796Y-129709971D02*
X235123368Y-129781400D01*
X235123368Y-129781400D02*
X234980510Y-129852828D01*
X234980510Y-129852828D02*
X234551939Y-129852828D01*
X234551939Y-129852828D02*
X234409082Y-129781400D01*
X234409082Y-129781400D02*
X234337653Y-129709971D01*
X235909081Y-129709971D02*
X235980510Y-129781400D01*
X235980510Y-129781400D02*
X235909081Y-129852828D01*
X235909081Y-129852828D02*
X235837653Y-129781400D01*
X235837653Y-129781400D02*
X235909081Y-129709971D01*
X235909081Y-129709971D02*
X235909081Y-129852828D01*
X236480510Y-128352828D02*
X237409082Y-128352828D01*
X237409082Y-128352828D02*
X236909082Y-128924257D01*
X236909082Y-128924257D02*
X237123367Y-128924257D01*
X237123367Y-128924257D02*
X237266225Y-128995685D01*
X237266225Y-128995685D02*
X237337653Y-129067114D01*
X237337653Y-129067114D02*
X237409082Y-129209971D01*
X237409082Y-129209971D02*
X237409082Y-129567114D01*
X237409082Y-129567114D02*
X237337653Y-129709971D01*
X237337653Y-129709971D02*
X237266225Y-129781400D01*
X237266225Y-129781400D02*
X237123367Y-129852828D01*
X237123367Y-129852828D02*
X236694796Y-129852828D01*
X236694796Y-129852828D02*
X236551939Y-129781400D01*
X236551939Y-129781400D02*
X236480510Y-129709971D01*
X237837653Y-128352828D02*
X238337653Y-129852828D01*
X238337653Y-129852828D02*
X238837653Y-128352828D01*
X234594796Y-118052828D02*
X233880510Y-118052828D01*
X233880510Y-118052828D02*
X233809082Y-118767114D01*
X233809082Y-118767114D02*
X233880510Y-118695685D01*
X233880510Y-118695685D02*
X234023368Y-118624257D01*
X234023368Y-118624257D02*
X234380510Y-118624257D01*
X234380510Y-118624257D02*
X234523368Y-118695685D01*
X234523368Y-118695685D02*
X234594796Y-118767114D01*
X234594796Y-118767114D02*
X234666225Y-118909971D01*
X234666225Y-118909971D02*
X234666225Y-119267114D01*
X234666225Y-119267114D02*
X234594796Y-119409971D01*
X234594796Y-119409971D02*
X234523368Y-119481400D01*
X234523368Y-119481400D02*
X234380510Y-119552828D01*
X234380510Y-119552828D02*
X234023368Y-119552828D01*
X234023368Y-119552828D02*
X233880510Y-119481400D01*
X233880510Y-119481400D02*
X233809082Y-119409971D01*
X235309081Y-119409971D02*
X235380510Y-119481400D01*
X235380510Y-119481400D02*
X235309081Y-119552828D01*
X235309081Y-119552828D02*
X235237653Y-119481400D01*
X235237653Y-119481400D02*
X235309081Y-119409971D01*
X235309081Y-119409971D02*
X235309081Y-119552828D01*
X236309082Y-118052828D02*
X236451939Y-118052828D01*
X236451939Y-118052828D02*
X236594796Y-118124257D01*
X236594796Y-118124257D02*
X236666225Y-118195685D01*
X236666225Y-118195685D02*
X236737653Y-118338542D01*
X236737653Y-118338542D02*
X236809082Y-118624257D01*
X236809082Y-118624257D02*
X236809082Y-118981400D01*
X236809082Y-118981400D02*
X236737653Y-119267114D01*
X236737653Y-119267114D02*
X236666225Y-119409971D01*
X236666225Y-119409971D02*
X236594796Y-119481400D01*
X236594796Y-119481400D02*
X236451939Y-119552828D01*
X236451939Y-119552828D02*
X236309082Y-119552828D01*
X236309082Y-119552828D02*
X236166225Y-119481400D01*
X236166225Y-119481400D02*
X236094796Y-119409971D01*
X236094796Y-119409971D02*
X236023367Y-119267114D01*
X236023367Y-119267114D02*
X235951939Y-118981400D01*
X235951939Y-118981400D02*
X235951939Y-118624257D01*
X235951939Y-118624257D02*
X236023367Y-118338542D01*
X236023367Y-118338542D02*
X236094796Y-118195685D01*
X236094796Y-118195685D02*
X236166225Y-118124257D01*
X236166225Y-118124257D02*
X236309082Y-118052828D01*
X237237653Y-118052828D02*
X237737653Y-119552828D01*
X237737653Y-119552828D02*
X238237653Y-118052828D01*
X234666225Y-146124257D02*
X234523368Y-146052828D01*
X234523368Y-146052828D02*
X234309082Y-146052828D01*
X234309082Y-146052828D02*
X234094796Y-146124257D01*
X234094796Y-146124257D02*
X233951939Y-146267114D01*
X233951939Y-146267114D02*
X233880510Y-146409971D01*
X233880510Y-146409971D02*
X233809082Y-146695685D01*
X233809082Y-146695685D02*
X233809082Y-146909971D01*
X233809082Y-146909971D02*
X233880510Y-147195685D01*
X233880510Y-147195685D02*
X233951939Y-147338542D01*
X233951939Y-147338542D02*
X234094796Y-147481400D01*
X234094796Y-147481400D02*
X234309082Y-147552828D01*
X234309082Y-147552828D02*
X234451939Y-147552828D01*
X234451939Y-147552828D02*
X234666225Y-147481400D01*
X234666225Y-147481400D02*
X234737653Y-147409971D01*
X234737653Y-147409971D02*
X234737653Y-146909971D01*
X234737653Y-146909971D02*
X234451939Y-146909971D01*
X235380510Y-147552828D02*
X235380510Y-146052828D01*
X235380510Y-146052828D02*
X236237653Y-147552828D01*
X236237653Y-147552828D02*
X236237653Y-146052828D01*
X236951939Y-147552828D02*
X236951939Y-146052828D01*
X236951939Y-146052828D02*
X237309082Y-146052828D01*
X237309082Y-146052828D02*
X237523368Y-146124257D01*
X237523368Y-146124257D02*
X237666225Y-146267114D01*
X237666225Y-146267114D02*
X237737654Y-146409971D01*
X237737654Y-146409971D02*
X237809082Y-146695685D01*
X237809082Y-146695685D02*
X237809082Y-146909971D01*
X237809082Y-146909971D02*
X237737654Y-147195685D01*
X237737654Y-147195685D02*
X237666225Y-147338542D01*
X237666225Y-147338542D02*
X237523368Y-147481400D01*
X237523368Y-147481400D02*
X237309082Y-147552828D01*
X237309082Y-147552828D02*
X236951939Y-147552828D01*
D12*
X198621580Y-138894666D02*
X198669200Y-138942285D01*
X198669200Y-138942285D02*
X198716819Y-139085142D01*
X198716819Y-139085142D02*
X198716819Y-139180380D01*
X198716819Y-139180380D02*
X198669200Y-139323237D01*
X198669200Y-139323237D02*
X198573961Y-139418475D01*
X198573961Y-139418475D02*
X198478723Y-139466094D01*
X198478723Y-139466094D02*
X198288247Y-139513713D01*
X198288247Y-139513713D02*
X198145390Y-139513713D01*
X198145390Y-139513713D02*
X197954914Y-139466094D01*
X197954914Y-139466094D02*
X197859676Y-139418475D01*
X197859676Y-139418475D02*
X197764438Y-139323237D01*
X197764438Y-139323237D02*
X197716819Y-139180380D01*
X197716819Y-139180380D02*
X197716819Y-139085142D01*
X197716819Y-139085142D02*
X197764438Y-138942285D01*
X197764438Y-138942285D02*
X197812057Y-138894666D01*
X197716819Y-138037523D02*
X197716819Y-138227999D01*
X197716819Y-138227999D02*
X197764438Y-138323237D01*
X197764438Y-138323237D02*
X197812057Y-138370856D01*
X197812057Y-138370856D02*
X197954914Y-138466094D01*
X197954914Y-138466094D02*
X198145390Y-138513713D01*
X198145390Y-138513713D02*
X198526342Y-138513713D01*
X198526342Y-138513713D02*
X198621580Y-138466094D01*
X198621580Y-138466094D02*
X198669200Y-138418475D01*
X198669200Y-138418475D02*
X198716819Y-138323237D01*
X198716819Y-138323237D02*
X198716819Y-138132761D01*
X198716819Y-138132761D02*
X198669200Y-138037523D01*
X198669200Y-138037523D02*
X198621580Y-137989904D01*
X198621580Y-137989904D02*
X198526342Y-137942285D01*
X198526342Y-137942285D02*
X198288247Y-137942285D01*
X198288247Y-137942285D02*
X198193009Y-137989904D01*
X198193009Y-137989904D02*
X198145390Y-138037523D01*
X198145390Y-138037523D02*
X198097771Y-138132761D01*
X198097771Y-138132761D02*
X198097771Y-138323237D01*
X198097771Y-138323237D02*
X198145390Y-138418475D01*
X198145390Y-138418475D02*
X198193009Y-138466094D01*
X198193009Y-138466094D02*
X198288247Y-138513713D01*
D13*
X176760856Y-146922318D02*
X176760856Y-145652318D01*
X176760856Y-145652318D02*
X177244666Y-145652318D01*
X177244666Y-145652318D02*
X177365618Y-145712794D01*
X177365618Y-145712794D02*
X177426095Y-145773270D01*
X177426095Y-145773270D02*
X177486571Y-145894222D01*
X177486571Y-145894222D02*
X177486571Y-146075651D01*
X177486571Y-146075651D02*
X177426095Y-146196603D01*
X177426095Y-146196603D02*
X177365618Y-146257080D01*
X177365618Y-146257080D02*
X177244666Y-146317556D01*
X177244666Y-146317556D02*
X176760856Y-146317556D01*
X177970380Y-146861842D02*
X178151809Y-146922318D01*
X178151809Y-146922318D02*
X178454190Y-146922318D01*
X178454190Y-146922318D02*
X178575142Y-146861842D01*
X178575142Y-146861842D02*
X178635618Y-146801365D01*
X178635618Y-146801365D02*
X178696095Y-146680413D01*
X178696095Y-146680413D02*
X178696095Y-146559461D01*
X178696095Y-146559461D02*
X178635618Y-146438508D01*
X178635618Y-146438508D02*
X178575142Y-146378032D01*
X178575142Y-146378032D02*
X178454190Y-146317556D01*
X178454190Y-146317556D02*
X178212285Y-146257080D01*
X178212285Y-146257080D02*
X178091333Y-146196603D01*
X178091333Y-146196603D02*
X178030856Y-146136127D01*
X178030856Y-146136127D02*
X177970380Y-146015175D01*
X177970380Y-146015175D02*
X177970380Y-145894222D01*
X177970380Y-145894222D02*
X178030856Y-145773270D01*
X178030856Y-145773270D02*
X178091333Y-145712794D01*
X178091333Y-145712794D02*
X178212285Y-145652318D01*
X178212285Y-145652318D02*
X178514666Y-145652318D01*
X178514666Y-145652318D02*
X178696095Y-145712794D01*
X179179904Y-145773270D02*
X179240380Y-145712794D01*
X179240380Y-145712794D02*
X179361333Y-145652318D01*
X179361333Y-145652318D02*
X179663714Y-145652318D01*
X179663714Y-145652318D02*
X179784666Y-145712794D01*
X179784666Y-145712794D02*
X179845142Y-145773270D01*
X179845142Y-145773270D02*
X179905619Y-145894222D01*
X179905619Y-145894222D02*
X179905619Y-146015175D01*
X179905619Y-146015175D02*
X179845142Y-146196603D01*
X179845142Y-146196603D02*
X179119428Y-146922318D01*
X179119428Y-146922318D02*
X179905619Y-146922318D01*
D12*
X219016819Y-152084332D02*
X219731104Y-152084332D01*
X219731104Y-152084332D02*
X219873961Y-152131951D01*
X219873961Y-152131951D02*
X219969200Y-152227189D01*
X219969200Y-152227189D02*
X220016819Y-152370046D01*
X220016819Y-152370046D02*
X220016819Y-152465284D01*
X219016819Y-151131951D02*
X219016819Y-151608141D01*
X219016819Y-151608141D02*
X219493009Y-151655760D01*
X219493009Y-151655760D02*
X219445390Y-151608141D01*
X219445390Y-151608141D02*
X219397771Y-151512903D01*
X219397771Y-151512903D02*
X219397771Y-151274808D01*
X219397771Y-151274808D02*
X219445390Y-151179570D01*
X219445390Y-151179570D02*
X219493009Y-151131951D01*
X219493009Y-151131951D02*
X219588247Y-151084332D01*
X219588247Y-151084332D02*
X219826342Y-151084332D01*
X219826342Y-151084332D02*
X219921580Y-151131951D01*
X219921580Y-151131951D02*
X219969200Y-151179570D01*
X219969200Y-151179570D02*
X220016819Y-151274808D01*
X220016819Y-151274808D02*
X220016819Y-151512903D01*
X220016819Y-151512903D02*
X219969200Y-151608141D01*
X219969200Y-151608141D02*
X219921580Y-151655760D01*
X219016819Y-115040332D02*
X219731104Y-115040332D01*
X219731104Y-115040332D02*
X219873961Y-115087951D01*
X219873961Y-115087951D02*
X219969200Y-115183189D01*
X219969200Y-115183189D02*
X220016819Y-115326046D01*
X220016819Y-115326046D02*
X220016819Y-115421284D01*
X219016819Y-114659379D02*
X219016819Y-114040332D01*
X219016819Y-114040332D02*
X219397771Y-114373665D01*
X219397771Y-114373665D02*
X219397771Y-114230808D01*
X219397771Y-114230808D02*
X219445390Y-114135570D01*
X219445390Y-114135570D02*
X219493009Y-114087951D01*
X219493009Y-114087951D02*
X219588247Y-114040332D01*
X219588247Y-114040332D02*
X219826342Y-114040332D01*
X219826342Y-114040332D02*
X219921580Y-114087951D01*
X219921580Y-114087951D02*
X219969200Y-114135570D01*
X219969200Y-114135570D02*
X220016819Y-114230808D01*
X220016819Y-114230808D02*
X220016819Y-114516522D01*
X220016819Y-114516522D02*
X219969200Y-114611760D01*
X219969200Y-114611760D02*
X219921580Y-114659379D01*
X154925619Y-124083333D02*
X154878000Y-124035714D01*
X154878000Y-124035714D02*
X154830380Y-123892857D01*
X154830380Y-123892857D02*
X154830380Y-123797619D01*
X154830380Y-123797619D02*
X154878000Y-123654762D01*
X154878000Y-123654762D02*
X154973238Y-123559524D01*
X154973238Y-123559524D02*
X155068476Y-123511905D01*
X155068476Y-123511905D02*
X155258952Y-123464286D01*
X155258952Y-123464286D02*
X155401809Y-123464286D01*
X155401809Y-123464286D02*
X155592285Y-123511905D01*
X155592285Y-123511905D02*
X155687523Y-123559524D01*
X155687523Y-123559524D02*
X155782761Y-123654762D01*
X155782761Y-123654762D02*
X155830380Y-123797619D01*
X155830380Y-123797619D02*
X155830380Y-123892857D01*
X155830380Y-123892857D02*
X155782761Y-124035714D01*
X155782761Y-124035714D02*
X155735142Y-124083333D01*
X155497047Y-124940476D02*
X154830380Y-124940476D01*
X155878000Y-124702381D02*
X155163714Y-124464286D01*
X155163714Y-124464286D02*
X155163714Y-125083333D01*
X202982419Y-118241333D02*
X202934800Y-118193714D01*
X202934800Y-118193714D02*
X202887180Y-118050857D01*
X202887180Y-118050857D02*
X202887180Y-117955619D01*
X202887180Y-117955619D02*
X202934800Y-117812762D01*
X202934800Y-117812762D02*
X203030038Y-117717524D01*
X203030038Y-117717524D02*
X203125276Y-117669905D01*
X203125276Y-117669905D02*
X203315752Y-117622286D01*
X203315752Y-117622286D02*
X203458609Y-117622286D01*
X203458609Y-117622286D02*
X203649085Y-117669905D01*
X203649085Y-117669905D02*
X203744323Y-117717524D01*
X203744323Y-117717524D02*
X203839561Y-117812762D01*
X203839561Y-117812762D02*
X203887180Y-117955619D01*
X203887180Y-117955619D02*
X203887180Y-118050857D01*
X203887180Y-118050857D02*
X203839561Y-118193714D01*
X203839561Y-118193714D02*
X203791942Y-118241333D01*
X203887180Y-119146095D02*
X203887180Y-118669905D01*
X203887180Y-118669905D02*
X203410990Y-118622286D01*
X203410990Y-118622286D02*
X203458609Y-118669905D01*
X203458609Y-118669905D02*
X203506228Y-118765143D01*
X203506228Y-118765143D02*
X203506228Y-119003238D01*
X203506228Y-119003238D02*
X203458609Y-119098476D01*
X203458609Y-119098476D02*
X203410990Y-119146095D01*
X203410990Y-119146095D02*
X203315752Y-119193714D01*
X203315752Y-119193714D02*
X203077657Y-119193714D01*
X203077657Y-119193714D02*
X202982419Y-119146095D01*
X202982419Y-119146095D02*
X202934800Y-119098476D01*
X202934800Y-119098476D02*
X202887180Y-119003238D01*
X202887180Y-119003238D02*
X202887180Y-118765143D01*
X202887180Y-118765143D02*
X202934800Y-118669905D01*
X202934800Y-118669905D02*
X202982419Y-118622286D01*
X203375580Y-138856166D02*
X203423200Y-138903785D01*
X203423200Y-138903785D02*
X203470819Y-139046642D01*
X203470819Y-139046642D02*
X203470819Y-139141880D01*
X203470819Y-139141880D02*
X203423200Y-139284737D01*
X203423200Y-139284737D02*
X203327961Y-139379975D01*
X203327961Y-139379975D02*
X203232723Y-139427594D01*
X203232723Y-139427594D02*
X203042247Y-139475213D01*
X203042247Y-139475213D02*
X202899390Y-139475213D01*
X202899390Y-139475213D02*
X202708914Y-139427594D01*
X202708914Y-139427594D02*
X202613676Y-139379975D01*
X202613676Y-139379975D02*
X202518438Y-139284737D01*
X202518438Y-139284737D02*
X202470819Y-139141880D01*
X202470819Y-139141880D02*
X202470819Y-139046642D01*
X202470819Y-139046642D02*
X202518438Y-138903785D01*
X202518438Y-138903785D02*
X202566057Y-138856166D01*
X202566057Y-138475213D02*
X202518438Y-138427594D01*
X202518438Y-138427594D02*
X202470819Y-138332356D01*
X202470819Y-138332356D02*
X202470819Y-138094261D01*
X202470819Y-138094261D02*
X202518438Y-137999023D01*
X202518438Y-137999023D02*
X202566057Y-137951404D01*
X202566057Y-137951404D02*
X202661295Y-137903785D01*
X202661295Y-137903785D02*
X202756533Y-137903785D01*
X202756533Y-137903785D02*
X202899390Y-137951404D01*
X202899390Y-137951404D02*
X203470819Y-138522832D01*
X203470819Y-138522832D02*
X203470819Y-137903785D01*
D13*
X136942380Y-111516318D02*
X136942380Y-112544413D01*
X136942380Y-112544413D02*
X137002857Y-112665365D01*
X137002857Y-112665365D02*
X137063333Y-112725842D01*
X137063333Y-112725842D02*
X137184285Y-112786318D01*
X137184285Y-112786318D02*
X137426190Y-112786318D01*
X137426190Y-112786318D02*
X137547142Y-112725842D01*
X137547142Y-112725842D02*
X137607619Y-112665365D01*
X137607619Y-112665365D02*
X137668095Y-112544413D01*
X137668095Y-112544413D02*
X137668095Y-111516318D01*
X138938095Y-112786318D02*
X138212380Y-112786318D01*
X138575237Y-112786318D02*
X138575237Y-111516318D01*
X138575237Y-111516318D02*
X138454285Y-111697746D01*
X138454285Y-111697746D02*
X138333333Y-111818699D01*
X138333333Y-111818699D02*
X138212380Y-111879175D01*
X136942380Y-135646318D02*
X136942380Y-136674413D01*
X136942380Y-136674413D02*
X137002857Y-136795365D01*
X137002857Y-136795365D02*
X137063333Y-136855842D01*
X137063333Y-136855842D02*
X137184285Y-136916318D01*
X137184285Y-136916318D02*
X137426190Y-136916318D01*
X137426190Y-136916318D02*
X137547142Y-136855842D01*
X137547142Y-136855842D02*
X137607619Y-136795365D01*
X137607619Y-136795365D02*
X137668095Y-136674413D01*
X137668095Y-136674413D02*
X137668095Y-135646318D01*
X138212380Y-135767270D02*
X138272856Y-135706794D01*
X138272856Y-135706794D02*
X138393809Y-135646318D01*
X138393809Y-135646318D02*
X138696190Y-135646318D01*
X138696190Y-135646318D02*
X138817142Y-135706794D01*
X138817142Y-135706794D02*
X138877618Y-135767270D01*
X138877618Y-135767270D02*
X138938095Y-135888222D01*
X138938095Y-135888222D02*
X138938095Y-136009175D01*
X138938095Y-136009175D02*
X138877618Y-136190603D01*
X138877618Y-136190603D02*
X138151904Y-136916318D01*
X138151904Y-136916318D02*
X138938095Y-136916318D01*
D12*
X149669419Y-122464194D02*
X148669419Y-122464194D01*
X148669419Y-122464194D02*
X148669419Y-122226099D01*
X148669419Y-122226099D02*
X148717038Y-122083242D01*
X148717038Y-122083242D02*
X148812276Y-121988004D01*
X148812276Y-121988004D02*
X148907514Y-121940385D01*
X148907514Y-121940385D02*
X149097990Y-121892766D01*
X149097990Y-121892766D02*
X149240847Y-121892766D01*
X149240847Y-121892766D02*
X149431323Y-121940385D01*
X149431323Y-121940385D02*
X149526561Y-121988004D01*
X149526561Y-121988004D02*
X149621800Y-122083242D01*
X149621800Y-122083242D02*
X149669419Y-122226099D01*
X149669419Y-122226099D02*
X149669419Y-122464194D01*
X149669419Y-120940385D02*
X149669419Y-121511813D01*
X149669419Y-121226099D02*
X148669419Y-121226099D01*
X148669419Y-121226099D02*
X148812276Y-121321337D01*
X148812276Y-121321337D02*
X148907514Y-121416575D01*
X148907514Y-121416575D02*
X148955133Y-121511813D01*
X219016819Y-133796332D02*
X219731104Y-133796332D01*
X219731104Y-133796332D02*
X219873961Y-133843951D01*
X219873961Y-133843951D02*
X219969200Y-133939189D01*
X219969200Y-133939189D02*
X220016819Y-134082046D01*
X220016819Y-134082046D02*
X220016819Y-134177284D01*
X219350152Y-132891570D02*
X220016819Y-132891570D01*
X218969200Y-133129665D02*
X219683485Y-133367760D01*
X219683485Y-133367760D02*
X219683485Y-132748713D01*
D13*
X179219256Y-120506318D02*
X179219256Y-119236318D01*
X179219256Y-119236318D02*
X179703066Y-119236318D01*
X179703066Y-119236318D02*
X179824018Y-119296794D01*
X179824018Y-119296794D02*
X179884495Y-119357270D01*
X179884495Y-119357270D02*
X179944971Y-119478222D01*
X179944971Y-119478222D02*
X179944971Y-119659651D01*
X179944971Y-119659651D02*
X179884495Y-119780603D01*
X179884495Y-119780603D02*
X179824018Y-119841080D01*
X179824018Y-119841080D02*
X179703066Y-119901556D01*
X179703066Y-119901556D02*
X179219256Y-119901556D01*
X180428780Y-120445842D02*
X180610209Y-120506318D01*
X180610209Y-120506318D02*
X180912590Y-120506318D01*
X180912590Y-120506318D02*
X181033542Y-120445842D01*
X181033542Y-120445842D02*
X181094018Y-120385365D01*
X181094018Y-120385365D02*
X181154495Y-120264413D01*
X181154495Y-120264413D02*
X181154495Y-120143461D01*
X181154495Y-120143461D02*
X181094018Y-120022508D01*
X181094018Y-120022508D02*
X181033542Y-119962032D01*
X181033542Y-119962032D02*
X180912590Y-119901556D01*
X180912590Y-119901556D02*
X180670685Y-119841080D01*
X180670685Y-119841080D02*
X180549733Y-119780603D01*
X180549733Y-119780603D02*
X180489256Y-119720127D01*
X180489256Y-119720127D02*
X180428780Y-119599175D01*
X180428780Y-119599175D02*
X180428780Y-119478222D01*
X180428780Y-119478222D02*
X180489256Y-119357270D01*
X180489256Y-119357270D02*
X180549733Y-119296794D01*
X180549733Y-119296794D02*
X180670685Y-119236318D01*
X180670685Y-119236318D02*
X180973066Y-119236318D01*
X180973066Y-119236318D02*
X181154495Y-119296794D01*
X182364019Y-120506318D02*
X181638304Y-120506318D01*
X182001161Y-120506318D02*
X182001161Y-119236318D01*
X182001161Y-119236318D02*
X181880209Y-119417746D01*
X181880209Y-119417746D02*
X181759257Y-119538699D01*
X181759257Y-119538699D02*
X181638304Y-119599175D01*
D12*
X149059819Y-146197094D02*
X148059819Y-146197094D01*
X148059819Y-146197094D02*
X148059819Y-145958999D01*
X148059819Y-145958999D02*
X148107438Y-145816142D01*
X148107438Y-145816142D02*
X148202676Y-145720904D01*
X148202676Y-145720904D02*
X148297914Y-145673285D01*
X148297914Y-145673285D02*
X148488390Y-145625666D01*
X148488390Y-145625666D02*
X148631247Y-145625666D01*
X148631247Y-145625666D02*
X148821723Y-145673285D01*
X148821723Y-145673285D02*
X148916961Y-145720904D01*
X148916961Y-145720904D02*
X149012200Y-145816142D01*
X149012200Y-145816142D02*
X149059819Y-145958999D01*
X149059819Y-145958999D02*
X149059819Y-146197094D01*
X148155057Y-145244713D02*
X148107438Y-145197094D01*
X148107438Y-145197094D02*
X148059819Y-145101856D01*
X148059819Y-145101856D02*
X148059819Y-144863761D01*
X148059819Y-144863761D02*
X148107438Y-144768523D01*
X148107438Y-144768523D02*
X148155057Y-144720904D01*
X148155057Y-144720904D02*
X148250295Y-144673285D01*
X148250295Y-144673285D02*
X148345533Y-144673285D01*
X148345533Y-144673285D02*
X148488390Y-144720904D01*
X148488390Y-144720904D02*
X149059819Y-145292332D01*
X149059819Y-145292332D02*
X149059819Y-144673285D01*
X210631580Y-118574666D02*
X210679200Y-118622285D01*
X210679200Y-118622285D02*
X210726819Y-118765142D01*
X210726819Y-118765142D02*
X210726819Y-118860380D01*
X210726819Y-118860380D02*
X210679200Y-119003237D01*
X210679200Y-119003237D02*
X210583961Y-119098475D01*
X210583961Y-119098475D02*
X210488723Y-119146094D01*
X210488723Y-119146094D02*
X210298247Y-119193713D01*
X210298247Y-119193713D02*
X210155390Y-119193713D01*
X210155390Y-119193713D02*
X209964914Y-119146094D01*
X209964914Y-119146094D02*
X209869676Y-119098475D01*
X209869676Y-119098475D02*
X209774438Y-119003237D01*
X209774438Y-119003237D02*
X209726819Y-118860380D01*
X209726819Y-118860380D02*
X209726819Y-118765142D01*
X209726819Y-118765142D02*
X209774438Y-118622285D01*
X209774438Y-118622285D02*
X209822057Y-118574666D01*
X210726819Y-117622285D02*
X210726819Y-118193713D01*
X210726819Y-117907999D02*
X209726819Y-117907999D01*
X209726819Y-117907999D02*
X209869676Y-118003237D01*
X209869676Y-118003237D02*
X209964914Y-118098475D01*
X209964914Y-118098475D02*
X210012533Y-118193713D01*
X122770180Y-149908067D02*
X122055895Y-149908067D01*
X122055895Y-149908067D02*
X121913038Y-149860448D01*
X121913038Y-149860448D02*
X121817800Y-149765210D01*
X121817800Y-149765210D02*
X121770180Y-149622353D01*
X121770180Y-149622353D02*
X121770180Y-149527115D01*
X122674942Y-150336639D02*
X122722561Y-150384258D01*
X122722561Y-150384258D02*
X122770180Y-150479496D01*
X122770180Y-150479496D02*
X122770180Y-150717591D01*
X122770180Y-150717591D02*
X122722561Y-150812829D01*
X122722561Y-150812829D02*
X122674942Y-150860448D01*
X122674942Y-150860448D02*
X122579704Y-150908067D01*
X122579704Y-150908067D02*
X122484466Y-150908067D01*
X122484466Y-150908067D02*
X122341609Y-150860448D01*
X122341609Y-150860448D02*
X121770180Y-150289020D01*
X121770180Y-150289020D02*
X121770180Y-150908067D01*
X157237019Y-139590033D02*
X157189400Y-139542414D01*
X157189400Y-139542414D02*
X157141780Y-139399557D01*
X157141780Y-139399557D02*
X157141780Y-139304319D01*
X157141780Y-139304319D02*
X157189400Y-139161462D01*
X157189400Y-139161462D02*
X157284638Y-139066224D01*
X157284638Y-139066224D02*
X157379876Y-139018605D01*
X157379876Y-139018605D02*
X157570352Y-138970986D01*
X157570352Y-138970986D02*
X157713209Y-138970986D01*
X157713209Y-138970986D02*
X157903685Y-139018605D01*
X157903685Y-139018605D02*
X157998923Y-139066224D01*
X157998923Y-139066224D02*
X158094161Y-139161462D01*
X158094161Y-139161462D02*
X158141780Y-139304319D01*
X158141780Y-139304319D02*
X158141780Y-139399557D01*
X158141780Y-139399557D02*
X158094161Y-139542414D01*
X158094161Y-139542414D02*
X158046542Y-139590033D01*
X158141780Y-139923367D02*
X158141780Y-140542414D01*
X158141780Y-140542414D02*
X157760828Y-140209081D01*
X157760828Y-140209081D02*
X157760828Y-140351938D01*
X157760828Y-140351938D02*
X157713209Y-140447176D01*
X157713209Y-140447176D02*
X157665590Y-140494795D01*
X157665590Y-140494795D02*
X157570352Y-140542414D01*
X157570352Y-140542414D02*
X157332257Y-140542414D01*
X157332257Y-140542414D02*
X157237019Y-140494795D01*
X157237019Y-140494795D02*
X157189400Y-140447176D01*
X157189400Y-140447176D02*
X157141780Y-140351938D01*
X157141780Y-140351938D02*
X157141780Y-140066224D01*
X157141780Y-140066224D02*
X157189400Y-139970986D01*
X157189400Y-139970986D02*
X157237019Y-139923367D01*
X122668381Y-124259566D02*
X121954096Y-124259566D01*
X121954096Y-124259566D02*
X121811239Y-124211947D01*
X121811239Y-124211947D02*
X121716001Y-124116709D01*
X121716001Y-124116709D02*
X121668381Y-123973852D01*
X121668381Y-123973852D02*
X121668381Y-123878614D01*
X121668381Y-125259566D02*
X121668381Y-124688138D01*
X121668381Y-124973852D02*
X122668381Y-124973852D01*
X122668381Y-124973852D02*
X122525524Y-124878614D01*
X122525524Y-124878614D02*
X122430286Y-124783376D01*
X122430286Y-124783376D02*
X122382667Y-124688138D01*
D14*
%TO.C,C6*%
X197881000Y-144049300D02*
X198643000Y-144049300D01*
X198262000Y-143668300D02*
X198262000Y-144430300D01*
X194731400Y-142258600D02*
X197332360Y-142258600D01*
X199191640Y-142258600D02*
X201792600Y-142258600D01*
X201792600Y-142258600D02*
X201792600Y-135197400D01*
X194731400Y-135197400D02*
X194731400Y-142258600D01*
X197332360Y-135197400D02*
X194731400Y-135197400D01*
X201792600Y-135197400D02*
X199191640Y-135197400D01*
D15*
%TO.C,PS2*%
X192908000Y-158548000D02*
X192908000Y-134348000D01*
X186958000Y-158548000D02*
X164958000Y-158548000D01*
X186958000Y-134148000D02*
X170958000Y-134148000D01*
X165008000Y-158348000D02*
X165008000Y-134348000D01*
X163798000Y-148888000D02*
X163798000Y-148888000D01*
X163698000Y-148888000D02*
X163698000Y-148888000D01*
X163698000Y-148888000D02*
G75*
G03*
X163798000Y-148888000I50000J0D01*
G01*
X163798000Y-148888000D02*
G75*
G03*
X163698000Y-148888000I-50000J0D01*
G01*
D14*
%TO.C,J5*%
X212435001Y-158202599D02*
X231891401Y-158202599D01*
X231891401Y-158202599D02*
X231891401Y-145299399D01*
X212435001Y-145299399D02*
X212435001Y-158202599D01*
X231891401Y-145299399D02*
X212435001Y-145299399D01*
D16*
X215843001Y-159980599D02*
G75*
G03*
X215843001Y-159980599I-381000J0D01*
G01*
D14*
%TO.C,J3*%
X212435001Y-121158599D02*
X231891401Y-121158599D01*
X231891401Y-121158599D02*
X231891401Y-108255399D01*
X212435001Y-108255399D02*
X212435001Y-121158599D01*
X231891401Y-108255399D02*
X212435001Y-108255399D01*
D16*
X215843001Y-122936599D02*
G75*
G03*
X215843001Y-122936599I-381000J0D01*
G01*
D14*
%TO.C,C4*%
X160568400Y-118966800D02*
X156367240Y-118966800D01*
X154203160Y-118966800D02*
X150002000Y-118966800D01*
X150002000Y-118966800D02*
X150002000Y-129533200D01*
X160568400Y-129533200D02*
X160568400Y-118966800D01*
X156367240Y-129533200D02*
X160568400Y-129533200D01*
X150002000Y-129533200D02*
X154203160Y-129533200D01*
%TO.C,C5*%
X203723000Y-113086700D02*
X202961000Y-113086700D01*
X203342000Y-113467700D02*
X203342000Y-112705700D01*
X206872600Y-114877400D02*
X204271640Y-114877400D01*
X202412360Y-114877400D02*
X199811400Y-114877400D01*
X199811400Y-114877400D02*
X199811400Y-121938600D01*
X206872600Y-121938600D02*
X206872600Y-114877400D01*
X204271640Y-121938600D02*
X206872600Y-121938600D01*
X199811400Y-121938600D02*
X202412360Y-121938600D01*
D17*
%TO.C,C2*%
X203956000Y-139400752D02*
X203956000Y-137978248D01*
X205776000Y-139400752D02*
X205776000Y-137978248D01*
D10*
%TO.C,U1*%
X126372000Y-107612000D02*
X126372000Y-111289000D01*
X126372000Y-107612000D02*
X150772000Y-107612000D01*
X126372000Y-117012000D02*
X126372000Y-113335000D01*
X150772000Y-107612000D02*
X150772000Y-111289000D01*
X150772000Y-117012000D02*
X126372000Y-117012000D01*
X150772000Y-117012000D02*
X150772000Y-113335000D01*
X125751490Y-112199000D02*
G75*
G03*
X125751490Y-112199000I-66490J0D01*
G01*
%TO.C,U2*%
X126372000Y-131742000D02*
X126372000Y-135419000D01*
X126372000Y-131742000D02*
X150772000Y-131742000D01*
X126372000Y-141142000D02*
X126372000Y-137465000D01*
X150772000Y-131742000D02*
X150772000Y-135419000D01*
X150772000Y-141142000D02*
X126372000Y-141142000D01*
X150772000Y-141142000D02*
X150772000Y-137465000D01*
X125751490Y-136329000D02*
G75*
G03*
X125751490Y-136329000I-66490J0D01*
G01*
D18*
%TO.C,D1*%
X147722100Y-120203600D02*
X147722100Y-127058600D01*
X146669600Y-120203600D02*
X147722100Y-120203600D01*
X142869600Y-120203600D02*
X141817100Y-120203600D01*
X141817100Y-120203600D02*
X141817100Y-127058600D01*
X147722100Y-127058600D02*
X146669600Y-127058600D01*
X141817100Y-127058600D02*
X142869600Y-127058600D01*
D10*
X144969600Y-118131100D02*
G75*
G03*
X144969600Y-118131100I-100000J0D01*
G01*
D14*
%TO.C,J4*%
X212435001Y-139914599D02*
X231891401Y-139914599D01*
X231891401Y-139914599D02*
X231891401Y-127011399D01*
X212435001Y-127011399D02*
X212435001Y-139914599D01*
X231891401Y-127011399D02*
X212435001Y-127011399D01*
D16*
X215843001Y-141692599D02*
G75*
G03*
X215843001Y-141692599I-381000J0D01*
G01*
D11*
%TO.C,PS1*%
X163411400Y-112312000D02*
X163411400Y-112312000D01*
X163611400Y-112312000D02*
X163611400Y-112312000D01*
D15*
X165111400Y-108482000D02*
X198111400Y-108482000D01*
X165111400Y-131362000D02*
X165111400Y-108482000D01*
X198111400Y-108482000D02*
X198111400Y-131362000D01*
X198111400Y-131362000D02*
X165111400Y-131362000D01*
D11*
X163611400Y-112312000D02*
G75*
G03*
X163411400Y-112312000I-100000J0D01*
G01*
X163411400Y-112312000D02*
G75*
G03*
X163611400Y-112312000I100000J0D01*
G01*
D18*
%TO.C,D2*%
X147112500Y-143936500D02*
X147112500Y-150791500D01*
X146060000Y-143936500D02*
X147112500Y-143936500D01*
X142260000Y-143936500D02*
X141207500Y-143936500D01*
X141207500Y-143936500D02*
X141207500Y-150791500D01*
X147112500Y-150791500D02*
X146060000Y-150791500D01*
X141207500Y-150791500D02*
X142260000Y-150791500D01*
D10*
X144360000Y-141864000D02*
G75*
G03*
X144360000Y-141864000I-100000J0D01*
G01*
D17*
%TO.C,C1*%
X209332000Y-117696748D02*
X209332000Y-119119252D01*
X207512000Y-117696748D02*
X207512000Y-119119252D01*
D14*
%TO.C,J2*%
X129351999Y-143789801D02*
X109895599Y-143789801D01*
X109895599Y-143789801D02*
X109895599Y-156693001D01*
X129351999Y-156693001D02*
X129351999Y-143789801D01*
X109895599Y-156693001D02*
X129351999Y-156693001D01*
D16*
X126705999Y-142011801D02*
G75*
G03*
X126705999Y-142011801I-381000J0D01*
G01*
D14*
%TO.C,C3*%
X157977600Y-133482900D02*
X157215600Y-133482900D01*
X157596600Y-133863900D02*
X157596600Y-133101900D01*
X161978100Y-135375200D02*
X158678640Y-135375200D01*
X156514560Y-135375200D02*
X153215100Y-135375200D01*
X153215100Y-135375200D02*
X153215100Y-144138200D01*
X161978100Y-144138200D02*
X161978100Y-135375200D01*
X158678640Y-144138200D02*
X161978100Y-144138200D01*
X153215100Y-144138200D02*
X156514560Y-144138200D01*
%TO.C,J1*%
X129250200Y-118141300D02*
X109793800Y-118141300D01*
X109793800Y-118141300D02*
X109793800Y-131044500D01*
X129250200Y-131044500D02*
X129250200Y-118141300D01*
X109793800Y-131044500D02*
X129250200Y-131044500D01*
D16*
X126604200Y-116363300D02*
G75*
G03*
X126604200Y-116363300I-381000J0D01*
G01*
%TD*%
M02*
