M48
; DRILL file {KiCad 7.0.8} date Mon Apr 29 16:46:19 2024
; FORMAT={-:-/ absolute / inch / decimal}
; #@! TF.CreationDate,2024-04-29T16:46:19-06:00
; #@! TF.GenerationSoftware,Kicad,Pcbnew,7.0.8
; #@! TF.FileFunction,Plated,1,2,PTH
FMAT,2
INCH
; #@! TA.AperFunction,Plated,PTH,ComponentDrill
T1C0.0500
; #@! TA.AperFunction,Plated,PTH,ComponentDrill
T2C0.0550
; #@! TA.AperFunction,Plated,PTH,ComponentDrill
T3C0.0591
; #@! TA.AperFunction,Plated,PTH,ComponentDrill
T4C0.0618
; #@! TA.AperFunction,Plated,PTH,ComponentDrill
T5C0.0839
%
G90
G05
T1
X6.6456Y-5.3617
X6.6456Y-5.6617
X6.6456Y-5.8617
X7.4456Y-5.3617
X7.4456Y-5.7617
X7.4456Y-6.1617
T2
X4.6466Y-4.7979
X4.6466Y-4.9948
X4.6506Y-5.8077
X4.6506Y-6.0046
X4.9694Y-4.7979
X4.9694Y-4.9948
X4.9734Y-5.8077
X4.9734Y-6.0046
X8.4828Y-4.4265
X8.4828Y-4.6233
X8.4828Y-5.1649
X8.4828Y-5.3617
X8.4828Y-5.8849
X8.4828Y-6.0817
X8.8056Y-4.4265
X8.8056Y-4.6233
X8.8056Y-5.1649
X8.8056Y-5.3617
X8.8056Y-5.8849
X8.8056Y-6.0817
T3
X5.0107Y-4.4217
X5.0107Y-5.3717
X5.9005Y-4.4217
X5.9005Y-5.3717
T4
X6.6001Y-4.4217
X6.6001Y-4.7217
X6.6001Y-5.0217
X7.7001Y-4.5717
X7.7001Y-4.7217
X7.7001Y-4.8717
T5
X7.7001Y-4.4217
X7.7001Y-5.0217
T0
M30
