%TF.GenerationSoftware,KiCad,Pcbnew,7.0.8*%
%TF.CreationDate,2024-04-29T16:46:22-06:00*%
%TF.ProjectId,GR-LRR-POWER-PCB-LOW-VOLTAGE,47522d4c-5252-42d5-904f-5745522d5043,rev?*%
%TF.SameCoordinates,Original*%
%TF.FileFunction,Profile,NP*%
%FSLAX46Y46*%
G04 Gerber Fmt 4.6, Leading zero omitted, Abs format (unit mm)*
G04 Created by KiCad (PCBNEW 7.0.8) date 2024-04-29 16:46:22*
%MOMM*%
%LPD*%
G01*
G04 APERTURE LIST*
%TA.AperFunction,Profile*%
%ADD10C,0.250000*%
%TD*%
G04 APERTURE END LIST*
D10*
X257716823Y-132797421D02*
X257716823Y-126139285D01*
X204279985Y-161901800D02*
X204279985Y-160107023D01*
X143283553Y-161901800D02*
G75*
G03*
X145122700Y-160062653I147J1839000D01*
G01*
X210938121Y-160107023D02*
X210938121Y-161901800D01*
X160240406Y-160062653D02*
G75*
G03*
X145122700Y-160062653I-7558853J0D01*
G01*
X245232803Y-150855153D02*
G75*
G03*
X245232803Y-150855153I-1714500J0D01*
G01*
X257672453Y-143512200D02*
G75*
G03*
X250012000Y-151172653I147J-7660600D01*
G01*
X112511600Y-106901800D02*
X256511600Y-106901800D01*
X257716823Y-126139285D02*
X259511600Y-126139285D01*
X160240400Y-160062653D02*
G75*
G03*
X162079553Y-161901800I1839100J-47D01*
G01*
X259511600Y-126139285D02*
X259511600Y-109901800D01*
X112511600Y-106901800D02*
G75*
G03*
X109511600Y-109901800I0J-3000000D01*
G01*
X237492153Y-112564653D02*
G75*
G03*
X237492153Y-112564653I-1714500J0D01*
G01*
X204279985Y-160107023D02*
X210938121Y-160107023D01*
X112511600Y-161901800D02*
X143283553Y-161901800D01*
X257672453Y-143512200D02*
G75*
G03*
X259511600Y-141673053I147J1839000D01*
G01*
X248172853Y-161901800D02*
G75*
G03*
X250012000Y-160062653I147J1839000D01*
G01*
X162079553Y-161901800D02*
X204279985Y-161901800D01*
X109511600Y-158901800D02*
G75*
G03*
X112511600Y-161901800I3000000J0D01*
G01*
X259511600Y-132797421D02*
X257716823Y-132797421D01*
X259511600Y-109901800D02*
G75*
G03*
X256511600Y-106901800I-3000000J0D01*
G01*
X109511600Y-109901800D02*
X109511600Y-158901800D01*
X250012000Y-160062653D02*
X250012000Y-151172653D01*
X210938121Y-161901800D02*
X248172853Y-161901800D01*
X115295610Y-110901800D02*
G75*
G03*
X115295610Y-110901800I-1784010J0D01*
G01*
X259511600Y-141673053D02*
X259511600Y-132797421D01*
M02*
