%TF.GenerationSoftware,KiCad,Pcbnew,7.0.8*%
%TF.CreationDate,2024-04-29T16:46:21-06:00*%
%TF.ProjectId,GR-LRR-POWER-PCB-LOW-VOLTAGE,47522d4c-5252-42d5-904f-5745522d5043,rev?*%
%TF.SameCoordinates,Original*%
%TF.FileFunction,Copper,L1,Top*%
%TF.FilePolarity,Positive*%
%FSLAX46Y46*%
G04 Gerber Fmt 4.6, Leading zero omitted, Abs format (unit mm)*
G04 Created by KiCad (PCBNEW 7.0.8) date 2024-04-29 16:46:21*
%MOMM*%
%LPD*%
G01*
G04 APERTURE LIST*
G04 Aperture macros list*
%AMRoundRect*
0 Rectangle with rounded corners*
0 $1 Rounding radius*
0 $2 $3 $4 $5 $6 $7 $8 $9 X,Y pos of 4 corners*
0 Add a 4 corners polygon primitive as box body*
4,1,4,$2,$3,$4,$5,$6,$7,$8,$9,$2,$3,0*
0 Add four circle primitives for the rounded corners*
1,1,$1+$1,$2,$3*
1,1,$1+$1,$4,$5*
1,1,$1+$1,$6,$7*
1,1,$1+$1,$8,$9*
0 Add four rect primitives between the rounded corners*
20,1,$1+$1,$2,$3,$4,$5,0*
20,1,$1+$1,$4,$5,$6,$7,0*
20,1,$1+$1,$6,$7,$8,$9,0*
20,1,$1+$1,$8,$9,$2,$3,0*%
G04 Aperture macros list end*
%TA.AperFunction,SMDPad,CuDef*%
%ADD10R,1.193800X2.997200*%
%TD*%
%TA.AperFunction,ComponentPad*%
%ADD11C,2.100000*%
%TD*%
%TA.AperFunction,ComponentPad*%
%ADD12C,1.905000*%
%TD*%
%TA.AperFunction,SMDPad,CuDef*%
%ADD13R,1.498600X3.606800*%
%TD*%
%TA.AperFunction,SMDPad,CuDef*%
%ADD14RoundRect,0.250000X0.650000X-0.412500X0.650000X0.412500X-0.650000X0.412500X-0.650000X-0.412500X0*%
%TD*%
%TA.AperFunction,ComponentPad*%
%ADD15C,2.300000*%
%TD*%
%TA.AperFunction,SMDPad,CuDef*%
%ADD16RoundRect,0.850200X-0.709800X0.239800X-0.709800X-0.239800X0.709800X-0.239800X0.709800X0.239800X0*%
%TD*%
%TA.AperFunction,ComponentPad*%
%ADD17C,2.355000*%
%TD*%
%TA.AperFunction,ComponentPad*%
%ADD18C,3.195000*%
%TD*%
%TA.AperFunction,SMDPad,CuDef*%
%ADD19RoundRect,0.250000X-0.650000X0.412500X-0.650000X-0.412500X0.650000X-0.412500X0.650000X0.412500X0*%
%TD*%
%TA.AperFunction,SMDPad,CuDef*%
%ADD20R,1.498600X3.505200*%
%TD*%
G04 APERTURE END LIST*
D10*
%TO.P,C6,1*%
%TO.N,Net-(PS2-+VOUT)*%
X198262000Y-141433100D03*
%TO.P,C6,2*%
%TO.N,GND*%
X198262000Y-136022900D03*
%TD*%
D11*
%TO.P,PS2,1,+VIN*%
%TO.N,Net-(PS2-+VIN)*%
X168798000Y-148888000D03*
%TO.P,PS2,2,-VIN*%
%TO.N,GND*%
X168798000Y-143808000D03*
%TO.P,PS2,3,+VOUT*%
%TO.N,Net-(PS2-+VOUT)*%
X189118000Y-156508000D03*
%TO.P,PS2,4,OUTPUT_TRIM*%
%TO.N,unconnected-(PS2-OUTPUT_TRIM-Pad4)*%
X189118000Y-146348000D03*
%TO.P,PS2,5,-VOUT*%
%TO.N,GND*%
X189118000Y-136188000D03*
%TO.P,PS2,6,ON/OFF_CONTROL*%
%TO.N,unconnected-(PS2-ON{slash}OFF_CONTROL-Pad6)*%
X168798000Y-136188000D03*
%TD*%
D12*
%TO.P,J5,1_1,1_1*%
%TO.N,GND*%
X215462001Y-154476000D03*
%TO.P,J5,1_2,1_2*%
X223662000Y-154476000D03*
%TO.P,J5,2_1,2_1*%
X215462001Y-149476000D03*
%TO.P,J5,2_2,2_2*%
X223662000Y-149476000D03*
%TD*%
%TO.P,J3,1_1,1_1*%
%TO.N,Net-(PS1-+VOUT)*%
X215462001Y-117432000D03*
%TO.P,J3,1_2,1_2*%
X223662000Y-117432000D03*
%TO.P,J3,2_1,2_1*%
X215462001Y-112432000D03*
%TO.P,J3,2_2,2_2*%
X223662000Y-112432000D03*
%TD*%
D13*
%TO.P,C4,1*%
%TO.N,Net-(PS1-+VIN)*%
X155285200Y-120198700D03*
%TO.P,C4,2*%
%TO.N,GND*%
X155285200Y-128301300D03*
%TD*%
D10*
%TO.P,C5,1*%
%TO.N,Net-(PS1-+VOUT)*%
X203342000Y-115702900D03*
%TO.P,C5,2*%
%TO.N,GND*%
X203342000Y-121113100D03*
%TD*%
D14*
%TO.P,C2,1*%
%TO.N,Net-(PS2-+VOUT)*%
X204866000Y-140252000D03*
%TO.P,C2,2*%
%TO.N,GND*%
X204866000Y-137127000D03*
%TD*%
D15*
%TO.P,U1,1,1*%
%TO.N,BATT+*%
X127272000Y-112312000D03*
%TO.P,U1,2,2*%
%TO.N,Net-(PS1-+VIN)*%
X149872000Y-112312000D03*
%TD*%
%TO.P,U2,1,1*%
%TO.N,BATT+*%
X127272000Y-136442000D03*
%TO.P,U2,2,2*%
%TO.N,Net-(PS2-+VIN)*%
X149872000Y-136442000D03*
%TD*%
D16*
%TO.P,D1,A*%
%TO.N,GND*%
X144769600Y-127116100D03*
%TO.P,D1,C*%
%TO.N,Net-(PS1-+VIN)*%
X144769600Y-120146100D03*
%TD*%
D12*
%TO.P,J4,1_1,1_1*%
%TO.N,Net-(PS2-+VOUT)*%
X215462001Y-136188000D03*
%TO.P,J4,1_2,1_2*%
X223662000Y-136188000D03*
%TO.P,J4,2_1,2_1*%
X215462001Y-131188000D03*
%TO.P,J4,2_2,2_2*%
X223662000Y-131188000D03*
%TD*%
D17*
%TO.P,PS1,1,+VIN*%
%TO.N,Net-(PS1-+VIN)*%
X167641400Y-112312000D03*
%TO.P,PS1,2,ON/OFF_CONTROL*%
%TO.N,unconnected-(PS1-ON{slash}OFF_CONTROL-Pad2)*%
X167641400Y-119932000D03*
%TO.P,PS1,3,-VIN*%
%TO.N,GND*%
X167641400Y-127552000D03*
D18*
%TO.P,PS1,4,-VOUT*%
X195581400Y-127552000D03*
D17*
%TO.P,PS1,5,-SENSE*%
%TO.N,unconnected-(PS1--SENSE-Pad5)*%
X195581400Y-123742000D03*
%TO.P,PS1,6,OUTPUT_TRIM*%
%TO.N,unconnected-(PS1-OUTPUT_TRIM-Pad6)*%
X195581400Y-119932000D03*
%TO.P,PS1,7,+SENSE*%
%TO.N,unconnected-(PS1-+SENSE-Pad7)*%
X195581400Y-116122000D03*
D18*
%TO.P,PS1,8,+VOUT*%
%TO.N,Net-(PS1-+VOUT)*%
X195581400Y-112312000D03*
%TD*%
D16*
%TO.P,D2,A*%
%TO.N,GND*%
X144160000Y-150849000D03*
%TO.P,D2,C*%
%TO.N,Net-(PS2-+VIN)*%
X144160000Y-143879000D03*
%TD*%
D19*
%TO.P,C1,1*%
%TO.N,Net-(PS1-+VOUT)*%
X208422000Y-116845500D03*
%TO.P,C1,2*%
%TO.N,GND*%
X208422000Y-119970500D03*
%TD*%
D12*
%TO.P,J2,1_1,1_1*%
%TO.N,GND*%
X126324999Y-147516400D03*
%TO.P,J2,1_2,1_2*%
X118125000Y-147516400D03*
%TO.P,J2,2_1,2_1*%
X126324999Y-152516400D03*
%TO.P,J2,2_2,2_2*%
X118125000Y-152516400D03*
%TD*%
D20*
%TO.P,C3,1*%
%TO.N,Net-(PS2-+VIN)*%
X157596600Y-136353100D03*
%TO.P,C3,2*%
%TO.N,GND*%
X157596600Y-143160300D03*
%TD*%
D12*
%TO.P,J1,1_1,1_1*%
%TO.N,BATT+*%
X126223200Y-121867899D03*
%TO.P,J1,1_2,1_2*%
X118023201Y-121867899D03*
%TO.P,J1,2_1,2_1*%
X126223200Y-126867899D03*
%TO.P,J1,2_2,2_2*%
X118023201Y-126867899D03*
%TD*%
%TA.AperFunction,Conductor*%
%TO.N,BATT+*%
G36*
X136995977Y-107421985D02*
G01*
X137016619Y-107438619D01*
X137443481Y-107865481D01*
X137476966Y-107926804D01*
X137479800Y-107953162D01*
X137479800Y-139708638D01*
X137460115Y-139775677D01*
X137443481Y-139796319D01*
X136516119Y-140723681D01*
X136454796Y-140757166D01*
X136428438Y-140760000D01*
X110562962Y-140760000D01*
X110495923Y-140740315D01*
X110475281Y-140723681D01*
X110048419Y-140296819D01*
X110014934Y-140235496D01*
X110012100Y-140209138D01*
X110012100Y-139263370D01*
X125864840Y-139263370D01*
X125903114Y-139284523D01*
X126229987Y-139419918D01*
X126569949Y-139517859D01*
X126569958Y-139517861D01*
X126918748Y-139577123D01*
X126918760Y-139577125D01*
X127272000Y-139596962D01*
X127625239Y-139577125D01*
X127625251Y-139577123D01*
X127974041Y-139517861D01*
X127974050Y-139517859D01*
X128314012Y-139419918D01*
X128640885Y-139284523D01*
X128679157Y-139263371D01*
X128679157Y-139263370D01*
X127272000Y-137856213D01*
X125864840Y-139263370D01*
X110012100Y-139263370D01*
X110012100Y-136442000D01*
X124117037Y-136442000D01*
X124136874Y-136795239D01*
X124136876Y-136795251D01*
X124196138Y-137144041D01*
X124196140Y-137144050D01*
X124294081Y-137484012D01*
X124429472Y-137810877D01*
X124429473Y-137810879D01*
X124450628Y-137849157D01*
X125813881Y-136485906D01*
X126518172Y-136485906D01*
X126548616Y-136658567D01*
X126618059Y-136819553D01*
X126722756Y-136960185D01*
X126857062Y-137072882D01*
X127013739Y-137151568D01*
X127184338Y-137192000D01*
X127315684Y-137192000D01*
X127446139Y-137176752D01*
X127610891Y-137116787D01*
X127757373Y-137020445D01*
X127877688Y-136892918D01*
X127965350Y-136741082D01*
X128015634Y-136573123D01*
X128023271Y-136442000D01*
X128686213Y-136442000D01*
X130093370Y-137849157D01*
X130093371Y-137849157D01*
X130114523Y-137810885D01*
X130249918Y-137484012D01*
X130347859Y-137144050D01*
X130347861Y-137144041D01*
X130407123Y-136795251D01*
X130407125Y-136795239D01*
X130426962Y-136442000D01*
X130407125Y-136088760D01*
X130407123Y-136088748D01*
X130347861Y-135739958D01*
X130347859Y-135739949D01*
X130249918Y-135399987D01*
X130114523Y-135073114D01*
X130093370Y-135034840D01*
X128686213Y-136441999D01*
X128686213Y-136442000D01*
X128023271Y-136442000D01*
X128025828Y-136398094D01*
X127995384Y-136225433D01*
X127925941Y-136064447D01*
X127821244Y-135923815D01*
X127686938Y-135811118D01*
X127530261Y-135732432D01*
X127359662Y-135692000D01*
X127228316Y-135692000D01*
X127097861Y-135707248D01*
X126933109Y-135767213D01*
X126786627Y-135863555D01*
X126666312Y-135991082D01*
X126578650Y-136142918D01*
X126528366Y-136310877D01*
X126518172Y-136485906D01*
X125813881Y-136485906D01*
X125857786Y-136442001D01*
X125857786Y-136441999D01*
X124450628Y-135034841D01*
X124429478Y-135073109D01*
X124429477Y-135073112D01*
X124294081Y-135399987D01*
X124196140Y-135739949D01*
X124196138Y-135739958D01*
X124136876Y-136088748D01*
X124136874Y-136088760D01*
X124117037Y-136442000D01*
X110012100Y-136442000D01*
X110012100Y-133620628D01*
X125864841Y-133620628D01*
X127272000Y-135027786D01*
X128679158Y-133620628D01*
X128640879Y-133599473D01*
X128640877Y-133599472D01*
X128314012Y-133464081D01*
X127974050Y-133366140D01*
X127974041Y-133366138D01*
X127625251Y-133306876D01*
X127625239Y-133306874D01*
X127272000Y-133287037D01*
X126918760Y-133306874D01*
X126918748Y-133306876D01*
X126569958Y-133366138D01*
X126569949Y-133366140D01*
X126229987Y-133464081D01*
X125903112Y-133599477D01*
X125903109Y-133599478D01*
X125864841Y-133620628D01*
X110012100Y-133620628D01*
X110012100Y-129517605D01*
X116720531Y-129517605D01*
X116851786Y-129583523D01*
X116851787Y-129583524D01*
X117174981Y-129701157D01*
X117509634Y-129780471D01*
X117851243Y-129820398D01*
X117851244Y-129820399D01*
X118195158Y-129820399D01*
X118195158Y-129820398D01*
X118536766Y-129780471D01*
X118536768Y-129780471D01*
X118871420Y-129701157D01*
X119194614Y-129583524D01*
X119194615Y-129583523D01*
X119325869Y-129517605D01*
X124920530Y-129517605D01*
X125051785Y-129583523D01*
X125051786Y-129583524D01*
X125374980Y-129701157D01*
X125709633Y-129780471D01*
X126051242Y-129820398D01*
X126051243Y-129820399D01*
X126395157Y-129820399D01*
X126395157Y-129820398D01*
X126736765Y-129780471D01*
X126736767Y-129780471D01*
X127071419Y-129701157D01*
X127394613Y-129583524D01*
X127394614Y-129583523D01*
X127525868Y-129517605D01*
X127525868Y-129517604D01*
X126223200Y-128214937D01*
X124920530Y-129517604D01*
X124920530Y-129517605D01*
X119325869Y-129517605D01*
X119325869Y-129517604D01*
X118023201Y-128214937D01*
X116720531Y-129517604D01*
X116720531Y-129517605D01*
X110012100Y-129517605D01*
X110012100Y-126867902D01*
X115065697Y-126867902D01*
X115085695Y-127211244D01*
X115085696Y-127211255D01*
X115145414Y-127549937D01*
X115145417Y-127549947D01*
X115244056Y-127879426D01*
X115370803Y-128173257D01*
X115370804Y-128173258D01*
X116591350Y-126952712D01*
X117324701Y-126952712D01*
X117365296Y-127117410D01*
X117444125Y-127267606D01*
X117556608Y-127394574D01*
X117696208Y-127490932D01*
X117854811Y-127551083D01*
X117980951Y-127566399D01*
X118065451Y-127566399D01*
X118191591Y-127551083D01*
X118350194Y-127490932D01*
X118489794Y-127394574D01*
X118602277Y-127267606D01*
X118681106Y-127117410D01*
X118721701Y-126952712D01*
X118721701Y-126867900D01*
X119370239Y-126867900D01*
X120675597Y-128173258D01*
X120802345Y-127879426D01*
X120900984Y-127549947D01*
X120900987Y-127549937D01*
X120960705Y-127211255D01*
X120960706Y-127211244D01*
X120980705Y-126867902D01*
X123265696Y-126867902D01*
X123285694Y-127211244D01*
X123285695Y-127211255D01*
X123345413Y-127549937D01*
X123345416Y-127549947D01*
X123444055Y-127879426D01*
X123570802Y-128173257D01*
X123570803Y-128173258D01*
X124791349Y-126952712D01*
X125524700Y-126952712D01*
X125565295Y-127117410D01*
X125644124Y-127267606D01*
X125756607Y-127394574D01*
X125896207Y-127490932D01*
X126054810Y-127551083D01*
X126180950Y-127566399D01*
X126265450Y-127566399D01*
X126391590Y-127551083D01*
X126550193Y-127490932D01*
X126689793Y-127394574D01*
X126802276Y-127267606D01*
X126881105Y-127117410D01*
X126921700Y-126952712D01*
X126921700Y-126867900D01*
X127570238Y-126867900D01*
X128875596Y-128173258D01*
X129002344Y-127879426D01*
X129100983Y-127549947D01*
X129100986Y-127549937D01*
X129160704Y-127211255D01*
X129160705Y-127211244D01*
X129180704Y-126867902D01*
X129180704Y-126867895D01*
X129160705Y-126524553D01*
X129160704Y-126524542D01*
X129100986Y-126185860D01*
X129100983Y-126185850D01*
X129002344Y-125856371D01*
X128875596Y-125562538D01*
X127570238Y-126867898D01*
X127570238Y-126867900D01*
X126921700Y-126867900D01*
X126921700Y-126783086D01*
X126881105Y-126618388D01*
X126802276Y-126468192D01*
X126689793Y-126341224D01*
X126550193Y-126244866D01*
X126391590Y-126184715D01*
X126265450Y-126169399D01*
X126180950Y-126169399D01*
X126054810Y-126184715D01*
X125896207Y-126244866D01*
X125756607Y-126341224D01*
X125644124Y-126468192D01*
X125565295Y-126618388D01*
X125524700Y-126783086D01*
X125524700Y-126952712D01*
X124791349Y-126952712D01*
X124876162Y-126867899D01*
X124876162Y-126867898D01*
X123570802Y-125562539D01*
X123444055Y-125856371D01*
X123345416Y-126185850D01*
X123345413Y-126185860D01*
X123285695Y-126524542D01*
X123285694Y-126524553D01*
X123265696Y-126867895D01*
X123265696Y-126867902D01*
X120980705Y-126867902D01*
X120980705Y-126867895D01*
X120960706Y-126524553D01*
X120960705Y-126524542D01*
X120900987Y-126185860D01*
X120900984Y-126185850D01*
X120802345Y-125856371D01*
X120675597Y-125562538D01*
X119370239Y-126867898D01*
X119370239Y-126867900D01*
X118721701Y-126867900D01*
X118721701Y-126783086D01*
X118681106Y-126618388D01*
X118602277Y-126468192D01*
X118489794Y-126341224D01*
X118350194Y-126244866D01*
X118191591Y-126184715D01*
X118065451Y-126169399D01*
X117980951Y-126169399D01*
X117854811Y-126184715D01*
X117696208Y-126244866D01*
X117556608Y-126341224D01*
X117444125Y-126468192D01*
X117365296Y-126618388D01*
X117324701Y-126783086D01*
X117324701Y-126952712D01*
X116591350Y-126952712D01*
X116676163Y-126867899D01*
X116676163Y-126867898D01*
X115370803Y-125562539D01*
X115244056Y-125856371D01*
X115145417Y-126185850D01*
X115145414Y-126185860D01*
X115085696Y-126524542D01*
X115085695Y-126524553D01*
X115065697Y-126867895D01*
X115065697Y-126867902D01*
X110012100Y-126867902D01*
X110012100Y-124367899D01*
X116870239Y-124367899D01*
X118023201Y-125520861D01*
X119176163Y-124367899D01*
X125070238Y-124367899D01*
X126223200Y-125520861D01*
X127376162Y-124367899D01*
X126223200Y-123214937D01*
X125070238Y-124367899D01*
X119176163Y-124367899D01*
X118023201Y-123214937D01*
X116870239Y-124367899D01*
X110012100Y-124367899D01*
X110012100Y-121867902D01*
X115065697Y-121867902D01*
X115085695Y-122211244D01*
X115085696Y-122211255D01*
X115145414Y-122549937D01*
X115145417Y-122549947D01*
X115244056Y-122879426D01*
X115370803Y-123173257D01*
X115370804Y-123173258D01*
X116591350Y-121952712D01*
X117324701Y-121952712D01*
X117365296Y-122117410D01*
X117444125Y-122267606D01*
X117556608Y-122394574D01*
X117696208Y-122490932D01*
X117854811Y-122551083D01*
X117980951Y-122566399D01*
X118065451Y-122566399D01*
X118191591Y-122551083D01*
X118350194Y-122490932D01*
X118489794Y-122394574D01*
X118602277Y-122267606D01*
X118681106Y-122117410D01*
X118721701Y-121952712D01*
X118721701Y-121867900D01*
X119370239Y-121867900D01*
X120675597Y-123173258D01*
X120802345Y-122879426D01*
X120900984Y-122549947D01*
X120900987Y-122549937D01*
X120960705Y-122211255D01*
X120960706Y-122211244D01*
X120980705Y-121867902D01*
X123265696Y-121867902D01*
X123285694Y-122211244D01*
X123285695Y-122211255D01*
X123345413Y-122549937D01*
X123345416Y-122549947D01*
X123444055Y-122879426D01*
X123570802Y-123173257D01*
X123570803Y-123173258D01*
X124791349Y-121952712D01*
X125524700Y-121952712D01*
X125565295Y-122117410D01*
X125644124Y-122267606D01*
X125756607Y-122394574D01*
X125896207Y-122490932D01*
X126054810Y-122551083D01*
X126180950Y-122566399D01*
X126265450Y-122566399D01*
X126391590Y-122551083D01*
X126550193Y-122490932D01*
X126689793Y-122394574D01*
X126802276Y-122267606D01*
X126881105Y-122117410D01*
X126921700Y-121952712D01*
X126921700Y-121867900D01*
X127570238Y-121867900D01*
X128875596Y-123173258D01*
X129002344Y-122879426D01*
X129100983Y-122549947D01*
X129100986Y-122549937D01*
X129160704Y-122211255D01*
X129160705Y-122211244D01*
X129180704Y-121867902D01*
X129180704Y-121867895D01*
X129160705Y-121524553D01*
X129160704Y-121524542D01*
X129100986Y-121185860D01*
X129100983Y-121185850D01*
X129002344Y-120856371D01*
X128875596Y-120562538D01*
X127570238Y-121867898D01*
X127570238Y-121867900D01*
X126921700Y-121867900D01*
X126921700Y-121783086D01*
X126881105Y-121618388D01*
X126802276Y-121468192D01*
X126689793Y-121341224D01*
X126550193Y-121244866D01*
X126391590Y-121184715D01*
X126265450Y-121169399D01*
X126180950Y-121169399D01*
X126054810Y-121184715D01*
X125896207Y-121244866D01*
X125756607Y-121341224D01*
X125644124Y-121468192D01*
X125565295Y-121618388D01*
X125524700Y-121783086D01*
X125524700Y-121952712D01*
X124791349Y-121952712D01*
X124876162Y-121867899D01*
X124876162Y-121867898D01*
X123570802Y-120562539D01*
X123444055Y-120856371D01*
X123345416Y-121185850D01*
X123345413Y-121185860D01*
X123285695Y-121524542D01*
X123285694Y-121524553D01*
X123265696Y-121867895D01*
X123265696Y-121867902D01*
X120980705Y-121867902D01*
X120980705Y-121867895D01*
X120960706Y-121524553D01*
X120960705Y-121524542D01*
X120900987Y-121185860D01*
X120900984Y-121185850D01*
X120802345Y-120856371D01*
X120675597Y-120562538D01*
X119370239Y-121867898D01*
X119370239Y-121867900D01*
X118721701Y-121867900D01*
X118721701Y-121783086D01*
X118681106Y-121618388D01*
X118602277Y-121468192D01*
X118489794Y-121341224D01*
X118350194Y-121244866D01*
X118191591Y-121184715D01*
X118065451Y-121169399D01*
X117980951Y-121169399D01*
X117854811Y-121184715D01*
X117696208Y-121244866D01*
X117556608Y-121341224D01*
X117444125Y-121468192D01*
X117365296Y-121618388D01*
X117324701Y-121783086D01*
X117324701Y-121952712D01*
X116591350Y-121952712D01*
X116676163Y-121867899D01*
X116676163Y-121867898D01*
X115370803Y-120562539D01*
X115244056Y-120856371D01*
X115145417Y-121185850D01*
X115145414Y-121185860D01*
X115085696Y-121524542D01*
X115085695Y-121524553D01*
X115065697Y-121867895D01*
X115065697Y-121867902D01*
X110012100Y-121867902D01*
X110012100Y-119218192D01*
X116720532Y-119218192D01*
X118023201Y-120520861D01*
X118023202Y-120520861D01*
X119325868Y-119218192D01*
X124920531Y-119218192D01*
X126223200Y-120520861D01*
X126223201Y-120520861D01*
X127525867Y-119218192D01*
X127394603Y-119152269D01*
X127071419Y-119034640D01*
X126736766Y-118955326D01*
X126395157Y-118915399D01*
X126051243Y-118915399D01*
X125709634Y-118955326D01*
X125709632Y-118955326D01*
X125374980Y-119034640D01*
X125051792Y-119152271D01*
X124920531Y-119218192D01*
X119325868Y-119218192D01*
X119194604Y-119152269D01*
X118871420Y-119034640D01*
X118536767Y-118955326D01*
X118195158Y-118915399D01*
X117851244Y-118915399D01*
X117509635Y-118955326D01*
X117509633Y-118955326D01*
X117174981Y-119034640D01*
X116851793Y-119152271D01*
X116720532Y-119218192D01*
X110012100Y-119218192D01*
X110012100Y-115133370D01*
X125864840Y-115133370D01*
X125903114Y-115154523D01*
X126229987Y-115289918D01*
X126569949Y-115387859D01*
X126569958Y-115387861D01*
X126918748Y-115447123D01*
X126918760Y-115447125D01*
X127272000Y-115466962D01*
X127625239Y-115447125D01*
X127625251Y-115447123D01*
X127974041Y-115387861D01*
X127974050Y-115387859D01*
X128314012Y-115289918D01*
X128640885Y-115154523D01*
X128679157Y-115133371D01*
X128679157Y-115133370D01*
X127272000Y-113726213D01*
X125864840Y-115133370D01*
X110012100Y-115133370D01*
X110012100Y-110901800D01*
X111222188Y-110901800D01*
X111241774Y-111200626D01*
X111241775Y-111200638D01*
X111300196Y-111494335D01*
X111300201Y-111494355D01*
X111396455Y-111777912D01*
X111396459Y-111777922D01*
X111528911Y-112046507D01*
X111695288Y-112295507D01*
X111892740Y-112520659D01*
X112057603Y-112665239D01*
X112117894Y-112718113D01*
X112184950Y-112762918D01*
X112366892Y-112884488D01*
X112635477Y-113016940D01*
X112635487Y-113016944D01*
X112919044Y-113113198D01*
X112919048Y-113113199D01*
X112919057Y-113113202D01*
X113117609Y-113152696D01*
X113212761Y-113171624D01*
X113212762Y-113171624D01*
X113212772Y-113171626D01*
X113511600Y-113191212D01*
X113810428Y-113171626D01*
X114104143Y-113113202D01*
X114254980Y-113062000D01*
X114387712Y-113016944D01*
X114387722Y-113016940D01*
X114448866Y-112986787D01*
X114656306Y-112884489D01*
X114905306Y-112718113D01*
X115130459Y-112520659D01*
X115313448Y-112312000D01*
X124117037Y-112312000D01*
X124136874Y-112665239D01*
X124136876Y-112665251D01*
X124196138Y-113014041D01*
X124196140Y-113014050D01*
X124294081Y-113354012D01*
X124429472Y-113680877D01*
X124429473Y-113680879D01*
X124450628Y-113719157D01*
X125813881Y-112355906D01*
X126518172Y-112355906D01*
X126548616Y-112528567D01*
X126618059Y-112689553D01*
X126722756Y-112830185D01*
X126857062Y-112942882D01*
X127013739Y-113021568D01*
X127184338Y-113062000D01*
X127315684Y-113062000D01*
X127446139Y-113046752D01*
X127610891Y-112986787D01*
X127757373Y-112890445D01*
X127877688Y-112762918D01*
X127965350Y-112611082D01*
X128015634Y-112443123D01*
X128023271Y-112312000D01*
X128686213Y-112312000D01*
X130093370Y-113719157D01*
X130093371Y-113719157D01*
X130114523Y-113680885D01*
X130249918Y-113354012D01*
X130347859Y-113014050D01*
X130347861Y-113014041D01*
X130407123Y-112665251D01*
X130407125Y-112665239D01*
X130426962Y-112312000D01*
X130407125Y-111958760D01*
X130407123Y-111958748D01*
X130347861Y-111609958D01*
X130347859Y-111609949D01*
X130249918Y-111269987D01*
X130114523Y-110943114D01*
X130093370Y-110904840D01*
X128686213Y-112311999D01*
X128686213Y-112312000D01*
X128023271Y-112312000D01*
X128025828Y-112268094D01*
X127995384Y-112095433D01*
X127925941Y-111934447D01*
X127821244Y-111793815D01*
X127686938Y-111681118D01*
X127530261Y-111602432D01*
X127359662Y-111562000D01*
X127228316Y-111562000D01*
X127097861Y-111577248D01*
X126933109Y-111637213D01*
X126786627Y-111733555D01*
X126666312Y-111861082D01*
X126578650Y-112012918D01*
X126528366Y-112180877D01*
X126518172Y-112355906D01*
X125813881Y-112355906D01*
X125857786Y-112312001D01*
X125857786Y-112311999D01*
X124450628Y-110904841D01*
X124429478Y-110943109D01*
X124429477Y-110943112D01*
X124294081Y-111269987D01*
X124196140Y-111609949D01*
X124196138Y-111609958D01*
X124136876Y-111958748D01*
X124136874Y-111958760D01*
X124117037Y-112312000D01*
X115313448Y-112312000D01*
X115327913Y-112295506D01*
X115494289Y-112046506D01*
X115626741Y-111777920D01*
X115674505Y-111637213D01*
X115722998Y-111494355D01*
X115722998Y-111494354D01*
X115723002Y-111494343D01*
X115781426Y-111200628D01*
X115801012Y-110901800D01*
X115781426Y-110602972D01*
X115723002Y-110309257D01*
X115644086Y-110076776D01*
X115626744Y-110025687D01*
X115626740Y-110025677D01*
X115494288Y-109757092D01*
X115389669Y-109600519D01*
X115327913Y-109508094D01*
X115312596Y-109490628D01*
X125864841Y-109490628D01*
X127272000Y-110897786D01*
X128679158Y-109490628D01*
X128640879Y-109469473D01*
X128640877Y-109469472D01*
X128314012Y-109334081D01*
X127974050Y-109236140D01*
X127974041Y-109236138D01*
X127625251Y-109176876D01*
X127625239Y-109176874D01*
X127272000Y-109157037D01*
X126918760Y-109176874D01*
X126918748Y-109176876D01*
X126569958Y-109236138D01*
X126569949Y-109236140D01*
X126229987Y-109334081D01*
X125903112Y-109469477D01*
X125903109Y-109469478D01*
X125864841Y-109490628D01*
X115312596Y-109490628D01*
X115175308Y-109334081D01*
X115130459Y-109282940D01*
X114905307Y-109085488D01*
X114656307Y-108919111D01*
X114387722Y-108786659D01*
X114387712Y-108786655D01*
X114104155Y-108690401D01*
X114104135Y-108690396D01*
X113810438Y-108631975D01*
X113810429Y-108631974D01*
X113810428Y-108631974D01*
X113511600Y-108612388D01*
X113212772Y-108631974D01*
X113212771Y-108631974D01*
X113212761Y-108631975D01*
X112919064Y-108690396D01*
X112919044Y-108690401D01*
X112635487Y-108786655D01*
X112635477Y-108786659D01*
X112366892Y-108919111D01*
X112117892Y-109085488D01*
X111892740Y-109282940D01*
X111695288Y-109508092D01*
X111528911Y-109757092D01*
X111396459Y-110025677D01*
X111396455Y-110025687D01*
X111300201Y-110309244D01*
X111300196Y-110309264D01*
X111241775Y-110602961D01*
X111241774Y-110602973D01*
X111222188Y-110901800D01*
X110012100Y-110901800D01*
X110012100Y-109903677D01*
X110012213Y-109899933D01*
X110014760Y-109857815D01*
X110030097Y-109604258D01*
X110031001Y-109596826D01*
X110084056Y-109307316D01*
X110085846Y-109300050D01*
X110173416Y-109019030D01*
X110176065Y-109012048D01*
X110277504Y-108786659D01*
X110296868Y-108743634D01*
X110300345Y-108737011D01*
X110363842Y-108631975D01*
X110452612Y-108485130D01*
X110456852Y-108478986D01*
X110638393Y-108247265D01*
X110643337Y-108241684D01*
X110851484Y-108033537D01*
X110857065Y-108028593D01*
X111088786Y-107847052D01*
X111094934Y-107842810D01*
X111346815Y-107690542D01*
X111353434Y-107687068D01*
X111621848Y-107566265D01*
X111628830Y-107563616D01*
X111909850Y-107476046D01*
X111917116Y-107474256D01*
X112206626Y-107421201D01*
X112214058Y-107420297D01*
X112439172Y-107406680D01*
X112509734Y-107402413D01*
X112513478Y-107402300D01*
X136928938Y-107402300D01*
X136995977Y-107421985D01*
G37*
%TD.AperFunction*%
%TD*%
%TA.AperFunction,Conductor*%
%TO.N,GND*%
G36*
X191540493Y-107421985D02*
G01*
X191586248Y-107474789D01*
X191596192Y-107543947D01*
X191567167Y-107607503D01*
X191561141Y-107613974D01*
X191361075Y-107814040D01*
X191327296Y-107847819D01*
X191309209Y-107867956D01*
X191309209Y-107867955D01*
X191284080Y-107899139D01*
X191252433Y-107943025D01*
X191192663Y-108073899D01*
X191172978Y-108140937D01*
X191172976Y-108140942D01*
X191152500Y-108283363D01*
X191152500Y-117370173D01*
X191153950Y-117397227D01*
X191153950Y-117397228D01*
X191158231Y-117437036D01*
X191166885Y-117490445D01*
X191166885Y-117490447D01*
X191217166Y-117625252D01*
X191217168Y-117625257D01*
X191250653Y-117686580D01*
X191336877Y-117801761D01*
X191336881Y-117801765D01*
X191336886Y-117801771D01*
X192273819Y-118738704D01*
X192273820Y-118738704D01*
X192293956Y-118756791D01*
X192293955Y-118756791D01*
X192325139Y-118781920D01*
X192325142Y-118781922D01*
X192369026Y-118813567D01*
X192499903Y-118873338D01*
X192542675Y-118885897D01*
X192566937Y-118893022D01*
X192566942Y-118893023D01*
X192566946Y-118893024D01*
X192709362Y-118913500D01*
X194017070Y-118913500D01*
X194084109Y-118933185D01*
X194129864Y-118985989D01*
X194139808Y-119055147D01*
X194124457Y-119099500D01*
X194065335Y-119201901D01*
X193973455Y-119436008D01*
X193973449Y-119436027D01*
X193917488Y-119681210D01*
X193917487Y-119681215D01*
X193898695Y-119931995D01*
X193898695Y-119932004D01*
X193917487Y-120182784D01*
X193917488Y-120182789D01*
X193973449Y-120427972D01*
X193973451Y-120427981D01*
X193973453Y-120427986D01*
X194065335Y-120662098D01*
X194191084Y-120879901D01*
X194317735Y-121038717D01*
X194347893Y-121076534D01*
X194456117Y-121176950D01*
X194532251Y-121247592D01*
X194740048Y-121389265D01*
X194966639Y-121498386D01*
X195206963Y-121572516D01*
X195455651Y-121610000D01*
X195455652Y-121610000D01*
X195707148Y-121610000D01*
X195707149Y-121610000D01*
X195955837Y-121572516D01*
X196196161Y-121498386D01*
X196422753Y-121389265D01*
X196630549Y-121247592D01*
X196814910Y-121076530D01*
X196971716Y-120879901D01*
X197097465Y-120662098D01*
X197189347Y-120427986D01*
X197245311Y-120182794D01*
X197246625Y-120165257D01*
X197264105Y-119932004D01*
X197264105Y-119931995D01*
X197245312Y-119681215D01*
X197245311Y-119681210D01*
X197245311Y-119681206D01*
X197189347Y-119436014D01*
X197097465Y-119201902D01*
X197038343Y-119099500D01*
X197021870Y-119031600D01*
X197044722Y-118965573D01*
X197099644Y-118922383D01*
X197145730Y-118913500D01*
X199865200Y-118913500D01*
X199932239Y-118933185D01*
X199977994Y-118985989D01*
X199989200Y-119037500D01*
X199989200Y-121760800D01*
X200621100Y-121760800D01*
X200688139Y-121780485D01*
X200733894Y-121833289D01*
X200745100Y-121884800D01*
X200745100Y-122683134D01*
X200760400Y-122897062D01*
X200821209Y-123176595D01*
X200921191Y-123444658D01*
X201058291Y-123695738D01*
X201058292Y-123695739D01*
X201229739Y-123924765D01*
X201229749Y-123924777D01*
X201432022Y-124127050D01*
X201432034Y-124127060D01*
X201661060Y-124298507D01*
X201661061Y-124298508D01*
X201912142Y-124435608D01*
X201912141Y-124435608D01*
X202180204Y-124535590D01*
X202459737Y-124596399D01*
X202673666Y-124611700D01*
X202745100Y-124611700D01*
X202745100Y-120640200D01*
X202764785Y-120573161D01*
X202817589Y-120527406D01*
X202869100Y-120516200D01*
X203814900Y-120516200D01*
X203881939Y-120535885D01*
X203927694Y-120588689D01*
X203938900Y-120640200D01*
X203938900Y-124611700D01*
X204010334Y-124611700D01*
X204224262Y-124596399D01*
X204503795Y-124535590D01*
X204771858Y-124435608D01*
X205022938Y-124298508D01*
X205022939Y-124298507D01*
X205251965Y-124127060D01*
X205251977Y-124127050D01*
X205454250Y-123924777D01*
X205454260Y-123924765D01*
X205625707Y-123695739D01*
X205625708Y-123695738D01*
X205762808Y-123444658D01*
X205862790Y-123176595D01*
X205923599Y-122897062D01*
X205938900Y-122683134D01*
X205938900Y-122034930D01*
X205958585Y-121967891D01*
X206011389Y-121922136D01*
X206080547Y-121912192D01*
X206144103Y-121941217D01*
X206156243Y-121953302D01*
X206177449Y-121977551D01*
X206404211Y-122175858D01*
X206655376Y-122342168D01*
X206655381Y-122342171D01*
X206926467Y-122473516D01*
X206926479Y-122473521D01*
X207212644Y-122567561D01*
X207212655Y-122567563D01*
X207508824Y-122622626D01*
X207685992Y-122633000D01*
X207759499Y-122632998D01*
X207759500Y-122632998D01*
X207759500Y-119432000D01*
X207779185Y-119364961D01*
X207831989Y-119319206D01*
X207883500Y-119308000D01*
X208960500Y-119308000D01*
X209027539Y-119327685D01*
X209073294Y-119380489D01*
X209084500Y-119432000D01*
X209084500Y-122632999D01*
X209158006Y-122632999D01*
X209335175Y-122622626D01*
X209631344Y-122567563D01*
X209631355Y-122567561D01*
X209917520Y-122473521D01*
X209917532Y-122473516D01*
X210188618Y-122342171D01*
X210188623Y-122342168D01*
X210439788Y-122175858D01*
X210666551Y-121977551D01*
X210864858Y-121750788D01*
X211031168Y-121499623D01*
X211031171Y-121499618D01*
X211162516Y-121228532D01*
X211162521Y-121228520D01*
X211256561Y-120942355D01*
X211256563Y-120942344D01*
X211311626Y-120646175D01*
X211322000Y-120469008D01*
X211321999Y-120257033D01*
X211341683Y-120189993D01*
X211394487Y-120144238D01*
X211463645Y-120134294D01*
X211527201Y-120163319D01*
X211554831Y-120197605D01*
X211570649Y-120226574D01*
X211570650Y-120226575D01*
X211570653Y-120226580D01*
X211656877Y-120341761D01*
X211656880Y-120341764D01*
X211754264Y-120439148D01*
X212593819Y-121278704D01*
X212593820Y-121278704D01*
X212613956Y-121296791D01*
X212613955Y-121296791D01*
X212645139Y-121321920D01*
X212645142Y-121321922D01*
X212689026Y-121353567D01*
X212819903Y-121413338D01*
X212862675Y-121425897D01*
X212886937Y-121433022D01*
X212886942Y-121433023D01*
X212886946Y-121433024D01*
X213029362Y-121453500D01*
X213029365Y-121453500D01*
X225164173Y-121453500D01*
X225164177Y-121453500D01*
X225191216Y-121452051D01*
X225191223Y-121452050D01*
X225191227Y-121452050D01*
X225191228Y-121452050D01*
X225231036Y-121447769D01*
X225284448Y-121439114D01*
X225419257Y-121388832D01*
X225480580Y-121355347D01*
X225595761Y-121269123D01*
X226532697Y-120332188D01*
X226532697Y-120332187D01*
X226532704Y-120332181D01*
X226532704Y-120332180D01*
X226550791Y-120312044D01*
X226550791Y-120312045D01*
X226575920Y-120280861D01*
X226593102Y-120257033D01*
X226607567Y-120236974D01*
X226667338Y-120106097D01*
X226687023Y-120039058D01*
X226687024Y-120039054D01*
X226707500Y-119896638D01*
X226707500Y-118624962D01*
X226707499Y-118624945D01*
X226701388Y-118568110D01*
X226695948Y-118517510D01*
X226695946Y-118517506D01*
X226695946Y-118517503D01*
X226645667Y-118382702D01*
X226616792Y-118344130D01*
X226559442Y-118267520D01*
X226559437Y-118267515D01*
X226559432Y-118267509D01*
X225811603Y-117519680D01*
X225778118Y-117458357D01*
X225783102Y-117388665D01*
X225811601Y-117344320D01*
X226559442Y-116596480D01*
X226627254Y-116512332D01*
X226687024Y-116381454D01*
X226707500Y-116239038D01*
X226707500Y-113624962D01*
X226707499Y-113624945D01*
X226701570Y-113569805D01*
X226695948Y-113517510D01*
X226695946Y-113517506D01*
X226695946Y-113517503D01*
X226645667Y-113382702D01*
X226617441Y-113344997D01*
X226559442Y-113267520D01*
X226559437Y-113267515D01*
X226559432Y-113267509D01*
X225856576Y-112564653D01*
X233557900Y-112564653D01*
X233560580Y-112605550D01*
X233576890Y-112854387D01*
X233576892Y-112854399D01*
X233633534Y-113139159D01*
X233633538Y-113139174D01*
X233726870Y-113414119D01*
X233855288Y-113674526D01*
X234016606Y-113915954D01*
X234208050Y-114134255D01*
X234229579Y-114153135D01*
X234426353Y-114325701D01*
X234603400Y-114444000D01*
X234667779Y-114487017D01*
X234801787Y-114553102D01*
X234928190Y-114615437D01*
X235203139Y-114708770D01*
X235487917Y-114765416D01*
X235777653Y-114784406D01*
X236067389Y-114765416D01*
X236352167Y-114708770D01*
X236627116Y-114615437D01*
X236887530Y-114487015D01*
X237128953Y-114325701D01*
X237347255Y-114134255D01*
X237538701Y-113915953D01*
X237700015Y-113674530D01*
X237828437Y-113414116D01*
X237921770Y-113139167D01*
X237978416Y-112854389D01*
X237997406Y-112564653D01*
X237978416Y-112274917D01*
X237921770Y-111990139D01*
X237828437Y-111715190D01*
X237769897Y-111596483D01*
X237700020Y-111454786D01*
X237700011Y-111454771D01*
X237642765Y-111369096D01*
X237538701Y-111213353D01*
X237460936Y-111124679D01*
X237347255Y-110995050D01*
X237128954Y-110803606D01*
X236887526Y-110642288D01*
X236627119Y-110513870D01*
X236352174Y-110420538D01*
X236352168Y-110420536D01*
X236352167Y-110420536D01*
X236352165Y-110420535D01*
X236352159Y-110420534D01*
X236067399Y-110363892D01*
X236067389Y-110363890D01*
X235777653Y-110344900D01*
X235487917Y-110363890D01*
X235487911Y-110363891D01*
X235487906Y-110363892D01*
X235203146Y-110420534D01*
X235203131Y-110420538D01*
X234928186Y-110513870D01*
X234667786Y-110642285D01*
X234667771Y-110642294D01*
X234426351Y-110803606D01*
X234208050Y-110995050D01*
X234016606Y-111213351D01*
X233855294Y-111454771D01*
X233855285Y-111454786D01*
X233726870Y-111715186D01*
X233633538Y-111990131D01*
X233633534Y-111990146D01*
X233577277Y-112272970D01*
X233576890Y-112274917D01*
X233557900Y-112564653D01*
X225856576Y-112564653D01*
X225811603Y-112519680D01*
X225778118Y-112458357D01*
X225783102Y-112388665D01*
X225811601Y-112344320D01*
X226559442Y-111596480D01*
X226627254Y-111512332D01*
X226687024Y-111381454D01*
X226707500Y-111239038D01*
X226707500Y-108269823D01*
X226706051Y-108242784D01*
X226701769Y-108202964D01*
X226693114Y-108149552D01*
X226642832Y-108014743D01*
X226609347Y-107953420D01*
X226523123Y-107838239D01*
X226523117Y-107838233D01*
X226523113Y-107838228D01*
X226298866Y-107613981D01*
X226265381Y-107552658D01*
X226270365Y-107482966D01*
X226312237Y-107427033D01*
X226377701Y-107402616D01*
X226386547Y-107402300D01*
X256445708Y-107402300D01*
X256509722Y-107402300D01*
X256513466Y-107402413D01*
X256592942Y-107407220D01*
X256809139Y-107420297D01*
X256816573Y-107421201D01*
X257106083Y-107474256D01*
X257113353Y-107476047D01*
X257394364Y-107563614D01*
X257401351Y-107566265D01*
X257527899Y-107623219D01*
X257669758Y-107687065D01*
X257676388Y-107690545D01*
X257928265Y-107842810D01*
X257934421Y-107847057D01*
X258148456Y-108014743D01*
X258166123Y-108028584D01*
X258171723Y-108033545D01*
X258379853Y-108241675D01*
X258384814Y-108247275D01*
X258566339Y-108478975D01*
X258570589Y-108485134D01*
X258722854Y-108737011D01*
X258726337Y-108743646D01*
X258847134Y-109012048D01*
X258849788Y-109019044D01*
X258859504Y-109050222D01*
X258937350Y-109300040D01*
X258939143Y-109307316D01*
X258992198Y-109596826D01*
X258993102Y-109604265D01*
X259010987Y-109899932D01*
X259011100Y-109903677D01*
X259011100Y-125514785D01*
X258991415Y-125581824D01*
X258938611Y-125627579D01*
X258887100Y-125638785D01*
X257788784Y-125638785D01*
X257644862Y-125638785D01*
X257644859Y-125638785D01*
X257644857Y-125638786D01*
X257618665Y-125646475D01*
X257601391Y-125650233D01*
X257574367Y-125654119D01*
X257574364Y-125654120D01*
X257549533Y-125665460D01*
X257532964Y-125671640D01*
X257519994Y-125675448D01*
X257506770Y-125679332D01*
X257506768Y-125679332D01*
X257506768Y-125679333D01*
X257483805Y-125694090D01*
X257468284Y-125702565D01*
X257443451Y-125713906D01*
X257443448Y-125713908D01*
X257422823Y-125731780D01*
X257408663Y-125742380D01*
X257385699Y-125757138D01*
X257385694Y-125757142D01*
X257367816Y-125777774D01*
X257355312Y-125790278D01*
X257334680Y-125808156D01*
X257334676Y-125808161D01*
X257319918Y-125831125D01*
X257309318Y-125845285D01*
X257291446Y-125865910D01*
X257291444Y-125865913D01*
X257280103Y-125890746D01*
X257271628Y-125906267D01*
X257256871Y-125929230D01*
X257249178Y-125955426D01*
X257242998Y-125971995D01*
X257231658Y-125996826D01*
X257231657Y-125996829D01*
X257227771Y-126023853D01*
X257224013Y-126041127D01*
X257216324Y-126067319D01*
X257216323Y-126067327D01*
X257216323Y-132869384D01*
X257224013Y-132895575D01*
X257227770Y-132912844D01*
X257231658Y-132939878D01*
X257242996Y-132964704D01*
X257249178Y-132981279D01*
X257256869Y-133007472D01*
X257256870Y-133007474D01*
X257271629Y-133030440D01*
X257280105Y-133045962D01*
X257291446Y-133070794D01*
X257303260Y-133084428D01*
X257309319Y-133091421D01*
X257319918Y-133105581D01*
X257334676Y-133128544D01*
X257334680Y-133128549D01*
X257355311Y-133146427D01*
X257367815Y-133158931D01*
X257385694Y-133179563D01*
X257385695Y-133179564D01*
X257408667Y-133194326D01*
X257422819Y-133204921D01*
X257443450Y-133222798D01*
X257466722Y-133233426D01*
X257468274Y-133234135D01*
X257483801Y-133242613D01*
X257506770Y-133257374D01*
X257532959Y-133265064D01*
X257549536Y-133271247D01*
X257574361Y-133282584D01*
X257574362Y-133282584D01*
X257574366Y-133282586D01*
X257601387Y-133286471D01*
X257618669Y-133290230D01*
X257644862Y-133297921D01*
X257681024Y-133297921D01*
X258887100Y-133297921D01*
X258954139Y-133317606D01*
X258999894Y-133370410D01*
X259011100Y-133421921D01*
X259011100Y-141603110D01*
X259011094Y-141603199D01*
X259011099Y-141670662D01*
X259010908Y-141675529D01*
X258995399Y-141872767D01*
X258992357Y-141891987D01*
X258947886Y-142077269D01*
X258941873Y-142095777D01*
X258868966Y-142271811D01*
X258860132Y-142289150D01*
X258760582Y-142451609D01*
X258749144Y-142467353D01*
X258625400Y-142612240D01*
X258611640Y-142626000D01*
X258466753Y-142749744D01*
X258451009Y-142761182D01*
X258288550Y-142860732D01*
X258271211Y-142869566D01*
X258095177Y-142942473D01*
X258076669Y-142948485D01*
X257891388Y-142992956D01*
X257872173Y-142995999D01*
X257784462Y-143002895D01*
X257674927Y-143011507D01*
X257670063Y-143011698D01*
X257617220Y-143011695D01*
X257606601Y-143011695D01*
X257606600Y-143011695D01*
X257602755Y-143011695D01*
X257602658Y-143011701D01*
X257393930Y-143011704D01*
X257393659Y-143011705D01*
X256996324Y-143038890D01*
X256837388Y-143049764D01*
X256837387Y-143049764D01*
X256663853Y-143073618D01*
X256285015Y-143125695D01*
X255739109Y-143239144D01*
X255739104Y-143239145D01*
X255739101Y-143239146D01*
X255360786Y-143345150D01*
X255202217Y-143389581D01*
X254676843Y-143576306D01*
X254598779Y-143610215D01*
X254165440Y-143798445D01*
X253670376Y-144054970D01*
X253670377Y-144054970D01*
X253437779Y-144196418D01*
X253193984Y-144344675D01*
X253193980Y-144344677D01*
X253193978Y-144344679D01*
X252738471Y-144666214D01*
X252305960Y-145018089D01*
X252305961Y-145018088D01*
X251898464Y-145398664D01*
X251517888Y-145806161D01*
X251517889Y-145806160D01*
X251166014Y-146238671D01*
X250870489Y-146657331D01*
X250844475Y-146694184D01*
X250753613Y-146843598D01*
X250575664Y-147136220D01*
X250554770Y-147170577D01*
X250554770Y-147170576D01*
X250298245Y-147665640D01*
X250228080Y-147827172D01*
X250078888Y-148170640D01*
X250076105Y-148177046D01*
X249889381Y-148702417D01*
X249805512Y-149001737D01*
X249738944Y-149239309D01*
X249625495Y-149785215D01*
X249595188Y-150005690D01*
X249557392Y-150280646D01*
X249549564Y-150337590D01*
X249514154Y-150855153D01*
X249511505Y-150893864D01*
X249511500Y-151136849D01*
X249511500Y-151172643D01*
X249511499Y-151248522D01*
X249511500Y-151248535D01*
X249511500Y-159992710D01*
X249511494Y-159992799D01*
X249511499Y-160060262D01*
X249511308Y-160065129D01*
X249495799Y-160262367D01*
X249492757Y-160281587D01*
X249448286Y-160466869D01*
X249442273Y-160485377D01*
X249369366Y-160661411D01*
X249360532Y-160678750D01*
X249260982Y-160841209D01*
X249249544Y-160856953D01*
X249125800Y-161001840D01*
X249112040Y-161015600D01*
X248967153Y-161139344D01*
X248951409Y-161150782D01*
X248788950Y-161250332D01*
X248771611Y-161259166D01*
X248595577Y-161332073D01*
X248577069Y-161338086D01*
X248391787Y-161382557D01*
X248372567Y-161385599D01*
X248175329Y-161401108D01*
X248170462Y-161401299D01*
X248103084Y-161401294D01*
X248102996Y-161401300D01*
X212607500Y-161401300D01*
X212540461Y-161381615D01*
X212494706Y-161328811D01*
X212483500Y-161277300D01*
X212483500Y-157125706D01*
X214159331Y-157125706D01*
X214290586Y-157191624D01*
X214290587Y-157191625D01*
X214613781Y-157309258D01*
X214948434Y-157388572D01*
X215290043Y-157428499D01*
X215290044Y-157428500D01*
X215633958Y-157428500D01*
X215633958Y-157428499D01*
X215975566Y-157388572D01*
X215975568Y-157388572D01*
X216310220Y-157309258D01*
X216633414Y-157191625D01*
X216633415Y-157191624D01*
X216764669Y-157125706D01*
X222359330Y-157125706D01*
X222490585Y-157191624D01*
X222490586Y-157191625D01*
X222813780Y-157309258D01*
X223148433Y-157388572D01*
X223490042Y-157428499D01*
X223490043Y-157428500D01*
X223833957Y-157428500D01*
X223833957Y-157428499D01*
X224175565Y-157388572D01*
X224175567Y-157388572D01*
X224510219Y-157309258D01*
X224833413Y-157191625D01*
X224833414Y-157191624D01*
X224964668Y-157125706D01*
X224964668Y-157125705D01*
X223662000Y-155823038D01*
X222359330Y-157125705D01*
X222359330Y-157125706D01*
X216764669Y-157125706D01*
X216764669Y-157125705D01*
X215462001Y-155823038D01*
X214159331Y-157125705D01*
X214159331Y-157125706D01*
X212483500Y-157125706D01*
X212483500Y-155625899D01*
X212503185Y-155558860D01*
X212555989Y-155513105D01*
X212625147Y-155503161D01*
X212688703Y-155532186D01*
X212721359Y-155576785D01*
X212809603Y-155781358D01*
X212809604Y-155781359D01*
X214030150Y-154560813D01*
X214763501Y-154560813D01*
X214804096Y-154725511D01*
X214882925Y-154875707D01*
X214995408Y-155002675D01*
X215135008Y-155099033D01*
X215293611Y-155159184D01*
X215419751Y-155174500D01*
X215504251Y-155174500D01*
X215630391Y-155159184D01*
X215788994Y-155099033D01*
X215928594Y-155002675D01*
X216041077Y-154875707D01*
X216119906Y-154725511D01*
X216160501Y-154560813D01*
X216160501Y-154476001D01*
X216809039Y-154476001D01*
X218114397Y-155781359D01*
X218241145Y-155487527D01*
X218339784Y-155158048D01*
X218339787Y-155158038D01*
X218399505Y-154819356D01*
X218399506Y-154819345D01*
X218419505Y-154476003D01*
X220704496Y-154476003D01*
X220724494Y-154819345D01*
X220724495Y-154819356D01*
X220784213Y-155158038D01*
X220784216Y-155158048D01*
X220882855Y-155487527D01*
X221009602Y-155781358D01*
X221009603Y-155781359D01*
X222230149Y-154560813D01*
X222963500Y-154560813D01*
X223004095Y-154725511D01*
X223082924Y-154875707D01*
X223195407Y-155002675D01*
X223335007Y-155099033D01*
X223493610Y-155159184D01*
X223619750Y-155174500D01*
X223704250Y-155174500D01*
X223830390Y-155159184D01*
X223988993Y-155099033D01*
X224128593Y-155002675D01*
X224241076Y-154875707D01*
X224319905Y-154725511D01*
X224360500Y-154560813D01*
X224360500Y-154476001D01*
X225009038Y-154476001D01*
X226314396Y-155781359D01*
X226441144Y-155487527D01*
X226539783Y-155158048D01*
X226539786Y-155158038D01*
X226599504Y-154819356D01*
X226599505Y-154819345D01*
X226619504Y-154476003D01*
X226619504Y-154475996D01*
X226599505Y-154132654D01*
X226599504Y-154132643D01*
X226539786Y-153793961D01*
X226539783Y-153793951D01*
X226441144Y-153464472D01*
X226314396Y-153170639D01*
X225009038Y-154475999D01*
X225009038Y-154476001D01*
X224360500Y-154476001D01*
X224360500Y-154391187D01*
X224319905Y-154226489D01*
X224241076Y-154076293D01*
X224128593Y-153949325D01*
X223988993Y-153852967D01*
X223830390Y-153792816D01*
X223704250Y-153777500D01*
X223619750Y-153777500D01*
X223493610Y-153792816D01*
X223335007Y-153852967D01*
X223195407Y-153949325D01*
X223082924Y-154076293D01*
X223004095Y-154226489D01*
X222963500Y-154391187D01*
X222963500Y-154560813D01*
X222230149Y-154560813D01*
X222314962Y-154476000D01*
X222314962Y-154475999D01*
X221009602Y-153170640D01*
X220882855Y-153464472D01*
X220784216Y-153793951D01*
X220784213Y-153793961D01*
X220724495Y-154132643D01*
X220724494Y-154132654D01*
X220704496Y-154475996D01*
X220704496Y-154476003D01*
X218419505Y-154476003D01*
X218419505Y-154475996D01*
X218399506Y-154132654D01*
X218399505Y-154132643D01*
X218339787Y-153793961D01*
X218339784Y-153793951D01*
X218241145Y-153464472D01*
X218114397Y-153170639D01*
X216809039Y-154475999D01*
X216809039Y-154476001D01*
X216160501Y-154476001D01*
X216160501Y-154391187D01*
X216119906Y-154226489D01*
X216041077Y-154076293D01*
X215928594Y-153949325D01*
X215788994Y-153852967D01*
X215630391Y-153792816D01*
X215504251Y-153777500D01*
X215419751Y-153777500D01*
X215293611Y-153792816D01*
X215135008Y-153852967D01*
X214995408Y-153949325D01*
X214882925Y-154076293D01*
X214804096Y-154226489D01*
X214763501Y-154391187D01*
X214763501Y-154560813D01*
X214030150Y-154560813D01*
X214114963Y-154476000D01*
X214114963Y-154475999D01*
X212809603Y-153170640D01*
X212721359Y-153375214D01*
X212676731Y-153428974D01*
X212610123Y-153450072D01*
X212542682Y-153431810D01*
X212495821Y-153379986D01*
X212483500Y-153326100D01*
X212483500Y-151976000D01*
X214309039Y-151976000D01*
X215462001Y-153128962D01*
X216614963Y-151976000D01*
X222509038Y-151976000D01*
X223662000Y-153128962D01*
X224814962Y-151976000D01*
X223694115Y-150855153D01*
X241298550Y-150855153D01*
X241317540Y-151144887D01*
X241317542Y-151144899D01*
X241374184Y-151429659D01*
X241374188Y-151429674D01*
X241467520Y-151704619D01*
X241595938Y-151965026D01*
X241616594Y-151995940D01*
X241734938Y-152173054D01*
X241757256Y-152206454D01*
X241948700Y-152424755D01*
X242103877Y-152560841D01*
X242167003Y-152616201D01*
X242391059Y-152765911D01*
X242408429Y-152777517D01*
X242565106Y-152854781D01*
X242668840Y-152905937D01*
X242943789Y-152999270D01*
X243228567Y-153055916D01*
X243518303Y-153074906D01*
X243808039Y-153055916D01*
X244092817Y-152999270D01*
X244367766Y-152905937D01*
X244628180Y-152777515D01*
X244869603Y-152616201D01*
X245087905Y-152424755D01*
X245279351Y-152206453D01*
X245440665Y-151965030D01*
X245569087Y-151704616D01*
X245662420Y-151429667D01*
X245719066Y-151144889D01*
X245738056Y-150855153D01*
X245719066Y-150565417D01*
X245662420Y-150280639D01*
X245569087Y-150005690D01*
X245491816Y-149849000D01*
X245440670Y-149745286D01*
X245440661Y-149745271D01*
X245377480Y-149650714D01*
X245279351Y-149503853D01*
X245237405Y-149456023D01*
X245087905Y-149285550D01*
X244881283Y-149104348D01*
X244869603Y-149094105D01*
X244652925Y-148949325D01*
X244628176Y-148932788D01*
X244367769Y-148804370D01*
X244092824Y-148711038D01*
X244092818Y-148711036D01*
X244092817Y-148711036D01*
X244092815Y-148711035D01*
X244092809Y-148711034D01*
X243808049Y-148654392D01*
X243808039Y-148654390D01*
X243518303Y-148635400D01*
X243228567Y-148654390D01*
X243228561Y-148654391D01*
X243228556Y-148654392D01*
X242943796Y-148711034D01*
X242943781Y-148711038D01*
X242668836Y-148804370D01*
X242408436Y-148932785D01*
X242408421Y-148932794D01*
X242167001Y-149094106D01*
X241948700Y-149285550D01*
X241757256Y-149503851D01*
X241595944Y-149745271D01*
X241595935Y-149745286D01*
X241467520Y-150005686D01*
X241374188Y-150280631D01*
X241374184Y-150280646D01*
X241317542Y-150565406D01*
X241317540Y-150565418D01*
X241298550Y-150855153D01*
X223694115Y-150855153D01*
X223662000Y-150823038D01*
X222509038Y-151976000D01*
X216614963Y-151976000D01*
X215462001Y-150823038D01*
X214309039Y-151976000D01*
X212483500Y-151976000D01*
X212483500Y-150625899D01*
X212503185Y-150558860D01*
X212555989Y-150513105D01*
X212625147Y-150503161D01*
X212688703Y-150532186D01*
X212721359Y-150576785D01*
X212809603Y-150781358D01*
X212809604Y-150781359D01*
X214030150Y-149560813D01*
X214763501Y-149560813D01*
X214804096Y-149725511D01*
X214882925Y-149875707D01*
X214995408Y-150002675D01*
X215135008Y-150099033D01*
X215293611Y-150159184D01*
X215419751Y-150174500D01*
X215504251Y-150174500D01*
X215630391Y-150159184D01*
X215788994Y-150099033D01*
X215928594Y-150002675D01*
X216041077Y-149875707D01*
X216119906Y-149725511D01*
X216160501Y-149560813D01*
X216160501Y-149476001D01*
X216809039Y-149476001D01*
X218114397Y-150781359D01*
X218241145Y-150487527D01*
X218339784Y-150158048D01*
X218339787Y-150158038D01*
X218399505Y-149819356D01*
X218399506Y-149819345D01*
X218419505Y-149476003D01*
X220704496Y-149476003D01*
X220724494Y-149819345D01*
X220724495Y-149819356D01*
X220784213Y-150158038D01*
X220784216Y-150158048D01*
X220882855Y-150487527D01*
X221009602Y-150781358D01*
X221009603Y-150781359D01*
X222230149Y-149560813D01*
X222963500Y-149560813D01*
X223004095Y-149725511D01*
X223082924Y-149875707D01*
X223195407Y-150002675D01*
X223335007Y-150099033D01*
X223493610Y-150159184D01*
X223619750Y-150174500D01*
X223704250Y-150174500D01*
X223830390Y-150159184D01*
X223988993Y-150099033D01*
X224128593Y-150002675D01*
X224241076Y-149875707D01*
X224319905Y-149725511D01*
X224360500Y-149560813D01*
X224360500Y-149476001D01*
X225009038Y-149476001D01*
X226314396Y-150781359D01*
X226441144Y-150487527D01*
X226539783Y-150158048D01*
X226539786Y-150158038D01*
X226599504Y-149819356D01*
X226599505Y-149819345D01*
X226619504Y-149476003D01*
X226619504Y-149475996D01*
X226599505Y-149132654D01*
X226599504Y-149132643D01*
X226539786Y-148793961D01*
X226539783Y-148793951D01*
X226441144Y-148464472D01*
X226314396Y-148170639D01*
X225009038Y-149475999D01*
X225009038Y-149476001D01*
X224360500Y-149476001D01*
X224360500Y-149391187D01*
X224319905Y-149226489D01*
X224241076Y-149076293D01*
X224128593Y-148949325D01*
X223988993Y-148852967D01*
X223830390Y-148792816D01*
X223704250Y-148777500D01*
X223619750Y-148777500D01*
X223493610Y-148792816D01*
X223335007Y-148852967D01*
X223195407Y-148949325D01*
X223082924Y-149076293D01*
X223004095Y-149226489D01*
X222963500Y-149391187D01*
X222963500Y-149560813D01*
X222230149Y-149560813D01*
X222314962Y-149476000D01*
X222314962Y-149475999D01*
X221009602Y-148170640D01*
X220882855Y-148464472D01*
X220784216Y-148793951D01*
X220784213Y-148793961D01*
X220724495Y-149132643D01*
X220724494Y-149132654D01*
X220704496Y-149475996D01*
X220704496Y-149476003D01*
X218419505Y-149476003D01*
X218419505Y-149475996D01*
X218399506Y-149132654D01*
X218399505Y-149132643D01*
X218339787Y-148793961D01*
X218339784Y-148793951D01*
X218241145Y-148464472D01*
X218114397Y-148170639D01*
X216809039Y-149475999D01*
X216809039Y-149476001D01*
X216160501Y-149476001D01*
X216160501Y-149391187D01*
X216119906Y-149226489D01*
X216041077Y-149076293D01*
X215928594Y-148949325D01*
X215788994Y-148852967D01*
X215630391Y-148792816D01*
X215504251Y-148777500D01*
X215419751Y-148777500D01*
X215293611Y-148792816D01*
X215135008Y-148852967D01*
X214995408Y-148949325D01*
X214882925Y-149076293D01*
X214804096Y-149226489D01*
X214763501Y-149391187D01*
X214763501Y-149560813D01*
X214030150Y-149560813D01*
X214114963Y-149476000D01*
X214114963Y-149475999D01*
X212809603Y-148170640D01*
X212721359Y-148375214D01*
X212676731Y-148428974D01*
X212610123Y-148450072D01*
X212542682Y-148431810D01*
X212495821Y-148379986D01*
X212483500Y-148326100D01*
X212483500Y-146826293D01*
X214159332Y-146826293D01*
X215462001Y-148128962D01*
X215462002Y-148128962D01*
X216764668Y-146826293D01*
X222359331Y-146826293D01*
X223662000Y-148128962D01*
X223662001Y-148128962D01*
X224964667Y-146826293D01*
X224833403Y-146760370D01*
X224510219Y-146642741D01*
X224175566Y-146563427D01*
X223833957Y-146523500D01*
X223490043Y-146523500D01*
X223148434Y-146563427D01*
X223148432Y-146563427D01*
X222813780Y-146642741D01*
X222490592Y-146760372D01*
X222359331Y-146826293D01*
X216764668Y-146826293D01*
X216633404Y-146760370D01*
X216310220Y-146642741D01*
X215975567Y-146563427D01*
X215633958Y-146523500D01*
X215290044Y-146523500D01*
X214948435Y-146563427D01*
X214948433Y-146563427D01*
X214613781Y-146642741D01*
X214290593Y-146760372D01*
X214159332Y-146826293D01*
X212483500Y-146826293D01*
X212483500Y-140881500D01*
X212503185Y-140814461D01*
X212555989Y-140768706D01*
X212607500Y-140757500D01*
X231260173Y-140757500D01*
X231260177Y-140757500D01*
X231287216Y-140756051D01*
X231287223Y-140756050D01*
X231287227Y-140756050D01*
X231287228Y-140756050D01*
X231327036Y-140751769D01*
X231380448Y-140743114D01*
X231515257Y-140692832D01*
X231576580Y-140659347D01*
X231691761Y-140573123D01*
X232628697Y-139636188D01*
X232628697Y-139636187D01*
X232628704Y-139636181D01*
X232628704Y-139636180D01*
X232646791Y-139616044D01*
X232646791Y-139616045D01*
X232671920Y-139584861D01*
X232676362Y-139578699D01*
X232703567Y-139540974D01*
X232763338Y-139410097D01*
X232783023Y-139343058D01*
X232783024Y-139343054D01*
X232803500Y-139200638D01*
X232803500Y-128081823D01*
X232802051Y-128054784D01*
X232797769Y-128014964D01*
X232789114Y-127961552D01*
X232738832Y-127826743D01*
X232705347Y-127765420D01*
X232619123Y-127650239D01*
X232619117Y-127650233D01*
X232619113Y-127650228D01*
X231682181Y-126713296D01*
X231682180Y-126713296D01*
X231677250Y-126708868D01*
X231662044Y-126695209D01*
X231662045Y-126695209D01*
X231630861Y-126670080D01*
X231586974Y-126638433D01*
X231456100Y-126578663D01*
X231389063Y-126558978D01*
X231389057Y-126558976D01*
X231303604Y-126546690D01*
X231246638Y-126538500D01*
X207935823Y-126538500D01*
X207908784Y-126539949D01*
X207908776Y-126539949D01*
X207908773Y-126539950D01*
X207908772Y-126539950D01*
X207868964Y-126544231D01*
X207815554Y-126552885D01*
X207815552Y-126552885D01*
X207680747Y-126603166D01*
X207619422Y-126636651D01*
X207504240Y-126722876D01*
X207504228Y-126722886D01*
X206567296Y-127659819D01*
X206549209Y-127679956D01*
X206549209Y-127679955D01*
X206524080Y-127711139D01*
X206492433Y-127755025D01*
X206432663Y-127885899D01*
X206412978Y-127952937D01*
X206412976Y-127952942D01*
X206392500Y-128095363D01*
X206392500Y-134462886D01*
X206372815Y-134529925D01*
X206320011Y-134575680D01*
X206250853Y-134585624D01*
X206229788Y-134580688D01*
X206075355Y-134529938D01*
X206075344Y-134529936D01*
X205779175Y-134474873D01*
X205602008Y-134464500D01*
X205528500Y-134464500D01*
X205528500Y-137665500D01*
X205508815Y-137732539D01*
X205456011Y-137778294D01*
X205404500Y-137789500D01*
X201975602Y-137789500D01*
X201976373Y-137802673D01*
X201976374Y-137802679D01*
X202027158Y-138075835D01*
X202020059Y-138145343D01*
X201976508Y-138199979D01*
X201910332Y-138222396D01*
X201905247Y-138222500D01*
X201738800Y-138222500D01*
X201671761Y-138202815D01*
X201626006Y-138150011D01*
X201614800Y-138098500D01*
X201614800Y-136464499D01*
X201975601Y-136464499D01*
X201975602Y-136464500D01*
X204203500Y-136464500D01*
X204203500Y-134464500D01*
X204203499Y-134464499D01*
X204129994Y-134464501D01*
X203952824Y-134474873D01*
X203656655Y-134529936D01*
X203656644Y-134529938D01*
X203370479Y-134623978D01*
X203370467Y-134623983D01*
X203099381Y-134755328D01*
X203099376Y-134755331D01*
X202848211Y-134921641D01*
X202621448Y-135119948D01*
X202423141Y-135346711D01*
X202256831Y-135597876D01*
X202256828Y-135597881D01*
X202125483Y-135868967D01*
X202125478Y-135868979D01*
X202031438Y-136155144D01*
X202031436Y-136155155D01*
X201976374Y-136451320D01*
X201976373Y-136451326D01*
X201975601Y-136464499D01*
X201614800Y-136464499D01*
X201614800Y-135375200D01*
X200982900Y-135375200D01*
X200915861Y-135355515D01*
X200870106Y-135302711D01*
X200858900Y-135251200D01*
X200858900Y-134452866D01*
X200843599Y-134238937D01*
X200782790Y-133959404D01*
X200682808Y-133691341D01*
X200545708Y-133440261D01*
X200545707Y-133440260D01*
X200374260Y-133211234D01*
X200374250Y-133211222D01*
X200171977Y-133008949D01*
X200171965Y-133008939D01*
X199942939Y-132837492D01*
X199942938Y-132837491D01*
X199691857Y-132700391D01*
X199691858Y-132700391D01*
X199423795Y-132600409D01*
X199144262Y-132539600D01*
X198930334Y-132524300D01*
X198858900Y-132524300D01*
X198858900Y-136495800D01*
X198839215Y-136562839D01*
X198786411Y-136608594D01*
X198734900Y-136619800D01*
X197789100Y-136619800D01*
X197722061Y-136600115D01*
X197676306Y-136547311D01*
X197665100Y-136495800D01*
X197665100Y-132524300D01*
X197593666Y-132524300D01*
X197379737Y-132539600D01*
X197100204Y-132600409D01*
X196832141Y-132700391D01*
X196581061Y-132837491D01*
X196581060Y-132837492D01*
X196352034Y-133008939D01*
X196352022Y-133008949D01*
X196149749Y-133211222D01*
X196149739Y-133211234D01*
X195978292Y-133440260D01*
X195978291Y-133440261D01*
X195841191Y-133691341D01*
X195741209Y-133959404D01*
X195680400Y-134238937D01*
X195665100Y-134452866D01*
X195665100Y-135251200D01*
X195645415Y-135318239D01*
X195592611Y-135363994D01*
X195541100Y-135375200D01*
X194909200Y-135375200D01*
X194909200Y-138646780D01*
X194889515Y-138713819D01*
X194836711Y-138759574D01*
X194796435Y-138770270D01*
X194674680Y-138781346D01*
X194621842Y-138793914D01*
X194606711Y-138797514D01*
X194606708Y-138797515D01*
X194472897Y-138850391D01*
X194472884Y-138850397D01*
X193976071Y-139134277D01*
X193976067Y-139134280D01*
X193871832Y-139213340D01*
X193871816Y-139213354D01*
X193826522Y-139258043D01*
X193826521Y-139258045D01*
X193746051Y-139361231D01*
X190331900Y-145154374D01*
X190280904Y-145202136D01*
X190212181Y-145214744D01*
X190147551Y-145188197D01*
X190144541Y-145185707D01*
X190032175Y-145089738D01*
X190032173Y-145089737D01*
X189824089Y-144962222D01*
X189598618Y-144868830D01*
X189598621Y-144868830D01*
X189382461Y-144816934D01*
X189361302Y-144811854D01*
X189361300Y-144811853D01*
X189361297Y-144811853D01*
X189118000Y-144792706D01*
X188874702Y-144811853D01*
X188637380Y-144868830D01*
X188411910Y-144962222D01*
X188203826Y-145089737D01*
X188203823Y-145089738D01*
X188018241Y-145248241D01*
X187859738Y-145433823D01*
X187859737Y-145433826D01*
X187732222Y-145641910D01*
X187638830Y-145867380D01*
X187581853Y-146104702D01*
X187562706Y-146348000D01*
X187581853Y-146591297D01*
X187581853Y-146591300D01*
X187581854Y-146591302D01*
X187638271Y-146826293D01*
X187638830Y-146828619D01*
X187732222Y-147054089D01*
X187859737Y-147262173D01*
X187859738Y-147262176D01*
X187888993Y-147296429D01*
X188018241Y-147447759D01*
X188098611Y-147516401D01*
X188203823Y-147606261D01*
X188203826Y-147606262D01*
X188411911Y-147733777D01*
X188411914Y-147733779D01*
X188601476Y-147812297D01*
X188655880Y-147856137D01*
X188677945Y-147922432D01*
X188660852Y-147989816D01*
X185675181Y-153055916D01*
X185659099Y-153083204D01*
X185644054Y-153113091D01*
X185644053Y-153113093D01*
X185644053Y-153113092D01*
X185632910Y-153139433D01*
X185618271Y-153174036D01*
X185611234Y-153194310D01*
X185607301Y-153205647D01*
X185607299Y-153205652D01*
X185491818Y-153626427D01*
X185391305Y-153992658D01*
X185096284Y-155067608D01*
X185096283Y-155067614D01*
X185096283Y-155067613D01*
X185089580Y-155100397D01*
X185089580Y-155100398D01*
X185080640Y-155165956D01*
X185078321Y-155199343D01*
X185074905Y-156279012D01*
X185074186Y-156506400D01*
X185074181Y-156507997D01*
X185066221Y-159023340D01*
X185065491Y-159254184D01*
X185060678Y-160775015D01*
X185060401Y-160862376D01*
X185061786Y-160889616D01*
X185061786Y-160889618D01*
X185066001Y-160929720D01*
X185066001Y-160929719D01*
X185066002Y-160929726D01*
X185066003Y-160929734D01*
X185068395Y-160944683D01*
X185074614Y-160983551D01*
X185074615Y-160983557D01*
X185124682Y-161118441D01*
X185124684Y-161118445D01*
X185158071Y-161179819D01*
X185158070Y-161179819D01*
X185175476Y-161203146D01*
X185199790Y-161268648D01*
X185184831Y-161336898D01*
X185135348Y-161386226D01*
X185076092Y-161401300D01*
X173358049Y-161401300D01*
X173291010Y-161381615D01*
X173245255Y-161328811D01*
X173235311Y-161259653D01*
X173257470Y-161204775D01*
X173267567Y-161190774D01*
X173327338Y-161059897D01*
X173344386Y-161001840D01*
X173347022Y-160992863D01*
X173347023Y-160992857D01*
X173347024Y-160992854D01*
X173367500Y-160850438D01*
X173367500Y-150928665D01*
X173357787Y-150830047D01*
X173348348Y-150782594D01*
X173319582Y-150687765D01*
X172631352Y-149026232D01*
X172622848Y-149010322D01*
X172584642Y-148938845D01*
X172584635Y-148938833D01*
X172579214Y-148930721D01*
X172557756Y-148898607D01*
X172494893Y-148822009D01*
X172477253Y-148804369D01*
X172404507Y-148731621D01*
X172401815Y-148728970D01*
X172398968Y-148726187D01*
X172282485Y-148641740D01*
X172282481Y-148641738D01*
X172282480Y-148641737D01*
X172220652Y-148609195D01*
X172202277Y-148602660D01*
X172085094Y-148560983D01*
X171941443Y-148552917D01*
X171941429Y-148552917D01*
X171888704Y-148557500D01*
X171874510Y-148558734D01*
X171873435Y-148558780D01*
X171871825Y-148558966D01*
X171731724Y-148591697D01*
X171731721Y-148591699D01*
X171731720Y-148591699D01*
X171731718Y-148591700D01*
X171654522Y-148635400D01*
X171606511Y-148662578D01*
X171606499Y-148662586D01*
X171551225Y-148705299D01*
X171551221Y-148705302D01*
X171451054Y-148808585D01*
X171451051Y-148808590D01*
X171384048Y-148935892D01*
X171384041Y-148935909D01*
X171360630Y-149001735D01*
X171352681Y-149041171D01*
X171320137Y-149102998D01*
X171259332Y-149137416D01*
X171189573Y-149133497D01*
X171143445Y-149104348D01*
X170135231Y-148096134D01*
X170117184Y-148073242D01*
X170117180Y-148073236D01*
X170056259Y-147973821D01*
X169897759Y-147788241D01*
X169775063Y-147683449D01*
X169712176Y-147629738D01*
X169712173Y-147629737D01*
X169612755Y-147568813D01*
X169589864Y-147550767D01*
X169243125Y-147204028D01*
X169243107Y-147204011D01*
X169158989Y-147136224D01*
X169158984Y-147136220D01*
X169158982Y-147136219D01*
X169158980Y-147136217D01*
X169114633Y-147107716D01*
X169059434Y-147080085D01*
X169008298Y-147032475D01*
X168991019Y-146964776D01*
X169013084Y-146898482D01*
X169067488Y-146854641D01*
X169107989Y-146845397D01*
X169140024Y-146843598D01*
X169140037Y-146843596D01*
X169477754Y-146786216D01*
X169477762Y-146786214D01*
X169806934Y-146691380D01*
X170123427Y-146560286D01*
X170131571Y-146555784D01*
X168798000Y-145222214D01*
X167464427Y-146555784D01*
X167472573Y-146560287D01*
X167472575Y-146560288D01*
X167789064Y-146691380D01*
X168118237Y-146786214D01*
X168118245Y-146786216D01*
X168455962Y-146843596D01*
X168455974Y-146843598D01*
X168489856Y-146845501D01*
X168555686Y-146868914D01*
X168598408Y-146924200D01*
X168604458Y-146993807D01*
X168571916Y-147055635D01*
X168532831Y-147081187D01*
X168533418Y-147082471D01*
X168529394Y-147084308D01*
X168468059Y-147117799D01*
X168352877Y-147204024D01*
X168352865Y-147204034D01*
X168006127Y-147550772D01*
X167983236Y-147568818D01*
X167883826Y-147629737D01*
X167883823Y-147629738D01*
X167698241Y-147788241D01*
X167539738Y-147973823D01*
X167539737Y-147973826D01*
X167478818Y-148073236D01*
X167460772Y-148096127D01*
X167239344Y-148317556D01*
X167066532Y-148490368D01*
X166677099Y-148879800D01*
X166624114Y-148932785D01*
X166467739Y-149089159D01*
X166406416Y-149122643D01*
X166336724Y-149117659D01*
X166280791Y-149075787D01*
X166256374Y-149010322D01*
X166256259Y-149008530D01*
X166249685Y-148891469D01*
X166249685Y-148884517D01*
X166251457Y-148852967D01*
X166265319Y-148606123D01*
X166266094Y-148599241D01*
X166312803Y-148324327D01*
X166314346Y-148317567D01*
X166391540Y-148049624D01*
X166393832Y-148043072D01*
X166500537Y-147785460D01*
X166503552Y-147779199D01*
X166507312Y-147772396D01*
X166638436Y-147535145D01*
X166642119Y-147529283D01*
X166803490Y-147301853D01*
X166807802Y-147296445D01*
X166900393Y-147192838D01*
X166905502Y-147187032D01*
X166983290Y-147065992D01*
X167023826Y-146927940D01*
X167023826Y-146784060D01*
X166983290Y-146646008D01*
X166953534Y-146599707D01*
X166905503Y-146524969D01*
X166905499Y-146524965D01*
X166796770Y-146430750D01*
X166796768Y-146430748D01*
X166796765Y-146430746D01*
X166796761Y-146430744D01*
X166665890Y-146370976D01*
X166665885Y-146370975D01*
X166523471Y-146350500D01*
X166379500Y-146350500D01*
X166312461Y-146330815D01*
X166266706Y-146278011D01*
X166255500Y-146226500D01*
X166255500Y-144987648D01*
X166275185Y-144920609D01*
X166291819Y-144899967D01*
X167383786Y-143808000D01*
X167343597Y-143767811D01*
X168159216Y-143767811D01*
X168169290Y-143927933D01*
X168218868Y-144080519D01*
X168304835Y-144215981D01*
X168421790Y-144325809D01*
X168562383Y-144403101D01*
X168717781Y-144443000D01*
X168837952Y-144443000D01*
X168957173Y-144427939D01*
X169106345Y-144368877D01*
X169236142Y-144274574D01*
X169338410Y-144150954D01*
X169406721Y-144005785D01*
X169436784Y-143848189D01*
X169434256Y-143808000D01*
X170212214Y-143808000D01*
X171545784Y-145141571D01*
X171550286Y-145133427D01*
X171681380Y-144816934D01*
X171776214Y-144487762D01*
X171776216Y-144487754D01*
X171833596Y-144150037D01*
X171833598Y-144150025D01*
X171852805Y-143808000D01*
X171833598Y-143465974D01*
X171833596Y-143465962D01*
X171776216Y-143128245D01*
X171776214Y-143128237D01*
X171681380Y-142799064D01*
X171550288Y-142482575D01*
X171550287Y-142482573D01*
X171545784Y-142474427D01*
X170212214Y-143807999D01*
X170212214Y-143808000D01*
X169434256Y-143808000D01*
X169426710Y-143688067D01*
X169377132Y-143535481D01*
X169291165Y-143400019D01*
X169174210Y-143290191D01*
X169033617Y-143212899D01*
X168878219Y-143173000D01*
X168758048Y-143173000D01*
X168638827Y-143188061D01*
X168489655Y-143247123D01*
X168359858Y-143341426D01*
X168257590Y-143465046D01*
X168189279Y-143610215D01*
X168159216Y-143767811D01*
X167343597Y-143767811D01*
X166291819Y-142716033D01*
X166258334Y-142654710D01*
X166255500Y-142628352D01*
X166255500Y-141060214D01*
X167464427Y-141060214D01*
X168798000Y-142393786D01*
X168798001Y-142393786D01*
X170131570Y-141060214D01*
X170131570Y-141060213D01*
X170123433Y-141055716D01*
X170123424Y-141055711D01*
X169806935Y-140924619D01*
X169477762Y-140829785D01*
X169477754Y-140829783D01*
X169140037Y-140772403D01*
X169140025Y-140772401D01*
X168798000Y-140753194D01*
X168455974Y-140772401D01*
X168455962Y-140772403D01*
X168118245Y-140829783D01*
X168118237Y-140829785D01*
X167789064Y-140924619D01*
X167472572Y-141055713D01*
X167464427Y-141060214D01*
X166255500Y-141060214D01*
X166255500Y-138935784D01*
X187784427Y-138935784D01*
X187792573Y-138940287D01*
X187792575Y-138940288D01*
X188109064Y-139071380D01*
X188438237Y-139166214D01*
X188438245Y-139166216D01*
X188775962Y-139223596D01*
X188775974Y-139223598D01*
X189118000Y-139242805D01*
X189460025Y-139223598D01*
X189460037Y-139223596D01*
X189797754Y-139166216D01*
X189797762Y-139166214D01*
X190126934Y-139071380D01*
X190443427Y-138940286D01*
X190451571Y-138935784D01*
X189118000Y-137602214D01*
X187784427Y-138935784D01*
X166255500Y-138935784D01*
X166255500Y-136188000D01*
X167242706Y-136188000D01*
X167261853Y-136431297D01*
X167261853Y-136431300D01*
X167261854Y-136431302D01*
X167289738Y-136547447D01*
X167318830Y-136668619D01*
X167412222Y-136894089D01*
X167539737Y-137102173D01*
X167539738Y-137102176D01*
X167539741Y-137102179D01*
X167698241Y-137287759D01*
X167841897Y-137410453D01*
X167883823Y-137446261D01*
X167883826Y-137446262D01*
X168091910Y-137573777D01*
X168160564Y-137602214D01*
X168313351Y-137665500D01*
X168317381Y-137667169D01*
X168317378Y-137667169D01*
X168317384Y-137667170D01*
X168317388Y-137667172D01*
X168554698Y-137724146D01*
X168798000Y-137743294D01*
X169041302Y-137724146D01*
X169278612Y-137667172D01*
X169504089Y-137573777D01*
X169712179Y-137446259D01*
X169897759Y-137287759D01*
X170056259Y-137102179D01*
X170183777Y-136894089D01*
X170277172Y-136668612D01*
X170334146Y-136431302D01*
X170353294Y-136188000D01*
X186063194Y-136188000D01*
X186082401Y-136530025D01*
X186082403Y-136530037D01*
X186139783Y-136867754D01*
X186139785Y-136867762D01*
X186234619Y-137196935D01*
X186365711Y-137513424D01*
X186365716Y-137513433D01*
X186370213Y-137521570D01*
X186370214Y-137521570D01*
X187703786Y-136187999D01*
X187663598Y-136147811D01*
X188479216Y-136147811D01*
X188489290Y-136307933D01*
X188538868Y-136460519D01*
X188624835Y-136595981D01*
X188741790Y-136705809D01*
X188882383Y-136783101D01*
X189037781Y-136823000D01*
X189157952Y-136823000D01*
X189277173Y-136807939D01*
X189426345Y-136748877D01*
X189556142Y-136654574D01*
X189658410Y-136530954D01*
X189726721Y-136385785D01*
X189756784Y-136228189D01*
X189754256Y-136188000D01*
X190532214Y-136188000D01*
X191865784Y-137521571D01*
X191870286Y-137513427D01*
X192001380Y-137196934D01*
X192096214Y-136867762D01*
X192096216Y-136867754D01*
X192153596Y-136530037D01*
X192153598Y-136530025D01*
X192172805Y-136188000D01*
X192153598Y-135845974D01*
X192153596Y-135845962D01*
X192096216Y-135508245D01*
X192096214Y-135508237D01*
X192001380Y-135179064D01*
X191870288Y-134862575D01*
X191870287Y-134862573D01*
X191865784Y-134854427D01*
X190532214Y-136187999D01*
X190532214Y-136188000D01*
X189754256Y-136188000D01*
X189746710Y-136068067D01*
X189697132Y-135915481D01*
X189611165Y-135780019D01*
X189494210Y-135670191D01*
X189353617Y-135592899D01*
X189198219Y-135553000D01*
X189078048Y-135553000D01*
X188958827Y-135568061D01*
X188809655Y-135627123D01*
X188679858Y-135721426D01*
X188577590Y-135845046D01*
X188509279Y-135990215D01*
X188479216Y-136147811D01*
X187663598Y-136147811D01*
X186370214Y-134854427D01*
X186365713Y-134862572D01*
X186234619Y-135179064D01*
X186139785Y-135508237D01*
X186139783Y-135508245D01*
X186082403Y-135845962D01*
X186082401Y-135845974D01*
X186063194Y-136188000D01*
X170353294Y-136188000D01*
X170334146Y-135944698D01*
X170277172Y-135707388D01*
X170261765Y-135670191D01*
X170183777Y-135481910D01*
X170056262Y-135273826D01*
X170056261Y-135273823D01*
X169924839Y-135119948D01*
X169897759Y-135088241D01*
X169739836Y-134953362D01*
X169712176Y-134929738D01*
X169712173Y-134929737D01*
X169504089Y-134802222D01*
X169278618Y-134708830D01*
X169278621Y-134708830D01*
X169172992Y-134683470D01*
X169041302Y-134651854D01*
X169041300Y-134651853D01*
X169041297Y-134651853D01*
X168798000Y-134632706D01*
X168554702Y-134651853D01*
X168317380Y-134708830D01*
X168091910Y-134802222D01*
X167883826Y-134929737D01*
X167883823Y-134929738D01*
X167698241Y-135088241D01*
X167539738Y-135273823D01*
X167539737Y-135273826D01*
X167412222Y-135481910D01*
X167318830Y-135707380D01*
X167261853Y-135944702D01*
X167242706Y-136188000D01*
X166255500Y-136188000D01*
X166255500Y-134939827D01*
X166255500Y-134939823D01*
X166254051Y-134912784D01*
X166249769Y-134872964D01*
X166241114Y-134819552D01*
X166190832Y-134684743D01*
X166157347Y-134623420D01*
X166071123Y-134508239D01*
X166071117Y-134508233D01*
X166071113Y-134508228D01*
X165134181Y-133571296D01*
X165134180Y-133571296D01*
X165114044Y-133553209D01*
X165114045Y-133553209D01*
X165082861Y-133528080D01*
X165038974Y-133496433D01*
X164915875Y-133440214D01*
X187784427Y-133440214D01*
X189118000Y-134773786D01*
X189118001Y-134773786D01*
X190451570Y-133440214D01*
X190451570Y-133440213D01*
X190443433Y-133435716D01*
X190443424Y-133435711D01*
X190126935Y-133304619D01*
X189797762Y-133209785D01*
X189797754Y-133209783D01*
X189460037Y-133152403D01*
X189460025Y-133152401D01*
X189118000Y-133133194D01*
X188775974Y-133152401D01*
X188775962Y-133152403D01*
X188438245Y-133209783D01*
X188438237Y-133209785D01*
X188109064Y-133304619D01*
X187792572Y-133435713D01*
X187784427Y-133440214D01*
X164915875Y-133440214D01*
X164908100Y-133436663D01*
X164841063Y-133416978D01*
X164841057Y-133416976D01*
X164755604Y-133404690D01*
X164698638Y-133396500D01*
X160385575Y-133396500D01*
X160367709Y-133397138D01*
X160361704Y-133397460D01*
X160349692Y-133398104D01*
X160209102Y-133428686D01*
X160209098Y-133428687D01*
X160163007Y-133445879D01*
X160143637Y-133453104D01*
X160143632Y-133453106D01*
X160143630Y-133453106D01*
X160143621Y-133453110D01*
X160017352Y-133522061D01*
X160017349Y-133522063D01*
X159915619Y-133623795D01*
X159915606Y-133623810D01*
X159873745Y-133679730D01*
X159804789Y-133806016D01*
X159774208Y-133946600D01*
X159774207Y-133946607D01*
X159769223Y-134016298D01*
X159769223Y-134016300D01*
X159779487Y-134159810D01*
X159779488Y-134159817D01*
X159827080Y-134378595D01*
X159829598Y-134396106D01*
X159835232Y-134474873D01*
X159839744Y-134537955D01*
X159840242Y-134544910D01*
X159840400Y-134549335D01*
X159840400Y-134974300D01*
X159820715Y-135041339D01*
X159767911Y-135087094D01*
X159716400Y-135098300D01*
X158970399Y-135098300D01*
X158903360Y-135078615D01*
X158857605Y-135025811D01*
X158846399Y-134974300D01*
X158846399Y-134552629D01*
X158846398Y-134552623D01*
X158846397Y-134552616D01*
X158839991Y-134493017D01*
X158829355Y-134464501D01*
X158789697Y-134358171D01*
X158789693Y-134358164D01*
X158703447Y-134242955D01*
X158703444Y-134242952D01*
X158588235Y-134156706D01*
X158588228Y-134156702D01*
X158453382Y-134106408D01*
X158453383Y-134106408D01*
X158393783Y-134100001D01*
X158393781Y-134100000D01*
X158393773Y-134100000D01*
X158393764Y-134100000D01*
X156799429Y-134100000D01*
X156799423Y-134100001D01*
X156739816Y-134106408D01*
X156604971Y-134156702D01*
X156604964Y-134156706D01*
X156489755Y-134242952D01*
X156489752Y-134242955D01*
X156403506Y-134358164D01*
X156403502Y-134358171D01*
X156353208Y-134493017D01*
X156347392Y-134547117D01*
X156346801Y-134552623D01*
X156346800Y-134552635D01*
X156346800Y-134974300D01*
X156327115Y-135041339D01*
X156274311Y-135087094D01*
X156222800Y-135098300D01*
X155476800Y-135098300D01*
X155409761Y-135078615D01*
X155364006Y-135025811D01*
X155352800Y-134974300D01*
X155352800Y-134549330D01*
X155352958Y-134544906D01*
X155353455Y-134537955D01*
X155363599Y-134396103D01*
X155366117Y-134378593D01*
X155370562Y-134358164D01*
X155415629Y-134151003D01*
X155418802Y-134133420D01*
X155421692Y-134115583D01*
X155421691Y-133971703D01*
X155411747Y-133902545D01*
X155371212Y-133764496D01*
X155293424Y-133643457D01*
X155256045Y-133600319D01*
X155247675Y-133590659D01*
X155247671Y-133590656D01*
X155247669Y-133590653D01*
X155138935Y-133496433D01*
X155138932Y-133496431D01*
X155138930Y-133496430D01*
X155008064Y-133436664D01*
X155008059Y-133436662D01*
X155008058Y-133436662D01*
X154985457Y-133430025D01*
X154941024Y-133416978D01*
X154941018Y-133416976D01*
X154855565Y-133404690D01*
X154798599Y-133396500D01*
X150997786Y-133396500D01*
X150997769Y-133396500D01*
X150890332Y-133408052D01*
X150890327Y-133408053D01*
X150755525Y-133458332D01*
X150755523Y-133458334D01*
X150640351Y-133544550D01*
X150640333Y-133544566D01*
X149959679Y-134225220D01*
X149898356Y-134258705D01*
X149828664Y-134253721D01*
X149784317Y-134225220D01*
X149103658Y-133544561D01*
X149103655Y-133544558D01*
X149019507Y-133476746D01*
X149019503Y-133476744D01*
X148888632Y-133416976D01*
X148888627Y-133416975D01*
X148746213Y-133396500D01*
X141641823Y-133396500D01*
X141614784Y-133397949D01*
X141614776Y-133397949D01*
X141614773Y-133397950D01*
X141614772Y-133397950D01*
X141574964Y-133402231D01*
X141521554Y-133410885D01*
X141521552Y-133410885D01*
X141386747Y-133461166D01*
X141325422Y-133494651D01*
X141210240Y-133580876D01*
X141210228Y-133580886D01*
X140273296Y-134517819D01*
X140255209Y-134537956D01*
X140255209Y-134537955D01*
X140230080Y-134569139D01*
X140198433Y-134613025D01*
X140138663Y-134743899D01*
X140118978Y-134810937D01*
X140118976Y-134810942D01*
X140117738Y-134819554D01*
X140098500Y-134953362D01*
X140098500Y-136441998D01*
X140098500Y-139044041D01*
X140098500Y-142433073D01*
X140113371Y-142554784D01*
X140113372Y-142554788D01*
X140113372Y-142554791D01*
X140127749Y-142612744D01*
X140171486Y-142727289D01*
X140171487Y-142727290D01*
X140256152Y-142843623D01*
X140304887Y-142893689D01*
X140418891Y-142981454D01*
X140553010Y-143033548D01*
X140621076Y-143049319D01*
X140764437Y-143061518D01*
X140905429Y-143032832D01*
X140962738Y-143012332D01*
X140971212Y-143009302D01*
X140971220Y-143009299D01*
X140971226Y-143009297D01*
X141098424Y-142942049D01*
X141201524Y-142841690D01*
X141201529Y-142841684D01*
X141244144Y-142786327D01*
X141244149Y-142786319D01*
X141244152Y-142786315D01*
X141258317Y-142761182D01*
X141275551Y-142730603D01*
X141279992Y-142726280D01*
X141300851Y-142687079D01*
X141313817Y-142662711D01*
X141314797Y-142660974D01*
X141314797Y-142660972D01*
X141314909Y-142660775D01*
X141315911Y-142658774D01*
X141443956Y-142418148D01*
X141447774Y-142411898D01*
X141602457Y-142189432D01*
X141606986Y-142183678D01*
X141786895Y-141981069D01*
X141792078Y-141975887D01*
X141994680Y-141795985D01*
X142000430Y-141791458D01*
X142167161Y-141675529D01*
X142222895Y-141636777D01*
X142229146Y-141632957D01*
X142468337Y-141505677D01*
X142475011Y-141502618D01*
X142485606Y-141498503D01*
X142555225Y-141492581D01*
X142616993Y-141525237D01*
X142651300Y-141586104D01*
X142654500Y-141614091D01*
X142654500Y-142485716D01*
X142634815Y-142552755D01*
X142610431Y-142580515D01*
X142572804Y-142612240D01*
X142491656Y-142680657D01*
X142343455Y-142856433D01*
X142343448Y-142856444D01*
X142227087Y-143054729D01*
X142227082Y-143054741D01*
X142145900Y-143269860D01*
X142102244Y-143495588D01*
X142102244Y-143495592D01*
X142099500Y-143547250D01*
X142099500Y-144210750D01*
X142102244Y-144262407D01*
X142102244Y-144262411D01*
X142145900Y-144488139D01*
X142145901Y-144488143D01*
X142145902Y-144488145D01*
X142171785Y-144556729D01*
X142227082Y-144703258D01*
X142227087Y-144703270D01*
X142343448Y-144901555D01*
X142343455Y-144901566D01*
X142491655Y-145077341D01*
X142491658Y-145077344D01*
X142667433Y-145225544D01*
X142667437Y-145225546D01*
X142667440Y-145225549D01*
X142705651Y-145247972D01*
X142865729Y-145341912D01*
X142865737Y-145341915D01*
X142865740Y-145341917D01*
X143080855Y-145423098D01*
X143306595Y-145466756D01*
X143346658Y-145468884D01*
X143358250Y-145469500D01*
X143358254Y-145469500D01*
X144961750Y-145469500D01*
X144971671Y-145468972D01*
X145013405Y-145466756D01*
X145013410Y-145466755D01*
X145013411Y-145466755D01*
X145183674Y-145433826D01*
X145239145Y-145423098D01*
X145454260Y-145341917D01*
X145454264Y-145341914D01*
X145454270Y-145341912D01*
X145549789Y-145285857D01*
X145652560Y-145225549D01*
X145828343Y-145077343D01*
X145976549Y-144901560D01*
X146040428Y-144792706D01*
X146092912Y-144703270D01*
X146092914Y-144703264D01*
X146092917Y-144703260D01*
X146109330Y-144659770D01*
X146113879Y-144647717D01*
X146155966Y-144591946D01*
X146221524Y-144567783D01*
X146229892Y-144567500D01*
X153268890Y-144567500D01*
X153268900Y-144567500D01*
X153376356Y-144555947D01*
X153427867Y-144544741D01*
X153462097Y-144533347D01*
X153530397Y-144510616D01*
X153530401Y-144510613D01*
X153530404Y-144510613D01*
X153651443Y-144432825D01*
X153704247Y-144387070D01*
X153798467Y-144278336D01*
X153858238Y-144147459D01*
X153872520Y-144098818D01*
X153877922Y-144080425D01*
X153877923Y-144080420D01*
X153877924Y-144080416D01*
X153879888Y-144066754D01*
X153908911Y-144003199D01*
X153967689Y-143965424D01*
X154002626Y-143960400D01*
X154723300Y-143960400D01*
X154790339Y-143980085D01*
X154836094Y-144032889D01*
X154847300Y-144084400D01*
X154847300Y-144984334D01*
X154862600Y-145198262D01*
X154923409Y-145477795D01*
X155023391Y-145745858D01*
X155160491Y-145996938D01*
X155160492Y-145996939D01*
X155331939Y-146225965D01*
X155331949Y-146225977D01*
X155534222Y-146428250D01*
X155534234Y-146428260D01*
X155763260Y-146599707D01*
X155763261Y-146599708D01*
X156014342Y-146736808D01*
X156014341Y-146736808D01*
X156282404Y-146836790D01*
X156561937Y-146897599D01*
X156775866Y-146912900D01*
X156847300Y-146912900D01*
X156847300Y-142535000D01*
X156866985Y-142467961D01*
X156919789Y-142422206D01*
X156971300Y-142411000D01*
X158221900Y-142411000D01*
X158288939Y-142430685D01*
X158334694Y-142483489D01*
X158345900Y-142535000D01*
X158345900Y-146912900D01*
X158417334Y-146912900D01*
X158631262Y-146897599D01*
X158910795Y-146836790D01*
X159178857Y-146736808D01*
X159324409Y-146657331D01*
X159392682Y-146642479D01*
X159458146Y-146666896D01*
X159500018Y-146722829D01*
X159501473Y-146726951D01*
X161060270Y-151403340D01*
X161191036Y-151795637D01*
X161682137Y-153268940D01*
X161688500Y-153308152D01*
X161688500Y-160863977D01*
X161689874Y-160889619D01*
X161689950Y-160891027D01*
X161689950Y-160891028D01*
X161694231Y-160930836D01*
X161702885Y-160984245D01*
X161702885Y-160984247D01*
X161753168Y-161119058D01*
X161763168Y-161137371D01*
X161778020Y-161205644D01*
X161753603Y-161271108D01*
X161697669Y-161312979D01*
X161627977Y-161317963D01*
X161606885Y-161311359D01*
X161480818Y-161259143D01*
X161463480Y-161250309D01*
X161442306Y-161237334D01*
X161301018Y-161150754D01*
X161285277Y-161139318D01*
X161140389Y-161015573D01*
X161126629Y-161001813D01*
X161111032Y-160983551D01*
X161002882Y-160856923D01*
X160991447Y-160841183D01*
X160891892Y-160678722D01*
X160883058Y-160661384D01*
X160841865Y-160561932D01*
X160810142Y-160485342D01*
X160804131Y-160466839D01*
X160759653Y-160281562D01*
X160756611Y-160262354D01*
X160741096Y-160065169D01*
X160740906Y-160060304D01*
X160740906Y-160059953D01*
X160740908Y-159996774D01*
X160740906Y-159996769D01*
X160740907Y-159992819D01*
X160740906Y-159992787D01*
X160740906Y-159787342D01*
X160703329Y-159237988D01*
X160703329Y-159237989D01*
X160628353Y-158692491D01*
X160628353Y-158692490D01*
X160516324Y-158153378D01*
X160367768Y-157623172D01*
X160367768Y-157623173D01*
X160367764Y-157623159D01*
X160183369Y-157104321D01*
X159963996Y-156599275D01*
X159710670Y-156110378D01*
X159424571Y-155639907D01*
X159107032Y-155190058D01*
X158759536Y-154762927D01*
X158383700Y-154360506D01*
X157981279Y-153984670D01*
X157554148Y-153637174D01*
X157104301Y-153319636D01*
X156864871Y-153174036D01*
X156633828Y-153033536D01*
X156633825Y-153033534D01*
X156633821Y-153033532D01*
X156387569Y-152905935D01*
X156144931Y-152780210D01*
X155639885Y-152560837D01*
X155121047Y-152376442D01*
X155121033Y-152376438D01*
X155121034Y-152376438D01*
X154590828Y-152227882D01*
X154051716Y-152115853D01*
X154051715Y-152115853D01*
X153506217Y-152040877D01*
X153506218Y-152040877D01*
X153414659Y-152034614D01*
X152956869Y-152003300D01*
X152406237Y-152003300D01*
X151948447Y-152034614D01*
X151856888Y-152040877D01*
X151856889Y-152040877D01*
X151311391Y-152115853D01*
X151311390Y-152115853D01*
X150772278Y-152227882D01*
X150242072Y-152376438D01*
X150242073Y-152376438D01*
X150242059Y-152376442D01*
X149723221Y-152560837D01*
X149218175Y-152780210D01*
X148975537Y-152905935D01*
X148729285Y-153033532D01*
X148729280Y-153033534D01*
X148729278Y-153033536D01*
X148498235Y-153174036D01*
X148258805Y-153319636D01*
X147808958Y-153637174D01*
X147381827Y-153984670D01*
X146979406Y-154360506D01*
X146603570Y-154762927D01*
X146256074Y-155190058D01*
X145938535Y-155639907D01*
X145652436Y-156110378D01*
X145399110Y-156599275D01*
X145179737Y-157104321D01*
X144995342Y-157623159D01*
X144995338Y-157623173D01*
X144995338Y-157623172D01*
X144846782Y-158153378D01*
X144734753Y-158692490D01*
X144734753Y-158692491D01*
X144659777Y-159237989D01*
X144659777Y-159237988D01*
X144622200Y-159787342D01*
X144622200Y-159992710D01*
X144622194Y-159992799D01*
X144622199Y-160060262D01*
X144622008Y-160065129D01*
X144606499Y-160262367D01*
X144603457Y-160281587D01*
X144558986Y-160466869D01*
X144552973Y-160485377D01*
X144480066Y-160661411D01*
X144471232Y-160678750D01*
X144371682Y-160841209D01*
X144360244Y-160856953D01*
X144236500Y-161001840D01*
X144222740Y-161015600D01*
X144077853Y-161139344D01*
X144062109Y-161150782D01*
X143899650Y-161250332D01*
X143882311Y-161259166D01*
X143706277Y-161332073D01*
X143687769Y-161338086D01*
X143502487Y-161382557D01*
X143483267Y-161385599D01*
X143286029Y-161401108D01*
X143281162Y-161401299D01*
X143213784Y-161401294D01*
X143213696Y-161401300D01*
X112513478Y-161401300D01*
X112509733Y-161401187D01*
X112214065Y-161383302D01*
X112206626Y-161382398D01*
X111917116Y-161329343D01*
X111909840Y-161327550D01*
X111748581Y-161277300D01*
X111628844Y-161239988D01*
X111621848Y-161237334D01*
X111353446Y-161116537D01*
X111346811Y-161113054D01*
X111094934Y-160960789D01*
X111088775Y-160956539D01*
X110857075Y-160775014D01*
X110851475Y-160770053D01*
X110643345Y-160561923D01*
X110638384Y-160556323D01*
X110456857Y-160324621D01*
X110452610Y-160318465D01*
X110300345Y-160066588D01*
X110296862Y-160059953D01*
X110176065Y-159791551D01*
X110173414Y-159784564D01*
X110085847Y-159503553D01*
X110084056Y-159496283D01*
X110031001Y-159206773D01*
X110030097Y-159199334D01*
X110021041Y-159049623D01*
X110012213Y-158903666D01*
X110012100Y-158899922D01*
X110012100Y-155166106D01*
X116822330Y-155166106D01*
X116953585Y-155232024D01*
X116953586Y-155232025D01*
X117276780Y-155349658D01*
X117611433Y-155428972D01*
X117953042Y-155468899D01*
X117953043Y-155468900D01*
X118296957Y-155468900D01*
X118296957Y-155468899D01*
X118638565Y-155428972D01*
X118638567Y-155428972D01*
X118973219Y-155349658D01*
X119296413Y-155232025D01*
X119296414Y-155232024D01*
X119427668Y-155166106D01*
X125022329Y-155166106D01*
X125153584Y-155232024D01*
X125153585Y-155232025D01*
X125476779Y-155349658D01*
X125811432Y-155428972D01*
X126153041Y-155468899D01*
X126153042Y-155468900D01*
X126496956Y-155468900D01*
X126496956Y-155468899D01*
X126838564Y-155428972D01*
X126838566Y-155428972D01*
X127173218Y-155349658D01*
X127496412Y-155232025D01*
X127496413Y-155232024D01*
X127627667Y-155166106D01*
X127627667Y-155166105D01*
X126324999Y-153863438D01*
X125022329Y-155166105D01*
X125022329Y-155166106D01*
X119427668Y-155166106D01*
X119427668Y-155166105D01*
X118125000Y-153863438D01*
X116822330Y-155166105D01*
X116822330Y-155166106D01*
X110012100Y-155166106D01*
X110012100Y-152516403D01*
X115167496Y-152516403D01*
X115187494Y-152859745D01*
X115187495Y-152859756D01*
X115247213Y-153198438D01*
X115247216Y-153198448D01*
X115345855Y-153527927D01*
X115472602Y-153821758D01*
X115472603Y-153821759D01*
X116693149Y-152601213D01*
X117426500Y-152601213D01*
X117467095Y-152765911D01*
X117545924Y-152916107D01*
X117658407Y-153043075D01*
X117798007Y-153139433D01*
X117956610Y-153199584D01*
X118082750Y-153214900D01*
X118167250Y-153214900D01*
X118293390Y-153199584D01*
X118451993Y-153139433D01*
X118591593Y-153043075D01*
X118704076Y-152916107D01*
X118782905Y-152765911D01*
X118823500Y-152601213D01*
X118823500Y-152516401D01*
X119472038Y-152516401D01*
X120777396Y-153821759D01*
X120904144Y-153527927D01*
X121002783Y-153198448D01*
X121002786Y-153198438D01*
X121062504Y-152859756D01*
X121062505Y-152859745D01*
X121082504Y-152516403D01*
X123367495Y-152516403D01*
X123387493Y-152859745D01*
X123387494Y-152859756D01*
X123447212Y-153198438D01*
X123447215Y-153198448D01*
X123545854Y-153527927D01*
X123672601Y-153821758D01*
X123672602Y-153821759D01*
X124893148Y-152601213D01*
X125626499Y-152601213D01*
X125667094Y-152765911D01*
X125745923Y-152916107D01*
X125858406Y-153043075D01*
X125998006Y-153139433D01*
X126156609Y-153199584D01*
X126282749Y-153214900D01*
X126367249Y-153214900D01*
X126493389Y-153199584D01*
X126651992Y-153139433D01*
X126791592Y-153043075D01*
X126904075Y-152916107D01*
X126982904Y-152765911D01*
X127023499Y-152601213D01*
X127023499Y-152516401D01*
X127672037Y-152516401D01*
X128977395Y-153821759D01*
X129104143Y-153527927D01*
X129202782Y-153198448D01*
X129202785Y-153198438D01*
X129262503Y-152859756D01*
X129262504Y-152859745D01*
X129282503Y-152516403D01*
X129282503Y-152516396D01*
X129262504Y-152173054D01*
X129262503Y-152173043D01*
X129205366Y-151849000D01*
X140702769Y-151849000D01*
X140732123Y-151963050D01*
X140854603Y-152278394D01*
X141013518Y-152577031D01*
X141206640Y-152854781D01*
X141431258Y-153107741D01*
X141684218Y-153332359D01*
X141961968Y-153525481D01*
X142260605Y-153684395D01*
X142260605Y-153684396D01*
X142575951Y-153806876D01*
X142903551Y-153891196D01*
X143160000Y-153925602D01*
X143160000Y-151849000D01*
X145160000Y-151849000D01*
X145160000Y-153925602D01*
X145416448Y-153891196D01*
X145744048Y-153806876D01*
X146059394Y-153684396D01*
X146059394Y-153684395D01*
X146358031Y-153525481D01*
X146635781Y-153332359D01*
X146888741Y-153107741D01*
X147113359Y-152854781D01*
X147306481Y-152577031D01*
X147465395Y-152278394D01*
X147465396Y-152278394D01*
X147587876Y-151963050D01*
X147617231Y-151849000D01*
X145160000Y-151849000D01*
X143160000Y-151849000D01*
X140702769Y-151849000D01*
X129205366Y-151849000D01*
X129202785Y-151834361D01*
X129202782Y-151834351D01*
X129104143Y-151504872D01*
X128977395Y-151211039D01*
X127672037Y-152516399D01*
X127672037Y-152516401D01*
X127023499Y-152516401D01*
X127023499Y-152431587D01*
X126982904Y-152266889D01*
X126904075Y-152116693D01*
X126791592Y-151989725D01*
X126651992Y-151893367D01*
X126493389Y-151833216D01*
X126367249Y-151817900D01*
X126282749Y-151817900D01*
X126156609Y-151833216D01*
X125998006Y-151893367D01*
X125858406Y-151989725D01*
X125745923Y-152116693D01*
X125667094Y-152266889D01*
X125626499Y-152431587D01*
X125626499Y-152601213D01*
X124893148Y-152601213D01*
X124977961Y-152516400D01*
X124977961Y-152516399D01*
X123672601Y-151211040D01*
X123545854Y-151504872D01*
X123447215Y-151834351D01*
X123447212Y-151834361D01*
X123387494Y-152173043D01*
X123387493Y-152173054D01*
X123367495Y-152516396D01*
X123367495Y-152516403D01*
X121082504Y-152516403D01*
X121082504Y-152516396D01*
X121062505Y-152173054D01*
X121062504Y-152173043D01*
X121002786Y-151834361D01*
X121002783Y-151834351D01*
X120904144Y-151504872D01*
X120777396Y-151211039D01*
X119472038Y-152516399D01*
X119472038Y-152516401D01*
X118823500Y-152516401D01*
X118823500Y-152431587D01*
X118782905Y-152266889D01*
X118704076Y-152116693D01*
X118591593Y-151989725D01*
X118451993Y-151893367D01*
X118293390Y-151833216D01*
X118167250Y-151817900D01*
X118082750Y-151817900D01*
X117956610Y-151833216D01*
X117798007Y-151893367D01*
X117658407Y-151989725D01*
X117545924Y-152116693D01*
X117467095Y-152266889D01*
X117426500Y-152431587D01*
X117426500Y-152601213D01*
X116693149Y-152601213D01*
X116777962Y-152516400D01*
X116777962Y-152516399D01*
X115472603Y-151211040D01*
X115472602Y-151211040D01*
X115345855Y-151504872D01*
X115247216Y-151834351D01*
X115247213Y-151834361D01*
X115187495Y-152173043D01*
X115187494Y-152173054D01*
X115167496Y-152516396D01*
X115167496Y-152516403D01*
X110012100Y-152516403D01*
X110012100Y-150016400D01*
X116972038Y-150016400D01*
X118125000Y-151169362D01*
X119277962Y-150016400D01*
X125172037Y-150016400D01*
X126324999Y-151169362D01*
X127477961Y-150016400D01*
X127310560Y-149848999D01*
X140702768Y-149848999D01*
X140702769Y-149849000D01*
X143160000Y-149849000D01*
X143160000Y-147772396D01*
X145160000Y-147772396D01*
X145160000Y-149849000D01*
X147617231Y-149849000D01*
X147617231Y-149848999D01*
X147587876Y-149734949D01*
X147465396Y-149419605D01*
X147306481Y-149120968D01*
X147113359Y-148843218D01*
X146888741Y-148590258D01*
X146635781Y-148365640D01*
X146358031Y-148172518D01*
X146059394Y-148013604D01*
X146059394Y-148013603D01*
X145744048Y-147891123D01*
X145416449Y-147806803D01*
X145416445Y-147806802D01*
X145160000Y-147772396D01*
X143160000Y-147772396D01*
X142903554Y-147806802D01*
X142903550Y-147806803D01*
X142575951Y-147891123D01*
X142260605Y-148013603D01*
X142260605Y-148013604D01*
X141961968Y-148172518D01*
X141684218Y-148365640D01*
X141431258Y-148590258D01*
X141206640Y-148843218D01*
X141013518Y-149120968D01*
X140854604Y-149419605D01*
X140854603Y-149419605D01*
X140732123Y-149734949D01*
X140702768Y-149848999D01*
X127310560Y-149848999D01*
X126324999Y-148863438D01*
X125172037Y-150016400D01*
X119277962Y-150016400D01*
X118125000Y-148863438D01*
X116972038Y-150016400D01*
X110012100Y-150016400D01*
X110012100Y-147516403D01*
X115167496Y-147516403D01*
X115187494Y-147859745D01*
X115187495Y-147859756D01*
X115247213Y-148198438D01*
X115247216Y-148198448D01*
X115345855Y-148527927D01*
X115472602Y-148821758D01*
X115472603Y-148821759D01*
X116693149Y-147601213D01*
X117426500Y-147601213D01*
X117467095Y-147765911D01*
X117545924Y-147916107D01*
X117658407Y-148043075D01*
X117798007Y-148139433D01*
X117956610Y-148199584D01*
X118082750Y-148214900D01*
X118167250Y-148214900D01*
X118293390Y-148199584D01*
X118451993Y-148139433D01*
X118591593Y-148043075D01*
X118704076Y-147916107D01*
X118782905Y-147765911D01*
X118823500Y-147601213D01*
X118823500Y-147516401D01*
X119472038Y-147516401D01*
X120777396Y-148821759D01*
X120904144Y-148527927D01*
X121002783Y-148198448D01*
X121002786Y-148198438D01*
X121062504Y-147859756D01*
X121062505Y-147859745D01*
X121082504Y-147516403D01*
X123367495Y-147516403D01*
X123387493Y-147859745D01*
X123387494Y-147859756D01*
X123447212Y-148198438D01*
X123447215Y-148198448D01*
X123545854Y-148527927D01*
X123672601Y-148821758D01*
X123672602Y-148821759D01*
X124893148Y-147601213D01*
X125626499Y-147601213D01*
X125667094Y-147765911D01*
X125745923Y-147916107D01*
X125858406Y-148043075D01*
X125998006Y-148139433D01*
X126156609Y-148199584D01*
X126282749Y-148214900D01*
X126367249Y-148214900D01*
X126493389Y-148199584D01*
X126651992Y-148139433D01*
X126791592Y-148043075D01*
X126904075Y-147916107D01*
X126982904Y-147765911D01*
X127023499Y-147601213D01*
X127023499Y-147516401D01*
X127672037Y-147516401D01*
X128977395Y-148821759D01*
X129104143Y-148527927D01*
X129202782Y-148198448D01*
X129202785Y-148198438D01*
X129262503Y-147859756D01*
X129262504Y-147859745D01*
X129282503Y-147516403D01*
X129282503Y-147516396D01*
X129262504Y-147173054D01*
X129262503Y-147173043D01*
X129202785Y-146834361D01*
X129202782Y-146834351D01*
X129104143Y-146504872D01*
X128977395Y-146211039D01*
X127672037Y-147516399D01*
X127672037Y-147516401D01*
X127023499Y-147516401D01*
X127023499Y-147431587D01*
X126982904Y-147266889D01*
X126904075Y-147116693D01*
X126791592Y-146989725D01*
X126651992Y-146893367D01*
X126493389Y-146833216D01*
X126367249Y-146817900D01*
X126282749Y-146817900D01*
X126156609Y-146833216D01*
X125998006Y-146893367D01*
X125858406Y-146989725D01*
X125745923Y-147116693D01*
X125667094Y-147266889D01*
X125626499Y-147431587D01*
X125626499Y-147601213D01*
X124893148Y-147601213D01*
X124977961Y-147516400D01*
X124977961Y-147516399D01*
X123672601Y-146211040D01*
X123545854Y-146504872D01*
X123447215Y-146834351D01*
X123447212Y-146834361D01*
X123387494Y-147173043D01*
X123387493Y-147173054D01*
X123367495Y-147516396D01*
X123367495Y-147516403D01*
X121082504Y-147516403D01*
X121082504Y-147516396D01*
X121062505Y-147173054D01*
X121062504Y-147173043D01*
X121002786Y-146834361D01*
X121002783Y-146834351D01*
X120904144Y-146504872D01*
X120777396Y-146211039D01*
X119472038Y-147516399D01*
X119472038Y-147516401D01*
X118823500Y-147516401D01*
X118823500Y-147431587D01*
X118782905Y-147266889D01*
X118704076Y-147116693D01*
X118591593Y-146989725D01*
X118451993Y-146893367D01*
X118293390Y-146833216D01*
X118167250Y-146817900D01*
X118082750Y-146817900D01*
X117956610Y-146833216D01*
X117798007Y-146893367D01*
X117658407Y-146989725D01*
X117545924Y-147116693D01*
X117467095Y-147266889D01*
X117426500Y-147431587D01*
X117426500Y-147601213D01*
X116693149Y-147601213D01*
X116777962Y-147516400D01*
X116777962Y-147516399D01*
X115472603Y-146211040D01*
X115472602Y-146211040D01*
X115345855Y-146504872D01*
X115247216Y-146834351D01*
X115247213Y-146834361D01*
X115187495Y-147173043D01*
X115187494Y-147173054D01*
X115167496Y-147516396D01*
X115167496Y-147516403D01*
X110012100Y-147516403D01*
X110012100Y-144866693D01*
X116822331Y-144866693D01*
X118125000Y-146169362D01*
X118125001Y-146169362D01*
X119427667Y-144866693D01*
X125022330Y-144866693D01*
X126324999Y-146169362D01*
X126325000Y-146169362D01*
X127627666Y-144866693D01*
X127496402Y-144800770D01*
X127173218Y-144683141D01*
X126838565Y-144603827D01*
X126496956Y-144563900D01*
X126153042Y-144563900D01*
X125811433Y-144603827D01*
X125811431Y-144603827D01*
X125476779Y-144683141D01*
X125153591Y-144800772D01*
X125022330Y-144866693D01*
X119427667Y-144866693D01*
X119296403Y-144800770D01*
X118973219Y-144683141D01*
X118638566Y-144603827D01*
X118296957Y-144563900D01*
X117953043Y-144563900D01*
X117611434Y-144603827D01*
X117611432Y-144603827D01*
X117276780Y-144683141D01*
X116953592Y-144800772D01*
X116822331Y-144866693D01*
X110012100Y-144866693D01*
X110012100Y-141256049D01*
X110031785Y-141189010D01*
X110084589Y-141143255D01*
X110153747Y-141133311D01*
X110208624Y-141155470D01*
X110222626Y-141165567D01*
X110353503Y-141225338D01*
X110396275Y-141237897D01*
X110420537Y-141245022D01*
X110420542Y-141245023D01*
X110420546Y-141245024D01*
X110562962Y-141265500D01*
X110562965Y-141265500D01*
X136441973Y-141265500D01*
X136441977Y-141265500D01*
X136469016Y-141264051D01*
X136469023Y-141264050D01*
X136469027Y-141264050D01*
X136469028Y-141264050D01*
X136508836Y-141259769D01*
X136562248Y-141251114D01*
X136697057Y-141200832D01*
X136758380Y-141167347D01*
X136873561Y-141081123D01*
X137810497Y-140144188D01*
X137810497Y-140144187D01*
X137810504Y-140144181D01*
X137810504Y-140144180D01*
X137828591Y-140124044D01*
X137828591Y-140124045D01*
X137853720Y-140092861D01*
X137858162Y-140086699D01*
X137885367Y-140048974D01*
X137945138Y-139918097D01*
X137964823Y-139851058D01*
X137964824Y-139851054D01*
X137985300Y-139708638D01*
X137985300Y-128116100D01*
X141312369Y-128116100D01*
X141341723Y-128230150D01*
X141464203Y-128545494D01*
X141623118Y-128844131D01*
X141816240Y-129121881D01*
X142040858Y-129374841D01*
X142293818Y-129599459D01*
X142571568Y-129792581D01*
X142870205Y-129951495D01*
X142870205Y-129951496D01*
X143185551Y-130073976D01*
X143513151Y-130158296D01*
X143769600Y-130192702D01*
X143769600Y-128116100D01*
X145769600Y-128116100D01*
X145769600Y-130192702D01*
X146026048Y-130158296D01*
X146353648Y-130073976D01*
X146668994Y-129951496D01*
X146668994Y-129951495D01*
X146967631Y-129792581D01*
X147245381Y-129599459D01*
X147498341Y-129374841D01*
X147722959Y-129121881D01*
X147916081Y-128844131D01*
X148074995Y-128545494D01*
X148074996Y-128545494D01*
X148197476Y-128230150D01*
X148226831Y-128116100D01*
X145769600Y-128116100D01*
X143769600Y-128116100D01*
X141312369Y-128116100D01*
X137985300Y-128116100D01*
X137985300Y-123169547D01*
X138004985Y-123102508D01*
X138057789Y-123056753D01*
X138126947Y-123046809D01*
X138190503Y-123075834D01*
X138196981Y-123081866D01*
X138933819Y-123818704D01*
X138933820Y-123818704D01*
X138953956Y-123836791D01*
X138953955Y-123836791D01*
X138985139Y-123861920D01*
X138985142Y-123861922D01*
X139029026Y-123893567D01*
X139159903Y-123953338D01*
X139202675Y-123965897D01*
X139226937Y-123973022D01*
X139226942Y-123973023D01*
X139226946Y-123973024D01*
X139369362Y-123993500D01*
X139369365Y-123993500D01*
X142947906Y-123993500D01*
X143014945Y-124013185D01*
X143060700Y-124065989D01*
X143070644Y-124135147D01*
X143041619Y-124198703D01*
X142992800Y-124233088D01*
X142870205Y-124280703D01*
X142870205Y-124280704D01*
X142571568Y-124439618D01*
X142293818Y-124632740D01*
X142040858Y-124857358D01*
X141816240Y-125110318D01*
X141623118Y-125388068D01*
X141464204Y-125686705D01*
X141464203Y-125686705D01*
X141341723Y-126002049D01*
X141312368Y-126116099D01*
X141312369Y-126116100D01*
X148226831Y-126116100D01*
X148226831Y-126116099D01*
X148197476Y-126002049D01*
X148074996Y-125686705D01*
X147916081Y-125388068D01*
X147722959Y-125110318D01*
X147498341Y-124857358D01*
X147245381Y-124632740D01*
X146967631Y-124439618D01*
X146668994Y-124280704D01*
X146668994Y-124280703D01*
X146546400Y-124233088D01*
X146491035Y-124190467D01*
X146467502Y-124124679D01*
X146483272Y-124056613D01*
X146533338Y-124007877D01*
X146591294Y-123993500D01*
X150055800Y-123993500D01*
X150122839Y-124013185D01*
X150168594Y-124065989D01*
X150179800Y-124117500D01*
X150179800Y-129355400D01*
X152411900Y-129355400D01*
X152478939Y-129375085D01*
X152524694Y-129427889D01*
X152535900Y-129479400D01*
X152535900Y-130176134D01*
X152551200Y-130390062D01*
X152612009Y-130669595D01*
X152711991Y-130937658D01*
X152849091Y-131188738D01*
X152849092Y-131188739D01*
X153020539Y-131417765D01*
X153020549Y-131417777D01*
X153222822Y-131620050D01*
X153222834Y-131620060D01*
X153451860Y-131791507D01*
X153451861Y-131791508D01*
X153702942Y-131928608D01*
X153702941Y-131928608D01*
X153971004Y-132028590D01*
X154250537Y-132089399D01*
X154464466Y-132104700D01*
X154535900Y-132104700D01*
X154535900Y-127676000D01*
X154555585Y-127608961D01*
X154608389Y-127563206D01*
X154659900Y-127552000D01*
X155910500Y-127552000D01*
X155977539Y-127571685D01*
X156023294Y-127624489D01*
X156034500Y-127676000D01*
X156034500Y-132104700D01*
X156105934Y-132104700D01*
X156319862Y-132089399D01*
X156599395Y-132028590D01*
X156867458Y-131928608D01*
X157118538Y-131791508D01*
X157118539Y-131791507D01*
X157347565Y-131620060D01*
X157347577Y-131620050D01*
X157549850Y-131417777D01*
X157549860Y-131417765D01*
X157721307Y-131188739D01*
X157721308Y-131188738D01*
X157858408Y-130937658D01*
X157958390Y-130669595D01*
X158018428Y-130393608D01*
X166214005Y-130393608D01*
X166260563Y-130419340D01*
X166590283Y-130555914D01*
X166933221Y-130654713D01*
X166933229Y-130654715D01*
X167285064Y-130714494D01*
X167285076Y-130714496D01*
X167641400Y-130734506D01*
X167997723Y-130714496D01*
X167997735Y-130714494D01*
X168059028Y-130704080D01*
X193843532Y-130704080D01*
X194116153Y-130842988D01*
X194468178Y-130978118D01*
X194832415Y-131075715D01*
X195204841Y-131134701D01*
X195581399Y-131154437D01*
X195581401Y-131154437D01*
X195957958Y-131134701D01*
X196330383Y-131075715D01*
X196330385Y-131075715D01*
X196694621Y-130978118D01*
X197046646Y-130842988D01*
X197319266Y-130704080D01*
X195581400Y-128966214D01*
X193843532Y-130704080D01*
X168059028Y-130704080D01*
X168349570Y-130654715D01*
X168349578Y-130654713D01*
X168692516Y-130555914D01*
X169022243Y-130419337D01*
X169068793Y-130393608D01*
X169068793Y-130393607D01*
X167641400Y-128966214D01*
X166214005Y-130393607D01*
X166214005Y-130393608D01*
X158018428Y-130393608D01*
X158019199Y-130390062D01*
X158034500Y-130176134D01*
X158034500Y-129479400D01*
X158054185Y-129412361D01*
X158106989Y-129366606D01*
X158158500Y-129355400D01*
X160390600Y-129355400D01*
X160390600Y-127552000D01*
X164458893Y-127552000D01*
X164478903Y-127908323D01*
X164478905Y-127908335D01*
X164538684Y-128260170D01*
X164538686Y-128260178D01*
X164637485Y-128603116D01*
X164774059Y-128932836D01*
X164799790Y-128979393D01*
X164799791Y-128979393D01*
X166227186Y-127552000D01*
X166851433Y-127552000D01*
X166871239Y-127727784D01*
X166929664Y-127894754D01*
X167023779Y-128044536D01*
X167148864Y-128169621D01*
X167298646Y-128263736D01*
X167465616Y-128322161D01*
X167597316Y-128337000D01*
X167685484Y-128337000D01*
X167817184Y-128322161D01*
X167984154Y-128263736D01*
X168133936Y-128169621D01*
X168259021Y-128044536D01*
X168353136Y-127894754D01*
X168411561Y-127727784D01*
X168431367Y-127552000D01*
X169055614Y-127552000D01*
X170483007Y-128979393D01*
X170483008Y-128979393D01*
X170508737Y-128932843D01*
X170645314Y-128603116D01*
X170744113Y-128260178D01*
X170744115Y-128260170D01*
X170803894Y-127908335D01*
X170803896Y-127908323D01*
X170823906Y-127552000D01*
X191978963Y-127552000D01*
X191998698Y-127928558D01*
X192057684Y-128300983D01*
X192057684Y-128300985D01*
X192155281Y-128665221D01*
X192290410Y-129017242D01*
X192429318Y-129289866D01*
X194167186Y-127552000D01*
X194511247Y-127552000D01*
X194531810Y-127760776D01*
X194592708Y-127961530D01*
X194691600Y-128146545D01*
X194824688Y-128308712D01*
X194986855Y-128441800D01*
X195171870Y-128540692D01*
X195372624Y-128601590D01*
X195529082Y-128617000D01*
X195633718Y-128617000D01*
X195790176Y-128601590D01*
X195990930Y-128540692D01*
X196175945Y-128441800D01*
X196338112Y-128308712D01*
X196471200Y-128146545D01*
X196570092Y-127961530D01*
X196630990Y-127760776D01*
X196651553Y-127552000D01*
X196995614Y-127552000D01*
X198733480Y-129289866D01*
X198872388Y-129017246D01*
X199007518Y-128665221D01*
X199105115Y-128300985D01*
X199105115Y-128300983D01*
X199164101Y-127928558D01*
X199183837Y-127552000D01*
X199183837Y-127551999D01*
X199164101Y-127175441D01*
X199105115Y-126803016D01*
X199105115Y-126803014D01*
X199007518Y-126438778D01*
X198872388Y-126086753D01*
X198733479Y-125814132D01*
X196995614Y-127551999D01*
X196995614Y-127552000D01*
X196651553Y-127552000D01*
X196630990Y-127343224D01*
X196570092Y-127142470D01*
X196471200Y-126957455D01*
X196338112Y-126795288D01*
X196175945Y-126662200D01*
X195990930Y-126563308D01*
X195790176Y-126502410D01*
X195633718Y-126487000D01*
X195529082Y-126487000D01*
X195372624Y-126502410D01*
X195171870Y-126563308D01*
X194986855Y-126662200D01*
X194824688Y-126795288D01*
X194691600Y-126957455D01*
X194592708Y-127142470D01*
X194531810Y-127343224D01*
X194511247Y-127552000D01*
X194167186Y-127552000D01*
X192429319Y-125814133D01*
X192290411Y-126086753D01*
X192155281Y-126438778D01*
X192057684Y-126803014D01*
X192057684Y-126803016D01*
X191998698Y-127175441D01*
X191978963Y-127551999D01*
X191978963Y-127552000D01*
X170823906Y-127552000D01*
X170803896Y-127195676D01*
X170803894Y-127195664D01*
X170744115Y-126843829D01*
X170744113Y-126843821D01*
X170645314Y-126500883D01*
X170508740Y-126171163D01*
X170483008Y-126124605D01*
X170483007Y-126124605D01*
X169055614Y-127551999D01*
X169055614Y-127552000D01*
X168431367Y-127552000D01*
X168411561Y-127376216D01*
X168353136Y-127209246D01*
X168259021Y-127059464D01*
X168133936Y-126934379D01*
X167984154Y-126840264D01*
X167817184Y-126781839D01*
X167685484Y-126767000D01*
X167597316Y-126767000D01*
X167465616Y-126781839D01*
X167298646Y-126840264D01*
X167148864Y-126934379D01*
X167023779Y-127059464D01*
X166929664Y-127209246D01*
X166871239Y-127376216D01*
X166851433Y-127552000D01*
X166227186Y-127552000D01*
X166227186Y-127551999D01*
X164799791Y-126124604D01*
X164774059Y-126171163D01*
X164637485Y-126500883D01*
X164538686Y-126843821D01*
X164538684Y-126843829D01*
X164478905Y-127195664D01*
X164478903Y-127195676D01*
X164458893Y-127552000D01*
X160390600Y-127552000D01*
X160390600Y-124710391D01*
X166214004Y-124710391D01*
X167641400Y-126137786D01*
X167641401Y-126137786D01*
X169068793Y-124710391D01*
X169068793Y-124710390D01*
X169022236Y-124684659D01*
X168692516Y-124548085D01*
X168349578Y-124449286D01*
X168349570Y-124449284D01*
X168059028Y-124399919D01*
X193843532Y-124399919D01*
X195581400Y-126137786D01*
X195581401Y-126137786D01*
X197319267Y-124399917D01*
X197255871Y-124367616D01*
X197205075Y-124319642D01*
X197188280Y-124251821D01*
X197191275Y-124229538D01*
X197200193Y-124190467D01*
X197245311Y-123992794D01*
X197250409Y-123924765D01*
X197264105Y-123742004D01*
X197264105Y-123741995D01*
X197245312Y-123491215D01*
X197245311Y-123491210D01*
X197245311Y-123491206D01*
X197189347Y-123246014D01*
X197097465Y-123011902D01*
X196971716Y-122794099D01*
X196814910Y-122597470D01*
X196814909Y-122597469D01*
X196814906Y-122597465D01*
X196630549Y-122426408D01*
X196607958Y-122411006D01*
X196422753Y-122284735D01*
X196422749Y-122284733D01*
X196422746Y-122284731D01*
X196422745Y-122284730D01*
X196196163Y-122175615D01*
X196196165Y-122175615D01*
X195955845Y-122101486D01*
X195955841Y-122101485D01*
X195955837Y-122101484D01*
X195836213Y-122083453D01*
X195707154Y-122064000D01*
X195707149Y-122064000D01*
X195455651Y-122064000D01*
X195455645Y-122064000D01*
X195300773Y-122087344D01*
X195206963Y-122101484D01*
X195206960Y-122101485D01*
X195206954Y-122101486D01*
X194966638Y-122175614D01*
X194740051Y-122284733D01*
X194740047Y-122284735D01*
X194532253Y-122426406D01*
X194347893Y-122597465D01*
X194191084Y-122794099D01*
X194065335Y-123011901D01*
X193973455Y-123246008D01*
X193973449Y-123246027D01*
X193917488Y-123491210D01*
X193917487Y-123491215D01*
X193898695Y-123741995D01*
X193898695Y-123742004D01*
X193917487Y-123992784D01*
X193917488Y-123992789D01*
X193971524Y-124229540D01*
X193967251Y-124299279D01*
X193925952Y-124355636D01*
X193906928Y-124367616D01*
X193843532Y-124399918D01*
X193843532Y-124399919D01*
X168059028Y-124399919D01*
X167997735Y-124389505D01*
X167997723Y-124389503D01*
X167641400Y-124369493D01*
X167285076Y-124389503D01*
X167285064Y-124389505D01*
X166933229Y-124449284D01*
X166933221Y-124449286D01*
X166590283Y-124548085D01*
X166260563Y-124684659D01*
X166214004Y-124710391D01*
X160390600Y-124710391D01*
X160390600Y-124117500D01*
X160410285Y-124050461D01*
X160463089Y-124004706D01*
X160514600Y-123993500D01*
X171316173Y-123993500D01*
X171316177Y-123993500D01*
X171343216Y-123992051D01*
X171343223Y-123992050D01*
X171343227Y-123992050D01*
X171343228Y-123992050D01*
X171383036Y-123987769D01*
X171436448Y-123979114D01*
X171571257Y-123928832D01*
X171632580Y-123895347D01*
X171747761Y-123809123D01*
X172684697Y-122872188D01*
X172684697Y-122872187D01*
X172684704Y-122872181D01*
X172684704Y-122872180D01*
X172702791Y-122852044D01*
X172702791Y-122852045D01*
X172727920Y-122820861D01*
X172747218Y-122794099D01*
X172759567Y-122776974D01*
X172819338Y-122646097D01*
X172839023Y-122579058D01*
X172839024Y-122579054D01*
X172859500Y-122436638D01*
X172859500Y-107939623D01*
X172858051Y-107912584D01*
X172853769Y-107872764D01*
X172845114Y-107819352D01*
X172794832Y-107684543D01*
X172761347Y-107623220D01*
X172753566Y-107612826D01*
X172744421Y-107600609D01*
X172720005Y-107535145D01*
X172734857Y-107466872D01*
X172784263Y-107417467D01*
X172843689Y-107402300D01*
X191473454Y-107402300D01*
X191540493Y-107421985D01*
G37*
%TD.AperFunction*%
%TD*%
%TA.AperFunction,Conductor*%
%TO.N,Net-(PS1-+VIN)*%
G36*
X171870177Y-107421985D02*
G01*
X171890819Y-107438619D01*
X172317681Y-107865481D01*
X172351166Y-107926804D01*
X172354000Y-107953162D01*
X172354000Y-122436638D01*
X172334315Y-122503677D01*
X172317681Y-122524319D01*
X171390319Y-123451681D01*
X171328996Y-123485166D01*
X171302638Y-123488000D01*
X160514600Y-123488000D01*
X160447561Y-123468315D01*
X160401806Y-123415511D01*
X160390600Y-123364000D01*
X160390600Y-119932004D01*
X165958695Y-119932004D01*
X165977487Y-120182784D01*
X165977488Y-120182789D01*
X166033449Y-120427972D01*
X166033451Y-120427981D01*
X166033453Y-120427986D01*
X166125335Y-120662098D01*
X166251084Y-120879901D01*
X166289693Y-120928315D01*
X166407893Y-121076534D01*
X166516117Y-121176950D01*
X166592251Y-121247592D01*
X166800048Y-121389265D01*
X167026639Y-121498386D01*
X167266963Y-121572516D01*
X167515651Y-121610000D01*
X167515652Y-121610000D01*
X167767148Y-121610000D01*
X167767149Y-121610000D01*
X168015837Y-121572516D01*
X168256161Y-121498386D01*
X168482753Y-121389265D01*
X168690549Y-121247592D01*
X168874910Y-121076530D01*
X169031716Y-120879901D01*
X169157465Y-120662098D01*
X169249347Y-120427986D01*
X169305311Y-120182794D01*
X169324105Y-119932000D01*
X169305311Y-119681206D01*
X169249347Y-119436014D01*
X169157465Y-119201902D01*
X169031716Y-118984099D01*
X168874910Y-118787470D01*
X168874909Y-118787469D01*
X168874906Y-118787465D01*
X168690549Y-118616408D01*
X168690546Y-118616406D01*
X168482753Y-118474735D01*
X168482749Y-118474733D01*
X168482746Y-118474731D01*
X168482745Y-118474730D01*
X168256163Y-118365615D01*
X168256165Y-118365615D01*
X168015845Y-118291486D01*
X168015841Y-118291485D01*
X168015837Y-118291484D01*
X167896213Y-118273453D01*
X167767154Y-118254000D01*
X167767149Y-118254000D01*
X167515651Y-118254000D01*
X167515645Y-118254000D01*
X167360773Y-118277344D01*
X167266963Y-118291484D01*
X167266960Y-118291485D01*
X167266954Y-118291486D01*
X167026638Y-118365614D01*
X166800051Y-118474733D01*
X166800047Y-118474735D01*
X166592253Y-118616406D01*
X166407893Y-118787465D01*
X166251084Y-118984099D01*
X166125335Y-119201901D01*
X166033455Y-119436008D01*
X166033449Y-119436027D01*
X165977488Y-119681210D01*
X165977487Y-119681215D01*
X165958695Y-119931995D01*
X165958695Y-119932004D01*
X160390600Y-119932004D01*
X160390600Y-119144600D01*
X158158500Y-119144600D01*
X158091461Y-119124915D01*
X158045706Y-119072111D01*
X158034500Y-119020600D01*
X158034500Y-118323866D01*
X158019199Y-118109937D01*
X157958390Y-117830404D01*
X157858408Y-117562341D01*
X157721308Y-117311261D01*
X157721307Y-117311260D01*
X157549860Y-117082234D01*
X157549850Y-117082222D01*
X157347577Y-116879949D01*
X157347565Y-116879939D01*
X157118539Y-116708492D01*
X157118538Y-116708491D01*
X156867457Y-116571391D01*
X156867458Y-116571391D01*
X156599395Y-116471409D01*
X156319862Y-116410600D01*
X156105934Y-116395300D01*
X156034500Y-116395300D01*
X156034500Y-120824000D01*
X156014815Y-120891039D01*
X155962011Y-120936794D01*
X155910500Y-120948000D01*
X154659900Y-120948000D01*
X154592861Y-120928315D01*
X154547106Y-120875511D01*
X154535900Y-120824000D01*
X154535900Y-116395300D01*
X154464466Y-116395300D01*
X154250537Y-116410600D01*
X153971004Y-116471409D01*
X153702941Y-116571391D01*
X153451861Y-116708491D01*
X153451860Y-116708492D01*
X153222834Y-116879939D01*
X153222822Y-116879949D01*
X153020549Y-117082222D01*
X153020539Y-117082234D01*
X152849092Y-117311260D01*
X152849091Y-117311261D01*
X152711991Y-117562341D01*
X152612009Y-117830404D01*
X152551200Y-118109937D01*
X152535900Y-118323866D01*
X152535900Y-119020600D01*
X152516215Y-119087639D01*
X152463411Y-119133394D01*
X152411900Y-119144600D01*
X150179800Y-119144600D01*
X150179800Y-123364000D01*
X150160115Y-123431039D01*
X150107311Y-123476794D01*
X150055800Y-123488000D01*
X139369362Y-123488000D01*
X139302323Y-123468315D01*
X139281681Y-123451681D01*
X138354319Y-122524319D01*
X138320834Y-122462996D01*
X138318000Y-122436638D01*
X138318000Y-121146100D01*
X141312369Y-121146100D01*
X141341723Y-121260150D01*
X141464203Y-121575494D01*
X141623118Y-121874131D01*
X141816240Y-122151881D01*
X142040858Y-122404841D01*
X142293818Y-122629459D01*
X142571568Y-122822581D01*
X142870205Y-122981495D01*
X142870205Y-122981496D01*
X143185551Y-123103976D01*
X143513151Y-123188296D01*
X143769600Y-123222702D01*
X143769600Y-121146100D01*
X145769600Y-121146100D01*
X145769600Y-123222702D01*
X146026048Y-123188296D01*
X146353648Y-123103976D01*
X146668994Y-122981496D01*
X146668994Y-122981495D01*
X146967631Y-122822581D01*
X147245381Y-122629459D01*
X147498341Y-122404841D01*
X147722959Y-122151881D01*
X147916081Y-121874131D01*
X148074995Y-121575494D01*
X148074996Y-121575494D01*
X148197476Y-121260150D01*
X148226831Y-121146100D01*
X145769600Y-121146100D01*
X143769600Y-121146100D01*
X141312369Y-121146100D01*
X138318000Y-121146100D01*
X138318000Y-119146099D01*
X141312368Y-119146099D01*
X141312369Y-119146100D01*
X143769600Y-119146100D01*
X143769600Y-117069496D01*
X145769600Y-117069496D01*
X145769600Y-119146100D01*
X148226831Y-119146100D01*
X148226831Y-119146099D01*
X148197476Y-119032049D01*
X148074996Y-118716705D01*
X147916081Y-118418068D01*
X147722959Y-118140318D01*
X147498341Y-117887358D01*
X147245381Y-117662740D01*
X146967631Y-117469618D01*
X146668994Y-117310704D01*
X146668994Y-117310703D01*
X146353648Y-117188223D01*
X146026049Y-117103903D01*
X146026045Y-117103902D01*
X145769600Y-117069496D01*
X143769600Y-117069496D01*
X143513154Y-117103902D01*
X143513150Y-117103903D01*
X143185551Y-117188223D01*
X142870205Y-117310703D01*
X142870205Y-117310704D01*
X142571568Y-117469618D01*
X142293818Y-117662740D01*
X142040858Y-117887358D01*
X141816240Y-118140318D01*
X141623118Y-118418068D01*
X141464204Y-118716705D01*
X141464203Y-118716705D01*
X141341723Y-119032049D01*
X141312368Y-119146099D01*
X138318000Y-119146099D01*
X138318000Y-115133370D01*
X148464840Y-115133370D01*
X148503114Y-115154523D01*
X148829987Y-115289918D01*
X149169949Y-115387859D01*
X149169958Y-115387861D01*
X149518748Y-115447123D01*
X149518760Y-115447125D01*
X149872000Y-115466962D01*
X150225239Y-115447125D01*
X150225251Y-115447123D01*
X150574041Y-115387861D01*
X150574050Y-115387859D01*
X150914012Y-115289918D01*
X151240885Y-115154523D01*
X151242541Y-115153608D01*
X166214005Y-115153608D01*
X166260563Y-115179340D01*
X166590283Y-115315914D01*
X166933221Y-115414713D01*
X166933229Y-115414715D01*
X167285064Y-115474494D01*
X167285076Y-115474496D01*
X167641400Y-115494506D01*
X167997723Y-115474496D01*
X167997735Y-115474494D01*
X168349570Y-115414715D01*
X168349578Y-115414713D01*
X168692516Y-115315914D01*
X169022243Y-115179337D01*
X169068793Y-115153608D01*
X169068793Y-115153607D01*
X167641400Y-113726214D01*
X166214005Y-115153607D01*
X166214005Y-115153608D01*
X151242541Y-115153608D01*
X151279157Y-115133371D01*
X151279157Y-115133370D01*
X149872000Y-113726213D01*
X148464840Y-115133370D01*
X138318000Y-115133370D01*
X138318000Y-112312000D01*
X146717037Y-112312000D01*
X146736874Y-112665239D01*
X146736876Y-112665251D01*
X146796138Y-113014041D01*
X146796140Y-113014050D01*
X146894081Y-113354012D01*
X147029472Y-113680877D01*
X147029473Y-113680879D01*
X147050628Y-113719157D01*
X148413880Y-112355906D01*
X149118172Y-112355906D01*
X149148616Y-112528567D01*
X149218059Y-112689553D01*
X149322756Y-112830185D01*
X149457062Y-112942882D01*
X149613739Y-113021568D01*
X149784338Y-113062000D01*
X149915684Y-113062000D01*
X150046139Y-113046752D01*
X150210891Y-112986787D01*
X150357373Y-112890445D01*
X150477688Y-112762918D01*
X150565350Y-112611082D01*
X150615634Y-112443123D01*
X150623271Y-112312000D01*
X151286213Y-112312000D01*
X152693370Y-113719157D01*
X152693371Y-113719157D01*
X152714523Y-113680885D01*
X152849918Y-113354012D01*
X152947859Y-113014050D01*
X152947861Y-113014041D01*
X153007123Y-112665251D01*
X153007125Y-112665239D01*
X153026962Y-112312000D01*
X164458893Y-112312000D01*
X164478903Y-112668323D01*
X164478905Y-112668335D01*
X164538684Y-113020170D01*
X164538686Y-113020178D01*
X164637485Y-113363116D01*
X164774059Y-113692836D01*
X164799790Y-113739393D01*
X164799791Y-113739393D01*
X166227186Y-112312000D01*
X166851433Y-112312000D01*
X166871239Y-112487784D01*
X166929664Y-112654754D01*
X167023779Y-112804536D01*
X167148864Y-112929621D01*
X167298646Y-113023736D01*
X167465616Y-113082161D01*
X167597316Y-113097000D01*
X167685484Y-113097000D01*
X167817184Y-113082161D01*
X167984154Y-113023736D01*
X168133936Y-112929621D01*
X168259021Y-112804536D01*
X168353136Y-112654754D01*
X168411561Y-112487784D01*
X168431367Y-112312000D01*
X169055614Y-112312000D01*
X170483007Y-113739393D01*
X170483008Y-113739393D01*
X170508737Y-113692843D01*
X170645314Y-113363116D01*
X170744113Y-113020178D01*
X170744115Y-113020170D01*
X170803894Y-112668335D01*
X170803896Y-112668323D01*
X170823906Y-112312000D01*
X170803896Y-111955676D01*
X170803894Y-111955664D01*
X170744115Y-111603829D01*
X170744113Y-111603821D01*
X170645314Y-111260883D01*
X170508740Y-110931163D01*
X170483008Y-110884605D01*
X170483007Y-110884605D01*
X169055614Y-112311999D01*
X169055614Y-112312000D01*
X168431367Y-112312000D01*
X168411561Y-112136216D01*
X168353136Y-111969246D01*
X168259021Y-111819464D01*
X168133936Y-111694379D01*
X167984154Y-111600264D01*
X167817184Y-111541839D01*
X167685484Y-111527000D01*
X167597316Y-111527000D01*
X167465616Y-111541839D01*
X167298646Y-111600264D01*
X167148864Y-111694379D01*
X167023779Y-111819464D01*
X166929664Y-111969246D01*
X166871239Y-112136216D01*
X166851433Y-112312000D01*
X166227186Y-112312000D01*
X166227186Y-112311999D01*
X164799791Y-110884604D01*
X164774059Y-110931163D01*
X164637485Y-111260883D01*
X164538686Y-111603821D01*
X164538684Y-111603829D01*
X164478905Y-111955664D01*
X164478903Y-111955676D01*
X164458893Y-112312000D01*
X153026962Y-112312000D01*
X153007125Y-111958760D01*
X153007123Y-111958748D01*
X152947861Y-111609958D01*
X152947859Y-111609949D01*
X152849918Y-111269987D01*
X152714523Y-110943114D01*
X152693370Y-110904840D01*
X151286213Y-112311999D01*
X151286213Y-112312000D01*
X150623271Y-112312000D01*
X150625828Y-112268094D01*
X150595384Y-112095433D01*
X150525941Y-111934447D01*
X150421244Y-111793815D01*
X150286938Y-111681118D01*
X150130261Y-111602432D01*
X149959662Y-111562000D01*
X149828316Y-111562000D01*
X149697861Y-111577248D01*
X149533109Y-111637213D01*
X149386627Y-111733555D01*
X149266312Y-111861082D01*
X149178650Y-112012918D01*
X149128366Y-112180877D01*
X149118172Y-112355906D01*
X148413880Y-112355906D01*
X148457786Y-112312000D01*
X148457786Y-112311999D01*
X147050628Y-110904841D01*
X147029478Y-110943109D01*
X147029477Y-110943112D01*
X146894081Y-111269987D01*
X146796140Y-111609949D01*
X146796138Y-111609958D01*
X146736876Y-111958748D01*
X146736874Y-111958760D01*
X146717037Y-112312000D01*
X138318000Y-112312000D01*
X138318000Y-109490628D01*
X148464841Y-109490628D01*
X149872000Y-110897786D01*
X151279158Y-109490628D01*
X151242540Y-109470391D01*
X166214004Y-109470391D01*
X167641400Y-110897786D01*
X167641401Y-110897786D01*
X169068793Y-109470391D01*
X169068793Y-109470390D01*
X169022236Y-109444659D01*
X168692516Y-109308085D01*
X168349578Y-109209286D01*
X168349570Y-109209284D01*
X167997735Y-109149505D01*
X167997723Y-109149503D01*
X167641400Y-109129493D01*
X167285076Y-109149503D01*
X167285064Y-109149505D01*
X166933229Y-109209284D01*
X166933221Y-109209286D01*
X166590283Y-109308085D01*
X166260563Y-109444659D01*
X166214004Y-109470391D01*
X151242540Y-109470391D01*
X151240879Y-109469473D01*
X151240877Y-109469472D01*
X150914012Y-109334081D01*
X150574050Y-109236140D01*
X150574041Y-109236138D01*
X150225251Y-109176876D01*
X150225239Y-109176874D01*
X149872000Y-109157037D01*
X149518760Y-109176874D01*
X149518748Y-109176876D01*
X149169958Y-109236138D01*
X149169949Y-109236140D01*
X148829987Y-109334081D01*
X148503112Y-109469477D01*
X148503109Y-109469478D01*
X148464841Y-109490628D01*
X138318000Y-109490628D01*
X138318000Y-107953162D01*
X138337685Y-107886123D01*
X138354319Y-107865481D01*
X138781181Y-107438619D01*
X138842504Y-107405134D01*
X138868862Y-107402300D01*
X171803138Y-107402300D01*
X171870177Y-107421985D01*
G37*
%TD.AperFunction*%
%TD*%
%TA.AperFunction,Conductor*%
%TO.N,Net-(PS1-+VOUT)*%
G36*
X225387977Y-107421985D02*
G01*
X225408619Y-107438619D01*
X226165681Y-108195681D01*
X226199166Y-108257004D01*
X226202000Y-108283362D01*
X226202000Y-111239038D01*
X225009038Y-112432000D01*
X226202000Y-113624962D01*
X226202000Y-116239038D01*
X225009038Y-117432000D01*
X226202000Y-118624962D01*
X226202000Y-119124033D01*
X226202000Y-119896638D01*
X226182315Y-119963677D01*
X226165681Y-119984319D01*
X225238319Y-120911681D01*
X225176996Y-120945166D01*
X225150638Y-120948000D01*
X213029362Y-120948000D01*
X212962323Y-120928315D01*
X212941681Y-120911681D01*
X212111706Y-120081706D01*
X214159331Y-120081706D01*
X214290586Y-120147624D01*
X214290587Y-120147625D01*
X214613781Y-120265258D01*
X214948434Y-120344572D01*
X215290043Y-120384499D01*
X215290044Y-120384500D01*
X215633958Y-120384500D01*
X215633958Y-120384499D01*
X215975566Y-120344572D01*
X215975568Y-120344572D01*
X216310220Y-120265258D01*
X216633414Y-120147625D01*
X216633415Y-120147624D01*
X216764669Y-120081706D01*
X222359330Y-120081706D01*
X222490585Y-120147624D01*
X222490586Y-120147625D01*
X222813780Y-120265258D01*
X223148433Y-120344572D01*
X223490042Y-120384499D01*
X223490043Y-120384500D01*
X223833957Y-120384500D01*
X223833957Y-120384499D01*
X224175565Y-120344572D01*
X224175567Y-120344572D01*
X224510219Y-120265258D01*
X224833413Y-120147625D01*
X224833414Y-120147624D01*
X224964668Y-120081706D01*
X224964668Y-120081705D01*
X223662000Y-118779038D01*
X222359330Y-120081705D01*
X222359330Y-120081706D01*
X216764669Y-120081706D01*
X216764669Y-120081705D01*
X215462001Y-118779038D01*
X214159331Y-120081705D01*
X214159331Y-120081706D01*
X212111706Y-120081706D01*
X212014319Y-119984319D01*
X211980834Y-119922996D01*
X211978000Y-119896638D01*
X211978000Y-119408000D01*
X211978000Y-118408000D01*
X211033664Y-118408000D01*
X211036791Y-118364277D01*
X211041382Y-118353543D01*
X211162516Y-118103532D01*
X211162521Y-118103520D01*
X211256561Y-117817355D01*
X211256563Y-117817344D01*
X211311625Y-117521179D01*
X211311626Y-117521173D01*
X211312398Y-117508000D01*
X207883500Y-117508000D01*
X207816461Y-117488315D01*
X207770706Y-117435511D01*
X207769943Y-117432003D01*
X212504497Y-117432003D01*
X212524495Y-117775345D01*
X212524496Y-117775356D01*
X212584214Y-118114038D01*
X212584217Y-118114048D01*
X212682856Y-118443527D01*
X212809603Y-118737358D01*
X212809604Y-118737359D01*
X214030150Y-117516813D01*
X214763501Y-117516813D01*
X214804096Y-117681511D01*
X214882925Y-117831707D01*
X214995408Y-117958675D01*
X215135008Y-118055033D01*
X215293611Y-118115184D01*
X215419751Y-118130500D01*
X215504251Y-118130500D01*
X215630391Y-118115184D01*
X215788994Y-118055033D01*
X215928594Y-117958675D01*
X216041077Y-117831707D01*
X216119906Y-117681511D01*
X216160501Y-117516813D01*
X216160501Y-117432001D01*
X216809039Y-117432001D01*
X218114397Y-118737359D01*
X218241145Y-118443527D01*
X218339784Y-118114048D01*
X218339787Y-118114038D01*
X218399505Y-117775356D01*
X218399506Y-117775345D01*
X218419505Y-117432003D01*
X220704496Y-117432003D01*
X220724494Y-117775345D01*
X220724495Y-117775356D01*
X220784213Y-118114038D01*
X220784216Y-118114048D01*
X220882855Y-118443527D01*
X221009602Y-118737358D01*
X221009603Y-118737359D01*
X222230149Y-117516813D01*
X222963500Y-117516813D01*
X223004095Y-117681511D01*
X223082924Y-117831707D01*
X223195407Y-117958675D01*
X223335007Y-118055033D01*
X223493610Y-118115184D01*
X223619750Y-118130500D01*
X223704250Y-118130500D01*
X223830390Y-118115184D01*
X223988993Y-118055033D01*
X224128593Y-117958675D01*
X224241076Y-117831707D01*
X224319905Y-117681511D01*
X224360500Y-117516813D01*
X224360500Y-117347187D01*
X224319905Y-117182489D01*
X224241076Y-117032293D01*
X224128593Y-116905325D01*
X223988993Y-116808967D01*
X223830390Y-116748816D01*
X223704250Y-116733500D01*
X223619750Y-116733500D01*
X223493610Y-116748816D01*
X223335007Y-116808967D01*
X223195407Y-116905325D01*
X223082924Y-117032293D01*
X223004095Y-117182489D01*
X222963500Y-117347187D01*
X222963500Y-117516813D01*
X222230149Y-117516813D01*
X222314962Y-117432000D01*
X222314962Y-117431999D01*
X221009602Y-116126640D01*
X220882855Y-116420472D01*
X220784216Y-116749951D01*
X220784213Y-116749961D01*
X220724495Y-117088643D01*
X220724494Y-117088654D01*
X220704496Y-117431996D01*
X220704496Y-117432003D01*
X218419505Y-117432003D01*
X218419505Y-117431996D01*
X218399506Y-117088654D01*
X218399505Y-117088643D01*
X218339787Y-116749961D01*
X218339784Y-116749951D01*
X218241145Y-116420472D01*
X218114397Y-116126639D01*
X216809039Y-117431999D01*
X216809039Y-117432001D01*
X216160501Y-117432001D01*
X216160501Y-117347187D01*
X216119906Y-117182489D01*
X216041077Y-117032293D01*
X215928594Y-116905325D01*
X215788994Y-116808967D01*
X215630391Y-116748816D01*
X215504251Y-116733500D01*
X215419751Y-116733500D01*
X215293611Y-116748816D01*
X215135008Y-116808967D01*
X214995408Y-116905325D01*
X214882925Y-117032293D01*
X214804096Y-117182489D01*
X214763501Y-117347187D01*
X214763501Y-117516813D01*
X214030150Y-117516813D01*
X214114963Y-117432000D01*
X214114963Y-117431999D01*
X212809603Y-116126640D01*
X212682856Y-116420472D01*
X212584217Y-116749951D01*
X212584214Y-116749961D01*
X212524496Y-117088643D01*
X212524495Y-117088654D01*
X212504497Y-117431996D01*
X212504497Y-117432003D01*
X207769943Y-117432003D01*
X207759500Y-117384000D01*
X207759500Y-114183000D01*
X209084500Y-114183000D01*
X209084500Y-116183000D01*
X211312398Y-116183000D01*
X211312398Y-116182999D01*
X211311626Y-116169826D01*
X211311625Y-116169820D01*
X211256563Y-115873655D01*
X211256561Y-115873644D01*
X211162521Y-115587479D01*
X211162516Y-115587467D01*
X211031171Y-115316381D01*
X211031168Y-115316376D01*
X210864858Y-115065211D01*
X210748363Y-114932000D01*
X214309039Y-114932000D01*
X215462001Y-116084962D01*
X216614963Y-114932000D01*
X222509038Y-114932000D01*
X223662000Y-116084962D01*
X224814962Y-114932000D01*
X223662000Y-113779038D01*
X222509038Y-114932000D01*
X216614963Y-114932000D01*
X215462001Y-113779038D01*
X214309039Y-114932000D01*
X210748363Y-114932000D01*
X210666551Y-114838448D01*
X210439788Y-114640141D01*
X210188623Y-114473831D01*
X210188618Y-114473828D01*
X209917532Y-114342483D01*
X209917520Y-114342478D01*
X209631355Y-114248438D01*
X209631344Y-114248436D01*
X209335175Y-114193373D01*
X209158008Y-114183000D01*
X209084500Y-114183000D01*
X207759500Y-114183000D01*
X207759499Y-114182999D01*
X207685994Y-114183001D01*
X207508824Y-114193373D01*
X207212655Y-114248436D01*
X207212644Y-114248438D01*
X206926479Y-114342478D01*
X206926467Y-114342483D01*
X206655381Y-114473828D01*
X206655376Y-114473831D01*
X206404211Y-114640141D01*
X206177448Y-114838449D01*
X206156241Y-114862699D01*
X206097291Y-114900204D01*
X206027422Y-114899885D01*
X205968817Y-114861843D01*
X205940083Y-114798155D01*
X205938900Y-114781069D01*
X205938900Y-114132866D01*
X205923599Y-113918937D01*
X205862790Y-113639404D01*
X205762808Y-113371341D01*
X205625708Y-113120261D01*
X205625707Y-113120260D01*
X205454260Y-112891234D01*
X205454250Y-112891222D01*
X205251977Y-112688949D01*
X205251965Y-112688939D01*
X205022939Y-112517492D01*
X205022938Y-112517491D01*
X204866378Y-112432003D01*
X212504497Y-112432003D01*
X212524495Y-112775345D01*
X212524496Y-112775356D01*
X212584214Y-113114038D01*
X212584217Y-113114048D01*
X212682856Y-113443527D01*
X212809603Y-113737358D01*
X212809604Y-113737359D01*
X214030150Y-112516813D01*
X214763501Y-112516813D01*
X214804096Y-112681511D01*
X214882925Y-112831707D01*
X214995408Y-112958675D01*
X215135008Y-113055033D01*
X215293611Y-113115184D01*
X215419751Y-113130500D01*
X215504251Y-113130500D01*
X215630391Y-113115184D01*
X215788994Y-113055033D01*
X215928594Y-112958675D01*
X216041077Y-112831707D01*
X216119906Y-112681511D01*
X216160501Y-112516813D01*
X216160501Y-112432001D01*
X216809039Y-112432001D01*
X218114397Y-113737359D01*
X218241145Y-113443527D01*
X218339784Y-113114048D01*
X218339787Y-113114038D01*
X218399505Y-112775356D01*
X218399506Y-112775345D01*
X218419505Y-112432003D01*
X220704496Y-112432003D01*
X220724494Y-112775345D01*
X220724495Y-112775356D01*
X220784213Y-113114038D01*
X220784216Y-113114048D01*
X220882855Y-113443527D01*
X221009602Y-113737358D01*
X221009603Y-113737359D01*
X222230149Y-112516813D01*
X222963500Y-112516813D01*
X223004095Y-112681511D01*
X223082924Y-112831707D01*
X223195407Y-112958675D01*
X223335007Y-113055033D01*
X223493610Y-113115184D01*
X223619750Y-113130500D01*
X223704250Y-113130500D01*
X223830390Y-113115184D01*
X223988993Y-113055033D01*
X224128593Y-112958675D01*
X224241076Y-112831707D01*
X224319905Y-112681511D01*
X224360500Y-112516813D01*
X224360500Y-112347187D01*
X224319905Y-112182489D01*
X224241076Y-112032293D01*
X224128593Y-111905325D01*
X223988993Y-111808967D01*
X223830390Y-111748816D01*
X223704250Y-111733500D01*
X223619750Y-111733500D01*
X223493610Y-111748816D01*
X223335007Y-111808967D01*
X223195407Y-111905325D01*
X223082924Y-112032293D01*
X223004095Y-112182489D01*
X222963500Y-112347187D01*
X222963500Y-112516813D01*
X222230149Y-112516813D01*
X222314962Y-112432000D01*
X222314962Y-112431999D01*
X221009602Y-111126640D01*
X220882855Y-111420472D01*
X220784216Y-111749951D01*
X220784213Y-111749961D01*
X220724495Y-112088643D01*
X220724494Y-112088654D01*
X220704496Y-112431996D01*
X220704496Y-112432003D01*
X218419505Y-112432003D01*
X218419505Y-112431996D01*
X218399506Y-112088654D01*
X218399505Y-112088643D01*
X218339787Y-111749961D01*
X218339784Y-111749951D01*
X218241145Y-111420472D01*
X218114397Y-111126639D01*
X216809039Y-112431999D01*
X216809039Y-112432001D01*
X216160501Y-112432001D01*
X216160501Y-112347187D01*
X216119906Y-112182489D01*
X216041077Y-112032293D01*
X215928594Y-111905325D01*
X215788994Y-111808967D01*
X215630391Y-111748816D01*
X215504251Y-111733500D01*
X215419751Y-111733500D01*
X215293611Y-111748816D01*
X215135008Y-111808967D01*
X214995408Y-111905325D01*
X214882925Y-112032293D01*
X214804096Y-112182489D01*
X214763501Y-112347187D01*
X214763501Y-112516813D01*
X214030150Y-112516813D01*
X214114963Y-112432000D01*
X214114963Y-112431999D01*
X212809603Y-111126640D01*
X212682856Y-111420472D01*
X212584217Y-111749951D01*
X212584214Y-111749961D01*
X212524496Y-112088643D01*
X212524495Y-112088654D01*
X212504497Y-112431996D01*
X212504497Y-112432003D01*
X204866378Y-112432003D01*
X204771857Y-112380391D01*
X204771858Y-112380391D01*
X204503795Y-112280409D01*
X204224262Y-112219600D01*
X204010334Y-112204300D01*
X203938900Y-112204300D01*
X203938900Y-116175800D01*
X203919215Y-116242839D01*
X203866411Y-116288594D01*
X203814900Y-116299800D01*
X202869100Y-116299800D01*
X202802061Y-116280115D01*
X202756306Y-116227311D01*
X202745100Y-116175800D01*
X202745100Y-112204300D01*
X202673666Y-112204300D01*
X202459737Y-112219600D01*
X202180204Y-112280409D01*
X201912141Y-112380391D01*
X201661061Y-112517491D01*
X201661060Y-112517492D01*
X201432034Y-112688939D01*
X201432022Y-112688949D01*
X201229749Y-112891222D01*
X201229739Y-112891234D01*
X201058292Y-113120260D01*
X201058291Y-113120261D01*
X200921191Y-113371341D01*
X200821209Y-113639404D01*
X200760400Y-113918937D01*
X200745100Y-114132866D01*
X200745100Y-114931200D01*
X200725415Y-114998239D01*
X200672611Y-115043994D01*
X200621100Y-115055200D01*
X199989200Y-115055200D01*
X199989200Y-118284000D01*
X199969515Y-118351039D01*
X199916711Y-118396794D01*
X199865200Y-118408000D01*
X196312478Y-118408000D01*
X196258677Y-118395720D01*
X196196163Y-118365615D01*
X196196165Y-118365615D01*
X195955845Y-118291486D01*
X195955841Y-118291485D01*
X195955837Y-118291484D01*
X195836213Y-118273453D01*
X195707154Y-118254000D01*
X195707149Y-118254000D01*
X195455651Y-118254000D01*
X195455645Y-118254000D01*
X195300773Y-118277344D01*
X195206963Y-118291484D01*
X195206960Y-118291485D01*
X195206954Y-118291486D01*
X194966635Y-118365615D01*
X194904123Y-118395720D01*
X194850322Y-118408000D01*
X192709362Y-118408000D01*
X192642323Y-118388315D01*
X192621681Y-118371681D01*
X191694319Y-117444319D01*
X191660834Y-117382996D01*
X191658000Y-117356638D01*
X191658000Y-115464081D01*
X193843531Y-115464081D01*
X193906927Y-115496382D01*
X193957723Y-115544356D01*
X193974519Y-115612177D01*
X193971524Y-115634459D01*
X193917488Y-115871210D01*
X193917487Y-115871215D01*
X193898695Y-116121995D01*
X193898695Y-116122004D01*
X193917487Y-116372784D01*
X193917488Y-116372789D01*
X193973449Y-116617972D01*
X193973451Y-116617981D01*
X193973453Y-116617986D01*
X194065335Y-116852098D01*
X194191084Y-117069901D01*
X194280870Y-117182489D01*
X194347893Y-117266534D01*
X194445003Y-117356638D01*
X194532251Y-117437592D01*
X194740048Y-117579265D01*
X194966639Y-117688386D01*
X195206963Y-117762516D01*
X195455651Y-117800000D01*
X195455652Y-117800000D01*
X195707148Y-117800000D01*
X195707149Y-117800000D01*
X195955837Y-117762516D01*
X196196161Y-117688386D01*
X196422753Y-117579265D01*
X196630549Y-117437592D01*
X196814910Y-117266530D01*
X196971716Y-117069901D01*
X197097465Y-116852098D01*
X197189347Y-116617986D01*
X197245311Y-116372794D01*
X197255050Y-116242839D01*
X197264105Y-116122004D01*
X197264105Y-116121995D01*
X197245312Y-115871215D01*
X197245311Y-115871210D01*
X197245311Y-115871206D01*
X197191275Y-115634459D01*
X197195548Y-115564721D01*
X197236847Y-115508363D01*
X197255872Y-115496382D01*
X197319267Y-115464081D01*
X195581400Y-113726214D01*
X193843531Y-115464081D01*
X191658000Y-115464081D01*
X191658000Y-112312000D01*
X191978963Y-112312000D01*
X191998698Y-112688558D01*
X192057684Y-113060983D01*
X192057684Y-113060985D01*
X192155281Y-113425221D01*
X192290410Y-113777242D01*
X192429318Y-114049866D01*
X194167186Y-112312000D01*
X194511247Y-112312000D01*
X194531810Y-112520776D01*
X194592708Y-112721530D01*
X194691600Y-112906545D01*
X194824688Y-113068712D01*
X194986855Y-113201800D01*
X195171870Y-113300692D01*
X195372624Y-113361590D01*
X195529082Y-113377000D01*
X195633718Y-113377000D01*
X195790176Y-113361590D01*
X195990930Y-113300692D01*
X196175945Y-113201800D01*
X196338112Y-113068712D01*
X196471200Y-112906545D01*
X196570092Y-112721530D01*
X196630990Y-112520776D01*
X196651553Y-112312000D01*
X196995614Y-112312000D01*
X198733480Y-114049866D01*
X198872388Y-113777246D01*
X199007518Y-113425221D01*
X199105115Y-113060985D01*
X199105115Y-113060983D01*
X199164101Y-112688558D01*
X199183837Y-112312000D01*
X199183837Y-112311999D01*
X199164101Y-111935441D01*
X199105115Y-111563016D01*
X199105115Y-111563014D01*
X199007518Y-111198778D01*
X198872388Y-110846753D01*
X198733479Y-110574132D01*
X196995614Y-112311999D01*
X196995614Y-112312000D01*
X196651553Y-112312000D01*
X196630990Y-112103224D01*
X196570092Y-111902470D01*
X196471200Y-111717455D01*
X196338112Y-111555288D01*
X196175945Y-111422200D01*
X195990930Y-111323308D01*
X195790176Y-111262410D01*
X195633718Y-111247000D01*
X195529082Y-111247000D01*
X195372624Y-111262410D01*
X195171870Y-111323308D01*
X194986855Y-111422200D01*
X194824688Y-111555288D01*
X194691600Y-111717455D01*
X194592708Y-111902470D01*
X194531810Y-112103224D01*
X194511247Y-112312000D01*
X194167186Y-112312000D01*
X192429319Y-110574133D01*
X192290411Y-110846753D01*
X192155281Y-111198778D01*
X192057684Y-111563014D01*
X192057684Y-111563016D01*
X191998698Y-111935441D01*
X191978963Y-112311999D01*
X191978963Y-112312000D01*
X191658000Y-112312000D01*
X191658000Y-109159919D01*
X193843533Y-109159919D01*
X195581400Y-110897786D01*
X195581401Y-110897786D01*
X196696892Y-109782293D01*
X214159332Y-109782293D01*
X215462001Y-111084962D01*
X215462002Y-111084962D01*
X216764668Y-109782293D01*
X222359331Y-109782293D01*
X223662000Y-111084962D01*
X223662001Y-111084962D01*
X224964667Y-109782293D01*
X224833403Y-109716370D01*
X224510219Y-109598741D01*
X224175566Y-109519427D01*
X223833957Y-109479500D01*
X223490043Y-109479500D01*
X223148434Y-109519427D01*
X223148432Y-109519427D01*
X222813780Y-109598741D01*
X222490592Y-109716372D01*
X222359331Y-109782293D01*
X216764668Y-109782293D01*
X216633404Y-109716370D01*
X216310220Y-109598741D01*
X215975567Y-109519427D01*
X215633958Y-109479500D01*
X215290044Y-109479500D01*
X214948435Y-109519427D01*
X214948433Y-109519427D01*
X214613781Y-109598741D01*
X214290593Y-109716372D01*
X214159332Y-109782293D01*
X196696892Y-109782293D01*
X197319266Y-109159918D01*
X197046642Y-109021010D01*
X196694621Y-108885881D01*
X196330384Y-108788284D01*
X195957958Y-108729298D01*
X195581401Y-108709563D01*
X195581399Y-108709563D01*
X195204841Y-108729298D01*
X194832416Y-108788284D01*
X194832414Y-108788284D01*
X194468178Y-108885881D01*
X194116153Y-109021011D01*
X193843533Y-109159919D01*
X191658000Y-109159919D01*
X191658000Y-108283362D01*
X191677685Y-108216323D01*
X191694319Y-108195681D01*
X192451381Y-107438619D01*
X192512704Y-107405134D01*
X192539062Y-107402300D01*
X225320938Y-107402300D01*
X225387977Y-107421985D01*
G37*
%TD.AperFunction*%
%TD*%
%TA.AperFunction,Conductor*%
%TO.N,Net-(PS2-+VIN)*%
G36*
X149871999Y-135027786D02*
G01*
X150997786Y-133902000D01*
X151843342Y-133902000D01*
X154798599Y-133902000D01*
X154865638Y-133921685D01*
X154911393Y-133974489D01*
X154921337Y-134043647D01*
X154919765Y-134052358D01*
X154862600Y-134315137D01*
X154847300Y-134529066D01*
X154847300Y-135603800D01*
X160345900Y-135603800D01*
X160345900Y-134529066D01*
X160330599Y-134315137D01*
X160273435Y-134052358D01*
X160278419Y-133982667D01*
X160320290Y-133926733D01*
X160385755Y-133902316D01*
X160394601Y-133902000D01*
X164698638Y-133902000D01*
X164765677Y-133921685D01*
X164786319Y-133938319D01*
X165713681Y-134865681D01*
X165747166Y-134927004D01*
X165750000Y-134953362D01*
X165750000Y-146856000D01*
X166523471Y-146856000D01*
X166409657Y-146983358D01*
X166211422Y-147262744D01*
X166045713Y-147562571D01*
X166045711Y-147562575D01*
X165914619Y-147879064D01*
X165819785Y-148208237D01*
X165819783Y-148208245D01*
X165762403Y-148545962D01*
X165762401Y-148545974D01*
X165743194Y-148888000D01*
X165762401Y-149230025D01*
X165762403Y-149230037D01*
X165819783Y-149567754D01*
X165819785Y-149567762D01*
X165914619Y-149896935D01*
X166045711Y-150213424D01*
X166045716Y-150213433D01*
X166050213Y-150221570D01*
X166050214Y-150221570D01*
X167423974Y-148847811D01*
X168159216Y-148847811D01*
X168169290Y-149007933D01*
X168218868Y-149160519D01*
X168304835Y-149295981D01*
X168421790Y-149405809D01*
X168562383Y-149483101D01*
X168717781Y-149523000D01*
X168837952Y-149523000D01*
X168957173Y-149507939D01*
X169106345Y-149448877D01*
X169236142Y-149354574D01*
X169338410Y-149230954D01*
X169406721Y-149085785D01*
X169436784Y-148928189D01*
X169426710Y-148768067D01*
X169377132Y-148615481D01*
X169291165Y-148480019D01*
X169174210Y-148370191D01*
X169033617Y-148292899D01*
X168878219Y-148253000D01*
X168758048Y-148253000D01*
X168638827Y-148268061D01*
X168489655Y-148327123D01*
X168359858Y-148421426D01*
X168257590Y-148545046D01*
X168189279Y-148690215D01*
X168159216Y-148847811D01*
X167423974Y-148847811D01*
X168710318Y-147561467D01*
X168771641Y-147527982D01*
X168841333Y-147532966D01*
X168885680Y-147561467D01*
X171545784Y-150221571D01*
X171550286Y-150213427D01*
X171681380Y-149896934D01*
X171776214Y-149567762D01*
X171776216Y-149567754D01*
X171833596Y-149230037D01*
X171833598Y-149230024D01*
X171836906Y-149171121D01*
X171860318Y-149105291D01*
X171915604Y-149062568D01*
X171985212Y-149056518D01*
X172047040Y-149089060D01*
X172048392Y-149090392D01*
X172137451Y-149179451D01*
X172164331Y-149219679D01*
X172852561Y-150881212D01*
X172862000Y-150928665D01*
X172862000Y-160850438D01*
X172842315Y-160917477D01*
X172825681Y-160938119D01*
X172398819Y-161364981D01*
X172337496Y-161398466D01*
X172311138Y-161401300D01*
X162744862Y-161401300D01*
X162677823Y-161381615D01*
X162657181Y-161364981D01*
X162230319Y-160938119D01*
X162196834Y-160876796D01*
X162194000Y-160850438D01*
X162194000Y-154206002D01*
X162194000Y-154206000D01*
X162194000Y-153206000D01*
X161670595Y-151635784D01*
X167464427Y-151635784D01*
X167472573Y-151640287D01*
X167472575Y-151640288D01*
X167789064Y-151771380D01*
X168118237Y-151866214D01*
X168118245Y-151866216D01*
X168455962Y-151923596D01*
X168455974Y-151923598D01*
X168798000Y-151942805D01*
X169140025Y-151923598D01*
X169140037Y-151923596D01*
X169477754Y-151866216D01*
X169477762Y-151866214D01*
X169806934Y-151771380D01*
X170123427Y-151640286D01*
X170131571Y-151635784D01*
X168798000Y-150302214D01*
X167464427Y-151635784D01*
X161670595Y-151635784D01*
X159146000Y-144062000D01*
X158852977Y-144062000D01*
X158866085Y-144017361D01*
X158918889Y-143971606D01*
X158970400Y-143960400D01*
X161800300Y-143960400D01*
X161800300Y-137229400D01*
X160469900Y-137229400D01*
X160402861Y-137209715D01*
X160357106Y-137156911D01*
X160345900Y-137105400D01*
X160345900Y-137102400D01*
X154847300Y-137102400D01*
X154847300Y-137105400D01*
X154827615Y-137172439D01*
X154774811Y-137218194D01*
X154723300Y-137229400D01*
X153392900Y-137229400D01*
X153392900Y-143938000D01*
X153373215Y-144005039D01*
X153320411Y-144050794D01*
X153268900Y-144062000D01*
X147760000Y-144062000D01*
X143160000Y-144062000D01*
X143160000Y-140802396D01*
X145160000Y-140802396D01*
X145160000Y-142879000D01*
X147617231Y-142879000D01*
X147617231Y-142878999D01*
X147587876Y-142764949D01*
X147465396Y-142449605D01*
X147306481Y-142150968D01*
X147113359Y-141873218D01*
X146888741Y-141620258D01*
X146635781Y-141395640D01*
X146358031Y-141202518D01*
X146059394Y-141043604D01*
X146059394Y-141043603D01*
X145744048Y-140921123D01*
X145416449Y-140836803D01*
X145416445Y-140836802D01*
X145160000Y-140802396D01*
X143160000Y-140802396D01*
X142903554Y-140836802D01*
X142903550Y-140836803D01*
X142575951Y-140921123D01*
X142260605Y-141043603D01*
X142260605Y-141043604D01*
X141961968Y-141202518D01*
X141684218Y-141395640D01*
X141431258Y-141620258D01*
X141206640Y-141873218D01*
X141013518Y-142150968D01*
X140854604Y-142449605D01*
X140854599Y-142449614D01*
X140843587Y-142477968D01*
X140800966Y-142533333D01*
X140735178Y-142556865D01*
X140667112Y-142541094D01*
X140618377Y-142491028D01*
X140604000Y-142433073D01*
X140604000Y-139263370D01*
X148464840Y-139263370D01*
X148503114Y-139284523D01*
X148829987Y-139419918D01*
X149169949Y-139517859D01*
X149169958Y-139517861D01*
X149518748Y-139577123D01*
X149518760Y-139577125D01*
X149872000Y-139596962D01*
X150225239Y-139577125D01*
X150225251Y-139577123D01*
X150574041Y-139517861D01*
X150574050Y-139517859D01*
X150914012Y-139419918D01*
X151240885Y-139284523D01*
X151279157Y-139263371D01*
X151279157Y-139263370D01*
X149872000Y-137856213D01*
X148464840Y-139263370D01*
X140604000Y-139263370D01*
X140604000Y-136442000D01*
X146717037Y-136442000D01*
X146736874Y-136795239D01*
X146736876Y-136795251D01*
X146796138Y-137144041D01*
X146796140Y-137144050D01*
X146894081Y-137484012D01*
X147029472Y-137810877D01*
X147029473Y-137810879D01*
X147050628Y-137849157D01*
X148413880Y-136485906D01*
X149118172Y-136485906D01*
X149148616Y-136658567D01*
X149218059Y-136819553D01*
X149322756Y-136960185D01*
X149457062Y-137072882D01*
X149613739Y-137151568D01*
X149784338Y-137192000D01*
X149915684Y-137192000D01*
X150046139Y-137176752D01*
X150210891Y-137116787D01*
X150357373Y-137020445D01*
X150477688Y-136892918D01*
X150565350Y-136741082D01*
X150615634Y-136573123D01*
X150623271Y-136442000D01*
X151286213Y-136442000D01*
X152693370Y-137849157D01*
X152693371Y-137849157D01*
X152714523Y-137810885D01*
X152849918Y-137484012D01*
X152947859Y-137144050D01*
X152947861Y-137144041D01*
X153007123Y-136795251D01*
X153007125Y-136795239D01*
X153026962Y-136442000D01*
X153007125Y-136088760D01*
X153007123Y-136088748D01*
X152947861Y-135739958D01*
X152947859Y-135739949D01*
X152849918Y-135399987D01*
X152714523Y-135073114D01*
X152693370Y-135034840D01*
X151286213Y-136441999D01*
X151286213Y-136442000D01*
X150623271Y-136442000D01*
X150625828Y-136398094D01*
X150595384Y-136225433D01*
X150525941Y-136064447D01*
X150421244Y-135923815D01*
X150286938Y-135811118D01*
X150130261Y-135732432D01*
X149959662Y-135692000D01*
X149828316Y-135692000D01*
X149697861Y-135707248D01*
X149533109Y-135767213D01*
X149386627Y-135863555D01*
X149266312Y-135991082D01*
X149178650Y-136142918D01*
X149128366Y-136310877D01*
X149118172Y-136485906D01*
X148413880Y-136485906D01*
X148457786Y-136442000D01*
X148457786Y-136441999D01*
X147050628Y-135034841D01*
X147029478Y-135073109D01*
X147029477Y-135073112D01*
X146894081Y-135399987D01*
X146796140Y-135739949D01*
X146796138Y-135739958D01*
X146736876Y-136088748D01*
X146736874Y-136088760D01*
X146717037Y-136442000D01*
X140604000Y-136442000D01*
X140604000Y-134953362D01*
X140623685Y-134886323D01*
X140640319Y-134865681D01*
X141567681Y-133938319D01*
X141629004Y-133904834D01*
X141655362Y-133902000D01*
X147900658Y-133902000D01*
X148746213Y-133902000D01*
X149871999Y-135027786D01*
G37*
%TD.AperFunction*%
%TD*%
%TA.AperFunction,Conductor*%
%TO.N,Net-(PS2-+VOUT)*%
G36*
X231313677Y-127063685D02*
G01*
X231334319Y-127080319D01*
X232261681Y-128007681D01*
X232295166Y-128069004D01*
X232298000Y-128095362D01*
X232298000Y-139200638D01*
X232278315Y-139267677D01*
X232261681Y-139288319D01*
X231334319Y-140215681D01*
X231272996Y-140249166D01*
X231246638Y-140252000D01*
X211978000Y-140252000D01*
X211978000Y-141251999D01*
X211978000Y-161277300D01*
X211958315Y-161344339D01*
X211905511Y-161390094D01*
X211854000Y-161401300D01*
X211562621Y-161401300D01*
X211495582Y-161381615D01*
X211449827Y-161328811D01*
X211438621Y-161277300D01*
X211438621Y-160035062D01*
X211438620Y-160035057D01*
X211430929Y-160008865D01*
X211427171Y-159991587D01*
X211423286Y-159964569D01*
X211423286Y-159964567D01*
X211423286Y-159964566D01*
X211423284Y-159964561D01*
X211411947Y-159939736D01*
X211405764Y-159923159D01*
X211398074Y-159896971D01*
X211398074Y-159896969D01*
X211383313Y-159874001D01*
X211374835Y-159858474D01*
X211374126Y-159856922D01*
X211363498Y-159833650D01*
X211345621Y-159813019D01*
X211335024Y-159798863D01*
X211320264Y-159775895D01*
X211320263Y-159775894D01*
X211299631Y-159758015D01*
X211287127Y-159745511D01*
X211269249Y-159724880D01*
X211269244Y-159724876D01*
X211246281Y-159710118D01*
X211232121Y-159699519D01*
X211225128Y-159693460D01*
X211211494Y-159681646D01*
X211186662Y-159670305D01*
X211171140Y-159661829D01*
X211171138Y-159661828D01*
X211148174Y-159647070D01*
X211148172Y-159647069D01*
X211121979Y-159639378D01*
X211105409Y-159633197D01*
X211080578Y-159621858D01*
X211053544Y-159617970D01*
X211036275Y-159614213D01*
X211010084Y-159606523D01*
X211010082Y-159606523D01*
X210973920Y-159606523D01*
X204351946Y-159606523D01*
X204208024Y-159606523D01*
X204208021Y-159606523D01*
X204208019Y-159606524D01*
X204181827Y-159614213D01*
X204164553Y-159617971D01*
X204137529Y-159621857D01*
X204137526Y-159621858D01*
X204112695Y-159633198D01*
X204096126Y-159639378D01*
X204083156Y-159643186D01*
X204069932Y-159647070D01*
X204069930Y-159647070D01*
X204069930Y-159647071D01*
X204046967Y-159661828D01*
X204031446Y-159670303D01*
X204006613Y-159681644D01*
X204006610Y-159681646D01*
X203985985Y-159699518D01*
X203971825Y-159710118D01*
X203948861Y-159724876D01*
X203948856Y-159724880D01*
X203930978Y-159745512D01*
X203918474Y-159758016D01*
X203897842Y-159775894D01*
X203897838Y-159775899D01*
X203883080Y-159798863D01*
X203872480Y-159813023D01*
X203854608Y-159833648D01*
X203854606Y-159833651D01*
X203843265Y-159858484D01*
X203834790Y-159874005D01*
X203820033Y-159896968D01*
X203812340Y-159923164D01*
X203806160Y-159939733D01*
X203794820Y-159964564D01*
X203794819Y-159964567D01*
X203790933Y-159991591D01*
X203787175Y-160008865D01*
X203779486Y-160035057D01*
X203779485Y-160035065D01*
X203779485Y-161277300D01*
X203759800Y-161344339D01*
X203706996Y-161390094D01*
X203655485Y-161401300D01*
X186115174Y-161401300D01*
X186048135Y-161381615D01*
X186027354Y-161364842D01*
X185940088Y-161277300D01*
X185602120Y-160938260D01*
X185568733Y-160876886D01*
X185565942Y-160850336D01*
X185570988Y-159255784D01*
X187784427Y-159255784D01*
X187792573Y-159260287D01*
X187792575Y-159260288D01*
X188109064Y-159391380D01*
X188438237Y-159486214D01*
X188438245Y-159486216D01*
X188775962Y-159543596D01*
X188775974Y-159543598D01*
X189118000Y-159562805D01*
X189460025Y-159543598D01*
X189460037Y-159543596D01*
X189797754Y-159486216D01*
X189797762Y-159486214D01*
X190126934Y-159391380D01*
X190443427Y-159260286D01*
X190451571Y-159255784D01*
X189118000Y-157922214D01*
X187784427Y-159255784D01*
X185570988Y-159255784D01*
X185579683Y-156508000D01*
X186063194Y-156508000D01*
X186082401Y-156850025D01*
X186082403Y-156850037D01*
X186139783Y-157187754D01*
X186139785Y-157187762D01*
X186234619Y-157516935D01*
X186365711Y-157833424D01*
X186365716Y-157833433D01*
X186370213Y-157841570D01*
X186370214Y-157841570D01*
X187703786Y-156507999D01*
X187663598Y-156467811D01*
X188479216Y-156467811D01*
X188489290Y-156627933D01*
X188538868Y-156780519D01*
X188624835Y-156915981D01*
X188741790Y-157025809D01*
X188882383Y-157103101D01*
X189037781Y-157143000D01*
X189157952Y-157143000D01*
X189277173Y-157127939D01*
X189426345Y-157068877D01*
X189556142Y-156974574D01*
X189658410Y-156850954D01*
X189726721Y-156705785D01*
X189756784Y-156548189D01*
X189754256Y-156508000D01*
X190532214Y-156508000D01*
X191865784Y-157841571D01*
X191870286Y-157833427D01*
X192001380Y-157516934D01*
X192096214Y-157187762D01*
X192096216Y-157187754D01*
X192153596Y-156850037D01*
X192153598Y-156850025D01*
X192172805Y-156508000D01*
X192153598Y-156165974D01*
X192153596Y-156165962D01*
X192096216Y-155828245D01*
X192096214Y-155828237D01*
X192001380Y-155499064D01*
X191870288Y-155182575D01*
X191870287Y-155182573D01*
X191865784Y-155174427D01*
X190532214Y-156507999D01*
X190532214Y-156508000D01*
X189754256Y-156508000D01*
X189746710Y-156388067D01*
X189697132Y-156235481D01*
X189611165Y-156100019D01*
X189494210Y-155990191D01*
X189353617Y-155912899D01*
X189198219Y-155873000D01*
X189078048Y-155873000D01*
X188958827Y-155888061D01*
X188809655Y-155947123D01*
X188679858Y-156041426D01*
X188577590Y-156165046D01*
X188509279Y-156310215D01*
X188479216Y-156467811D01*
X187663598Y-156467811D01*
X186370214Y-155174427D01*
X186365713Y-155182572D01*
X186234619Y-155499064D01*
X186139785Y-155828237D01*
X186139783Y-155828245D01*
X186082403Y-156165962D01*
X186082401Y-156165974D01*
X186063194Y-156508000D01*
X185579683Y-156508000D01*
X185583766Y-155217676D01*
X185588186Y-155185263D01*
X185979292Y-153760214D01*
X187784427Y-153760214D01*
X189118000Y-155093786D01*
X189118001Y-155093786D01*
X190451570Y-153760214D01*
X190451570Y-153760213D01*
X190443433Y-153755716D01*
X190443424Y-153755711D01*
X190126935Y-153624619D01*
X189797762Y-153529785D01*
X189797754Y-153529783D01*
X189460037Y-153472403D01*
X189460025Y-153472401D01*
X189118000Y-153453194D01*
X188775974Y-153472401D01*
X188775962Y-153472403D01*
X188438245Y-153529783D01*
X188438237Y-153529785D01*
X188109064Y-153624619D01*
X187792572Y-153755713D01*
X187784427Y-153760214D01*
X185979292Y-153760214D01*
X186090345Y-153355575D01*
X186103090Y-153325448D01*
X189274909Y-147943495D01*
X189325903Y-147895735D01*
X189356689Y-147885804D01*
X189356564Y-147885283D01*
X189361298Y-147884146D01*
X189361302Y-147884146D01*
X189598612Y-147827172D01*
X189824089Y-147733777D01*
X190032179Y-147606259D01*
X190217759Y-147447759D01*
X190376259Y-147262179D01*
X190503777Y-147054089D01*
X190597172Y-146828612D01*
X190654146Y-146591302D01*
X190673294Y-146348000D01*
X190654146Y-146104698D01*
X190597172Y-145867388D01*
X190580088Y-145826145D01*
X190572620Y-145756678D01*
X190587818Y-145715745D01*
X194181553Y-139617883D01*
X194226859Y-139573181D01*
X194723685Y-139289294D01*
X194791654Y-139273127D01*
X194857578Y-139296274D01*
X194900523Y-139351388D01*
X194909200Y-139396959D01*
X194909200Y-142080800D01*
X195541100Y-142080800D01*
X195608139Y-142100485D01*
X195653894Y-142153289D01*
X195665100Y-142204800D01*
X195665100Y-143003134D01*
X195680400Y-143217062D01*
X195741209Y-143496595D01*
X195841191Y-143764658D01*
X195978291Y-144015738D01*
X195978292Y-144015739D01*
X196149739Y-144244765D01*
X196149749Y-144244777D01*
X196352022Y-144447050D01*
X196352034Y-144447060D01*
X196581060Y-144618507D01*
X196581061Y-144618508D01*
X196832142Y-144755608D01*
X196832141Y-144755608D01*
X197100204Y-144855590D01*
X197379737Y-144916399D01*
X197593666Y-144931700D01*
X197665100Y-144931700D01*
X197665100Y-140960200D01*
X197684785Y-140893161D01*
X197737589Y-140847406D01*
X197789100Y-140836200D01*
X198734900Y-140836200D01*
X198801939Y-140855885D01*
X198847694Y-140908689D01*
X198858900Y-140960200D01*
X198858900Y-144931700D01*
X198930334Y-144931700D01*
X199144262Y-144916399D01*
X199423795Y-144855590D01*
X199691858Y-144755608D01*
X199942938Y-144618508D01*
X199942939Y-144618507D01*
X200171965Y-144447060D01*
X200171977Y-144447050D01*
X200374250Y-144244777D01*
X200374260Y-144244765D01*
X200545707Y-144015739D01*
X200545708Y-144015738D01*
X200682808Y-143764658D01*
X200782790Y-143496595D01*
X200843599Y-143217062D01*
X200858900Y-143003134D01*
X200858900Y-142204800D01*
X200878585Y-142137761D01*
X200931389Y-142092006D01*
X200982900Y-142080800D01*
X201614800Y-142080800D01*
X201614800Y-140914500D01*
X201975602Y-140914500D01*
X201976373Y-140927673D01*
X201976374Y-140927679D01*
X202031436Y-141223844D01*
X202031438Y-141223855D01*
X202125478Y-141510020D01*
X202125483Y-141510032D01*
X202256828Y-141781118D01*
X202256831Y-141781123D01*
X202423141Y-142032288D01*
X202621448Y-142259051D01*
X202848211Y-142457358D01*
X203099376Y-142623668D01*
X203099381Y-142623671D01*
X203370467Y-142755016D01*
X203370479Y-142755021D01*
X203656644Y-142849061D01*
X203656655Y-142849063D01*
X203952824Y-142904126D01*
X204129992Y-142914500D01*
X204203499Y-142914498D01*
X204203500Y-142914498D01*
X204203500Y-140914500D01*
X205528500Y-140914500D01*
X205528500Y-142914499D01*
X205602006Y-142914499D01*
X205779175Y-142904126D01*
X206075344Y-142849063D01*
X206075355Y-142849061D01*
X206361520Y-142755021D01*
X206361532Y-142755016D01*
X206632618Y-142623671D01*
X206632623Y-142623668D01*
X206883788Y-142457358D01*
X207110551Y-142259051D01*
X207308858Y-142032288D01*
X207475168Y-141781123D01*
X207475171Y-141781118D01*
X207606516Y-141510032D01*
X207606521Y-141510020D01*
X207700561Y-141223855D01*
X207700563Y-141223844D01*
X207755625Y-140927679D01*
X207755626Y-140927673D01*
X207756398Y-140914500D01*
X205528500Y-140914500D01*
X204203500Y-140914500D01*
X201975602Y-140914500D01*
X201614800Y-140914500D01*
X201614800Y-138852000D01*
X201634485Y-138784961D01*
X201687289Y-138739206D01*
X201738800Y-138728000D01*
X202056481Y-138728000D01*
X202123520Y-138747685D01*
X202169275Y-138800489D01*
X202179219Y-138869647D01*
X202168072Y-138906068D01*
X202125483Y-138993967D01*
X202125478Y-138993979D01*
X202031438Y-139280144D01*
X202031436Y-139280155D01*
X201976374Y-139576320D01*
X201976373Y-139576326D01*
X201975601Y-139589499D01*
X201975602Y-139589500D01*
X207756398Y-139589500D01*
X207756398Y-139589499D01*
X207755626Y-139576326D01*
X207755625Y-139576320D01*
X207700563Y-139280155D01*
X207700561Y-139280144D01*
X207606521Y-138993979D01*
X207606516Y-138993967D01*
X207530805Y-138837706D01*
X214159331Y-138837706D01*
X214290586Y-138903624D01*
X214290587Y-138903625D01*
X214613781Y-139021258D01*
X214948434Y-139100572D01*
X215290043Y-139140499D01*
X215290044Y-139140500D01*
X215633958Y-139140500D01*
X215633958Y-139140499D01*
X215975566Y-139100572D01*
X215975568Y-139100572D01*
X216310220Y-139021258D01*
X216633414Y-138903625D01*
X216633415Y-138903624D01*
X216764669Y-138837706D01*
X222359330Y-138837706D01*
X222490585Y-138903624D01*
X222490586Y-138903625D01*
X222813780Y-139021258D01*
X223148433Y-139100572D01*
X223490042Y-139140499D01*
X223490043Y-139140500D01*
X223833957Y-139140500D01*
X223833957Y-139140499D01*
X224175565Y-139100572D01*
X224175567Y-139100572D01*
X224510219Y-139021258D01*
X224833413Y-138903625D01*
X224833414Y-138903624D01*
X224964668Y-138837706D01*
X224964668Y-138837705D01*
X223662000Y-137535038D01*
X222359330Y-138837705D01*
X222359330Y-138837706D01*
X216764669Y-138837706D01*
X216764669Y-138837705D01*
X215462001Y-137535038D01*
X214159331Y-138837705D01*
X214159331Y-138837706D01*
X207530805Y-138837706D01*
X207475171Y-138722881D01*
X207475168Y-138722876D01*
X207308858Y-138471711D01*
X207110551Y-138244948D01*
X206898000Y-138059069D01*
X206898000Y-136188003D01*
X212504497Y-136188003D01*
X212524495Y-136531345D01*
X212524496Y-136531356D01*
X212584214Y-136870038D01*
X212584217Y-136870048D01*
X212682856Y-137199527D01*
X212809603Y-137493358D01*
X212809604Y-137493359D01*
X214030150Y-136272813D01*
X214763501Y-136272813D01*
X214804096Y-136437511D01*
X214882925Y-136587707D01*
X214995408Y-136714675D01*
X215135008Y-136811033D01*
X215293611Y-136871184D01*
X215419751Y-136886500D01*
X215504251Y-136886500D01*
X215630391Y-136871184D01*
X215788994Y-136811033D01*
X215928594Y-136714675D01*
X216041077Y-136587707D01*
X216119906Y-136437511D01*
X216160501Y-136272813D01*
X216160501Y-136188001D01*
X216809039Y-136188001D01*
X218114397Y-137493359D01*
X218241145Y-137199527D01*
X218339784Y-136870048D01*
X218339787Y-136870038D01*
X218399505Y-136531356D01*
X218399506Y-136531345D01*
X218419505Y-136188003D01*
X220704496Y-136188003D01*
X220724494Y-136531345D01*
X220724495Y-136531356D01*
X220784213Y-136870038D01*
X220784216Y-136870048D01*
X220882855Y-137199527D01*
X221009602Y-137493358D01*
X221009603Y-137493359D01*
X222230149Y-136272813D01*
X222963500Y-136272813D01*
X223004095Y-136437511D01*
X223082924Y-136587707D01*
X223195407Y-136714675D01*
X223335007Y-136811033D01*
X223493610Y-136871184D01*
X223619750Y-136886500D01*
X223704250Y-136886500D01*
X223830390Y-136871184D01*
X223988993Y-136811033D01*
X224128593Y-136714675D01*
X224241076Y-136587707D01*
X224319905Y-136437511D01*
X224360500Y-136272813D01*
X224360500Y-136188001D01*
X225009038Y-136188001D01*
X226314396Y-137493359D01*
X226441144Y-137199527D01*
X226539783Y-136870048D01*
X226539786Y-136870038D01*
X226599504Y-136531356D01*
X226599505Y-136531345D01*
X226619504Y-136188003D01*
X226619504Y-136187996D01*
X226599505Y-135844654D01*
X226599504Y-135844643D01*
X226539786Y-135505961D01*
X226539783Y-135505951D01*
X226441144Y-135176472D01*
X226314396Y-134882639D01*
X225009038Y-136187999D01*
X225009038Y-136188001D01*
X224360500Y-136188001D01*
X224360500Y-136103187D01*
X224319905Y-135938489D01*
X224241076Y-135788293D01*
X224128593Y-135661325D01*
X223988993Y-135564967D01*
X223830390Y-135504816D01*
X223704250Y-135489500D01*
X223619750Y-135489500D01*
X223493610Y-135504816D01*
X223335007Y-135564967D01*
X223195407Y-135661325D01*
X223082924Y-135788293D01*
X223004095Y-135938489D01*
X222963500Y-136103187D01*
X222963500Y-136272813D01*
X222230149Y-136272813D01*
X222314962Y-136188000D01*
X222314962Y-136187999D01*
X221009602Y-134882640D01*
X220882855Y-135176472D01*
X220784216Y-135505951D01*
X220784213Y-135505961D01*
X220724495Y-135844643D01*
X220724494Y-135844654D01*
X220704496Y-136187996D01*
X220704496Y-136188003D01*
X218419505Y-136188003D01*
X218419505Y-136187996D01*
X218399506Y-135844654D01*
X218399505Y-135844643D01*
X218339787Y-135505961D01*
X218339784Y-135505951D01*
X218241145Y-135176472D01*
X218114397Y-134882639D01*
X216809039Y-136187999D01*
X216809039Y-136188001D01*
X216160501Y-136188001D01*
X216160501Y-136103187D01*
X216119906Y-135938489D01*
X216041077Y-135788293D01*
X215928594Y-135661325D01*
X215788994Y-135564967D01*
X215630391Y-135504816D01*
X215504251Y-135489500D01*
X215419751Y-135489500D01*
X215293611Y-135504816D01*
X215135008Y-135564967D01*
X214995408Y-135661325D01*
X214882925Y-135788293D01*
X214804096Y-135938489D01*
X214763501Y-136103187D01*
X214763501Y-136272813D01*
X214030150Y-136272813D01*
X214114963Y-136188000D01*
X214114963Y-136187999D01*
X212809603Y-134882640D01*
X212682856Y-135176472D01*
X212584217Y-135505951D01*
X212584214Y-135505961D01*
X212524496Y-135844643D01*
X212524495Y-135844654D01*
X212504497Y-136187996D01*
X212504497Y-136188003D01*
X206898000Y-136188003D01*
X206898000Y-133688000D01*
X214309039Y-133688000D01*
X215462001Y-134840962D01*
X216614963Y-133688000D01*
X222509038Y-133688000D01*
X223662000Y-134840962D01*
X224814962Y-133688000D01*
X223662000Y-132535038D01*
X222509038Y-133688000D01*
X216614963Y-133688000D01*
X215462001Y-132535038D01*
X214309039Y-133688000D01*
X206898000Y-133688000D01*
X206898000Y-131188003D01*
X212504497Y-131188003D01*
X212524495Y-131531345D01*
X212524496Y-131531356D01*
X212584214Y-131870038D01*
X212584217Y-131870048D01*
X212682856Y-132199527D01*
X212809603Y-132493358D01*
X212809604Y-132493359D01*
X214030150Y-131272813D01*
X214763501Y-131272813D01*
X214804096Y-131437511D01*
X214882925Y-131587707D01*
X214995408Y-131714675D01*
X215135008Y-131811033D01*
X215293611Y-131871184D01*
X215419751Y-131886500D01*
X215504251Y-131886500D01*
X215630391Y-131871184D01*
X215788994Y-131811033D01*
X215928594Y-131714675D01*
X216041077Y-131587707D01*
X216119906Y-131437511D01*
X216160501Y-131272813D01*
X216160501Y-131188001D01*
X216809039Y-131188001D01*
X218114397Y-132493359D01*
X218241145Y-132199527D01*
X218339784Y-131870048D01*
X218339787Y-131870038D01*
X218399505Y-131531356D01*
X218399506Y-131531345D01*
X218419505Y-131188003D01*
X220704496Y-131188003D01*
X220724494Y-131531345D01*
X220724495Y-131531356D01*
X220784213Y-131870038D01*
X220784216Y-131870048D01*
X220882855Y-132199527D01*
X221009602Y-132493358D01*
X221009603Y-132493359D01*
X222230149Y-131272813D01*
X222963500Y-131272813D01*
X223004095Y-131437511D01*
X223082924Y-131587707D01*
X223195407Y-131714675D01*
X223335007Y-131811033D01*
X223493610Y-131871184D01*
X223619750Y-131886500D01*
X223704250Y-131886500D01*
X223830390Y-131871184D01*
X223988993Y-131811033D01*
X224128593Y-131714675D01*
X224241076Y-131587707D01*
X224319905Y-131437511D01*
X224360500Y-131272813D01*
X224360500Y-131188001D01*
X225009038Y-131188001D01*
X226314396Y-132493359D01*
X226441144Y-132199527D01*
X226539783Y-131870048D01*
X226539786Y-131870038D01*
X226599504Y-131531356D01*
X226599505Y-131531345D01*
X226619504Y-131188003D01*
X226619504Y-131187996D01*
X226599505Y-130844654D01*
X226599504Y-130844643D01*
X226539786Y-130505961D01*
X226539783Y-130505951D01*
X226441144Y-130176472D01*
X226314396Y-129882639D01*
X225009038Y-131187999D01*
X225009038Y-131188001D01*
X224360500Y-131188001D01*
X224360500Y-131103187D01*
X224319905Y-130938489D01*
X224241076Y-130788293D01*
X224128593Y-130661325D01*
X223988993Y-130564967D01*
X223830390Y-130504816D01*
X223704250Y-130489500D01*
X223619750Y-130489500D01*
X223493610Y-130504816D01*
X223335007Y-130564967D01*
X223195407Y-130661325D01*
X223082924Y-130788293D01*
X223004095Y-130938489D01*
X222963500Y-131103187D01*
X222963500Y-131272813D01*
X222230149Y-131272813D01*
X222314962Y-131188000D01*
X222314962Y-131187999D01*
X221009602Y-129882640D01*
X220882855Y-130176472D01*
X220784216Y-130505951D01*
X220784213Y-130505961D01*
X220724495Y-130844643D01*
X220724494Y-130844654D01*
X220704496Y-131187996D01*
X220704496Y-131188003D01*
X218419505Y-131188003D01*
X218419505Y-131187996D01*
X218399506Y-130844654D01*
X218399505Y-130844643D01*
X218339787Y-130505961D01*
X218339784Y-130505951D01*
X218241145Y-130176472D01*
X218114397Y-129882639D01*
X216809039Y-131187999D01*
X216809039Y-131188001D01*
X216160501Y-131188001D01*
X216160501Y-131103187D01*
X216119906Y-130938489D01*
X216041077Y-130788293D01*
X215928594Y-130661325D01*
X215788994Y-130564967D01*
X215630391Y-130504816D01*
X215504251Y-130489500D01*
X215419751Y-130489500D01*
X215293611Y-130504816D01*
X215135008Y-130564967D01*
X214995408Y-130661325D01*
X214882925Y-130788293D01*
X214804096Y-130938489D01*
X214763501Y-131103187D01*
X214763501Y-131272813D01*
X214030150Y-131272813D01*
X214114963Y-131188000D01*
X214114963Y-131187999D01*
X212809603Y-129882640D01*
X212682856Y-130176472D01*
X212584217Y-130505951D01*
X212584214Y-130505961D01*
X212524496Y-130844643D01*
X212524495Y-130844654D01*
X212504497Y-131187996D01*
X212504497Y-131188003D01*
X206898000Y-131188003D01*
X206898000Y-128538293D01*
X214159332Y-128538293D01*
X215462001Y-129840962D01*
X215462002Y-129840962D01*
X216764668Y-128538293D01*
X222359331Y-128538293D01*
X223662000Y-129840962D01*
X223662001Y-129840962D01*
X224964667Y-128538293D01*
X224833403Y-128472370D01*
X224510219Y-128354741D01*
X224175566Y-128275427D01*
X223833957Y-128235500D01*
X223490043Y-128235500D01*
X223148434Y-128275427D01*
X223148432Y-128275427D01*
X222813780Y-128354741D01*
X222490592Y-128472372D01*
X222359331Y-128538293D01*
X216764668Y-128538293D01*
X216633404Y-128472370D01*
X216310220Y-128354741D01*
X215975567Y-128275427D01*
X215633958Y-128235500D01*
X215290044Y-128235500D01*
X214948435Y-128275427D01*
X214948433Y-128275427D01*
X214613781Y-128354741D01*
X214290593Y-128472372D01*
X214159332Y-128538293D01*
X206898000Y-128538293D01*
X206898000Y-128095362D01*
X206917685Y-128028323D01*
X206934319Y-128007681D01*
X207861681Y-127080319D01*
X207923004Y-127046834D01*
X207949362Y-127044000D01*
X231246638Y-127044000D01*
X231313677Y-127063685D01*
G37*
%TD.AperFunction*%
%TD*%
M02*
