%TF.GenerationSoftware,KiCad,Pcbnew,7.0.8*%
%TF.CreationDate,2023-10-25T17:14:19-06:00*%
%TF.ProjectId,GR-LRR-PCB,47522d4c-5252-42d5-9043-422e6b696361,rev?*%
%TF.SameCoordinates,Original*%
%TF.FileFunction,Paste,Bot*%
%TF.FilePolarity,Positive*%
%FSLAX46Y46*%
G04 Gerber Fmt 4.6, Leading zero omitted, Abs format (unit mm)*
G04 Created by KiCad (PCBNEW 7.0.8) date 2023-10-25 17:14:19*
%MOMM*%
%LPD*%
G01*
G04 APERTURE LIST*
G04 Aperture macros list*
%AMRoundRect*
0 Rectangle with rounded corners*
0 $1 Rounding radius*
0 $2 $3 $4 $5 $6 $7 $8 $9 X,Y pos of 4 corners*
0 Add a 4 corners polygon primitive as box body*
4,1,4,$2,$3,$4,$5,$6,$7,$8,$9,$2,$3,0*
0 Add four circle primitives for the rounded corners*
1,1,$1+$1,$2,$3*
1,1,$1+$1,$4,$5*
1,1,$1+$1,$6,$7*
1,1,$1+$1,$8,$9*
0 Add four rect primitives between the rounded corners*
20,1,$1+$1,$2,$3,$4,$5,0*
20,1,$1+$1,$4,$5,$6,$7,0*
20,1,$1+$1,$6,$7,$8,$9,0*
20,1,$1+$1,$8,$9,$2,$3,0*%
G04 Aperture macros list end*
%ADD10RoundRect,0.250000X0.625000X-0.400000X0.625000X0.400000X-0.625000X0.400000X-0.625000X-0.400000X0*%
%ADD11R,0.200000X0.700000*%
G04 APERTURE END LIST*
D10*
%TO.C,R18*%
X161112200Y-94366600D03*
X161112200Y-91266600D03*
%TD*%
D11*
%TO.C,J1*%
X124000600Y-72118800D03*
X124000600Y-69038800D03*
X124400600Y-72118800D03*
X124400600Y-69038800D03*
X124800600Y-72118800D03*
X124800600Y-69038800D03*
X125200600Y-72118800D03*
X125200600Y-69038800D03*
X125600600Y-72118800D03*
X125600600Y-69038800D03*
X126000600Y-72118800D03*
X126000600Y-69038800D03*
X126400600Y-72118800D03*
X126400600Y-69038800D03*
X126800600Y-72118800D03*
X126800600Y-69038800D03*
X127200600Y-72118800D03*
X127200600Y-69038800D03*
X127600600Y-72118800D03*
X127600600Y-69038800D03*
X128000600Y-72118800D03*
X128000600Y-69038800D03*
X128400600Y-72118800D03*
X128400600Y-69038800D03*
X128800600Y-72118800D03*
X128800600Y-69038800D03*
X129200600Y-72118800D03*
X129200600Y-69038800D03*
X129600600Y-72118800D03*
X129600600Y-69038800D03*
X130000600Y-72118800D03*
X130000600Y-69038800D03*
X130400600Y-72118800D03*
X130400600Y-69038800D03*
X130800600Y-72118800D03*
X130800600Y-69038800D03*
X131200600Y-72118800D03*
X131200600Y-69038800D03*
X131600600Y-72118800D03*
X131600600Y-69038800D03*
X132000600Y-72118800D03*
X132000600Y-69038800D03*
X132400600Y-72118800D03*
X132400600Y-69038800D03*
X132800600Y-72118800D03*
X132800600Y-69038800D03*
X133200600Y-72118800D03*
X133200600Y-69038800D03*
X133600600Y-72118800D03*
X133600600Y-69038800D03*
X134000600Y-72118800D03*
X134000600Y-69038800D03*
X134400600Y-72118800D03*
X134400600Y-69038800D03*
X134800600Y-72118800D03*
X134800600Y-69038800D03*
X135200600Y-72118800D03*
X135200600Y-69038800D03*
X135600600Y-72118800D03*
X135600600Y-69038800D03*
X136000600Y-72118800D03*
X136000600Y-69038800D03*
X136400600Y-72118800D03*
X136400600Y-69038800D03*
X136800600Y-72118800D03*
X136800600Y-69038800D03*
X137200600Y-72118800D03*
X137200600Y-69038800D03*
X137600600Y-72118800D03*
X137600600Y-69038800D03*
X138000600Y-72118800D03*
X138000600Y-69038800D03*
X138400600Y-72118800D03*
X138400600Y-69038800D03*
X138800600Y-72118800D03*
X138800600Y-69038800D03*
X139200600Y-72118800D03*
X139200600Y-69038800D03*
X139600600Y-72118800D03*
X139600600Y-69038800D03*
%TD*%
D10*
%TO.C,R3*%
X157244134Y-94341600D03*
X157244134Y-91241600D03*
%TD*%
%TO.C,R1*%
X153376068Y-94371600D03*
X153376068Y-91271600D03*
%TD*%
%TO.C,R20*%
X164980266Y-94311600D03*
X164980266Y-91211600D03*
%TD*%
%TO.C,R2*%
X153376068Y-89261600D03*
X153376068Y-86161600D03*
%TD*%
%TO.C,R19*%
X161112200Y-89266600D03*
X161112200Y-86166600D03*
%TD*%
%TO.C,R17*%
X157244134Y-89291600D03*
X157244134Y-86191600D03*
%TD*%
D11*
%TO.C,J2*%
X124000600Y-115298800D03*
X124000600Y-112218800D03*
X124400600Y-115298800D03*
X124400600Y-112218800D03*
X124800600Y-115298800D03*
X124800600Y-112218800D03*
X125200600Y-115298800D03*
X125200600Y-112218800D03*
X125600600Y-115298800D03*
X125600600Y-112218800D03*
X126000600Y-115298800D03*
X126000600Y-112218800D03*
X126400600Y-115298800D03*
X126400600Y-112218800D03*
X126800600Y-115298800D03*
X126800600Y-112218800D03*
X127200600Y-115298800D03*
X127200600Y-112218800D03*
X127600600Y-115298800D03*
X127600600Y-112218800D03*
X128000600Y-115298800D03*
X128000600Y-112218800D03*
X128400600Y-115298800D03*
X128400600Y-112218800D03*
X128800600Y-115298800D03*
X128800600Y-112218800D03*
X129200600Y-115298800D03*
X129200600Y-112218800D03*
X129600600Y-115298800D03*
X129600600Y-112218800D03*
X130000600Y-115298800D03*
X130000600Y-112218800D03*
X130400600Y-115298800D03*
X130400600Y-112218800D03*
X130800600Y-115298800D03*
X130800600Y-112218800D03*
X131200600Y-115298800D03*
X131200600Y-112218800D03*
X131600600Y-115298800D03*
X131600600Y-112218800D03*
X132000600Y-115298800D03*
X132000600Y-112218800D03*
X132400600Y-115298800D03*
X132400600Y-112218800D03*
X132800600Y-115298800D03*
X132800600Y-112218800D03*
X133200600Y-115298800D03*
X133200600Y-112218800D03*
X133600600Y-115298800D03*
X133600600Y-112218800D03*
X134000600Y-115298800D03*
X134000600Y-112218800D03*
X134400600Y-115298800D03*
X134400600Y-112218800D03*
X134800600Y-115298800D03*
X134800600Y-112218800D03*
X135200600Y-115298800D03*
X135200600Y-112218800D03*
X135600600Y-115298800D03*
X135600600Y-112218800D03*
X136000600Y-115298800D03*
X136000600Y-112218800D03*
X136400600Y-115298800D03*
X136400600Y-112218800D03*
X136800600Y-115298800D03*
X136800600Y-112218800D03*
X137200600Y-115298800D03*
X137200600Y-112218800D03*
X137600600Y-115298800D03*
X137600600Y-112218800D03*
X138000600Y-115298800D03*
X138000600Y-112218800D03*
X138400600Y-115298800D03*
X138400600Y-112218800D03*
X138800600Y-115298800D03*
X138800600Y-112218800D03*
X139200600Y-115298800D03*
X139200600Y-112218800D03*
X139600600Y-115298800D03*
X139600600Y-112218800D03*
%TD*%
D10*
%TO.C,R21*%
X164980266Y-89321600D03*
X164980266Y-86221600D03*
%TD*%
M02*
