%TF.GenerationSoftware,KiCad,Pcbnew,7.0.8*%
%TF.CreationDate,2024-02-15T14:48:36-07:00*%
%TF.ProjectId,GR-LRR-ESTOP-PCB,47522d4c-5252-42d4-9553-544f502d5043,rev?*%
%TF.SameCoordinates,Original*%
%TF.FileFunction,Legend,Bot*%
%TF.FilePolarity,Positive*%
%FSLAX46Y46*%
G04 Gerber Fmt 4.6, Leading zero omitted, Abs format (unit mm)*
G04 Created by KiCad (PCBNEW 7.0.8) date 2024-02-15 14:48:36*
%MOMM*%
%LPD*%
G01*
G04 APERTURE LIST*
%ADD10C,0.150000*%
%ADD11C,0.100000*%
%ADD12C,0.200000*%
%ADD13C,0.508000*%
%ADD14O,3.900000X1.700000*%
G04 APERTURE END LIST*
D10*
X63219533Y-61559119D02*
X63219533Y-62273404D01*
X63219533Y-62273404D02*
X63267152Y-62416261D01*
X63267152Y-62416261D02*
X63362390Y-62511500D01*
X63362390Y-62511500D02*
X63505247Y-62559119D01*
X63505247Y-62559119D02*
X63600485Y-62559119D01*
X62790961Y-61654357D02*
X62743342Y-61606738D01*
X62743342Y-61606738D02*
X62648104Y-61559119D01*
X62648104Y-61559119D02*
X62410009Y-61559119D01*
X62410009Y-61559119D02*
X62314771Y-61606738D01*
X62314771Y-61606738D02*
X62267152Y-61654357D01*
X62267152Y-61654357D02*
X62219533Y-61749595D01*
X62219533Y-61749595D02*
X62219533Y-61844833D01*
X62219533Y-61844833D02*
X62267152Y-61987690D01*
X62267152Y-61987690D02*
X62838580Y-62559119D01*
X62838580Y-62559119D02*
X62219533Y-62559119D01*
D11*
X121890180Y-70009904D02*
X121080657Y-70009904D01*
X121080657Y-70009904D02*
X120985419Y-69962285D01*
X120985419Y-69962285D02*
X120937800Y-69914666D01*
X120937800Y-69914666D02*
X120890180Y-69819428D01*
X120890180Y-69819428D02*
X120890180Y-69628952D01*
X120890180Y-69628952D02*
X120937800Y-69533714D01*
X120937800Y-69533714D02*
X120985419Y-69486095D01*
X120985419Y-69486095D02*
X121080657Y-69438476D01*
X121080657Y-69438476D02*
X121890180Y-69438476D01*
X120890180Y-68438476D02*
X120890180Y-69009904D01*
X120890180Y-68724190D02*
X121890180Y-68724190D01*
X121890180Y-68724190D02*
X121747323Y-68819428D01*
X121747323Y-68819428D02*
X121652085Y-68914666D01*
X121652085Y-68914666D02*
X121604466Y-69009904D01*
D12*
%TO.C,J2*%
X59811200Y-55869300D02*
X59811200Y-56819300D01*
X59811200Y-55869300D02*
X60836200Y-55869300D01*
X67336200Y-55869300D02*
X68611200Y-55869300D01*
X68611200Y-55869300D02*
X68611200Y-56819300D01*
X67186200Y-59369300D02*
G75*
G03*
X67186200Y-59369300I-100000J0D01*
G01*
D13*
%TO.C,J1*%
X57212601Y-63779650D02*
G75*
G03*
X57212601Y-63779650I-381000J0D01*
G01*
D11*
%TO.C,U1*%
X128899400Y-81389200D02*
X134690600Y-72575400D01*
X128874000Y-57119500D02*
X134665200Y-65933300D01*
X134665200Y-81440000D02*
X107030000Y-81440000D01*
X107030000Y-81440000D02*
X107030000Y-57056000D01*
X107030000Y-57056000D02*
X134665200Y-57056000D01*
X134665200Y-57056000D02*
X134665200Y-81440000D01*
X107035800Y-74103000D02*
X136335800Y-74103000D01*
X136335800Y-74103000D02*
X136335800Y-64393000D01*
X136335800Y-64393000D02*
X107035800Y-64393000D01*
X107035800Y-64393000D02*
X107035800Y-74103000D01*
X147530000Y-72448000D02*
X107030000Y-72448000D01*
X107030000Y-72448000D02*
X107030000Y-66048000D01*
X107030000Y-66048000D02*
X147530000Y-66048000D01*
X147530000Y-66048000D02*
X147530000Y-72448000D01*
%TD*%
D14*
%TO.C,SW1*%
X130218600Y-73598000D03*
X130218600Y-64898000D03*
X110418600Y-73598000D03*
X110418600Y-64898000D03*
%TD*%
M02*
