M48
; DRILL file {KiCad 7.0.8} date Thu Dec  7 15:37:43 2023
; FORMAT={-:-/ absolute / inch / decimal}
; #@! TF.CreationDate,2023-12-07T15:37:43-07:00
; #@! TF.GenerationSoftware,Kicad,Pcbnew,7.0.8
; #@! TF.FileFunction,Plated,1,2,PTH
FMAT,2
INCH
; #@! TA.AperFunction,Plated,PTH,ViaDrill
T1C0.0157
; #@! TA.AperFunction,Plated,PTH,ComponentDrill
T2C0.0340
; #@! TA.AperFunction,Plated,PTH,ComponentDrill
T3C0.0394
; #@! TA.AperFunction,Plated,PTH,ComponentDrill
T4C0.0480
; #@! TA.AperFunction,Plated,PTH,ComponentDrill
T5C0.0531
; #@! TA.AperFunction,Plated,PTH,ComponentDrill
T6C0.0550
; #@! TA.AperFunction,Plated,PTH,ComponentDrill
T7C0.0591
; #@! TA.AperFunction,Plated,PTH,ComponentDrill
T8C0.0787
; #@! TA.AperFunction,Plated,PTH,ComponentDrill
T9C0.0878
; #@! TA.AperFunction,Plated,PTH,ComponentDrill
T10C0.0906
; #@! TA.AperFunction,Plated,PTH,ComponentDrill
T11C0.1260
%
G90
G05
T1
X1.7356Y-4.2417
T2
X0.9687Y-1.5017
X1.1656Y-1.5017
X2.5856Y-1.4171
X2.5856Y-1.6139
X5.5056Y-1.4049
X5.5056Y-1.6017
T3
X1.9156Y-3.8285
X1.9156Y-4.0254
X2.6656Y-3.8249
X2.6656Y-4.0217
T4
X3.0968Y-1.8033
X3.0968Y-2.4017
X4.9983Y-1.8033
X4.9983Y-2.1025
X4.9983Y-2.4017
T5
X6.0837Y-1.5335
X6.0837Y-1.6835
X6.0837Y-1.8335
X6.0837Y-1.9835
X6.0837Y-2.7934
X6.0837Y-2.9434
X6.0837Y-3.0934
X6.0837Y-3.2434
X6.2018Y-1.5335
X6.2018Y-1.6835
X6.2018Y-1.8335
X6.2018Y-1.9835
X6.2018Y-2.7934
X6.2018Y-2.9434
X6.2018Y-3.0934
X6.2018Y-3.2434
T6
X1.1056Y-2.7317
X1.1056Y-2.9286
X1.1056Y-3.2733
X1.1056Y-3.4702
X1.1056Y-3.8149
X1.1056Y-4.0117
X1.4284Y-2.7317
X1.4284Y-2.9286
X1.4284Y-3.2733
X1.4284Y-3.4702
X1.4284Y-3.8149
X1.4284Y-4.0117
T7
X3.5356Y-3.7817
X3.5356Y-3.9817
X3.5356Y-4.2817
X4.3356Y-3.4817
X4.3356Y-3.8817
X4.3356Y-4.2817
T8
X1.5256Y-1.1717
X1.5256Y-2.0717
X2.1256Y-1.1717
X2.1256Y-2.0717
T9
X3.0968Y-1.4017
X3.0968Y-2.8033
X4.9983Y-1.4017
X4.9983Y-2.8033
T10
X6.1428Y-1.2501
X6.1428Y-2.267
X6.1428Y-2.5099
X6.1428Y-3.5269
T11
X3.0968Y-1.1025
X3.0968Y-3.1025
X4.9983Y-1.1025
X4.9983Y-3.1025
T0
M30
