%TF.GenerationSoftware,KiCad,Pcbnew,7.0.8*%
%TF.CreationDate,2023-10-25T10:12:33-06:00*%
%TF.ProjectId,GR-LRR-PCB,47522d4c-5252-42d5-9043-422e6b696361,rev?*%
%TF.SameCoordinates,Original*%
%TF.FileFunction,Paste,Top*%
%TF.FilePolarity,Positive*%
%FSLAX46Y46*%
G04 Gerber Fmt 4.6, Leading zero omitted, Abs format (unit mm)*
G04 Created by KiCad (PCBNEW 7.0.8) date 2023-10-25 10:12:33*
%MOMM*%
%LPD*%
G01*
G04 APERTURE LIST*
G04 Aperture macros list*
%AMRoundRect*
0 Rectangle with rounded corners*
0 $1 Rounding radius*
0 $2 $3 $4 $5 $6 $7 $8 $9 X,Y pos of 4 corners*
0 Add a 4 corners polygon primitive as box body*
4,1,4,$2,$3,$4,$5,$6,$7,$8,$9,$2,$3,0*
0 Add four circle primitives for the rounded corners*
1,1,$1+$1,$2,$3*
1,1,$1+$1,$4,$5*
1,1,$1+$1,$6,$7*
1,1,$1+$1,$8,$9*
0 Add four rect primitives between the rounded corners*
20,1,$1+$1,$2,$3,$4,$5,0*
20,1,$1+$1,$4,$5,$6,$7,0*
20,1,$1+$1,$6,$7,$8,$9,0*
20,1,$1+$1,$8,$9,$2,$3,0*%
G04 Aperture macros list end*
%ADD10R,1.200000X0.600000*%
%ADD11R,1.550000X0.650000*%
%ADD12R,0.508000X0.508000*%
%ADD13R,0.558800X1.219200*%
%ADD14RoundRect,0.250000X1.025000X-0.875000X1.025000X0.875000X-1.025000X0.875000X-1.025000X-0.875000X0*%
%ADD15RoundRect,0.250000X-0.625000X0.400000X-0.625000X-0.400000X0.625000X-0.400000X0.625000X0.400000X0*%
%ADD16RoundRect,0.250000X0.400000X0.625000X-0.400000X0.625000X-0.400000X-0.625000X0.400000X-0.625000X0*%
%ADD17RoundRect,0.250000X-0.537500X-1.450000X0.537500X-1.450000X0.537500X1.450000X-0.537500X1.450000X0*%
%ADD18RoundRect,0.250000X0.475000X-0.337500X0.475000X0.337500X-0.475000X0.337500X-0.475000X-0.337500X0*%
%ADD19R,0.965200X3.302000*%
%ADD20RoundRect,0.250000X-0.475000X0.337500X-0.475000X-0.337500X0.475000X-0.337500X0.475000X0.337500X0*%
%ADD21RoundRect,0.250000X0.625000X-0.400000X0.625000X0.400000X-0.625000X0.400000X-0.625000X-0.400000X0*%
%ADD22R,0.200000X0.700000*%
%ADD23R,1.219200X0.558800*%
%ADD24RoundRect,0.250001X0.462499X0.624999X-0.462499X0.624999X-0.462499X-0.624999X0.462499X-0.624999X0*%
%ADD25RoundRect,0.250000X-0.250000X-0.250000X0.250000X-0.250000X0.250000X0.250000X-0.250000X0.250000X0*%
%ADD26RoundRect,0.250000X0.537500X1.450000X-0.537500X1.450000X-0.537500X-1.450000X0.537500X-1.450000X0*%
%ADD27RoundRect,0.250000X-0.400000X-0.625000X0.400000X-0.625000X0.400000X0.625000X-0.400000X0.625000X0*%
%ADD28RoundRect,0.250000X-0.337500X-0.475000X0.337500X-0.475000X0.337500X0.475000X-0.337500X0.475000X0*%
G04 APERTURE END LIST*
D10*
%TO.C,IC1*%
X144838100Y-83035800D03*
X144838100Y-83985800D03*
X144838100Y-84935800D03*
X147338100Y-84935800D03*
X147338100Y-83035800D03*
%TD*%
D11*
%TO.C,IC2*%
X156369600Y-134620000D03*
X156369600Y-133350000D03*
X156369600Y-132080000D03*
X156369600Y-130810000D03*
X156369600Y-129540000D03*
X156369600Y-128270000D03*
X156369600Y-127000000D03*
X156369600Y-125730000D03*
X150919600Y-125730000D03*
X150919600Y-127000000D03*
X150919600Y-128270000D03*
X150919600Y-129540000D03*
X150919600Y-130810000D03*
X150919600Y-132080000D03*
X150919600Y-133350000D03*
X150919600Y-134620000D03*
%TD*%
D12*
%TO.C,MOSFET1*%
X89561900Y-54355800D03*
X89561900Y-52455798D03*
X87174300Y-53405799D03*
%TD*%
D13*
%TO.C,Q2*%
X181925601Y-138679800D03*
X180025599Y-138679800D03*
X180975600Y-140771800D03*
%TD*%
D14*
%TO.C,C2*%
X142788100Y-78625800D03*
X142788100Y-72225800D03*
%TD*%
D15*
%TO.C,R13*%
X176525600Y-132835800D03*
X176525600Y-135935800D03*
%TD*%
D16*
%TO.C,R12*%
X172305600Y-65638300D03*
X169205600Y-65638300D03*
%TD*%
D17*
%TO.C,CY2*%
X80140600Y-92375800D03*
X84415600Y-92375800D03*
%TD*%
D15*
%TO.C,R8*%
X141685600Y-138425800D03*
X141685600Y-141525800D03*
%TD*%
%TO.C,R18*%
X86435600Y-101320800D03*
X86435600Y-104420800D03*
%TD*%
D18*
%TO.C,C6*%
X141348100Y-85123300D03*
X141348100Y-83048300D03*
%TD*%
D19*
%TO.C,L1*%
X79938900Y-73205800D03*
X82377300Y-73205800D03*
%TD*%
D16*
%TO.C,R16*%
X157915600Y-72965800D03*
X154815600Y-72965800D03*
%TD*%
D20*
%TO.C,C4*%
X90078100Y-58978300D03*
X90078100Y-61053300D03*
%TD*%
D21*
%TO.C,R10*%
X186245600Y-143155800D03*
X186245600Y-140055800D03*
%TD*%
D20*
%TO.C,C7*%
X149888100Y-83028300D03*
X149888100Y-85103300D03*
%TD*%
D22*
%TO.C,J1*%
X219403000Y-121307200D03*
X219403000Y-124387200D03*
X219803000Y-121307200D03*
X219803000Y-124387200D03*
X220203000Y-121307200D03*
X220203000Y-124387200D03*
X220603000Y-121307200D03*
X220603000Y-124387200D03*
X221003000Y-121307200D03*
X221003000Y-124387200D03*
X221403000Y-121307200D03*
X221403000Y-124387200D03*
X221803000Y-121307200D03*
X221803000Y-124387200D03*
X222203000Y-121307200D03*
X222203000Y-124387200D03*
X222603000Y-121307200D03*
X222603000Y-124387200D03*
X223003000Y-121307200D03*
X223003000Y-124387200D03*
X223403000Y-121307200D03*
X223403000Y-124387200D03*
X223803000Y-121307200D03*
X223803000Y-124387200D03*
X224203000Y-121307200D03*
X224203000Y-124387200D03*
X224603000Y-121307200D03*
X224603000Y-124387200D03*
X225003000Y-121307200D03*
X225003000Y-124387200D03*
X225403000Y-121307200D03*
X225403000Y-124387200D03*
X225803000Y-121307200D03*
X225803000Y-124387200D03*
X226203000Y-121307200D03*
X226203000Y-124387200D03*
X226603000Y-121307200D03*
X226603000Y-124387200D03*
X227003000Y-121307200D03*
X227003000Y-124387200D03*
X227403000Y-121307200D03*
X227403000Y-124387200D03*
X227803000Y-121307200D03*
X227803000Y-124387200D03*
X228203000Y-121307200D03*
X228203000Y-124387200D03*
X228603000Y-121307200D03*
X228603000Y-124387200D03*
X229003000Y-121307200D03*
X229003000Y-124387200D03*
X229403000Y-121307200D03*
X229403000Y-124387200D03*
X229803000Y-121307200D03*
X229803000Y-124387200D03*
X230203000Y-121307200D03*
X230203000Y-124387200D03*
X230603000Y-121307200D03*
X230603000Y-124387200D03*
X231003000Y-121307200D03*
X231003000Y-124387200D03*
X231403000Y-121307200D03*
X231403000Y-124387200D03*
X231803000Y-121307200D03*
X231803000Y-124387200D03*
X232203000Y-121307200D03*
X232203000Y-124387200D03*
X232603000Y-121307200D03*
X232603000Y-124387200D03*
X233003000Y-121307200D03*
X233003000Y-124387200D03*
X233403000Y-121307200D03*
X233403000Y-124387200D03*
X233803000Y-121307200D03*
X233803000Y-124387200D03*
X234203000Y-121307200D03*
X234203000Y-124387200D03*
X234603000Y-121307200D03*
X234603000Y-124387200D03*
X235003000Y-121307200D03*
X235003000Y-124387200D03*
%TD*%
D15*
%TO.C,R3*%
X79975600Y-101345800D03*
X79975600Y-104445800D03*
%TD*%
D23*
%TO.C,Q1*%
X184001600Y-66638301D03*
X184001600Y-64738299D03*
X181909600Y-65688300D03*
%TD*%
D15*
%TO.C,R1*%
X73765600Y-101315800D03*
X73765600Y-104415800D03*
%TD*%
D24*
%TO.C,D2*%
X177490600Y-65628300D03*
X174515600Y-65628300D03*
%TD*%
D15*
%TO.C,R7*%
X146230600Y-138425800D03*
X146230600Y-141525800D03*
%TD*%
D25*
%TO.C,D1*%
X169195600Y-59958300D03*
X171695600Y-59958300D03*
%TD*%
D26*
%TO.C,CY1*%
X84435600Y-85735800D03*
X80160600Y-85735800D03*
%TD*%
D27*
%TO.C,R15*%
X154755600Y-77925800D03*
X157855600Y-77925800D03*
%TD*%
D15*
%TO.C,R20*%
X92405600Y-101375800D03*
X92405600Y-104475800D03*
%TD*%
%TO.C,R2*%
X73765600Y-106425800D03*
X73765600Y-109525800D03*
%TD*%
%TO.C,R6*%
X150775600Y-138425800D03*
X150775600Y-141525800D03*
%TD*%
D28*
%TO.C,C1*%
X80160600Y-79805800D03*
X82235600Y-79805800D03*
%TD*%
D15*
%TO.C,R19*%
X86435600Y-106420800D03*
X86435600Y-109520800D03*
%TD*%
%TO.C,R17*%
X79975600Y-106395800D03*
X79975600Y-109495800D03*
%TD*%
D22*
%TO.C,J2*%
X219403000Y-78127200D03*
X219403000Y-81207200D03*
X219803000Y-78127200D03*
X219803000Y-81207200D03*
X220203000Y-78127200D03*
X220203000Y-81207200D03*
X220603000Y-78127200D03*
X220603000Y-81207200D03*
X221003000Y-78127200D03*
X221003000Y-81207200D03*
X221403000Y-78127200D03*
X221403000Y-81207200D03*
X221803000Y-78127200D03*
X221803000Y-81207200D03*
X222203000Y-78127200D03*
X222203000Y-81207200D03*
X222603000Y-78127200D03*
X222603000Y-81207200D03*
X223003000Y-78127200D03*
X223003000Y-81207200D03*
X223403000Y-78127200D03*
X223403000Y-81207200D03*
X223803000Y-78127200D03*
X223803000Y-81207200D03*
X224203000Y-78127200D03*
X224203000Y-81207200D03*
X224603000Y-78127200D03*
X224603000Y-81207200D03*
X225003000Y-78127200D03*
X225003000Y-81207200D03*
X225403000Y-78127200D03*
X225403000Y-81207200D03*
X225803000Y-78127200D03*
X225803000Y-81207200D03*
X226203000Y-78127200D03*
X226203000Y-81207200D03*
X226603000Y-78127200D03*
X226603000Y-81207200D03*
X227003000Y-78127200D03*
X227003000Y-81207200D03*
X227403000Y-78127200D03*
X227403000Y-81207200D03*
X227803000Y-78127200D03*
X227803000Y-81207200D03*
X228203000Y-78127200D03*
X228203000Y-81207200D03*
X228603000Y-78127200D03*
X228603000Y-81207200D03*
X229003000Y-78127200D03*
X229003000Y-81207200D03*
X229403000Y-78127200D03*
X229403000Y-81207200D03*
X229803000Y-78127200D03*
X229803000Y-81207200D03*
X230203000Y-78127200D03*
X230203000Y-81207200D03*
X230603000Y-78127200D03*
X230603000Y-81207200D03*
X231003000Y-78127200D03*
X231003000Y-81207200D03*
X231403000Y-78127200D03*
X231403000Y-81207200D03*
X231803000Y-78127200D03*
X231803000Y-81207200D03*
X232203000Y-78127200D03*
X232203000Y-81207200D03*
X232603000Y-78127200D03*
X232603000Y-81207200D03*
X233003000Y-78127200D03*
X233003000Y-81207200D03*
X233403000Y-78127200D03*
X233403000Y-81207200D03*
X233803000Y-78127200D03*
X233803000Y-81207200D03*
X234203000Y-78127200D03*
X234203000Y-81207200D03*
X234603000Y-78127200D03*
X234603000Y-81207200D03*
X235003000Y-78127200D03*
X235003000Y-81207200D03*
%TD*%
D15*
%TO.C,R14*%
X176525600Y-137985800D03*
X176525600Y-141085800D03*
%TD*%
D21*
%TO.C,R5*%
X165335600Y-143145800D03*
X165335600Y-140045800D03*
%TD*%
D15*
%TO.C,R11*%
X191325600Y-140055800D03*
X191325600Y-143155800D03*
%TD*%
D20*
%TO.C,C5*%
X156178100Y-44898300D03*
X156178100Y-46973300D03*
%TD*%
D15*
%TO.C,R21*%
X92405600Y-106365800D03*
X92405600Y-109465800D03*
%TD*%
%TO.C,R4*%
X158965600Y-140045800D03*
X158965600Y-143145800D03*
%TD*%
M02*
