%TF.GenerationSoftware,KiCad,Pcbnew,7.0.8*%
%TF.CreationDate,2023-10-25T10:12:33-06:00*%
%TF.ProjectId,GR-LRR-PCB,47522d4c-5252-42d5-9043-422e6b696361,rev?*%
%TF.SameCoordinates,Original*%
%TF.FileFunction,Legend,Bot*%
%TF.FilePolarity,Positive*%
%FSLAX46Y46*%
G04 Gerber Fmt 4.6, Leading zero omitted, Abs format (unit mm)*
G04 Created by KiCad (PCBNEW 7.0.8) date 2023-10-25 10:12:33*
%MOMM*%
%LPD*%
G01*
G04 APERTURE LIST*
%ADD10C,0.300000*%
%ADD11C,0.150000*%
%ADD12C,0.508000*%
G04 APERTURE END LIST*
D10*
X226904174Y-145301476D02*
X227047032Y-145226238D01*
X227047032Y-145226238D02*
X227261317Y-145226238D01*
X227261317Y-145226238D02*
X227475603Y-145301476D01*
X227475603Y-145301476D02*
X227618460Y-145451952D01*
X227618460Y-145451952D02*
X227689889Y-145602428D01*
X227689889Y-145602428D02*
X227761317Y-145903380D01*
X227761317Y-145903380D02*
X227761317Y-146129095D01*
X227761317Y-146129095D02*
X227689889Y-146430047D01*
X227689889Y-146430047D02*
X227618460Y-146580523D01*
X227618460Y-146580523D02*
X227475603Y-146731000D01*
X227475603Y-146731000D02*
X227261317Y-146806238D01*
X227261317Y-146806238D02*
X227118460Y-146806238D01*
X227118460Y-146806238D02*
X226904174Y-146731000D01*
X226904174Y-146731000D02*
X226832746Y-146655761D01*
X226832746Y-146655761D02*
X226832746Y-146129095D01*
X226832746Y-146129095D02*
X227118460Y-146129095D01*
X225332746Y-146806238D02*
X225832746Y-146053857D01*
X226189889Y-146806238D02*
X226189889Y-145226238D01*
X226189889Y-145226238D02*
X225618460Y-145226238D01*
X225618460Y-145226238D02*
X225475603Y-145301476D01*
X225475603Y-145301476D02*
X225404174Y-145376714D01*
X225404174Y-145376714D02*
X225332746Y-145527190D01*
X225332746Y-145527190D02*
X225332746Y-145752904D01*
X225332746Y-145752904D02*
X225404174Y-145903380D01*
X225404174Y-145903380D02*
X225475603Y-145978619D01*
X225475603Y-145978619D02*
X225618460Y-146053857D01*
X225618460Y-146053857D02*
X226189889Y-146053857D01*
X224689889Y-146204333D02*
X223547032Y-146204333D01*
X222118460Y-146806238D02*
X222832746Y-146806238D01*
X222832746Y-146806238D02*
X222832746Y-145226238D01*
X220761317Y-146806238D02*
X221261317Y-146053857D01*
X221618460Y-146806238D02*
X221618460Y-145226238D01*
X221618460Y-145226238D02*
X221047031Y-145226238D01*
X221047031Y-145226238D02*
X220904174Y-145301476D01*
X220904174Y-145301476D02*
X220832745Y-145376714D01*
X220832745Y-145376714D02*
X220761317Y-145527190D01*
X220761317Y-145527190D02*
X220761317Y-145752904D01*
X220761317Y-145752904D02*
X220832745Y-145903380D01*
X220832745Y-145903380D02*
X220904174Y-145978619D01*
X220904174Y-145978619D02*
X221047031Y-146053857D01*
X221047031Y-146053857D02*
X221618460Y-146053857D01*
X219261317Y-146806238D02*
X219761317Y-146053857D01*
X220118460Y-146806238D02*
X220118460Y-145226238D01*
X220118460Y-145226238D02*
X219547031Y-145226238D01*
X219547031Y-145226238D02*
X219404174Y-145301476D01*
X219404174Y-145301476D02*
X219332745Y-145376714D01*
X219332745Y-145376714D02*
X219261317Y-145527190D01*
X219261317Y-145527190D02*
X219261317Y-145752904D01*
X219261317Y-145752904D02*
X219332745Y-145903380D01*
X219332745Y-145903380D02*
X219404174Y-145978619D01*
X219404174Y-145978619D02*
X219547031Y-146053857D01*
X219547031Y-146053857D02*
X220118460Y-146053857D01*
X216689888Y-146806238D02*
X217547031Y-146806238D01*
X217118460Y-146806238D02*
X217118460Y-145226238D01*
X217118460Y-145226238D02*
X217261317Y-145451952D01*
X217261317Y-145451952D02*
X217404174Y-145602428D01*
X217404174Y-145602428D02*
X217547031Y-145677666D01*
X215761317Y-145226238D02*
X215618460Y-145226238D01*
X215618460Y-145226238D02*
X215475603Y-145301476D01*
X215475603Y-145301476D02*
X215404175Y-145376714D01*
X215404175Y-145376714D02*
X215332746Y-145527190D01*
X215332746Y-145527190D02*
X215261317Y-145828142D01*
X215261317Y-145828142D02*
X215261317Y-146204333D01*
X215261317Y-146204333D02*
X215332746Y-146505285D01*
X215332746Y-146505285D02*
X215404175Y-146655761D01*
X215404175Y-146655761D02*
X215475603Y-146731000D01*
X215475603Y-146731000D02*
X215618460Y-146806238D01*
X215618460Y-146806238D02*
X215761317Y-146806238D01*
X215761317Y-146806238D02*
X215904175Y-146731000D01*
X215904175Y-146731000D02*
X215975603Y-146655761D01*
X215975603Y-146655761D02*
X216047032Y-146505285D01*
X216047032Y-146505285D02*
X216118460Y-146204333D01*
X216118460Y-146204333D02*
X216118460Y-145828142D01*
X216118460Y-145828142D02*
X216047032Y-145527190D01*
X216047032Y-145527190D02*
X215975603Y-145376714D01*
X215975603Y-145376714D02*
X215904175Y-145301476D01*
X215904175Y-145301476D02*
X215761317Y-145226238D01*
X214689889Y-145376714D02*
X214618461Y-145301476D01*
X214618461Y-145301476D02*
X214475604Y-145226238D01*
X214475604Y-145226238D02*
X214118461Y-145226238D01*
X214118461Y-145226238D02*
X213975604Y-145301476D01*
X213975604Y-145301476D02*
X213904175Y-145376714D01*
X213904175Y-145376714D02*
X213832746Y-145527190D01*
X213832746Y-145527190D02*
X213832746Y-145677666D01*
X213832746Y-145677666D02*
X213904175Y-145903380D01*
X213904175Y-145903380D02*
X214761318Y-146806238D01*
X214761318Y-146806238D02*
X213832746Y-146806238D01*
X212475604Y-145226238D02*
X213189890Y-145226238D01*
X213189890Y-145226238D02*
X213261318Y-145978619D01*
X213261318Y-145978619D02*
X213189890Y-145903380D01*
X213189890Y-145903380D02*
X213047033Y-145828142D01*
X213047033Y-145828142D02*
X212689890Y-145828142D01*
X212689890Y-145828142D02*
X212547033Y-145903380D01*
X212547033Y-145903380D02*
X212475604Y-145978619D01*
X212475604Y-145978619D02*
X212404175Y-146129095D01*
X212404175Y-146129095D02*
X212404175Y-146505285D01*
X212404175Y-146505285D02*
X212475604Y-146655761D01*
X212475604Y-146655761D02*
X212547033Y-146731000D01*
X212547033Y-146731000D02*
X212689890Y-146806238D01*
X212689890Y-146806238D02*
X213047033Y-146806238D01*
X213047033Y-146806238D02*
X213189890Y-146731000D01*
X213189890Y-146731000D02*
X213261318Y-146655761D01*
X211832747Y-145376714D02*
X211761319Y-145301476D01*
X211761319Y-145301476D02*
X211618462Y-145226238D01*
X211618462Y-145226238D02*
X211261319Y-145226238D01*
X211261319Y-145226238D02*
X211118462Y-145301476D01*
X211118462Y-145301476D02*
X211047033Y-145376714D01*
X211047033Y-145376714D02*
X210975604Y-145527190D01*
X210975604Y-145527190D02*
X210975604Y-145677666D01*
X210975604Y-145677666D02*
X211047033Y-145903380D01*
X211047033Y-145903380D02*
X211904176Y-146806238D01*
X211904176Y-146806238D02*
X210975604Y-146806238D01*
X210475605Y-145226238D02*
X209547033Y-145226238D01*
X209547033Y-145226238D02*
X210047033Y-145828142D01*
X210047033Y-145828142D02*
X209832748Y-145828142D01*
X209832748Y-145828142D02*
X209689891Y-145903380D01*
X209689891Y-145903380D02*
X209618462Y-145978619D01*
X209618462Y-145978619D02*
X209547033Y-146129095D01*
X209547033Y-146129095D02*
X209547033Y-146505285D01*
X209547033Y-146505285D02*
X209618462Y-146655761D01*
X209618462Y-146655761D02*
X209689891Y-146731000D01*
X209689891Y-146731000D02*
X209832748Y-146806238D01*
X209832748Y-146806238D02*
X210261319Y-146806238D01*
X210261319Y-146806238D02*
X210404176Y-146731000D01*
X210404176Y-146731000D02*
X210475605Y-146655761D01*
X207832748Y-146354809D02*
X207118463Y-146354809D01*
X207975605Y-146806238D02*
X207475605Y-145226238D01*
X207475605Y-145226238D02*
X206975605Y-146806238D01*
X206189891Y-145226238D02*
X206047034Y-145226238D01*
X206047034Y-145226238D02*
X205904177Y-145301476D01*
X205904177Y-145301476D02*
X205832749Y-145376714D01*
X205832749Y-145376714D02*
X205761320Y-145527190D01*
X205761320Y-145527190D02*
X205689891Y-145828142D01*
X205689891Y-145828142D02*
X205689891Y-146204333D01*
X205689891Y-146204333D02*
X205761320Y-146505285D01*
X205761320Y-146505285D02*
X205832749Y-146655761D01*
X205832749Y-146655761D02*
X205904177Y-146731000D01*
X205904177Y-146731000D02*
X206047034Y-146806238D01*
X206047034Y-146806238D02*
X206189891Y-146806238D01*
X206189891Y-146806238D02*
X206332749Y-146731000D01*
X206332749Y-146731000D02*
X206404177Y-146655761D01*
X206404177Y-146655761D02*
X206475606Y-146505285D01*
X206475606Y-146505285D02*
X206547034Y-146204333D01*
X206547034Y-146204333D02*
X206547034Y-145828142D01*
X206547034Y-145828142D02*
X206475606Y-145527190D01*
X206475606Y-145527190D02*
X206404177Y-145376714D01*
X206404177Y-145376714D02*
X206332749Y-145301476D01*
X206332749Y-145301476D02*
X206189891Y-145226238D01*
X96424374Y-36513276D02*
X96567232Y-36438038D01*
X96567232Y-36438038D02*
X96781517Y-36438038D01*
X96781517Y-36438038D02*
X96995803Y-36513276D01*
X96995803Y-36513276D02*
X97138660Y-36663752D01*
X97138660Y-36663752D02*
X97210089Y-36814228D01*
X97210089Y-36814228D02*
X97281517Y-37115180D01*
X97281517Y-37115180D02*
X97281517Y-37340895D01*
X97281517Y-37340895D02*
X97210089Y-37641847D01*
X97210089Y-37641847D02*
X97138660Y-37792323D01*
X97138660Y-37792323D02*
X96995803Y-37942800D01*
X96995803Y-37942800D02*
X96781517Y-38018038D01*
X96781517Y-38018038D02*
X96638660Y-38018038D01*
X96638660Y-38018038D02*
X96424374Y-37942800D01*
X96424374Y-37942800D02*
X96352946Y-37867561D01*
X96352946Y-37867561D02*
X96352946Y-37340895D01*
X96352946Y-37340895D02*
X96638660Y-37340895D01*
X94852946Y-38018038D02*
X95352946Y-37265657D01*
X95710089Y-38018038D02*
X95710089Y-36438038D01*
X95710089Y-36438038D02*
X95138660Y-36438038D01*
X95138660Y-36438038D02*
X94995803Y-36513276D01*
X94995803Y-36513276D02*
X94924374Y-36588514D01*
X94924374Y-36588514D02*
X94852946Y-36738990D01*
X94852946Y-36738990D02*
X94852946Y-36964704D01*
X94852946Y-36964704D02*
X94924374Y-37115180D01*
X94924374Y-37115180D02*
X94995803Y-37190419D01*
X94995803Y-37190419D02*
X95138660Y-37265657D01*
X95138660Y-37265657D02*
X95710089Y-37265657D01*
X94210089Y-37416133D02*
X93067232Y-37416133D01*
X91638660Y-38018038D02*
X92352946Y-38018038D01*
X92352946Y-38018038D02*
X92352946Y-36438038D01*
X90281517Y-38018038D02*
X90781517Y-37265657D01*
X91138660Y-38018038D02*
X91138660Y-36438038D01*
X91138660Y-36438038D02*
X90567231Y-36438038D01*
X90567231Y-36438038D02*
X90424374Y-36513276D01*
X90424374Y-36513276D02*
X90352945Y-36588514D01*
X90352945Y-36588514D02*
X90281517Y-36738990D01*
X90281517Y-36738990D02*
X90281517Y-36964704D01*
X90281517Y-36964704D02*
X90352945Y-37115180D01*
X90352945Y-37115180D02*
X90424374Y-37190419D01*
X90424374Y-37190419D02*
X90567231Y-37265657D01*
X90567231Y-37265657D02*
X91138660Y-37265657D01*
X88781517Y-38018038D02*
X89281517Y-37265657D01*
X89638660Y-38018038D02*
X89638660Y-36438038D01*
X89638660Y-36438038D02*
X89067231Y-36438038D01*
X89067231Y-36438038D02*
X88924374Y-36513276D01*
X88924374Y-36513276D02*
X88852945Y-36588514D01*
X88852945Y-36588514D02*
X88781517Y-36738990D01*
X88781517Y-36738990D02*
X88781517Y-36964704D01*
X88781517Y-36964704D02*
X88852945Y-37115180D01*
X88852945Y-37115180D02*
X88924374Y-37190419D01*
X88924374Y-37190419D02*
X89067231Y-37265657D01*
X89067231Y-37265657D02*
X89638660Y-37265657D01*
X86210088Y-38018038D02*
X87067231Y-38018038D01*
X86638660Y-38018038D02*
X86638660Y-36438038D01*
X86638660Y-36438038D02*
X86781517Y-36663752D01*
X86781517Y-36663752D02*
X86924374Y-36814228D01*
X86924374Y-36814228D02*
X87067231Y-36889466D01*
X85281517Y-36438038D02*
X85138660Y-36438038D01*
X85138660Y-36438038D02*
X84995803Y-36513276D01*
X84995803Y-36513276D02*
X84924375Y-36588514D01*
X84924375Y-36588514D02*
X84852946Y-36738990D01*
X84852946Y-36738990D02*
X84781517Y-37039942D01*
X84781517Y-37039942D02*
X84781517Y-37416133D01*
X84781517Y-37416133D02*
X84852946Y-37717085D01*
X84852946Y-37717085D02*
X84924375Y-37867561D01*
X84924375Y-37867561D02*
X84995803Y-37942800D01*
X84995803Y-37942800D02*
X85138660Y-38018038D01*
X85138660Y-38018038D02*
X85281517Y-38018038D01*
X85281517Y-38018038D02*
X85424375Y-37942800D01*
X85424375Y-37942800D02*
X85495803Y-37867561D01*
X85495803Y-37867561D02*
X85567232Y-37717085D01*
X85567232Y-37717085D02*
X85638660Y-37416133D01*
X85638660Y-37416133D02*
X85638660Y-37039942D01*
X85638660Y-37039942D02*
X85567232Y-36738990D01*
X85567232Y-36738990D02*
X85495803Y-36588514D01*
X85495803Y-36588514D02*
X85424375Y-36513276D01*
X85424375Y-36513276D02*
X85281517Y-36438038D01*
X84210089Y-36588514D02*
X84138661Y-36513276D01*
X84138661Y-36513276D02*
X83995804Y-36438038D01*
X83995804Y-36438038D02*
X83638661Y-36438038D01*
X83638661Y-36438038D02*
X83495804Y-36513276D01*
X83495804Y-36513276D02*
X83424375Y-36588514D01*
X83424375Y-36588514D02*
X83352946Y-36738990D01*
X83352946Y-36738990D02*
X83352946Y-36889466D01*
X83352946Y-36889466D02*
X83424375Y-37115180D01*
X83424375Y-37115180D02*
X84281518Y-38018038D01*
X84281518Y-38018038D02*
X83352946Y-38018038D01*
X81995804Y-36438038D02*
X82710090Y-36438038D01*
X82710090Y-36438038D02*
X82781518Y-37190419D01*
X82781518Y-37190419D02*
X82710090Y-37115180D01*
X82710090Y-37115180D02*
X82567233Y-37039942D01*
X82567233Y-37039942D02*
X82210090Y-37039942D01*
X82210090Y-37039942D02*
X82067233Y-37115180D01*
X82067233Y-37115180D02*
X81995804Y-37190419D01*
X81995804Y-37190419D02*
X81924375Y-37340895D01*
X81924375Y-37340895D02*
X81924375Y-37717085D01*
X81924375Y-37717085D02*
X81995804Y-37867561D01*
X81995804Y-37867561D02*
X82067233Y-37942800D01*
X82067233Y-37942800D02*
X82210090Y-38018038D01*
X82210090Y-38018038D02*
X82567233Y-38018038D01*
X82567233Y-38018038D02*
X82710090Y-37942800D01*
X82710090Y-37942800D02*
X82781518Y-37867561D01*
X81352947Y-36588514D02*
X81281519Y-36513276D01*
X81281519Y-36513276D02*
X81138662Y-36438038D01*
X81138662Y-36438038D02*
X80781519Y-36438038D01*
X80781519Y-36438038D02*
X80638662Y-36513276D01*
X80638662Y-36513276D02*
X80567233Y-36588514D01*
X80567233Y-36588514D02*
X80495804Y-36738990D01*
X80495804Y-36738990D02*
X80495804Y-36889466D01*
X80495804Y-36889466D02*
X80567233Y-37115180D01*
X80567233Y-37115180D02*
X81424376Y-38018038D01*
X81424376Y-38018038D02*
X80495804Y-38018038D01*
X79995805Y-36438038D02*
X79067233Y-36438038D01*
X79067233Y-36438038D02*
X79567233Y-37039942D01*
X79567233Y-37039942D02*
X79352948Y-37039942D01*
X79352948Y-37039942D02*
X79210091Y-37115180D01*
X79210091Y-37115180D02*
X79138662Y-37190419D01*
X79138662Y-37190419D02*
X79067233Y-37340895D01*
X79067233Y-37340895D02*
X79067233Y-37717085D01*
X79067233Y-37717085D02*
X79138662Y-37867561D01*
X79138662Y-37867561D02*
X79210091Y-37942800D01*
X79210091Y-37942800D02*
X79352948Y-38018038D01*
X79352948Y-38018038D02*
X79781519Y-38018038D01*
X79781519Y-38018038D02*
X79924376Y-37942800D01*
X79924376Y-37942800D02*
X79995805Y-37867561D01*
X77352948Y-37566609D02*
X76638663Y-37566609D01*
X77495805Y-38018038D02*
X76995805Y-36438038D01*
X76995805Y-36438038D02*
X76495805Y-38018038D01*
X75710091Y-36438038D02*
X75567234Y-36438038D01*
X75567234Y-36438038D02*
X75424377Y-36513276D01*
X75424377Y-36513276D02*
X75352949Y-36588514D01*
X75352949Y-36588514D02*
X75281520Y-36738990D01*
X75281520Y-36738990D02*
X75210091Y-37039942D01*
X75210091Y-37039942D02*
X75210091Y-37416133D01*
X75210091Y-37416133D02*
X75281520Y-37717085D01*
X75281520Y-37717085D02*
X75352949Y-37867561D01*
X75352949Y-37867561D02*
X75424377Y-37942800D01*
X75424377Y-37942800D02*
X75567234Y-38018038D01*
X75567234Y-38018038D02*
X75710091Y-38018038D01*
X75710091Y-38018038D02*
X75852949Y-37942800D01*
X75852949Y-37942800D02*
X75924377Y-37867561D01*
X75924377Y-37867561D02*
X75995806Y-37717085D01*
X75995806Y-37717085D02*
X76067234Y-37416133D01*
X76067234Y-37416133D02*
X76067234Y-37039942D01*
X76067234Y-37039942D02*
X75995806Y-36738990D01*
X75995806Y-36738990D02*
X75924377Y-36588514D01*
X75924377Y-36588514D02*
X75852949Y-36513276D01*
X75852949Y-36513276D02*
X75710091Y-36438038D01*
D11*
X223668932Y-33483000D02*
X223526075Y-33530619D01*
X223526075Y-33530619D02*
X223287980Y-33530619D01*
X223287980Y-33530619D02*
X223192742Y-33483000D01*
X223192742Y-33483000D02*
X223145123Y-33435380D01*
X223145123Y-33435380D02*
X223097504Y-33340142D01*
X223097504Y-33340142D02*
X223097504Y-33244904D01*
X223097504Y-33244904D02*
X223145123Y-33149666D01*
X223145123Y-33149666D02*
X223192742Y-33102047D01*
X223192742Y-33102047D02*
X223287980Y-33054428D01*
X223287980Y-33054428D02*
X223478456Y-33006809D01*
X223478456Y-33006809D02*
X223573694Y-32959190D01*
X223573694Y-32959190D02*
X223621313Y-32911571D01*
X223621313Y-32911571D02*
X223668932Y-32816333D01*
X223668932Y-32816333D02*
X223668932Y-32721095D01*
X223668932Y-32721095D02*
X223621313Y-32625857D01*
X223621313Y-32625857D02*
X223573694Y-32578238D01*
X223573694Y-32578238D02*
X223478456Y-32530619D01*
X223478456Y-32530619D02*
X223240361Y-32530619D01*
X223240361Y-32530619D02*
X223097504Y-32578238D01*
X222764170Y-32530619D02*
X222526075Y-33530619D01*
X222526075Y-33530619D02*
X222335599Y-32816333D01*
X222335599Y-32816333D02*
X222145123Y-33530619D01*
X222145123Y-33530619D02*
X221907028Y-32530619D01*
X221002266Y-33530619D02*
X221573694Y-33530619D01*
X221287980Y-33530619D02*
X221287980Y-32530619D01*
X221287980Y-32530619D02*
X221383218Y-32673476D01*
X221383218Y-32673476D02*
X221478456Y-32768714D01*
X221478456Y-32768714D02*
X221573694Y-32816333D01*
D12*
%TO.C,J3*%
X81009099Y-40951201D02*
G75*
G03*
X81009099Y-40951201I-381000J0D01*
G01*
%TO.C,J4*%
X81009099Y-55321100D02*
G75*
G03*
X81009099Y-55321100I-381000J0D01*
G01*
%TD*%
M02*
