M48
; DRILL file {KiCad 7.0.8} date Wed Oct 25 17:14:16 2023
; FORMAT={-:-/ absolute / inch / decimal}
; #@! TF.CreationDate,2023-10-25T17:14:16-06:00
; #@! TF.GenerationSoftware,Kicad,Pcbnew,7.0.8
; #@! TF.FileFunction,Plated,1,2,PTH
FMAT,2
INCH
; #@! TA.AperFunction,Plated,PTH,ViaDrill
T1C0.0079
; #@! TA.AperFunction,Plated,PTH,ViaDrill
T2C0.0197
; #@! TA.AperFunction,Plated,PTH,ComponentDrill
T3C0.0276
; #@! TA.AperFunction,Plated,PTH,ViaDrill
T4C0.0394
; #@! TA.AperFunction,Plated,PTH,ComponentDrill
T5C0.0394
; #@! TA.AperFunction,Plated,PTH,ComponentDrill
T6C0.0550
; #@! TA.AperFunction,Plated,PTH,ComponentDrill
T7C0.0551
; #@! TA.AperFunction,Plated,PTH,ComponentDrill
T8C0.0591
; #@! TA.AperFunction,Plated,PTH,ComponentDrill
T9C0.0709
; #@! TA.AperFunction,Plated,PTH,ComponentDrill
T10C0.0752
%
G90
G05
T1
X4.811Y-4.9012
X5.205Y-3.9192
X5.2257Y-3.8962
X5.2405Y-4.4755
X5.2447Y-3.8752
X5.2874Y-3.8612
X5.2978Y-3.9064
X5.307Y-3.8232
X5.312Y-4.469
X5.402Y-4.58
X5.4208Y-4.6243
X5.4213Y-4.3462
X5.4213Y-4.378
X5.4463Y-4.6267
X5.447Y-4.3441
X5.4692Y-4.6323
X5.4754Y-4.3447
X5.4922Y-4.6378
X5.4981Y-4.3383
X5.677Y-4.388
X5.799Y-3.4932
X6.11Y-3.5952
X6.1334Y-3.5985
X6.3929Y-3.9181
X6.399Y-3.5932
X6.581Y-3.5922
T2
X3.093Y-4.334
X3.864Y-4.083
X3.954Y-4.046
X4.046Y-4.012
X4.395Y-4.686
X4.414Y-4.615
X4.6507Y-4.4478
X5.641Y-2.0942
X5.677Y-3.789
X5.908Y-3.58
X5.916Y-3.243
X6.0037Y-3.7767
X6.2472Y-3.7052
X6.286Y-3.762
X6.483Y-3.898
X6.532Y-3.766
T4
X3.491Y-3.5692
X3.7563Y-4.3376
X3.957Y-4.7562
X4.072Y-2.0458
X5.37Y-3.6297
T5
X3.048Y-3.8532
X3.048Y-4.05
X3.05Y-3.4126
X3.05Y-3.6095
X3.207Y-2.1102
X3.295Y-4.9982
X3.307Y-2.1102
X3.395Y-4.9982
X3.495Y-4.9982
X3.595Y-4.9982
X3.6148Y-2.0742
X3.7148Y-2.0742
X3.858Y-5.0032
X3.958Y-5.0032
X4.058Y-5.0032
X4.411Y-5.0032
X4.511Y-5.0032
X4.592Y-2.0342
X4.592Y-2.1342
X4.592Y-2.2342
X4.592Y-2.3342
X4.592Y-2.4342
X4.592Y-2.5342
X4.592Y-2.6342
X4.592Y-2.7342
X4.592Y-2.8342
X4.592Y-2.9342
X4.592Y-3.0342
X4.592Y-3.1342
X4.592Y-3.2342
X4.592Y-3.3342
X4.592Y-3.4342
X4.592Y-3.5342
X4.592Y-3.6342
X4.592Y-3.7342
X4.592Y-3.8342
X4.592Y-3.9342
X4.592Y-4.0342
X4.592Y-4.1342
X4.592Y-4.2342
X4.592Y-4.3342
X4.611Y-5.0032
X4.711Y-5.0032
X4.811Y-5.0032
X5.723Y-4.0942
X5.723Y-4.5942
X5.823Y-4.0942
X5.823Y-4.5942
X5.923Y-4.0942
X5.923Y-4.5942
X5.9256Y-4.9972
X6.023Y-4.0942
X6.023Y-4.5942
X6.0256Y-4.9972
X6.123Y-4.0942
X6.123Y-4.5942
X6.1256Y-4.9972
X6.223Y-4.0942
X6.223Y-4.5942
X6.2256Y-4.9972
X6.323Y-4.0942
X6.323Y-4.5942
X6.423Y-4.0942
X6.423Y-4.5942
X6.5856Y-4.0952
X6.5856Y-4.5952
X6.6856Y-4.0952
X6.6856Y-4.5952
X6.7856Y-4.0952
X6.7856Y-4.5952
X6.7876Y-5.0022
X6.8856Y-4.0952
X6.8856Y-4.5952
X6.8876Y-5.0022
X6.9856Y-4.0952
X6.9856Y-4.5952
X6.9876Y-5.0022
X7.0856Y-4.0952
X7.0856Y-4.5952
X7.0876Y-5.0022
X7.1856Y-4.0952
X7.1856Y-4.5952
X7.2856Y-4.0952
X7.2856Y-4.5952
T6
X3.1512Y-2.3412
X3.1512Y-2.538
X3.1512Y-2.8693
X3.1512Y-3.0662
X3.474Y-2.3412
X3.474Y-2.538
X3.474Y-2.8693
X3.474Y-3.0662
T7
X3.804Y-2.3732
X3.804Y-2.6732
X3.804Y-2.9732
X5.804Y-2.5232
X5.804Y-2.6732
X5.804Y-2.8232
T8
X4.2315Y-3.2912
X4.2315Y-3.5912
X4.2315Y-3.7912
X5.0315Y-3.2912
X5.0315Y-3.6912
X5.0315Y-4.0912
X6.7527Y-3.3092
X6.7527Y-3.7816
X7.233Y-3.3092
X7.233Y-3.7816
X7.3117Y-3.5454
T9
X6.4341Y-2.4492
X6.4341Y-2.7051
X6.875Y-2.4492
T10
X5.804Y-2.3732
X5.804Y-2.9732
T3
G00X6.4833Y-2.1441
M15
G01X6.4833Y-2.2307
M16
G05
G00X6.4833Y-2.9236
M15
G01X6.4833Y-3.0102
M16
G05
G00X6.8258Y-2.1441
M15
G01X6.8258Y-2.2307
M16
G05
G00X6.8258Y-2.9236
M15
G01X6.8258Y-3.0102
M16
G05
T0
M30
