M48
; DRILL file {KiCad 7.0.8} date Wed Oct 25 10:12:31 2023
; FORMAT={-:-/ absolute / inch / decimal}
; #@! TF.CreationDate,2023-10-25T10:12:31-06:00
; #@! TF.GenerationSoftware,Kicad,Pcbnew,7.0.8
; #@! TF.FileFunction,Plated,1,2,PTH
FMAT,2
INCH
; #@! TA.AperFunction,Plated,PTH,ViaDrill
T1C0.0079
; #@! TA.AperFunction,Plated,PTH,ViaDrill
T2C0.0197
; #@! TA.AperFunction,Plated,PTH,ComponentDrill
T3C0.0276
; #@! TA.AperFunction,Plated,PTH,ViaDrill
T4C0.0394
; #@! TA.AperFunction,Plated,PTH,ComponentDrill
T5C0.0394
; #@! TA.AperFunction,Plated,PTH,ComponentDrill
T6C0.0550
; #@! TA.AperFunction,Plated,PTH,ComponentDrill
T7C0.0551
; #@! TA.AperFunction,Plated,PTH,ComponentDrill
T8C0.0591
; #@! TA.AperFunction,Plated,PTH,ComponentDrill
T9C0.0709
; #@! TA.AperFunction,Plated,PTH,ComponentDrill
T10C0.0752
%
G90
G05
T1
X8.878Y-3.133
X8.945Y-3.682
X8.976Y-3.731
X8.9867Y-3.904
X9.0119Y-3.763
X9.0277Y-3.833
X9.0423Y-3.941
X9.062Y-3.91
X9.179Y-3.266
X9.198Y-2.9633
X9.204Y-3.289
X9.218Y-2.983
X9.22Y-3.327
X9.235Y-3.37
X9.2363Y-3.008
X9.249Y-3.423
X9.256Y-3.032
T2
X2.8262Y-4.3124
X3.063Y-3.646
X3.0782Y-4.3124
X3.307Y-3.141
X3.327Y-4.3124
X3.408Y-3.653
X3.5703Y-4.3109
X5.583Y-2.746
X5.901Y-3.197
X5.901Y-3.415
X6.023Y-2.845
X6.1535Y-2.412
X6.215Y-1.853
X6.247Y-4.95
X6.509Y-5.447
X6.662Y-3.993
X6.948Y-5.627
X6.951Y-5.151
X7.327Y-2.538
X7.532Y-5.44
X8.144Y-3.824
T4
X3.6612Y-3.3223
T5
X2.8172Y-3.3393
X2.8172Y-3.5361
X2.8192Y-2.8987
X2.8192Y-3.0956
X2.8976Y-4.7024
X2.8976Y-4.8024
X2.8976Y-4.9024
X2.8976Y-5.0024
X2.8976Y-5.1024
X2.8976Y-5.2024
X2.8976Y-5.3024
X2.8976Y-5.4024
X2.9546Y-5.749
X3.0546Y-5.749
X3.1546Y-5.749
X3.2546Y-5.749
X3.3976Y-4.7024
X3.3976Y-4.8024
X3.3976Y-4.9024
X3.3976Y-5.0024
X3.3976Y-5.1024
X3.3976Y-5.2024
X3.3976Y-5.3024
X3.3976Y-5.4024
X3.4289Y-2.5636
X3.4293Y-1.825
X3.5289Y-2.5636
X3.5293Y-1.825
X4.4156Y-4.7024
X4.4156Y-4.8024
X4.4156Y-4.9024
X4.4156Y-5.0024
X4.4156Y-5.1024
X4.4156Y-5.2024
X4.4156Y-5.3024
X4.4156Y-5.4024
X4.4707Y-5.749
X4.5707Y-5.749
X4.6707Y-5.749
X4.7707Y-5.749
X4.9156Y-4.7024
X4.9156Y-4.8024
X4.9156Y-4.9024
X4.9156Y-5.0024
X4.9156Y-5.1024
X4.9156Y-5.2024
X4.9156Y-5.3024
X4.9156Y-5.4024
X5.6349Y-5.7585
X5.7349Y-5.7585
X5.8349Y-5.7585
X5.9349Y-5.7585
X6.2837Y-5.7585
X6.3837Y-5.7585
X6.4837Y-5.7585
X7.1325Y-5.7593
X7.2325Y-5.7593
X7.3325Y-5.7593
X7.4325Y-5.7593
X7.5325Y-5.7593
X7.806Y-2.951
X7.806Y-3.051
X7.806Y-3.151
X7.806Y-3.251
X7.806Y-3.351
X7.806Y-3.451
X7.806Y-3.551
X7.806Y-3.651
X7.806Y-3.751
X7.806Y-3.851
X7.806Y-3.951
X7.806Y-4.051
X7.806Y-4.151
X7.806Y-4.251
X7.806Y-4.351
X7.806Y-4.451
X7.806Y-4.551
X7.806Y-4.651
X7.806Y-4.751
X7.806Y-4.851
X7.806Y-4.951
X7.806Y-5.051
X7.806Y-5.151
X7.806Y-5.251
X7.806Y-5.351
X7.806Y-5.451
X7.806Y-5.551
X7.806Y-5.651
X7.806Y-5.751
X7.806Y-5.851
T6
X2.8515Y-1.829
X2.8515Y-2.0258
X2.8515Y-2.3947
X2.8515Y-2.5916
X3.1743Y-1.829
X3.1743Y-2.0258
X3.1743Y-2.3947
X3.1743Y-2.5916
T7
X3.8586Y-1.8987
X3.8586Y-2.1987
X3.8586Y-2.4987
X5.8586Y-2.0487
X5.8586Y-2.1987
X5.8586Y-2.3487
T8
X4.0561Y-2.899
X4.0561Y-3.199
X4.0561Y-3.399
X4.8561Y-2.899
X4.8561Y-3.299
X4.8561Y-3.699
X6.4884Y-1.5116
X6.4884Y-1.992
X6.7246Y-2.0707
X6.9609Y-1.5116
X6.9609Y-1.992
T9
X8.5329Y-2.1392
X8.9738Y-1.8833
X8.9738Y-2.1392
T10
X5.8586Y-1.8987
X5.8586Y-2.4987
T3
G00X8.5821Y-1.6648
M15
G01X8.5821Y-1.5782
M16
G05
G00X8.5821Y-2.4443
M15
G01X8.5821Y-2.3577
M16
G05
G00X8.9246Y-1.6648
M15
G01X8.9246Y-1.5782
M16
G05
G00X8.9246Y-2.4443
M15
G01X8.9246Y-2.3577
M16
G05
T0
M30
