%TF.GenerationSoftware,KiCad,Pcbnew,7.0.8*%
%TF.CreationDate,2023-10-25T17:14:19-06:00*%
%TF.ProjectId,GR-LRR-PCB,47522d4c-5252-42d5-9043-422e6b696361,rev?*%
%TF.SameCoordinates,Original*%
%TF.FileFunction,Legend,Bot*%
%TF.FilePolarity,Positive*%
%FSLAX46Y46*%
G04 Gerber Fmt 4.6, Leading zero omitted, Abs format (unit mm)*
G04 Created by KiCad (PCBNEW 7.0.8) date 2023-10-25 17:14:19*
%MOMM*%
%LPD*%
G01*
G04 APERTURE LIST*
%ADD10C,0.200000*%
%ADD11C,0.300000*%
%ADD12C,0.150000*%
%ADD13C,0.254000*%
%ADD14C,0.508000*%
%ADD15C,0.120000*%
%ADD16C,0.100000*%
G04 APERTURE END LIST*
D10*
X119100600Y-54538800D02*
X144500600Y-54538800D01*
X144500600Y-120578800D01*
X119100600Y-120578800D01*
X119100600Y-54538800D01*
X126230600Y-50338800D02*
X137020600Y-50338800D01*
X137020600Y-54538800D01*
X126230600Y-54538800D01*
X126230600Y-50338800D01*
D11*
X412803574Y25565523D02*
X412946432Y25640761D01*
X412946432Y25640761D02*
X413160717Y25640761D01*
X413160717Y25640761D02*
X413375003Y25565523D01*
X413375003Y25565523D02*
X413517860Y25415047D01*
X413517860Y25415047D02*
X413589289Y25264571D01*
X413589289Y25264571D02*
X413660717Y24963619D01*
X413660717Y24963619D02*
X413660717Y24737904D01*
X413660717Y24737904D02*
X413589289Y24436952D01*
X413589289Y24436952D02*
X413517860Y24286476D01*
X413517860Y24286476D02*
X413375003Y24136000D01*
X413375003Y24136000D02*
X413160717Y24060761D01*
X413160717Y24060761D02*
X413017860Y24060761D01*
X413017860Y24060761D02*
X412803574Y24136000D01*
X412803574Y24136000D02*
X412732146Y24211238D01*
X412732146Y24211238D02*
X412732146Y24737904D01*
X412732146Y24737904D02*
X413017860Y24737904D01*
X411232146Y24060761D02*
X411732146Y24813142D01*
X412089289Y24060761D02*
X412089289Y25640761D01*
X412089289Y25640761D02*
X411517860Y25640761D01*
X411517860Y25640761D02*
X411375003Y25565523D01*
X411375003Y25565523D02*
X411303574Y25490285D01*
X411303574Y25490285D02*
X411232146Y25339809D01*
X411232146Y25339809D02*
X411232146Y25114095D01*
X411232146Y25114095D02*
X411303574Y24963619D01*
X411303574Y24963619D02*
X411375003Y24888380D01*
X411375003Y24888380D02*
X411517860Y24813142D01*
X411517860Y24813142D02*
X412089289Y24813142D01*
X410589289Y24662666D02*
X409446432Y24662666D01*
X408017860Y24060761D02*
X408732146Y24060761D01*
X408732146Y24060761D02*
X408732146Y25640761D01*
X406660717Y24060761D02*
X407160717Y24813142D01*
X407517860Y24060761D02*
X407517860Y25640761D01*
X407517860Y25640761D02*
X406946431Y25640761D01*
X406946431Y25640761D02*
X406803574Y25565523D01*
X406803574Y25565523D02*
X406732145Y25490285D01*
X406732145Y25490285D02*
X406660717Y25339809D01*
X406660717Y25339809D02*
X406660717Y25114095D01*
X406660717Y25114095D02*
X406732145Y24963619D01*
X406732145Y24963619D02*
X406803574Y24888380D01*
X406803574Y24888380D02*
X406946431Y24813142D01*
X406946431Y24813142D02*
X407517860Y24813142D01*
X405160717Y24060761D02*
X405660717Y24813142D01*
X406017860Y24060761D02*
X406017860Y25640761D01*
X406017860Y25640761D02*
X405446431Y25640761D01*
X405446431Y25640761D02*
X405303574Y25565523D01*
X405303574Y25565523D02*
X405232145Y25490285D01*
X405232145Y25490285D02*
X405160717Y25339809D01*
X405160717Y25339809D02*
X405160717Y25114095D01*
X405160717Y25114095D02*
X405232145Y24963619D01*
X405232145Y24963619D02*
X405303574Y24888380D01*
X405303574Y24888380D02*
X405446431Y24813142D01*
X405446431Y24813142D02*
X406017860Y24813142D01*
X402589288Y24060761D02*
X403446431Y24060761D01*
X403017860Y24060761D02*
X403017860Y25640761D01*
X403017860Y25640761D02*
X403160717Y25415047D01*
X403160717Y25415047D02*
X403303574Y25264571D01*
X403303574Y25264571D02*
X403446431Y25189333D01*
X401660717Y25640761D02*
X401517860Y25640761D01*
X401517860Y25640761D02*
X401375003Y25565523D01*
X401375003Y25565523D02*
X401303575Y25490285D01*
X401303575Y25490285D02*
X401232146Y25339809D01*
X401232146Y25339809D02*
X401160717Y25038857D01*
X401160717Y25038857D02*
X401160717Y24662666D01*
X401160717Y24662666D02*
X401232146Y24361714D01*
X401232146Y24361714D02*
X401303575Y24211238D01*
X401303575Y24211238D02*
X401375003Y24136000D01*
X401375003Y24136000D02*
X401517860Y24060761D01*
X401517860Y24060761D02*
X401660717Y24060761D01*
X401660717Y24060761D02*
X401803575Y24136000D01*
X401803575Y24136000D02*
X401875003Y24211238D01*
X401875003Y24211238D02*
X401946432Y24361714D01*
X401946432Y24361714D02*
X402017860Y24662666D01*
X402017860Y24662666D02*
X402017860Y25038857D01*
X402017860Y25038857D02*
X401946432Y25339809D01*
X401946432Y25339809D02*
X401875003Y25490285D01*
X401875003Y25490285D02*
X401803575Y25565523D01*
X401803575Y25565523D02*
X401660717Y25640761D01*
X400589289Y25490285D02*
X400517861Y25565523D01*
X400517861Y25565523D02*
X400375004Y25640761D01*
X400375004Y25640761D02*
X400017861Y25640761D01*
X400017861Y25640761D02*
X399875004Y25565523D01*
X399875004Y25565523D02*
X399803575Y25490285D01*
X399803575Y25490285D02*
X399732146Y25339809D01*
X399732146Y25339809D02*
X399732146Y25189333D01*
X399732146Y25189333D02*
X399803575Y24963619D01*
X399803575Y24963619D02*
X400660718Y24060761D01*
X400660718Y24060761D02*
X399732146Y24060761D01*
X398375004Y25640761D02*
X399089290Y25640761D01*
X399089290Y25640761D02*
X399160718Y24888380D01*
X399160718Y24888380D02*
X399089290Y24963619D01*
X399089290Y24963619D02*
X398946433Y25038857D01*
X398946433Y25038857D02*
X398589290Y25038857D01*
X398589290Y25038857D02*
X398446433Y24963619D01*
X398446433Y24963619D02*
X398375004Y24888380D01*
X398375004Y24888380D02*
X398303575Y24737904D01*
X398303575Y24737904D02*
X398303575Y24361714D01*
X398303575Y24361714D02*
X398375004Y24211238D01*
X398375004Y24211238D02*
X398446433Y24136000D01*
X398446433Y24136000D02*
X398589290Y24060761D01*
X398589290Y24060761D02*
X398946433Y24060761D01*
X398946433Y24060761D02*
X399089290Y24136000D01*
X399089290Y24136000D02*
X399160718Y24211238D01*
X397732147Y25490285D02*
X397660719Y25565523D01*
X397660719Y25565523D02*
X397517862Y25640761D01*
X397517862Y25640761D02*
X397160719Y25640761D01*
X397160719Y25640761D02*
X397017862Y25565523D01*
X397017862Y25565523D02*
X396946433Y25490285D01*
X396946433Y25490285D02*
X396875004Y25339809D01*
X396875004Y25339809D02*
X396875004Y25189333D01*
X396875004Y25189333D02*
X396946433Y24963619D01*
X396946433Y24963619D02*
X397803576Y24060761D01*
X397803576Y24060761D02*
X396875004Y24060761D01*
X396375005Y25640761D02*
X395446433Y25640761D01*
X395446433Y25640761D02*
X395946433Y25038857D01*
X395946433Y25038857D02*
X395732148Y25038857D01*
X395732148Y25038857D02*
X395589291Y24963619D01*
X395589291Y24963619D02*
X395517862Y24888380D01*
X395517862Y24888380D02*
X395446433Y24737904D01*
X395446433Y24737904D02*
X395446433Y24361714D01*
X395446433Y24361714D02*
X395517862Y24211238D01*
X395517862Y24211238D02*
X395589291Y24136000D01*
X395589291Y24136000D02*
X395732148Y24060761D01*
X395732148Y24060761D02*
X396160719Y24060761D01*
X396160719Y24060761D02*
X396303576Y24136000D01*
X396303576Y24136000D02*
X396375005Y24211238D01*
X393732148Y24512190D02*
X393017863Y24512190D01*
X393875005Y24060761D02*
X393375005Y25640761D01*
X393375005Y25640761D02*
X392875005Y24060761D01*
X392089291Y25640761D02*
X391946434Y25640761D01*
X391946434Y25640761D02*
X391803577Y25565523D01*
X391803577Y25565523D02*
X391732149Y25490285D01*
X391732149Y25490285D02*
X391660720Y25339809D01*
X391660720Y25339809D02*
X391589291Y25038857D01*
X391589291Y25038857D02*
X391589291Y24662666D01*
X391589291Y24662666D02*
X391660720Y24361714D01*
X391660720Y24361714D02*
X391732149Y24211238D01*
X391732149Y24211238D02*
X391803577Y24136000D01*
X391803577Y24136000D02*
X391946434Y24060761D01*
X391946434Y24060761D02*
X392089291Y24060761D01*
X392089291Y24060761D02*
X392232149Y24136000D01*
X392232149Y24136000D02*
X392303577Y24211238D01*
X392303577Y24211238D02*
X392375006Y24361714D01*
X392375006Y24361714D02*
X392446434Y24662666D01*
X392446434Y24662666D02*
X392446434Y25038857D01*
X392446434Y25038857D02*
X392375006Y25339809D01*
X392375006Y25339809D02*
X392303577Y25490285D01*
X392303577Y25490285D02*
X392232149Y25565523D01*
X392232149Y25565523D02*
X392089291Y25640761D01*
X111750261Y-110379190D02*
X112464547Y-110379190D01*
X111607404Y-109927761D02*
X112107404Y-111507761D01*
X112107404Y-111507761D02*
X112607404Y-109927761D01*
X113393118Y-111507761D02*
X113535975Y-111507761D01*
X113535975Y-111507761D02*
X113678832Y-111432523D01*
X113678832Y-111432523D02*
X113750261Y-111357285D01*
X113750261Y-111357285D02*
X113821689Y-111206809D01*
X113821689Y-111206809D02*
X113893118Y-110905857D01*
X113893118Y-110905857D02*
X113893118Y-110529666D01*
X113893118Y-110529666D02*
X113821689Y-110228714D01*
X113821689Y-110228714D02*
X113750261Y-110078238D01*
X113750261Y-110078238D02*
X113678832Y-110003000D01*
X113678832Y-110003000D02*
X113535975Y-109927761D01*
X113535975Y-109927761D02*
X113393118Y-109927761D01*
X113393118Y-109927761D02*
X113250261Y-110003000D01*
X113250261Y-110003000D02*
X113178832Y-110078238D01*
X113178832Y-110078238D02*
X113107403Y-110228714D01*
X113107403Y-110228714D02*
X113035975Y-110529666D01*
X113035975Y-110529666D02*
X113035975Y-110905857D01*
X113035975Y-110905857D02*
X113107403Y-111206809D01*
X113107403Y-111206809D02*
X113178832Y-111357285D01*
X113178832Y-111357285D02*
X113250261Y-111432523D01*
X113250261Y-111432523D02*
X113393118Y-111507761D01*
X111750261Y-107835390D02*
X112464547Y-107835390D01*
X111607404Y-107383961D02*
X112107404Y-108963961D01*
X112107404Y-108963961D02*
X112607404Y-107383961D01*
X113893118Y-107383961D02*
X113035975Y-107383961D01*
X113464546Y-107383961D02*
X113464546Y-108963961D01*
X113464546Y-108963961D02*
X113321689Y-108738247D01*
X113321689Y-108738247D02*
X113178832Y-108587771D01*
X113178832Y-108587771D02*
X113035975Y-108512533D01*
X111750261Y-105291590D02*
X112464547Y-105291590D01*
X111607404Y-104840161D02*
X112107404Y-106420161D01*
X112107404Y-106420161D02*
X112607404Y-104840161D01*
X113035975Y-106269685D02*
X113107403Y-106344923D01*
X113107403Y-106344923D02*
X113250261Y-106420161D01*
X113250261Y-106420161D02*
X113607403Y-106420161D01*
X113607403Y-106420161D02*
X113750261Y-106344923D01*
X113750261Y-106344923D02*
X113821689Y-106269685D01*
X113821689Y-106269685D02*
X113893118Y-106119209D01*
X113893118Y-106119209D02*
X113893118Y-105968733D01*
X113893118Y-105968733D02*
X113821689Y-105743019D01*
X113821689Y-105743019D02*
X112964546Y-104840161D01*
X112964546Y-104840161D02*
X113893118Y-104840161D01*
X111750261Y-102747790D02*
X112464547Y-102747790D01*
X111607404Y-102296361D02*
X112107404Y-103876361D01*
X112107404Y-103876361D02*
X112607404Y-102296361D01*
X112964546Y-103876361D02*
X113893118Y-103876361D01*
X113893118Y-103876361D02*
X113393118Y-103274457D01*
X113393118Y-103274457D02*
X113607403Y-103274457D01*
X113607403Y-103274457D02*
X113750261Y-103199219D01*
X113750261Y-103199219D02*
X113821689Y-103123980D01*
X113821689Y-103123980D02*
X113893118Y-102973504D01*
X113893118Y-102973504D02*
X113893118Y-102597314D01*
X113893118Y-102597314D02*
X113821689Y-102446838D01*
X113821689Y-102446838D02*
X113750261Y-102371600D01*
X113750261Y-102371600D02*
X113607403Y-102296361D01*
X113607403Y-102296361D02*
X113178832Y-102296361D01*
X113178832Y-102296361D02*
X113035975Y-102371600D01*
X113035975Y-102371600D02*
X112964546Y-102446838D01*
X111750261Y-100203990D02*
X112464547Y-100203990D01*
X111607404Y-99752561D02*
X112107404Y-101332561D01*
X112107404Y-101332561D02*
X112607404Y-99752561D01*
X113750261Y-100805895D02*
X113750261Y-99752561D01*
X113393118Y-101407800D02*
X113035975Y-100279228D01*
X113035975Y-100279228D02*
X113964546Y-100279228D01*
X111750261Y-97660190D02*
X112464547Y-97660190D01*
X111607404Y-97208761D02*
X112107404Y-98788761D01*
X112107404Y-98788761D02*
X112607404Y-97208761D01*
X113821689Y-98788761D02*
X113107403Y-98788761D01*
X113107403Y-98788761D02*
X113035975Y-98036380D01*
X113035975Y-98036380D02*
X113107403Y-98111619D01*
X113107403Y-98111619D02*
X113250261Y-98186857D01*
X113250261Y-98186857D02*
X113607403Y-98186857D01*
X113607403Y-98186857D02*
X113750261Y-98111619D01*
X113750261Y-98111619D02*
X113821689Y-98036380D01*
X113821689Y-98036380D02*
X113893118Y-97885904D01*
X113893118Y-97885904D02*
X113893118Y-97509714D01*
X113893118Y-97509714D02*
X113821689Y-97359238D01*
X113821689Y-97359238D02*
X113750261Y-97284000D01*
X113750261Y-97284000D02*
X113607403Y-97208761D01*
X113607403Y-97208761D02*
X113250261Y-97208761D01*
X113250261Y-97208761D02*
X113107403Y-97284000D01*
X113107403Y-97284000D02*
X113035975Y-97359238D01*
X111750261Y-95116390D02*
X112464547Y-95116390D01*
X111607404Y-94664961D02*
X112107404Y-96244961D01*
X112107404Y-96244961D02*
X112607404Y-94664961D01*
X113750261Y-96244961D02*
X113464546Y-96244961D01*
X113464546Y-96244961D02*
X113321689Y-96169723D01*
X113321689Y-96169723D02*
X113250261Y-96094485D01*
X113250261Y-96094485D02*
X113107403Y-95868771D01*
X113107403Y-95868771D02*
X113035975Y-95567819D01*
X113035975Y-95567819D02*
X113035975Y-94965914D01*
X113035975Y-94965914D02*
X113107403Y-94815438D01*
X113107403Y-94815438D02*
X113178832Y-94740200D01*
X113178832Y-94740200D02*
X113321689Y-94664961D01*
X113321689Y-94664961D02*
X113607403Y-94664961D01*
X113607403Y-94664961D02*
X113750261Y-94740200D01*
X113750261Y-94740200D02*
X113821689Y-94815438D01*
X113821689Y-94815438D02*
X113893118Y-94965914D01*
X113893118Y-94965914D02*
X113893118Y-95342104D01*
X113893118Y-95342104D02*
X113821689Y-95492580D01*
X113821689Y-95492580D02*
X113750261Y-95567819D01*
X113750261Y-95567819D02*
X113607403Y-95643057D01*
X113607403Y-95643057D02*
X113321689Y-95643057D01*
X113321689Y-95643057D02*
X113178832Y-95567819D01*
X113178832Y-95567819D02*
X113107403Y-95492580D01*
X113107403Y-95492580D02*
X113035975Y-95342104D01*
X111750261Y-92572590D02*
X112464547Y-92572590D01*
X111607404Y-92121161D02*
X112107404Y-93701161D01*
X112107404Y-93701161D02*
X112607404Y-92121161D01*
X112964546Y-93701161D02*
X113964546Y-93701161D01*
X113964546Y-93701161D02*
X113321689Y-92121161D01*
X104107403Y-89577361D02*
X104107403Y-91157361D01*
X104107403Y-91157361D02*
X104678832Y-91157361D01*
X104678832Y-91157361D02*
X104821689Y-91082123D01*
X104821689Y-91082123D02*
X104893118Y-91006885D01*
X104893118Y-91006885D02*
X104964546Y-90856409D01*
X104964546Y-90856409D02*
X104964546Y-90630695D01*
X104964546Y-90630695D02*
X104893118Y-90480219D01*
X104893118Y-90480219D02*
X104821689Y-90404980D01*
X104821689Y-90404980D02*
X104678832Y-90329742D01*
X104678832Y-90329742D02*
X104107403Y-90329742D01*
X105464546Y-91157361D02*
X105821689Y-89577361D01*
X105821689Y-89577361D02*
X106107403Y-90705933D01*
X106107403Y-90705933D02*
X106393118Y-89577361D01*
X106393118Y-89577361D02*
X106750261Y-91157361D01*
X107321689Y-89577361D02*
X107321689Y-91157361D01*
X107321689Y-91157361D02*
X107821689Y-90028790D01*
X107821689Y-90028790D02*
X108321689Y-91157361D01*
X108321689Y-91157361D02*
X108321689Y-89577361D01*
X109321690Y-91157361D02*
X109464547Y-91157361D01*
X109464547Y-91157361D02*
X109607404Y-91082123D01*
X109607404Y-91082123D02*
X109678833Y-91006885D01*
X109678833Y-91006885D02*
X109750261Y-90856409D01*
X109750261Y-90856409D02*
X109821690Y-90555457D01*
X109821690Y-90555457D02*
X109821690Y-90179266D01*
X109821690Y-90179266D02*
X109750261Y-89878314D01*
X109750261Y-89878314D02*
X109678833Y-89727838D01*
X109678833Y-89727838D02*
X109607404Y-89652600D01*
X109607404Y-89652600D02*
X109464547Y-89577361D01*
X109464547Y-89577361D02*
X109321690Y-89577361D01*
X109321690Y-89577361D02*
X109178833Y-89652600D01*
X109178833Y-89652600D02*
X109107404Y-89727838D01*
X109107404Y-89727838D02*
X109035975Y-89878314D01*
X109035975Y-89878314D02*
X108964547Y-90179266D01*
X108964547Y-90179266D02*
X108964547Y-90555457D01*
X108964547Y-90555457D02*
X109035975Y-90856409D01*
X109035975Y-90856409D02*
X109107404Y-91006885D01*
X109107404Y-91006885D02*
X109178833Y-91082123D01*
X109178833Y-91082123D02*
X109321690Y-91157361D01*
X110107404Y-89426885D02*
X111250261Y-89426885D01*
X111607403Y-89577361D02*
X111607403Y-91157361D01*
X111607403Y-91157361D02*
X111964546Y-91157361D01*
X111964546Y-91157361D02*
X112178832Y-91082123D01*
X112178832Y-91082123D02*
X112321689Y-90931647D01*
X112321689Y-90931647D02*
X112393118Y-90781171D01*
X112393118Y-90781171D02*
X112464546Y-90480219D01*
X112464546Y-90480219D02*
X112464546Y-90254504D01*
X112464546Y-90254504D02*
X112393118Y-89953552D01*
X112393118Y-89953552D02*
X112321689Y-89803076D01*
X112321689Y-89803076D02*
X112178832Y-89652600D01*
X112178832Y-89652600D02*
X111964546Y-89577361D01*
X111964546Y-89577361D02*
X111607403Y-89577361D01*
X113750261Y-91157361D02*
X113464546Y-91157361D01*
X113464546Y-91157361D02*
X113321689Y-91082123D01*
X113321689Y-91082123D02*
X113250261Y-91006885D01*
X113250261Y-91006885D02*
X113107403Y-90781171D01*
X113107403Y-90781171D02*
X113035975Y-90480219D01*
X113035975Y-90480219D02*
X113035975Y-89878314D01*
X113035975Y-89878314D02*
X113107403Y-89727838D01*
X113107403Y-89727838D02*
X113178832Y-89652600D01*
X113178832Y-89652600D02*
X113321689Y-89577361D01*
X113321689Y-89577361D02*
X113607403Y-89577361D01*
X113607403Y-89577361D02*
X113750261Y-89652600D01*
X113750261Y-89652600D02*
X113821689Y-89727838D01*
X113821689Y-89727838D02*
X113893118Y-89878314D01*
X113893118Y-89878314D02*
X113893118Y-90254504D01*
X113893118Y-90254504D02*
X113821689Y-90404980D01*
X113821689Y-90404980D02*
X113750261Y-90480219D01*
X113750261Y-90480219D02*
X113607403Y-90555457D01*
X113607403Y-90555457D02*
X113321689Y-90555457D01*
X113321689Y-90555457D02*
X113178832Y-90480219D01*
X113178832Y-90480219D02*
X113107403Y-90404980D01*
X113107403Y-90404980D02*
X113035975Y-90254504D01*
X104107403Y-87033561D02*
X104107403Y-88613561D01*
X104107403Y-88613561D02*
X104678832Y-88613561D01*
X104678832Y-88613561D02*
X104821689Y-88538323D01*
X104821689Y-88538323D02*
X104893118Y-88463085D01*
X104893118Y-88463085D02*
X104964546Y-88312609D01*
X104964546Y-88312609D02*
X104964546Y-88086895D01*
X104964546Y-88086895D02*
X104893118Y-87936419D01*
X104893118Y-87936419D02*
X104821689Y-87861180D01*
X104821689Y-87861180D02*
X104678832Y-87785942D01*
X104678832Y-87785942D02*
X104107403Y-87785942D01*
X105464546Y-88613561D02*
X105821689Y-87033561D01*
X105821689Y-87033561D02*
X106107403Y-88162133D01*
X106107403Y-88162133D02*
X106393118Y-87033561D01*
X106393118Y-87033561D02*
X106750261Y-88613561D01*
X107321689Y-87033561D02*
X107321689Y-88613561D01*
X107321689Y-88613561D02*
X107821689Y-87484990D01*
X107821689Y-87484990D02*
X108321689Y-88613561D01*
X108321689Y-88613561D02*
X108321689Y-87033561D01*
X109821690Y-87033561D02*
X108964547Y-87033561D01*
X109393118Y-87033561D02*
X109393118Y-88613561D01*
X109393118Y-88613561D02*
X109250261Y-88387847D01*
X109250261Y-88387847D02*
X109107404Y-88237371D01*
X109107404Y-88237371D02*
X108964547Y-88162133D01*
X110107404Y-86883085D02*
X111250261Y-86883085D01*
X111607403Y-87033561D02*
X111607403Y-88613561D01*
X111607403Y-88613561D02*
X111964546Y-88613561D01*
X111964546Y-88613561D02*
X112178832Y-88538323D01*
X112178832Y-88538323D02*
X112321689Y-88387847D01*
X112321689Y-88387847D02*
X112393118Y-88237371D01*
X112393118Y-88237371D02*
X112464546Y-87936419D01*
X112464546Y-87936419D02*
X112464546Y-87710704D01*
X112464546Y-87710704D02*
X112393118Y-87409752D01*
X112393118Y-87409752D02*
X112321689Y-87259276D01*
X112321689Y-87259276D02*
X112178832Y-87108800D01*
X112178832Y-87108800D02*
X111964546Y-87033561D01*
X111964546Y-87033561D02*
X111607403Y-87033561D01*
X113821689Y-88613561D02*
X113107403Y-88613561D01*
X113107403Y-88613561D02*
X113035975Y-87861180D01*
X113035975Y-87861180D02*
X113107403Y-87936419D01*
X113107403Y-87936419D02*
X113250261Y-88011657D01*
X113250261Y-88011657D02*
X113607403Y-88011657D01*
X113607403Y-88011657D02*
X113750261Y-87936419D01*
X113750261Y-87936419D02*
X113821689Y-87861180D01*
X113821689Y-87861180D02*
X113893118Y-87710704D01*
X113893118Y-87710704D02*
X113893118Y-87334514D01*
X113893118Y-87334514D02*
X113821689Y-87184038D01*
X113821689Y-87184038D02*
X113750261Y-87108800D01*
X113750261Y-87108800D02*
X113607403Y-87033561D01*
X113607403Y-87033561D02*
X113250261Y-87033561D01*
X113250261Y-87033561D02*
X113107403Y-87108800D01*
X113107403Y-87108800D02*
X113035975Y-87184038D01*
X104107403Y-84489761D02*
X104107403Y-86069761D01*
X104107403Y-86069761D02*
X104678832Y-86069761D01*
X104678832Y-86069761D02*
X104821689Y-85994523D01*
X104821689Y-85994523D02*
X104893118Y-85919285D01*
X104893118Y-85919285D02*
X104964546Y-85768809D01*
X104964546Y-85768809D02*
X104964546Y-85543095D01*
X104964546Y-85543095D02*
X104893118Y-85392619D01*
X104893118Y-85392619D02*
X104821689Y-85317380D01*
X104821689Y-85317380D02*
X104678832Y-85242142D01*
X104678832Y-85242142D02*
X104107403Y-85242142D01*
X105464546Y-86069761D02*
X105821689Y-84489761D01*
X105821689Y-84489761D02*
X106107403Y-85618333D01*
X106107403Y-85618333D02*
X106393118Y-84489761D01*
X106393118Y-84489761D02*
X106750261Y-86069761D01*
X107321689Y-84489761D02*
X107321689Y-86069761D01*
X107321689Y-86069761D02*
X107821689Y-84941190D01*
X107821689Y-84941190D02*
X108321689Y-86069761D01*
X108321689Y-86069761D02*
X108321689Y-84489761D01*
X108964547Y-85919285D02*
X109035975Y-85994523D01*
X109035975Y-85994523D02*
X109178833Y-86069761D01*
X109178833Y-86069761D02*
X109535975Y-86069761D01*
X109535975Y-86069761D02*
X109678833Y-85994523D01*
X109678833Y-85994523D02*
X109750261Y-85919285D01*
X109750261Y-85919285D02*
X109821690Y-85768809D01*
X109821690Y-85768809D02*
X109821690Y-85618333D01*
X109821690Y-85618333D02*
X109750261Y-85392619D01*
X109750261Y-85392619D02*
X108893118Y-84489761D01*
X108893118Y-84489761D02*
X109821690Y-84489761D01*
X110107404Y-84339285D02*
X111250261Y-84339285D01*
X111607403Y-84489761D02*
X111607403Y-86069761D01*
X111607403Y-86069761D02*
X111964546Y-86069761D01*
X111964546Y-86069761D02*
X112178832Y-85994523D01*
X112178832Y-85994523D02*
X112321689Y-85844047D01*
X112321689Y-85844047D02*
X112393118Y-85693571D01*
X112393118Y-85693571D02*
X112464546Y-85392619D01*
X112464546Y-85392619D02*
X112464546Y-85166904D01*
X112464546Y-85166904D02*
X112393118Y-84865952D01*
X112393118Y-84865952D02*
X112321689Y-84715476D01*
X112321689Y-84715476D02*
X112178832Y-84565000D01*
X112178832Y-84565000D02*
X111964546Y-84489761D01*
X111964546Y-84489761D02*
X111607403Y-84489761D01*
X113750261Y-85543095D02*
X113750261Y-84489761D01*
X113393118Y-86145000D02*
X113035975Y-85016428D01*
X113035975Y-85016428D02*
X113964546Y-85016428D01*
X104107403Y-81945961D02*
X104107403Y-83525961D01*
X104107403Y-83525961D02*
X104678832Y-83525961D01*
X104678832Y-83525961D02*
X104821689Y-83450723D01*
X104821689Y-83450723D02*
X104893118Y-83375485D01*
X104893118Y-83375485D02*
X104964546Y-83225009D01*
X104964546Y-83225009D02*
X104964546Y-82999295D01*
X104964546Y-82999295D02*
X104893118Y-82848819D01*
X104893118Y-82848819D02*
X104821689Y-82773580D01*
X104821689Y-82773580D02*
X104678832Y-82698342D01*
X104678832Y-82698342D02*
X104107403Y-82698342D01*
X105464546Y-83525961D02*
X105821689Y-81945961D01*
X105821689Y-81945961D02*
X106107403Y-83074533D01*
X106107403Y-83074533D02*
X106393118Y-81945961D01*
X106393118Y-81945961D02*
X106750261Y-83525961D01*
X107321689Y-81945961D02*
X107321689Y-83525961D01*
X107321689Y-83525961D02*
X107821689Y-82397390D01*
X107821689Y-82397390D02*
X108321689Y-83525961D01*
X108321689Y-83525961D02*
X108321689Y-81945961D01*
X108893118Y-83525961D02*
X109821690Y-83525961D01*
X109821690Y-83525961D02*
X109321690Y-82924057D01*
X109321690Y-82924057D02*
X109535975Y-82924057D01*
X109535975Y-82924057D02*
X109678833Y-82848819D01*
X109678833Y-82848819D02*
X109750261Y-82773580D01*
X109750261Y-82773580D02*
X109821690Y-82623104D01*
X109821690Y-82623104D02*
X109821690Y-82246914D01*
X109821690Y-82246914D02*
X109750261Y-82096438D01*
X109750261Y-82096438D02*
X109678833Y-82021200D01*
X109678833Y-82021200D02*
X109535975Y-81945961D01*
X109535975Y-81945961D02*
X109107404Y-81945961D01*
X109107404Y-81945961D02*
X108964547Y-82021200D01*
X108964547Y-82021200D02*
X108893118Y-82096438D01*
X110107404Y-81795485D02*
X111250261Y-81795485D01*
X111607403Y-81945961D02*
X111607403Y-83525961D01*
X111607403Y-83525961D02*
X111964546Y-83525961D01*
X111964546Y-83525961D02*
X112178832Y-83450723D01*
X112178832Y-83450723D02*
X112321689Y-83300247D01*
X112321689Y-83300247D02*
X112393118Y-83149771D01*
X112393118Y-83149771D02*
X112464546Y-82848819D01*
X112464546Y-82848819D02*
X112464546Y-82623104D01*
X112464546Y-82623104D02*
X112393118Y-82322152D01*
X112393118Y-82322152D02*
X112321689Y-82171676D01*
X112321689Y-82171676D02*
X112178832Y-82021200D01*
X112178832Y-82021200D02*
X111964546Y-81945961D01*
X111964546Y-81945961D02*
X111607403Y-81945961D01*
X112964546Y-83525961D02*
X113893118Y-83525961D01*
X113893118Y-83525961D02*
X113393118Y-82924057D01*
X113393118Y-82924057D02*
X113607403Y-82924057D01*
X113607403Y-82924057D02*
X113750261Y-82848819D01*
X113750261Y-82848819D02*
X113821689Y-82773580D01*
X113821689Y-82773580D02*
X113893118Y-82623104D01*
X113893118Y-82623104D02*
X113893118Y-82246914D01*
X113893118Y-82246914D02*
X113821689Y-82096438D01*
X113821689Y-82096438D02*
X113750261Y-82021200D01*
X113750261Y-82021200D02*
X113607403Y-81945961D01*
X113607403Y-81945961D02*
X113178832Y-81945961D01*
X113178832Y-81945961D02*
X113035975Y-82021200D01*
X113035975Y-82021200D02*
X112964546Y-82096438D01*
X104107403Y-79402161D02*
X104107403Y-80982161D01*
X104107403Y-80982161D02*
X104678832Y-80982161D01*
X104678832Y-80982161D02*
X104821689Y-80906923D01*
X104821689Y-80906923D02*
X104893118Y-80831685D01*
X104893118Y-80831685D02*
X104964546Y-80681209D01*
X104964546Y-80681209D02*
X104964546Y-80455495D01*
X104964546Y-80455495D02*
X104893118Y-80305019D01*
X104893118Y-80305019D02*
X104821689Y-80229780D01*
X104821689Y-80229780D02*
X104678832Y-80154542D01*
X104678832Y-80154542D02*
X104107403Y-80154542D01*
X105464546Y-80982161D02*
X105821689Y-79402161D01*
X105821689Y-79402161D02*
X106107403Y-80530733D01*
X106107403Y-80530733D02*
X106393118Y-79402161D01*
X106393118Y-79402161D02*
X106750261Y-80982161D01*
X107321689Y-79402161D02*
X107321689Y-80982161D01*
X107321689Y-80982161D02*
X107821689Y-79853590D01*
X107821689Y-79853590D02*
X108321689Y-80982161D01*
X108321689Y-80982161D02*
X108321689Y-79402161D01*
X109678833Y-80455495D02*
X109678833Y-79402161D01*
X109321690Y-81057400D02*
X108964547Y-79928828D01*
X108964547Y-79928828D02*
X109893118Y-79928828D01*
X110107404Y-79251685D02*
X111250261Y-79251685D01*
X111607403Y-79402161D02*
X111607403Y-80982161D01*
X111607403Y-80982161D02*
X111964546Y-80982161D01*
X111964546Y-80982161D02*
X112178832Y-80906923D01*
X112178832Y-80906923D02*
X112321689Y-80756447D01*
X112321689Y-80756447D02*
X112393118Y-80605971D01*
X112393118Y-80605971D02*
X112464546Y-80305019D01*
X112464546Y-80305019D02*
X112464546Y-80079304D01*
X112464546Y-80079304D02*
X112393118Y-79778352D01*
X112393118Y-79778352D02*
X112321689Y-79627876D01*
X112321689Y-79627876D02*
X112178832Y-79477400D01*
X112178832Y-79477400D02*
X111964546Y-79402161D01*
X111964546Y-79402161D02*
X111607403Y-79402161D01*
X113035975Y-80831685D02*
X113107403Y-80906923D01*
X113107403Y-80906923D02*
X113250261Y-80982161D01*
X113250261Y-80982161D02*
X113607403Y-80982161D01*
X113607403Y-80982161D02*
X113750261Y-80906923D01*
X113750261Y-80906923D02*
X113821689Y-80831685D01*
X113821689Y-80831685D02*
X113893118Y-80681209D01*
X113893118Y-80681209D02*
X113893118Y-80530733D01*
X113893118Y-80530733D02*
X113821689Y-80305019D01*
X113821689Y-80305019D02*
X112964546Y-79402161D01*
X112964546Y-79402161D02*
X113893118Y-79402161D01*
X104107403Y-76858361D02*
X104107403Y-78438361D01*
X104107403Y-78438361D02*
X104678832Y-78438361D01*
X104678832Y-78438361D02*
X104821689Y-78363123D01*
X104821689Y-78363123D02*
X104893118Y-78287885D01*
X104893118Y-78287885D02*
X104964546Y-78137409D01*
X104964546Y-78137409D02*
X104964546Y-77911695D01*
X104964546Y-77911695D02*
X104893118Y-77761219D01*
X104893118Y-77761219D02*
X104821689Y-77685980D01*
X104821689Y-77685980D02*
X104678832Y-77610742D01*
X104678832Y-77610742D02*
X104107403Y-77610742D01*
X105464546Y-78438361D02*
X105821689Y-76858361D01*
X105821689Y-76858361D02*
X106107403Y-77986933D01*
X106107403Y-77986933D02*
X106393118Y-76858361D01*
X106393118Y-76858361D02*
X106750261Y-78438361D01*
X107321689Y-76858361D02*
X107321689Y-78438361D01*
X107321689Y-78438361D02*
X107821689Y-77309790D01*
X107821689Y-77309790D02*
X108321689Y-78438361D01*
X108321689Y-78438361D02*
X108321689Y-76858361D01*
X109750261Y-78438361D02*
X109035975Y-78438361D01*
X109035975Y-78438361D02*
X108964547Y-77685980D01*
X108964547Y-77685980D02*
X109035975Y-77761219D01*
X109035975Y-77761219D02*
X109178833Y-77836457D01*
X109178833Y-77836457D02*
X109535975Y-77836457D01*
X109535975Y-77836457D02*
X109678833Y-77761219D01*
X109678833Y-77761219D02*
X109750261Y-77685980D01*
X109750261Y-77685980D02*
X109821690Y-77535504D01*
X109821690Y-77535504D02*
X109821690Y-77159314D01*
X109821690Y-77159314D02*
X109750261Y-77008838D01*
X109750261Y-77008838D02*
X109678833Y-76933600D01*
X109678833Y-76933600D02*
X109535975Y-76858361D01*
X109535975Y-76858361D02*
X109178833Y-76858361D01*
X109178833Y-76858361D02*
X109035975Y-76933600D01*
X109035975Y-76933600D02*
X108964547Y-77008838D01*
X110107404Y-76707885D02*
X111250261Y-76707885D01*
X111607403Y-76858361D02*
X111607403Y-78438361D01*
X111607403Y-78438361D02*
X111964546Y-78438361D01*
X111964546Y-78438361D02*
X112178832Y-78363123D01*
X112178832Y-78363123D02*
X112321689Y-78212647D01*
X112321689Y-78212647D02*
X112393118Y-78062171D01*
X112393118Y-78062171D02*
X112464546Y-77761219D01*
X112464546Y-77761219D02*
X112464546Y-77535504D01*
X112464546Y-77535504D02*
X112393118Y-77234552D01*
X112393118Y-77234552D02*
X112321689Y-77084076D01*
X112321689Y-77084076D02*
X112178832Y-76933600D01*
X112178832Y-76933600D02*
X111964546Y-76858361D01*
X111964546Y-76858361D02*
X111607403Y-76858361D01*
X113893118Y-76858361D02*
X113035975Y-76858361D01*
X113464546Y-76858361D02*
X113464546Y-78438361D01*
X113464546Y-78438361D02*
X113321689Y-78212647D01*
X113321689Y-78212647D02*
X113178832Y-78062171D01*
X113178832Y-78062171D02*
X113035975Y-77986933D01*
X104107403Y-74314561D02*
X104107403Y-75894561D01*
X104107403Y-75894561D02*
X104678832Y-75894561D01*
X104678832Y-75894561D02*
X104821689Y-75819323D01*
X104821689Y-75819323D02*
X104893118Y-75744085D01*
X104893118Y-75744085D02*
X104964546Y-75593609D01*
X104964546Y-75593609D02*
X104964546Y-75367895D01*
X104964546Y-75367895D02*
X104893118Y-75217419D01*
X104893118Y-75217419D02*
X104821689Y-75142180D01*
X104821689Y-75142180D02*
X104678832Y-75066942D01*
X104678832Y-75066942D02*
X104107403Y-75066942D01*
X105464546Y-75894561D02*
X105821689Y-74314561D01*
X105821689Y-74314561D02*
X106107403Y-75443133D01*
X106107403Y-75443133D02*
X106393118Y-74314561D01*
X106393118Y-74314561D02*
X106750261Y-75894561D01*
X107321689Y-74314561D02*
X107321689Y-75894561D01*
X107321689Y-75894561D02*
X107821689Y-74765990D01*
X107821689Y-74765990D02*
X108321689Y-75894561D01*
X108321689Y-75894561D02*
X108321689Y-74314561D01*
X109678833Y-75894561D02*
X109393118Y-75894561D01*
X109393118Y-75894561D02*
X109250261Y-75819323D01*
X109250261Y-75819323D02*
X109178833Y-75744085D01*
X109178833Y-75744085D02*
X109035975Y-75518371D01*
X109035975Y-75518371D02*
X108964547Y-75217419D01*
X108964547Y-75217419D02*
X108964547Y-74615514D01*
X108964547Y-74615514D02*
X109035975Y-74465038D01*
X109035975Y-74465038D02*
X109107404Y-74389800D01*
X109107404Y-74389800D02*
X109250261Y-74314561D01*
X109250261Y-74314561D02*
X109535975Y-74314561D01*
X109535975Y-74314561D02*
X109678833Y-74389800D01*
X109678833Y-74389800D02*
X109750261Y-74465038D01*
X109750261Y-74465038D02*
X109821690Y-74615514D01*
X109821690Y-74615514D02*
X109821690Y-74991704D01*
X109821690Y-74991704D02*
X109750261Y-75142180D01*
X109750261Y-75142180D02*
X109678833Y-75217419D01*
X109678833Y-75217419D02*
X109535975Y-75292657D01*
X109535975Y-75292657D02*
X109250261Y-75292657D01*
X109250261Y-75292657D02*
X109107404Y-75217419D01*
X109107404Y-75217419D02*
X109035975Y-75142180D01*
X109035975Y-75142180D02*
X108964547Y-74991704D01*
X110107404Y-74164085D02*
X111250261Y-74164085D01*
X111607403Y-74314561D02*
X111607403Y-75894561D01*
X111607403Y-75894561D02*
X111964546Y-75894561D01*
X111964546Y-75894561D02*
X112178832Y-75819323D01*
X112178832Y-75819323D02*
X112321689Y-75668847D01*
X112321689Y-75668847D02*
X112393118Y-75518371D01*
X112393118Y-75518371D02*
X112464546Y-75217419D01*
X112464546Y-75217419D02*
X112464546Y-74991704D01*
X112464546Y-74991704D02*
X112393118Y-74690752D01*
X112393118Y-74690752D02*
X112321689Y-74540276D01*
X112321689Y-74540276D02*
X112178832Y-74389800D01*
X112178832Y-74389800D02*
X111964546Y-74314561D01*
X111964546Y-74314561D02*
X111607403Y-74314561D01*
X113393118Y-75894561D02*
X113535975Y-75894561D01*
X113535975Y-75894561D02*
X113678832Y-75819323D01*
X113678832Y-75819323D02*
X113750261Y-75744085D01*
X113750261Y-75744085D02*
X113821689Y-75593609D01*
X113821689Y-75593609D02*
X113893118Y-75292657D01*
X113893118Y-75292657D02*
X113893118Y-74916466D01*
X113893118Y-74916466D02*
X113821689Y-74615514D01*
X113821689Y-74615514D02*
X113750261Y-74465038D01*
X113750261Y-74465038D02*
X113678832Y-74389800D01*
X113678832Y-74389800D02*
X113535975Y-74314561D01*
X113535975Y-74314561D02*
X113393118Y-74314561D01*
X113393118Y-74314561D02*
X113250261Y-74389800D01*
X113250261Y-74389800D02*
X113178832Y-74465038D01*
X113178832Y-74465038D02*
X113107403Y-74615514D01*
X113107403Y-74615514D02*
X113035975Y-74916466D01*
X113035975Y-74916466D02*
X113035975Y-75292657D01*
X113035975Y-75292657D02*
X113107403Y-75593609D01*
X113107403Y-75593609D02*
X113178832Y-75744085D01*
X113178832Y-75744085D02*
X113250261Y-75819323D01*
X113250261Y-75819323D02*
X113393118Y-75894561D01*
X102964546Y-71770761D02*
X102964546Y-73350761D01*
X102964546Y-73350761D02*
X103535975Y-73350761D01*
X103535975Y-73350761D02*
X103678832Y-73275523D01*
X103678832Y-73275523D02*
X103750261Y-73200285D01*
X103750261Y-73200285D02*
X103821689Y-73049809D01*
X103821689Y-73049809D02*
X103821689Y-72824095D01*
X103821689Y-72824095D02*
X103750261Y-72673619D01*
X103750261Y-72673619D02*
X103678832Y-72598380D01*
X103678832Y-72598380D02*
X103535975Y-72523142D01*
X103535975Y-72523142D02*
X102964546Y-72523142D01*
X104321689Y-73350761D02*
X104678832Y-71770761D01*
X104678832Y-71770761D02*
X104964546Y-72899333D01*
X104964546Y-72899333D02*
X105250261Y-71770761D01*
X105250261Y-71770761D02*
X105607404Y-73350761D01*
X106178832Y-71770761D02*
X106178832Y-73350761D01*
X106178832Y-73350761D02*
X106678832Y-72222190D01*
X106678832Y-72222190D02*
X107178832Y-73350761D01*
X107178832Y-73350761D02*
X107178832Y-71770761D01*
X107750261Y-73350761D02*
X108750261Y-73350761D01*
X108750261Y-73350761D02*
X108107404Y-71770761D01*
X108964547Y-71620285D02*
X110107404Y-71620285D01*
X110464546Y-71770761D02*
X110464546Y-73350761D01*
X110464546Y-73350761D02*
X111035975Y-73350761D01*
X111035975Y-73350761D02*
X111178832Y-73275523D01*
X111178832Y-73275523D02*
X111250261Y-73200285D01*
X111250261Y-73200285D02*
X111321689Y-73049809D01*
X111321689Y-73049809D02*
X111321689Y-72824095D01*
X111321689Y-72824095D02*
X111250261Y-72673619D01*
X111250261Y-72673619D02*
X111178832Y-72598380D01*
X111178832Y-72598380D02*
X111035975Y-72523142D01*
X111035975Y-72523142D02*
X110464546Y-72523142D01*
X112393118Y-73350761D02*
X112393118Y-72222190D01*
X112393118Y-72222190D02*
X112321689Y-71996476D01*
X112321689Y-71996476D02*
X112178832Y-71846000D01*
X112178832Y-71846000D02*
X111964546Y-71770761D01*
X111964546Y-71770761D02*
X111821689Y-71770761D01*
X112964546Y-73350761D02*
X113964546Y-73350761D01*
X113964546Y-73350761D02*
X113321689Y-71770761D01*
X101535975Y-69226961D02*
X101535975Y-70806961D01*
X101535975Y-70806961D02*
X102107404Y-70806961D01*
X102107404Y-70806961D02*
X102250261Y-70731723D01*
X102250261Y-70731723D02*
X102321690Y-70656485D01*
X102321690Y-70656485D02*
X102393118Y-70506009D01*
X102393118Y-70506009D02*
X102393118Y-70280295D01*
X102393118Y-70280295D02*
X102321690Y-70129819D01*
X102321690Y-70129819D02*
X102250261Y-70054580D01*
X102250261Y-70054580D02*
X102107404Y-69979342D01*
X102107404Y-69979342D02*
X101535975Y-69979342D01*
X102893118Y-70806961D02*
X103250261Y-69226961D01*
X103250261Y-69226961D02*
X103535975Y-70355533D01*
X103535975Y-70355533D02*
X103821690Y-69226961D01*
X103821690Y-69226961D02*
X104178833Y-70806961D01*
X104750261Y-69226961D02*
X104750261Y-70806961D01*
X104750261Y-70806961D02*
X105250261Y-69678390D01*
X105250261Y-69678390D02*
X105750261Y-70806961D01*
X105750261Y-70806961D02*
X105750261Y-69226961D01*
X106678833Y-70129819D02*
X106535976Y-70205057D01*
X106535976Y-70205057D02*
X106464547Y-70280295D01*
X106464547Y-70280295D02*
X106393119Y-70430771D01*
X106393119Y-70430771D02*
X106393119Y-70506009D01*
X106393119Y-70506009D02*
X106464547Y-70656485D01*
X106464547Y-70656485D02*
X106535976Y-70731723D01*
X106535976Y-70731723D02*
X106678833Y-70806961D01*
X106678833Y-70806961D02*
X106964547Y-70806961D01*
X106964547Y-70806961D02*
X107107405Y-70731723D01*
X107107405Y-70731723D02*
X107178833Y-70656485D01*
X107178833Y-70656485D02*
X107250262Y-70506009D01*
X107250262Y-70506009D02*
X107250262Y-70430771D01*
X107250262Y-70430771D02*
X107178833Y-70280295D01*
X107178833Y-70280295D02*
X107107405Y-70205057D01*
X107107405Y-70205057D02*
X106964547Y-70129819D01*
X106964547Y-70129819D02*
X106678833Y-70129819D01*
X106678833Y-70129819D02*
X106535976Y-70054580D01*
X106535976Y-70054580D02*
X106464547Y-69979342D01*
X106464547Y-69979342D02*
X106393119Y-69828866D01*
X106393119Y-69828866D02*
X106393119Y-69527914D01*
X106393119Y-69527914D02*
X106464547Y-69377438D01*
X106464547Y-69377438D02*
X106535976Y-69302200D01*
X106535976Y-69302200D02*
X106678833Y-69226961D01*
X106678833Y-69226961D02*
X106964547Y-69226961D01*
X106964547Y-69226961D02*
X107107405Y-69302200D01*
X107107405Y-69302200D02*
X107178833Y-69377438D01*
X107178833Y-69377438D02*
X107250262Y-69527914D01*
X107250262Y-69527914D02*
X107250262Y-69828866D01*
X107250262Y-69828866D02*
X107178833Y-69979342D01*
X107178833Y-69979342D02*
X107107405Y-70054580D01*
X107107405Y-70054580D02*
X106964547Y-70129819D01*
X107535976Y-69076485D02*
X108678833Y-69076485D01*
X109035975Y-69226961D02*
X109035975Y-70806961D01*
X109035975Y-70806961D02*
X109607404Y-70806961D01*
X109607404Y-70806961D02*
X109750261Y-70731723D01*
X109750261Y-70731723D02*
X109821690Y-70656485D01*
X109821690Y-70656485D02*
X109893118Y-70506009D01*
X109893118Y-70506009D02*
X109893118Y-70280295D01*
X109893118Y-70280295D02*
X109821690Y-70129819D01*
X109821690Y-70129819D02*
X109750261Y-70054580D01*
X109750261Y-70054580D02*
X109607404Y-69979342D01*
X109607404Y-69979342D02*
X109035975Y-69979342D01*
X110964547Y-70806961D02*
X110964547Y-69678390D01*
X110964547Y-69678390D02*
X110893118Y-69452676D01*
X110893118Y-69452676D02*
X110750261Y-69302200D01*
X110750261Y-69302200D02*
X110535975Y-69226961D01*
X110535975Y-69226961D02*
X110393118Y-69226961D01*
X112464547Y-69226961D02*
X111607404Y-69226961D01*
X112035975Y-69226961D02*
X112035975Y-70806961D01*
X112035975Y-70806961D02*
X111893118Y-70581247D01*
X111893118Y-70581247D02*
X111750261Y-70430771D01*
X111750261Y-70430771D02*
X111607404Y-70355533D01*
X113393118Y-70806961D02*
X113535975Y-70806961D01*
X113535975Y-70806961D02*
X113678832Y-70731723D01*
X113678832Y-70731723D02*
X113750261Y-70656485D01*
X113750261Y-70656485D02*
X113821689Y-70506009D01*
X113821689Y-70506009D02*
X113893118Y-70205057D01*
X113893118Y-70205057D02*
X113893118Y-69828866D01*
X113893118Y-69828866D02*
X113821689Y-69527914D01*
X113821689Y-69527914D02*
X113750261Y-69377438D01*
X113750261Y-69377438D02*
X113678832Y-69302200D01*
X113678832Y-69302200D02*
X113535975Y-69226961D01*
X113535975Y-69226961D02*
X113393118Y-69226961D01*
X113393118Y-69226961D02*
X113250261Y-69302200D01*
X113250261Y-69302200D02*
X113178832Y-69377438D01*
X113178832Y-69377438D02*
X113107403Y-69527914D01*
X113107403Y-69527914D02*
X113035975Y-69828866D01*
X113035975Y-69828866D02*
X113035975Y-70205057D01*
X113035975Y-70205057D02*
X113107403Y-70506009D01*
X113107403Y-70506009D02*
X113178832Y-70656485D01*
X113178832Y-70656485D02*
X113250261Y-70731723D01*
X113250261Y-70731723D02*
X113393118Y-70806961D01*
X102535974Y-66683161D02*
X102535974Y-68263161D01*
X102535974Y-68263161D02*
X103107403Y-68263161D01*
X103107403Y-68263161D02*
X103250260Y-68187923D01*
X103250260Y-68187923D02*
X103321689Y-68112685D01*
X103321689Y-68112685D02*
X103393117Y-67962209D01*
X103393117Y-67962209D02*
X103393117Y-67736495D01*
X103393117Y-67736495D02*
X103321689Y-67586019D01*
X103321689Y-67586019D02*
X103250260Y-67510780D01*
X103250260Y-67510780D02*
X103107403Y-67435542D01*
X103107403Y-67435542D02*
X102535974Y-67435542D01*
X103893117Y-68263161D02*
X104250260Y-66683161D01*
X104250260Y-66683161D02*
X104535974Y-67811733D01*
X104535974Y-67811733D02*
X104821689Y-66683161D01*
X104821689Y-66683161D02*
X105178832Y-68263161D01*
X105750260Y-66683161D02*
X105750260Y-68263161D01*
X105750260Y-68263161D02*
X106250260Y-67134590D01*
X106250260Y-67134590D02*
X106750260Y-68263161D01*
X106750260Y-68263161D02*
X106750260Y-66683161D01*
X107535975Y-66683161D02*
X107821689Y-66683161D01*
X107821689Y-66683161D02*
X107964546Y-66758400D01*
X107964546Y-66758400D02*
X108035975Y-66833638D01*
X108035975Y-66833638D02*
X108178832Y-67059352D01*
X108178832Y-67059352D02*
X108250261Y-67360304D01*
X108250261Y-67360304D02*
X108250261Y-67962209D01*
X108250261Y-67962209D02*
X108178832Y-68112685D01*
X108178832Y-68112685D02*
X108107404Y-68187923D01*
X108107404Y-68187923D02*
X107964546Y-68263161D01*
X107964546Y-68263161D02*
X107678832Y-68263161D01*
X107678832Y-68263161D02*
X107535975Y-68187923D01*
X107535975Y-68187923D02*
X107464546Y-68112685D01*
X107464546Y-68112685D02*
X107393118Y-67962209D01*
X107393118Y-67962209D02*
X107393118Y-67586019D01*
X107393118Y-67586019D02*
X107464546Y-67435542D01*
X107464546Y-67435542D02*
X107535975Y-67360304D01*
X107535975Y-67360304D02*
X107678832Y-67285066D01*
X107678832Y-67285066D02*
X107964546Y-67285066D01*
X107964546Y-67285066D02*
X108107404Y-67360304D01*
X108107404Y-67360304D02*
X108178832Y-67435542D01*
X108178832Y-67435542D02*
X108250261Y-67586019D01*
X108535975Y-66532685D02*
X109678832Y-66532685D01*
X110035974Y-66683161D02*
X110035974Y-68263161D01*
X110035974Y-68263161D02*
X110607403Y-68263161D01*
X110607403Y-68263161D02*
X110750260Y-68187923D01*
X110750260Y-68187923D02*
X110821689Y-68112685D01*
X110821689Y-68112685D02*
X110893117Y-67962209D01*
X110893117Y-67962209D02*
X110893117Y-67736495D01*
X110893117Y-67736495D02*
X110821689Y-67586019D01*
X110821689Y-67586019D02*
X110750260Y-67510780D01*
X110750260Y-67510780D02*
X110607403Y-67435542D01*
X110607403Y-67435542D02*
X110035974Y-67435542D01*
X111535974Y-66683161D02*
X111535974Y-68263161D01*
X111535974Y-67510780D02*
X112393117Y-67510780D01*
X112393117Y-66683161D02*
X112393117Y-68263161D01*
X113750261Y-68263161D02*
X113464546Y-68263161D01*
X113464546Y-68263161D02*
X113321689Y-68187923D01*
X113321689Y-68187923D02*
X113250261Y-68112685D01*
X113250261Y-68112685D02*
X113107403Y-67886971D01*
X113107403Y-67886971D02*
X113035975Y-67586019D01*
X113035975Y-67586019D02*
X113035975Y-66984114D01*
X113035975Y-66984114D02*
X113107403Y-66833638D01*
X113107403Y-66833638D02*
X113178832Y-66758400D01*
X113178832Y-66758400D02*
X113321689Y-66683161D01*
X113321689Y-66683161D02*
X113607403Y-66683161D01*
X113607403Y-66683161D02*
X113750261Y-66758400D01*
X113750261Y-66758400D02*
X113821689Y-66833638D01*
X113821689Y-66833638D02*
X113893118Y-66984114D01*
X113893118Y-66984114D02*
X113893118Y-67360304D01*
X113893118Y-67360304D02*
X113821689Y-67510780D01*
X113821689Y-67510780D02*
X113750261Y-67586019D01*
X113750261Y-67586019D02*
X113607403Y-67661257D01*
X113607403Y-67661257D02*
X113321689Y-67661257D01*
X113321689Y-67661257D02*
X113178832Y-67586019D01*
X113178832Y-67586019D02*
X113107403Y-67510780D01*
X113107403Y-67510780D02*
X113035975Y-67360304D01*
X101607404Y-65644123D02*
X101464547Y-65719361D01*
X101464547Y-65719361D02*
X101250261Y-65719361D01*
X101250261Y-65719361D02*
X101035975Y-65644123D01*
X101035975Y-65644123D02*
X100893118Y-65493647D01*
X100893118Y-65493647D02*
X100821689Y-65343171D01*
X100821689Y-65343171D02*
X100750261Y-65042219D01*
X100750261Y-65042219D02*
X100750261Y-64816504D01*
X100750261Y-64816504D02*
X100821689Y-64515552D01*
X100821689Y-64515552D02*
X100893118Y-64365076D01*
X100893118Y-64365076D02*
X101035975Y-64214600D01*
X101035975Y-64214600D02*
X101250261Y-64139361D01*
X101250261Y-64139361D02*
X101393118Y-64139361D01*
X101393118Y-64139361D02*
X101607404Y-64214600D01*
X101607404Y-64214600D02*
X101678832Y-64289838D01*
X101678832Y-64289838D02*
X101678832Y-64816504D01*
X101678832Y-64816504D02*
X101393118Y-64816504D01*
X102321689Y-64139361D02*
X102321689Y-65719361D01*
X102321689Y-65719361D02*
X102893118Y-65719361D01*
X102893118Y-65719361D02*
X103035975Y-65644123D01*
X103035975Y-65644123D02*
X103107404Y-65568885D01*
X103107404Y-65568885D02*
X103178832Y-65418409D01*
X103178832Y-65418409D02*
X103178832Y-65192695D01*
X103178832Y-65192695D02*
X103107404Y-65042219D01*
X103107404Y-65042219D02*
X103035975Y-64966980D01*
X103035975Y-64966980D02*
X102893118Y-64891742D01*
X102893118Y-64891742D02*
X102321689Y-64891742D01*
X103821689Y-64139361D02*
X103821689Y-65719361D01*
X104821690Y-65719361D02*
X105107404Y-65719361D01*
X105107404Y-65719361D02*
X105250261Y-65644123D01*
X105250261Y-65644123D02*
X105393118Y-65493647D01*
X105393118Y-65493647D02*
X105464547Y-65192695D01*
X105464547Y-65192695D02*
X105464547Y-64666028D01*
X105464547Y-64666028D02*
X105393118Y-64365076D01*
X105393118Y-64365076D02*
X105250261Y-64214600D01*
X105250261Y-64214600D02*
X105107404Y-64139361D01*
X105107404Y-64139361D02*
X104821690Y-64139361D01*
X104821690Y-64139361D02*
X104678833Y-64214600D01*
X104678833Y-64214600D02*
X104535975Y-64365076D01*
X104535975Y-64365076D02*
X104464547Y-64666028D01*
X104464547Y-64666028D02*
X104464547Y-65192695D01*
X104464547Y-65192695D02*
X104535975Y-65493647D01*
X104535975Y-65493647D02*
X104678833Y-65644123D01*
X104678833Y-65644123D02*
X104821690Y-65719361D01*
X106393119Y-65719361D02*
X106535976Y-65719361D01*
X106535976Y-65719361D02*
X106678833Y-65644123D01*
X106678833Y-65644123D02*
X106750262Y-65568885D01*
X106750262Y-65568885D02*
X106821690Y-65418409D01*
X106821690Y-65418409D02*
X106893119Y-65117457D01*
X106893119Y-65117457D02*
X106893119Y-64741266D01*
X106893119Y-64741266D02*
X106821690Y-64440314D01*
X106821690Y-64440314D02*
X106750262Y-64289838D01*
X106750262Y-64289838D02*
X106678833Y-64214600D01*
X106678833Y-64214600D02*
X106535976Y-64139361D01*
X106535976Y-64139361D02*
X106393119Y-64139361D01*
X106393119Y-64139361D02*
X106250262Y-64214600D01*
X106250262Y-64214600D02*
X106178833Y-64289838D01*
X106178833Y-64289838D02*
X106107404Y-64440314D01*
X106107404Y-64440314D02*
X106035976Y-64741266D01*
X106035976Y-64741266D02*
X106035976Y-65117457D01*
X106035976Y-65117457D02*
X106107404Y-65418409D01*
X106107404Y-65418409D02*
X106178833Y-65568885D01*
X106178833Y-65568885D02*
X106250262Y-65644123D01*
X106250262Y-65644123D02*
X106393119Y-65719361D01*
X107178833Y-63988885D02*
X108321690Y-63988885D01*
X108678832Y-64139361D02*
X108678832Y-65719361D01*
X108678832Y-65719361D02*
X109250261Y-65719361D01*
X109250261Y-65719361D02*
X109393118Y-65644123D01*
X109393118Y-65644123D02*
X109464547Y-65568885D01*
X109464547Y-65568885D02*
X109535975Y-65418409D01*
X109535975Y-65418409D02*
X109535975Y-65192695D01*
X109535975Y-65192695D02*
X109464547Y-65042219D01*
X109464547Y-65042219D02*
X109393118Y-64966980D01*
X109393118Y-64966980D02*
X109250261Y-64891742D01*
X109250261Y-64891742D02*
X108678832Y-64891742D01*
X111035975Y-64289838D02*
X110964547Y-64214600D01*
X110964547Y-64214600D02*
X110750261Y-64139361D01*
X110750261Y-64139361D02*
X110607404Y-64139361D01*
X110607404Y-64139361D02*
X110393118Y-64214600D01*
X110393118Y-64214600D02*
X110250261Y-64365076D01*
X110250261Y-64365076D02*
X110178832Y-64515552D01*
X110178832Y-64515552D02*
X110107404Y-64816504D01*
X110107404Y-64816504D02*
X110107404Y-65042219D01*
X110107404Y-65042219D02*
X110178832Y-65343171D01*
X110178832Y-65343171D02*
X110250261Y-65493647D01*
X110250261Y-65493647D02*
X110393118Y-65644123D01*
X110393118Y-65644123D02*
X110607404Y-65719361D01*
X110607404Y-65719361D02*
X110750261Y-65719361D01*
X110750261Y-65719361D02*
X110964547Y-65644123D01*
X110964547Y-65644123D02*
X111035975Y-65568885D01*
X112464547Y-64139361D02*
X111607404Y-64139361D01*
X112035975Y-64139361D02*
X112035975Y-65719361D01*
X112035975Y-65719361D02*
X111893118Y-65493647D01*
X111893118Y-65493647D02*
X111750261Y-65343171D01*
X111750261Y-65343171D02*
X111607404Y-65267933D01*
X112964546Y-65719361D02*
X113893118Y-65719361D01*
X113893118Y-65719361D02*
X113393118Y-65117457D01*
X113393118Y-65117457D02*
X113607403Y-65117457D01*
X113607403Y-65117457D02*
X113750261Y-65042219D01*
X113750261Y-65042219D02*
X113821689Y-64966980D01*
X113821689Y-64966980D02*
X113893118Y-64816504D01*
X113893118Y-64816504D02*
X113893118Y-64440314D01*
X113893118Y-64440314D02*
X113821689Y-64289838D01*
X113821689Y-64289838D02*
X113750261Y-64214600D01*
X113750261Y-64214600D02*
X113607403Y-64139361D01*
X113607403Y-64139361D02*
X113178832Y-64139361D01*
X113178832Y-64139361D02*
X113035975Y-64214600D01*
X113035975Y-64214600D02*
X112964546Y-64289838D01*
X101607404Y-63100323D02*
X101464547Y-63175561D01*
X101464547Y-63175561D02*
X101250261Y-63175561D01*
X101250261Y-63175561D02*
X101035975Y-63100323D01*
X101035975Y-63100323D02*
X100893118Y-62949847D01*
X100893118Y-62949847D02*
X100821689Y-62799371D01*
X100821689Y-62799371D02*
X100750261Y-62498419D01*
X100750261Y-62498419D02*
X100750261Y-62272704D01*
X100750261Y-62272704D02*
X100821689Y-61971752D01*
X100821689Y-61971752D02*
X100893118Y-61821276D01*
X100893118Y-61821276D02*
X101035975Y-61670800D01*
X101035975Y-61670800D02*
X101250261Y-61595561D01*
X101250261Y-61595561D02*
X101393118Y-61595561D01*
X101393118Y-61595561D02*
X101607404Y-61670800D01*
X101607404Y-61670800D02*
X101678832Y-61746038D01*
X101678832Y-61746038D02*
X101678832Y-62272704D01*
X101678832Y-62272704D02*
X101393118Y-62272704D01*
X102321689Y-61595561D02*
X102321689Y-63175561D01*
X102321689Y-63175561D02*
X102893118Y-63175561D01*
X102893118Y-63175561D02*
X103035975Y-63100323D01*
X103035975Y-63100323D02*
X103107404Y-63025085D01*
X103107404Y-63025085D02*
X103178832Y-62874609D01*
X103178832Y-62874609D02*
X103178832Y-62648895D01*
X103178832Y-62648895D02*
X103107404Y-62498419D01*
X103107404Y-62498419D02*
X103035975Y-62423180D01*
X103035975Y-62423180D02*
X102893118Y-62347942D01*
X102893118Y-62347942D02*
X102321689Y-62347942D01*
X103821689Y-61595561D02*
X103821689Y-63175561D01*
X104821690Y-63175561D02*
X105107404Y-63175561D01*
X105107404Y-63175561D02*
X105250261Y-63100323D01*
X105250261Y-63100323D02*
X105393118Y-62949847D01*
X105393118Y-62949847D02*
X105464547Y-62648895D01*
X105464547Y-62648895D02*
X105464547Y-62122228D01*
X105464547Y-62122228D02*
X105393118Y-61821276D01*
X105393118Y-61821276D02*
X105250261Y-61670800D01*
X105250261Y-61670800D02*
X105107404Y-61595561D01*
X105107404Y-61595561D02*
X104821690Y-61595561D01*
X104821690Y-61595561D02*
X104678833Y-61670800D01*
X104678833Y-61670800D02*
X104535975Y-61821276D01*
X104535975Y-61821276D02*
X104464547Y-62122228D01*
X104464547Y-62122228D02*
X104464547Y-62648895D01*
X104464547Y-62648895D02*
X104535975Y-62949847D01*
X104535975Y-62949847D02*
X104678833Y-63100323D01*
X104678833Y-63100323D02*
X104821690Y-63175561D01*
X106893119Y-61595561D02*
X106035976Y-61595561D01*
X106464547Y-61595561D02*
X106464547Y-63175561D01*
X106464547Y-63175561D02*
X106321690Y-62949847D01*
X106321690Y-62949847D02*
X106178833Y-62799371D01*
X106178833Y-62799371D02*
X106035976Y-62724133D01*
X107178833Y-61445085D02*
X108321690Y-61445085D01*
X108678832Y-61595561D02*
X108678832Y-63175561D01*
X108678832Y-63175561D02*
X109250261Y-63175561D01*
X109250261Y-63175561D02*
X109393118Y-63100323D01*
X109393118Y-63100323D02*
X109464547Y-63025085D01*
X109464547Y-63025085D02*
X109535975Y-62874609D01*
X109535975Y-62874609D02*
X109535975Y-62648895D01*
X109535975Y-62648895D02*
X109464547Y-62498419D01*
X109464547Y-62498419D02*
X109393118Y-62423180D01*
X109393118Y-62423180D02*
X109250261Y-62347942D01*
X109250261Y-62347942D02*
X108678832Y-62347942D01*
X111035975Y-61746038D02*
X110964547Y-61670800D01*
X110964547Y-61670800D02*
X110750261Y-61595561D01*
X110750261Y-61595561D02*
X110607404Y-61595561D01*
X110607404Y-61595561D02*
X110393118Y-61670800D01*
X110393118Y-61670800D02*
X110250261Y-61821276D01*
X110250261Y-61821276D02*
X110178832Y-61971752D01*
X110178832Y-61971752D02*
X110107404Y-62272704D01*
X110107404Y-62272704D02*
X110107404Y-62498419D01*
X110107404Y-62498419D02*
X110178832Y-62799371D01*
X110178832Y-62799371D02*
X110250261Y-62949847D01*
X110250261Y-62949847D02*
X110393118Y-63100323D01*
X110393118Y-63100323D02*
X110607404Y-63175561D01*
X110607404Y-63175561D02*
X110750261Y-63175561D01*
X110750261Y-63175561D02*
X110964547Y-63100323D01*
X110964547Y-63100323D02*
X111035975Y-63025085D01*
X112464547Y-61595561D02*
X111607404Y-61595561D01*
X112035975Y-61595561D02*
X112035975Y-63175561D01*
X112035975Y-63175561D02*
X111893118Y-62949847D01*
X111893118Y-62949847D02*
X111750261Y-62799371D01*
X111750261Y-62799371D02*
X111607404Y-62724133D01*
X113821689Y-63175561D02*
X113107403Y-63175561D01*
X113107403Y-63175561D02*
X113035975Y-62423180D01*
X113035975Y-62423180D02*
X113107403Y-62498419D01*
X113107403Y-62498419D02*
X113250261Y-62573657D01*
X113250261Y-62573657D02*
X113607403Y-62573657D01*
X113607403Y-62573657D02*
X113750261Y-62498419D01*
X113750261Y-62498419D02*
X113821689Y-62423180D01*
X113821689Y-62423180D02*
X113893118Y-62272704D01*
X113893118Y-62272704D02*
X113893118Y-61896514D01*
X113893118Y-61896514D02*
X113821689Y-61746038D01*
X113821689Y-61746038D02*
X113750261Y-61670800D01*
X113750261Y-61670800D02*
X113607403Y-61595561D01*
X113607403Y-61595561D02*
X113250261Y-61595561D01*
X113250261Y-61595561D02*
X113107403Y-61670800D01*
X113107403Y-61670800D02*
X113035975Y-61746038D01*
X103035975Y-60556523D02*
X102893118Y-60631761D01*
X102893118Y-60631761D02*
X102678832Y-60631761D01*
X102678832Y-60631761D02*
X102464546Y-60556523D01*
X102464546Y-60556523D02*
X102321689Y-60406047D01*
X102321689Y-60406047D02*
X102250260Y-60255571D01*
X102250260Y-60255571D02*
X102178832Y-59954619D01*
X102178832Y-59954619D02*
X102178832Y-59728904D01*
X102178832Y-59728904D02*
X102250260Y-59427952D01*
X102250260Y-59427952D02*
X102321689Y-59277476D01*
X102321689Y-59277476D02*
X102464546Y-59127000D01*
X102464546Y-59127000D02*
X102678832Y-59051761D01*
X102678832Y-59051761D02*
X102821689Y-59051761D01*
X102821689Y-59051761D02*
X103035975Y-59127000D01*
X103035975Y-59127000D02*
X103107403Y-59202238D01*
X103107403Y-59202238D02*
X103107403Y-59728904D01*
X103107403Y-59728904D02*
X102821689Y-59728904D01*
X103750260Y-59051761D02*
X103750260Y-60631761D01*
X103750260Y-60631761D02*
X104321689Y-60631761D01*
X104321689Y-60631761D02*
X104464546Y-60556523D01*
X104464546Y-60556523D02*
X104535975Y-60481285D01*
X104535975Y-60481285D02*
X104607403Y-60330809D01*
X104607403Y-60330809D02*
X104607403Y-60105095D01*
X104607403Y-60105095D02*
X104535975Y-59954619D01*
X104535975Y-59954619D02*
X104464546Y-59879380D01*
X104464546Y-59879380D02*
X104321689Y-59804142D01*
X104321689Y-59804142D02*
X103750260Y-59804142D01*
X105250260Y-59051761D02*
X105250260Y-60631761D01*
X106250261Y-60631761D02*
X106535975Y-60631761D01*
X106535975Y-60631761D02*
X106678832Y-60556523D01*
X106678832Y-60556523D02*
X106821689Y-60406047D01*
X106821689Y-60406047D02*
X106893118Y-60105095D01*
X106893118Y-60105095D02*
X106893118Y-59578428D01*
X106893118Y-59578428D02*
X106821689Y-59277476D01*
X106821689Y-59277476D02*
X106678832Y-59127000D01*
X106678832Y-59127000D02*
X106535975Y-59051761D01*
X106535975Y-59051761D02*
X106250261Y-59051761D01*
X106250261Y-59051761D02*
X106107404Y-59127000D01*
X106107404Y-59127000D02*
X105964546Y-59277476D01*
X105964546Y-59277476D02*
X105893118Y-59578428D01*
X105893118Y-59578428D02*
X105893118Y-60105095D01*
X105893118Y-60105095D02*
X105964546Y-60406047D01*
X105964546Y-60406047D02*
X106107404Y-60556523D01*
X106107404Y-60556523D02*
X106250261Y-60631761D01*
X107464547Y-60481285D02*
X107535975Y-60556523D01*
X107535975Y-60556523D02*
X107678833Y-60631761D01*
X107678833Y-60631761D02*
X108035975Y-60631761D01*
X108035975Y-60631761D02*
X108178833Y-60556523D01*
X108178833Y-60556523D02*
X108250261Y-60481285D01*
X108250261Y-60481285D02*
X108321690Y-60330809D01*
X108321690Y-60330809D02*
X108321690Y-60180333D01*
X108321690Y-60180333D02*
X108250261Y-59954619D01*
X108250261Y-59954619D02*
X107393118Y-59051761D01*
X107393118Y-59051761D02*
X108321690Y-59051761D01*
X108607404Y-58901285D02*
X109750261Y-58901285D01*
X110107403Y-59051761D02*
X110107403Y-60631761D01*
X110107403Y-60631761D02*
X110464546Y-60631761D01*
X110464546Y-60631761D02*
X110678832Y-60556523D01*
X110678832Y-60556523D02*
X110821689Y-60406047D01*
X110821689Y-60406047D02*
X110893118Y-60255571D01*
X110893118Y-60255571D02*
X110964546Y-59954619D01*
X110964546Y-59954619D02*
X110964546Y-59728904D01*
X110964546Y-59728904D02*
X110893118Y-59427952D01*
X110893118Y-59427952D02*
X110821689Y-59277476D01*
X110821689Y-59277476D02*
X110678832Y-59127000D01*
X110678832Y-59127000D02*
X110464546Y-59051761D01*
X110464546Y-59051761D02*
X110107403Y-59051761D01*
X111607403Y-59051761D02*
X111607403Y-60631761D01*
X111607403Y-60631761D02*
X112178832Y-60631761D01*
X112178832Y-60631761D02*
X112321689Y-60556523D01*
X112321689Y-60556523D02*
X112393118Y-60481285D01*
X112393118Y-60481285D02*
X112464546Y-60330809D01*
X112464546Y-60330809D02*
X112464546Y-60105095D01*
X112464546Y-60105095D02*
X112393118Y-59954619D01*
X112393118Y-59954619D02*
X112321689Y-59879380D01*
X112321689Y-59879380D02*
X112178832Y-59804142D01*
X112178832Y-59804142D02*
X111607403Y-59804142D01*
X113750261Y-60105095D02*
X113750261Y-59051761D01*
X113393118Y-60707000D02*
X113035975Y-59578428D01*
X113035975Y-59578428D02*
X113964546Y-59578428D01*
X103035975Y-58012723D02*
X102893118Y-58087961D01*
X102893118Y-58087961D02*
X102678832Y-58087961D01*
X102678832Y-58087961D02*
X102464546Y-58012723D01*
X102464546Y-58012723D02*
X102321689Y-57862247D01*
X102321689Y-57862247D02*
X102250260Y-57711771D01*
X102250260Y-57711771D02*
X102178832Y-57410819D01*
X102178832Y-57410819D02*
X102178832Y-57185104D01*
X102178832Y-57185104D02*
X102250260Y-56884152D01*
X102250260Y-56884152D02*
X102321689Y-56733676D01*
X102321689Y-56733676D02*
X102464546Y-56583200D01*
X102464546Y-56583200D02*
X102678832Y-56507961D01*
X102678832Y-56507961D02*
X102821689Y-56507961D01*
X102821689Y-56507961D02*
X103035975Y-56583200D01*
X103035975Y-56583200D02*
X103107403Y-56658438D01*
X103107403Y-56658438D02*
X103107403Y-57185104D01*
X103107403Y-57185104D02*
X102821689Y-57185104D01*
X103750260Y-56507961D02*
X103750260Y-58087961D01*
X103750260Y-58087961D02*
X104321689Y-58087961D01*
X104321689Y-58087961D02*
X104464546Y-58012723D01*
X104464546Y-58012723D02*
X104535975Y-57937485D01*
X104535975Y-57937485D02*
X104607403Y-57787009D01*
X104607403Y-57787009D02*
X104607403Y-57561295D01*
X104607403Y-57561295D02*
X104535975Y-57410819D01*
X104535975Y-57410819D02*
X104464546Y-57335580D01*
X104464546Y-57335580D02*
X104321689Y-57260342D01*
X104321689Y-57260342D02*
X103750260Y-57260342D01*
X105250260Y-56507961D02*
X105250260Y-58087961D01*
X106250261Y-58087961D02*
X106535975Y-58087961D01*
X106535975Y-58087961D02*
X106678832Y-58012723D01*
X106678832Y-58012723D02*
X106821689Y-57862247D01*
X106821689Y-57862247D02*
X106893118Y-57561295D01*
X106893118Y-57561295D02*
X106893118Y-57034628D01*
X106893118Y-57034628D02*
X106821689Y-56733676D01*
X106821689Y-56733676D02*
X106678832Y-56583200D01*
X106678832Y-56583200D02*
X106535975Y-56507961D01*
X106535975Y-56507961D02*
X106250261Y-56507961D01*
X106250261Y-56507961D02*
X106107404Y-56583200D01*
X106107404Y-56583200D02*
X105964546Y-56733676D01*
X105964546Y-56733676D02*
X105893118Y-57034628D01*
X105893118Y-57034628D02*
X105893118Y-57561295D01*
X105893118Y-57561295D02*
X105964546Y-57862247D01*
X105964546Y-57862247D02*
X106107404Y-58012723D01*
X106107404Y-58012723D02*
X106250261Y-58087961D01*
X107393118Y-58087961D02*
X108321690Y-58087961D01*
X108321690Y-58087961D02*
X107821690Y-57486057D01*
X107821690Y-57486057D02*
X108035975Y-57486057D01*
X108035975Y-57486057D02*
X108178833Y-57410819D01*
X108178833Y-57410819D02*
X108250261Y-57335580D01*
X108250261Y-57335580D02*
X108321690Y-57185104D01*
X108321690Y-57185104D02*
X108321690Y-56808914D01*
X108321690Y-56808914D02*
X108250261Y-56658438D01*
X108250261Y-56658438D02*
X108178833Y-56583200D01*
X108178833Y-56583200D02*
X108035975Y-56507961D01*
X108035975Y-56507961D02*
X107607404Y-56507961D01*
X107607404Y-56507961D02*
X107464547Y-56583200D01*
X107464547Y-56583200D02*
X107393118Y-56658438D01*
X108607404Y-56357485D02*
X109750261Y-56357485D01*
X110107403Y-56507961D02*
X110107403Y-58087961D01*
X110107403Y-58087961D02*
X110678832Y-58087961D01*
X110678832Y-58087961D02*
X110821689Y-58012723D01*
X110821689Y-58012723D02*
X110893118Y-57937485D01*
X110893118Y-57937485D02*
X110964546Y-57787009D01*
X110964546Y-57787009D02*
X110964546Y-57561295D01*
X110964546Y-57561295D02*
X110893118Y-57410819D01*
X110893118Y-57410819D02*
X110821689Y-57335580D01*
X110821689Y-57335580D02*
X110678832Y-57260342D01*
X110678832Y-57260342D02*
X110107403Y-57260342D01*
X111607403Y-56507961D02*
X111607403Y-58087961D01*
X111607403Y-58087961D02*
X111964546Y-58087961D01*
X111964546Y-58087961D02*
X112178832Y-58012723D01*
X112178832Y-58012723D02*
X112321689Y-57862247D01*
X112321689Y-57862247D02*
X112393118Y-57711771D01*
X112393118Y-57711771D02*
X112464546Y-57410819D01*
X112464546Y-57410819D02*
X112464546Y-57185104D01*
X112464546Y-57185104D02*
X112393118Y-56884152D01*
X112393118Y-56884152D02*
X112321689Y-56733676D01*
X112321689Y-56733676D02*
X112178832Y-56583200D01*
X112178832Y-56583200D02*
X111964546Y-56507961D01*
X111964546Y-56507961D02*
X111607403Y-56507961D01*
X113821689Y-58087961D02*
X113107403Y-58087961D01*
X113107403Y-58087961D02*
X113035975Y-57335580D01*
X113035975Y-57335580D02*
X113107403Y-57410819D01*
X113107403Y-57410819D02*
X113250261Y-57486057D01*
X113250261Y-57486057D02*
X113607403Y-57486057D01*
X113607403Y-57486057D02*
X113750261Y-57410819D01*
X113750261Y-57410819D02*
X113821689Y-57335580D01*
X113821689Y-57335580D02*
X113893118Y-57185104D01*
X113893118Y-57185104D02*
X113893118Y-56808914D01*
X113893118Y-56808914D02*
X113821689Y-56658438D01*
X113821689Y-56658438D02*
X113750261Y-56583200D01*
X113750261Y-56583200D02*
X113607403Y-56507961D01*
X113607403Y-56507961D02*
X113250261Y-56507961D01*
X113250261Y-56507961D02*
X113107403Y-56583200D01*
X113107403Y-56583200D02*
X113035975Y-56658438D01*
X103178832Y-55468923D02*
X103035975Y-55544161D01*
X103035975Y-55544161D02*
X102821689Y-55544161D01*
X102821689Y-55544161D02*
X102607403Y-55468923D01*
X102607403Y-55468923D02*
X102464546Y-55318447D01*
X102464546Y-55318447D02*
X102393117Y-55167971D01*
X102393117Y-55167971D02*
X102321689Y-54867019D01*
X102321689Y-54867019D02*
X102321689Y-54641304D01*
X102321689Y-54641304D02*
X102393117Y-54340352D01*
X102393117Y-54340352D02*
X102464546Y-54189876D01*
X102464546Y-54189876D02*
X102607403Y-54039400D01*
X102607403Y-54039400D02*
X102821689Y-53964161D01*
X102821689Y-53964161D02*
X102964546Y-53964161D01*
X102964546Y-53964161D02*
X103178832Y-54039400D01*
X103178832Y-54039400D02*
X103250260Y-54114638D01*
X103250260Y-54114638D02*
X103250260Y-54641304D01*
X103250260Y-54641304D02*
X102964546Y-54641304D01*
X103893117Y-53964161D02*
X103893117Y-55544161D01*
X103893117Y-55544161D02*
X104464546Y-55544161D01*
X104464546Y-55544161D02*
X104607403Y-55468923D01*
X104607403Y-55468923D02*
X104678832Y-55393685D01*
X104678832Y-55393685D02*
X104750260Y-55243209D01*
X104750260Y-55243209D02*
X104750260Y-55017495D01*
X104750260Y-55017495D02*
X104678832Y-54867019D01*
X104678832Y-54867019D02*
X104607403Y-54791780D01*
X104607403Y-54791780D02*
X104464546Y-54716542D01*
X104464546Y-54716542D02*
X103893117Y-54716542D01*
X105393117Y-53964161D02*
X105393117Y-55544161D01*
X106393118Y-55544161D02*
X106678832Y-55544161D01*
X106678832Y-55544161D02*
X106821689Y-55468923D01*
X106821689Y-55468923D02*
X106964546Y-55318447D01*
X106964546Y-55318447D02*
X107035975Y-55017495D01*
X107035975Y-55017495D02*
X107035975Y-54490828D01*
X107035975Y-54490828D02*
X106964546Y-54189876D01*
X106964546Y-54189876D02*
X106821689Y-54039400D01*
X106821689Y-54039400D02*
X106678832Y-53964161D01*
X106678832Y-53964161D02*
X106393118Y-53964161D01*
X106393118Y-53964161D02*
X106250261Y-54039400D01*
X106250261Y-54039400D02*
X106107403Y-54189876D01*
X106107403Y-54189876D02*
X106035975Y-54490828D01*
X106035975Y-54490828D02*
X106035975Y-55017495D01*
X106035975Y-55017495D02*
X106107403Y-55318447D01*
X106107403Y-55318447D02*
X106250261Y-55468923D01*
X106250261Y-55468923D02*
X106393118Y-55544161D01*
X108321690Y-55017495D02*
X108321690Y-53964161D01*
X107964547Y-55619400D02*
X107607404Y-54490828D01*
X107607404Y-54490828D02*
X108535975Y-54490828D01*
X108750261Y-53813685D02*
X109893118Y-53813685D01*
X110250260Y-53964161D02*
X110250260Y-55544161D01*
X110250260Y-55544161D02*
X110821689Y-55544161D01*
X110821689Y-55544161D02*
X110964546Y-55468923D01*
X110964546Y-55468923D02*
X111035975Y-55393685D01*
X111035975Y-55393685D02*
X111107403Y-55243209D01*
X111107403Y-55243209D02*
X111107403Y-55017495D01*
X111107403Y-55017495D02*
X111035975Y-54867019D01*
X111035975Y-54867019D02*
X110964546Y-54791780D01*
X110964546Y-54791780D02*
X110821689Y-54716542D01*
X110821689Y-54716542D02*
X110250260Y-54716542D01*
X111750260Y-54791780D02*
X112250260Y-54791780D01*
X112464546Y-53964161D02*
X111750260Y-53964161D01*
X111750260Y-53964161D02*
X111750260Y-55544161D01*
X111750260Y-55544161D02*
X112464546Y-55544161D01*
X112964546Y-55544161D02*
X113893118Y-55544161D01*
X113893118Y-55544161D02*
X113393118Y-54942257D01*
X113393118Y-54942257D02*
X113607403Y-54942257D01*
X113607403Y-54942257D02*
X113750261Y-54867019D01*
X113750261Y-54867019D02*
X113821689Y-54791780D01*
X113821689Y-54791780D02*
X113893118Y-54641304D01*
X113893118Y-54641304D02*
X113893118Y-54265114D01*
X113893118Y-54265114D02*
X113821689Y-54114638D01*
X113821689Y-54114638D02*
X113750261Y-54039400D01*
X113750261Y-54039400D02*
X113607403Y-53964161D01*
X113607403Y-53964161D02*
X113178832Y-53964161D01*
X113178832Y-53964161D02*
X113035975Y-54039400D01*
X113035975Y-54039400D02*
X112964546Y-54114638D01*
X103035975Y-52925123D02*
X102893118Y-53000361D01*
X102893118Y-53000361D02*
X102678832Y-53000361D01*
X102678832Y-53000361D02*
X102464546Y-52925123D01*
X102464546Y-52925123D02*
X102321689Y-52774647D01*
X102321689Y-52774647D02*
X102250260Y-52624171D01*
X102250260Y-52624171D02*
X102178832Y-52323219D01*
X102178832Y-52323219D02*
X102178832Y-52097504D01*
X102178832Y-52097504D02*
X102250260Y-51796552D01*
X102250260Y-51796552D02*
X102321689Y-51646076D01*
X102321689Y-51646076D02*
X102464546Y-51495600D01*
X102464546Y-51495600D02*
X102678832Y-51420361D01*
X102678832Y-51420361D02*
X102821689Y-51420361D01*
X102821689Y-51420361D02*
X103035975Y-51495600D01*
X103035975Y-51495600D02*
X103107403Y-51570838D01*
X103107403Y-51570838D02*
X103107403Y-52097504D01*
X103107403Y-52097504D02*
X102821689Y-52097504D01*
X103750260Y-51420361D02*
X103750260Y-53000361D01*
X103750260Y-53000361D02*
X104321689Y-53000361D01*
X104321689Y-53000361D02*
X104464546Y-52925123D01*
X104464546Y-52925123D02*
X104535975Y-52849885D01*
X104535975Y-52849885D02*
X104607403Y-52699409D01*
X104607403Y-52699409D02*
X104607403Y-52473695D01*
X104607403Y-52473695D02*
X104535975Y-52323219D01*
X104535975Y-52323219D02*
X104464546Y-52247980D01*
X104464546Y-52247980D02*
X104321689Y-52172742D01*
X104321689Y-52172742D02*
X103750260Y-52172742D01*
X105250260Y-51420361D02*
X105250260Y-53000361D01*
X106250261Y-53000361D02*
X106535975Y-53000361D01*
X106535975Y-53000361D02*
X106678832Y-52925123D01*
X106678832Y-52925123D02*
X106821689Y-52774647D01*
X106821689Y-52774647D02*
X106893118Y-52473695D01*
X106893118Y-52473695D02*
X106893118Y-51947028D01*
X106893118Y-51947028D02*
X106821689Y-51646076D01*
X106821689Y-51646076D02*
X106678832Y-51495600D01*
X106678832Y-51495600D02*
X106535975Y-51420361D01*
X106535975Y-51420361D02*
X106250261Y-51420361D01*
X106250261Y-51420361D02*
X106107404Y-51495600D01*
X106107404Y-51495600D02*
X105964546Y-51646076D01*
X105964546Y-51646076D02*
X105893118Y-51947028D01*
X105893118Y-51947028D02*
X105893118Y-52473695D01*
X105893118Y-52473695D02*
X105964546Y-52774647D01*
X105964546Y-52774647D02*
X106107404Y-52925123D01*
X106107404Y-52925123D02*
X106250261Y-53000361D01*
X108250261Y-53000361D02*
X107535975Y-53000361D01*
X107535975Y-53000361D02*
X107464547Y-52247980D01*
X107464547Y-52247980D02*
X107535975Y-52323219D01*
X107535975Y-52323219D02*
X107678833Y-52398457D01*
X107678833Y-52398457D02*
X108035975Y-52398457D01*
X108035975Y-52398457D02*
X108178833Y-52323219D01*
X108178833Y-52323219D02*
X108250261Y-52247980D01*
X108250261Y-52247980D02*
X108321690Y-52097504D01*
X108321690Y-52097504D02*
X108321690Y-51721314D01*
X108321690Y-51721314D02*
X108250261Y-51570838D01*
X108250261Y-51570838D02*
X108178833Y-51495600D01*
X108178833Y-51495600D02*
X108035975Y-51420361D01*
X108035975Y-51420361D02*
X107678833Y-51420361D01*
X107678833Y-51420361D02*
X107535975Y-51495600D01*
X107535975Y-51495600D02*
X107464547Y-51570838D01*
X108607404Y-51269885D02*
X109750261Y-51269885D01*
X110107403Y-51420361D02*
X110107403Y-53000361D01*
X110107403Y-53000361D02*
X110678832Y-53000361D01*
X110678832Y-53000361D02*
X110821689Y-52925123D01*
X110821689Y-52925123D02*
X110893118Y-52849885D01*
X110893118Y-52849885D02*
X110964546Y-52699409D01*
X110964546Y-52699409D02*
X110964546Y-52473695D01*
X110964546Y-52473695D02*
X110893118Y-52323219D01*
X110893118Y-52323219D02*
X110821689Y-52247980D01*
X110821689Y-52247980D02*
X110678832Y-52172742D01*
X110678832Y-52172742D02*
X110107403Y-52172742D01*
X112393118Y-52925123D02*
X112250261Y-53000361D01*
X112250261Y-53000361D02*
X112035975Y-53000361D01*
X112035975Y-53000361D02*
X111821689Y-52925123D01*
X111821689Y-52925123D02*
X111678832Y-52774647D01*
X111678832Y-52774647D02*
X111607403Y-52624171D01*
X111607403Y-52624171D02*
X111535975Y-52323219D01*
X111535975Y-52323219D02*
X111535975Y-52097504D01*
X111535975Y-52097504D02*
X111607403Y-51796552D01*
X111607403Y-51796552D02*
X111678832Y-51646076D01*
X111678832Y-51646076D02*
X111821689Y-51495600D01*
X111821689Y-51495600D02*
X112035975Y-51420361D01*
X112035975Y-51420361D02*
X112178832Y-51420361D01*
X112178832Y-51420361D02*
X112393118Y-51495600D01*
X112393118Y-51495600D02*
X112464546Y-51570838D01*
X112464546Y-51570838D02*
X112464546Y-52097504D01*
X112464546Y-52097504D02*
X112178832Y-52097504D01*
X112964546Y-53000361D02*
X113893118Y-53000361D01*
X113893118Y-53000361D02*
X113393118Y-52398457D01*
X113393118Y-52398457D02*
X113607403Y-52398457D01*
X113607403Y-52398457D02*
X113750261Y-52323219D01*
X113750261Y-52323219D02*
X113821689Y-52247980D01*
X113821689Y-52247980D02*
X113893118Y-52097504D01*
X113893118Y-52097504D02*
X113893118Y-51721314D01*
X113893118Y-51721314D02*
X113821689Y-51570838D01*
X113821689Y-51570838D02*
X113750261Y-51495600D01*
X113750261Y-51495600D02*
X113607403Y-51420361D01*
X113607403Y-51420361D02*
X113178832Y-51420361D01*
X113178832Y-51420361D02*
X113035975Y-51495600D01*
X113035975Y-51495600D02*
X112964546Y-51570838D01*
X543283374Y-83222676D02*
X543426232Y-83147438D01*
X543426232Y-83147438D02*
X543640517Y-83147438D01*
X543640517Y-83147438D02*
X543854803Y-83222676D01*
X543854803Y-83222676D02*
X543997660Y-83373152D01*
X543997660Y-83373152D02*
X544069089Y-83523628D01*
X544069089Y-83523628D02*
X544140517Y-83824580D01*
X544140517Y-83824580D02*
X544140517Y-84050295D01*
X544140517Y-84050295D02*
X544069089Y-84351247D01*
X544069089Y-84351247D02*
X543997660Y-84501723D01*
X543997660Y-84501723D02*
X543854803Y-84652200D01*
X543854803Y-84652200D02*
X543640517Y-84727438D01*
X543640517Y-84727438D02*
X543497660Y-84727438D01*
X543497660Y-84727438D02*
X543283374Y-84652200D01*
X543283374Y-84652200D02*
X543211946Y-84576961D01*
X543211946Y-84576961D02*
X543211946Y-84050295D01*
X543211946Y-84050295D02*
X543497660Y-84050295D01*
X541711946Y-84727438D02*
X542211946Y-83975057D01*
X542569089Y-84727438D02*
X542569089Y-83147438D01*
X542569089Y-83147438D02*
X541997660Y-83147438D01*
X541997660Y-83147438D02*
X541854803Y-83222676D01*
X541854803Y-83222676D02*
X541783374Y-83297914D01*
X541783374Y-83297914D02*
X541711946Y-83448390D01*
X541711946Y-83448390D02*
X541711946Y-83674104D01*
X541711946Y-83674104D02*
X541783374Y-83824580D01*
X541783374Y-83824580D02*
X541854803Y-83899819D01*
X541854803Y-83899819D02*
X541997660Y-83975057D01*
X541997660Y-83975057D02*
X542569089Y-83975057D01*
X541069089Y-84125533D02*
X539926232Y-84125533D01*
X538497660Y-84727438D02*
X539211946Y-84727438D01*
X539211946Y-84727438D02*
X539211946Y-83147438D01*
X537140517Y-84727438D02*
X537640517Y-83975057D01*
X537997660Y-84727438D02*
X537997660Y-83147438D01*
X537997660Y-83147438D02*
X537426231Y-83147438D01*
X537426231Y-83147438D02*
X537283374Y-83222676D01*
X537283374Y-83222676D02*
X537211945Y-83297914D01*
X537211945Y-83297914D02*
X537140517Y-83448390D01*
X537140517Y-83448390D02*
X537140517Y-83674104D01*
X537140517Y-83674104D02*
X537211945Y-83824580D01*
X537211945Y-83824580D02*
X537283374Y-83899819D01*
X537283374Y-83899819D02*
X537426231Y-83975057D01*
X537426231Y-83975057D02*
X537997660Y-83975057D01*
X535640517Y-84727438D02*
X536140517Y-83975057D01*
X536497660Y-84727438D02*
X536497660Y-83147438D01*
X536497660Y-83147438D02*
X535926231Y-83147438D01*
X535926231Y-83147438D02*
X535783374Y-83222676D01*
X535783374Y-83222676D02*
X535711945Y-83297914D01*
X535711945Y-83297914D02*
X535640517Y-83448390D01*
X535640517Y-83448390D02*
X535640517Y-83674104D01*
X535640517Y-83674104D02*
X535711945Y-83824580D01*
X535711945Y-83824580D02*
X535783374Y-83899819D01*
X535783374Y-83899819D02*
X535926231Y-83975057D01*
X535926231Y-83975057D02*
X536497660Y-83975057D01*
X533069088Y-84727438D02*
X533926231Y-84727438D01*
X533497660Y-84727438D02*
X533497660Y-83147438D01*
X533497660Y-83147438D02*
X533640517Y-83373152D01*
X533640517Y-83373152D02*
X533783374Y-83523628D01*
X533783374Y-83523628D02*
X533926231Y-83598866D01*
X532140517Y-83147438D02*
X531997660Y-83147438D01*
X531997660Y-83147438D02*
X531854803Y-83222676D01*
X531854803Y-83222676D02*
X531783375Y-83297914D01*
X531783375Y-83297914D02*
X531711946Y-83448390D01*
X531711946Y-83448390D02*
X531640517Y-83749342D01*
X531640517Y-83749342D02*
X531640517Y-84125533D01*
X531640517Y-84125533D02*
X531711946Y-84426485D01*
X531711946Y-84426485D02*
X531783375Y-84576961D01*
X531783375Y-84576961D02*
X531854803Y-84652200D01*
X531854803Y-84652200D02*
X531997660Y-84727438D01*
X531997660Y-84727438D02*
X532140517Y-84727438D01*
X532140517Y-84727438D02*
X532283375Y-84652200D01*
X532283375Y-84652200D02*
X532354803Y-84576961D01*
X532354803Y-84576961D02*
X532426232Y-84426485D01*
X532426232Y-84426485D02*
X532497660Y-84125533D01*
X532497660Y-84125533D02*
X532497660Y-83749342D01*
X532497660Y-83749342D02*
X532426232Y-83448390D01*
X532426232Y-83448390D02*
X532354803Y-83297914D01*
X532354803Y-83297914D02*
X532283375Y-83222676D01*
X532283375Y-83222676D02*
X532140517Y-83147438D01*
X531069089Y-83297914D02*
X530997661Y-83222676D01*
X530997661Y-83222676D02*
X530854804Y-83147438D01*
X530854804Y-83147438D02*
X530497661Y-83147438D01*
X530497661Y-83147438D02*
X530354804Y-83222676D01*
X530354804Y-83222676D02*
X530283375Y-83297914D01*
X530283375Y-83297914D02*
X530211946Y-83448390D01*
X530211946Y-83448390D02*
X530211946Y-83598866D01*
X530211946Y-83598866D02*
X530283375Y-83824580D01*
X530283375Y-83824580D02*
X531140518Y-84727438D01*
X531140518Y-84727438D02*
X530211946Y-84727438D01*
X528854804Y-83147438D02*
X529569090Y-83147438D01*
X529569090Y-83147438D02*
X529640518Y-83899819D01*
X529640518Y-83899819D02*
X529569090Y-83824580D01*
X529569090Y-83824580D02*
X529426233Y-83749342D01*
X529426233Y-83749342D02*
X529069090Y-83749342D01*
X529069090Y-83749342D02*
X528926233Y-83824580D01*
X528926233Y-83824580D02*
X528854804Y-83899819D01*
X528854804Y-83899819D02*
X528783375Y-84050295D01*
X528783375Y-84050295D02*
X528783375Y-84426485D01*
X528783375Y-84426485D02*
X528854804Y-84576961D01*
X528854804Y-84576961D02*
X528926233Y-84652200D01*
X528926233Y-84652200D02*
X529069090Y-84727438D01*
X529069090Y-84727438D02*
X529426233Y-84727438D01*
X529426233Y-84727438D02*
X529569090Y-84652200D01*
X529569090Y-84652200D02*
X529640518Y-84576961D01*
X528211947Y-83297914D02*
X528140519Y-83222676D01*
X528140519Y-83222676D02*
X527997662Y-83147438D01*
X527997662Y-83147438D02*
X527640519Y-83147438D01*
X527640519Y-83147438D02*
X527497662Y-83222676D01*
X527497662Y-83222676D02*
X527426233Y-83297914D01*
X527426233Y-83297914D02*
X527354804Y-83448390D01*
X527354804Y-83448390D02*
X527354804Y-83598866D01*
X527354804Y-83598866D02*
X527426233Y-83824580D01*
X527426233Y-83824580D02*
X528283376Y-84727438D01*
X528283376Y-84727438D02*
X527354804Y-84727438D01*
X526854805Y-83147438D02*
X525926233Y-83147438D01*
X525926233Y-83147438D02*
X526426233Y-83749342D01*
X526426233Y-83749342D02*
X526211948Y-83749342D01*
X526211948Y-83749342D02*
X526069091Y-83824580D01*
X526069091Y-83824580D02*
X525997662Y-83899819D01*
X525997662Y-83899819D02*
X525926233Y-84050295D01*
X525926233Y-84050295D02*
X525926233Y-84426485D01*
X525926233Y-84426485D02*
X525997662Y-84576961D01*
X525997662Y-84576961D02*
X526069091Y-84652200D01*
X526069091Y-84652200D02*
X526211948Y-84727438D01*
X526211948Y-84727438D02*
X526640519Y-84727438D01*
X526640519Y-84727438D02*
X526783376Y-84652200D01*
X526783376Y-84652200D02*
X526854805Y-84576961D01*
X524211948Y-84276009D02*
X523497663Y-84276009D01*
X524354805Y-84727438D02*
X523854805Y-83147438D01*
X523854805Y-83147438D02*
X523354805Y-84727438D01*
X522569091Y-83147438D02*
X522426234Y-83147438D01*
X522426234Y-83147438D02*
X522283377Y-83222676D01*
X522283377Y-83222676D02*
X522211949Y-83297914D01*
X522211949Y-83297914D02*
X522140520Y-83448390D01*
X522140520Y-83448390D02*
X522069091Y-83749342D01*
X522069091Y-83749342D02*
X522069091Y-84125533D01*
X522069091Y-84125533D02*
X522140520Y-84426485D01*
X522140520Y-84426485D02*
X522211949Y-84576961D01*
X522211949Y-84576961D02*
X522283377Y-84652200D01*
X522283377Y-84652200D02*
X522426234Y-84727438D01*
X522426234Y-84727438D02*
X522569091Y-84727438D01*
X522569091Y-84727438D02*
X522711949Y-84652200D01*
X522711949Y-84652200D02*
X522783377Y-84576961D01*
X522783377Y-84576961D02*
X522854806Y-84426485D01*
X522854806Y-84426485D02*
X522926234Y-84125533D01*
X522926234Y-84125533D02*
X522926234Y-83749342D01*
X522926234Y-83749342D02*
X522854806Y-83448390D01*
X522854806Y-83448390D02*
X522783377Y-83297914D01*
X522783377Y-83297914D02*
X522711949Y-83222676D01*
X522711949Y-83222676D02*
X522569091Y-83147438D01*
D12*
X163387019Y-92173742D02*
X162910828Y-91840409D01*
X163387019Y-91602314D02*
X162387019Y-91602314D01*
X162387019Y-91602314D02*
X162387019Y-91983266D01*
X162387019Y-91983266D02*
X162434638Y-92078504D01*
X162434638Y-92078504D02*
X162482257Y-92126123D01*
X162482257Y-92126123D02*
X162577495Y-92173742D01*
X162577495Y-92173742D02*
X162720352Y-92173742D01*
X162720352Y-92173742D02*
X162815590Y-92126123D01*
X162815590Y-92126123D02*
X162863209Y-92078504D01*
X162863209Y-92078504D02*
X162910828Y-91983266D01*
X162910828Y-91983266D02*
X162910828Y-91602314D01*
X163387019Y-93126123D02*
X163387019Y-92554695D01*
X163387019Y-92840409D02*
X162387019Y-92840409D01*
X162387019Y-92840409D02*
X162529876Y-92745171D01*
X162529876Y-92745171D02*
X162625114Y-92649933D01*
X162625114Y-92649933D02*
X162672733Y-92554695D01*
X162815590Y-93697552D02*
X162767971Y-93602314D01*
X162767971Y-93602314D02*
X162720352Y-93554695D01*
X162720352Y-93554695D02*
X162625114Y-93507076D01*
X162625114Y-93507076D02*
X162577495Y-93507076D01*
X162577495Y-93507076D02*
X162482257Y-93554695D01*
X162482257Y-93554695D02*
X162434638Y-93602314D01*
X162434638Y-93602314D02*
X162387019Y-93697552D01*
X162387019Y-93697552D02*
X162387019Y-93888028D01*
X162387019Y-93888028D02*
X162434638Y-93983266D01*
X162434638Y-93983266D02*
X162482257Y-94030885D01*
X162482257Y-94030885D02*
X162577495Y-94078504D01*
X162577495Y-94078504D02*
X162625114Y-94078504D01*
X162625114Y-94078504D02*
X162720352Y-94030885D01*
X162720352Y-94030885D02*
X162767971Y-93983266D01*
X162767971Y-93983266D02*
X162815590Y-93888028D01*
X162815590Y-93888028D02*
X162815590Y-93697552D01*
X162815590Y-93697552D02*
X162863209Y-93602314D01*
X162863209Y-93602314D02*
X162910828Y-93554695D01*
X162910828Y-93554695D02*
X163006066Y-93507076D01*
X163006066Y-93507076D02*
X163196542Y-93507076D01*
X163196542Y-93507076D02*
X163291780Y-93554695D01*
X163291780Y-93554695D02*
X163339400Y-93602314D01*
X163339400Y-93602314D02*
X163387019Y-93697552D01*
X163387019Y-93697552D02*
X163387019Y-93888028D01*
X163387019Y-93888028D02*
X163339400Y-93983266D01*
X163339400Y-93983266D02*
X163291780Y-94030885D01*
X163291780Y-94030885D02*
X163196542Y-94078504D01*
X163196542Y-94078504D02*
X163006066Y-94078504D01*
X163006066Y-94078504D02*
X162910828Y-94030885D01*
X162910828Y-94030885D02*
X162863209Y-93983266D01*
X162863209Y-93983266D02*
X162815590Y-93888028D01*
D13*
X132223932Y-69883118D02*
X132223932Y-70790261D01*
X132223932Y-70790261D02*
X132284409Y-70971689D01*
X132284409Y-70971689D02*
X132405361Y-71092642D01*
X132405361Y-71092642D02*
X132586790Y-71153118D01*
X132586790Y-71153118D02*
X132707742Y-71153118D01*
X130953932Y-71153118D02*
X131679647Y-71153118D01*
X131316790Y-71153118D02*
X131316790Y-69883118D01*
X131316790Y-69883118D02*
X131437742Y-70064546D01*
X131437742Y-70064546D02*
X131558694Y-70185499D01*
X131558694Y-70185499D02*
X131679647Y-70245975D01*
D12*
X159518953Y-92624933D02*
X159042762Y-92291600D01*
X159518953Y-92053505D02*
X158518953Y-92053505D01*
X158518953Y-92053505D02*
X158518953Y-92434457D01*
X158518953Y-92434457D02*
X158566572Y-92529695D01*
X158566572Y-92529695D02*
X158614191Y-92577314D01*
X158614191Y-92577314D02*
X158709429Y-92624933D01*
X158709429Y-92624933D02*
X158852286Y-92624933D01*
X158852286Y-92624933D02*
X158947524Y-92577314D01*
X158947524Y-92577314D02*
X158995143Y-92529695D01*
X158995143Y-92529695D02*
X159042762Y-92434457D01*
X159042762Y-92434457D02*
X159042762Y-92053505D01*
X158518953Y-92958267D02*
X158518953Y-93577314D01*
X158518953Y-93577314D02*
X158899905Y-93243981D01*
X158899905Y-93243981D02*
X158899905Y-93386838D01*
X158899905Y-93386838D02*
X158947524Y-93482076D01*
X158947524Y-93482076D02*
X158995143Y-93529695D01*
X158995143Y-93529695D02*
X159090381Y-93577314D01*
X159090381Y-93577314D02*
X159328476Y-93577314D01*
X159328476Y-93577314D02*
X159423714Y-93529695D01*
X159423714Y-93529695D02*
X159471334Y-93482076D01*
X159471334Y-93482076D02*
X159518953Y-93386838D01*
X159518953Y-93386838D02*
X159518953Y-93101124D01*
X159518953Y-93101124D02*
X159471334Y-93005886D01*
X159471334Y-93005886D02*
X159423714Y-92958267D01*
X167691667Y-83062400D02*
X167834524Y-83014780D01*
X167834524Y-83014780D02*
X168072619Y-83014780D01*
X168072619Y-83014780D02*
X168167857Y-83062400D01*
X168167857Y-83062400D02*
X168215476Y-83110019D01*
X168215476Y-83110019D02*
X168263095Y-83205257D01*
X168263095Y-83205257D02*
X168263095Y-83300495D01*
X168263095Y-83300495D02*
X168215476Y-83395733D01*
X168215476Y-83395733D02*
X168167857Y-83443352D01*
X168167857Y-83443352D02*
X168072619Y-83490971D01*
X168072619Y-83490971D02*
X167882143Y-83538590D01*
X167882143Y-83538590D02*
X167786905Y-83586209D01*
X167786905Y-83586209D02*
X167739286Y-83633828D01*
X167739286Y-83633828D02*
X167691667Y-83729066D01*
X167691667Y-83729066D02*
X167691667Y-83824304D01*
X167691667Y-83824304D02*
X167739286Y-83919542D01*
X167739286Y-83919542D02*
X167786905Y-83967161D01*
X167786905Y-83967161D02*
X167882143Y-84014780D01*
X167882143Y-84014780D02*
X168120238Y-84014780D01*
X168120238Y-84014780D02*
X168263095Y-83967161D01*
X168596429Y-84014780D02*
X168834524Y-83014780D01*
X168834524Y-83014780D02*
X169025000Y-83729066D01*
X169025000Y-83729066D02*
X169215476Y-83014780D01*
X169215476Y-83014780D02*
X169453572Y-84014780D01*
X170358333Y-83014780D02*
X169786905Y-83014780D01*
X170072619Y-83014780D02*
X170072619Y-84014780D01*
X170072619Y-84014780D02*
X169977381Y-83871923D01*
X169977381Y-83871923D02*
X169882143Y-83776685D01*
X169882143Y-83776685D02*
X169786905Y-83729066D01*
X155650887Y-92654933D02*
X155174696Y-92321600D01*
X155650887Y-92083505D02*
X154650887Y-92083505D01*
X154650887Y-92083505D02*
X154650887Y-92464457D01*
X154650887Y-92464457D02*
X154698506Y-92559695D01*
X154698506Y-92559695D02*
X154746125Y-92607314D01*
X154746125Y-92607314D02*
X154841363Y-92654933D01*
X154841363Y-92654933D02*
X154984220Y-92654933D01*
X154984220Y-92654933D02*
X155079458Y-92607314D01*
X155079458Y-92607314D02*
X155127077Y-92559695D01*
X155127077Y-92559695D02*
X155174696Y-92464457D01*
X155174696Y-92464457D02*
X155174696Y-92083505D01*
X155650887Y-93607314D02*
X155650887Y-93035886D01*
X155650887Y-93321600D02*
X154650887Y-93321600D01*
X154650887Y-93321600D02*
X154793744Y-93226362D01*
X154793744Y-93226362D02*
X154888982Y-93131124D01*
X154888982Y-93131124D02*
X154936601Y-93035886D01*
X167255085Y-92118742D02*
X166778894Y-91785409D01*
X167255085Y-91547314D02*
X166255085Y-91547314D01*
X166255085Y-91547314D02*
X166255085Y-91928266D01*
X166255085Y-91928266D02*
X166302704Y-92023504D01*
X166302704Y-92023504D02*
X166350323Y-92071123D01*
X166350323Y-92071123D02*
X166445561Y-92118742D01*
X166445561Y-92118742D02*
X166588418Y-92118742D01*
X166588418Y-92118742D02*
X166683656Y-92071123D01*
X166683656Y-92071123D02*
X166731275Y-92023504D01*
X166731275Y-92023504D02*
X166778894Y-91928266D01*
X166778894Y-91928266D02*
X166778894Y-91547314D01*
X166350323Y-92499695D02*
X166302704Y-92547314D01*
X166302704Y-92547314D02*
X166255085Y-92642552D01*
X166255085Y-92642552D02*
X166255085Y-92880647D01*
X166255085Y-92880647D02*
X166302704Y-92975885D01*
X166302704Y-92975885D02*
X166350323Y-93023504D01*
X166350323Y-93023504D02*
X166445561Y-93071123D01*
X166445561Y-93071123D02*
X166540799Y-93071123D01*
X166540799Y-93071123D02*
X166683656Y-93023504D01*
X166683656Y-93023504D02*
X167255085Y-92452076D01*
X167255085Y-92452076D02*
X167255085Y-93071123D01*
X166255085Y-93690171D02*
X166255085Y-93785409D01*
X166255085Y-93785409D02*
X166302704Y-93880647D01*
X166302704Y-93880647D02*
X166350323Y-93928266D01*
X166350323Y-93928266D02*
X166445561Y-93975885D01*
X166445561Y-93975885D02*
X166636037Y-94023504D01*
X166636037Y-94023504D02*
X166874132Y-94023504D01*
X166874132Y-94023504D02*
X167064608Y-93975885D01*
X167064608Y-93975885D02*
X167159846Y-93928266D01*
X167159846Y-93928266D02*
X167207466Y-93880647D01*
X167207466Y-93880647D02*
X167255085Y-93785409D01*
X167255085Y-93785409D02*
X167255085Y-93690171D01*
X167255085Y-93690171D02*
X167207466Y-93594933D01*
X167207466Y-93594933D02*
X167159846Y-93547314D01*
X167159846Y-93547314D02*
X167064608Y-93499695D01*
X167064608Y-93499695D02*
X166874132Y-93452076D01*
X166874132Y-93452076D02*
X166636037Y-93452076D01*
X166636037Y-93452076D02*
X166445561Y-93499695D01*
X166445561Y-93499695D02*
X166350323Y-93547314D01*
X166350323Y-93547314D02*
X166302704Y-93594933D01*
X166302704Y-93594933D02*
X166255085Y-93690171D01*
X155650887Y-87544933D02*
X155174696Y-87211600D01*
X155650887Y-86973505D02*
X154650887Y-86973505D01*
X154650887Y-86973505D02*
X154650887Y-87354457D01*
X154650887Y-87354457D02*
X154698506Y-87449695D01*
X154698506Y-87449695D02*
X154746125Y-87497314D01*
X154746125Y-87497314D02*
X154841363Y-87544933D01*
X154841363Y-87544933D02*
X154984220Y-87544933D01*
X154984220Y-87544933D02*
X155079458Y-87497314D01*
X155079458Y-87497314D02*
X155127077Y-87449695D01*
X155127077Y-87449695D02*
X155174696Y-87354457D01*
X155174696Y-87354457D02*
X155174696Y-86973505D01*
X154746125Y-87925886D02*
X154698506Y-87973505D01*
X154698506Y-87973505D02*
X154650887Y-88068743D01*
X154650887Y-88068743D02*
X154650887Y-88306838D01*
X154650887Y-88306838D02*
X154698506Y-88402076D01*
X154698506Y-88402076D02*
X154746125Y-88449695D01*
X154746125Y-88449695D02*
X154841363Y-88497314D01*
X154841363Y-88497314D02*
X154936601Y-88497314D01*
X154936601Y-88497314D02*
X155079458Y-88449695D01*
X155079458Y-88449695D02*
X155650887Y-87878267D01*
X155650887Y-87878267D02*
X155650887Y-88497314D01*
X163387019Y-87073742D02*
X162910828Y-86740409D01*
X163387019Y-86502314D02*
X162387019Y-86502314D01*
X162387019Y-86502314D02*
X162387019Y-86883266D01*
X162387019Y-86883266D02*
X162434638Y-86978504D01*
X162434638Y-86978504D02*
X162482257Y-87026123D01*
X162482257Y-87026123D02*
X162577495Y-87073742D01*
X162577495Y-87073742D02*
X162720352Y-87073742D01*
X162720352Y-87073742D02*
X162815590Y-87026123D01*
X162815590Y-87026123D02*
X162863209Y-86978504D01*
X162863209Y-86978504D02*
X162910828Y-86883266D01*
X162910828Y-86883266D02*
X162910828Y-86502314D01*
X163387019Y-88026123D02*
X163387019Y-87454695D01*
X163387019Y-87740409D02*
X162387019Y-87740409D01*
X162387019Y-87740409D02*
X162529876Y-87645171D01*
X162529876Y-87645171D02*
X162625114Y-87549933D01*
X162625114Y-87549933D02*
X162672733Y-87454695D01*
X163387019Y-88502314D02*
X163387019Y-88692790D01*
X163387019Y-88692790D02*
X163339400Y-88788028D01*
X163339400Y-88788028D02*
X163291780Y-88835647D01*
X163291780Y-88835647D02*
X163148923Y-88930885D01*
X163148923Y-88930885D02*
X162958447Y-88978504D01*
X162958447Y-88978504D02*
X162577495Y-88978504D01*
X162577495Y-88978504D02*
X162482257Y-88930885D01*
X162482257Y-88930885D02*
X162434638Y-88883266D01*
X162434638Y-88883266D02*
X162387019Y-88788028D01*
X162387019Y-88788028D02*
X162387019Y-88597552D01*
X162387019Y-88597552D02*
X162434638Y-88502314D01*
X162434638Y-88502314D02*
X162482257Y-88454695D01*
X162482257Y-88454695D02*
X162577495Y-88407076D01*
X162577495Y-88407076D02*
X162815590Y-88407076D01*
X162815590Y-88407076D02*
X162910828Y-88454695D01*
X162910828Y-88454695D02*
X162958447Y-88502314D01*
X162958447Y-88502314D02*
X163006066Y-88597552D01*
X163006066Y-88597552D02*
X163006066Y-88788028D01*
X163006066Y-88788028D02*
X162958447Y-88883266D01*
X162958447Y-88883266D02*
X162910828Y-88930885D01*
X162910828Y-88930885D02*
X162815590Y-88978504D01*
X159518953Y-87098742D02*
X159042762Y-86765409D01*
X159518953Y-86527314D02*
X158518953Y-86527314D01*
X158518953Y-86527314D02*
X158518953Y-86908266D01*
X158518953Y-86908266D02*
X158566572Y-87003504D01*
X158566572Y-87003504D02*
X158614191Y-87051123D01*
X158614191Y-87051123D02*
X158709429Y-87098742D01*
X158709429Y-87098742D02*
X158852286Y-87098742D01*
X158852286Y-87098742D02*
X158947524Y-87051123D01*
X158947524Y-87051123D02*
X158995143Y-87003504D01*
X158995143Y-87003504D02*
X159042762Y-86908266D01*
X159042762Y-86908266D02*
X159042762Y-86527314D01*
X159518953Y-88051123D02*
X159518953Y-87479695D01*
X159518953Y-87765409D02*
X158518953Y-87765409D01*
X158518953Y-87765409D02*
X158661810Y-87670171D01*
X158661810Y-87670171D02*
X158757048Y-87574933D01*
X158757048Y-87574933D02*
X158804667Y-87479695D01*
X158518953Y-88384457D02*
X158518953Y-89051123D01*
X158518953Y-89051123D02*
X159518953Y-88622552D01*
D13*
X132223932Y-113063118D02*
X132223932Y-113970261D01*
X132223932Y-113970261D02*
X132284409Y-114151689D01*
X132284409Y-114151689D02*
X132405361Y-114272642D01*
X132405361Y-114272642D02*
X132586790Y-114333118D01*
X132586790Y-114333118D02*
X132707742Y-114333118D01*
X131679647Y-113184070D02*
X131619171Y-113123594D01*
X131619171Y-113123594D02*
X131498218Y-113063118D01*
X131498218Y-113063118D02*
X131195837Y-113063118D01*
X131195837Y-113063118D02*
X131074885Y-113123594D01*
X131074885Y-113123594D02*
X131014409Y-113184070D01*
X131014409Y-113184070D02*
X130953932Y-113305022D01*
X130953932Y-113305022D02*
X130953932Y-113425975D01*
X130953932Y-113425975D02*
X131014409Y-113607403D01*
X131014409Y-113607403D02*
X131740123Y-114333118D01*
X131740123Y-114333118D02*
X130953932Y-114333118D01*
D12*
X167255085Y-87128742D02*
X166778894Y-86795409D01*
X167255085Y-86557314D02*
X166255085Y-86557314D01*
X166255085Y-86557314D02*
X166255085Y-86938266D01*
X166255085Y-86938266D02*
X166302704Y-87033504D01*
X166302704Y-87033504D02*
X166350323Y-87081123D01*
X166350323Y-87081123D02*
X166445561Y-87128742D01*
X166445561Y-87128742D02*
X166588418Y-87128742D01*
X166588418Y-87128742D02*
X166683656Y-87081123D01*
X166683656Y-87081123D02*
X166731275Y-87033504D01*
X166731275Y-87033504D02*
X166778894Y-86938266D01*
X166778894Y-86938266D02*
X166778894Y-86557314D01*
X166350323Y-87509695D02*
X166302704Y-87557314D01*
X166302704Y-87557314D02*
X166255085Y-87652552D01*
X166255085Y-87652552D02*
X166255085Y-87890647D01*
X166255085Y-87890647D02*
X166302704Y-87985885D01*
X166302704Y-87985885D02*
X166350323Y-88033504D01*
X166350323Y-88033504D02*
X166445561Y-88081123D01*
X166445561Y-88081123D02*
X166540799Y-88081123D01*
X166540799Y-88081123D02*
X166683656Y-88033504D01*
X166683656Y-88033504D02*
X167255085Y-87462076D01*
X167255085Y-87462076D02*
X167255085Y-88081123D01*
X167255085Y-89033504D02*
X167255085Y-88462076D01*
X167255085Y-88747790D02*
X166255085Y-88747790D01*
X166255085Y-88747790D02*
X166397942Y-88652552D01*
X166397942Y-88652552D02*
X166493180Y-88557314D01*
X166493180Y-88557314D02*
X166540799Y-88462076D01*
D14*
%TO.C,J3*%
X88620600Y-53961801D02*
G75*
G03*
X88620600Y-53961801I-381000J0D01*
G01*
%TO.C,J4*%
X88620600Y-67376801D02*
G75*
G03*
X88620600Y-67376801I-381000J0D01*
G01*
D15*
%TO.C,R18*%
X160202200Y-93543664D02*
X160202200Y-92089536D01*
X162022200Y-93543664D02*
X162022200Y-92089536D01*
D10*
%TO.C,J1*%
X122500600Y-69108800D02*
X123600600Y-69108800D01*
X122500600Y-72048800D02*
X122500600Y-69108800D01*
X123600600Y-72048800D02*
X122500600Y-72048800D01*
D16*
X124000600Y-72878800D02*
X124000600Y-72878800D01*
X124000600Y-72978800D02*
X124000600Y-72978800D01*
D10*
X140000600Y-69108800D02*
X141100600Y-69108800D01*
X141100600Y-69108800D02*
X141100600Y-72048800D01*
X141100600Y-72048800D02*
X140000600Y-72048800D01*
D16*
X124000600Y-72978800D02*
G75*
G03*
X124000600Y-72878800I0J50000D01*
G01*
X124000600Y-72878800D02*
G75*
G03*
X124000600Y-72978800I0J-50000D01*
G01*
D15*
%TO.C,R3*%
X156334134Y-93518664D02*
X156334134Y-92064536D01*
X158154134Y-93518664D02*
X158154134Y-92064536D01*
D16*
%TO.C,SW1*%
X155275000Y-79209600D02*
X182775000Y-79209600D01*
X182775000Y-79209600D02*
X182775000Y-51709600D01*
X182775000Y-51709600D02*
X155275000Y-51709600D01*
X155275000Y-51709600D02*
X155275000Y-79209600D01*
D15*
%TO.C,R1*%
X152466068Y-93548664D02*
X152466068Y-92094536D01*
X154286068Y-93548664D02*
X154286068Y-92094536D01*
%TO.C,R20*%
X164070266Y-93488664D02*
X164070266Y-92034536D01*
X165890266Y-93488664D02*
X165890266Y-92034536D01*
%TO.C,R2*%
X152466068Y-88438664D02*
X152466068Y-86984536D01*
X154286068Y-88438664D02*
X154286068Y-86984536D01*
%TO.C,R19*%
X160202200Y-88443664D02*
X160202200Y-86989536D01*
X162022200Y-88443664D02*
X162022200Y-86989536D01*
%TO.C,R17*%
X156334134Y-88468664D02*
X156334134Y-87014536D01*
X158154134Y-88468664D02*
X158154134Y-87014536D01*
D10*
%TO.C,J2*%
X122500600Y-112288800D02*
X123600600Y-112288800D01*
X122500600Y-115228800D02*
X122500600Y-112288800D01*
X123600600Y-115228800D02*
X122500600Y-115228800D01*
D16*
X124000600Y-116058800D02*
X124000600Y-116058800D01*
X124000600Y-116158800D02*
X124000600Y-116158800D01*
D10*
X140000600Y-112288800D02*
X141100600Y-112288800D01*
X141100600Y-112288800D02*
X141100600Y-115228800D01*
X141100600Y-115228800D02*
X140000600Y-115228800D01*
D16*
X124000600Y-116158800D02*
G75*
G03*
X124000600Y-116058800I0J50000D01*
G01*
X124000600Y-116058800D02*
G75*
G03*
X124000600Y-116158800I0J-50000D01*
G01*
D15*
%TO.C,R21*%
X164070266Y-88498664D02*
X164070266Y-87044536D01*
X165890266Y-88498664D02*
X165890266Y-87044536D01*
%TD*%
M02*
