%TF.GenerationSoftware,KiCad,Pcbnew,7.0.8*%
%TF.CreationDate,2023-10-25T17:14:19-06:00*%
%TF.ProjectId,GR-LRR-PCB,47522d4c-5252-42d5-9043-422e6b696361,rev?*%
%TF.SameCoordinates,Original*%
%TF.FileFunction,Paste,Top*%
%TF.FilePolarity,Positive*%
%FSLAX46Y46*%
G04 Gerber Fmt 4.6, Leading zero omitted, Abs format (unit mm)*
G04 Created by KiCad (PCBNEW 7.0.8) date 2023-10-25 17:14:19*
%MOMM*%
%LPD*%
G01*
G04 APERTURE LIST*
G04 Aperture macros list*
%AMRoundRect*
0 Rectangle with rounded corners*
0 $1 Rounding radius*
0 $2 $3 $4 $5 $6 $7 $8 $9 X,Y pos of 4 corners*
0 Add a 4 corners polygon primitive as box body*
4,1,4,$2,$3,$4,$5,$6,$7,$8,$9,$2,$3,0*
0 Add four circle primitives for the rounded corners*
1,1,$1+$1,$2,$3*
1,1,$1+$1,$4,$5*
1,1,$1+$1,$6,$7*
1,1,$1+$1,$8,$9*
0 Add four rect primitives between the rounded corners*
20,1,$1+$1,$2,$3,$4,$5,0*
20,1,$1+$1,$4,$5,$6,$7,0*
20,1,$1+$1,$6,$7,$8,$9,0*
20,1,$1+$1,$8,$9,$2,$3,0*%
G04 Aperture macros list end*
%ADD10RoundRect,0.250000X1.025000X-0.875000X1.025000X0.875000X-1.025000X0.875000X-1.025000X-0.875000X0*%
%ADD11RoundRect,0.250000X-0.625000X0.400000X-0.625000X-0.400000X0.625000X-0.400000X0.625000X0.400000X0*%
%ADD12RoundRect,0.250000X0.625000X-0.400000X0.625000X0.400000X-0.625000X0.400000X-0.625000X-0.400000X0*%
%ADD13RoundRect,0.250000X-0.537500X-1.450000X0.537500X-1.450000X0.537500X1.450000X-0.537500X1.450000X0*%
%ADD14R,1.200000X0.600000*%
%ADD15R,0.650000X1.550000*%
%ADD16RoundRect,0.250000X-0.475000X0.337500X-0.475000X-0.337500X0.475000X-0.337500X0.475000X0.337500X0*%
%ADD17R,0.965200X3.302000*%
%ADD18R,0.600000X0.850000*%
%ADD19RoundRect,0.250000X-0.400000X-0.625000X0.400000X-0.625000X0.400000X0.625000X-0.400000X0.625000X0*%
%ADD20RoundRect,0.250000X0.337500X0.475000X-0.337500X0.475000X-0.337500X-0.475000X0.337500X-0.475000X0*%
%ADD21R,0.508000X0.508000*%
%ADD22RoundRect,0.250001X0.624999X-0.462499X0.624999X0.462499X-0.624999X0.462499X-0.624999X-0.462499X0*%
%ADD23RoundRect,0.250000X-0.250000X0.250000X-0.250000X-0.250000X0.250000X-0.250000X0.250000X0.250000X0*%
%ADD24RoundRect,0.250000X0.537500X1.450000X-0.537500X1.450000X-0.537500X-1.450000X0.537500X-1.450000X0*%
%ADD25RoundRect,0.250000X-0.337500X-0.475000X0.337500X-0.475000X0.337500X0.475000X-0.337500X0.475000X0*%
G04 APERTURE END LIST*
D10*
%TO.C,C2*%
X147294600Y-88726800D03*
X147294600Y-82326800D03*
%TD*%
D11*
%TO.C,R13*%
X112064800Y-121391000D03*
X112064800Y-124491000D03*
%TD*%
D12*
%TO.C,R12*%
X159298800Y-85577400D03*
X159298800Y-82477400D03*
%TD*%
D13*
%TO.C,CY2*%
X84989900Y-105197000D03*
X89264900Y-105197000D03*
%TD*%
D11*
%TO.C,R8*%
X82253000Y-119456999D03*
X82253000Y-122556999D03*
%TD*%
D14*
%TO.C,IC1*%
X146197000Y-92679400D03*
X146197000Y-93629400D03*
X146197000Y-94579400D03*
X148697000Y-94579400D03*
X148697000Y-92679400D03*
%TD*%
D15*
%TO.C,IC2*%
X90554399Y-111300600D03*
X89284399Y-111300600D03*
X88014399Y-111300600D03*
X86744399Y-111300600D03*
X85474399Y-111300600D03*
X84204399Y-111300600D03*
X82934399Y-111300600D03*
X81664399Y-111300600D03*
X81664399Y-116750600D03*
X82934399Y-116750600D03*
X84204399Y-116750600D03*
X85474399Y-116750600D03*
X86744399Y-116750600D03*
X88014399Y-116750600D03*
X89284399Y-116750600D03*
X90554399Y-116750600D03*
%TD*%
D16*
%TO.C,C6*%
X144272000Y-92693500D03*
X144272000Y-94768500D03*
%TD*%
D17*
%TO.C,L1*%
X85800000Y-86258877D03*
X88238400Y-86258877D03*
%TD*%
D18*
%TO.C,Q3*%
X115453200Y-117271400D03*
X113553200Y-117271400D03*
X114503200Y-119771400D03*
%TD*%
D19*
%TO.C,R16*%
X78510200Y-108209000D03*
X81610200Y-108209000D03*
%TD*%
D20*
%TO.C,C4*%
X101240500Y-52659200D03*
X99165500Y-52659200D03*
%TD*%
D12*
%TO.C,R10*%
X117119400Y-124491000D03*
X117119400Y-121391000D03*
%TD*%
D16*
%TO.C,C7*%
X150749000Y-92744300D03*
X150749000Y-94819300D03*
%TD*%
D18*
%TO.C,Q2*%
X161102000Y-97800400D03*
X163002000Y-97800400D03*
X162052000Y-95300400D03*
%TD*%
D21*
%TO.C,Q1*%
X104927400Y-51912399D03*
X104927400Y-53812401D03*
X107315000Y-52862400D03*
%TD*%
D22*
%TO.C,D2*%
X159308800Y-90762400D03*
X159308800Y-87787400D03*
%TD*%
D11*
%TO.C,R7*%
X86798000Y-119456999D03*
X86798000Y-122556999D03*
%TD*%
D23*
%TO.C,D1*%
X163195000Y-84195200D03*
X163195000Y-86695200D03*
%TD*%
D24*
%TO.C,CY1*%
X89284900Y-98557000D03*
X85009900Y-98557000D03*
%TD*%
D19*
%TO.C,R15*%
X73531800Y-108209000D03*
X76631800Y-108209000D03*
%TD*%
D11*
%TO.C,R6*%
X91343000Y-119456999D03*
X91343000Y-122556999D03*
%TD*%
D25*
%TO.C,C1*%
X86021700Y-92858877D03*
X88096700Y-92858877D03*
%TD*%
D12*
%TO.C,R14*%
X109669000Y-124503800D03*
X109669000Y-121403800D03*
%TD*%
%TO.C,R5*%
X103723200Y-123961200D03*
X103723200Y-120861200D03*
%TD*%
D11*
%TO.C,R11*%
X122199400Y-121391000D03*
X122199400Y-124491000D03*
%TD*%
D20*
%TO.C,C5*%
X147087500Y-53243400D03*
X145012500Y-53243400D03*
%TD*%
D11*
%TO.C,R4*%
X97353200Y-120861200D03*
X97353200Y-123961200D03*
%TD*%
M02*
