%TF.GenerationSoftware,KiCad,Pcbnew,7.0.8*%
%TF.CreationDate,2024-02-15T14:48:36-07:00*%
%TF.ProjectId,GR-LRR-ESTOP-PCB,47522d4c-5252-42d4-9553-544f502d5043,rev?*%
%TF.SameCoordinates,Original*%
%TF.FileFunction,Copper,L2,Bot*%
%TF.FilePolarity,Positive*%
%FSLAX46Y46*%
G04 Gerber Fmt 4.6, Leading zero omitted, Abs format (unit mm)*
G04 Created by KiCad (PCBNEW 7.0.8) date 2024-02-15 14:48:36*
%MOMM*%
%LPD*%
G01*
G04 APERTURE LIST*
%TA.AperFunction,SMDPad,CuDef*%
%ADD10R,0.300000X0.800000*%
%TD*%
%TA.AperFunction,ComponentPad*%
%ADD11O,0.800000X1.600000*%
%TD*%
%TA.AperFunction,ComponentPad*%
%ADD12O,1.600000X1.000000*%
%TD*%
%TA.AperFunction,ComponentPad*%
%ADD13O,3.900000X1.700000*%
%TD*%
%TA.AperFunction,ComponentPad*%
%ADD14C,2.000000*%
%TD*%
%TA.AperFunction,ComponentPad*%
%ADD15C,1.524000*%
%TD*%
%TA.AperFunction,ViaPad*%
%ADD16C,0.800000*%
%TD*%
%TA.AperFunction,Conductor*%
%ADD17C,0.250000*%
%TD*%
G04 APERTURE END LIST*
D10*
%TO.P,J2,A1,GND_A*%
%TO.N,GND*%
X67086200Y-57969300D03*
%TO.P,J2,A2,SSTXP1*%
%TO.N,unconnected-(J2-SSTXP1-PadA2)*%
X66586200Y-57969300D03*
%TO.P,J2,A3,SSTXN1*%
%TO.N,unconnected-(J2-SSTXN1-PadA3)*%
X66086200Y-57969300D03*
%TO.P,J2,A4,VBUS_A*%
%TO.N,+5V*%
X65586200Y-57969300D03*
%TO.P,J2,A5,CC1*%
%TO.N,unconnected-(J2-CC1-PadA5)*%
X65086200Y-57969300D03*
%TO.P,J2,A6,DP1*%
%TO.N,unconnected-(J2-DP1-PadA6)*%
X64586200Y-57969300D03*
%TO.P,J2,A7,DN1*%
%TO.N,unconnected-(J2-DN1-PadA7)*%
X64086200Y-57969300D03*
%TO.P,J2,A8,SBU1*%
%TO.N,unconnected-(J2-SBU1-PadA8)*%
X63586200Y-57969300D03*
%TO.P,J2,A9,VBUS_A__1*%
%TO.N,+5V*%
X63086200Y-57969300D03*
%TO.P,J2,A10,SSRXN2*%
%TO.N,unconnected-(J2-SSRXN2-PadA10)*%
X62586200Y-57969300D03*
%TO.P,J2,A11,SSRXP2*%
%TO.N,unconnected-(J2-SSRXP2-PadA11)*%
X62086200Y-57969300D03*
%TO.P,J2,A12,GND_A__1*%
%TO.N,GND*%
X61586200Y-57969300D03*
%TO.P,J2,B1,GND_B*%
X61336200Y-56469300D03*
%TO.P,J2,B2,SSTXP2*%
%TO.N,unconnected-(J2-SSTXP2-PadB2)*%
X61836200Y-56469300D03*
%TO.P,J2,B3,SSTXN2*%
%TO.N,unconnected-(J2-SSTXN2-PadB3)*%
X62336200Y-56469300D03*
%TO.P,J2,B4,VBUS_B*%
%TO.N,+5V*%
X62836200Y-56469300D03*
%TO.P,J2,B5,CC2*%
%TO.N,unconnected-(J2-CC2-PadB5)*%
X63336200Y-56469300D03*
%TO.P,J2,B6,DP2*%
%TO.N,unconnected-(J2-DP2-PadB6)*%
X63836200Y-56469300D03*
%TO.P,J2,B7,DN2*%
%TO.N,unconnected-(J2-DN2-PadB7)*%
X64336200Y-56469300D03*
%TO.P,J2,B8,SBU2*%
%TO.N,unconnected-(J2-SBU2-PadB8)*%
X64836200Y-56469300D03*
%TO.P,J2,B9,VBUS_B__1*%
%TO.N,+5V*%
X65336200Y-56469300D03*
%TO.P,J2,B10,SSRXN1*%
%TO.N,unconnected-(J2-SSRXN1-PadB10)*%
X65836200Y-56469300D03*
%TO.P,J2,B11,SSRXP1*%
%TO.N,unconnected-(J2-SSRXP1-PadB11)*%
X66336200Y-56469300D03*
%TO.P,J2,B12,GND_B__1*%
%TO.N,GND*%
X66836200Y-56469300D03*
D11*
%TO.P,J2,S1,SHELL_GND*%
X60511200Y-58169300D03*
%TO.P,J2,S2,SHELL_GND__1*%
X67911200Y-58169300D03*
%TD*%
D12*
%TO.P,J1,*%
%TO.N,*%
X56751601Y-65835048D03*
X52951601Y-65835051D03*
X52951601Y-74475049D03*
X56751601Y-74475052D03*
%TD*%
D13*
%TO.P,SW1,1*%
%TO.N,+3.3V*%
X130218600Y-73598000D03*
%TO.P,SW1,2*%
%TO.N,Net-(R1-Pad1)*%
X130218600Y-64898000D03*
%TO.P,SW1,3*%
%TO.N,unconnected-(SW1-Pad3)*%
X110418600Y-73598000D03*
%TO.P,SW1,4*%
%TO.N,unconnected-(SW1-Pad4)*%
X110418600Y-64898000D03*
D14*
%TO.P,SW1,5*%
%TO.N,N/C*%
X123568600Y-63648000D03*
%TO.P,SW1,6*%
X117068600Y-74848000D03*
%TO.P,SW1,7*%
X117068600Y-63648000D03*
%TD*%
D15*
%TO.P,U1,1,VCC*%
%TO.N,+3.3V*%
X126847600Y-80213200D03*
%TO.P,U1,2,DOUT/DIO13*%
%TO.N,unconnected-(U1-DOUT{slash}DIO13-Pad2)*%
X124847600Y-80213200D03*
%TO.P,U1,3,DIN/!CONFIG/DIO14*%
%TO.N,unconnected-(U1-DIN{slash}!CONFIG{slash}DIO14-Pad3)*%
X122847600Y-80213200D03*
%TO.P,U1,4,DIO12/SPI_MISO*%
%TO.N,unconnected-(U1-DIO12{slash}SPI_MISO-Pad4)*%
X120847600Y-80246200D03*
%TO.P,U1,5,!RESET*%
%TO.N,unconnected-(U1-!RESET-Pad5)*%
X118847600Y-80213200D03*
%TO.P,U1,6,RSSI_PWM/DIO10*%
%TO.N,unconnected-(U1-RSSI_PWM{slash}DIO10-Pad6)*%
X116847600Y-80213200D03*
%TO.P,U1,7,PWM1/DIO11/I2C_SDA*%
%TO.N,unconnected-(U1-PWM1{slash}DIO11{slash}I2C_SDA-Pad7)*%
X114847600Y-80213200D03*
%TO.P,U1,8,[reserved]*%
%TO.N,unconnected-(U1-[reserved]-Pad8)*%
X112847600Y-80213200D03*
%TO.P,U1,9,!DTR/SLEEP_RQ/DIO8*%
%TO.N,unconnected-(U1-!DTR{slash}SLEEP_RQ{slash}DIO8-Pad9)*%
X110847600Y-80213200D03*
%TO.P,U1,10,GND*%
%TO.N,GND*%
X108847600Y-80213200D03*
%TO.P,U1,11,DIO4/SPI_MOSI*%
%TO.N,unconnected-(U1-DIO4{slash}SPI_MOSI-Pad11)*%
X108847600Y-58249800D03*
%TO.P,U1,12,!CTS/DIO7*%
%TO.N,unconnected-(U1-!CTS{slash}DIO7-Pad12)*%
X110847600Y-58249800D03*
%TO.P,U1,13,ON/!SLEEP/DIO9*%
%TO.N,unconnected-(U1-ON{slash}!SLEEP{slash}DIO9-Pad13)*%
X112847600Y-58249800D03*
%TO.P,U1,14,[reserved]*%
%TO.N,unconnected-(U1-[reserved]-Pad14)*%
X114847600Y-58249800D03*
%TO.P,U1,15,ASSOCIATE/DIO5*%
%TO.N,unconnected-(U1-ASSOCIATE{slash}DIO5-Pad15)*%
X116847600Y-58249800D03*
%TO.P,U1,16,!RTS/DIO6*%
%TO.N,unconnected-(U1-!RTS{slash}DIO6-Pad16)*%
X118847600Y-58249800D03*
%TO.P,U1,17,AD3/DIO3/SPI_!SSEL*%
%TO.N,unconnected-(U1-AD3{slash}DIO3{slash}SPI_!SSEL-Pad17)*%
X120847600Y-58249800D03*
%TO.P,U1,18,AD2/DIO2/SPI_CLK*%
%TO.N,unconnected-(U1-AD2{slash}DIO2{slash}SPI_CLK-Pad18)*%
X122847600Y-58249800D03*
%TO.P,U1,19,AD1/DIO1/SPI_!ATTN/I2C_SCL*%
%TO.N,unconnected-(U1-AD1{slash}DIO1{slash}SPI_!ATTN{slash}I2C_SCL-Pad19)*%
X124847600Y-58249800D03*
%TO.P,U1,20,AD0/DIO0*%
%TO.N,Net-(U1-AD0{slash}DIO0)*%
X126847600Y-58249800D03*
%TD*%
D16*
%TO.N,+5V*%
X60553600Y-66192400D03*
%TO.N,GND*%
X60502800Y-63703200D03*
%TD*%
D17*
%TO.N,+5V*%
X63086200Y-63659800D02*
X60553600Y-66192400D01*
X63086200Y-57969300D02*
X63086200Y-63659800D01*
X63301580Y-58694300D02*
X63086200Y-58478920D01*
X65370820Y-58694300D02*
X63301580Y-58694300D01*
X63086200Y-58478920D02*
X63086200Y-57969300D01*
X65586200Y-58478920D02*
X65370820Y-58694300D01*
X65586200Y-57969300D02*
X65586200Y-58478920D01*
X63086200Y-57459680D02*
X63086200Y-57969300D01*
X62836200Y-57209680D02*
X63086200Y-57459680D01*
X62836200Y-56469300D02*
X62836200Y-57209680D01*
X65586200Y-57459680D02*
X65586200Y-57969300D01*
X65336200Y-57209680D02*
X65586200Y-57459680D01*
X65336200Y-56469300D02*
X65336200Y-57209680D01*
%TO.N,GND*%
X66620820Y-55744300D02*
X66836200Y-55959680D01*
X61551580Y-55744300D02*
X66620820Y-55744300D01*
X66836200Y-55959680D02*
X66836200Y-56469300D01*
X61336200Y-56469300D02*
X61336200Y-55959680D01*
X61336200Y-55959680D02*
X61551580Y-55744300D01*
X61341200Y-56474300D02*
X61341200Y-57724300D01*
X61341200Y-57724300D02*
X61586200Y-57969300D01*
X61336200Y-56469300D02*
X61341200Y-56474300D01*
X61586200Y-62619800D02*
X60502800Y-63703200D01*
X61586200Y-57969300D02*
X61586200Y-62619800D01*
X66836200Y-56469300D02*
X67081200Y-56714300D01*
X67081200Y-56714300D02*
X67081200Y-57964300D01*
%TD*%
%TA.AperFunction,Conductor*%
%TO.N,GND*%
G36*
X136882219Y-54248584D02*
G01*
X137014228Y-54255503D01*
X137197627Y-54265803D01*
X137203812Y-54266465D01*
X137356247Y-54290608D01*
X137518794Y-54318226D01*
X137524411Y-54319453D01*
X137677293Y-54360418D01*
X137769722Y-54387046D01*
X137832324Y-54405082D01*
X137837359Y-54406769D01*
X137986783Y-54464127D01*
X138134607Y-54525358D01*
X138139012Y-54527388D01*
X138204780Y-54560899D01*
X138282521Y-54600511D01*
X138358028Y-54642241D01*
X138422080Y-54677641D01*
X138425815Y-54679882D01*
X138500087Y-54728115D01*
X138561472Y-54767980D01*
X138648957Y-54830053D01*
X138691364Y-54860142D01*
X138694486Y-54862510D01*
X138819348Y-54963621D01*
X138821634Y-54965567D01*
X138939321Y-55070738D01*
X138941848Y-55073128D01*
X139055470Y-55186750D01*
X139057860Y-55189277D01*
X139163031Y-55306964D01*
X139164985Y-55309260D01*
X139266080Y-55434102D01*
X139268462Y-55437243D01*
X139360619Y-55567127D01*
X139414358Y-55649875D01*
X139448706Y-55702767D01*
X139450964Y-55706531D01*
X139528088Y-55846078D01*
X139601204Y-55989575D01*
X139603243Y-55993997D01*
X139664477Y-56141829D01*
X139721821Y-56291217D01*
X139723516Y-56296273D01*
X139768179Y-56451297D01*
X139809141Y-56604171D01*
X139810378Y-56609835D01*
X139837994Y-56772369D01*
X139862130Y-56924758D01*
X139862796Y-56930985D01*
X139873109Y-57114617D01*
X139880015Y-57246377D01*
X139880100Y-57249623D01*
X139880100Y-81246376D01*
X139880015Y-81249622D01*
X139873109Y-81381382D01*
X139862796Y-81565013D01*
X139862130Y-81571240D01*
X139837994Y-81723630D01*
X139810378Y-81886163D01*
X139809141Y-81891827D01*
X139768179Y-82044702D01*
X139723516Y-82199725D01*
X139721821Y-82204781D01*
X139664477Y-82354170D01*
X139603243Y-82502001D01*
X139601204Y-82506423D01*
X139528088Y-82649921D01*
X139450964Y-82789467D01*
X139448697Y-82793246D01*
X139360619Y-82928872D01*
X139268462Y-83058755D01*
X139266080Y-83061896D01*
X139164985Y-83186738D01*
X139163031Y-83189034D01*
X139057860Y-83306721D01*
X139055470Y-83309248D01*
X138941848Y-83422870D01*
X138939321Y-83425260D01*
X138821634Y-83530431D01*
X138819338Y-83532385D01*
X138694496Y-83633480D01*
X138691355Y-83635862D01*
X138561472Y-83728019D01*
X138425846Y-83816097D01*
X138422067Y-83818364D01*
X138282521Y-83895488D01*
X138139023Y-83968604D01*
X138134601Y-83970643D01*
X137986770Y-84031877D01*
X137837381Y-84089221D01*
X137832325Y-84090916D01*
X137677302Y-84135579D01*
X137524427Y-84176541D01*
X137518763Y-84177778D01*
X137356230Y-84205394D01*
X137203840Y-84229530D01*
X137197613Y-84230196D01*
X137013982Y-84240509D01*
X136882222Y-84247415D01*
X136878976Y-84247500D01*
X52882224Y-84247500D01*
X52878978Y-84247415D01*
X52747217Y-84240509D01*
X52563585Y-84230196D01*
X52557358Y-84229530D01*
X52404969Y-84205394D01*
X52242435Y-84177778D01*
X52236771Y-84176541D01*
X52083897Y-84135579D01*
X51928873Y-84090916D01*
X51923817Y-84089221D01*
X51774429Y-84031877D01*
X51626597Y-83970643D01*
X51622175Y-83968604D01*
X51478678Y-83895488D01*
X51339131Y-83818364D01*
X51335367Y-83816106D01*
X51282475Y-83781758D01*
X51199727Y-83728019D01*
X51069843Y-83635862D01*
X51066702Y-83633480D01*
X50941860Y-83532385D01*
X50939564Y-83530431D01*
X50821877Y-83425260D01*
X50819350Y-83422870D01*
X50705728Y-83309248D01*
X50703338Y-83306721D01*
X50598167Y-83189034D01*
X50596213Y-83186738D01*
X50557448Y-83138867D01*
X50495110Y-83061886D01*
X50492736Y-83058755D01*
X50400580Y-82928872D01*
X50368006Y-82878715D01*
X50312482Y-82793215D01*
X50310241Y-82789480D01*
X50273777Y-82723502D01*
X50233111Y-82649921D01*
X50184509Y-82554537D01*
X50159988Y-82506412D01*
X50157958Y-82502007D01*
X50096722Y-82354170D01*
X50039369Y-82204759D01*
X50037682Y-82199724D01*
X50000259Y-82069828D01*
X49993014Y-82044679D01*
X49971559Y-81964608D01*
X49952053Y-81891811D01*
X49950826Y-81886194D01*
X49923201Y-81723606D01*
X49899065Y-81571212D01*
X49898403Y-81565027D01*
X49888090Y-81381382D01*
X49881184Y-81249620D01*
X49881142Y-81248004D01*
X51374957Y-81248004D01*
X51376361Y-81264941D01*
X51382629Y-81340589D01*
X51382950Y-81344456D01*
X51383162Y-81349579D01*
X51383162Y-81372081D01*
X51386865Y-81394282D01*
X51387499Y-81399365D01*
X51395491Y-81495816D01*
X51395491Y-81495818D01*
X51419254Y-81589657D01*
X51420305Y-81594672D01*
X51424007Y-81616854D01*
X51424009Y-81616862D01*
X51431314Y-81638141D01*
X51432776Y-81643053D01*
X51456535Y-81736874D01*
X51456539Y-81736887D01*
X51495415Y-81825515D01*
X51497277Y-81830286D01*
X51504586Y-81851576D01*
X51504588Y-81851579D01*
X51515298Y-81871371D01*
X51517548Y-81875975D01*
X51556427Y-81964608D01*
X51609364Y-82045634D01*
X51611988Y-82050038D01*
X51622695Y-82069823D01*
X51622698Y-82069828D01*
X51636526Y-82087595D01*
X51639503Y-82091765D01*
X51692434Y-82172782D01*
X51692438Y-82172787D01*
X51757993Y-82244000D01*
X51761306Y-82247911D01*
X51775122Y-82265662D01*
X51791680Y-82280905D01*
X51795294Y-82284519D01*
X51860856Y-82355738D01*
X51937251Y-82415199D01*
X51941147Y-82418499D01*
X51947513Y-82424360D01*
X51957699Y-82433737D01*
X51976536Y-82446044D01*
X51980702Y-82449018D01*
X52057091Y-82508474D01*
X52142240Y-82554554D01*
X52146601Y-82557153D01*
X52165455Y-82569471D01*
X52186094Y-82578524D01*
X52190633Y-82580743D01*
X52275790Y-82626828D01*
X52367354Y-82658262D01*
X52372089Y-82660109D01*
X52392716Y-82669157D01*
X52414532Y-82674681D01*
X52419416Y-82676135D01*
X52490689Y-82700603D01*
X52510985Y-82707571D01*
X52544789Y-82713211D01*
X52606466Y-82723503D01*
X52611479Y-82724555D01*
X52633276Y-82730075D01*
X52633278Y-82730075D01*
X52633285Y-82730077D01*
X52655725Y-82731936D01*
X52660769Y-82732564D01*
X52756265Y-82748500D01*
X52756266Y-82748500D01*
X52853048Y-82748500D01*
X52858161Y-82748711D01*
X52874015Y-82750025D01*
X52880598Y-82750571D01*
X52880600Y-82750571D01*
X52880602Y-82750571D01*
X52887184Y-82750025D01*
X52903038Y-82748711D01*
X52908152Y-82748500D01*
X53004930Y-82748500D01*
X53004935Y-82748500D01*
X53100451Y-82732561D01*
X53105462Y-82731937D01*
X53127915Y-82730077D01*
X53149753Y-82724546D01*
X53154705Y-82723508D01*
X53250214Y-82707571D01*
X53341798Y-82676129D01*
X53346642Y-82674688D01*
X53368484Y-82669157D01*
X53389100Y-82660113D01*
X53393834Y-82658265D01*
X53485410Y-82626828D01*
X53570575Y-82580738D01*
X53575105Y-82578524D01*
X53595745Y-82569471D01*
X53614608Y-82557146D01*
X53618937Y-82554566D01*
X53704109Y-82508474D01*
X53780531Y-82448992D01*
X53784618Y-82446073D01*
X53803498Y-82433739D01*
X53820066Y-82418487D01*
X53823941Y-82415204D01*
X53900344Y-82355738D01*
X53965913Y-82284510D01*
X53969497Y-82280925D01*
X53986077Y-82265663D01*
X53999920Y-82247876D01*
X54003181Y-82244026D01*
X54068764Y-82172785D01*
X54121727Y-82091718D01*
X54124653Y-82087620D01*
X54138502Y-82069828D01*
X54149223Y-82050016D01*
X54151833Y-82045636D01*
X54204773Y-81964607D01*
X54243661Y-81875950D01*
X54245899Y-81871375D01*
X54245901Y-81871371D01*
X54256614Y-81851576D01*
X54263936Y-81830246D01*
X54265762Y-81825564D01*
X54304663Y-81736881D01*
X54328426Y-81643041D01*
X54329878Y-81638162D01*
X54337192Y-81616859D01*
X54340896Y-81594658D01*
X54341940Y-81589677D01*
X54365708Y-81495821D01*
X54373704Y-81399321D01*
X54374333Y-81394282D01*
X54378038Y-81372081D01*
X54378688Y-81340589D01*
X54378883Y-81336812D01*
X54386243Y-81248000D01*
X54386108Y-81246376D01*
X54381118Y-81186154D01*
X54378884Y-81159190D01*
X54378688Y-81155407D01*
X54378038Y-81123919D01*
X54374333Y-81101714D01*
X54373703Y-81096666D01*
X54365708Y-81000179D01*
X54341941Y-80906327D01*
X54340895Y-80901334D01*
X54338495Y-80886953D01*
X54337192Y-80879141D01*
X54329883Y-80857850D01*
X54328425Y-80852952D01*
X54309555Y-80778437D01*
X54304663Y-80759119D01*
X54265774Y-80670461D01*
X54263929Y-80665734D01*
X54256614Y-80644424D01*
X54245898Y-80624622D01*
X54243652Y-80620029D01*
X54204773Y-80531393D01*
X54204773Y-80531392D01*
X54151831Y-80450358D01*
X54149207Y-80445954D01*
X54142297Y-80433186D01*
X54138502Y-80426172D01*
X54124680Y-80408413D01*
X54121702Y-80404242D01*
X54068766Y-80323218D01*
X54068765Y-80323217D01*
X54068764Y-80323215D01*
X54038841Y-80290710D01*
X54003206Y-80251999D01*
X53999895Y-80248090D01*
X53986077Y-80230337D01*
X53986073Y-80230332D01*
X53969519Y-80215093D01*
X53967625Y-80213200D01*
X107580779Y-80213200D01*
X107600024Y-80433176D01*
X107600026Y-80433186D01*
X107657175Y-80646470D01*
X107657180Y-80646484D01*
X107750499Y-80846607D01*
X107750500Y-80846609D01*
X107795858Y-80911387D01*
X108462696Y-80244549D01*
X108462651Y-80245098D01*
X108493866Y-80368362D01*
X108563413Y-80474812D01*
X108663757Y-80552913D01*
X108784022Y-80594200D01*
X108820153Y-80594200D01*
X108149411Y-81264941D01*
X108214182Y-81310294D01*
X108214192Y-81310300D01*
X108414315Y-81403619D01*
X108414329Y-81403624D01*
X108627613Y-81460773D01*
X108627623Y-81460775D01*
X108847599Y-81480021D01*
X108847601Y-81480021D01*
X109067576Y-81460775D01*
X109067586Y-81460773D01*
X109280870Y-81403624D01*
X109280884Y-81403619D01*
X109481008Y-81310300D01*
X109481020Y-81310293D01*
X109545786Y-81264942D01*
X109545787Y-81264940D01*
X108875048Y-80594200D01*
X108879169Y-80594200D01*
X108973021Y-80578539D01*
X109084851Y-80518020D01*
X109170971Y-80424469D01*
X109222048Y-80308023D01*
X109227705Y-80239752D01*
X109899340Y-80911386D01*
X109902938Y-80906248D01*
X109957515Y-80862623D01*
X110027014Y-80855431D01*
X110089369Y-80886953D01*
X110100366Y-80898707D01*
X110128189Y-80932610D01*
X110210512Y-81000170D01*
X110282363Y-81059136D01*
X110282366Y-81059137D01*
X110282368Y-81059139D01*
X110458251Y-81153151D01*
X110458254Y-81153151D01*
X110458258Y-81153154D01*
X110649115Y-81211050D01*
X110847600Y-81230599D01*
X111046085Y-81211050D01*
X111236942Y-81153154D01*
X111249543Y-81146419D01*
X111412831Y-81059139D01*
X111412829Y-81059139D01*
X111412837Y-81059136D01*
X111567010Y-80932610D01*
X111693536Y-80778437D01*
X111738242Y-80694799D01*
X111787204Y-80644955D01*
X111855341Y-80629494D01*
X111921021Y-80653325D01*
X111956958Y-80694799D01*
X112001660Y-80778431D01*
X112001665Y-80778438D01*
X112128189Y-80932610D01*
X112210512Y-81000170D01*
X112282363Y-81059136D01*
X112282366Y-81059137D01*
X112282368Y-81059139D01*
X112458251Y-81153151D01*
X112458254Y-81153151D01*
X112458258Y-81153154D01*
X112649115Y-81211050D01*
X112847600Y-81230599D01*
X113046085Y-81211050D01*
X113236942Y-81153154D01*
X113249543Y-81146419D01*
X113412831Y-81059139D01*
X113412829Y-81059139D01*
X113412837Y-81059136D01*
X113567010Y-80932610D01*
X113693536Y-80778437D01*
X113738242Y-80694799D01*
X113787204Y-80644955D01*
X113855341Y-80629494D01*
X113921021Y-80653325D01*
X113956958Y-80694799D01*
X114001660Y-80778431D01*
X114001665Y-80778438D01*
X114128189Y-80932610D01*
X114210512Y-81000170D01*
X114282363Y-81059136D01*
X114282366Y-81059137D01*
X114282368Y-81059139D01*
X114458251Y-81153151D01*
X114458254Y-81153151D01*
X114458258Y-81153154D01*
X114649115Y-81211050D01*
X114847600Y-81230599D01*
X115046085Y-81211050D01*
X115236942Y-81153154D01*
X115249543Y-81146419D01*
X115412831Y-81059139D01*
X115412829Y-81059139D01*
X115412837Y-81059136D01*
X115567010Y-80932610D01*
X115693536Y-80778437D01*
X115738242Y-80694799D01*
X115787204Y-80644955D01*
X115855341Y-80629494D01*
X115921021Y-80653325D01*
X115956958Y-80694799D01*
X116001660Y-80778431D01*
X116001665Y-80778438D01*
X116128189Y-80932610D01*
X116210512Y-81000170D01*
X116282363Y-81059136D01*
X116282366Y-81059137D01*
X116282368Y-81059139D01*
X116458251Y-81153151D01*
X116458254Y-81153151D01*
X116458258Y-81153154D01*
X116649115Y-81211050D01*
X116847600Y-81230599D01*
X117046085Y-81211050D01*
X117236942Y-81153154D01*
X117249543Y-81146419D01*
X117412831Y-81059139D01*
X117412829Y-81059139D01*
X117412837Y-81059136D01*
X117567010Y-80932610D01*
X117693536Y-80778437D01*
X117738242Y-80694799D01*
X117787204Y-80644955D01*
X117855341Y-80629494D01*
X117921021Y-80653325D01*
X117956958Y-80694799D01*
X118001660Y-80778431D01*
X118001665Y-80778438D01*
X118128189Y-80932610D01*
X118210512Y-81000170D01*
X118282363Y-81059136D01*
X118282366Y-81059137D01*
X118282368Y-81059139D01*
X118458251Y-81153151D01*
X118458254Y-81153151D01*
X118458258Y-81153154D01*
X118649115Y-81211050D01*
X118847600Y-81230599D01*
X119046085Y-81211050D01*
X119236942Y-81153154D01*
X119249543Y-81146419D01*
X119412831Y-81059139D01*
X119412829Y-81059139D01*
X119412837Y-81059136D01*
X119567010Y-80932610D01*
X119693536Y-80778437D01*
X119729422Y-80711298D01*
X119778383Y-80661455D01*
X119846521Y-80645994D01*
X119912201Y-80669825D01*
X119948138Y-80711299D01*
X120001659Y-80811431D01*
X120001665Y-80811438D01*
X120128189Y-80965610D01*
X120235475Y-81053656D01*
X120282363Y-81092136D01*
X120282366Y-81092137D01*
X120282368Y-81092139D01*
X120458251Y-81186151D01*
X120458254Y-81186151D01*
X120458258Y-81186154D01*
X120649115Y-81244050D01*
X120847600Y-81263599D01*
X121005939Y-81248004D01*
X135374957Y-81248004D01*
X135376361Y-81264941D01*
X135382629Y-81340589D01*
X135382950Y-81344456D01*
X135383162Y-81349579D01*
X135383162Y-81372081D01*
X135386865Y-81394282D01*
X135387499Y-81399365D01*
X135395491Y-81495816D01*
X135395491Y-81495818D01*
X135419254Y-81589657D01*
X135420305Y-81594672D01*
X135424007Y-81616854D01*
X135424009Y-81616862D01*
X135431314Y-81638141D01*
X135432776Y-81643053D01*
X135456535Y-81736874D01*
X135456539Y-81736887D01*
X135495415Y-81825515D01*
X135497277Y-81830286D01*
X135504586Y-81851576D01*
X135504588Y-81851579D01*
X135515298Y-81871371D01*
X135517548Y-81875975D01*
X135556427Y-81964608D01*
X135609364Y-82045634D01*
X135611988Y-82050038D01*
X135622695Y-82069823D01*
X135622698Y-82069828D01*
X135636526Y-82087595D01*
X135639503Y-82091765D01*
X135692434Y-82172782D01*
X135692438Y-82172787D01*
X135757993Y-82244000D01*
X135761306Y-82247911D01*
X135775122Y-82265662D01*
X135791680Y-82280905D01*
X135795294Y-82284519D01*
X135860856Y-82355738D01*
X135937251Y-82415199D01*
X135941147Y-82418499D01*
X135947513Y-82424360D01*
X135957699Y-82433737D01*
X135976536Y-82446044D01*
X135980702Y-82449018D01*
X136057091Y-82508474D01*
X136142240Y-82554554D01*
X136146601Y-82557153D01*
X136165455Y-82569471D01*
X136186094Y-82578524D01*
X136190633Y-82580743D01*
X136275790Y-82626828D01*
X136367354Y-82658262D01*
X136372089Y-82660109D01*
X136392716Y-82669157D01*
X136414532Y-82674681D01*
X136419416Y-82676135D01*
X136490689Y-82700603D01*
X136510985Y-82707571D01*
X136544789Y-82713211D01*
X136606466Y-82723503D01*
X136611479Y-82724555D01*
X136633276Y-82730075D01*
X136633278Y-82730075D01*
X136633285Y-82730077D01*
X136655725Y-82731936D01*
X136660769Y-82732564D01*
X136756265Y-82748500D01*
X136756266Y-82748500D01*
X136853048Y-82748500D01*
X136858161Y-82748711D01*
X136874015Y-82750025D01*
X136880598Y-82750571D01*
X136880600Y-82750571D01*
X136880602Y-82750571D01*
X136887184Y-82750025D01*
X136903038Y-82748711D01*
X136908152Y-82748500D01*
X137004930Y-82748500D01*
X137004935Y-82748500D01*
X137100451Y-82732561D01*
X137105462Y-82731937D01*
X137127915Y-82730077D01*
X137149753Y-82724546D01*
X137154705Y-82723508D01*
X137250214Y-82707571D01*
X137341798Y-82676129D01*
X137346642Y-82674688D01*
X137368484Y-82669157D01*
X137389100Y-82660113D01*
X137393834Y-82658265D01*
X137485410Y-82626828D01*
X137570575Y-82580738D01*
X137575105Y-82578524D01*
X137595745Y-82569471D01*
X137614608Y-82557146D01*
X137618937Y-82554566D01*
X137704109Y-82508474D01*
X137780531Y-82448992D01*
X137784618Y-82446073D01*
X137803498Y-82433739D01*
X137820066Y-82418487D01*
X137823941Y-82415204D01*
X137900344Y-82355738D01*
X137965913Y-82284510D01*
X137969497Y-82280925D01*
X137986077Y-82265663D01*
X137999920Y-82247876D01*
X138003181Y-82244026D01*
X138068764Y-82172785D01*
X138121727Y-82091718D01*
X138124653Y-82087620D01*
X138138502Y-82069828D01*
X138149223Y-82050016D01*
X138151833Y-82045636D01*
X138204773Y-81964607D01*
X138243661Y-81875950D01*
X138245899Y-81871375D01*
X138245901Y-81871371D01*
X138256614Y-81851576D01*
X138263936Y-81830246D01*
X138265762Y-81825564D01*
X138304663Y-81736881D01*
X138328426Y-81643041D01*
X138329878Y-81638162D01*
X138337192Y-81616859D01*
X138340896Y-81594658D01*
X138341940Y-81589677D01*
X138365708Y-81495821D01*
X138373704Y-81399321D01*
X138374333Y-81394282D01*
X138378038Y-81372081D01*
X138378688Y-81340589D01*
X138378883Y-81336812D01*
X138386243Y-81248000D01*
X138386108Y-81246376D01*
X138381118Y-81186154D01*
X138378884Y-81159190D01*
X138378688Y-81155407D01*
X138378038Y-81123919D01*
X138374333Y-81101714D01*
X138373703Y-81096666D01*
X138365708Y-81000179D01*
X138341941Y-80906327D01*
X138340895Y-80901334D01*
X138338495Y-80886953D01*
X138337192Y-80879141D01*
X138329883Y-80857850D01*
X138328425Y-80852952D01*
X138309555Y-80778437D01*
X138304663Y-80759119D01*
X138265774Y-80670461D01*
X138263929Y-80665734D01*
X138256614Y-80644424D01*
X138245898Y-80624622D01*
X138243652Y-80620029D01*
X138204773Y-80531393D01*
X138204773Y-80531392D01*
X138151831Y-80450358D01*
X138149207Y-80445954D01*
X138142297Y-80433186D01*
X138138502Y-80426172D01*
X138124680Y-80408413D01*
X138121702Y-80404242D01*
X138068766Y-80323218D01*
X138068765Y-80323217D01*
X138068764Y-80323215D01*
X138038841Y-80290710D01*
X138003206Y-80251999D01*
X137999895Y-80248090D01*
X137986077Y-80230337D01*
X137986073Y-80230332D01*
X137969519Y-80215093D01*
X137965901Y-80211476D01*
X137900344Y-80140262D01*
X137823952Y-80080804D01*
X137820044Y-80077493D01*
X137803498Y-80062261D01*
X137784663Y-80049955D01*
X137780497Y-80046981D01*
X137704109Y-79987526D01*
X137704108Y-79987525D01*
X137704105Y-79987523D01*
X137704103Y-79987522D01*
X137618985Y-79941459D01*
X137614581Y-79938835D01*
X137595745Y-79926529D01*
X137575147Y-79917494D01*
X137570540Y-79915242D01*
X137485411Y-79869172D01*
X137485402Y-79869169D01*
X137393859Y-79837742D01*
X137389084Y-79835879D01*
X137388912Y-79835803D01*
X137368484Y-79826843D01*
X137368480Y-79826842D01*
X137368478Y-79826841D01*
X137346676Y-79821319D01*
X137341766Y-79819858D01*
X137250214Y-79788429D01*
X137154738Y-79772496D01*
X137149723Y-79771444D01*
X137127912Y-79765922D01*
X137127916Y-79765922D01*
X137105495Y-79764065D01*
X137100410Y-79763431D01*
X137004936Y-79747500D01*
X137004935Y-79747500D01*
X136908141Y-79747500D01*
X136903027Y-79747288D01*
X136887155Y-79745973D01*
X136880602Y-79745430D01*
X136880598Y-79745430D01*
X136874044Y-79745973D01*
X136858172Y-79747288D01*
X136853059Y-79747500D01*
X136756265Y-79747500D01*
X136660788Y-79763431D01*
X136655703Y-79764065D01*
X136633288Y-79765922D01*
X136633283Y-79765923D01*
X136611480Y-79771444D01*
X136606466Y-79772495D01*
X136510982Y-79788429D01*
X136419434Y-79819856D01*
X136414527Y-79821317D01*
X136392726Y-79826839D01*
X136392716Y-79826843D01*
X136372110Y-79835881D01*
X136367338Y-79837742D01*
X136275794Y-79869170D01*
X136275783Y-79869175D01*
X136190662Y-79915240D01*
X136186058Y-79917491D01*
X136165454Y-79926529D01*
X136165445Y-79926534D01*
X136146623Y-79938831D01*
X136142221Y-79941455D01*
X136057092Y-79987524D01*
X136057089Y-79987527D01*
X135980706Y-80046977D01*
X135976538Y-80049954D01*
X135957699Y-80062263D01*
X135941142Y-80077503D01*
X135937235Y-80080812D01*
X135860855Y-80140262D01*
X135795297Y-80211476D01*
X135791675Y-80215098D01*
X135775129Y-80230330D01*
X135775114Y-80230346D01*
X135761299Y-80248094D01*
X135757990Y-80252001D01*
X135692436Y-80323215D01*
X135639501Y-80404236D01*
X135636525Y-80408404D01*
X135622699Y-80426170D01*
X135622694Y-80426177D01*
X135611986Y-80445964D01*
X135609363Y-80450365D01*
X135556428Y-80531390D01*
X135517553Y-80620015D01*
X135515304Y-80624615D01*
X135504585Y-80644424D01*
X135497276Y-80665714D01*
X135495414Y-80670487D01*
X135484750Y-80694799D01*
X135456539Y-80759116D01*
X135456536Y-80759122D01*
X135432777Y-80852942D01*
X135431316Y-80857850D01*
X135424008Y-80879140D01*
X135420305Y-80901327D01*
X135419254Y-80906342D01*
X135395491Y-81000178D01*
X135395491Y-81000182D01*
X135387498Y-81096634D01*
X135386865Y-81101714D01*
X135383162Y-81123919D01*
X135383162Y-81146419D01*
X135382950Y-81151535D01*
X135382313Y-81159228D01*
X135374957Y-81247994D01*
X135374957Y-81248004D01*
X121005939Y-81248004D01*
X121046085Y-81244050D01*
X121236942Y-81186154D01*
X121294466Y-81155407D01*
X121394918Y-81101714D01*
X121412837Y-81092136D01*
X121567010Y-80965610D01*
X121693536Y-80811437D01*
X121747062Y-80711296D01*
X121796023Y-80661455D01*
X121864160Y-80645994D01*
X121929840Y-80669825D01*
X121965777Y-80711299D01*
X122001659Y-80778431D01*
X122001665Y-80778438D01*
X122128189Y-80932610D01*
X122210512Y-81000170D01*
X122282363Y-81059136D01*
X122282366Y-81059137D01*
X122282368Y-81059139D01*
X122458251Y-81153151D01*
X122458254Y-81153151D01*
X122458258Y-81153154D01*
X122649115Y-81211050D01*
X122847600Y-81230599D01*
X123046085Y-81211050D01*
X123236942Y-81153154D01*
X123249543Y-81146419D01*
X123412831Y-81059139D01*
X123412829Y-81059139D01*
X123412837Y-81059136D01*
X123567010Y-80932610D01*
X123693536Y-80778437D01*
X123738242Y-80694799D01*
X123787204Y-80644955D01*
X123855341Y-80629494D01*
X123921021Y-80653325D01*
X123956958Y-80694799D01*
X124001660Y-80778431D01*
X124001665Y-80778438D01*
X124128189Y-80932610D01*
X124210512Y-81000170D01*
X124282363Y-81059136D01*
X124282366Y-81059137D01*
X124282368Y-81059139D01*
X124458251Y-81153151D01*
X124458254Y-81153151D01*
X124458258Y-81153154D01*
X124649115Y-81211050D01*
X124847600Y-81230599D01*
X125046085Y-81211050D01*
X125236942Y-81153154D01*
X125249543Y-81146419D01*
X125412831Y-81059139D01*
X125412829Y-81059139D01*
X125412837Y-81059136D01*
X125567010Y-80932610D01*
X125693536Y-80778437D01*
X125738242Y-80694799D01*
X125787204Y-80644955D01*
X125855341Y-80629494D01*
X125921021Y-80653325D01*
X125956958Y-80694799D01*
X126001660Y-80778431D01*
X126001665Y-80778438D01*
X126128189Y-80932610D01*
X126210512Y-81000170D01*
X126282363Y-81059136D01*
X126282366Y-81059137D01*
X126282368Y-81059139D01*
X126458251Y-81153151D01*
X126458254Y-81153151D01*
X126458258Y-81153154D01*
X126649115Y-81211050D01*
X126847600Y-81230599D01*
X127046085Y-81211050D01*
X127236942Y-81153154D01*
X127249543Y-81146419D01*
X127412831Y-81059139D01*
X127412829Y-81059139D01*
X127412837Y-81059136D01*
X127567010Y-80932610D01*
X127693536Y-80778437D01*
X127760410Y-80653325D01*
X127787551Y-80602548D01*
X127787551Y-80602547D01*
X127787554Y-80602542D01*
X127845450Y-80411685D01*
X127864999Y-80213200D01*
X127845450Y-80014715D01*
X127787554Y-79823858D01*
X127787551Y-79823854D01*
X127787551Y-79823851D01*
X127693539Y-79647968D01*
X127693537Y-79647965D01*
X127693536Y-79647963D01*
X127627114Y-79567027D01*
X127567010Y-79493789D01*
X127412838Y-79367265D01*
X127412831Y-79367260D01*
X127236948Y-79273248D01*
X127236942Y-79273246D01*
X127046085Y-79215350D01*
X127046083Y-79215349D01*
X127046081Y-79215349D01*
X126847600Y-79195801D01*
X126649118Y-79215349D01*
X126458251Y-79273248D01*
X126282368Y-79367260D01*
X126282361Y-79367265D01*
X126128189Y-79493789D01*
X126001665Y-79647961D01*
X126001659Y-79647968D01*
X125956958Y-79731600D01*
X125907996Y-79781445D01*
X125839858Y-79796905D01*
X125774178Y-79773073D01*
X125738242Y-79731600D01*
X125693540Y-79647968D01*
X125693534Y-79647961D01*
X125567010Y-79493789D01*
X125412838Y-79367265D01*
X125412831Y-79367260D01*
X125236948Y-79273248D01*
X125236942Y-79273246D01*
X125046085Y-79215350D01*
X125046083Y-79215349D01*
X125046081Y-79215349D01*
X124847600Y-79195801D01*
X124649118Y-79215349D01*
X124458251Y-79273248D01*
X124282368Y-79367260D01*
X124282361Y-79367265D01*
X124128189Y-79493789D01*
X124001665Y-79647961D01*
X124001659Y-79647968D01*
X123956958Y-79731600D01*
X123907996Y-79781445D01*
X123839858Y-79796905D01*
X123774178Y-79773073D01*
X123738242Y-79731600D01*
X123693540Y-79647968D01*
X123693534Y-79647961D01*
X123567010Y-79493789D01*
X123412838Y-79367265D01*
X123412831Y-79367260D01*
X123236948Y-79273248D01*
X123236942Y-79273246D01*
X123046085Y-79215350D01*
X123046083Y-79215349D01*
X123046081Y-79215349D01*
X122847600Y-79195801D01*
X122649118Y-79215349D01*
X122458251Y-79273248D01*
X122282368Y-79367260D01*
X122282361Y-79367265D01*
X122128189Y-79493789D01*
X122001665Y-79647961D01*
X122001662Y-79647965D01*
X121948138Y-79748101D01*
X121899175Y-79797945D01*
X121831037Y-79813405D01*
X121765358Y-79789573D01*
X121729422Y-79748100D01*
X121693539Y-79680968D01*
X121693537Y-79680965D01*
X121693536Y-79680963D01*
X121610503Y-79579786D01*
X121567010Y-79526789D01*
X121412838Y-79400265D01*
X121412831Y-79400260D01*
X121236948Y-79306248D01*
X121236942Y-79306246D01*
X121046085Y-79248350D01*
X121046083Y-79248349D01*
X121046081Y-79248349D01*
X120847600Y-79228801D01*
X120649118Y-79248349D01*
X120458251Y-79306248D01*
X120282368Y-79400260D01*
X120282361Y-79400265D01*
X120128189Y-79526789D01*
X120001665Y-79680961D01*
X120001662Y-79680965D01*
X119965777Y-79748101D01*
X119916814Y-79797945D01*
X119848676Y-79813405D01*
X119782997Y-79789573D01*
X119747061Y-79748100D01*
X119693539Y-79647968D01*
X119693537Y-79647965D01*
X119693536Y-79647963D01*
X119627114Y-79567027D01*
X119567010Y-79493789D01*
X119412838Y-79367265D01*
X119412831Y-79367260D01*
X119236948Y-79273248D01*
X119236942Y-79273246D01*
X119046085Y-79215350D01*
X119046083Y-79215349D01*
X119046081Y-79215349D01*
X118847600Y-79195801D01*
X118649118Y-79215349D01*
X118458251Y-79273248D01*
X118282368Y-79367260D01*
X118282361Y-79367265D01*
X118128189Y-79493789D01*
X118001665Y-79647961D01*
X118001659Y-79647968D01*
X117956958Y-79731600D01*
X117907996Y-79781445D01*
X117839858Y-79796905D01*
X117774178Y-79773073D01*
X117738242Y-79731600D01*
X117693540Y-79647968D01*
X117693534Y-79647961D01*
X117567010Y-79493789D01*
X117412838Y-79367265D01*
X117412831Y-79367260D01*
X117236948Y-79273248D01*
X117236942Y-79273246D01*
X117046085Y-79215350D01*
X117046083Y-79215349D01*
X117046081Y-79215349D01*
X116847600Y-79195801D01*
X116649118Y-79215349D01*
X116458251Y-79273248D01*
X116282368Y-79367260D01*
X116282361Y-79367265D01*
X116128189Y-79493789D01*
X116001665Y-79647961D01*
X116001659Y-79647968D01*
X115956958Y-79731600D01*
X115907996Y-79781445D01*
X115839858Y-79796905D01*
X115774178Y-79773073D01*
X115738242Y-79731600D01*
X115693540Y-79647968D01*
X115693534Y-79647961D01*
X115567010Y-79493789D01*
X115412838Y-79367265D01*
X115412831Y-79367260D01*
X115236948Y-79273248D01*
X115236942Y-79273246D01*
X115046085Y-79215350D01*
X115046083Y-79215349D01*
X115046081Y-79215349D01*
X114847600Y-79195801D01*
X114649118Y-79215349D01*
X114458251Y-79273248D01*
X114282368Y-79367260D01*
X114282361Y-79367265D01*
X114128189Y-79493789D01*
X114001665Y-79647961D01*
X114001659Y-79647968D01*
X113956958Y-79731600D01*
X113907996Y-79781445D01*
X113839858Y-79796905D01*
X113774178Y-79773073D01*
X113738242Y-79731600D01*
X113693540Y-79647968D01*
X113693534Y-79647961D01*
X113567010Y-79493789D01*
X113412838Y-79367265D01*
X113412831Y-79367260D01*
X113236948Y-79273248D01*
X113236942Y-79273246D01*
X113046085Y-79215350D01*
X113046083Y-79215349D01*
X113046081Y-79215349D01*
X112847600Y-79195801D01*
X112649118Y-79215349D01*
X112458251Y-79273248D01*
X112282368Y-79367260D01*
X112282361Y-79367265D01*
X112128189Y-79493789D01*
X112001665Y-79647961D01*
X112001659Y-79647968D01*
X111956958Y-79731600D01*
X111907996Y-79781445D01*
X111839858Y-79796905D01*
X111774178Y-79773073D01*
X111738242Y-79731600D01*
X111693540Y-79647968D01*
X111693534Y-79647961D01*
X111567010Y-79493789D01*
X111412838Y-79367265D01*
X111412831Y-79367260D01*
X111236948Y-79273248D01*
X111236942Y-79273246D01*
X111046085Y-79215350D01*
X111046083Y-79215349D01*
X111046081Y-79215349D01*
X110847600Y-79195801D01*
X110649118Y-79215349D01*
X110458251Y-79273248D01*
X110282368Y-79367260D01*
X110282361Y-79367265D01*
X110128188Y-79493790D01*
X110100365Y-79527693D01*
X110042619Y-79567027D01*
X109972774Y-79568896D01*
X109913007Y-79532708D01*
X109902938Y-79520150D01*
X109899339Y-79515011D01*
X109232503Y-80181848D01*
X109232549Y-80181302D01*
X109201334Y-80058038D01*
X109131787Y-79951588D01*
X109031443Y-79873487D01*
X108911178Y-79832200D01*
X108875047Y-79832200D01*
X109545787Y-79161458D01*
X109481009Y-79116100D01*
X109481007Y-79116099D01*
X109280884Y-79022780D01*
X109280870Y-79022775D01*
X109067586Y-78965626D01*
X109067576Y-78965624D01*
X108847601Y-78946379D01*
X108847599Y-78946379D01*
X108627623Y-78965624D01*
X108627613Y-78965626D01*
X108414329Y-79022775D01*
X108414320Y-79022779D01*
X108214186Y-79116103D01*
X108149412Y-79161457D01*
X108149411Y-79161458D01*
X108820154Y-79832200D01*
X108816031Y-79832200D01*
X108722179Y-79847861D01*
X108610349Y-79908380D01*
X108524229Y-80001931D01*
X108473152Y-80118377D01*
X108467494Y-80186647D01*
X107795858Y-79515011D01*
X107795857Y-79515012D01*
X107750503Y-79579786D01*
X107657179Y-79779920D01*
X107657175Y-79779929D01*
X107600026Y-79993213D01*
X107600024Y-79993223D01*
X107580779Y-80213199D01*
X107580779Y-80213200D01*
X53967625Y-80213200D01*
X53965901Y-80211476D01*
X53900344Y-80140262D01*
X53823952Y-80080804D01*
X53820044Y-80077493D01*
X53803498Y-80062261D01*
X53784663Y-80049955D01*
X53780497Y-80046981D01*
X53704109Y-79987526D01*
X53704108Y-79987525D01*
X53704105Y-79987523D01*
X53704103Y-79987522D01*
X53618985Y-79941459D01*
X53614581Y-79938835D01*
X53595745Y-79926529D01*
X53575147Y-79917494D01*
X53570540Y-79915242D01*
X53485411Y-79869172D01*
X53485402Y-79869169D01*
X53393859Y-79837742D01*
X53389084Y-79835879D01*
X53388912Y-79835803D01*
X53368484Y-79826843D01*
X53368480Y-79826842D01*
X53368478Y-79826841D01*
X53346676Y-79821319D01*
X53341766Y-79819858D01*
X53250214Y-79788429D01*
X53154738Y-79772496D01*
X53149723Y-79771444D01*
X53127912Y-79765922D01*
X53127916Y-79765922D01*
X53105495Y-79764065D01*
X53100410Y-79763431D01*
X53004936Y-79747500D01*
X53004935Y-79747500D01*
X52908141Y-79747500D01*
X52903027Y-79747288D01*
X52887155Y-79745973D01*
X52880602Y-79745430D01*
X52880598Y-79745430D01*
X52874044Y-79745973D01*
X52858172Y-79747288D01*
X52853059Y-79747500D01*
X52756265Y-79747500D01*
X52660788Y-79763431D01*
X52655703Y-79764065D01*
X52633288Y-79765922D01*
X52633283Y-79765923D01*
X52611480Y-79771444D01*
X52606466Y-79772495D01*
X52510982Y-79788429D01*
X52419434Y-79819856D01*
X52414527Y-79821317D01*
X52392726Y-79826839D01*
X52392716Y-79826843D01*
X52372110Y-79835881D01*
X52367338Y-79837742D01*
X52275794Y-79869170D01*
X52275783Y-79869175D01*
X52190662Y-79915240D01*
X52186058Y-79917491D01*
X52165454Y-79926529D01*
X52165445Y-79926534D01*
X52146623Y-79938831D01*
X52142221Y-79941455D01*
X52057092Y-79987524D01*
X52057089Y-79987527D01*
X51980706Y-80046977D01*
X51976538Y-80049954D01*
X51957699Y-80062263D01*
X51941142Y-80077503D01*
X51937235Y-80080812D01*
X51860855Y-80140262D01*
X51795297Y-80211476D01*
X51791675Y-80215098D01*
X51775129Y-80230330D01*
X51775114Y-80230346D01*
X51761299Y-80248094D01*
X51757990Y-80252001D01*
X51692436Y-80323215D01*
X51639501Y-80404236D01*
X51636525Y-80408404D01*
X51622699Y-80426170D01*
X51622694Y-80426177D01*
X51611986Y-80445964D01*
X51609363Y-80450365D01*
X51556428Y-80531390D01*
X51517553Y-80620015D01*
X51515304Y-80624615D01*
X51504585Y-80644424D01*
X51497276Y-80665714D01*
X51495414Y-80670487D01*
X51484750Y-80694799D01*
X51456539Y-80759116D01*
X51456536Y-80759122D01*
X51432777Y-80852942D01*
X51431316Y-80857850D01*
X51424008Y-80879140D01*
X51420305Y-80901327D01*
X51419254Y-80906342D01*
X51395491Y-81000178D01*
X51395491Y-81000182D01*
X51387498Y-81096634D01*
X51386865Y-81101714D01*
X51383162Y-81123919D01*
X51383162Y-81146419D01*
X51382950Y-81151535D01*
X51382313Y-81159228D01*
X51374957Y-81247994D01*
X51374957Y-81248004D01*
X49881142Y-81248004D01*
X49881100Y-81246377D01*
X49881100Y-74518982D01*
X51897269Y-74518982D01*
X51916850Y-74630024D01*
X51927736Y-74691760D01*
X51997224Y-74852853D01*
X51997225Y-74852855D01*
X51997227Y-74852858D01*
X52051879Y-74926267D01*
X52101991Y-74993579D01*
X52236387Y-75106351D01*
X52314089Y-75145374D01*
X52393163Y-75185087D01*
X52393164Y-75185087D01*
X52393168Y-75185089D01*
X52563880Y-75225549D01*
X52563883Y-75225549D01*
X53295302Y-75225549D01*
X53295310Y-75225549D01*
X53425856Y-75210290D01*
X53590718Y-75150286D01*
X53737297Y-75053879D01*
X53857693Y-74926267D01*
X53945413Y-74774330D01*
X53995731Y-74606259D01*
X54000814Y-74518987D01*
X55697270Y-74518987D01*
X55721910Y-74658725D01*
X55727734Y-74691755D01*
X55727736Y-74691763D01*
X55797224Y-74852856D01*
X55797225Y-74852858D01*
X55797227Y-74852861D01*
X55851879Y-74926270D01*
X55901991Y-74993582D01*
X56036387Y-75106354D01*
X56114089Y-75145377D01*
X56193163Y-75185090D01*
X56193164Y-75185090D01*
X56193168Y-75185092D01*
X56363880Y-75225552D01*
X56363883Y-75225552D01*
X57095302Y-75225552D01*
X57095310Y-75225552D01*
X57225856Y-75210293D01*
X57390718Y-75150289D01*
X57537297Y-75053882D01*
X57657693Y-74926270D01*
X57702881Y-74848002D01*
X115813323Y-74848002D01*
X115832393Y-75065975D01*
X115832393Y-75065979D01*
X115889022Y-75277322D01*
X115889024Y-75277326D01*
X115889025Y-75277330D01*
X115935261Y-75376484D01*
X115981497Y-75475638D01*
X115981498Y-75475639D01*
X116107002Y-75654877D01*
X116261723Y-75809598D01*
X116440961Y-75935102D01*
X116639270Y-76027575D01*
X116850623Y-76084207D01*
X117033526Y-76100208D01*
X117068598Y-76103277D01*
X117068600Y-76103277D01*
X117068602Y-76103277D01*
X117096854Y-76100805D01*
X117286577Y-76084207D01*
X117497930Y-76027575D01*
X117696239Y-75935102D01*
X117875477Y-75809598D01*
X118030198Y-75654877D01*
X118155702Y-75475639D01*
X118248175Y-75277330D01*
X118304807Y-75065977D01*
X118323452Y-74852856D01*
X118323877Y-74848002D01*
X118323877Y-74847997D01*
X118317432Y-74774330D01*
X118304807Y-74630023D01*
X118248175Y-74418670D01*
X118155702Y-74220362D01*
X118155700Y-74220359D01*
X118155699Y-74220357D01*
X118030199Y-74041124D01*
X118012902Y-74023827D01*
X117875477Y-73886402D01*
X117702116Y-73765013D01*
X117696238Y-73760897D01*
X117597084Y-73714661D01*
X117497930Y-73668425D01*
X117497926Y-73668424D01*
X117497922Y-73668422D01*
X117286577Y-73611793D01*
X117068602Y-73592723D01*
X117068598Y-73592723D01*
X116923282Y-73605436D01*
X116850623Y-73611793D01*
X116850620Y-73611793D01*
X116639277Y-73668422D01*
X116639268Y-73668426D01*
X116440961Y-73760898D01*
X116440957Y-73760900D01*
X116261721Y-73886402D01*
X116107002Y-74041121D01*
X115981500Y-74220357D01*
X115981498Y-74220361D01*
X115889026Y-74418668D01*
X115889022Y-74418677D01*
X115832393Y-74630020D01*
X115832393Y-74630024D01*
X115813323Y-74847997D01*
X115813323Y-74848002D01*
X57702881Y-74848002D01*
X57745413Y-74774333D01*
X57795731Y-74606262D01*
X57805932Y-74431117D01*
X57775466Y-74258341D01*
X57705978Y-74097248D01*
X57705971Y-74097239D01*
X57603486Y-73959578D01*
X57601211Y-73956522D01*
X57601207Y-73956519D01*
X57466815Y-73843750D01*
X57466813Y-73843749D01*
X57310038Y-73765013D01*
X57310034Y-73765012D01*
X57139322Y-73724552D01*
X56407892Y-73724552D01*
X56303455Y-73736759D01*
X56277344Y-73739811D01*
X56277341Y-73739812D01*
X56112485Y-73799814D01*
X56112481Y-73799816D01*
X55965907Y-73896219D01*
X55965906Y-73896220D01*
X55845511Y-74023830D01*
X55757789Y-74175770D01*
X55707471Y-74343841D01*
X55707470Y-74343846D01*
X55697270Y-74518982D01*
X55697270Y-74518987D01*
X54000814Y-74518987D01*
X54005932Y-74431114D01*
X53975466Y-74258338D01*
X53905978Y-74097245D01*
X53876198Y-74057244D01*
X53801210Y-73956518D01*
X53666815Y-73843747D01*
X53666813Y-73843746D01*
X53510038Y-73765010D01*
X53510034Y-73765009D01*
X53339322Y-73724549D01*
X52607892Y-73724549D01*
X52503455Y-73736756D01*
X52477344Y-73739808D01*
X52477341Y-73739809D01*
X52312485Y-73799811D01*
X52312481Y-73799813D01*
X52165907Y-73896216D01*
X52165906Y-73896217D01*
X52045511Y-74023827D01*
X51957789Y-74175767D01*
X51907471Y-74343838D01*
X51907470Y-74343843D01*
X51897269Y-74518982D01*
X49881100Y-74518982D01*
X49881100Y-73545401D01*
X108214346Y-73545401D01*
X108224345Y-73755327D01*
X108273896Y-73959578D01*
X108273898Y-73959582D01*
X108361198Y-74150743D01*
X108361201Y-74150748D01*
X108361202Y-74150750D01*
X108361204Y-74150753D01*
X108437817Y-74258341D01*
X108483115Y-74321953D01*
X108483120Y-74321959D01*
X108635220Y-74466985D01*
X108730178Y-74528011D01*
X108812028Y-74580613D01*
X109007143Y-74658725D01*
X109110329Y-74678612D01*
X109213514Y-74698500D01*
X109213515Y-74698500D01*
X111571019Y-74698500D01*
X111571025Y-74698500D01*
X111727818Y-74683528D01*
X111929475Y-74624316D01*
X112116282Y-74528011D01*
X112281486Y-74398092D01*
X112419119Y-74239256D01*
X112430028Y-74220362D01*
X112524201Y-74057249D01*
X112524200Y-74057249D01*
X112524204Y-74057244D01*
X112592944Y-73858633D01*
X112622854Y-73650602D01*
X112617843Y-73545401D01*
X128014346Y-73545401D01*
X128024345Y-73755327D01*
X128073896Y-73959578D01*
X128073898Y-73959582D01*
X128161198Y-74150743D01*
X128161201Y-74150748D01*
X128161202Y-74150750D01*
X128161204Y-74150753D01*
X128237817Y-74258341D01*
X128283115Y-74321953D01*
X128283120Y-74321959D01*
X128435220Y-74466985D01*
X128530178Y-74528011D01*
X128612028Y-74580613D01*
X128807143Y-74658725D01*
X128910329Y-74678612D01*
X129013514Y-74698500D01*
X129013515Y-74698500D01*
X131371019Y-74698500D01*
X131371025Y-74698500D01*
X131527818Y-74683528D01*
X131729475Y-74624316D01*
X131916282Y-74528011D01*
X132081486Y-74398092D01*
X132219119Y-74239256D01*
X132230028Y-74220362D01*
X132324201Y-74057249D01*
X132324200Y-74057249D01*
X132324204Y-74057244D01*
X132392944Y-73858633D01*
X132422854Y-73650602D01*
X132412854Y-73440670D01*
X132363304Y-73236424D01*
X132363301Y-73236417D01*
X132276001Y-73045256D01*
X132275998Y-73045251D01*
X132275997Y-73045250D01*
X132275996Y-73045247D01*
X132154086Y-72874048D01*
X132154084Y-72874046D01*
X132154079Y-72874040D01*
X132001979Y-72729014D01*
X131825174Y-72615388D01*
X131630055Y-72537274D01*
X131423686Y-72497500D01*
X131423685Y-72497500D01*
X129066175Y-72497500D01*
X128909382Y-72512472D01*
X128909378Y-72512473D01*
X128707727Y-72571683D01*
X128520913Y-72667991D01*
X128355716Y-72797905D01*
X128355712Y-72797909D01*
X128218078Y-72956746D01*
X128112998Y-73138750D01*
X128044256Y-73337365D01*
X128044256Y-73337367D01*
X128029404Y-73440670D01*
X128014346Y-73545401D01*
X112617843Y-73545401D01*
X112612854Y-73440670D01*
X112563304Y-73236424D01*
X112563301Y-73236417D01*
X112476001Y-73045256D01*
X112475998Y-73045251D01*
X112475997Y-73045250D01*
X112475996Y-73045247D01*
X112354086Y-72874048D01*
X112354084Y-72874046D01*
X112354079Y-72874040D01*
X112201979Y-72729014D01*
X112025174Y-72615388D01*
X111830055Y-72537274D01*
X111623686Y-72497500D01*
X111623685Y-72497500D01*
X109266175Y-72497500D01*
X109109382Y-72512472D01*
X109109378Y-72512473D01*
X108907727Y-72571683D01*
X108720913Y-72667991D01*
X108555716Y-72797905D01*
X108555712Y-72797909D01*
X108418078Y-72956746D01*
X108312998Y-73138750D01*
X108244256Y-73337365D01*
X108244256Y-73337367D01*
X108229404Y-73440670D01*
X108214346Y-73545401D01*
X49881100Y-73545401D01*
X49881100Y-65878986D01*
X51897270Y-65878986D01*
X51915704Y-65983526D01*
X51927734Y-66051754D01*
X51927736Y-66051762D01*
X51997224Y-66212855D01*
X51997225Y-66212857D01*
X51997227Y-66212860D01*
X52051879Y-66286269D01*
X52101991Y-66353581D01*
X52236387Y-66466353D01*
X52297257Y-66496923D01*
X52393163Y-66545089D01*
X52393164Y-66545089D01*
X52393168Y-66545091D01*
X52563880Y-66585551D01*
X52563883Y-66585551D01*
X53295302Y-66585551D01*
X53295310Y-66585551D01*
X53425856Y-66570292D01*
X53590718Y-66510288D01*
X53737297Y-66413881D01*
X53857693Y-66286269D01*
X53945413Y-66134332D01*
X53995731Y-65966261D01*
X54000814Y-65878981D01*
X55697269Y-65878981D01*
X55724883Y-66035581D01*
X55727736Y-66051759D01*
X55797224Y-66212852D01*
X55797225Y-66212854D01*
X55797227Y-66212857D01*
X55851879Y-66286266D01*
X55901991Y-66353578D01*
X56036387Y-66466350D01*
X56097263Y-66496923D01*
X56193163Y-66545086D01*
X56193164Y-66545086D01*
X56193168Y-66545088D01*
X56363880Y-66585548D01*
X56363883Y-66585548D01*
X57095302Y-66585548D01*
X57095310Y-66585548D01*
X57225856Y-66570289D01*
X57390718Y-66510285D01*
X57537297Y-66413878D01*
X57657693Y-66286266D01*
X57745413Y-66134329D01*
X57795731Y-65966258D01*
X57805932Y-65791113D01*
X57775466Y-65618337D01*
X57705978Y-65457244D01*
X57701138Y-65450743D01*
X57601210Y-65316517D01*
X57466815Y-65203746D01*
X57466813Y-65203745D01*
X57310038Y-65125009D01*
X57310034Y-65125008D01*
X57139322Y-65084548D01*
X56407892Y-65084548D01*
X56303455Y-65096755D01*
X56277344Y-65099807D01*
X56277341Y-65099808D01*
X56112485Y-65159810D01*
X56112481Y-65159812D01*
X55965907Y-65256215D01*
X55965906Y-65256216D01*
X55845511Y-65383826D01*
X55757789Y-65535766D01*
X55707471Y-65703837D01*
X55707470Y-65703842D01*
X55697269Y-65878981D01*
X54000814Y-65878981D01*
X54005932Y-65791116D01*
X53975466Y-65618340D01*
X53905978Y-65457247D01*
X53905971Y-65457238D01*
X53801210Y-65316520D01*
X53666815Y-65203749D01*
X53666813Y-65203748D01*
X53510038Y-65125012D01*
X53510034Y-65125011D01*
X53339322Y-65084551D01*
X52607892Y-65084551D01*
X52503455Y-65096758D01*
X52477344Y-65099810D01*
X52477341Y-65099811D01*
X52312485Y-65159813D01*
X52312481Y-65159815D01*
X52165907Y-65256218D01*
X52165906Y-65256219D01*
X52045511Y-65383829D01*
X51957789Y-65535769D01*
X51907471Y-65703840D01*
X51907470Y-65703845D01*
X51900239Y-65828008D01*
X51897270Y-65878986D01*
X49881100Y-65878986D01*
X49881100Y-57249622D01*
X49881142Y-57248000D01*
X51374957Y-57248000D01*
X51382629Y-57340589D01*
X51382950Y-57344456D01*
X51383162Y-57349579D01*
X51383162Y-57372081D01*
X51386865Y-57394282D01*
X51387499Y-57399365D01*
X51395491Y-57495816D01*
X51395491Y-57495818D01*
X51419254Y-57589657D01*
X51420305Y-57594672D01*
X51424007Y-57616854D01*
X51424009Y-57616862D01*
X51431314Y-57638141D01*
X51432776Y-57643053D01*
X51456535Y-57736874D01*
X51456539Y-57736887D01*
X51495415Y-57825515D01*
X51497279Y-57830291D01*
X51500263Y-57838985D01*
X51504586Y-57851576D01*
X51504588Y-57851579D01*
X51515298Y-57871371D01*
X51517548Y-57875975D01*
X51556427Y-57964608D01*
X51609364Y-58045634D01*
X51611988Y-58050038D01*
X51622695Y-58069823D01*
X51622698Y-58069828D01*
X51636526Y-58087595D01*
X51639503Y-58091765D01*
X51692434Y-58172782D01*
X51692438Y-58172787D01*
X51757993Y-58244000D01*
X51761306Y-58247911D01*
X51775122Y-58265662D01*
X51791680Y-58280905D01*
X51795294Y-58284519D01*
X51860856Y-58355738D01*
X51937251Y-58415199D01*
X51941147Y-58418499D01*
X51947513Y-58424360D01*
X51957699Y-58433737D01*
X51976536Y-58446044D01*
X51980702Y-58449018D01*
X52057091Y-58508474D01*
X52142240Y-58554554D01*
X52146601Y-58557153D01*
X52165455Y-58569471D01*
X52186094Y-58578524D01*
X52190633Y-58580743D01*
X52256630Y-58616459D01*
X52275782Y-58626824D01*
X52275786Y-58626826D01*
X52275790Y-58626828D01*
X52367354Y-58658262D01*
X52372089Y-58660109D01*
X52392716Y-58669157D01*
X52414532Y-58674681D01*
X52419416Y-58676135D01*
X52490689Y-58700603D01*
X52510985Y-58707571D01*
X52544789Y-58713211D01*
X52606466Y-58723503D01*
X52611479Y-58724555D01*
X52633276Y-58730075D01*
X52633278Y-58730075D01*
X52633285Y-58730077D01*
X52655725Y-58731936D01*
X52660769Y-58732564D01*
X52756265Y-58748500D01*
X52756266Y-58748500D01*
X52853048Y-58748500D01*
X52858161Y-58748711D01*
X52874015Y-58750025D01*
X52880598Y-58750571D01*
X52880600Y-58750571D01*
X52880602Y-58750571D01*
X52887184Y-58750025D01*
X52903038Y-58748711D01*
X52908152Y-58748500D01*
X53004930Y-58748500D01*
X53004935Y-58748500D01*
X53100451Y-58732561D01*
X53105462Y-58731937D01*
X53127915Y-58730077D01*
X53149753Y-58724546D01*
X53154705Y-58723508D01*
X53250214Y-58707571D01*
X53341798Y-58676129D01*
X53346642Y-58674688D01*
X53368484Y-58669157D01*
X53389100Y-58660113D01*
X53393834Y-58658265D01*
X53485410Y-58626828D01*
X53504570Y-58616459D01*
X59611200Y-58616459D01*
X59626019Y-58757454D01*
X59684478Y-58937372D01*
X59684483Y-58937384D01*
X59779070Y-59101215D01*
X59779072Y-59101218D01*
X59905660Y-59241809D01*
X59905663Y-59241811D01*
X60058722Y-59353017D01*
X60231556Y-59429966D01*
X60261199Y-59436266D01*
X60261200Y-59436266D01*
X60261200Y-58593924D01*
X60275705Y-58666845D01*
X60330960Y-58749540D01*
X60413655Y-58804795D01*
X60511200Y-58824198D01*
X60608745Y-58804795D01*
X60691440Y-58749540D01*
X60746695Y-58666845D01*
X60761200Y-58593924D01*
X60761200Y-59436266D01*
X60790843Y-59429966D01*
X60963679Y-59353014D01*
X61116735Y-59241812D01*
X61243327Y-59101218D01*
X61341169Y-58931751D01*
X61343680Y-58933200D01*
X61380766Y-58889602D01*
X61431213Y-58874286D01*
X61436200Y-58869300D01*
X61436200Y-57943300D01*
X61455885Y-57876261D01*
X61508689Y-57830506D01*
X61560200Y-57819300D01*
X61561700Y-57819300D01*
X61628739Y-57838985D01*
X61674494Y-57891789D01*
X61685700Y-57943300D01*
X61685700Y-58393978D01*
X61700232Y-58467035D01*
X61700233Y-58467039D01*
X61700234Y-58467040D01*
X61715302Y-58489592D01*
X61736180Y-58556267D01*
X61736200Y-58558481D01*
X61736200Y-58869300D01*
X61784028Y-58869300D01*
X61784044Y-58869299D01*
X61843572Y-58862898D01*
X61843579Y-58862896D01*
X61978286Y-58812654D01*
X61978293Y-58812650D01*
X62093385Y-58726491D01*
X62093390Y-58726486D01*
X62136059Y-58669489D01*
X62191993Y-58627618D01*
X62235326Y-58619800D01*
X62260874Y-58619800D01*
X62312011Y-58609628D01*
X62360389Y-58609628D01*
X62411526Y-58619800D01*
X62586700Y-58619800D01*
X62653739Y-58639485D01*
X62699494Y-58692289D01*
X62710700Y-58743800D01*
X62710700Y-63452899D01*
X62691015Y-63519938D01*
X62674381Y-63540580D01*
X60709380Y-65505581D01*
X60648057Y-65539066D01*
X60621699Y-65541900D01*
X60474614Y-65541900D01*
X60321234Y-65579703D01*
X60181362Y-65653115D01*
X60063116Y-65757871D01*
X59973381Y-65887875D01*
X59973380Y-65887876D01*
X59917362Y-66035581D01*
X59898322Y-66192399D01*
X59898322Y-66192400D01*
X59917362Y-66349218D01*
X59941887Y-66413883D01*
X59973380Y-66496923D01*
X60063117Y-66626930D01*
X60181360Y-66731683D01*
X60181362Y-66731684D01*
X60321234Y-66805096D01*
X60474614Y-66842900D01*
X60474615Y-66842900D01*
X60632585Y-66842900D01*
X60785965Y-66805096D01*
X60925840Y-66731683D01*
X61044083Y-66626930D01*
X61133820Y-66496923D01*
X61189837Y-66349218D01*
X61208878Y-66192400D01*
X61202702Y-66141544D01*
X61214161Y-66072624D01*
X61238114Y-66038921D01*
X62431634Y-64845401D01*
X108214346Y-64845401D01*
X108224345Y-65055327D01*
X108273896Y-65259578D01*
X108273898Y-65259582D01*
X108361198Y-65450743D01*
X108361201Y-65450748D01*
X108361202Y-65450750D01*
X108361204Y-65450753D01*
X108480542Y-65618340D01*
X108483115Y-65621953D01*
X108483120Y-65621959D01*
X108635220Y-65766985D01*
X108730178Y-65828011D01*
X108812028Y-65880613D01*
X109007143Y-65958725D01*
X109110329Y-65978612D01*
X109213514Y-65998500D01*
X109213515Y-65998500D01*
X111571019Y-65998500D01*
X111571025Y-65998500D01*
X111727818Y-65983528D01*
X111929475Y-65924316D01*
X112116282Y-65828011D01*
X112281486Y-65698092D01*
X112419119Y-65539256D01*
X112421134Y-65535767D01*
X112508853Y-65383833D01*
X112524204Y-65357244D01*
X112592944Y-65158633D01*
X112622854Y-64950602D01*
X112612854Y-64740670D01*
X112563304Y-64536424D01*
X112563301Y-64536417D01*
X112476001Y-64345256D01*
X112475998Y-64345251D01*
X112475997Y-64345250D01*
X112475996Y-64345247D01*
X112354086Y-64174048D01*
X112354084Y-64174046D01*
X112354079Y-64174040D01*
X112201979Y-64029014D01*
X112025174Y-63915388D01*
X112008800Y-63908833D01*
X111901756Y-63865979D01*
X111830055Y-63837274D01*
X111623686Y-63797500D01*
X111623685Y-63797500D01*
X109266175Y-63797500D01*
X109109382Y-63812472D01*
X109109378Y-63812473D01*
X108907727Y-63871683D01*
X108720913Y-63967991D01*
X108555716Y-64097905D01*
X108555712Y-64097909D01*
X108418078Y-64256746D01*
X108312998Y-64438750D01*
X108244256Y-64637365D01*
X108244256Y-64637367D01*
X108216909Y-64827577D01*
X108214346Y-64845401D01*
X62431634Y-64845401D01*
X63315089Y-63961946D01*
X63334946Y-63945822D01*
X63344036Y-63939884D01*
X63365838Y-63911871D01*
X63370933Y-63906103D01*
X63373719Y-63903318D01*
X63373728Y-63903306D01*
X63387286Y-63884316D01*
X63421007Y-63840992D01*
X63424747Y-63834078D01*
X63428206Y-63827003D01*
X63428210Y-63826999D01*
X63436992Y-63797500D01*
X63443872Y-63774393D01*
X63461700Y-63722461D01*
X63462991Y-63714724D01*
X63463968Y-63706886D01*
X63461700Y-63652044D01*
X63461700Y-63648002D01*
X115813323Y-63648002D01*
X115832393Y-63865975D01*
X115832393Y-63865979D01*
X115889022Y-64077322D01*
X115889024Y-64077326D01*
X115889025Y-64077330D01*
X115934122Y-64174040D01*
X115981497Y-64275638D01*
X115981498Y-64275639D01*
X116107002Y-64454877D01*
X116261723Y-64609598D01*
X116440961Y-64735102D01*
X116639270Y-64827575D01*
X116850623Y-64884207D01*
X117033526Y-64900208D01*
X117068598Y-64903277D01*
X117068600Y-64903277D01*
X117068602Y-64903277D01*
X117096854Y-64900805D01*
X117286577Y-64884207D01*
X117497930Y-64827575D01*
X117696239Y-64735102D01*
X117875477Y-64609598D01*
X118030198Y-64454877D01*
X118155702Y-64275639D01*
X118248175Y-64077330D01*
X118304807Y-63865977D01*
X118323877Y-63648002D01*
X122313323Y-63648002D01*
X122332393Y-63865975D01*
X122332393Y-63865979D01*
X122389022Y-64077322D01*
X122389024Y-64077326D01*
X122389025Y-64077330D01*
X122434122Y-64174040D01*
X122481497Y-64275638D01*
X122481498Y-64275639D01*
X122607002Y-64454877D01*
X122761723Y-64609598D01*
X122940961Y-64735102D01*
X123139270Y-64827575D01*
X123350623Y-64884207D01*
X123533526Y-64900208D01*
X123568598Y-64903277D01*
X123568600Y-64903277D01*
X123568602Y-64903277D01*
X123596854Y-64900805D01*
X123786577Y-64884207D01*
X123931403Y-64845401D01*
X128014346Y-64845401D01*
X128024345Y-65055327D01*
X128073896Y-65259578D01*
X128073898Y-65259582D01*
X128161198Y-65450743D01*
X128161201Y-65450748D01*
X128161202Y-65450750D01*
X128161204Y-65450753D01*
X128280542Y-65618340D01*
X128283115Y-65621953D01*
X128283120Y-65621959D01*
X128435220Y-65766985D01*
X128530178Y-65828011D01*
X128612028Y-65880613D01*
X128807143Y-65958725D01*
X128910329Y-65978612D01*
X129013514Y-65998500D01*
X129013515Y-65998500D01*
X131371019Y-65998500D01*
X131371025Y-65998500D01*
X131527818Y-65983528D01*
X131729475Y-65924316D01*
X131916282Y-65828011D01*
X132081486Y-65698092D01*
X132219119Y-65539256D01*
X132221134Y-65535767D01*
X132308853Y-65383833D01*
X132324204Y-65357244D01*
X132392944Y-65158633D01*
X132422854Y-64950602D01*
X132412854Y-64740670D01*
X132363304Y-64536424D01*
X132363301Y-64536417D01*
X132276001Y-64345256D01*
X132275998Y-64345251D01*
X132275997Y-64345250D01*
X132275996Y-64345247D01*
X132154086Y-64174048D01*
X132154084Y-64174046D01*
X132154079Y-64174040D01*
X132001979Y-64029014D01*
X131825174Y-63915388D01*
X131808800Y-63908833D01*
X131701756Y-63865979D01*
X131630055Y-63837274D01*
X131423686Y-63797500D01*
X131423685Y-63797500D01*
X129066175Y-63797500D01*
X128909382Y-63812472D01*
X128909378Y-63812473D01*
X128707727Y-63871683D01*
X128520913Y-63967991D01*
X128355716Y-64097905D01*
X128355712Y-64097909D01*
X128218078Y-64256746D01*
X128112998Y-64438750D01*
X128044256Y-64637365D01*
X128044256Y-64637367D01*
X128016909Y-64827577D01*
X128014346Y-64845401D01*
X123931403Y-64845401D01*
X123997930Y-64827575D01*
X124196239Y-64735102D01*
X124375477Y-64609598D01*
X124530198Y-64454877D01*
X124655702Y-64275639D01*
X124748175Y-64077330D01*
X124804807Y-63865977D01*
X124823877Y-63648000D01*
X124804807Y-63430023D01*
X124748175Y-63218670D01*
X124655702Y-63020362D01*
X124655700Y-63020359D01*
X124655699Y-63020357D01*
X124530199Y-62841124D01*
X124530196Y-62841121D01*
X124375477Y-62686402D01*
X124196239Y-62560898D01*
X124196240Y-62560898D01*
X124196238Y-62560897D01*
X124097084Y-62514661D01*
X123997930Y-62468425D01*
X123997926Y-62468424D01*
X123997922Y-62468422D01*
X123786577Y-62411793D01*
X123568602Y-62392723D01*
X123568598Y-62392723D01*
X123423282Y-62405436D01*
X123350623Y-62411793D01*
X123350620Y-62411793D01*
X123139277Y-62468422D01*
X123139268Y-62468426D01*
X122940961Y-62560898D01*
X122940957Y-62560900D01*
X122761721Y-62686402D01*
X122607002Y-62841121D01*
X122481500Y-63020357D01*
X122481498Y-63020361D01*
X122389026Y-63218668D01*
X122389022Y-63218677D01*
X122332393Y-63430020D01*
X122332393Y-63430024D01*
X122313323Y-63647997D01*
X122313323Y-63648002D01*
X118323877Y-63648002D01*
X118323877Y-63648000D01*
X118304807Y-63430023D01*
X118248175Y-63218670D01*
X118155702Y-63020362D01*
X118155700Y-63020359D01*
X118155699Y-63020357D01*
X118030199Y-62841124D01*
X118030196Y-62841121D01*
X117875477Y-62686402D01*
X117696239Y-62560898D01*
X117696240Y-62560898D01*
X117696238Y-62560897D01*
X117597084Y-62514661D01*
X117497930Y-62468425D01*
X117497926Y-62468424D01*
X117497922Y-62468422D01*
X117286577Y-62411793D01*
X117068602Y-62392723D01*
X117068598Y-62392723D01*
X116923282Y-62405436D01*
X116850623Y-62411793D01*
X116850620Y-62411793D01*
X116639277Y-62468422D01*
X116639268Y-62468426D01*
X116440961Y-62560898D01*
X116440957Y-62560900D01*
X116261721Y-62686402D01*
X116107002Y-62841121D01*
X115981500Y-63020357D01*
X115981498Y-63020361D01*
X115889026Y-63218668D01*
X115889022Y-63218677D01*
X115832393Y-63430020D01*
X115832393Y-63430024D01*
X115813323Y-63647997D01*
X115813323Y-63648002D01*
X63461700Y-63648002D01*
X63461700Y-59193800D01*
X63481385Y-59126761D01*
X63534189Y-59081006D01*
X63585700Y-59069800D01*
X65319016Y-59069800D01*
X65344461Y-59072439D01*
X65348260Y-59073235D01*
X65355088Y-59074667D01*
X65376045Y-59072054D01*
X65390312Y-59070277D01*
X65397988Y-59069800D01*
X65401932Y-59069800D01*
X65401934Y-59069800D01*
X65401936Y-59069799D01*
X65401942Y-59069799D01*
X65417307Y-59067234D01*
X65424960Y-59065957D01*
X65479446Y-59059166D01*
X65479447Y-59059165D01*
X65479449Y-59059165D01*
X65486961Y-59056928D01*
X65494426Y-59054366D01*
X65494426Y-59054365D01*
X65494430Y-59054365D01*
X65542697Y-59028244D01*
X65592031Y-59004126D01*
X65592034Y-59004123D01*
X65598414Y-58999568D01*
X65604639Y-58994722D01*
X65604646Y-58994719D01*
X65641828Y-58954328D01*
X65815089Y-58781066D01*
X65834946Y-58764942D01*
X65844036Y-58759004D01*
X65865838Y-58730991D01*
X65870933Y-58725223D01*
X65873719Y-58722438D01*
X65873728Y-58722426D01*
X65887286Y-58703436D01*
X65915151Y-58667636D01*
X65971862Y-58626824D01*
X66013003Y-58619800D01*
X66260874Y-58619800D01*
X66312011Y-58609628D01*
X66360389Y-58609628D01*
X66411526Y-58619800D01*
X66437074Y-58619800D01*
X66504113Y-58639485D01*
X66536341Y-58669489D01*
X66579009Y-58726486D01*
X66579014Y-58726491D01*
X66694106Y-58812650D01*
X66694113Y-58812654D01*
X66828820Y-58862896D01*
X66828827Y-58862898D01*
X66888355Y-58869299D01*
X66888372Y-58869300D01*
X66973644Y-58869300D01*
X67040683Y-58888985D01*
X67078905Y-58933095D01*
X67081232Y-58931752D01*
X67179070Y-59101215D01*
X67179072Y-59101218D01*
X67305660Y-59241809D01*
X67305663Y-59241811D01*
X67458722Y-59353017D01*
X67631556Y-59429966D01*
X67661199Y-59436266D01*
X67661200Y-59436266D01*
X67661200Y-58593924D01*
X67675705Y-58666845D01*
X67730960Y-58749540D01*
X67813655Y-58804795D01*
X67911200Y-58824198D01*
X68008745Y-58804795D01*
X68091440Y-58749540D01*
X68146695Y-58666845D01*
X68161200Y-58593924D01*
X68161200Y-59436266D01*
X68190843Y-59429966D01*
X68363679Y-59353014D01*
X68516735Y-59241812D01*
X68643327Y-59101218D01*
X68643329Y-59101215D01*
X68737916Y-58937384D01*
X68737921Y-58937372D01*
X68796380Y-58757454D01*
X68811200Y-58616459D01*
X68811200Y-58419300D01*
X68161200Y-58419300D01*
X68161200Y-58249800D01*
X107830201Y-58249800D01*
X107849749Y-58448281D01*
X107849749Y-58448283D01*
X107849750Y-58448285D01*
X107903910Y-58626826D01*
X107907648Y-58639148D01*
X108001660Y-58815031D01*
X108001665Y-58815038D01*
X108128189Y-58969210D01*
X108170735Y-59004126D01*
X108282363Y-59095736D01*
X108282366Y-59095737D01*
X108282368Y-59095739D01*
X108458251Y-59189751D01*
X108458254Y-59189751D01*
X108458258Y-59189754D01*
X108649115Y-59247650D01*
X108847600Y-59267199D01*
X109046085Y-59247650D01*
X109236942Y-59189754D01*
X109412837Y-59095736D01*
X109567010Y-58969210D01*
X109693536Y-58815037D01*
X109716553Y-58771975D01*
X109738242Y-58731399D01*
X109787204Y-58681555D01*
X109855341Y-58666094D01*
X109921021Y-58689925D01*
X109956958Y-58731399D01*
X110001660Y-58815031D01*
X110001665Y-58815038D01*
X110128189Y-58969210D01*
X110170735Y-59004126D01*
X110282363Y-59095736D01*
X110282366Y-59095737D01*
X110282368Y-59095739D01*
X110458251Y-59189751D01*
X110458254Y-59189751D01*
X110458258Y-59189754D01*
X110649115Y-59247650D01*
X110847600Y-59267199D01*
X111046085Y-59247650D01*
X111236942Y-59189754D01*
X111412837Y-59095736D01*
X111567010Y-58969210D01*
X111693536Y-58815037D01*
X111716553Y-58771975D01*
X111738242Y-58731399D01*
X111787204Y-58681555D01*
X111855341Y-58666094D01*
X111921021Y-58689925D01*
X111956958Y-58731399D01*
X112001660Y-58815031D01*
X112001665Y-58815038D01*
X112128189Y-58969210D01*
X112170735Y-59004126D01*
X112282363Y-59095736D01*
X112282366Y-59095737D01*
X112282368Y-59095739D01*
X112458251Y-59189751D01*
X112458254Y-59189751D01*
X112458258Y-59189754D01*
X112649115Y-59247650D01*
X112847600Y-59267199D01*
X113046085Y-59247650D01*
X113236942Y-59189754D01*
X113412837Y-59095736D01*
X113567010Y-58969210D01*
X113693536Y-58815037D01*
X113716553Y-58771975D01*
X113738242Y-58731399D01*
X113787204Y-58681555D01*
X113855341Y-58666094D01*
X113921021Y-58689925D01*
X113956958Y-58731399D01*
X114001660Y-58815031D01*
X114001665Y-58815038D01*
X114128189Y-58969210D01*
X114170735Y-59004126D01*
X114282363Y-59095736D01*
X114282366Y-59095737D01*
X114282368Y-59095739D01*
X114458251Y-59189751D01*
X114458254Y-59189751D01*
X114458258Y-59189754D01*
X114649115Y-59247650D01*
X114847600Y-59267199D01*
X115046085Y-59247650D01*
X115236942Y-59189754D01*
X115412837Y-59095736D01*
X115567010Y-58969210D01*
X115693536Y-58815037D01*
X115716553Y-58771975D01*
X115738242Y-58731399D01*
X115787204Y-58681555D01*
X115855341Y-58666094D01*
X115921021Y-58689925D01*
X115956958Y-58731399D01*
X116001660Y-58815031D01*
X116001665Y-58815038D01*
X116128189Y-58969210D01*
X116170735Y-59004126D01*
X116282363Y-59095736D01*
X116282366Y-59095737D01*
X116282368Y-59095739D01*
X116458251Y-59189751D01*
X116458254Y-59189751D01*
X116458258Y-59189754D01*
X116649115Y-59247650D01*
X116847600Y-59267199D01*
X117046085Y-59247650D01*
X117236942Y-59189754D01*
X117412837Y-59095736D01*
X117567010Y-58969210D01*
X117693536Y-58815037D01*
X117716553Y-58771975D01*
X117738242Y-58731399D01*
X117787204Y-58681555D01*
X117855341Y-58666094D01*
X117921021Y-58689925D01*
X117956958Y-58731399D01*
X118001660Y-58815031D01*
X118001665Y-58815038D01*
X118128189Y-58969210D01*
X118170735Y-59004126D01*
X118282363Y-59095736D01*
X118282366Y-59095737D01*
X118282368Y-59095739D01*
X118458251Y-59189751D01*
X118458254Y-59189751D01*
X118458258Y-59189754D01*
X118649115Y-59247650D01*
X118847600Y-59267199D01*
X119046085Y-59247650D01*
X119236942Y-59189754D01*
X119412837Y-59095736D01*
X119567010Y-58969210D01*
X119693536Y-58815037D01*
X119716553Y-58771975D01*
X119738242Y-58731399D01*
X119787204Y-58681555D01*
X119855341Y-58666094D01*
X119921021Y-58689925D01*
X119956958Y-58731399D01*
X120001660Y-58815031D01*
X120001665Y-58815038D01*
X120128189Y-58969210D01*
X120170735Y-59004126D01*
X120282363Y-59095736D01*
X120282366Y-59095737D01*
X120282368Y-59095739D01*
X120458251Y-59189751D01*
X120458254Y-59189751D01*
X120458258Y-59189754D01*
X120649115Y-59247650D01*
X120847600Y-59267199D01*
X121046085Y-59247650D01*
X121236942Y-59189754D01*
X121412837Y-59095736D01*
X121567010Y-58969210D01*
X121693536Y-58815037D01*
X121716553Y-58771975D01*
X121738242Y-58731399D01*
X121787204Y-58681555D01*
X121855341Y-58666094D01*
X121921021Y-58689925D01*
X121956958Y-58731399D01*
X122001660Y-58815031D01*
X122001665Y-58815038D01*
X122128189Y-58969210D01*
X122170735Y-59004126D01*
X122282363Y-59095736D01*
X122282366Y-59095737D01*
X122282368Y-59095739D01*
X122458251Y-59189751D01*
X122458254Y-59189751D01*
X122458258Y-59189754D01*
X122649115Y-59247650D01*
X122847600Y-59267199D01*
X123046085Y-59247650D01*
X123236942Y-59189754D01*
X123412837Y-59095736D01*
X123567010Y-58969210D01*
X123693536Y-58815037D01*
X123716553Y-58771975D01*
X123738242Y-58731399D01*
X123787204Y-58681555D01*
X123855341Y-58666094D01*
X123921021Y-58689925D01*
X123956958Y-58731399D01*
X124001660Y-58815031D01*
X124001665Y-58815038D01*
X124128189Y-58969210D01*
X124170735Y-59004126D01*
X124282363Y-59095736D01*
X124282366Y-59095737D01*
X124282368Y-59095739D01*
X124458251Y-59189751D01*
X124458254Y-59189751D01*
X124458258Y-59189754D01*
X124649115Y-59247650D01*
X124847600Y-59267199D01*
X125046085Y-59247650D01*
X125236942Y-59189754D01*
X125412837Y-59095736D01*
X125567010Y-58969210D01*
X125693536Y-58815037D01*
X125716553Y-58771975D01*
X125738242Y-58731399D01*
X125787204Y-58681555D01*
X125855341Y-58666094D01*
X125921021Y-58689925D01*
X125956958Y-58731399D01*
X126001660Y-58815031D01*
X126001665Y-58815038D01*
X126128189Y-58969210D01*
X126170735Y-59004126D01*
X126282363Y-59095736D01*
X126282366Y-59095737D01*
X126282368Y-59095739D01*
X126458251Y-59189751D01*
X126458254Y-59189751D01*
X126458258Y-59189754D01*
X126649115Y-59247650D01*
X126847600Y-59267199D01*
X127046085Y-59247650D01*
X127236942Y-59189754D01*
X127412837Y-59095736D01*
X127567010Y-58969210D01*
X127693536Y-58815037D01*
X127772324Y-58667636D01*
X127787551Y-58639148D01*
X127787551Y-58639147D01*
X127787554Y-58639142D01*
X127845450Y-58448285D01*
X127864999Y-58249800D01*
X127845450Y-58051315D01*
X127787554Y-57860458D01*
X127787551Y-57860454D01*
X127787551Y-57860451D01*
X127693539Y-57684568D01*
X127693537Y-57684566D01*
X127693536Y-57684563D01*
X127655056Y-57637675D01*
X127567010Y-57530389D01*
X127412838Y-57403865D01*
X127412831Y-57403860D01*
X127236948Y-57309848D01*
X127236942Y-57309846D01*
X127046085Y-57251950D01*
X127046083Y-57251949D01*
X127046081Y-57251949D01*
X127005985Y-57248000D01*
X135374957Y-57248000D01*
X135382629Y-57340589D01*
X135382950Y-57344456D01*
X135383162Y-57349579D01*
X135383162Y-57372081D01*
X135386865Y-57394282D01*
X135387499Y-57399365D01*
X135395491Y-57495816D01*
X135395491Y-57495818D01*
X135419254Y-57589657D01*
X135420305Y-57594672D01*
X135424007Y-57616854D01*
X135424009Y-57616862D01*
X135431314Y-57638141D01*
X135432776Y-57643053D01*
X135456535Y-57736874D01*
X135456539Y-57736887D01*
X135495415Y-57825515D01*
X135497279Y-57830291D01*
X135500263Y-57838985D01*
X135504586Y-57851576D01*
X135504588Y-57851579D01*
X135515298Y-57871371D01*
X135517548Y-57875975D01*
X135556427Y-57964608D01*
X135609364Y-58045634D01*
X135611988Y-58050038D01*
X135622695Y-58069823D01*
X135622698Y-58069828D01*
X135636526Y-58087595D01*
X135639503Y-58091765D01*
X135692434Y-58172782D01*
X135692438Y-58172787D01*
X135757993Y-58244000D01*
X135761306Y-58247911D01*
X135775122Y-58265662D01*
X135791680Y-58280905D01*
X135795294Y-58284519D01*
X135860856Y-58355738D01*
X135937251Y-58415199D01*
X135941147Y-58418499D01*
X135947513Y-58424360D01*
X135957699Y-58433737D01*
X135976536Y-58446044D01*
X135980702Y-58449018D01*
X136057091Y-58508474D01*
X136142240Y-58554554D01*
X136146601Y-58557153D01*
X136165455Y-58569471D01*
X136186094Y-58578524D01*
X136190633Y-58580743D01*
X136256630Y-58616459D01*
X136275782Y-58626824D01*
X136275786Y-58626826D01*
X136275790Y-58626828D01*
X136367354Y-58658262D01*
X136372089Y-58660109D01*
X136392716Y-58669157D01*
X136414532Y-58674681D01*
X136419416Y-58676135D01*
X136490689Y-58700603D01*
X136510985Y-58707571D01*
X136544789Y-58713211D01*
X136606466Y-58723503D01*
X136611479Y-58724555D01*
X136633276Y-58730075D01*
X136633278Y-58730075D01*
X136633285Y-58730077D01*
X136655725Y-58731936D01*
X136660769Y-58732564D01*
X136756265Y-58748500D01*
X136756266Y-58748500D01*
X136853048Y-58748500D01*
X136858161Y-58748711D01*
X136874015Y-58750025D01*
X136880598Y-58750571D01*
X136880600Y-58750571D01*
X136880602Y-58750571D01*
X136887184Y-58750025D01*
X136903038Y-58748711D01*
X136908152Y-58748500D01*
X137004930Y-58748500D01*
X137004935Y-58748500D01*
X137100451Y-58732561D01*
X137105462Y-58731937D01*
X137127915Y-58730077D01*
X137149753Y-58724546D01*
X137154705Y-58723508D01*
X137250214Y-58707571D01*
X137341798Y-58676129D01*
X137346642Y-58674688D01*
X137368484Y-58669157D01*
X137389100Y-58660113D01*
X137393834Y-58658265D01*
X137485410Y-58626828D01*
X137570575Y-58580738D01*
X137575105Y-58578524D01*
X137595745Y-58569471D01*
X137614608Y-58557146D01*
X137618937Y-58554566D01*
X137704109Y-58508474D01*
X137780531Y-58448992D01*
X137784618Y-58446073D01*
X137803498Y-58433739D01*
X137820066Y-58418487D01*
X137823941Y-58415204D01*
X137900344Y-58355738D01*
X137965913Y-58284510D01*
X137969497Y-58280925D01*
X137986077Y-58265663D01*
X137999920Y-58247876D01*
X138003181Y-58244026D01*
X138068764Y-58172785D01*
X138121727Y-58091718D01*
X138124653Y-58087620D01*
X138138502Y-58069828D01*
X138149223Y-58050016D01*
X138151833Y-58045636D01*
X138204773Y-57964607D01*
X138243661Y-57875950D01*
X138245899Y-57871375D01*
X138245901Y-57871371D01*
X138256614Y-57851576D01*
X138263936Y-57830246D01*
X138265762Y-57825564D01*
X138304663Y-57736881D01*
X138328426Y-57643041D01*
X138329878Y-57638162D01*
X138337192Y-57616859D01*
X138340896Y-57594658D01*
X138341940Y-57589677D01*
X138365708Y-57495821D01*
X138373704Y-57399321D01*
X138374333Y-57394282D01*
X138378038Y-57372081D01*
X138378688Y-57340589D01*
X138378883Y-57336812D01*
X138386243Y-57248000D01*
X138386108Y-57246376D01*
X138381764Y-57193948D01*
X138378884Y-57159190D01*
X138378688Y-57155407D01*
X138378038Y-57123919D01*
X138374333Y-57101714D01*
X138373703Y-57096666D01*
X138365708Y-57000179D01*
X138341941Y-56906327D01*
X138340895Y-56901334D01*
X138337192Y-56879143D01*
X138337191Y-56879140D01*
X138329883Y-56857850D01*
X138328425Y-56852952D01*
X138304662Y-56759116D01*
X138265785Y-56670487D01*
X138265774Y-56670461D01*
X138263929Y-56665734D01*
X138256614Y-56644424D01*
X138245898Y-56624622D01*
X138243652Y-56620029D01*
X138204773Y-56531393D01*
X138204773Y-56531392D01*
X138151831Y-56450358D01*
X138149207Y-56445954D01*
X138138504Y-56426177D01*
X138138502Y-56426172D01*
X138124680Y-56408413D01*
X138121702Y-56404242D01*
X138068766Y-56323218D01*
X138068765Y-56323217D01*
X138068764Y-56323215D01*
X138038841Y-56290710D01*
X138003206Y-56251999D01*
X137999895Y-56248090D01*
X137986077Y-56230337D01*
X137986073Y-56230332D01*
X137969519Y-56215093D01*
X137965901Y-56211476D01*
X137900344Y-56140262D01*
X137823952Y-56080804D01*
X137820044Y-56077493D01*
X137803498Y-56062261D01*
X137784663Y-56049955D01*
X137780497Y-56046981D01*
X137704109Y-55987526D01*
X137704108Y-55987525D01*
X137704105Y-55987523D01*
X137704103Y-55987522D01*
X137618985Y-55941459D01*
X137614581Y-55938835D01*
X137595745Y-55926529D01*
X137575147Y-55917494D01*
X137570540Y-55915242D01*
X137485411Y-55869172D01*
X137485402Y-55869169D01*
X137393859Y-55837742D01*
X137389084Y-55835879D01*
X137388912Y-55835803D01*
X137368484Y-55826843D01*
X137368480Y-55826842D01*
X137368478Y-55826841D01*
X137346676Y-55821319D01*
X137341766Y-55819858D01*
X137250214Y-55788429D01*
X137154738Y-55772496D01*
X137149723Y-55771444D01*
X137127912Y-55765922D01*
X137127916Y-55765922D01*
X137105495Y-55764065D01*
X137100410Y-55763431D01*
X137004936Y-55747500D01*
X137004935Y-55747500D01*
X136908141Y-55747500D01*
X136903027Y-55747288D01*
X136887155Y-55745973D01*
X136880602Y-55745430D01*
X136880598Y-55745430D01*
X136874044Y-55745973D01*
X136858172Y-55747288D01*
X136853059Y-55747500D01*
X136756265Y-55747500D01*
X136660788Y-55763431D01*
X136655703Y-55764065D01*
X136633288Y-55765922D01*
X136633283Y-55765923D01*
X136611480Y-55771444D01*
X136606466Y-55772495D01*
X136510982Y-55788429D01*
X136419434Y-55819856D01*
X136414527Y-55821317D01*
X136392726Y-55826839D01*
X136392716Y-55826843D01*
X136372110Y-55835881D01*
X136367338Y-55837742D01*
X136275794Y-55869170D01*
X136275783Y-55869175D01*
X136190662Y-55915240D01*
X136186058Y-55917491D01*
X136165454Y-55926529D01*
X136165445Y-55926534D01*
X136146623Y-55938831D01*
X136142221Y-55941455D01*
X136057092Y-55987524D01*
X136057089Y-55987527D01*
X135980706Y-56046977D01*
X135976538Y-56049954D01*
X135957699Y-56062263D01*
X135941142Y-56077503D01*
X135937235Y-56080812D01*
X135860855Y-56140262D01*
X135795297Y-56211476D01*
X135791675Y-56215098D01*
X135775129Y-56230330D01*
X135775114Y-56230346D01*
X135761299Y-56248094D01*
X135757990Y-56252001D01*
X135692436Y-56323215D01*
X135639501Y-56404236D01*
X135636525Y-56408404D01*
X135622699Y-56426170D01*
X135622694Y-56426177D01*
X135611986Y-56445964D01*
X135609363Y-56450365D01*
X135556428Y-56531390D01*
X135517553Y-56620015D01*
X135515304Y-56624615D01*
X135504585Y-56644424D01*
X135497276Y-56665714D01*
X135495414Y-56670487D01*
X135469324Y-56729967D01*
X135456539Y-56759116D01*
X135456536Y-56759122D01*
X135432777Y-56852942D01*
X135431316Y-56857850D01*
X135424008Y-56879140D01*
X135420305Y-56901327D01*
X135419254Y-56906342D01*
X135395491Y-57000178D01*
X135395491Y-57000182D01*
X135387498Y-57096634D01*
X135386865Y-57101714D01*
X135383162Y-57123919D01*
X135383162Y-57146419D01*
X135382950Y-57151535D01*
X135382313Y-57159228D01*
X135375092Y-57246376D01*
X135374957Y-57248000D01*
X127005985Y-57248000D01*
X126847600Y-57232401D01*
X126649118Y-57251949D01*
X126458251Y-57309848D01*
X126282368Y-57403860D01*
X126282361Y-57403865D01*
X126128189Y-57530389D01*
X126001665Y-57684561D01*
X126001659Y-57684568D01*
X125956958Y-57768200D01*
X125907996Y-57818045D01*
X125839858Y-57833505D01*
X125774178Y-57809673D01*
X125738242Y-57768200D01*
X125693540Y-57684568D01*
X125693534Y-57684561D01*
X125567010Y-57530389D01*
X125412838Y-57403865D01*
X125412831Y-57403860D01*
X125236948Y-57309848D01*
X125236942Y-57309846D01*
X125046085Y-57251950D01*
X125046083Y-57251949D01*
X125046081Y-57251949D01*
X124847600Y-57232401D01*
X124649118Y-57251949D01*
X124458251Y-57309848D01*
X124282368Y-57403860D01*
X124282361Y-57403865D01*
X124128189Y-57530389D01*
X124001665Y-57684561D01*
X124001659Y-57684568D01*
X123956958Y-57768200D01*
X123907996Y-57818045D01*
X123839858Y-57833505D01*
X123774178Y-57809673D01*
X123738242Y-57768200D01*
X123693540Y-57684568D01*
X123693534Y-57684561D01*
X123567010Y-57530389D01*
X123412838Y-57403865D01*
X123412831Y-57403860D01*
X123236948Y-57309848D01*
X123236942Y-57309846D01*
X123046085Y-57251950D01*
X123046083Y-57251949D01*
X123046081Y-57251949D01*
X122847600Y-57232401D01*
X122649118Y-57251949D01*
X122458251Y-57309848D01*
X122282368Y-57403860D01*
X122282361Y-57403865D01*
X122128189Y-57530389D01*
X122001665Y-57684561D01*
X122001659Y-57684568D01*
X121956958Y-57768200D01*
X121907996Y-57818045D01*
X121839858Y-57833505D01*
X121774178Y-57809673D01*
X121738242Y-57768200D01*
X121693540Y-57684568D01*
X121693534Y-57684561D01*
X121567010Y-57530389D01*
X121412838Y-57403865D01*
X121412831Y-57403860D01*
X121236948Y-57309848D01*
X121236942Y-57309846D01*
X121046085Y-57251950D01*
X121046083Y-57251949D01*
X121046081Y-57251949D01*
X120847600Y-57232401D01*
X120649118Y-57251949D01*
X120458251Y-57309848D01*
X120282368Y-57403860D01*
X120282361Y-57403865D01*
X120128189Y-57530389D01*
X120001665Y-57684561D01*
X120001659Y-57684568D01*
X119956958Y-57768200D01*
X119907996Y-57818045D01*
X119839858Y-57833505D01*
X119774178Y-57809673D01*
X119738242Y-57768200D01*
X119693540Y-57684568D01*
X119693534Y-57684561D01*
X119567010Y-57530389D01*
X119412838Y-57403865D01*
X119412831Y-57403860D01*
X119236948Y-57309848D01*
X119236942Y-57309846D01*
X119046085Y-57251950D01*
X119046083Y-57251949D01*
X119046081Y-57251949D01*
X118847600Y-57232401D01*
X118649118Y-57251949D01*
X118458251Y-57309848D01*
X118282368Y-57403860D01*
X118282361Y-57403865D01*
X118128189Y-57530389D01*
X118001665Y-57684561D01*
X118001659Y-57684568D01*
X117956958Y-57768200D01*
X117907996Y-57818045D01*
X117839858Y-57833505D01*
X117774178Y-57809673D01*
X117738242Y-57768200D01*
X117693540Y-57684568D01*
X117693534Y-57684561D01*
X117567010Y-57530389D01*
X117412838Y-57403865D01*
X117412831Y-57403860D01*
X117236948Y-57309848D01*
X117236942Y-57309846D01*
X117046085Y-57251950D01*
X117046083Y-57251949D01*
X117046081Y-57251949D01*
X116847600Y-57232401D01*
X116649118Y-57251949D01*
X116458251Y-57309848D01*
X116282368Y-57403860D01*
X116282361Y-57403865D01*
X116128189Y-57530389D01*
X116001665Y-57684561D01*
X116001659Y-57684568D01*
X115956958Y-57768200D01*
X115907996Y-57818045D01*
X115839858Y-57833505D01*
X115774178Y-57809673D01*
X115738242Y-57768200D01*
X115693540Y-57684568D01*
X115693534Y-57684561D01*
X115567010Y-57530389D01*
X115412838Y-57403865D01*
X115412831Y-57403860D01*
X115236948Y-57309848D01*
X115236942Y-57309846D01*
X115046085Y-57251950D01*
X115046083Y-57251949D01*
X115046081Y-57251949D01*
X114847600Y-57232401D01*
X114649118Y-57251949D01*
X114458251Y-57309848D01*
X114282368Y-57403860D01*
X114282361Y-57403865D01*
X114128189Y-57530389D01*
X114001665Y-57684561D01*
X114001659Y-57684568D01*
X113956958Y-57768200D01*
X113907996Y-57818045D01*
X113839858Y-57833505D01*
X113774178Y-57809673D01*
X113738242Y-57768200D01*
X113693540Y-57684568D01*
X113693534Y-57684561D01*
X113567010Y-57530389D01*
X113412838Y-57403865D01*
X113412831Y-57403860D01*
X113236948Y-57309848D01*
X113236942Y-57309846D01*
X113046085Y-57251950D01*
X113046083Y-57251949D01*
X113046081Y-57251949D01*
X112847600Y-57232401D01*
X112649118Y-57251949D01*
X112458251Y-57309848D01*
X112282368Y-57403860D01*
X112282361Y-57403865D01*
X112128189Y-57530389D01*
X112001665Y-57684561D01*
X112001659Y-57684568D01*
X111956958Y-57768200D01*
X111907996Y-57818045D01*
X111839858Y-57833505D01*
X111774178Y-57809673D01*
X111738242Y-57768200D01*
X111693540Y-57684568D01*
X111693534Y-57684561D01*
X111567010Y-57530389D01*
X111412838Y-57403865D01*
X111412831Y-57403860D01*
X111236948Y-57309848D01*
X111236942Y-57309846D01*
X111046085Y-57251950D01*
X111046083Y-57251949D01*
X111046081Y-57251949D01*
X110847600Y-57232401D01*
X110649118Y-57251949D01*
X110458251Y-57309848D01*
X110282368Y-57403860D01*
X110282361Y-57403865D01*
X110128189Y-57530389D01*
X110001665Y-57684561D01*
X110001659Y-57684568D01*
X109956958Y-57768200D01*
X109907996Y-57818045D01*
X109839858Y-57833505D01*
X109774178Y-57809673D01*
X109738242Y-57768200D01*
X109693540Y-57684568D01*
X109693534Y-57684561D01*
X109567010Y-57530389D01*
X109412838Y-57403865D01*
X109412831Y-57403860D01*
X109236948Y-57309848D01*
X109236942Y-57309846D01*
X109046085Y-57251950D01*
X109046083Y-57251949D01*
X109046081Y-57251949D01*
X108847600Y-57232401D01*
X108649118Y-57251949D01*
X108458251Y-57309848D01*
X108282368Y-57403860D01*
X108282361Y-57403865D01*
X108128189Y-57530389D01*
X108001665Y-57684561D01*
X108001660Y-57684568D01*
X107907648Y-57860451D01*
X107849749Y-58051318D01*
X107830201Y-58249800D01*
X68161200Y-58249800D01*
X68161200Y-57919300D01*
X68811200Y-57919300D01*
X68811200Y-57722140D01*
X68796380Y-57581145D01*
X68737921Y-57401227D01*
X68737916Y-57401215D01*
X68643329Y-57237384D01*
X68643327Y-57237381D01*
X68516739Y-57096790D01*
X68516736Y-57096788D01*
X68363677Y-56985582D01*
X68190848Y-56908635D01*
X68161200Y-56902332D01*
X68161200Y-57744676D01*
X68146695Y-57671755D01*
X68091440Y-57589060D01*
X68008745Y-57533805D01*
X67911200Y-57514402D01*
X67813655Y-57533805D01*
X67730960Y-57589060D01*
X67675705Y-57671755D01*
X67661200Y-57744676D01*
X67661200Y-56902332D01*
X67661199Y-56902332D01*
X67635982Y-56907693D01*
X67566315Y-56902378D01*
X67510581Y-56860241D01*
X67486475Y-56794662D01*
X67486200Y-56786403D01*
X67486200Y-56619300D01*
X66860700Y-56619300D01*
X66793661Y-56599615D01*
X66747906Y-56546811D01*
X66736700Y-56495300D01*
X66736700Y-56044623D01*
X66722166Y-55971559D01*
X66707097Y-55949006D01*
X66686220Y-55882328D01*
X66686200Y-55880117D01*
X66686200Y-55569300D01*
X66986200Y-55569300D01*
X66986200Y-56319300D01*
X67486200Y-56319300D01*
X67486200Y-56021472D01*
X67486199Y-56021455D01*
X67479798Y-55961927D01*
X67479796Y-55961920D01*
X67429554Y-55827213D01*
X67429550Y-55827206D01*
X67343390Y-55712112D01*
X67343387Y-55712109D01*
X67228293Y-55625949D01*
X67228286Y-55625945D01*
X67093579Y-55575703D01*
X67093572Y-55575701D01*
X67034044Y-55569300D01*
X66986200Y-55569300D01*
X66686200Y-55569300D01*
X66638355Y-55569300D01*
X66578827Y-55575701D01*
X66578820Y-55575703D01*
X66444113Y-55625945D01*
X66444106Y-55625949D01*
X66329014Y-55712108D01*
X66329009Y-55712113D01*
X66286341Y-55769111D01*
X66230407Y-55810982D01*
X66187074Y-55818800D01*
X66161526Y-55818800D01*
X66110390Y-55828971D01*
X66062010Y-55828971D01*
X66010874Y-55818800D01*
X65661526Y-55818800D01*
X65610390Y-55828971D01*
X65562010Y-55828971D01*
X65510874Y-55818800D01*
X65161526Y-55818800D01*
X65110390Y-55828971D01*
X65062010Y-55828971D01*
X65010874Y-55818800D01*
X64661526Y-55818800D01*
X64610390Y-55828971D01*
X64562010Y-55828971D01*
X64510874Y-55818800D01*
X64161526Y-55818800D01*
X64110390Y-55828971D01*
X64062010Y-55828971D01*
X64010874Y-55818800D01*
X63661526Y-55818800D01*
X63610390Y-55828971D01*
X63562010Y-55828971D01*
X63510874Y-55818800D01*
X63161526Y-55818800D01*
X63110390Y-55828971D01*
X63062010Y-55828971D01*
X63010874Y-55818800D01*
X62661526Y-55818800D01*
X62610390Y-55828971D01*
X62562010Y-55828971D01*
X62510874Y-55818800D01*
X62161526Y-55818800D01*
X62110390Y-55828971D01*
X62062010Y-55828971D01*
X62010874Y-55818800D01*
X61985326Y-55818800D01*
X61918287Y-55799115D01*
X61886059Y-55769111D01*
X61843390Y-55712113D01*
X61843385Y-55712108D01*
X61728293Y-55625949D01*
X61728286Y-55625945D01*
X61593579Y-55575703D01*
X61593572Y-55575701D01*
X61534044Y-55569300D01*
X61486200Y-55569300D01*
X61486200Y-55880117D01*
X61466515Y-55947156D01*
X61465303Y-55949006D01*
X61450233Y-55971559D01*
X61435700Y-56044623D01*
X61435700Y-56495300D01*
X61416015Y-56562339D01*
X61363211Y-56608094D01*
X61311700Y-56619300D01*
X60686200Y-56619300D01*
X60686200Y-56829300D01*
X60722519Y-56865619D01*
X60720447Y-56867690D01*
X60749994Y-56901789D01*
X60761200Y-56953300D01*
X60761200Y-57744676D01*
X60746695Y-57671755D01*
X60691440Y-57589060D01*
X60608745Y-57533805D01*
X60511200Y-57514402D01*
X60413655Y-57533805D01*
X60330960Y-57589060D01*
X60275705Y-57671755D01*
X60261200Y-57744676D01*
X60261200Y-56902332D01*
X60231554Y-56908634D01*
X60058718Y-56985586D01*
X59905664Y-57096787D01*
X59779072Y-57237381D01*
X59779070Y-57237384D01*
X59684483Y-57401215D01*
X59684478Y-57401227D01*
X59626019Y-57581145D01*
X59611200Y-57722140D01*
X59611200Y-57919300D01*
X60261200Y-57919300D01*
X60261200Y-58419300D01*
X59611200Y-58419300D01*
X59611200Y-58616459D01*
X53504570Y-58616459D01*
X53570575Y-58580738D01*
X53575105Y-58578524D01*
X53595745Y-58569471D01*
X53614608Y-58557146D01*
X53618937Y-58554566D01*
X53704109Y-58508474D01*
X53780531Y-58448992D01*
X53784618Y-58446073D01*
X53803498Y-58433739D01*
X53820066Y-58418487D01*
X53823941Y-58415204D01*
X53900344Y-58355738D01*
X53965913Y-58284510D01*
X53969497Y-58280925D01*
X53986077Y-58265663D01*
X53999920Y-58247876D01*
X54003181Y-58244026D01*
X54068764Y-58172785D01*
X54121727Y-58091718D01*
X54124653Y-58087620D01*
X54138502Y-58069828D01*
X54149223Y-58050016D01*
X54151833Y-58045636D01*
X54204773Y-57964607D01*
X54243661Y-57875950D01*
X54245899Y-57871375D01*
X54245901Y-57871371D01*
X54256614Y-57851576D01*
X54263936Y-57830246D01*
X54265762Y-57825564D01*
X54304663Y-57736881D01*
X54328426Y-57643041D01*
X54329878Y-57638162D01*
X54337192Y-57616859D01*
X54340896Y-57594658D01*
X54341940Y-57589677D01*
X54365708Y-57495821D01*
X54373704Y-57399321D01*
X54374333Y-57394282D01*
X54378038Y-57372081D01*
X54378688Y-57340589D01*
X54378883Y-57336812D01*
X54386243Y-57248000D01*
X54386108Y-57246376D01*
X54381764Y-57193948D01*
X54378884Y-57159190D01*
X54378688Y-57155407D01*
X54378038Y-57123919D01*
X54374333Y-57101714D01*
X54373703Y-57096666D01*
X54365708Y-57000179D01*
X54341941Y-56906327D01*
X54340895Y-56901334D01*
X54337192Y-56879143D01*
X54337191Y-56879140D01*
X54329883Y-56857850D01*
X54328425Y-56852952D01*
X54304662Y-56759116D01*
X54265785Y-56670487D01*
X54265774Y-56670461D01*
X54263929Y-56665734D01*
X54256614Y-56644424D01*
X54245898Y-56624622D01*
X54243652Y-56620029D01*
X54204773Y-56531393D01*
X54204773Y-56531392D01*
X54151831Y-56450358D01*
X54149207Y-56445954D01*
X54138504Y-56426177D01*
X54138502Y-56426172D01*
X54124680Y-56408413D01*
X54121702Y-56404242D01*
X54068766Y-56323218D01*
X54068765Y-56323217D01*
X54068764Y-56323215D01*
X54065160Y-56319300D01*
X60686200Y-56319300D01*
X61186200Y-56319300D01*
X61186200Y-55569300D01*
X61138355Y-55569300D01*
X61078827Y-55575701D01*
X61078820Y-55575703D01*
X60944113Y-55625945D01*
X60944106Y-55625949D01*
X60829012Y-55712109D01*
X60829009Y-55712112D01*
X60742849Y-55827206D01*
X60742845Y-55827213D01*
X60692603Y-55961920D01*
X60692601Y-55961927D01*
X60686200Y-56021455D01*
X60686200Y-56319300D01*
X54065160Y-56319300D01*
X54038841Y-56290710D01*
X54003206Y-56251999D01*
X53999895Y-56248090D01*
X53986077Y-56230337D01*
X53986073Y-56230332D01*
X53969519Y-56215093D01*
X53965901Y-56211476D01*
X53900344Y-56140262D01*
X53823952Y-56080804D01*
X53820044Y-56077493D01*
X53803498Y-56062261D01*
X53784663Y-56049955D01*
X53780497Y-56046981D01*
X53704109Y-55987526D01*
X53704108Y-55987525D01*
X53704105Y-55987523D01*
X53704103Y-55987522D01*
X53618985Y-55941459D01*
X53614581Y-55938835D01*
X53595745Y-55926529D01*
X53575147Y-55917494D01*
X53570540Y-55915242D01*
X53485411Y-55869172D01*
X53485402Y-55869169D01*
X53393859Y-55837742D01*
X53389084Y-55835879D01*
X53388912Y-55835803D01*
X53368484Y-55826843D01*
X53368480Y-55826842D01*
X53368478Y-55826841D01*
X53346676Y-55821319D01*
X53341766Y-55819858D01*
X53250214Y-55788429D01*
X53154738Y-55772496D01*
X53149723Y-55771444D01*
X53127912Y-55765922D01*
X53127916Y-55765922D01*
X53105495Y-55764065D01*
X53100410Y-55763431D01*
X53004936Y-55747500D01*
X53004935Y-55747500D01*
X52908141Y-55747500D01*
X52903027Y-55747288D01*
X52887155Y-55745973D01*
X52880602Y-55745430D01*
X52880598Y-55745430D01*
X52874044Y-55745973D01*
X52858172Y-55747288D01*
X52853059Y-55747500D01*
X52756265Y-55747500D01*
X52660788Y-55763431D01*
X52655703Y-55764065D01*
X52633288Y-55765922D01*
X52633283Y-55765923D01*
X52611480Y-55771444D01*
X52606466Y-55772495D01*
X52510982Y-55788429D01*
X52419434Y-55819856D01*
X52414527Y-55821317D01*
X52392726Y-55826839D01*
X52392716Y-55826843D01*
X52372110Y-55835881D01*
X52367338Y-55837742D01*
X52275794Y-55869170D01*
X52275783Y-55869175D01*
X52190662Y-55915240D01*
X52186058Y-55917491D01*
X52165454Y-55926529D01*
X52165445Y-55926534D01*
X52146623Y-55938831D01*
X52142221Y-55941455D01*
X52057092Y-55987524D01*
X52057089Y-55987527D01*
X51980706Y-56046977D01*
X51976538Y-56049954D01*
X51957699Y-56062263D01*
X51941142Y-56077503D01*
X51937235Y-56080812D01*
X51860855Y-56140262D01*
X51795297Y-56211476D01*
X51791675Y-56215098D01*
X51775129Y-56230330D01*
X51775114Y-56230346D01*
X51761299Y-56248094D01*
X51757990Y-56252001D01*
X51692436Y-56323215D01*
X51639501Y-56404236D01*
X51636525Y-56408404D01*
X51622699Y-56426170D01*
X51622694Y-56426177D01*
X51611986Y-56445964D01*
X51609363Y-56450365D01*
X51556428Y-56531390D01*
X51517553Y-56620015D01*
X51515304Y-56624615D01*
X51504585Y-56644424D01*
X51497276Y-56665714D01*
X51495414Y-56670487D01*
X51469324Y-56729967D01*
X51456539Y-56759116D01*
X51456536Y-56759122D01*
X51432777Y-56852942D01*
X51431316Y-56857850D01*
X51424008Y-56879140D01*
X51420305Y-56901327D01*
X51419254Y-56906342D01*
X51395491Y-57000178D01*
X51395491Y-57000182D01*
X51387498Y-57096634D01*
X51386865Y-57101714D01*
X51383162Y-57123919D01*
X51383162Y-57146419D01*
X51382950Y-57151535D01*
X51382313Y-57159228D01*
X51375092Y-57246376D01*
X51374957Y-57248000D01*
X49881142Y-57248000D01*
X49881185Y-57246376D01*
X49881478Y-57240794D01*
X49888097Y-57114486D01*
X49898403Y-56930968D01*
X49899064Y-56924791D01*
X49923211Y-56772331D01*
X49925457Y-56759116D01*
X49950827Y-56609796D01*
X49952051Y-56604196D01*
X49993025Y-56451279D01*
X50037683Y-56296268D01*
X50039364Y-56291254D01*
X50096727Y-56141815D01*
X50157966Y-55993972D01*
X50159979Y-55989606D01*
X50233111Y-55846078D01*
X50240288Y-55833090D01*
X50310255Y-55706494D01*
X50312467Y-55702808D01*
X50400580Y-55567127D01*
X50414730Y-55547182D01*
X50492754Y-55437220D01*
X50495086Y-55434143D01*
X50596255Y-55309209D01*
X50598137Y-55306998D01*
X50703373Y-55189239D01*
X50705692Y-55186787D01*
X50819387Y-55073092D01*
X50821839Y-55070773D01*
X50939598Y-54965537D01*
X50941809Y-54963655D01*
X51066743Y-54862486D01*
X51069820Y-54860154D01*
X51199727Y-54767980D01*
X51209646Y-54761537D01*
X51335408Y-54679867D01*
X51339094Y-54677655D01*
X51478678Y-54600511D01*
X51490663Y-54594403D01*
X51622206Y-54527379D01*
X51626572Y-54525366D01*
X51774415Y-54464127D01*
X51923854Y-54406764D01*
X51928868Y-54405083D01*
X52083879Y-54360425D01*
X52236796Y-54319451D01*
X52242396Y-54318227D01*
X52404884Y-54290618D01*
X52557391Y-54266464D01*
X52563568Y-54265803D01*
X52747166Y-54255493D01*
X52878980Y-54248584D01*
X52882222Y-54248500D01*
X136878978Y-54248500D01*
X136882219Y-54248584D01*
G37*
%TD.AperFunction*%
%TD*%
M02*
