M48
; DRILL file {KiCad 7.0.8} date Thu Feb 15 14:48:34 2024
; FORMAT={-:-/ absolute / inch / decimal}
; #@! TF.CreationDate,2024-02-15T14:48:34-07:00
; #@! TF.GenerationSoftware,Kicad,Pcbnew,7.0.8
; #@! TF.FileFunction,Plated,1,2,PTH
FMAT,2
INCH
; #@! TA.AperFunction,Plated,PTH,ViaDrill
T1C0.0157
; #@! TA.AperFunction,Plated,PTH,ComponentDrill
T2C0.0197
; #@! TA.AperFunction,Plated,PTH,ComponentDrill
T3C0.0236
; #@! TA.AperFunction,Plated,PTH,ComponentDrill
T4C0.0276
; #@! TA.AperFunction,Plated,PTH,ComponentDrill
T5C0.0300
; #@! TA.AperFunction,Plated,PTH,ComponentDrill
T6C0.0709
%
G90
G05
T1
X2.382Y-2.508
X2.384Y-2.606
T5
X4.2853Y-2.2933
X4.2853Y-3.158
X4.3641Y-2.2933
X4.3641Y-3.158
X4.4428Y-2.2933
X4.4428Y-3.158
X4.5216Y-2.2933
X4.5216Y-3.158
X4.6003Y-2.2933
X4.6003Y-3.158
X4.679Y-2.2933
X4.679Y-3.158
X4.7578Y-2.2933
X4.7578Y-3.1593
X4.8365Y-2.2933
X4.8365Y-3.158
X4.9153Y-2.2933
X4.9153Y-3.158
X4.994Y-2.2933
X4.994Y-3.158
T6
X4.609Y-2.5058
X4.609Y-2.9468
X4.8649Y-2.5058
T2
G00X2.3823Y-2.2744
M15
G01X2.3823Y-2.3059
M16
G05
G00X2.6737Y-2.2744
M15
G01X2.6737Y-2.3059
M16
G05
T3
G00X2.0965Y-2.5919
M15
G01X2.0729Y-2.5919
M16
G05
G00X2.0965Y-2.9321
M15
G01X2.0729Y-2.9321
M16
G05
G00X2.2461Y-2.5919
M15
G01X2.2225Y-2.5919
M16
G05
G00X2.2461Y-2.9321
M15
G01X2.2225Y-2.9321
M16
G05
T4
G00X4.3905Y-2.555
M15
G01X4.3039Y-2.555
M16
G05
G00X4.3905Y-2.8976
M15
G01X4.3039Y-2.8976
M16
G05
G00X5.17Y-2.555
M15
G01X5.0834Y-2.555
M16
G05
G00X5.17Y-2.8976
M15
G01X5.0834Y-2.8976
M16
G05
T0
M30
