%TF.GenerationSoftware,KiCad,Pcbnew,7.0.8*%
%TF.CreationDate,2023-12-07T15:37:41-07:00*%
%TF.ProjectId,GR-LRR-POWER-PCB,47522d4c-5252-42d5-904f-5745522d5043,rev?*%
%TF.SameCoordinates,Original*%
%TF.FileFunction,Soldermask,Bot*%
%TF.FilePolarity,Negative*%
%FSLAX46Y46*%
G04 Gerber Fmt 4.6, Leading zero omitted, Abs format (unit mm)*
G04 Created by KiCad (PCBNEW 7.0.8) date 2023-12-07 15:37:41*
%MOMM*%
%LPD*%
G01*
G04 APERTURE LIST*
G04 Aperture macros list*
%AMRoundRect*
0 Rectangle with rounded corners*
0 $1 Rounding radius*
0 $2 $3 $4 $5 $6 $7 $8 $9 X,Y pos of 4 corners*
0 Add a 4 corners polygon primitive as box body*
4,1,4,$2,$3,$4,$5,$6,$7,$8,$9,$2,$3,0*
0 Add four circle primitives for the rounded corners*
1,1,$1+$1,$2,$3*
1,1,$1+$1,$4,$5*
1,1,$1+$1,$6,$7*
1,1,$1+$1,$8,$9*
0 Add four rect primitives between the rounded corners*
20,1,$1+$1,$2,$3,$4,$5,0*
20,1,$1+$1,$4,$5,$6,$7,0*
20,1,$1+$1,$6,$7,$8,$9,0*
20,1,$1+$1,$8,$9,$2,$3,0*%
G04 Aperture macros list end*
%ADD10C,3.345000*%
%ADD11C,1.830000*%
%ADD12C,4.800000*%
%ADD13C,2.000000*%
%ADD14R,2.025000X2.025000*%
%ADD15C,2.025000*%
%ADD16C,3.450000*%
%ADD17RoundRect,0.250000X-1.450000X0.537500X-1.450000X-0.537500X1.450000X-0.537500X1.450000X0.537500X0*%
%ADD18C,1.905000*%
%ADD19C,1.371600*%
%ADD20R,2.000000X2.000000*%
%ADD21RoundRect,0.250000X-0.475000X0.337500X-0.475000X-0.337500X0.475000X-0.337500X0.475000X0.337500X0*%
%ADD22R,0.965200X3.302000*%
%ADD23R,3.000000X3.000000*%
%ADD24C,3.000000*%
%ADD25RoundRect,0.250000X-1.025000X0.875000X-1.025000X-0.875000X1.025000X-0.875000X1.025000X0.875000X0*%
%ADD26RoundRect,0.102000X-1.125000X-1.125000X1.125000X-1.125000X1.125000X1.125000X-1.125000X1.125000X0*%
%ADD27C,2.454000*%
%ADD28R,1.200000X0.600000*%
%ADD29RoundRect,0.952200X0.239800X0.709800X-0.239800X0.709800X-0.239800X-0.709800X0.239800X-0.709800X0*%
G04 APERTURE END LIST*
D10*
%TO.C,PS1*%
X78658000Y-71204000D03*
D11*
X78658000Y-61004000D03*
X78658000Y-45804000D03*
D10*
X78658000Y-35604000D03*
X126958000Y-35604000D03*
D11*
X126958000Y-45804000D03*
X126958000Y-53404000D03*
X126958000Y-61004000D03*
D10*
X126958000Y-71204000D03*
D12*
X78658000Y-78804000D03*
X78658000Y-28004000D03*
X126958000Y-78804000D03*
X126958000Y-28004000D03*
%TD*%
D13*
%TO.C,J5*%
X152026000Y-55082000D03*
X152026000Y-34252000D03*
D14*
X154526000Y-38952000D03*
D15*
X157526000Y-38952000D03*
X154526000Y-42762000D03*
X157526000Y-42762000D03*
X154526000Y-46572000D03*
X157526000Y-46572000D03*
X154526000Y-50382000D03*
X157526000Y-50382000D03*
D16*
X156026000Y-31752000D03*
X156026000Y-57582000D03*
%TD*%
D13*
%TO.C,J4*%
X152026000Y-87082000D03*
X152026000Y-66252000D03*
D14*
X154526000Y-70952000D03*
D15*
X157526000Y-70952000D03*
X154526000Y-74762000D03*
X157526000Y-74762000D03*
X154526000Y-78572000D03*
X157526000Y-78572000D03*
X154526000Y-82382000D03*
X157526000Y-82382000D03*
D16*
X156026000Y-63752000D03*
X156026000Y-89582000D03*
%TD*%
D17*
%TO.C,CY2*%
X67706000Y-106272177D03*
X67706000Y-110547177D03*
%TD*%
D18*
%TO.C,J1*%
X36281999Y-88142000D03*
X28082000Y-88142000D03*
X36281999Y-83142000D03*
X28082000Y-83142000D03*
%TD*%
D19*
%TO.C,C3*%
X139842000Y-40684000D03*
X139842000Y-35684000D03*
%TD*%
D20*
%TO.C,C7*%
X67706000Y-97152000D03*
D13*
X67706000Y-102152000D03*
%TD*%
D21*
%TO.C,C5*%
X57546000Y-102074223D03*
X57546000Y-104149223D03*
%TD*%
D17*
%TO.C,CY1*%
X67706000Y-88746177D03*
X67706000Y-93021177D03*
%TD*%
D22*
%TO.C,L2*%
X57850800Y-98285723D03*
X60289200Y-98285723D03*
%TD*%
D18*
%TO.C,J3*%
X36281999Y-74386000D03*
X28082000Y-74386000D03*
X36281999Y-69386000D03*
X28082000Y-69386000D03*
%TD*%
D21*
%TO.C,C6*%
X136032000Y-92478500D03*
X136032000Y-94553500D03*
%TD*%
D23*
%TO.C,L1*%
X38750000Y-52622000D03*
D24*
X38750000Y-29762000D03*
X53990000Y-29762000D03*
X53990000Y-52622000D03*
%TD*%
D20*
%TO.C,C4*%
X48656000Y-97244323D03*
D13*
X48656000Y-102244323D03*
%TD*%
D25*
%TO.C,C9*%
X130444000Y-87776000D03*
X130444000Y-94176000D03*
%TD*%
D26*
%TO.C,PS2*%
X89804000Y-101136000D03*
D27*
X89804000Y-96056000D03*
X110124000Y-88436000D03*
X110124000Y-98596000D03*
X110124000Y-108756000D03*
X89804000Y-108756000D03*
%TD*%
D28*
%TO.C,IC1*%
X140390000Y-94278000D03*
X140390000Y-93328000D03*
X140390000Y-92378000D03*
X142890000Y-92378000D03*
X142890000Y-94278000D03*
%TD*%
D18*
%TO.C,J2*%
X36281999Y-101898000D03*
X28082000Y-101898000D03*
X36281999Y-96898000D03*
X28082000Y-96898000D03*
%TD*%
D21*
%TO.C,C8*%
X147462000Y-92457000D03*
X147462000Y-94532000D03*
%TD*%
D19*
%TO.C,C2*%
X65674000Y-40993250D03*
X65674000Y-35993250D03*
%TD*%
D29*
%TO.C,D1*%
X23835000Y-53384000D03*
X30805000Y-53384000D03*
%TD*%
D19*
%TO.C,C1*%
X29606000Y-38144000D03*
X24606000Y-38144000D03*
%TD*%
M02*
