%TF.GenerationSoftware,KiCad,Pcbnew,7.0.8*%
%TF.CreationDate,2023-12-07T17:58:44-07:00*%
%TF.ProjectId,GR-LRR-CONTROL-PCB,47522d4c-5252-42d4-934f-4e54524f4c2d,rev?*%
%TF.SameCoordinates,Original*%
%TF.FileFunction,Soldermask,Bot*%
%TF.FilePolarity,Negative*%
%FSLAX46Y46*%
G04 Gerber Fmt 4.6, Leading zero omitted, Abs format (unit mm)*
G04 Created by KiCad (PCBNEW 7.0.8) date 2023-12-07 17:58:44*
%MOMM*%
%LPD*%
G01*
G04 APERTURE LIST*
%ADD10C,2.250000*%
%ADD11C,1.524000*%
%ADD12C,2.000000*%
%ADD13O,3.900000X1.700000*%
%ADD14C,3.600000*%
%ADD15C,2.175000*%
%ADD16C,2.100000*%
G04 APERTURE END LIST*
D10*
%TO.C,U1*%
X46272500Y-108024380D03*
X108252500Y-108024380D03*
X46272500Y-86684380D03*
X108252500Y-86684380D03*
%TD*%
D11*
%TO.C,DR2*%
X111806500Y-52152380D03*
X114346500Y-52152380D03*
X116886500Y-52152380D03*
X119426500Y-52152380D03*
X121966500Y-52152380D03*
X124506500Y-52152380D03*
X127046500Y-52152380D03*
X129586500Y-52152380D03*
X134666500Y-82612380D03*
X132126500Y-82612380D03*
X129586500Y-82612380D03*
X127046500Y-82612380D03*
X124506500Y-82612380D03*
X121966500Y-82612380D03*
X119426500Y-82612380D03*
X116886500Y-82612380D03*
X114346500Y-82612380D03*
X111806500Y-82612380D03*
X109266500Y-82612380D03*
X106726500Y-82612380D03*
%TD*%
%TO.C,U2*%
X169939500Y-122150380D03*
X169939500Y-120150380D03*
X169939500Y-118150380D03*
X169972500Y-116150380D03*
X169939500Y-114150380D03*
X169939500Y-112150380D03*
X169939500Y-110150380D03*
X169939500Y-108150380D03*
X169939500Y-106150380D03*
X169939500Y-104150380D03*
X147976100Y-104150380D03*
X147976100Y-106150380D03*
X147976100Y-108150380D03*
X147976100Y-110150380D03*
X147976100Y-112150380D03*
X147976100Y-114150380D03*
X147976100Y-116150380D03*
X147976100Y-118150380D03*
X147976100Y-120150380D03*
X147976100Y-122150380D03*
%TD*%
%TO.C,DR3*%
X75982500Y-82612380D03*
X78522500Y-82612380D03*
X81062500Y-82612380D03*
X83602500Y-82612380D03*
X86142500Y-82612380D03*
X88682500Y-82612380D03*
X91222500Y-82612380D03*
X93762500Y-82612380D03*
X96302500Y-82612380D03*
X98842500Y-82612380D03*
X101382500Y-82612380D03*
X103922500Y-82612380D03*
X98842500Y-52152380D03*
X96302500Y-52152380D03*
X93762500Y-52152380D03*
X91222500Y-52152380D03*
X88682500Y-52152380D03*
X86142500Y-52152380D03*
X83602500Y-52152380D03*
X81062500Y-52152380D03*
%TD*%
D12*
%TO.C,SW1*%
X122526500Y-93024380D03*
X122526500Y-104224380D03*
X129026500Y-93024380D03*
D13*
X115876500Y-94274380D03*
X115876500Y-102974380D03*
X135676500Y-94274380D03*
X135676500Y-102974380D03*
%TD*%
D11*
%TO.C,DR1*%
X142540500Y-52152380D03*
X145080500Y-52152380D03*
X147620500Y-52152380D03*
X150160500Y-52152380D03*
X152700500Y-52152380D03*
X155240500Y-52152380D03*
X157780500Y-52152380D03*
X160320500Y-52152380D03*
X165400500Y-82612380D03*
X162860500Y-82612380D03*
X160320500Y-82612380D03*
X157780500Y-82612380D03*
X155240500Y-82612380D03*
X152700500Y-82612380D03*
X150160500Y-82612380D03*
X147620500Y-82612380D03*
X145080500Y-82612380D03*
X142540500Y-82612380D03*
X140000500Y-82612380D03*
X137460500Y-82612380D03*
%TD*%
%TO.C,DR4*%
X50328500Y-52152380D03*
X52868500Y-52152380D03*
X55408500Y-52152380D03*
X57948500Y-52152380D03*
X60488500Y-52152380D03*
X63028500Y-52152380D03*
X65568500Y-52152380D03*
X68108500Y-52152380D03*
X73188500Y-82612380D03*
X70648500Y-82612380D03*
X68108500Y-82612380D03*
X65568500Y-82612380D03*
X63028500Y-82612380D03*
X60488500Y-82612380D03*
X57948500Y-82612380D03*
X55408500Y-82612380D03*
X52868500Y-82612380D03*
X50328500Y-82612380D03*
X47788500Y-82612380D03*
X45248500Y-82612380D03*
%TD*%
D14*
%TO.C,J11*%
X179806500Y-106374380D03*
X179806500Y-80544380D03*
D15*
X181306500Y-99174380D03*
X181306500Y-95364380D03*
X181306500Y-91554380D03*
X181306500Y-87744380D03*
X178306500Y-99174380D03*
X178306500Y-95364380D03*
X178306500Y-91554380D03*
X178306500Y-87744380D03*
D16*
X175806500Y-103874380D03*
X175806500Y-83044380D03*
%TD*%
D14*
%TO.C,J10*%
X179806500Y-74374380D03*
X179806500Y-48544380D03*
D15*
X181306500Y-67174380D03*
X181306500Y-63364380D03*
X181306500Y-59554380D03*
X181306500Y-55744380D03*
X178306500Y-67174380D03*
X178306500Y-63364380D03*
X178306500Y-59554380D03*
X178306500Y-55744380D03*
D16*
X175806500Y-71874380D03*
X175806500Y-51044380D03*
%TD*%
M02*
