M48
; DRILL file {KiCad 8.0.2} date 2024-05-12T20:09:54-0600
; FORMAT={-:-/ absolute / inch / decimal}
; #@! TF.CreationDate,2024-05-12T20:09:54-06:00
; #@! TF.GenerationSoftware,Kicad,Pcbnew,8.0.2
; #@! TF.FileFunction,Plated,1,4,PTH
FMAT,2
INCH
; #@! TA.AperFunction,Plated,PTH,ViaDrill
T1C0.0118
; #@! TA.AperFunction,Plated,PTH,ComponentDrill
T2C0.0256
; #@! TA.AperFunction,Plated,PTH,ComponentDrill
T3C0.0276
; #@! TA.AperFunction,Plated,PTH,ComponentDrill
T4C0.0300
; #@! TA.AperFunction,Plated,PTH,ComponentDrill
T5C0.0307
; #@! TA.AperFunction,Plated,PTH,ViaDrill
T6C0.0315
; #@! TA.AperFunction,Plated,PTH,ViaDrill
T7C0.0394
; #@! TA.AperFunction,Plated,PTH,ComponentDrill
T8C0.0394
; #@! TA.AperFunction,Plated,PTH,ComponentDrill
T9C0.0402
; #@! TA.AperFunction,Plated,PTH,ComponentDrill
T10C0.0420
; #@! TA.AperFunction,Plated,PTH,ComponentDrill
T11C0.0510
; #@! TA.AperFunction,Plated,PTH,ComponentDrill
T12C0.0693
; #@! TA.AperFunction,Plated,PTH,ComponentDrill
T13C0.0906
; #@! TA.AperFunction,Plated,PTH,ComponentDrill
T14C0.1098
%
G90
G05
T1
X3.2933Y-3.2874
X3.4154Y-3.2874
X5.7559Y-7.1171
X5.7559Y-7.1506
X6.0157Y-3.4961
X6.0512Y-7.0512
X6.0984Y-3.3189
X6.2205Y-2.9685
X6.2441Y-7.063
X6.2441Y-7.1811
X6.315Y-2.7559
X6.9254Y-4.9182
X6.9963Y-4.8946
X6.9987Y-5.0508
X7.012Y-6.7765
X7.0219Y-5.0678
X7.0421Y-5.0206
X7.0472Y-6.5748
X7.0671Y-5.0363
X7.0766Y-5.0676
X7.1054Y-5.0686
X7.1222Y-6.7056
X7.1341Y-5.0686
X7.1626Y-5.0609
X7.1673Y-6.4567
X7.1895Y-4.7462
X7.1998Y-5.0686
X7.2057Y-6.4577
X7.2167Y-4.7371
X7.2323Y-6.5
X7.2426Y-5.0296
X7.2482Y-4.7398
X7.2714Y-5.0296
X7.2767Y-4.743
X7.2976Y-4.7215
X7.3033Y-5.0127
X7.3263Y-4.7207
X7.3412Y-5.014
X7.3467Y-4.741
X7.3663Y-4.9261
X7.387Y-4.7302
X7.3994Y-4.7561
X7.427Y-4.9836
X7.453Y-4.9576
X7.6732Y-6.4366
X7.6752Y-6.2913
X7.8071Y-4.6457
X7.8071Y-4.6929
X7.8071Y-4.7402
X7.8071Y-4.7874
X7.8071Y-4.8346
X7.8071Y-4.8819
X7.8071Y-4.9291
X7.8071Y-4.9764
X7.8071Y-5.0236
X7.8071Y-5.0709
X7.8071Y-5.1181
X7.8071Y-5.1654
X7.8071Y-5.2126
X7.8071Y-5.2598
X7.8071Y-5.3071
X7.811Y-4.5866
X7.8583Y-6.2874
X7.8661Y-6.437
X8.0945Y-6.2913
X8.2244Y-6.2205
X8.2283Y-6.3543
X8.2531Y-6.3081
X8.2587Y-6.4727
X8.2674Y-6.6766
X8.2805Y-6.5623
X8.2941Y-6.4216
X8.3031Y-3.252
X8.3217Y-6.8979
X8.3256Y-6.2314
X8.3768Y-6.5042
X8.4476Y-6.9767
X8.4528Y-3.0512
X8.4752Y-6.7798
X8.4776Y-6.6223
X8.55Y-6.2877
X8.5732Y-3.0512
X8.5799Y-6.3782
X8.5815Y-6.646
X8.6014Y-5.0226
X8.6075Y-6.6223
X8.6398Y-5.0217
X8.6559Y-6.6731
X8.6642Y-6.8192
X8.6681Y-6.7545
X8.6839Y-6.8664
X8.6839Y-6.9294
X8.7154Y-6.6381
X8.7175Y-6.8191
X8.7461Y-5.3839
X8.874Y-5.4331
X8.8807Y-6.3782
X8.9343Y-5.4228
X8.9551Y-5.0091
X8.9551Y-5.0524
X8.9567Y-5.0957
X8.9764Y-4.8819
X8.9803Y-4.9882
X8.9843Y-5.1165
X8.9851Y-5.0717
X8.9852Y-5.0299
X8.9949Y-6.7838
X9.0315Y-4.9055
X9.063Y-4.7874
X9.063Y-4.8504
X9.063Y-5.2677
X9.063Y-5.3071
X9.0669Y-5.3543
X9.0709Y-4.6929
X9.0748Y-4.5827
X9.1181Y-4.5157
X9.133Y-5.1969
X9.1339Y-4.6457
X9.1339Y-5.0394
X9.1339Y-5.1181
X9.1654Y-5.4567
X9.1659Y-4.5006
X9.1811Y-4.6969
X9.1811Y-5.0551
X9.1969Y-5.0236
X9.2024Y-4.9606
X9.2024Y-4.9291
X9.2287Y-3.0669
X9.2598Y-4.8976
X9.2603Y-5.0085
X9.2618Y-4.8661
X9.2638Y-5.1693
X9.2638Y-5.2598
X9.2638Y-5.3071
X9.2638Y-5.3543
X9.2654Y-5.1024
X9.2677Y-5.0551
X9.2913Y-4.9803
X9.2922Y-5.0109
X9.298Y-4.8386
X9.315Y-5.2126
X9.3248Y-4.4972
X9.3583Y-7.4016
X9.3701Y-5.2992
X9.3858Y-4.3976
X9.3858Y-4.4764
X9.4646Y-5.1614
X9.5709Y-3.6063
X9.5709Y-3.759
X9.5866Y-4.3622
X9.6142Y-4.8858
X9.6535Y-4.4409
X9.6564Y-3.825
X9.6772Y-5.3071
X9.7165Y-5.0
X9.7283Y-4.6181
X9.7756Y-5.3701
T4
X6.6812Y-3.0512
X6.6825Y-2.815
X6.6825Y-2.8937
X6.6825Y-2.9724
X6.6825Y-3.1299
X6.6825Y-3.2087
X6.6825Y-3.2874
X6.6825Y-3.3661
X6.6825Y-3.4449
X6.6825Y-3.5236
X7.5472Y-2.815
X7.5472Y-2.8937
X7.5472Y-2.9724
X7.5472Y-3.0512
X7.5472Y-3.1299
X7.5472Y-3.2087
X7.5472Y-3.2874
X7.5472Y-3.3661
X7.5472Y-3.4449
X7.5472Y-3.5236
T5
X2.8504Y-3.4724
X2.8504Y-3.7283
X2.8504Y-4.626
X2.8504Y-4.8819
X2.8583Y-5.3976
X2.8583Y-5.6535
X2.8583Y-6.5551
X2.8583Y-6.811
X2.8898Y-3.5512
X2.8898Y-3.6496
X2.8898Y-4.7047
X2.8898Y-4.8031
X2.8976Y-5.4764
X2.8976Y-5.5748
X2.8976Y-6.6339
X2.8976Y-6.7323
X2.9291Y-3.4724
X2.9291Y-3.7283
X2.9291Y-4.626
X2.9291Y-4.8819
X2.937Y-5.3976
X2.937Y-5.6535
X2.937Y-6.5551
X2.937Y-6.811
X2.9685Y-3.5512
X2.9685Y-3.6496
X2.9685Y-4.7047
X2.9685Y-4.8031
X2.9764Y-5.4764
X2.9764Y-5.5748
X2.9764Y-6.6339
X2.9764Y-6.7323
X3.0079Y-3.4724
X3.0079Y-3.7283
X3.0079Y-4.626
X3.0079Y-4.8819
X3.0157Y-5.3976
X3.0157Y-5.6535
X3.0157Y-6.5551
X3.0157Y-6.811
X3.0472Y-3.5512
X3.0472Y-3.6496
X3.0472Y-4.7047
X3.0472Y-4.8031
X3.0551Y-5.4764
X3.0551Y-5.5748
X3.0551Y-6.6339
X3.0551Y-6.7323
X3.0866Y-3.4724
X3.0866Y-3.7283
X3.0866Y-4.626
X3.0866Y-4.8819
X3.0945Y-5.3976
X3.0945Y-5.6535
X3.0945Y-6.5551
X3.0945Y-6.811
X3.126Y-3.5512
X3.126Y-3.6496
X3.126Y-4.7047
X3.126Y-4.8031
X3.1339Y-5.4764
X3.1339Y-5.5748
X3.1339Y-6.6339
X3.1339Y-6.7323
X3.1654Y-3.4724
X3.1654Y-3.7283
X3.1654Y-4.626
X3.1654Y-4.8819
X3.1732Y-5.3976
X3.1732Y-5.6535
X3.1732Y-6.5551
X3.1732Y-6.811
X3.2047Y-3.5512
X3.2047Y-3.6496
X3.2047Y-4.7047
X3.2047Y-4.8031
X3.2126Y-5.4764
X3.2126Y-5.5748
X3.2126Y-6.6339
X3.2126Y-6.7323
X3.2441Y-3.4724
X3.2441Y-3.7283
X3.2441Y-4.626
X3.2441Y-4.8819
X3.252Y-5.3976
X3.252Y-5.6535
X3.252Y-6.5551
X3.252Y-6.811
X3.2835Y-3.5512
X3.2835Y-3.6496
X3.2835Y-4.7047
X3.2835Y-4.8031
X3.2913Y-5.4764
X3.2913Y-5.5748
X3.2913Y-6.6339
X3.2913Y-6.7323
X3.3228Y-3.4724
X3.3228Y-3.7283
X3.3228Y-4.626
X3.3228Y-4.8819
X3.3307Y-5.3976
X3.3307Y-5.6535
X3.3307Y-6.5551
X3.3307Y-6.811
X3.3622Y-3.5512
X3.3622Y-3.6496
X3.3622Y-4.7047
X3.3622Y-4.8031
X3.3701Y-5.4764
X3.3701Y-5.5748
X3.3701Y-6.6339
X3.3701Y-6.7323
X3.4016Y-3.4724
X3.4016Y-3.7283
X3.4016Y-4.626
X3.4016Y-4.8819
X3.4094Y-5.3976
X3.4094Y-5.6535
X3.4094Y-6.5551
X3.4094Y-6.811
X3.4409Y-3.5512
X3.4409Y-3.6496
X3.4409Y-4.7047
X3.4409Y-4.8031
X3.4488Y-5.4764
X3.4488Y-5.5748
X3.4488Y-6.6339
X3.4488Y-6.7323
X3.4803Y-3.4724
X3.4803Y-3.7283
X3.4803Y-4.626
X3.4803Y-4.8819
X3.4882Y-5.3976
X3.4882Y-5.6535
X3.4882Y-6.5551
X3.4882Y-6.811
X3.5197Y-3.5512
X3.5197Y-3.6496
X3.5197Y-4.7047
X3.5197Y-4.8031
X3.5276Y-5.4764
X3.5276Y-5.5748
X3.5276Y-6.6339
X3.5276Y-6.7323
X3.5591Y-3.4724
X3.5591Y-3.7283
X3.5591Y-4.626
X3.5591Y-4.8819
X3.5669Y-5.3976
X3.5669Y-5.6535
X3.5669Y-6.5551
X3.5669Y-6.811
X3.5984Y-3.5512
X3.5984Y-3.6496
X3.5984Y-4.7047
X3.5984Y-4.8031
X3.6063Y-5.4764
X3.6063Y-5.5748
X3.6063Y-6.6339
X3.6063Y-6.7323
X3.6378Y-3.4724
X3.6378Y-3.7283
X3.6378Y-4.626
X3.6378Y-4.8819
X3.6457Y-5.3976
X3.6457Y-5.6535
X3.6457Y-6.5551
X3.6457Y-6.811
X3.7559Y-3.5512
X3.7559Y-3.6496
X3.7559Y-4.7047
X3.7559Y-4.8031
X3.7638Y-5.4764
X3.7638Y-5.5748
X3.7638Y-6.6339
X3.7638Y-6.7323
X3.7953Y-3.4724
X3.7953Y-3.7283
X3.7953Y-4.626
X3.7953Y-4.8819
X3.8031Y-5.3976
X3.8031Y-5.6535
X3.8031Y-6.5551
X3.8031Y-6.811
X3.8346Y-3.5512
X3.8346Y-3.6496
X3.8346Y-4.7047
X3.8346Y-4.8031
X3.8425Y-5.4764
X3.8425Y-5.5748
X3.8425Y-6.6339
X3.8425Y-6.7323
X3.874Y-3.4724
X3.874Y-3.7283
X3.874Y-4.626
X3.874Y-4.8819
X3.8819Y-5.3976
X3.8819Y-5.6535
X3.8819Y-6.5551
X3.8819Y-6.811
X3.9134Y-3.5512
X3.9134Y-3.6496
X3.9134Y-4.7047
X3.9134Y-4.8031
X3.9213Y-5.4764
X3.9213Y-5.5748
X3.9213Y-6.6339
X3.9213Y-6.7323
X3.9528Y-3.4724
X3.9528Y-3.7283
X3.9528Y-4.626
X3.9528Y-4.8819
X3.9606Y-5.3976
X3.9606Y-5.6535
X3.9606Y-6.5551
X3.9606Y-6.811
X3.9921Y-3.5512
X3.9921Y-3.6496
X3.9921Y-4.7047
X3.9921Y-4.8031
X4.0Y-5.4764
X4.0Y-5.5748
X4.0Y-6.6339
X4.0Y-6.7323
X4.0315Y-3.4724
X4.0315Y-3.7283
X4.0315Y-4.626
X4.0315Y-4.8819
X4.0394Y-5.3976
X4.0394Y-5.6535
X4.0394Y-6.5551
X4.0394Y-6.811
X4.0709Y-3.5512
X4.0709Y-3.6496
X4.0709Y-4.7047
X4.0709Y-4.8031
X4.0787Y-5.4764
X4.0787Y-5.5748
X4.0787Y-6.6339
X4.0787Y-6.7323
X4.1102Y-3.4724
X4.1102Y-3.7283
X4.1102Y-4.626
X4.1102Y-4.8819
X4.1181Y-5.3976
X4.1181Y-5.6535
X4.1181Y-6.5551
X4.1181Y-6.811
X4.1496Y-3.5512
X4.1496Y-3.6496
X4.1496Y-4.7047
X4.1496Y-4.8031
X4.1575Y-5.4764
X4.1575Y-5.5748
X4.1575Y-6.6339
X4.1575Y-6.7323
T6
X7.8701Y-6.5906
X9.374Y-4.9685
T7
X8.7941Y-6.8743
T8
X2.2362Y-4.8346
X2.2362Y-4.9134
X2.2362Y-4.9921
X2.2362Y-5.0709
X2.2362Y-5.1496
X2.2362Y-6.4921
X2.2362Y-6.5709
X2.2362Y-6.6496
X2.2362Y-6.7283
X2.2362Y-6.8071
X2.2402Y-3.1929
X2.2402Y-3.2717
X2.2402Y-3.3504
X2.2402Y-3.4291
X2.2402Y-3.5079
X2.315Y-4.8346
X2.315Y-4.9134
X2.315Y-4.9921
X2.315Y-5.0709
X2.315Y-5.1496
X2.315Y-6.4921
X2.315Y-6.5709
X2.315Y-6.6496
X2.315Y-6.7283
X2.315Y-6.8071
X2.3189Y-3.1929
X2.3189Y-3.2717
X2.3189Y-3.3504
X2.3189Y-3.4291
X2.3189Y-3.5079
X3.8071Y-7.3701
X3.8071Y-7.4488
X3.8858Y-7.3701
X3.8858Y-7.4488
X3.9646Y-7.3701
X3.9646Y-7.4488
X4.0433Y-7.3701
X4.0433Y-7.4488
X4.122Y-7.3701
X4.122Y-7.4488
X6.3136Y-4.741
X6.3136Y-4.841
X6.3136Y-4.941
X6.3136Y-5.041
X6.3136Y-5.141
X6.3136Y-5.241
X6.3136Y-5.341
X6.3136Y-5.441
X6.3136Y-5.541
X6.3136Y-5.641
X6.3136Y-5.741
X6.3136Y-5.841
X6.4136Y-4.741
X6.4136Y-4.841
X6.4136Y-4.941
X6.4136Y-5.041
X6.4136Y-5.141
X6.4136Y-5.241
X6.4136Y-5.341
X6.4136Y-5.441
X6.4136Y-5.541
X6.4136Y-5.641
X6.4136Y-5.741
X6.4136Y-5.841
X6.5071Y-4.0748
X6.5071Y-4.1748
X6.6071Y-4.0748
X6.6071Y-4.1748
X6.7071Y-4.0748
X6.7071Y-4.1748
X6.8071Y-4.0748
X6.8071Y-4.1748
X6.9071Y-4.0748
X6.9071Y-4.1748
X7.0071Y-4.0748
X7.0071Y-4.1748
X7.1071Y-4.0748
X7.1071Y-4.1748
X7.2071Y-4.0748
X7.2071Y-4.1748
X7.3071Y-4.0748
X7.3071Y-4.1748
X7.4071Y-4.0748
X7.4071Y-4.1748
X7.5071Y-4.0748
X7.5071Y-4.1748
X7.6071Y-4.0748
X7.6071Y-4.1748
X7.8744Y-2.772
X7.9744Y-2.772
X8.0366Y-7.0897
X8.0366Y-7.1928
X8.0744Y-2.772
X8.135Y-7.0897
X8.135Y-7.1928
X8.1744Y-2.772
X8.2138Y-7.0897
X8.2138Y-7.1928
X8.3122Y-7.0897
X8.3122Y-7.1928
X8.5319Y-2.772
X8.6319Y-2.772
X8.7319Y-2.772
X8.7323Y-7.0897
X8.7323Y-7.1928
X8.8307Y-7.0897
X8.8307Y-7.1928
X8.8319Y-2.772
X8.9094Y-7.0897
X8.9094Y-7.1928
X9.0079Y-7.0897
X9.0079Y-7.1928
X9.1874Y-2.7748
X9.2874Y-2.7748
X9.3803Y-5.4701
X9.3803Y-5.5701
X9.3803Y-5.6701
X9.3803Y-5.7701
X9.3803Y-5.8701
X9.3803Y-5.9701
X9.3803Y-6.0701
X9.3858Y-4.0512
X9.3858Y-4.1512
X9.3858Y-4.2512
X9.3874Y-2.7748
X9.4803Y-5.4701
X9.4803Y-5.5701
X9.4803Y-5.6701
X9.4803Y-5.7701
X9.4803Y-5.8701
X9.4803Y-5.9701
X9.4803Y-6.0701
X9.4874Y-2.7748
X9.5276Y-4.675
X9.5276Y-4.775
X9.5276Y-4.875
X9.9831Y-4.0094
X9.9831Y-4.1094
X9.9831Y-4.2094
X9.9831Y-4.3094
X9.9831Y-4.4094
X9.9831Y-4.75
X9.9831Y-4.85
X9.9831Y-4.95
X9.9831Y-5.05
X9.9831Y-5.3894
X9.9831Y-5.4894
X9.9843Y-3.2693
X9.9843Y-3.3693
X9.9843Y-3.4693
X9.9843Y-3.5693
X9.9843Y-3.6693
T9
X2.3346Y-4.0212
X2.3346Y-4.1394
X2.3346Y-4.2575
X2.3346Y-4.3756
X2.3346Y-4.4937
X2.3354Y-5.6669
X2.3354Y-5.785
X2.3354Y-5.9032
X2.3354Y-6.0213
X2.3354Y-6.1394
X2.4528Y-4.0212
X2.4528Y-4.1394
X2.4528Y-4.2575
X2.4528Y-4.3756
X2.4528Y-4.4937
X2.4535Y-5.6669
X2.4535Y-5.785
X2.4535Y-5.9032
X2.4535Y-6.0213
X2.4535Y-6.1394
X2.904Y-2.6378
X2.904Y-2.7559
X2.9606Y-7.2323
X2.9606Y-7.3504
X3.0221Y-2.6378
X3.0221Y-2.7559
X3.0787Y-7.2323
X3.0787Y-7.3504
X3.1402Y-2.6378
X3.1402Y-2.7559
X3.1969Y-7.2323
X3.1969Y-7.3504
X3.2583Y-2.6378
X3.2583Y-2.7559
X3.315Y-7.2323
X3.315Y-7.3504
X3.3764Y-2.6378
X3.3764Y-2.7559
X3.4331Y-7.2323
X3.4331Y-7.3504
T10
X3.563Y-3.995
X3.563Y-4.291
X3.563Y-5.8927
X3.563Y-6.1887
X4.5906Y-4.0475
X4.5906Y-4.3435
X4.5906Y-5.9452
X4.5906Y-6.2412
T11
X6.2482Y-3.5867
X6.4451Y-3.5867
T12
X4.4459Y-2.9183
X4.4459Y-3.1683
X4.6209Y-2.9183
X4.6209Y-3.1683
X4.8358Y-2.9183
X4.8358Y-3.1683
X5.0108Y-2.9183
X5.0108Y-3.1683
T13
X7.9157Y-7.0759
X7.9157Y-7.2995
X8.4331Y-7.0759
X8.4331Y-7.2995
X8.6114Y-7.0759
X8.6114Y-7.2995
X9.1287Y-7.0759
X9.1287Y-7.2995
T14
X4.1933Y-3.1281
X4.7283Y-2.6781
X5.2634Y-3.1281
T2
G00X9.3142Y-7.4952
M15
G01X9.3142Y-7.4794
M16
G05
G00X9.5051Y-7.4952
M15
G01X9.5051Y-7.4794
M16
G05
T3
G00X9.3024Y-7.6164
M15
G01X9.3024Y-7.5968
M16
G05
G00X9.5169Y-7.6164
M15
G01X9.5169Y-7.5968
M16
G05
M30
