%TF.GenerationSoftware,KiCad,Pcbnew,8.0.2*%
%TF.CreationDate,2024-05-12T20:10:00-06:00*%
%TF.ProjectId,GR-LRR-CONTROL,47522d4c-5252-42d4-934f-4e54524f4c2e,rev?*%
%TF.SameCoordinates,Original*%
%TF.FileFunction,Soldermask,Top*%
%TF.FilePolarity,Negative*%
%FSLAX46Y46*%
G04 Gerber Fmt 4.6, Leading zero omitted, Abs format (unit mm)*
G04 Created by KiCad (PCBNEW 8.0.2) date 2024-05-12 20:10:00*
%MOMM*%
%LPD*%
G01*
G04 APERTURE LIST*
G04 Aperture macros list*
%AMRoundRect*
0 Rectangle with rounded corners*
0 $1 Rounding radius*
0 $2 $3 $4 $5 $6 $7 $8 $9 X,Y pos of 4 corners*
0 Add a 4 corners polygon primitive as box body*
4,1,4,$2,$3,$4,$5,$6,$7,$8,$9,$2,$3,0*
0 Add four circle primitives for the rounded corners*
1,1,$1+$1,$2,$3*
1,1,$1+$1,$4,$5*
1,1,$1+$1,$6,$7*
1,1,$1+$1,$8,$9*
0 Add four rect primitives between the rounded corners*
20,1,$1+$1,$2,$3,$4,$5,0*
20,1,$1+$1,$4,$5,$6,$7,0*
20,1,$1+$1,$6,$7,$8,$9,0*
20,1,$1+$1,$8,$9,$2,$3,0*%
G04 Aperture macros list end*
%ADD10R,0.600000X0.850000*%
%ADD11R,1.041400X0.812800*%
%ADD12R,0.812800X1.041400*%
%ADD13RoundRect,0.250000X-0.400000X-0.625000X0.400000X-0.625000X0.400000X0.625000X-0.400000X0.625000X0*%
%ADD14C,2.999999*%
%ADD15R,1.520000X1.520000*%
%ADD16C,1.520000*%
%ADD17RoundRect,0.250000X-0.450000X0.350000X-0.450000X-0.350000X0.450000X-0.350000X0.450000X0.350000X0*%
%ADD18RoundRect,0.135000X0.185000X-0.135000X0.185000X0.135000X-0.185000X0.135000X-0.185000X-0.135000X0*%
%ADD19R,1.500000X1.500000*%
%ADD20C,1.500000*%
%ADD21R,1.350000X1.350000*%
%ADD22C,1.350000*%
%ADD23RoundRect,0.250000X0.400000X0.625000X-0.400000X0.625000X-0.400000X-0.625000X0.400000X-0.625000X0*%
%ADD24C,3.450000*%
%ADD25C,1.803400*%
%ADD26RoundRect,0.218750X0.256250X-0.218750X0.256250X0.218750X-0.256250X0.218750X-0.256250X-0.218750X0*%
%ADD27R,1.524000X1.524000*%
%ADD28C,1.524000*%
%ADD29RoundRect,0.062500X0.062500X-0.350000X0.062500X0.350000X-0.062500X0.350000X-0.062500X-0.350000X0*%
%ADD30RoundRect,0.062500X0.350000X-0.062500X0.350000X0.062500X-0.350000X0.062500X-0.350000X-0.062500X0*%
%ADD31R,3.700000X3.700000*%
%ADD32R,1.700000X1.700000*%
%ADD33O,1.700000X1.700000*%
%ADD34RoundRect,0.250000X0.250000X0.475000X-0.250000X0.475000X-0.250000X-0.475000X0.250000X-0.475000X0*%
%ADD35RoundRect,0.122100X-0.284900X0.429900X-0.284900X-0.429900X0.284900X-0.429900X0.284900X0.429900X0*%
%ADD36RoundRect,0.095420X-0.271580X0.456580X-0.271580X-0.456580X0.271580X-0.456580X0.271580X0.456580X0*%
%ADD37C,2.400000*%
%ADD38RoundRect,0.102000X0.644000X0.644000X-0.644000X0.644000X-0.644000X-0.644000X0.644000X-0.644000X0*%
%ADD39C,1.492000*%
%ADD40RoundRect,0.140000X-0.170000X0.140000X-0.170000X-0.140000X0.170000X-0.140000X0.170000X0.140000X0*%
%ADD41R,2.640000X2.640000*%
%ADD42C,2.640000*%
%ADD43C,4.185000*%
%ADD44RoundRect,0.250000X-0.625000X0.400000X-0.625000X-0.400000X0.625000X-0.400000X0.625000X0.400000X0*%
%ADD45RoundRect,0.135000X0.135000X0.185000X-0.135000X0.185000X-0.135000X-0.185000X0.135000X-0.185000X0*%
%ADD46RoundRect,0.075000X-0.075000X-0.200000X0.075000X-0.200000X0.075000X0.200000X-0.075000X0.200000X0*%
%ADD47R,1.550000X0.700000*%
%ADD48R,0.650000X1.550000*%
%ADD49R,0.400000X1.750000*%
%ADD50R,1.825000X0.700000*%
%ADD51R,2.000000X1.400000*%
%ADD52R,1.300000X2.000000*%
%ADD53O,1.300000X1.700000*%
%ADD54O,1.000000X1.400000*%
%ADD55R,1.425000X2.500000*%
%ADD56R,1.800000X1.150000*%
%ADD57RoundRect,0.140000X-0.219203X-0.021213X-0.021213X-0.219203X0.219203X0.021213X0.021213X0.219203X0*%
%ADD58RoundRect,0.250000X-0.250000X-0.475000X0.250000X-0.475000X0.250000X0.475000X-0.250000X0.475000X0*%
%ADD59RoundRect,0.140000X0.170000X-0.140000X0.170000X0.140000X-0.170000X0.140000X-0.170000X-0.140000X0*%
%ADD60RoundRect,0.250000X0.625000X-0.400000X0.625000X0.400000X-0.625000X0.400000X-0.625000X-0.400000X0*%
%ADD61R,2.000000X2.000000*%
%ADD62RoundRect,0.250000X-0.787500X-1.025000X0.787500X-1.025000X0.787500X1.025000X-0.787500X1.025000X0*%
%ADD63RoundRect,0.100000X0.225000X0.100000X-0.225000X0.100000X-0.225000X-0.100000X0.225000X-0.100000X0*%
%ADD64RoundRect,0.122100X0.284900X-0.429900X0.284900X0.429900X-0.284900X0.429900X-0.284900X-0.429900X0*%
%ADD65RoundRect,0.095420X0.271580X-0.456580X0.271580X0.456580X-0.271580X0.456580X-0.271580X-0.456580X0*%
%ADD66RoundRect,0.218750X-0.256250X0.218750X-0.256250X-0.218750X0.256250X-0.218750X0.256250X0.218750X0*%
%ADD67RoundRect,0.087500X-0.725000X-0.087500X0.725000X-0.087500X0.725000X0.087500X-0.725000X0.087500X0*%
%ADD68RoundRect,0.250000X0.475000X-0.250000X0.475000X0.250000X-0.475000X0.250000X-0.475000X-0.250000X0*%
%ADD69C,2.250000*%
%ADD70R,0.200000X0.700000*%
%ADD71RoundRect,0.100000X-0.100000X0.225000X-0.100000X-0.225000X0.100000X-0.225000X0.100000X0.225000X0*%
%ADD72R,0.584200X0.203200*%
%ADD73R,2.000000X4.500000*%
%ADD74RoundRect,0.150000X-0.150000X0.512500X-0.150000X-0.512500X0.150000X-0.512500X0.150000X0.512500X0*%
%ADD75C,6.100000*%
%ADD76R,0.700000X0.200000*%
%ADD77RoundRect,0.135000X-0.185000X0.135000X-0.185000X-0.135000X0.185000X-0.135000X0.185000X0.135000X0*%
G04 APERTURE END LIST*
D10*
%TO.C,Q1*%
X165750000Y-74350000D03*
X167650000Y-74350000D03*
X166700000Y-71850000D03*
%TD*%
D11*
%TO.C,CR2*%
X238100000Y-120749000D03*
X238100000Y-124051000D03*
%TD*%
D12*
%TO.C,CR1*%
X194798000Y-167400000D03*
X198100000Y-167400000D03*
%TD*%
D13*
%TO.C,R34*%
X103950000Y-161800000D03*
X107050000Y-161800000D03*
%TD*%
D14*
%TO.C,J6*%
X54980001Y-104299654D03*
X54980001Y-111999639D03*
D15*
X59300000Y-114139650D03*
D16*
X59300000Y-111139651D03*
X59300000Y-108139652D03*
X59300000Y-105139653D03*
X59300000Y-102139654D03*
X62299999Y-114139650D03*
X62299999Y-111139651D03*
X62299999Y-108139652D03*
X62299999Y-105139653D03*
X62299999Y-102139654D03*
%TD*%
D17*
%TO.C,R21*%
X238400000Y-111700000D03*
X238400000Y-113700000D03*
%TD*%
D18*
%TO.C,R25*%
X215030000Y-167307500D03*
X215030000Y-166287500D03*
%TD*%
D19*
%TO.C,J11*%
X58800000Y-172900000D03*
D20*
X56800000Y-172900000D03*
X58800000Y-170900000D03*
X56800000Y-170900000D03*
X58800000Y-168900000D03*
X56800000Y-168900000D03*
X58800000Y-166900000D03*
X56800000Y-166900000D03*
X58800000Y-164900000D03*
X56800000Y-164900000D03*
%TD*%
D21*
%TO.C,J26*%
X233359998Y-70479298D03*
D22*
X235899998Y-70479298D03*
X238439998Y-70479298D03*
X240979998Y-70479298D03*
%TD*%
D23*
%TO.C,R6*%
X239409998Y-76279298D03*
X236309998Y-76279298D03*
%TD*%
D20*
%TO.C,J37*%
X204130000Y-180077500D03*
X206630000Y-180077500D03*
X208630000Y-180077500D03*
X211130000Y-180077500D03*
X204130000Y-182697500D03*
X206630000Y-182697500D03*
X208630000Y-182697500D03*
X211130000Y-182697500D03*
D24*
X201060000Y-185407500D03*
X214200000Y-185407500D03*
X201060000Y-179727500D03*
X214200000Y-179727500D03*
%TD*%
D25*
%TO.C,J18*%
X158704900Y-91102701D03*
X163704900Y-91102701D03*
%TD*%
D26*
%TO.C,D1*%
X245600000Y-128487500D03*
X245600000Y-126912500D03*
%TD*%
D27*
%TO.C,C21*%
X90500000Y-157192450D03*
D28*
X90500000Y-149674050D03*
%TD*%
D13*
%TO.C,R3*%
X83650000Y-83500000D03*
X86750000Y-83500000D03*
%TD*%
D29*
%TO.C,U10*%
X213300000Y-175145000D03*
X213800000Y-175145000D03*
X214300000Y-175145000D03*
X214800000Y-175145000D03*
X215300000Y-175145000D03*
X215800000Y-175145000D03*
X216300000Y-175145000D03*
X216800000Y-175145000D03*
X217300000Y-175145000D03*
D30*
X218237500Y-174207500D03*
X218237500Y-173707500D03*
X218237500Y-173207500D03*
X218237500Y-172707500D03*
X218237500Y-172207500D03*
X218237500Y-171707500D03*
X218237500Y-171207500D03*
X218237500Y-170707500D03*
X218237500Y-170207500D03*
D29*
X217300000Y-169270000D03*
X216800000Y-169270000D03*
X216300000Y-169270000D03*
X215800000Y-169270000D03*
X215300000Y-169270000D03*
X214800000Y-169270000D03*
X214300000Y-169270000D03*
X213800000Y-169270000D03*
X213300000Y-169270000D03*
D30*
X212362500Y-170207500D03*
X212362500Y-170707500D03*
X212362500Y-171207500D03*
X212362500Y-171707500D03*
X212362500Y-172207500D03*
X212362500Y-172707500D03*
X212362500Y-173207500D03*
X212362500Y-173707500D03*
X212362500Y-174207500D03*
D31*
X215300000Y-172207500D03*
%TD*%
D32*
%TO.C,J32*%
X240800000Y-154180000D03*
D33*
X238260000Y-154180000D03*
X240800000Y-151640000D03*
X238260000Y-151640000D03*
X240800000Y-149100000D03*
X238260000Y-149100000D03*
X240800000Y-146560000D03*
X238260000Y-146560000D03*
X240800000Y-144020000D03*
X238260000Y-144020000D03*
X240800000Y-141480000D03*
X238260000Y-141480000D03*
X240800000Y-138940000D03*
X238260000Y-138940000D03*
%TD*%
D21*
%TO.C,J20*%
X253570001Y-136890349D03*
D22*
X253570001Y-139430349D03*
%TD*%
D34*
%TO.C,C6*%
X212224000Y-166683500D03*
X210324000Y-166683500D03*
%TD*%
D19*
%TO.C,J1*%
X58900000Y-89100000D03*
D20*
X56900000Y-89100000D03*
X58900000Y-87100000D03*
X56900000Y-87100000D03*
X58900000Y-85100000D03*
X56900000Y-85100000D03*
X58900000Y-83100000D03*
X56900000Y-83100000D03*
X58900000Y-81100000D03*
X56900000Y-81100000D03*
%TD*%
D18*
%TO.C,R22*%
X245000000Y-118100000D03*
X245000000Y-117080000D03*
%TD*%
D23*
%TO.C,R7*%
X234409998Y-76279298D03*
X231309998Y-76279298D03*
%TD*%
D35*
%TO.C,R12*%
X245600000Y-92689298D03*
D36*
X244760000Y-92689298D03*
X243960000Y-92689298D03*
D35*
X243120000Y-92689298D03*
X243120000Y-94459298D03*
D36*
X243960000Y-94459298D03*
X244760000Y-94459298D03*
D35*
X245600000Y-94459298D03*
%TD*%
D37*
%TO.C,J12*%
X93950000Y-140350000D03*
X70800000Y-140350000D03*
D38*
X105600000Y-141600000D03*
D39*
X104600000Y-143600000D03*
X103600000Y-141600000D03*
X102600000Y-143600000D03*
X101600000Y-141600000D03*
X100600000Y-143600000D03*
X99600000Y-141600000D03*
X98600000Y-143600000D03*
X97600000Y-141600000D03*
X96600000Y-143600000D03*
X95600000Y-141600000D03*
X92600000Y-143600000D03*
X91600000Y-141600000D03*
X90600000Y-143600000D03*
X89600000Y-141600000D03*
X88600000Y-143600000D03*
X87600000Y-141600000D03*
X86600000Y-143600000D03*
X85600000Y-141600000D03*
X84600000Y-143600000D03*
X83600000Y-141600000D03*
X82600000Y-143600000D03*
X81600000Y-141600000D03*
X80600000Y-143600000D03*
X79600000Y-141600000D03*
X78600000Y-143600000D03*
X77600000Y-141600000D03*
X76600000Y-143600000D03*
X75600000Y-141600000D03*
X74600000Y-143600000D03*
X73600000Y-141600000D03*
X72600000Y-143600000D03*
X105600000Y-139100000D03*
X104600000Y-137100000D03*
X103600000Y-139100000D03*
X102600000Y-137100000D03*
X101600000Y-139100000D03*
X100600000Y-137100000D03*
X99600000Y-139100000D03*
X98600000Y-137100000D03*
X97600000Y-139100000D03*
X96600000Y-137100000D03*
X95600000Y-139100000D03*
X92600000Y-137100000D03*
X91600000Y-139100000D03*
X90600000Y-137100000D03*
X89600000Y-139100000D03*
X88600000Y-137100000D03*
X87600000Y-139100000D03*
X86600000Y-137100000D03*
X85600000Y-139100000D03*
X84600000Y-137100000D03*
X83600000Y-139100000D03*
X82600000Y-137100000D03*
X81600000Y-139100000D03*
X80600000Y-137100000D03*
X79600000Y-139100000D03*
X78600000Y-137100000D03*
X77600000Y-139100000D03*
X76600000Y-137100000D03*
X75600000Y-139100000D03*
X74600000Y-137100000D03*
X73600000Y-139100000D03*
X72600000Y-137100000D03*
%TD*%
D40*
%TO.C,C8*%
X210746000Y-174884500D03*
X210746000Y-175844500D03*
%TD*%
%TO.C,C7*%
X207900000Y-159850000D03*
X207900000Y-160810000D03*
%TD*%
D41*
%TO.C,J5*%
X127275000Y-80475000D03*
D42*
X122830000Y-80475000D03*
X117370000Y-80475000D03*
X112925000Y-80475000D03*
X112925000Y-74125000D03*
X117370000Y-74125000D03*
X122830000Y-74125000D03*
X127275000Y-74125000D03*
D43*
X120100000Y-68025000D03*
X133690000Y-79455000D03*
X106510000Y-79455000D03*
%TD*%
D44*
%TO.C,R13*%
X160400000Y-77050000D03*
X160400000Y-80150000D03*
%TD*%
D28*
%TO.C,U4*%
X169736600Y-71500000D03*
X169736600Y-73500000D03*
X169736600Y-75500000D03*
X169703600Y-77500000D03*
X169736600Y-79500000D03*
X169736600Y-81500000D03*
X169736600Y-83500000D03*
X169736600Y-85500000D03*
X169736600Y-87500000D03*
X169736600Y-89500000D03*
X191700000Y-89500000D03*
X191700000Y-87500000D03*
X191700000Y-85500000D03*
X191700000Y-83500000D03*
X191700000Y-81500000D03*
X191700000Y-79500000D03*
X191700000Y-77500000D03*
X191700000Y-75500000D03*
X191700000Y-73500000D03*
X191700000Y-71500000D03*
%TD*%
D18*
%TO.C,R26*%
X216630000Y-167207500D03*
X216630000Y-166187500D03*
%TD*%
D23*
%TO.C,R2*%
X198050000Y-159800000D03*
X194950000Y-159800000D03*
%TD*%
D32*
%TO.C,J4*%
X193220000Y-103500000D03*
D33*
X193220000Y-106040000D03*
X190680000Y-103500000D03*
X190680000Y-106040000D03*
X188140000Y-103500000D03*
X188140000Y-106040000D03*
X185600000Y-103500000D03*
X185600000Y-106040000D03*
X183060000Y-103500000D03*
X183060000Y-106040000D03*
X180520000Y-103500000D03*
X180520000Y-106040000D03*
X177980000Y-103500000D03*
X177980000Y-106040000D03*
X175440000Y-103500000D03*
X175440000Y-106040000D03*
X172900000Y-103500000D03*
X172900000Y-106040000D03*
X170360000Y-103500000D03*
X170360000Y-106040000D03*
X167820000Y-103500000D03*
X167820000Y-106040000D03*
X165280000Y-103500000D03*
X165280000Y-106040000D03*
%TD*%
D19*
%TO.C,J15*%
X104700000Y-187200000D03*
D20*
X104700000Y-189200000D03*
X102700000Y-187200000D03*
X102700000Y-189200000D03*
X100700000Y-187200000D03*
X100700000Y-189200000D03*
X98700000Y-187200000D03*
X98700000Y-189200000D03*
X96700000Y-187200000D03*
X96700000Y-189200000D03*
%TD*%
D45*
%TO.C,R27*%
X211030000Y-168407500D03*
X210010000Y-168407500D03*
%TD*%
D23*
%TO.C,R4*%
X222759998Y-75979298D03*
X219659998Y-75979298D03*
%TD*%
D27*
%TO.C,C22*%
X116600000Y-151007550D03*
D28*
X116600000Y-158525950D03*
%TD*%
D13*
%TO.C,R33*%
X103400000Y-112800000D03*
X106500000Y-112800000D03*
%TD*%
D21*
%TO.C,J25*%
X216710350Y-70409298D03*
D22*
X219250350Y-70409298D03*
X221790350Y-70409298D03*
X224330350Y-70409298D03*
%TD*%
D34*
%TO.C,C17*%
X223330000Y-171807500D03*
X221430000Y-171807500D03*
%TD*%
D45*
%TO.C,R24*%
X209280000Y-163007500D03*
X208260000Y-163007500D03*
%TD*%
D40*
%TO.C,C9*%
X219630000Y-174347500D03*
X219630000Y-175307500D03*
%TD*%
D46*
%TO.C,U11*%
X227930000Y-169577500D03*
X228430000Y-169577500D03*
X228930000Y-169577500D03*
X229430000Y-169577500D03*
X229930000Y-169577500D03*
X229930000Y-168807500D03*
X229430000Y-168807500D03*
X228930000Y-168807500D03*
X228430000Y-168807500D03*
X227930000Y-168807500D03*
%TD*%
D47*
%TO.C,IC1*%
X160725000Y-183005000D03*
X160725000Y-181735000D03*
X160725000Y-180465000D03*
X160725000Y-179195000D03*
X155275000Y-179195000D03*
X155275000Y-180465000D03*
X155275000Y-181735000D03*
X155275000Y-183005000D03*
%TD*%
D48*
%TO.C,IC2*%
X202014998Y-81204298D03*
X203284998Y-81204298D03*
X204554998Y-81204298D03*
X205824998Y-81204298D03*
X207094998Y-81204298D03*
X208364998Y-81204298D03*
X209634998Y-81204298D03*
X210904998Y-81204298D03*
X210904998Y-75754298D03*
X209634998Y-75754298D03*
X208364998Y-75754298D03*
X207094998Y-75754298D03*
X205824998Y-75754298D03*
X204554998Y-75754298D03*
X203284998Y-75754298D03*
X202014998Y-75754298D03*
%TD*%
D32*
%TO.C,J39*%
X162905000Y-148362588D03*
D33*
X160365000Y-148362588D03*
X162905000Y-145822588D03*
X160365000Y-145822588D03*
X162905000Y-143282588D03*
X160365000Y-143282588D03*
X162905000Y-140742588D03*
X160365000Y-140742588D03*
X162905000Y-138202588D03*
X160365000Y-138202588D03*
X162905000Y-135662588D03*
X160365000Y-135662588D03*
X162905000Y-133122588D03*
X160365000Y-133122588D03*
X162905000Y-130582588D03*
X160365000Y-130582588D03*
X162905000Y-128042588D03*
X160365000Y-128042588D03*
X162905000Y-125502588D03*
X160365000Y-125502588D03*
X162905000Y-122962588D03*
X160365000Y-122962588D03*
X162905000Y-120422588D03*
X160365000Y-120422588D03*
%TD*%
D49*
%TO.C,J36*%
X237705000Y-190387500D03*
X238355000Y-190387500D03*
X239005000Y-190387500D03*
X239655000Y-190387500D03*
X240305000Y-190387500D03*
D50*
X236017500Y-191507500D03*
D51*
X236155000Y-190147500D03*
D52*
X236280000Y-192277500D03*
D53*
X236280000Y-193207500D03*
D54*
X236580000Y-190177500D03*
D55*
X238042500Y-193457500D03*
X239967500Y-193457500D03*
D54*
X241430000Y-190177500D03*
D52*
X241730000Y-192277500D03*
D53*
X241730000Y-193207500D03*
D51*
X241905000Y-190147500D03*
D50*
X241992500Y-191507500D03*
%TD*%
D32*
%TO.C,J33*%
X242000000Y-123825000D03*
D33*
X242000000Y-121285000D03*
X242000000Y-118745000D03*
%TD*%
D18*
%TO.C,R29*%
X213830000Y-167307500D03*
X213830000Y-166287500D03*
%TD*%
D37*
%TO.C,J8*%
X93750000Y-120750000D03*
X70600000Y-120750000D03*
D38*
X105400000Y-122000000D03*
D39*
X104400000Y-124000000D03*
X103400000Y-122000000D03*
X102400000Y-124000000D03*
X101400000Y-122000000D03*
X100400000Y-124000000D03*
X99400000Y-122000000D03*
X98400000Y-124000000D03*
X97400000Y-122000000D03*
X96400000Y-124000000D03*
X95400000Y-122000000D03*
X92400000Y-124000000D03*
X91400000Y-122000000D03*
X90400000Y-124000000D03*
X89400000Y-122000000D03*
X88400000Y-124000000D03*
X87400000Y-122000000D03*
X86400000Y-124000000D03*
X85400000Y-122000000D03*
X84400000Y-124000000D03*
X83400000Y-122000000D03*
X82400000Y-124000000D03*
X81400000Y-122000000D03*
X80400000Y-124000000D03*
X79400000Y-122000000D03*
X78400000Y-124000000D03*
X77400000Y-122000000D03*
X76400000Y-124000000D03*
X75400000Y-122000000D03*
X74400000Y-124000000D03*
X73400000Y-122000000D03*
X72400000Y-124000000D03*
X105400000Y-119500000D03*
X104400000Y-117500000D03*
X103400000Y-119500000D03*
X102400000Y-117500000D03*
X101400000Y-119500000D03*
X100400000Y-117500000D03*
X99400000Y-119500000D03*
X98400000Y-117500000D03*
X97400000Y-119500000D03*
X96400000Y-117500000D03*
X95400000Y-119500000D03*
X92400000Y-117500000D03*
X91400000Y-119500000D03*
X90400000Y-117500000D03*
X89400000Y-119500000D03*
X88400000Y-117500000D03*
X87400000Y-119500000D03*
X86400000Y-117500000D03*
X85400000Y-119500000D03*
X84400000Y-117500000D03*
X83400000Y-119500000D03*
X82400000Y-117500000D03*
X81400000Y-119500000D03*
X80400000Y-117500000D03*
X79400000Y-119500000D03*
X78400000Y-117500000D03*
X77400000Y-119500000D03*
X76400000Y-117500000D03*
X75400000Y-119500000D03*
X74400000Y-117500000D03*
X73400000Y-119500000D03*
X72400000Y-117500000D03*
%TD*%
D56*
%TO.C,LED1*%
X160400000Y-71850000D03*
X160400000Y-74850000D03*
%TD*%
D40*
%TO.C,C12*%
X219730000Y-171247500D03*
X219730000Y-172207500D03*
%TD*%
D14*
%TO.C,J2*%
X83600347Y-62680001D03*
X75900362Y-62680001D03*
D15*
X73760351Y-67000000D03*
D16*
X76760350Y-67000000D03*
X79760349Y-67000000D03*
X82760348Y-67000000D03*
X85760347Y-67000000D03*
X73760351Y-69999999D03*
X76760350Y-69999999D03*
X79760349Y-69999999D03*
X82760348Y-69999999D03*
X85760347Y-69999999D03*
%TD*%
D57*
%TO.C,C11*%
X215456589Y-176900089D03*
X216135411Y-177578911D03*
%TD*%
D44*
%TO.C,R11*%
X248300000Y-137750000D03*
X248300000Y-140850000D03*
%TD*%
D21*
%TO.C,J21*%
X253600000Y-83039649D03*
D22*
X253600000Y-85579649D03*
X253600000Y-88119649D03*
X253600000Y-90659649D03*
X253600000Y-93199649D03*
%TD*%
D14*
%TO.C,J10*%
X55000000Y-146100015D03*
X55000000Y-153800000D03*
D15*
X59319999Y-155940011D03*
D16*
X59319999Y-152940012D03*
X59319999Y-149940013D03*
X59319999Y-146940014D03*
X59319999Y-143940015D03*
X62319998Y-155940011D03*
X62319998Y-152940012D03*
X62319998Y-149940013D03*
X62319998Y-146940014D03*
X62319998Y-143940015D03*
%TD*%
D58*
%TO.C,C18*%
X225530000Y-171907500D03*
X227430000Y-171907500D03*
%TD*%
D59*
%TO.C,C10*%
X210930000Y-170667500D03*
X210930000Y-169707500D03*
%TD*%
D60*
%TO.C,R31*%
X149600000Y-182750000D03*
X149600000Y-179650000D03*
%TD*%
D34*
%TO.C,C16*%
X203120000Y-176607500D03*
X201220000Y-176607500D03*
%TD*%
D61*
%TO.C,TP2*%
X246000000Y-120100000D03*
%TD*%
D62*
%TO.C,C14*%
X226783500Y-165439500D03*
X233008500Y-165439500D03*
%TD*%
D63*
%TO.C,U7*%
X239650000Y-132350000D03*
X239650000Y-131700000D03*
X239650000Y-131050000D03*
X237750000Y-131050000D03*
X237750000Y-132350000D03*
%TD*%
D21*
%TO.C,J23*%
X253570001Y-120650352D03*
D22*
X253570001Y-123190352D03*
X253570001Y-125730352D03*
X253570001Y-128270352D03*
%TD*%
D37*
%TO.C,J3*%
X93750000Y-91450000D03*
X70600000Y-91450000D03*
D38*
X105400000Y-92700000D03*
D39*
X104400000Y-94700000D03*
X103400000Y-92700000D03*
X102400000Y-94700000D03*
X101400000Y-92700000D03*
X100400000Y-94700000D03*
X99400000Y-92700000D03*
X98400000Y-94700000D03*
X97400000Y-92700000D03*
X96400000Y-94700000D03*
X95400000Y-92700000D03*
X92400000Y-94700000D03*
X91400000Y-92700000D03*
X90400000Y-94700000D03*
X89400000Y-92700000D03*
X88400000Y-94700000D03*
X87400000Y-92700000D03*
X86400000Y-94700000D03*
X85400000Y-92700000D03*
X84400000Y-94700000D03*
X83400000Y-92700000D03*
X82400000Y-94700000D03*
X81400000Y-92700000D03*
X80400000Y-94700000D03*
X79400000Y-92700000D03*
X78400000Y-94700000D03*
X77400000Y-92700000D03*
X76400000Y-94700000D03*
X75400000Y-92700000D03*
X74400000Y-94700000D03*
X73400000Y-92700000D03*
X72400000Y-94700000D03*
X105400000Y-90200000D03*
X104400000Y-88200000D03*
X103400000Y-90200000D03*
X102400000Y-88200000D03*
X101400000Y-90200000D03*
X100400000Y-88200000D03*
X99400000Y-90200000D03*
X98400000Y-88200000D03*
X97400000Y-90200000D03*
X96400000Y-88200000D03*
X95400000Y-90200000D03*
X92400000Y-88200000D03*
X91400000Y-90200000D03*
X90400000Y-88200000D03*
X89400000Y-90200000D03*
X88400000Y-88200000D03*
X87400000Y-90200000D03*
X86400000Y-88200000D03*
X85400000Y-90200000D03*
X84400000Y-88200000D03*
X83400000Y-90200000D03*
X82400000Y-88200000D03*
X81400000Y-90200000D03*
X80400000Y-88200000D03*
X79400000Y-90200000D03*
X78400000Y-88200000D03*
X77400000Y-90200000D03*
X76400000Y-88200000D03*
X75400000Y-90200000D03*
X74400000Y-88200000D03*
X73400000Y-90200000D03*
X72400000Y-88200000D03*
%TD*%
D64*
%TO.C,R10*%
X243120000Y-102159298D03*
D65*
X243960000Y-102159298D03*
X244760000Y-102159298D03*
D64*
X245600000Y-102159298D03*
X245600000Y-100389298D03*
D65*
X244760000Y-100389298D03*
X243960000Y-100389298D03*
D64*
X243120000Y-100389298D03*
%TD*%
D60*
%TO.C,R14*%
X158000000Y-80100000D03*
X158000000Y-77000000D03*
%TD*%
D44*
%TO.C,R9*%
X152800000Y-84250000D03*
X152800000Y-87350000D03*
%TD*%
D58*
%TO.C,C15*%
X204930000Y-177007500D03*
X206830000Y-177007500D03*
%TD*%
D56*
%TO.C,LED2*%
X166100000Y-84400000D03*
X166100000Y-81400000D03*
%TD*%
D18*
%TO.C,R23*%
X206600000Y-160810000D03*
X206600000Y-159790000D03*
%TD*%
D66*
%TO.C,D2*%
X245300000Y-122400000D03*
X245300000Y-123975000D03*
%TD*%
D13*
%TO.C,R32*%
X101200000Y-99000000D03*
X104300000Y-99000000D03*
%TD*%
D67*
%TO.C,U9*%
X210883500Y-159939500D03*
X210883500Y-160439500D03*
X210883500Y-160939500D03*
X210883500Y-161439500D03*
X210883500Y-161939500D03*
X215108500Y-161939500D03*
X215108500Y-161439500D03*
X215108500Y-160939500D03*
X215108500Y-160439500D03*
X215108500Y-159939500D03*
%TD*%
D68*
%TO.C,C5*%
X218730000Y-167007500D03*
X218730000Y-165107500D03*
%TD*%
D40*
%TO.C,C4*%
X208730000Y-170547500D03*
X208730000Y-171507500D03*
%TD*%
D20*
%TO.C,J38*%
X221800000Y-180077500D03*
X224300000Y-180077500D03*
X226300000Y-180077500D03*
X228800000Y-180077500D03*
X221800000Y-182697500D03*
X224300000Y-182697500D03*
X226300000Y-182697500D03*
X228800000Y-182697500D03*
D24*
X218730000Y-185407500D03*
X231870000Y-185407500D03*
X218730000Y-179727500D03*
X231870000Y-179727500D03*
%TD*%
D60*
%TO.C,R15*%
X166100000Y-79250000D03*
X166100000Y-76150000D03*
%TD*%
D59*
%TO.C,C3*%
X208630000Y-173767500D03*
X208630000Y-172807500D03*
%TD*%
D37*
%TO.C,J16*%
X93950000Y-169750000D03*
X70800000Y-169750000D03*
D38*
X105600000Y-171000000D03*
D39*
X104600000Y-173000000D03*
X103600000Y-171000000D03*
X102600000Y-173000000D03*
X101600000Y-171000000D03*
X100600000Y-173000000D03*
X99600000Y-171000000D03*
X98600000Y-173000000D03*
X97600000Y-171000000D03*
X96600000Y-173000000D03*
X95600000Y-171000000D03*
X92600000Y-173000000D03*
X91600000Y-171000000D03*
X90600000Y-173000000D03*
X89600000Y-171000000D03*
X88600000Y-173000000D03*
X87600000Y-171000000D03*
X86600000Y-173000000D03*
X85600000Y-171000000D03*
X84600000Y-173000000D03*
X83600000Y-171000000D03*
X82600000Y-173000000D03*
X81600000Y-171000000D03*
X80600000Y-173000000D03*
X79600000Y-171000000D03*
X78600000Y-173000000D03*
X77600000Y-171000000D03*
X76600000Y-173000000D03*
X75600000Y-171000000D03*
X74600000Y-173000000D03*
X73600000Y-171000000D03*
X72600000Y-173000000D03*
X105600000Y-168500000D03*
X104600000Y-166500000D03*
X103600000Y-168500000D03*
X102600000Y-166500000D03*
X101600000Y-168500000D03*
X100600000Y-166500000D03*
X99600000Y-168500000D03*
X98600000Y-166500000D03*
X97600000Y-168500000D03*
X96600000Y-166500000D03*
X95600000Y-168500000D03*
X92600000Y-166500000D03*
X91600000Y-168500000D03*
X90600000Y-166500000D03*
X89600000Y-168500000D03*
X88600000Y-166500000D03*
X87600000Y-168500000D03*
X86600000Y-166500000D03*
X85600000Y-168500000D03*
X84600000Y-166500000D03*
X83600000Y-168500000D03*
X82600000Y-166500000D03*
X81600000Y-168500000D03*
X80600000Y-166500000D03*
X79600000Y-168500000D03*
X78600000Y-166500000D03*
X77600000Y-168500000D03*
X76600000Y-166500000D03*
X75600000Y-168500000D03*
X74600000Y-166500000D03*
X73600000Y-168500000D03*
X72600000Y-166500000D03*
%TD*%
D69*
%TO.C,U1*%
X189870000Y-182937588D03*
X189870000Y-120957588D03*
X168530000Y-182937588D03*
X168530000Y-120957588D03*
D70*
X187000000Y-169367588D03*
X187000000Y-166287588D03*
X186600000Y-169367588D03*
X186600000Y-166287588D03*
X186200000Y-169367588D03*
X186200000Y-166287588D03*
X185800000Y-169367588D03*
X185800000Y-166287588D03*
X185400000Y-169367588D03*
X185400000Y-166287588D03*
X185000000Y-169367588D03*
X185000000Y-166287588D03*
X184600000Y-169367588D03*
X184600000Y-166287588D03*
X184200000Y-169367588D03*
X184200000Y-166287588D03*
X183800000Y-169367588D03*
X183800000Y-166287588D03*
X183400000Y-169367588D03*
X183400000Y-166287588D03*
X183000000Y-169367588D03*
X183000000Y-166287588D03*
X182600000Y-169367588D03*
X182600000Y-166287588D03*
X182200000Y-169367588D03*
X182200000Y-166287588D03*
X181800000Y-169367588D03*
X181800000Y-166287588D03*
X181400000Y-169367588D03*
X181400000Y-166287588D03*
X181000000Y-169367588D03*
X181000000Y-166287588D03*
X180600000Y-169367588D03*
X180600000Y-166287588D03*
X180200000Y-169367588D03*
X180200000Y-166287588D03*
X179800000Y-169367588D03*
X179800000Y-166287588D03*
X179400000Y-169367588D03*
X179400000Y-166287588D03*
X179000000Y-169367588D03*
X179000000Y-166287588D03*
X178600000Y-169367588D03*
X178600000Y-166287588D03*
X178200000Y-169367588D03*
X178200000Y-166287588D03*
X177800000Y-169367588D03*
X177800000Y-166287588D03*
X177400000Y-169367588D03*
X177400000Y-166287588D03*
X177000000Y-169367588D03*
X177000000Y-166287588D03*
X176600000Y-169367588D03*
X176600000Y-166287588D03*
X176200000Y-169367588D03*
X176200000Y-166287588D03*
X175800000Y-169367588D03*
X175800000Y-166287588D03*
X175400000Y-169367588D03*
X175400000Y-166287588D03*
X175000000Y-169367588D03*
X175000000Y-166287588D03*
X174600000Y-169367588D03*
X174600000Y-166287588D03*
X174200000Y-169367588D03*
X174200000Y-166287588D03*
X173800000Y-169367588D03*
X173800000Y-166287588D03*
X173400000Y-169367588D03*
X173400000Y-166287588D03*
X173000000Y-169367588D03*
X173000000Y-166287588D03*
X172600000Y-169367588D03*
X172600000Y-166287588D03*
X172200000Y-169367588D03*
X172200000Y-166287588D03*
X171800000Y-169367588D03*
X171800000Y-166287588D03*
X171400000Y-169367588D03*
X171400000Y-166287588D03*
X171400000Y-123107588D03*
X171400000Y-126187588D03*
X171800000Y-123107588D03*
X171800000Y-126187588D03*
X172200000Y-123107588D03*
X172200000Y-126187588D03*
X172600000Y-123107588D03*
X172600000Y-126187588D03*
X173000000Y-123107588D03*
X173000000Y-126187588D03*
X173400000Y-123107588D03*
X173400000Y-126187588D03*
X173800000Y-123107588D03*
X173800000Y-126187588D03*
X174200000Y-123107588D03*
X174200000Y-126187588D03*
X174600000Y-123107588D03*
X174600000Y-126187588D03*
X175000000Y-123107588D03*
X175000000Y-126187588D03*
X175400000Y-123107588D03*
X175400000Y-126187588D03*
X175800000Y-123107588D03*
X175800000Y-126187588D03*
X176200000Y-123107588D03*
X176200000Y-126187588D03*
X176600000Y-123107588D03*
X176600000Y-126187588D03*
X177000000Y-123107588D03*
X177000000Y-126187588D03*
X177400000Y-123107588D03*
X177400000Y-126187588D03*
X177800000Y-123107588D03*
X177800000Y-126187588D03*
X178200000Y-123107588D03*
X178200000Y-126187588D03*
X178600000Y-123107588D03*
X178600000Y-126187588D03*
X179000000Y-123107588D03*
X179000000Y-126187588D03*
X179400000Y-123107588D03*
X179400000Y-126187588D03*
X179800000Y-123107588D03*
X179800000Y-126187588D03*
X180200000Y-123107588D03*
X180200000Y-126187588D03*
X180600000Y-123107588D03*
X180600000Y-126187588D03*
X181000000Y-123107588D03*
X181000000Y-126187588D03*
X181400000Y-123107588D03*
X181400000Y-126187588D03*
X181800000Y-123107588D03*
X181800000Y-126187588D03*
X182200000Y-123107588D03*
X182200000Y-126187588D03*
X182600000Y-123107588D03*
X182600000Y-126187588D03*
X183000000Y-123107588D03*
X183000000Y-126187588D03*
X183400000Y-123107588D03*
X183400000Y-126187588D03*
X183800000Y-123107588D03*
X183800000Y-126187588D03*
X184200000Y-123107588D03*
X184200000Y-126187588D03*
X184600000Y-123107588D03*
X184600000Y-126187588D03*
X185000000Y-123107588D03*
X185000000Y-126187588D03*
X185400000Y-123107588D03*
X185400000Y-126187588D03*
X185800000Y-123107588D03*
X185800000Y-126187588D03*
X186200000Y-123107588D03*
X186200000Y-126187588D03*
X186600000Y-123107588D03*
X186600000Y-126187588D03*
X187000000Y-123107588D03*
X187000000Y-126187588D03*
%TD*%
D71*
%TO.C,U8*%
X246600000Y-114000000D03*
X245950000Y-114000000D03*
X245300000Y-114000000D03*
X245300000Y-115900000D03*
X246600000Y-115900000D03*
%TD*%
D17*
%TO.C,R20*%
X242000000Y-111700000D03*
X242000000Y-113700000D03*
%TD*%
D27*
%TO.C,C19*%
X116600000Y-102807550D03*
D28*
X116600000Y-110325950D03*
%TD*%
D72*
%TO.C,U3*%
X246429600Y-95674300D03*
X246429600Y-96174299D03*
X246429600Y-96674298D03*
X246429600Y-97174299D03*
X246429600Y-97674299D03*
X246429600Y-98174300D03*
X246429600Y-98674299D03*
X246429600Y-99174298D03*
X248360000Y-99174298D03*
X248360000Y-98674299D03*
X248360000Y-98174300D03*
X248360000Y-97674299D03*
X248360000Y-97174299D03*
X248360000Y-96674298D03*
X248360000Y-96174299D03*
X248360000Y-95674300D03*
%TD*%
D19*
%TO.C,J7*%
X58800000Y-130800000D03*
D20*
X56800000Y-130800000D03*
X58800000Y-128800000D03*
X56800000Y-128800000D03*
X58800000Y-126800000D03*
X56800000Y-126800000D03*
X58800000Y-124800000D03*
X56800000Y-124800000D03*
X58800000Y-122800000D03*
X56800000Y-122800000D03*
%TD*%
D32*
%TO.C,J34*%
X238400000Y-102900000D03*
D33*
X238400000Y-105440000D03*
X238400000Y-107980000D03*
%TD*%
D34*
%TO.C,C13*%
X224130000Y-162807500D03*
X222230000Y-162807500D03*
%TD*%
D27*
%TO.C,C20*%
X90500000Y-108992450D03*
D28*
X90500000Y-101474050D03*
%TD*%
D14*
%TO.C,J14*%
X77360004Y-191019999D03*
X85059989Y-191019999D03*
D15*
X87200000Y-186700000D03*
D16*
X84200001Y-186700000D03*
X81200002Y-186700000D03*
X78200003Y-186700000D03*
X75200004Y-186700000D03*
X87200000Y-183700001D03*
X84200001Y-183700001D03*
X81200002Y-183700001D03*
X78200003Y-183700001D03*
X75200004Y-183700001D03*
%TD*%
D23*
%TO.C,R5*%
X217759998Y-75979298D03*
X214659998Y-75979298D03*
%TD*%
D21*
%TO.C,J24*%
X200010350Y-70409298D03*
D22*
X202550350Y-70409298D03*
X205090350Y-70409298D03*
X207630350Y-70409298D03*
%TD*%
D73*
%TO.C,Y1*%
X204996000Y-172889500D03*
X204996000Y-164389500D03*
%TD*%
D45*
%TO.C,R30*%
X223250000Y-168507500D03*
X222230000Y-168507500D03*
%TD*%
D23*
%TO.C,R1*%
X198000000Y-163490000D03*
X194900000Y-163490000D03*
%TD*%
D74*
%TO.C,U12*%
X224146000Y-164802000D03*
X223196000Y-164802000D03*
X222246000Y-164802000D03*
X222246000Y-167077000D03*
X223196000Y-167077000D03*
X224146000Y-167077000D03*
%TD*%
D44*
%TO.C,R8*%
X152800000Y-79150000D03*
X152800000Y-82250000D03*
%TD*%
D21*
%TO.C,J22*%
X253570001Y-101840000D03*
D22*
X253570001Y-104380000D03*
X253570001Y-106920000D03*
X253570001Y-109460000D03*
X253570001Y-112000000D03*
%TD*%
D75*
%TO.C,Module1*%
X232400000Y-152700000D03*
X232400000Y-104700000D03*
X199400000Y-152700000D03*
X199400000Y-104700000D03*
D76*
X234400000Y-136000000D03*
X231320000Y-136000000D03*
X234400000Y-135600000D03*
X231320000Y-135600000D03*
X234400000Y-135200000D03*
X231320000Y-135200000D03*
X234400000Y-134800000D03*
X231320000Y-134800000D03*
X234400000Y-134400000D03*
X231320000Y-134400000D03*
X234400000Y-134000000D03*
X231320000Y-134000000D03*
X234400000Y-133600000D03*
X231320000Y-133600000D03*
X234400000Y-133200000D03*
X231320000Y-133200000D03*
X234400000Y-132800000D03*
X231320000Y-132800000D03*
X234400000Y-132400000D03*
X231320000Y-132400000D03*
X234400000Y-132000000D03*
X231320000Y-132000000D03*
X234400000Y-131600000D03*
X231320000Y-131600000D03*
X234400000Y-131200000D03*
X231320000Y-131200000D03*
X234400000Y-130800000D03*
X231320000Y-130800000D03*
X234400000Y-130400000D03*
X231320000Y-130400000D03*
X234400000Y-130000000D03*
X231320000Y-130000000D03*
X234400000Y-129600000D03*
X231320000Y-129600000D03*
X234400000Y-129200000D03*
X231320000Y-129200000D03*
X234400000Y-128800000D03*
X231320000Y-128800000D03*
X234400000Y-128400000D03*
X231320000Y-128400000D03*
X234400000Y-128000000D03*
X231320000Y-128000000D03*
X234400000Y-127600000D03*
X231320000Y-127600000D03*
X234400000Y-127200000D03*
X231320000Y-127200000D03*
X234400000Y-126800000D03*
X231320000Y-126800000D03*
X234400000Y-126400000D03*
X231320000Y-126400000D03*
X234400000Y-126000000D03*
X231320000Y-126000000D03*
X234400000Y-125600000D03*
X231320000Y-125600000D03*
X234400000Y-125200000D03*
X231320000Y-125200000D03*
X234400000Y-124800000D03*
X231320000Y-124800000D03*
X234400000Y-124400000D03*
X231320000Y-124400000D03*
X234400000Y-124000000D03*
X231320000Y-124000000D03*
X234400000Y-123600000D03*
X231320000Y-123600000D03*
X234400000Y-123200000D03*
X231320000Y-123200000D03*
X234400000Y-122800000D03*
X231320000Y-122800000D03*
X234400000Y-122400000D03*
X231320000Y-122400000D03*
X234400000Y-122000000D03*
X231320000Y-122000000D03*
X234400000Y-121600000D03*
X231320000Y-121600000D03*
X234400000Y-121200000D03*
X231320000Y-121200000D03*
X234400000Y-120800000D03*
X231320000Y-120800000D03*
X234400000Y-120400000D03*
X231320000Y-120400000D03*
X234400000Y-120000000D03*
X231320000Y-120000000D03*
X234400000Y-119600000D03*
X231320000Y-119600000D03*
X234400000Y-119200000D03*
X231320000Y-119200000D03*
X234400000Y-118800000D03*
X231320000Y-118800000D03*
X234400000Y-118400000D03*
X231320000Y-118400000D03*
X234400000Y-118000000D03*
X231320000Y-118000000D03*
X234400000Y-117600000D03*
X231320000Y-117600000D03*
X234400000Y-117200000D03*
X231320000Y-117200000D03*
X234400000Y-116800000D03*
X231320000Y-116800000D03*
X234400000Y-116400000D03*
X231320000Y-116400000D03*
X200480000Y-136000000D03*
X197400000Y-136000000D03*
X200480000Y-135600000D03*
X197400000Y-135600000D03*
X200480000Y-135200000D03*
X197400000Y-135200000D03*
X200480000Y-134800000D03*
X197400000Y-134800000D03*
X200480000Y-134400000D03*
X197400000Y-134400000D03*
X200480000Y-134000000D03*
X197400000Y-134000000D03*
X200480000Y-133600000D03*
X197400000Y-133600000D03*
X200480000Y-133200000D03*
X197400000Y-133200000D03*
X200480000Y-132800000D03*
X197400000Y-132800000D03*
X200480000Y-132400000D03*
X197400000Y-132400000D03*
X200480000Y-132000000D03*
X197400000Y-132000000D03*
X200480000Y-131600000D03*
X197400000Y-131600000D03*
X200480000Y-131200000D03*
X197400000Y-131200000D03*
X200480000Y-130800000D03*
X197400000Y-130800000D03*
X200480000Y-130400000D03*
X197400000Y-130400000D03*
X200480000Y-130000000D03*
X197400000Y-130000000D03*
X200480000Y-129600000D03*
X197400000Y-129600000D03*
X200480000Y-129200000D03*
X197400000Y-129200000D03*
X200480000Y-128800000D03*
X197400000Y-128800000D03*
X200480000Y-128400000D03*
X197400000Y-128400000D03*
X200480000Y-128000000D03*
X197400000Y-128000000D03*
X200480000Y-127600000D03*
X197400000Y-127600000D03*
X200480000Y-127200000D03*
X197400000Y-127200000D03*
X200480000Y-126800000D03*
X197400000Y-126800000D03*
X200480000Y-126400000D03*
X197400000Y-126400000D03*
X200480000Y-126000000D03*
X197400000Y-126000000D03*
X200480000Y-125600000D03*
X197400000Y-125600000D03*
X200480000Y-125200000D03*
X197400000Y-125200000D03*
X200480000Y-124800000D03*
X197400000Y-124800000D03*
X200480000Y-124400000D03*
X197400000Y-124400000D03*
X200480000Y-124000000D03*
X197400000Y-124000000D03*
X200480000Y-123600000D03*
X197400000Y-123600000D03*
X200480000Y-123200000D03*
X197400000Y-123200000D03*
X200480000Y-122800000D03*
X197400000Y-122800000D03*
X200480000Y-122400000D03*
X197400000Y-122400000D03*
X200480000Y-122000000D03*
X197400000Y-122000000D03*
X200480000Y-121600000D03*
X197400000Y-121600000D03*
X200480000Y-121200000D03*
X197400000Y-121200000D03*
X200480000Y-120800000D03*
X197400000Y-120800000D03*
X200480000Y-120400000D03*
X197400000Y-120400000D03*
X200480000Y-120000000D03*
X197400000Y-120000000D03*
X200480000Y-119600000D03*
X197400000Y-119600000D03*
X200480000Y-119200000D03*
X197400000Y-119200000D03*
X200480000Y-118800000D03*
X197400000Y-118800000D03*
X200480000Y-118400000D03*
X197400000Y-118400000D03*
X200480000Y-118000000D03*
X197400000Y-118000000D03*
X200480000Y-117600000D03*
X197400000Y-117600000D03*
X200480000Y-117200000D03*
X197400000Y-117200000D03*
X200480000Y-116800000D03*
X197400000Y-116800000D03*
X200480000Y-116400000D03*
X197400000Y-116400000D03*
%TD*%
D61*
%TO.C,TP1*%
X244800000Y-130900000D03*
%TD*%
D18*
%TO.C,R28*%
X209430000Y-175907500D03*
X209430000Y-174887500D03*
%TD*%
D77*
%TO.C,R19*%
X245900000Y-132990000D03*
X245900000Y-134010000D03*
%TD*%
M02*
