%TF.GenerationSoftware,KiCad,Pcbnew,8.0.2*%
%TF.CreationDate,2024-05-08T16:37:45-06:00*%
%TF.ProjectId,GR-LRR-CONTROL,47522d4c-5252-42d4-934f-4e54524f4c2e,rev?*%
%TF.SameCoordinates,Original*%
%TF.FileFunction,Soldermask,Top*%
%TF.FilePolarity,Negative*%
%FSLAX46Y46*%
G04 Gerber Fmt 4.6, Leading zero omitted, Abs format (unit mm)*
G04 Created by KiCad (PCBNEW 8.0.2) date 2024-05-08 16:37:45*
%MOMM*%
%LPD*%
G01*
G04 APERTURE LIST*
G04 Aperture macros list*
%AMRoundRect*
0 Rectangle with rounded corners*
0 $1 Rounding radius*
0 $2 $3 $4 $5 $6 $7 $8 $9 X,Y pos of 4 corners*
0 Add a 4 corners polygon primitive as box body*
4,1,4,$2,$3,$4,$5,$6,$7,$8,$9,$2,$3,0*
0 Add four circle primitives for the rounded corners*
1,1,$1+$1,$2,$3*
1,1,$1+$1,$4,$5*
1,1,$1+$1,$6,$7*
1,1,$1+$1,$8,$9*
0 Add four rect primitives between the rounded corners*
20,1,$1+$1,$2,$3,$4,$5,0*
20,1,$1+$1,$4,$5,$6,$7,0*
20,1,$1+$1,$6,$7,$8,$9,0*
20,1,$1+$1,$8,$9,$2,$3,0*%
G04 Aperture macros list end*
%ADD10O,0.449999X1.400000*%
%ADD11R,0.600000X0.850000*%
%ADD12R,2.640000X2.640000*%
%ADD13C,2.640000*%
%ADD14C,4.185000*%
%ADD15C,2.250000*%
%ADD16R,0.200000X0.700000*%
%ADD17RoundRect,0.250000X0.625000X-0.400000X0.625000X0.400000X-0.625000X0.400000X-0.625000X-0.400000X0*%
%ADD18RoundRect,0.250000X0.400000X0.625000X-0.400000X0.625000X-0.400000X-0.625000X0.400000X-0.625000X0*%
%ADD19C,1.500000*%
%ADD20C,3.450000*%
%ADD21C,2.999999*%
%ADD22R,1.520000X1.520000*%
%ADD23C,1.520000*%
%ADD24RoundRect,0.250000X-0.450000X0.350000X-0.450000X-0.350000X0.450000X-0.350000X0.450000X0.350000X0*%
%ADD25RoundRect,0.135000X0.185000X-0.135000X0.185000X0.135000X-0.185000X0.135000X-0.185000X-0.135000X0*%
%ADD26R,1.500000X1.500000*%
%ADD27R,1.350000X1.350000*%
%ADD28C,1.350000*%
%ADD29C,1.803400*%
%ADD30RoundRect,0.218750X0.256250X-0.218750X0.256250X0.218750X-0.256250X0.218750X-0.256250X-0.218750X0*%
%ADD31R,3.700000X3.700000*%
%ADD32RoundRect,0.062500X0.350000X-0.062500X0.350000X0.062500X-0.350000X0.062500X-0.350000X-0.062500X0*%
%ADD33RoundRect,0.062500X0.062500X-0.350000X0.062500X0.350000X-0.062500X0.350000X-0.062500X-0.350000X0*%
%ADD34R,1.700000X1.700000*%
%ADD35O,1.700000X1.700000*%
%ADD36RoundRect,0.250000X0.250000X0.475000X-0.250000X0.475000X-0.250000X-0.475000X0.250000X-0.475000X0*%
%ADD37RoundRect,0.122100X-0.284900X0.429900X-0.284900X-0.429900X0.284900X-0.429900X0.284900X0.429900X0*%
%ADD38RoundRect,0.095420X-0.271580X0.456580X-0.271580X-0.456580X0.271580X-0.456580X0.271580X0.456580X0*%
%ADD39C,2.400000*%
%ADD40RoundRect,0.102000X0.644000X0.644000X-0.644000X0.644000X-0.644000X-0.644000X0.644000X-0.644000X0*%
%ADD41C,1.492000*%
%ADD42RoundRect,0.140000X-0.170000X0.140000X-0.170000X-0.140000X0.170000X-0.140000X0.170000X0.140000X0*%
%ADD43RoundRect,0.250000X-0.400000X-0.625000X0.400000X-0.625000X0.400000X0.625000X-0.400000X0.625000X0*%
%ADD44RoundRect,0.250000X-0.625000X0.400000X-0.625000X-0.400000X0.625000X-0.400000X0.625000X0.400000X0*%
%ADD45C,1.524000*%
%ADD46RoundRect,0.135000X0.135000X0.185000X-0.135000X0.185000X-0.135000X-0.185000X0.135000X-0.185000X0*%
%ADD47RoundRect,0.250000X0.650000X-0.412500X0.650000X0.412500X-0.650000X0.412500X-0.650000X-0.412500X0*%
%ADD48RoundRect,0.075000X-0.075000X-0.200000X0.075000X-0.200000X0.075000X0.200000X-0.075000X0.200000X0*%
%ADD49R,1.550000X0.700000*%
%ADD50R,0.650000X1.550000*%
%ADD51R,0.400000X1.750000*%
%ADD52R,1.825000X0.700000*%
%ADD53R,2.000000X1.400000*%
%ADD54R,1.300000X2.000000*%
%ADD55O,1.300000X1.700000*%
%ADD56O,1.000000X1.400000*%
%ADD57R,1.425000X2.500000*%
%ADD58R,1.800000X1.150000*%
%ADD59RoundRect,0.140000X-0.219203X-0.021213X-0.021213X-0.219203X0.219203X0.021213X0.021213X0.219203X0*%
%ADD60RoundRect,0.250000X-0.250000X-0.475000X0.250000X-0.475000X0.250000X0.475000X-0.250000X0.475000X0*%
%ADD61RoundRect,0.140000X0.170000X-0.140000X0.170000X0.140000X-0.170000X0.140000X-0.170000X-0.140000X0*%
%ADD62R,2.000000X2.000000*%
%ADD63RoundRect,0.250000X-0.787500X-1.025000X0.787500X-1.025000X0.787500X1.025000X-0.787500X1.025000X0*%
%ADD64RoundRect,0.100000X0.225000X0.100000X-0.225000X0.100000X-0.225000X-0.100000X0.225000X-0.100000X0*%
%ADD65RoundRect,0.122100X0.284900X-0.429900X0.284900X0.429900X-0.284900X0.429900X-0.284900X-0.429900X0*%
%ADD66RoundRect,0.095420X0.271580X-0.456580X0.271580X0.456580X-0.271580X0.456580X-0.271580X-0.456580X0*%
%ADD67R,1.150000X1.800000*%
%ADD68RoundRect,0.135000X-0.185000X0.135000X-0.185000X-0.135000X0.185000X-0.135000X0.185000X0.135000X0*%
%ADD69RoundRect,0.218750X-0.256250X0.218750X-0.256250X-0.218750X0.256250X-0.218750X0.256250X0.218750X0*%
%ADD70RoundRect,0.087500X-0.725000X-0.087500X0.725000X-0.087500X0.725000X0.087500X-0.725000X0.087500X0*%
%ADD71RoundRect,0.250000X0.475000X-0.250000X0.475000X0.250000X-0.475000X0.250000X-0.475000X-0.250000X0*%
%ADD72RoundRect,0.100000X-0.100000X0.225000X-0.100000X-0.225000X0.100000X-0.225000X0.100000X0.225000X0*%
%ADD73R,0.584200X0.203200*%
%ADD74R,2.000000X4.500000*%
%ADD75RoundRect,0.150000X-0.150000X0.512500X-0.150000X-0.512500X0.150000X-0.512500X0.150000X0.512500X0*%
%ADD76C,6.100000*%
%ADD77R,0.700000X0.200000*%
G04 APERTURE END LIST*
D10*
%TO.C,U2*%
X129650001Y-92899999D03*
X129000000Y-92899999D03*
X128350001Y-92899999D03*
X127700000Y-92899999D03*
X127050001Y-92899999D03*
X126400000Y-92899999D03*
X125750001Y-92899999D03*
X125100000Y-92899999D03*
X125100000Y-98800000D03*
X125750001Y-98800000D03*
X126400000Y-98800000D03*
X127050001Y-98800000D03*
X127700000Y-98800000D03*
X128350001Y-98800000D03*
X129000000Y-98800000D03*
X129650001Y-98800000D03*
%TD*%
D11*
%TO.C,Q1*%
X162750000Y-76450000D03*
X164650000Y-76450000D03*
X163700000Y-73950000D03*
%TD*%
D12*
%TO.C,J5*%
X105200000Y-81630000D03*
D13*
X100755000Y-81630000D03*
X95295000Y-81630000D03*
X90850000Y-81630000D03*
X90850000Y-75280000D03*
X95295000Y-75280000D03*
X100755000Y-75280000D03*
X105200000Y-75280000D03*
D14*
X98025000Y-69180000D03*
X111615000Y-80610000D03*
X84435000Y-80610000D03*
%TD*%
D15*
%TO.C,U1*%
X186565000Y-166615000D03*
X186565000Y-104635000D03*
X165225000Y-166615000D03*
X165225000Y-104635000D03*
D16*
X183695000Y-153045000D03*
X183695000Y-149965000D03*
X183295000Y-153045000D03*
X183295000Y-149965000D03*
X182895000Y-153045000D03*
X182895000Y-149965000D03*
X182495000Y-153045000D03*
X182495000Y-149965000D03*
X182095000Y-153045000D03*
X182095000Y-149965000D03*
X181695000Y-153045000D03*
X181695000Y-149965000D03*
X181295000Y-153045000D03*
X181295000Y-149965000D03*
X180895000Y-153045000D03*
X180895000Y-149965000D03*
X180495000Y-153045000D03*
X180495000Y-149965000D03*
X180095000Y-153045000D03*
X180095000Y-149965000D03*
X179695000Y-153045000D03*
X179695000Y-149965000D03*
X179295000Y-153045000D03*
X179295000Y-149965000D03*
X178895000Y-153045000D03*
X178895000Y-149965000D03*
X178495000Y-153045000D03*
X178495000Y-149965000D03*
X178095000Y-153045000D03*
X178095000Y-149965000D03*
X177695000Y-153045000D03*
X177695000Y-149965000D03*
X177295000Y-153045000D03*
X177295000Y-149965000D03*
X176895000Y-153045000D03*
X176895000Y-149965000D03*
X176495000Y-153045000D03*
X176495000Y-149965000D03*
X176095000Y-153045000D03*
X176095000Y-149965000D03*
X175695000Y-153045000D03*
X175695000Y-149965000D03*
X175295000Y-153045000D03*
X175295000Y-149965000D03*
X174895000Y-153045000D03*
X174895000Y-149965000D03*
X174495000Y-153045000D03*
X174495000Y-149965000D03*
X174095000Y-153045000D03*
X174095000Y-149965000D03*
X173695000Y-153045000D03*
X173695000Y-149965000D03*
X173295000Y-153045000D03*
X173295000Y-149965000D03*
X172895000Y-153045000D03*
X172895000Y-149965000D03*
X172495000Y-153045000D03*
X172495000Y-149965000D03*
X172095000Y-153045000D03*
X172095000Y-149965000D03*
X171695000Y-153045000D03*
X171695000Y-149965000D03*
X171295000Y-153045000D03*
X171295000Y-149965000D03*
X170895000Y-153045000D03*
X170895000Y-149965000D03*
X170495000Y-153045000D03*
X170495000Y-149965000D03*
X170095000Y-153045000D03*
X170095000Y-149965000D03*
X169695000Y-153045000D03*
X169695000Y-149965000D03*
X169295000Y-153045000D03*
X169295000Y-149965000D03*
X168895000Y-153045000D03*
X168895000Y-149965000D03*
X168495000Y-153045000D03*
X168495000Y-149965000D03*
X168095000Y-153045000D03*
X168095000Y-149965000D03*
X168095000Y-106785000D03*
X168095000Y-109865000D03*
X168495000Y-106785000D03*
X168495000Y-109865000D03*
X168895000Y-106785000D03*
X168895000Y-109865000D03*
X169295000Y-106785000D03*
X169295000Y-109865000D03*
X169695000Y-106785000D03*
X169695000Y-109865000D03*
X170095000Y-106785000D03*
X170095000Y-109865000D03*
X170495000Y-106785000D03*
X170495000Y-109865000D03*
X170895000Y-106785000D03*
X170895000Y-109865000D03*
X171295000Y-106785000D03*
X171295000Y-109865000D03*
X171695000Y-106785000D03*
X171695000Y-109865000D03*
X172095000Y-106785000D03*
X172095000Y-109865000D03*
X172495000Y-106785000D03*
X172495000Y-109865000D03*
X172895000Y-106785000D03*
X172895000Y-109865000D03*
X173295000Y-106785000D03*
X173295000Y-109865000D03*
X173695000Y-106785000D03*
X173695000Y-109865000D03*
X174095000Y-106785000D03*
X174095000Y-109865000D03*
X174495000Y-106785000D03*
X174495000Y-109865000D03*
X174895000Y-106785000D03*
X174895000Y-109865000D03*
X175295000Y-106785000D03*
X175295000Y-109865000D03*
X175695000Y-106785000D03*
X175695000Y-109865000D03*
X176095000Y-106785000D03*
X176095000Y-109865000D03*
X176495000Y-106785000D03*
X176495000Y-109865000D03*
X176895000Y-106785000D03*
X176895000Y-109865000D03*
X177295000Y-106785000D03*
X177295000Y-109865000D03*
X177695000Y-106785000D03*
X177695000Y-109865000D03*
X178095000Y-106785000D03*
X178095000Y-109865000D03*
X178495000Y-106785000D03*
X178495000Y-109865000D03*
X178895000Y-106785000D03*
X178895000Y-109865000D03*
X179295000Y-106785000D03*
X179295000Y-109865000D03*
X179695000Y-106785000D03*
X179695000Y-109865000D03*
X180095000Y-106785000D03*
X180095000Y-109865000D03*
X180495000Y-106785000D03*
X180495000Y-109865000D03*
X180895000Y-106785000D03*
X180895000Y-109865000D03*
X181295000Y-106785000D03*
X181295000Y-109865000D03*
X181695000Y-106785000D03*
X181695000Y-109865000D03*
X182095000Y-106785000D03*
X182095000Y-109865000D03*
X182495000Y-106785000D03*
X182495000Y-109865000D03*
X182895000Y-106785000D03*
X182895000Y-109865000D03*
X183295000Y-106785000D03*
X183295000Y-109865000D03*
X183695000Y-106785000D03*
X183695000Y-109865000D03*
%TD*%
D17*
%TO.C,R3*%
X102400000Y-95850000D03*
X102400000Y-98950000D03*
%TD*%
D18*
%TO.C,R7*%
X233150000Y-74500000D03*
X230050000Y-74500000D03*
%TD*%
%TO.C,R6*%
X238150000Y-74500000D03*
X235050000Y-74500000D03*
%TD*%
D17*
%TO.C,R31*%
X150400000Y-171500000D03*
X150400000Y-168400000D03*
%TD*%
D19*
%TO.C,J37*%
X194360000Y-180270000D03*
X196860000Y-180270000D03*
X198860000Y-180270000D03*
X201360000Y-180270000D03*
X194360000Y-182890000D03*
X196860000Y-182890000D03*
X198860000Y-182890000D03*
X201360000Y-182890000D03*
D20*
X191290000Y-185600000D03*
X204430000Y-185600000D03*
X191290000Y-179920000D03*
X204430000Y-179920000D03*
%TD*%
D21*
%TO.C,J6*%
X55080001Y-139060000D03*
X55080001Y-146759985D03*
D22*
X59400000Y-148899996D03*
D23*
X59400000Y-145899997D03*
X59400000Y-142899998D03*
X59400000Y-139899999D03*
X59400000Y-136900000D03*
X62399999Y-148899996D03*
X62399999Y-145899997D03*
X62399999Y-142899998D03*
X62399999Y-139899999D03*
X62399999Y-136900000D03*
%TD*%
D24*
%TO.C,R21*%
X232600000Y-113000000D03*
X232600000Y-115000000D03*
%TD*%
D25*
%TO.C,R25*%
X205260000Y-167500000D03*
X205260000Y-166480000D03*
%TD*%
D19*
%TO.C,J11*%
X94800000Y-189300000D03*
X94800000Y-187300000D03*
X96800000Y-189300000D03*
X96800000Y-187300000D03*
X98800000Y-189300000D03*
X98800000Y-187300000D03*
X100800000Y-189300000D03*
X100800000Y-187300000D03*
X102800000Y-189300000D03*
D26*
X102800000Y-187300000D03*
%TD*%
D27*
%TO.C,J26*%
X232100000Y-68700000D03*
D28*
X234640000Y-68700000D03*
X237180000Y-68700000D03*
X239720000Y-68700000D03*
%TD*%
D29*
%TO.C,J18*%
X162997299Y-84904900D03*
X162997299Y-89904900D03*
%TD*%
D30*
%TO.C,D1*%
X239800000Y-129787500D03*
X239800000Y-128212500D03*
%TD*%
D31*
%TO.C,U10*%
X205530000Y-172400000D03*
D32*
X202592500Y-174400000D03*
X202592500Y-173900000D03*
X202592500Y-173400000D03*
X202592500Y-172900000D03*
X202592500Y-172400000D03*
X202592500Y-171900000D03*
X202592500Y-171400000D03*
X202592500Y-170900000D03*
X202592500Y-170400000D03*
D33*
X203530000Y-169462500D03*
X204030000Y-169462500D03*
X204530000Y-169462500D03*
X205030000Y-169462500D03*
X205530000Y-169462500D03*
X206030000Y-169462500D03*
X206530000Y-169462500D03*
X207030000Y-169462500D03*
X207530000Y-169462500D03*
D32*
X208467500Y-170400000D03*
X208467500Y-170900000D03*
X208467500Y-171400000D03*
X208467500Y-171900000D03*
X208467500Y-172400000D03*
X208467500Y-172900000D03*
X208467500Y-173400000D03*
X208467500Y-173900000D03*
X208467500Y-174400000D03*
D33*
X207530000Y-175337500D03*
X207030000Y-175337500D03*
X206530000Y-175337500D03*
X206030000Y-175337500D03*
X205530000Y-175337500D03*
X205030000Y-175337500D03*
X204530000Y-175337500D03*
X204030000Y-175337500D03*
X203530000Y-175337500D03*
%TD*%
D34*
%TO.C,J32*%
X235000000Y-155480000D03*
D35*
X232460000Y-155480000D03*
X235000000Y-152940000D03*
X232460000Y-152940000D03*
X235000000Y-150400000D03*
X232460000Y-150400000D03*
X235000000Y-147860000D03*
X232460000Y-147860000D03*
X235000000Y-145320000D03*
X232460000Y-145320000D03*
X235000000Y-142780000D03*
X232460000Y-142780000D03*
X235000000Y-140240000D03*
X232460000Y-140240000D03*
%TD*%
D27*
%TO.C,J20*%
X140590349Y-68610000D03*
D28*
X143130349Y-68610000D03*
%TD*%
D36*
%TO.C,C6*%
X200554000Y-166876000D03*
X202454000Y-166876000D03*
%TD*%
D26*
%TO.C,J1*%
X58900000Y-127100000D03*
D19*
X56900000Y-127100000D03*
X58900000Y-125100000D03*
X56900000Y-125100000D03*
X58900000Y-123100000D03*
X56900000Y-123100000D03*
X58900000Y-121100000D03*
X56900000Y-121100000D03*
X58900000Y-119100000D03*
X56900000Y-119100000D03*
%TD*%
D25*
%TO.C,R22*%
X239200000Y-119400000D03*
X239200000Y-118380000D03*
%TD*%
D37*
%TO.C,R12*%
X245600000Y-90910000D03*
D38*
X244760000Y-90910000D03*
X243960000Y-90910000D03*
D37*
X243120000Y-90910000D03*
X243120000Y-92680000D03*
D38*
X243960000Y-92680000D03*
X244760000Y-92680000D03*
D37*
X245600000Y-92680000D03*
%TD*%
D39*
%TO.C,J12*%
X112950000Y-147016666D03*
X89800000Y-147016666D03*
D40*
X124600000Y-148266666D03*
D41*
X123600000Y-150266666D03*
X122600000Y-148266666D03*
X121600000Y-150266666D03*
X120600000Y-148266666D03*
X119600000Y-150266666D03*
X118600000Y-148266666D03*
X117600000Y-150266666D03*
X116600000Y-148266666D03*
X115600000Y-150266666D03*
X114600000Y-148266666D03*
X111600000Y-150266666D03*
X110600000Y-148266666D03*
X109600000Y-150266666D03*
X108600000Y-148266666D03*
X107600000Y-150266666D03*
X106600000Y-148266666D03*
X105600000Y-150266666D03*
X104600000Y-148266666D03*
X103600000Y-150266666D03*
X102600000Y-148266666D03*
X101600000Y-150266666D03*
X100600000Y-148266666D03*
X99600000Y-150266666D03*
X98600000Y-148266666D03*
X97600000Y-150266666D03*
X96600000Y-148266666D03*
X95600000Y-150266666D03*
X94600000Y-148266666D03*
X93600000Y-150266666D03*
X92600000Y-148266666D03*
X91600000Y-150266666D03*
X124600000Y-145766666D03*
X123600000Y-143766666D03*
X122600000Y-145766666D03*
X121600000Y-143766666D03*
X120600000Y-145766666D03*
X119600000Y-143766666D03*
X118600000Y-145766666D03*
X117600000Y-143766666D03*
X116600000Y-145766666D03*
X115600000Y-143766666D03*
X114600000Y-145766666D03*
X111600000Y-143766666D03*
X110600000Y-145766666D03*
X109600000Y-143766666D03*
X108600000Y-145766666D03*
X107600000Y-143766666D03*
X106600000Y-145766666D03*
X105600000Y-143766666D03*
X104600000Y-145766666D03*
X103600000Y-143766666D03*
X102600000Y-145766666D03*
X101600000Y-143766666D03*
X100600000Y-145766666D03*
X99600000Y-143766666D03*
X98600000Y-145766666D03*
X97600000Y-143766666D03*
X96600000Y-145766666D03*
X95600000Y-143766666D03*
X94600000Y-145766666D03*
X93600000Y-143766666D03*
X92600000Y-145766666D03*
X91600000Y-143766666D03*
%TD*%
D42*
%TO.C,C8*%
X200976000Y-175077000D03*
X200976000Y-176037000D03*
%TD*%
%TO.C,C7*%
X199060000Y-160340000D03*
X199060000Y-161300000D03*
%TD*%
D43*
%TO.C,R2*%
X157350000Y-142300000D03*
X160450000Y-142300000D03*
%TD*%
D44*
%TO.C,R13*%
X154000000Y-76250000D03*
X154000000Y-79350000D03*
%TD*%
D45*
%TO.C,U4*%
X168634800Y-72780000D03*
X168634800Y-74780000D03*
X168634800Y-76780000D03*
X168601800Y-78780000D03*
X168634800Y-80780000D03*
X168634800Y-82780000D03*
X168634800Y-84780000D03*
X168634800Y-86780000D03*
X168634800Y-88780000D03*
X168634800Y-90780000D03*
X190598200Y-90780000D03*
X190598200Y-88780000D03*
X190598200Y-86780000D03*
X190598200Y-84780000D03*
X190598200Y-82780000D03*
X190598200Y-80780000D03*
X190598200Y-78780000D03*
X190598200Y-76780000D03*
X190598200Y-74780000D03*
X190598200Y-72780000D03*
%TD*%
D25*
%TO.C,R26*%
X206860000Y-167400000D03*
X206860000Y-166380000D03*
%TD*%
D26*
%TO.C,J15*%
X145500000Y-187100000D03*
D19*
X145500000Y-189100000D03*
X143500000Y-187100000D03*
X143500000Y-189100000D03*
X141500000Y-187100000D03*
X141500000Y-189100000D03*
X139500000Y-187100000D03*
X139500000Y-189100000D03*
X137500000Y-187100000D03*
X137500000Y-189100000D03*
%TD*%
D46*
%TO.C,R27*%
X201260000Y-168600000D03*
X200240000Y-168600000D03*
%TD*%
D18*
%TO.C,R4*%
X221500000Y-74200000D03*
X218400000Y-74200000D03*
%TD*%
D27*
%TO.C,J25*%
X215450352Y-68630000D03*
D28*
X217990352Y-68630000D03*
X220530352Y-68630000D03*
X223070352Y-68630000D03*
%TD*%
D36*
%TO.C,C17*%
X213560000Y-172000000D03*
X211660000Y-172000000D03*
%TD*%
D46*
%TO.C,R24*%
X199510000Y-163200000D03*
X198490000Y-163200000D03*
%TD*%
D47*
%TO.C,C1*%
X123200000Y-96562500D03*
X123200000Y-93437500D03*
%TD*%
D42*
%TO.C,C9*%
X209860000Y-175500000D03*
X209860000Y-174540000D03*
%TD*%
D48*
%TO.C,U11*%
X218160000Y-169770000D03*
X218660000Y-169770000D03*
X219160000Y-169770000D03*
X219660000Y-169770000D03*
X220160000Y-169770000D03*
X220160000Y-169000000D03*
X219660000Y-169000000D03*
X219160000Y-169000000D03*
X218660000Y-169000000D03*
X218160000Y-169000000D03*
%TD*%
D49*
%TO.C,IC1*%
X160025000Y-171305000D03*
X160025000Y-170035000D03*
X160025000Y-168765000D03*
X160025000Y-167495000D03*
X154575000Y-167495000D03*
X154575000Y-168765000D03*
X154575000Y-170035000D03*
X154575000Y-171305000D03*
%TD*%
D50*
%TO.C,IC2*%
X200755000Y-79425000D03*
X202025000Y-79425000D03*
X203295000Y-79425000D03*
X204565000Y-79425000D03*
X205835000Y-79425000D03*
X207105000Y-79425000D03*
X208375000Y-79425000D03*
X209645000Y-79425000D03*
X209645000Y-73975000D03*
X208375000Y-73975000D03*
X207105000Y-73975000D03*
X205835000Y-73975000D03*
X204565000Y-73975000D03*
X203295000Y-73975000D03*
X202025000Y-73975000D03*
X200755000Y-73975000D03*
%TD*%
D51*
%TO.C,J36*%
X230560000Y-190180000D03*
X231210000Y-190180000D03*
X231860000Y-190180000D03*
X232510000Y-190180000D03*
X233160000Y-190180000D03*
D52*
X228872500Y-191300000D03*
D53*
X229010000Y-189940000D03*
D54*
X229135000Y-192070000D03*
D55*
X229135000Y-193000000D03*
D56*
X229435000Y-189970000D03*
D57*
X230897500Y-193250000D03*
X232822500Y-193250000D03*
D56*
X234285000Y-189970000D03*
D54*
X234585000Y-192070000D03*
D55*
X234585000Y-193000000D03*
D53*
X234760000Y-189940000D03*
D52*
X234847500Y-191300000D03*
%TD*%
D34*
%TO.C,J33*%
X232600000Y-123880000D03*
D35*
X232600000Y-121340000D03*
X232600000Y-118800000D03*
%TD*%
D25*
%TO.C,R29*%
X204060000Y-167500000D03*
X204060000Y-166480000D03*
%TD*%
D41*
%TO.C,J8*%
X91600000Y-123133333D03*
X92600000Y-125133333D03*
X93600000Y-123133333D03*
X94600000Y-125133333D03*
X95600000Y-123133333D03*
X96600000Y-125133333D03*
X97600000Y-123133333D03*
X98600000Y-125133333D03*
X99600000Y-123133333D03*
X100600000Y-125133333D03*
X101600000Y-123133333D03*
X102600000Y-125133333D03*
X103600000Y-123133333D03*
X104600000Y-125133333D03*
X105600000Y-123133333D03*
X106600000Y-125133333D03*
X107600000Y-123133333D03*
X108600000Y-125133333D03*
X109600000Y-123133333D03*
X110600000Y-125133333D03*
X111600000Y-123133333D03*
X114600000Y-125133333D03*
X115600000Y-123133333D03*
X116600000Y-125133333D03*
X117600000Y-123133333D03*
X118600000Y-125133333D03*
X119600000Y-123133333D03*
X120600000Y-125133333D03*
X121600000Y-123133333D03*
X122600000Y-125133333D03*
X123600000Y-123133333D03*
X124600000Y-125133333D03*
X91600000Y-129633333D03*
X92600000Y-127633333D03*
X93600000Y-129633333D03*
X94600000Y-127633333D03*
X95600000Y-129633333D03*
X96600000Y-127633333D03*
X97600000Y-129633333D03*
X98600000Y-127633333D03*
X99600000Y-129633333D03*
X100600000Y-127633333D03*
X101600000Y-129633333D03*
X102600000Y-127633333D03*
X103600000Y-129633333D03*
X104600000Y-127633333D03*
X105600000Y-129633333D03*
X106600000Y-127633333D03*
X107600000Y-129633333D03*
X108600000Y-127633333D03*
X109600000Y-129633333D03*
X110600000Y-127633333D03*
X111600000Y-129633333D03*
X114600000Y-127633333D03*
X115600000Y-129633333D03*
X116600000Y-127633333D03*
X117600000Y-129633333D03*
X118600000Y-127633333D03*
X119600000Y-129633333D03*
X120600000Y-127633333D03*
X121600000Y-129633333D03*
X122600000Y-127633333D03*
X123600000Y-129633333D03*
D40*
X124600000Y-127633333D03*
D39*
X89800000Y-126383333D03*
X112950000Y-126383333D03*
%TD*%
D58*
%TO.C,LED1*%
X154000000Y-71050000D03*
X154000000Y-74050000D03*
%TD*%
D42*
%TO.C,C12*%
X209960000Y-171440000D03*
X209960000Y-172400000D03*
%TD*%
D23*
%TO.C,J2*%
X62419998Y-98840000D03*
X62419998Y-101839999D03*
X62419998Y-104839998D03*
X62419998Y-107839997D03*
X62419998Y-110839996D03*
X59419999Y-98840000D03*
X59419999Y-101839999D03*
X59419999Y-104839998D03*
X59419999Y-107839997D03*
D22*
X59419999Y-110839996D03*
D21*
X55100000Y-108699985D03*
X55100000Y-101000000D03*
%TD*%
D59*
%TO.C,C11*%
X205686589Y-177092589D03*
X206365411Y-177771411D03*
%TD*%
D18*
%TO.C,R11*%
X146400000Y-74080000D03*
X143300000Y-74080000D03*
%TD*%
D27*
%TO.C,J21*%
X253670001Y-81260351D03*
D28*
X253670001Y-83800351D03*
X253670001Y-86340351D03*
X253670001Y-88880351D03*
X253670001Y-91420351D03*
%TD*%
D21*
%TO.C,J10*%
X76699654Y-191120000D03*
X84399639Y-191120000D03*
D22*
X86539650Y-186800001D03*
D23*
X83539651Y-186800001D03*
X80539652Y-186800001D03*
X77539653Y-186800001D03*
X74539654Y-186800001D03*
X86539650Y-183800002D03*
X83539651Y-183800002D03*
X80539652Y-183800002D03*
X77539653Y-183800002D03*
X74539654Y-183800002D03*
%TD*%
D60*
%TO.C,C18*%
X215760000Y-172100000D03*
X217660000Y-172100000D03*
%TD*%
D61*
%TO.C,C10*%
X201160000Y-170860000D03*
X201160000Y-169900000D03*
%TD*%
D36*
%TO.C,C16*%
X193350000Y-176800000D03*
X191450000Y-176800000D03*
%TD*%
D62*
%TO.C,TP2*%
X240200000Y-121400000D03*
%TD*%
D63*
%TO.C,C14*%
X217013500Y-165632000D03*
X223238500Y-165632000D03*
%TD*%
D64*
%TO.C,U7*%
X231300000Y-135800000D03*
X231300000Y-134500000D03*
X233200000Y-134500000D03*
X233200000Y-135150000D03*
X233200000Y-135800000D03*
%TD*%
D27*
%TO.C,J23*%
X253640001Y-118830703D03*
D28*
X253640001Y-121370703D03*
X253640001Y-123910703D03*
X253640001Y-126450703D03*
%TD*%
D43*
%TO.C,R1*%
X157400000Y-138610000D03*
X160500000Y-138610000D03*
%TD*%
D39*
%TO.C,J3*%
X112950000Y-105750000D03*
X89800000Y-105750000D03*
D40*
X124600000Y-107000000D03*
D41*
X123600000Y-109000000D03*
X122600000Y-107000000D03*
X121600000Y-109000000D03*
X120600000Y-107000000D03*
X119600000Y-109000000D03*
X118600000Y-107000000D03*
X117600000Y-109000000D03*
X116600000Y-107000000D03*
X115600000Y-109000000D03*
X114600000Y-107000000D03*
X111600000Y-109000000D03*
X110600000Y-107000000D03*
X109600000Y-109000000D03*
X108600000Y-107000000D03*
X107600000Y-109000000D03*
X106600000Y-107000000D03*
X105600000Y-109000000D03*
X104600000Y-107000000D03*
X103600000Y-109000000D03*
X102600000Y-107000000D03*
X101600000Y-109000000D03*
X100600000Y-107000000D03*
X99600000Y-109000000D03*
X98600000Y-107000000D03*
X97600000Y-109000000D03*
X96600000Y-107000000D03*
X95600000Y-109000000D03*
X94600000Y-107000000D03*
X93600000Y-109000000D03*
X92600000Y-107000000D03*
X91600000Y-109000000D03*
X124600000Y-104500000D03*
X123600000Y-102500000D03*
X122600000Y-104500000D03*
X121600000Y-102500000D03*
X120600000Y-104500000D03*
X119600000Y-102500000D03*
X118600000Y-104500000D03*
X117600000Y-102500000D03*
X116600000Y-104500000D03*
X115600000Y-102500000D03*
X114600000Y-104500000D03*
X111600000Y-102500000D03*
X110600000Y-104500000D03*
X109600000Y-102500000D03*
X108600000Y-104500000D03*
X107600000Y-102500000D03*
X106600000Y-104500000D03*
X105600000Y-102500000D03*
X104600000Y-104500000D03*
X103600000Y-102500000D03*
X102600000Y-104500000D03*
X101600000Y-102500000D03*
X100600000Y-104500000D03*
X99600000Y-102500000D03*
X98600000Y-104500000D03*
X97600000Y-102500000D03*
X96600000Y-104500000D03*
X95600000Y-102500000D03*
X94600000Y-104500000D03*
X93600000Y-102500000D03*
X92600000Y-104500000D03*
X91600000Y-102500000D03*
%TD*%
D65*
%TO.C,R10*%
X243120000Y-100380000D03*
D66*
X243960000Y-100380000D03*
X244760000Y-100380000D03*
D65*
X245600000Y-100380000D03*
X245600000Y-98610000D03*
D66*
X244760000Y-98610000D03*
X243960000Y-98610000D03*
D65*
X243120000Y-98610000D03*
%TD*%
D17*
%TO.C,R14*%
X151600000Y-79300000D03*
X151600000Y-76200000D03*
%TD*%
D44*
%TO.C,R9*%
X129500000Y-78450000D03*
X129500000Y-81550000D03*
%TD*%
D60*
%TO.C,C15*%
X195160000Y-177200000D03*
X197060000Y-177200000D03*
%TD*%
D67*
%TO.C,LED2*%
X182600000Y-95980000D03*
X185600000Y-95980000D03*
%TD*%
D68*
%TO.C,R23*%
X197760000Y-160280000D03*
X197760000Y-161300000D03*
%TD*%
D69*
%TO.C,D2*%
X239500000Y-123700000D03*
X239500000Y-125275000D03*
%TD*%
D70*
%TO.C,U9*%
X201113500Y-160132000D03*
X201113500Y-160632000D03*
X201113500Y-161132000D03*
X201113500Y-161632000D03*
X201113500Y-162132000D03*
X205338500Y-162132000D03*
X205338500Y-161632000D03*
X205338500Y-161132000D03*
X205338500Y-160632000D03*
X205338500Y-160132000D03*
%TD*%
D71*
%TO.C,C5*%
X208960000Y-167200000D03*
X208960000Y-165300000D03*
%TD*%
D42*
%TO.C,C4*%
X198960000Y-170740000D03*
X198960000Y-171700000D03*
%TD*%
D19*
%TO.C,J38*%
X212030000Y-180270000D03*
X214530000Y-180270000D03*
X216530000Y-180270000D03*
X219030000Y-180270000D03*
X212030000Y-182890000D03*
X214530000Y-182890000D03*
X216530000Y-182890000D03*
X219030000Y-182890000D03*
D20*
X208960000Y-185600000D03*
X222100000Y-185600000D03*
X208960000Y-179920000D03*
X222100000Y-179920000D03*
%TD*%
D43*
%TO.C,R15*%
X187950000Y-95980000D03*
X191050000Y-95980000D03*
%TD*%
D61*
%TO.C,C3*%
X198860000Y-173960000D03*
X198860000Y-173000000D03*
%TD*%
D41*
%TO.C,J16*%
X91600000Y-164400000D03*
X92600000Y-166400000D03*
X93600000Y-164400000D03*
X94600000Y-166400000D03*
X95600000Y-164400000D03*
X96600000Y-166400000D03*
X97600000Y-164400000D03*
X98600000Y-166400000D03*
X99600000Y-164400000D03*
X100600000Y-166400000D03*
X101600000Y-164400000D03*
X102600000Y-166400000D03*
X103600000Y-164400000D03*
X104600000Y-166400000D03*
X105600000Y-164400000D03*
X106600000Y-166400000D03*
X107600000Y-164400000D03*
X108600000Y-166400000D03*
X109600000Y-164400000D03*
X110600000Y-166400000D03*
X111600000Y-164400000D03*
X114600000Y-166400000D03*
X115600000Y-164400000D03*
X116600000Y-166400000D03*
X117600000Y-164400000D03*
X118600000Y-166400000D03*
X119600000Y-164400000D03*
X120600000Y-166400000D03*
X121600000Y-164400000D03*
X122600000Y-166400000D03*
X123600000Y-164400000D03*
X124600000Y-166400000D03*
X91600000Y-170900000D03*
X92600000Y-168900000D03*
X93600000Y-170900000D03*
X94600000Y-168900000D03*
X95600000Y-170900000D03*
X96600000Y-168900000D03*
X97600000Y-170900000D03*
X98600000Y-168900000D03*
X99600000Y-170900000D03*
X100600000Y-168900000D03*
X101600000Y-170900000D03*
X102600000Y-168900000D03*
X103600000Y-170900000D03*
X104600000Y-168900000D03*
X105600000Y-170900000D03*
X106600000Y-168900000D03*
X107600000Y-170900000D03*
X108600000Y-168900000D03*
X109600000Y-170900000D03*
X110600000Y-168900000D03*
X111600000Y-170900000D03*
X114600000Y-168900000D03*
X115600000Y-170900000D03*
X116600000Y-168900000D03*
X117600000Y-170900000D03*
X118600000Y-168900000D03*
X119600000Y-170900000D03*
X120600000Y-168900000D03*
X121600000Y-170900000D03*
X122600000Y-168900000D03*
X123600000Y-170900000D03*
D40*
X124600000Y-168900000D03*
D39*
X89800000Y-167650000D03*
X112950000Y-167650000D03*
%TD*%
D72*
%TO.C,U8*%
X240800000Y-117200000D03*
X239500000Y-117200000D03*
X239500000Y-115300000D03*
X240150000Y-115300000D03*
X240800000Y-115300000D03*
%TD*%
D24*
%TO.C,R20*%
X236200000Y-115000000D03*
X236200000Y-113000000D03*
%TD*%
D73*
%TO.C,U3*%
X246429600Y-93895002D03*
X246429600Y-94395001D03*
X246429600Y-94895000D03*
X246429600Y-95395001D03*
X246429600Y-95895001D03*
X246429600Y-96395002D03*
X246429600Y-96895001D03*
X246429600Y-97395000D03*
X248360000Y-97395000D03*
X248360000Y-96895001D03*
X248360000Y-96395002D03*
X248360000Y-95895001D03*
X248360000Y-95395001D03*
X248360000Y-94895000D03*
X248360000Y-94395001D03*
X248360000Y-93895002D03*
%TD*%
D19*
%TO.C,J7*%
X56900000Y-157200000D03*
X58900000Y-157200000D03*
X56900000Y-159200000D03*
X58900000Y-159200000D03*
X56900000Y-161200000D03*
X58900000Y-161200000D03*
X56900000Y-163200000D03*
X58900000Y-163200000D03*
X56900000Y-165200000D03*
D26*
X58900000Y-165200000D03*
%TD*%
D34*
%TO.C,J34*%
X232600000Y-104200000D03*
D35*
X232600000Y-106740000D03*
X232600000Y-109280000D03*
%TD*%
D36*
%TO.C,C13*%
X214360000Y-163000000D03*
X212460000Y-163000000D03*
%TD*%
D23*
%TO.C,J14*%
X117140015Y-183580002D03*
X120140014Y-183580002D03*
X123140013Y-183580002D03*
X126140012Y-183580002D03*
X129140011Y-183580002D03*
X117140015Y-186580001D03*
X120140014Y-186580001D03*
X123140013Y-186580001D03*
X126140012Y-186580001D03*
D22*
X129140011Y-186580001D03*
D21*
X127000000Y-190900000D03*
X119300015Y-190900000D03*
%TD*%
D18*
%TO.C,R5*%
X216500000Y-74200000D03*
X213400000Y-74200000D03*
%TD*%
D27*
%TO.C,J24*%
X198750352Y-68630000D03*
D28*
X201290352Y-68630000D03*
X203830352Y-68630000D03*
X206370352Y-68630000D03*
%TD*%
D74*
%TO.C,Y1*%
X195226000Y-173082000D03*
X195226000Y-164582000D03*
%TD*%
D46*
%TO.C,R30*%
X213480000Y-168700000D03*
X212460000Y-168700000D03*
%TD*%
D75*
%TO.C,U12*%
X214376000Y-164994500D03*
X213426000Y-164994500D03*
X212476000Y-164994500D03*
X212476000Y-167269500D03*
X213426000Y-167269500D03*
X214376000Y-167269500D03*
%TD*%
D44*
%TO.C,R8*%
X129500000Y-73350000D03*
X129500000Y-76450000D03*
%TD*%
D27*
%TO.C,J22*%
X253640002Y-100060702D03*
D28*
X253640002Y-102600702D03*
X253640002Y-105140702D03*
X253640002Y-107680702D03*
X253640002Y-110220702D03*
%TD*%
D76*
%TO.C,Module1*%
X226600000Y-154000000D03*
X226600000Y-106000000D03*
X193600000Y-154000000D03*
X193600000Y-106000000D03*
D77*
X228600000Y-137300000D03*
X225520000Y-137300000D03*
X228600000Y-136900000D03*
X225520000Y-136900000D03*
X228600000Y-136500000D03*
X225520000Y-136500000D03*
X228600000Y-136100000D03*
X225520000Y-136100000D03*
X228600000Y-135700000D03*
X225520000Y-135700000D03*
X228600000Y-135300000D03*
X225520000Y-135300000D03*
X228600000Y-134900000D03*
X225520000Y-134900000D03*
X228600000Y-134500000D03*
X225520000Y-134500000D03*
X228600000Y-134100000D03*
X225520000Y-134100000D03*
X228600000Y-133700000D03*
X225520000Y-133700000D03*
X228600000Y-133300000D03*
X225520000Y-133300000D03*
X228600000Y-132900000D03*
X225520000Y-132900000D03*
X228600000Y-132500000D03*
X225520000Y-132500000D03*
X228600000Y-132100000D03*
X225520000Y-132100000D03*
X228600000Y-131700000D03*
X225520000Y-131700000D03*
X228600000Y-131300000D03*
X225520000Y-131300000D03*
X228600000Y-130900000D03*
X225520000Y-130900000D03*
X228600000Y-130500000D03*
X225520000Y-130500000D03*
X228600000Y-130100000D03*
X225520000Y-130100000D03*
X228600000Y-129700000D03*
X225520000Y-129700000D03*
X228600000Y-129300000D03*
X225520000Y-129300000D03*
X228600000Y-128900000D03*
X225520000Y-128900000D03*
X228600000Y-128500000D03*
X225520000Y-128500000D03*
X228600000Y-128100000D03*
X225520000Y-128100000D03*
X228600000Y-127700000D03*
X225520000Y-127700000D03*
X228600000Y-127300000D03*
X225520000Y-127300000D03*
X228600000Y-126900000D03*
X225520000Y-126900000D03*
X228600000Y-126500000D03*
X225520000Y-126500000D03*
X228600000Y-126100000D03*
X225520000Y-126100000D03*
X228600000Y-125700000D03*
X225520000Y-125700000D03*
X228600000Y-125300000D03*
X225520000Y-125300000D03*
X228600000Y-124900000D03*
X225520000Y-124900000D03*
X228600000Y-124500000D03*
X225520000Y-124500000D03*
X228600000Y-124100000D03*
X225520000Y-124100000D03*
X228600000Y-123700000D03*
X225520000Y-123700000D03*
X228600000Y-123300000D03*
X225520000Y-123300000D03*
X228600000Y-122900000D03*
X225520000Y-122900000D03*
X228600000Y-122500000D03*
X225520000Y-122500000D03*
X228600000Y-122100000D03*
X225520000Y-122100000D03*
X228600000Y-121700000D03*
X225520000Y-121700000D03*
X228600000Y-121300000D03*
X225520000Y-121300000D03*
X228600000Y-120900000D03*
X225520000Y-120900000D03*
X228600000Y-120500000D03*
X225520000Y-120500000D03*
X228600000Y-120100000D03*
X225520000Y-120100000D03*
X228600000Y-119700000D03*
X225520000Y-119700000D03*
X228600000Y-119300000D03*
X225520000Y-119300000D03*
X228600000Y-118900000D03*
X225520000Y-118900000D03*
X228600000Y-118500000D03*
X225520000Y-118500000D03*
X228600000Y-118100000D03*
X225520000Y-118100000D03*
X228600000Y-117700000D03*
X225520000Y-117700000D03*
X194680000Y-137300000D03*
X191600000Y-137300000D03*
X194680000Y-136900000D03*
X191600000Y-136900000D03*
X194680000Y-136500000D03*
X191600000Y-136500000D03*
X194680000Y-136100000D03*
X191600000Y-136100000D03*
X194680000Y-135700000D03*
X191600000Y-135700000D03*
X194680000Y-135300000D03*
X191600000Y-135300000D03*
X194680000Y-134900000D03*
X191600000Y-134900000D03*
X194680000Y-134500000D03*
X191600000Y-134500000D03*
X194680000Y-134100000D03*
X191600000Y-134100000D03*
X194680000Y-133700000D03*
X191600000Y-133700000D03*
X194680000Y-133300000D03*
X191600000Y-133300000D03*
X194680000Y-132900000D03*
X191600000Y-132900000D03*
X194680000Y-132500000D03*
X191600000Y-132500000D03*
X194680000Y-132100000D03*
X191600000Y-132100000D03*
X194680000Y-131700000D03*
X191600000Y-131700000D03*
X194680000Y-131300000D03*
X191600000Y-131300000D03*
X194680000Y-130900000D03*
X191600000Y-130900000D03*
X194680000Y-130500000D03*
X191600000Y-130500000D03*
X194680000Y-130100000D03*
X191600000Y-130100000D03*
X194680000Y-129700000D03*
X191600000Y-129700000D03*
X194680000Y-129300000D03*
X191600000Y-129300000D03*
X194680000Y-128900000D03*
X191600000Y-128900000D03*
X194680000Y-128500000D03*
X191600000Y-128500000D03*
X194680000Y-128100000D03*
X191600000Y-128100000D03*
X194680000Y-127700000D03*
X191600000Y-127700000D03*
X194680000Y-127300000D03*
X191600000Y-127300000D03*
X194680000Y-126900000D03*
X191600000Y-126900000D03*
X194680000Y-126500000D03*
X191600000Y-126500000D03*
X194680000Y-126100000D03*
X191600000Y-126100000D03*
X194680000Y-125700000D03*
X191600000Y-125700000D03*
X194680000Y-125300000D03*
X191600000Y-125300000D03*
X194680000Y-124900000D03*
X191600000Y-124900000D03*
X194680000Y-124500000D03*
X191600000Y-124500000D03*
X194680000Y-124100000D03*
X191600000Y-124100000D03*
X194680000Y-123700000D03*
X191600000Y-123700000D03*
X194680000Y-123300000D03*
X191600000Y-123300000D03*
X194680000Y-122900000D03*
X191600000Y-122900000D03*
X194680000Y-122500000D03*
X191600000Y-122500000D03*
X194680000Y-122100000D03*
X191600000Y-122100000D03*
X194680000Y-121700000D03*
X191600000Y-121700000D03*
X194680000Y-121300000D03*
X191600000Y-121300000D03*
X194680000Y-120900000D03*
X191600000Y-120900000D03*
X194680000Y-120500000D03*
X191600000Y-120500000D03*
X194680000Y-120100000D03*
X191600000Y-120100000D03*
X194680000Y-119700000D03*
X191600000Y-119700000D03*
X194680000Y-119300000D03*
X191600000Y-119300000D03*
X194680000Y-118900000D03*
X191600000Y-118900000D03*
X194680000Y-118500000D03*
X191600000Y-118500000D03*
X194680000Y-118100000D03*
X191600000Y-118100000D03*
X194680000Y-117700000D03*
X191600000Y-117700000D03*
%TD*%
D62*
%TO.C,TP1*%
X239000000Y-132200000D03*
%TD*%
D25*
%TO.C,R28*%
X199660000Y-176100000D03*
X199660000Y-175080000D03*
%TD*%
D68*
%TO.C,R19*%
X240100000Y-134290000D03*
X240100000Y-135310000D03*
%TD*%
D34*
%TO.C,J39*%
X159600000Y-132040000D03*
D35*
X157060000Y-132040000D03*
X159600000Y-129500000D03*
X157060000Y-129500000D03*
X159600000Y-126960000D03*
X157060000Y-126960000D03*
X159600000Y-124420000D03*
X157060000Y-124420000D03*
X159600000Y-121880000D03*
X157060000Y-121880000D03*
X159600000Y-119340000D03*
X157060000Y-119340000D03*
X159600000Y-116800000D03*
X157060000Y-116800000D03*
X159600000Y-114260000D03*
X157060000Y-114260000D03*
X159600000Y-111720000D03*
X157060000Y-111720000D03*
X159600000Y-109180000D03*
X157060000Y-109180000D03*
X159600000Y-106640000D03*
X157060000Y-106640000D03*
X159600000Y-104100000D03*
X157060000Y-104100000D03*
%TD*%
M02*
