%TF.GenerationSoftware,KiCad,Pcbnew,8.0.2*%
%TF.CreationDate,2024-05-08T16:37:45-06:00*%
%TF.ProjectId,GR-LRR-CONTROL,47522d4c-5252-42d4-934f-4e54524f4c2e,rev?*%
%TF.SameCoordinates,Original*%
%TF.FileFunction,Profile,NP*%
%FSLAX46Y46*%
G04 Gerber Fmt 4.6, Leading zero omitted, Abs format (unit mm)*
G04 Created by KiCad (PCBNEW 8.0.2) date 2024-05-08 16:37:45*
%MOMM*%
%LPD*%
G01*
G04 APERTURE LIST*
%TA.AperFunction,Profile*%
%ADD10C,0.200000*%
%TD*%
G04 APERTURE END LIST*
D10*
X254757191Y-193845324D02*
G75*
G02*
X252869674Y-195732791I-1887491J24D01*
G01*
X68021175Y-69029725D02*
G75*
G02*
X64592175Y-69029725I-1714500J0D01*
G01*
X64592175Y-69029725D02*
G75*
G02*
X68021175Y-69029725I1714500J0D01*
G01*
X264155191Y-95250036D02*
X260911937Y-95250036D01*
X50449159Y-131756336D02*
X50449159Y-158608014D01*
X260911937Y-131756336D02*
X260911937Y-122101714D01*
X50449159Y-78401825D02*
G75*
G02*
X52316488Y-76514367I1887541J25D01*
G01*
X50449159Y-158608014D02*
X53692413Y-158608014D01*
X207402364Y-58125209D02*
X166801232Y-58125209D01*
X97547364Y-192489587D02*
X107201986Y-192489587D01*
X59847159Y-60012725D02*
X59847159Y-68902725D01*
X53692413Y-168262636D02*
X50449159Y-168262636D01*
X61734676Y-195732841D02*
G75*
G02*
X59847159Y-193845324I24J1887541D01*
G01*
X250012175Y-184828325D02*
G75*
G02*
X246583175Y-184828325I-1714500J0D01*
G01*
X246583175Y-184828325D02*
G75*
G02*
X250012175Y-184828325I1714500J0D01*
G01*
X61734676Y-195732841D02*
X97547364Y-195732841D01*
X207402364Y-61368463D02*
X207402364Y-58125209D01*
X53692413Y-95250036D02*
X50449159Y-95250036D01*
X53692413Y-122101714D02*
X53692413Y-131756336D01*
X264155191Y-175456268D02*
G75*
G02*
X262287862Y-177343682I-1887591J68D01*
G01*
X107201986Y-195732841D02*
X147803119Y-195732841D01*
X50449159Y-168262636D02*
X50449159Y-175456269D01*
X107201986Y-192489587D02*
X107201986Y-195732841D01*
X264155191Y-158608014D02*
X264155191Y-131756336D01*
X50449159Y-95250036D02*
X50449159Y-122101714D01*
X264155191Y-85595414D02*
X264155191Y-78401782D01*
X260911937Y-122101714D02*
X264155191Y-122101714D01*
X53692413Y-131756336D02*
X50449159Y-131756336D01*
X107201986Y-58125209D02*
X107201986Y-61368463D01*
X260911937Y-158608014D02*
X264155191Y-158608014D01*
X264155191Y-131756336D02*
X260911937Y-131756336D01*
X254757191Y-184955326D02*
G75*
G02*
X262287861Y-177343627I7612109J26D01*
G01*
X59847159Y-60012725D02*
G75*
G02*
X61734675Y-58125159I1887541J25D01*
G01*
X59847159Y-68902725D02*
G75*
G02*
X52316488Y-76514374I-7612079J-5D01*
G01*
X264155191Y-168262636D02*
X260911937Y-168262636D01*
X97547364Y-195732841D02*
X97547364Y-192489587D01*
X97547364Y-58125209D02*
X61734675Y-58125209D01*
X252869675Y-58125209D02*
G75*
G02*
X254757191Y-60012725I25J-1887491D01*
G01*
X164913824Y-59992538D02*
G75*
G02*
X166801232Y-58125215I1887476J-20262D01*
G01*
X250012175Y-69029725D02*
G75*
G02*
X246583175Y-69029725I-1714500J0D01*
G01*
X246583175Y-69029725D02*
G75*
G02*
X250012175Y-69029725I1714500J0D01*
G01*
X262287862Y-76514374D02*
G75*
G02*
X264155135Y-78401782I-20262J-1887426D01*
G01*
X254757191Y-193845324D02*
X254757191Y-184955326D01*
X166801230Y-195732841D02*
G75*
G02*
X164913867Y-193865512I70J1887541D01*
G01*
X260911937Y-85595414D02*
X264155191Y-85595414D01*
X217056986Y-61368463D02*
X207402364Y-61368463D01*
X97547364Y-61368463D02*
X97547364Y-58125209D01*
X147803075Y-58125209D02*
G75*
G02*
X149690482Y-59992538I-75J-1887591D01*
G01*
X217056986Y-58125209D02*
X217056986Y-61368463D01*
X252869675Y-58125209D02*
X217056986Y-58125209D01*
X254757191Y-68902725D02*
X254757191Y-60012725D01*
X52316488Y-177343676D02*
G75*
G02*
X50449216Y-175456269I20212J1887376D01*
G01*
X107201986Y-61368463D02*
X97547364Y-61368463D01*
X50449159Y-78401825D02*
X50449159Y-85595414D01*
X59847159Y-184955327D02*
X59847159Y-193845324D01*
X50449159Y-122101714D02*
X53692413Y-122101714D01*
X264155191Y-175456268D02*
X264155191Y-168262636D01*
X262287862Y-76514374D02*
G75*
G02*
X254757190Y-68902725I81438J7611674D01*
G01*
X164913824Y-59992538D02*
G75*
G02*
X149690526Y-59992538I-7611649J81413D01*
G01*
X149690526Y-193865512D02*
G75*
G02*
X164913824Y-193865512I7611649J-81413D01*
G01*
X260911937Y-168262636D02*
X260911937Y-158608014D01*
X166801230Y-195732841D02*
X207402364Y-195732841D01*
X217056986Y-195732841D02*
X252869674Y-195732841D01*
X53692413Y-158608014D02*
X53692413Y-168262636D01*
X149690526Y-193865512D02*
G75*
G02*
X147803119Y-195732933I-1887426J20112D01*
G01*
X50449159Y-85595414D02*
X53692413Y-85595414D01*
X52316488Y-177343676D02*
G75*
G02*
X59847159Y-184955327I-81388J-7611624D01*
G01*
X53692413Y-85595414D02*
X53692413Y-95250036D01*
X207402364Y-192489587D02*
X217056986Y-192489587D01*
X147803075Y-58125209D02*
X107201986Y-58125209D01*
X207402364Y-195732841D02*
X207402364Y-192489587D01*
X260911937Y-95250036D02*
X260911937Y-85595414D01*
X264155191Y-122101714D02*
X264155191Y-95250036D01*
X217056986Y-192489587D02*
X217056986Y-195732841D01*
X68021175Y-184828325D02*
G75*
G02*
X64592175Y-184828325I-1714500J0D01*
G01*
X64592175Y-184828325D02*
G75*
G02*
X68021175Y-184828325I1714500J0D01*
G01*
M02*
