%TF.GenerationSoftware,KiCad,Pcbnew,8.0.2*%
%TF.CreationDate,2024-05-12T20:10:00-06:00*%
%TF.ProjectId,GR-LRR-CONTROL,47522d4c-5252-42d4-934f-4e54524f4c2e,rev?*%
%TF.SameCoordinates,Original*%
%TF.FileFunction,Soldermask,Bot*%
%TF.FilePolarity,Negative*%
%FSLAX46Y46*%
G04 Gerber Fmt 4.6, Leading zero omitted, Abs format (unit mm)*
G04 Created by KiCad (PCBNEW 8.0.2) date 2024-05-12 20:10:00*
%MOMM*%
%LPD*%
G01*
G04 APERTURE LIST*
G04 Aperture macros list*
%AMRoundRect*
0 Rectangle with rounded corners*
0 $1 Rounding radius*
0 $2 $3 $4 $5 $6 $7 $8 $9 X,Y pos of 4 corners*
0 Add a 4 corners polygon primitive as box body*
4,1,4,$2,$3,$4,$5,$6,$7,$8,$9,$2,$3,0*
0 Add four circle primitives for the rounded corners*
1,1,$1+$1,$2,$3*
1,1,$1+$1,$4,$5*
1,1,$1+$1,$6,$7*
1,1,$1+$1,$8,$9*
0 Add four rect primitives between the rounded corners*
20,1,$1+$1,$2,$3,$4,$5,0*
20,1,$1+$1,$4,$5,$6,$7,0*
20,1,$1+$1,$6,$7,$8,$9,0*
20,1,$1+$1,$8,$9,$2,$3,0*%
G04 Aperture macros list end*
%ADD10C,2.999999*%
%ADD11R,1.520000X1.520000*%
%ADD12C,1.520000*%
%ADD13R,1.500000X1.500000*%
%ADD14C,1.500000*%
%ADD15R,1.350000X1.350000*%
%ADD16C,1.350000*%
%ADD17C,3.450000*%
%ADD18C,1.803400*%
%ADD19R,1.524000X1.524000*%
%ADD20C,1.524000*%
%ADD21R,1.700000X1.700000*%
%ADD22O,1.700000X1.700000*%
%ADD23C,2.400000*%
%ADD24RoundRect,0.102000X0.644000X0.644000X-0.644000X0.644000X-0.644000X-0.644000X0.644000X-0.644000X0*%
%ADD25C,1.492000*%
%ADD26R,2.640000X2.640000*%
%ADD27C,2.640000*%
%ADD28C,4.185000*%
%ADD29O,1.300000X1.700000*%
%ADD30O,1.000000X1.400000*%
%ADD31C,2.250000*%
%ADD32C,6.100000*%
G04 APERTURE END LIST*
D10*
%TO.C,J6*%
X54980001Y-104299654D03*
X54980001Y-111999639D03*
D11*
X59300000Y-114139650D03*
D12*
X59300000Y-111139651D03*
X59300000Y-108139652D03*
X59300000Y-105139653D03*
X59300000Y-102139654D03*
X62299999Y-114139650D03*
X62299999Y-111139651D03*
X62299999Y-108139652D03*
X62299999Y-105139653D03*
X62299999Y-102139654D03*
%TD*%
D13*
%TO.C,J11*%
X58800000Y-172900000D03*
D14*
X56800000Y-172900000D03*
X58800000Y-170900000D03*
X56800000Y-170900000D03*
X58800000Y-168900000D03*
X56800000Y-168900000D03*
X58800000Y-166900000D03*
X56800000Y-166900000D03*
X58800000Y-164900000D03*
X56800000Y-164900000D03*
%TD*%
D15*
%TO.C,J26*%
X233359998Y-70479298D03*
D16*
X235899998Y-70479298D03*
X238439998Y-70479298D03*
X240979998Y-70479298D03*
%TD*%
D14*
%TO.C,J37*%
X204130000Y-180077500D03*
X206630000Y-180077500D03*
X208630000Y-180077500D03*
X211130000Y-180077500D03*
X204130000Y-182697500D03*
X206630000Y-182697500D03*
X208630000Y-182697500D03*
X211130000Y-182697500D03*
D17*
X201060000Y-185407500D03*
X214200000Y-185407500D03*
X201060000Y-179727500D03*
X214200000Y-179727500D03*
%TD*%
D18*
%TO.C,J18*%
X158704900Y-91102701D03*
X163704900Y-91102701D03*
%TD*%
D19*
%TO.C,C21*%
X90500000Y-157192450D03*
D20*
X90500000Y-149674050D03*
%TD*%
D21*
%TO.C,J32*%
X240800000Y-154180000D03*
D22*
X238260000Y-154180000D03*
X240800000Y-151640000D03*
X238260000Y-151640000D03*
X240800000Y-149100000D03*
X238260000Y-149100000D03*
X240800000Y-146560000D03*
X238260000Y-146560000D03*
X240800000Y-144020000D03*
X238260000Y-144020000D03*
X240800000Y-141480000D03*
X238260000Y-141480000D03*
X240800000Y-138940000D03*
X238260000Y-138940000D03*
%TD*%
D15*
%TO.C,J20*%
X253570001Y-136890349D03*
D16*
X253570001Y-139430349D03*
%TD*%
D13*
%TO.C,J1*%
X58900000Y-89100000D03*
D14*
X56900000Y-89100000D03*
X58900000Y-87100000D03*
X56900000Y-87100000D03*
X58900000Y-85100000D03*
X56900000Y-85100000D03*
X58900000Y-83100000D03*
X56900000Y-83100000D03*
X58900000Y-81100000D03*
X56900000Y-81100000D03*
%TD*%
D23*
%TO.C,J12*%
X93950000Y-140350000D03*
X70800000Y-140350000D03*
D24*
X105600000Y-141600000D03*
D25*
X104600000Y-143600000D03*
X103600000Y-141600000D03*
X102600000Y-143600000D03*
X101600000Y-141600000D03*
X100600000Y-143600000D03*
X99600000Y-141600000D03*
X98600000Y-143600000D03*
X97600000Y-141600000D03*
X96600000Y-143600000D03*
X95600000Y-141600000D03*
X92600000Y-143600000D03*
X91600000Y-141600000D03*
X90600000Y-143600000D03*
X89600000Y-141600000D03*
X88600000Y-143600000D03*
X87600000Y-141600000D03*
X86600000Y-143600000D03*
X85600000Y-141600000D03*
X84600000Y-143600000D03*
X83600000Y-141600000D03*
X82600000Y-143600000D03*
X81600000Y-141600000D03*
X80600000Y-143600000D03*
X79600000Y-141600000D03*
X78600000Y-143600000D03*
X77600000Y-141600000D03*
X76600000Y-143600000D03*
X75600000Y-141600000D03*
X74600000Y-143600000D03*
X73600000Y-141600000D03*
X72600000Y-143600000D03*
X105600000Y-139100000D03*
X104600000Y-137100000D03*
X103600000Y-139100000D03*
X102600000Y-137100000D03*
X101600000Y-139100000D03*
X100600000Y-137100000D03*
X99600000Y-139100000D03*
X98600000Y-137100000D03*
X97600000Y-139100000D03*
X96600000Y-137100000D03*
X95600000Y-139100000D03*
X92600000Y-137100000D03*
X91600000Y-139100000D03*
X90600000Y-137100000D03*
X89600000Y-139100000D03*
X88600000Y-137100000D03*
X87600000Y-139100000D03*
X86600000Y-137100000D03*
X85600000Y-139100000D03*
X84600000Y-137100000D03*
X83600000Y-139100000D03*
X82600000Y-137100000D03*
X81600000Y-139100000D03*
X80600000Y-137100000D03*
X79600000Y-139100000D03*
X78600000Y-137100000D03*
X77600000Y-139100000D03*
X76600000Y-137100000D03*
X75600000Y-139100000D03*
X74600000Y-137100000D03*
X73600000Y-139100000D03*
X72600000Y-137100000D03*
%TD*%
D26*
%TO.C,J5*%
X127275000Y-80475000D03*
D27*
X122830000Y-80475000D03*
X117370000Y-80475000D03*
X112925000Y-80475000D03*
X112925000Y-74125000D03*
X117370000Y-74125000D03*
X122830000Y-74125000D03*
X127275000Y-74125000D03*
D28*
X120100000Y-68025000D03*
X133690000Y-79455000D03*
X106510000Y-79455000D03*
%TD*%
D20*
%TO.C,U4*%
X169736600Y-71500000D03*
X169736600Y-73500000D03*
X169736600Y-75500000D03*
X169703600Y-77500000D03*
X169736600Y-79500000D03*
X169736600Y-81500000D03*
X169736600Y-83500000D03*
X169736600Y-85500000D03*
X169736600Y-87500000D03*
X169736600Y-89500000D03*
X191700000Y-89500000D03*
X191700000Y-87500000D03*
X191700000Y-85500000D03*
X191700000Y-83500000D03*
X191700000Y-81500000D03*
X191700000Y-79500000D03*
X191700000Y-77500000D03*
X191700000Y-75500000D03*
X191700000Y-73500000D03*
X191700000Y-71500000D03*
%TD*%
D21*
%TO.C,J4*%
X193220000Y-103500000D03*
D22*
X193220000Y-106040000D03*
X190680000Y-103500000D03*
X190680000Y-106040000D03*
X188140000Y-103500000D03*
X188140000Y-106040000D03*
X185600000Y-103500000D03*
X185600000Y-106040000D03*
X183060000Y-103500000D03*
X183060000Y-106040000D03*
X180520000Y-103500000D03*
X180520000Y-106040000D03*
X177980000Y-103500000D03*
X177980000Y-106040000D03*
X175440000Y-103500000D03*
X175440000Y-106040000D03*
X172900000Y-103500000D03*
X172900000Y-106040000D03*
X170360000Y-103500000D03*
X170360000Y-106040000D03*
X167820000Y-103500000D03*
X167820000Y-106040000D03*
X165280000Y-103500000D03*
X165280000Y-106040000D03*
%TD*%
D13*
%TO.C,J15*%
X104700000Y-187200000D03*
D14*
X104700000Y-189200000D03*
X102700000Y-187200000D03*
X102700000Y-189200000D03*
X100700000Y-187200000D03*
X100700000Y-189200000D03*
X98700000Y-187200000D03*
X98700000Y-189200000D03*
X96700000Y-187200000D03*
X96700000Y-189200000D03*
%TD*%
D19*
%TO.C,C22*%
X116600000Y-151007550D03*
D20*
X116600000Y-158525950D03*
%TD*%
D15*
%TO.C,J25*%
X216710350Y-70409298D03*
D16*
X219250350Y-70409298D03*
X221790350Y-70409298D03*
X224330350Y-70409298D03*
%TD*%
D21*
%TO.C,J39*%
X162905000Y-148362588D03*
D22*
X160365000Y-148362588D03*
X162905000Y-145822588D03*
X160365000Y-145822588D03*
X162905000Y-143282588D03*
X160365000Y-143282588D03*
X162905000Y-140742588D03*
X160365000Y-140742588D03*
X162905000Y-138202588D03*
X160365000Y-138202588D03*
X162905000Y-135662588D03*
X160365000Y-135662588D03*
X162905000Y-133122588D03*
X160365000Y-133122588D03*
X162905000Y-130582588D03*
X160365000Y-130582588D03*
X162905000Y-128042588D03*
X160365000Y-128042588D03*
X162905000Y-125502588D03*
X160365000Y-125502588D03*
X162905000Y-122962588D03*
X160365000Y-122962588D03*
X162905000Y-120422588D03*
X160365000Y-120422588D03*
%TD*%
D29*
%TO.C,J36*%
X236280000Y-193207500D03*
D30*
X236580000Y-190177500D03*
X241430000Y-190177500D03*
D29*
X241730000Y-193207500D03*
%TD*%
D21*
%TO.C,J33*%
X242000000Y-123825000D03*
D22*
X242000000Y-121285000D03*
X242000000Y-118745000D03*
%TD*%
D23*
%TO.C,J8*%
X93750000Y-120750000D03*
X70600000Y-120750000D03*
D24*
X105400000Y-122000000D03*
D25*
X104400000Y-124000000D03*
X103400000Y-122000000D03*
X102400000Y-124000000D03*
X101400000Y-122000000D03*
X100400000Y-124000000D03*
X99400000Y-122000000D03*
X98400000Y-124000000D03*
X97400000Y-122000000D03*
X96400000Y-124000000D03*
X95400000Y-122000000D03*
X92400000Y-124000000D03*
X91400000Y-122000000D03*
X90400000Y-124000000D03*
X89400000Y-122000000D03*
X88400000Y-124000000D03*
X87400000Y-122000000D03*
X86400000Y-124000000D03*
X85400000Y-122000000D03*
X84400000Y-124000000D03*
X83400000Y-122000000D03*
X82400000Y-124000000D03*
X81400000Y-122000000D03*
X80400000Y-124000000D03*
X79400000Y-122000000D03*
X78400000Y-124000000D03*
X77400000Y-122000000D03*
X76400000Y-124000000D03*
X75400000Y-122000000D03*
X74400000Y-124000000D03*
X73400000Y-122000000D03*
X72400000Y-124000000D03*
X105400000Y-119500000D03*
X104400000Y-117500000D03*
X103400000Y-119500000D03*
X102400000Y-117500000D03*
X101400000Y-119500000D03*
X100400000Y-117500000D03*
X99400000Y-119500000D03*
X98400000Y-117500000D03*
X97400000Y-119500000D03*
X96400000Y-117500000D03*
X95400000Y-119500000D03*
X92400000Y-117500000D03*
X91400000Y-119500000D03*
X90400000Y-117500000D03*
X89400000Y-119500000D03*
X88400000Y-117500000D03*
X87400000Y-119500000D03*
X86400000Y-117500000D03*
X85400000Y-119500000D03*
X84400000Y-117500000D03*
X83400000Y-119500000D03*
X82400000Y-117500000D03*
X81400000Y-119500000D03*
X80400000Y-117500000D03*
X79400000Y-119500000D03*
X78400000Y-117500000D03*
X77400000Y-119500000D03*
X76400000Y-117500000D03*
X75400000Y-119500000D03*
X74400000Y-117500000D03*
X73400000Y-119500000D03*
X72400000Y-117500000D03*
%TD*%
D10*
%TO.C,J2*%
X83600347Y-62680001D03*
X75900362Y-62680001D03*
D11*
X73760351Y-67000000D03*
D12*
X76760350Y-67000000D03*
X79760349Y-67000000D03*
X82760348Y-67000000D03*
X85760347Y-67000000D03*
X73760351Y-69999999D03*
X76760350Y-69999999D03*
X79760349Y-69999999D03*
X82760348Y-69999999D03*
X85760347Y-69999999D03*
%TD*%
D15*
%TO.C,J21*%
X253600000Y-83039649D03*
D16*
X253600000Y-85579649D03*
X253600000Y-88119649D03*
X253600000Y-90659649D03*
X253600000Y-93199649D03*
%TD*%
D10*
%TO.C,J10*%
X55000000Y-146100015D03*
X55000000Y-153800000D03*
D11*
X59319999Y-155940011D03*
D12*
X59319999Y-152940012D03*
X59319999Y-149940013D03*
X59319999Y-146940014D03*
X59319999Y-143940015D03*
X62319998Y-155940011D03*
X62319998Y-152940012D03*
X62319998Y-149940013D03*
X62319998Y-146940014D03*
X62319998Y-143940015D03*
%TD*%
D15*
%TO.C,J23*%
X253570001Y-120650352D03*
D16*
X253570001Y-123190352D03*
X253570001Y-125730352D03*
X253570001Y-128270352D03*
%TD*%
D23*
%TO.C,J3*%
X93750000Y-91450000D03*
X70600000Y-91450000D03*
D24*
X105400000Y-92700000D03*
D25*
X104400000Y-94700000D03*
X103400000Y-92700000D03*
X102400000Y-94700000D03*
X101400000Y-92700000D03*
X100400000Y-94700000D03*
X99400000Y-92700000D03*
X98400000Y-94700000D03*
X97400000Y-92700000D03*
X96400000Y-94700000D03*
X95400000Y-92700000D03*
X92400000Y-94700000D03*
X91400000Y-92700000D03*
X90400000Y-94700000D03*
X89400000Y-92700000D03*
X88400000Y-94700000D03*
X87400000Y-92700000D03*
X86400000Y-94700000D03*
X85400000Y-92700000D03*
X84400000Y-94700000D03*
X83400000Y-92700000D03*
X82400000Y-94700000D03*
X81400000Y-92700000D03*
X80400000Y-94700000D03*
X79400000Y-92700000D03*
X78400000Y-94700000D03*
X77400000Y-92700000D03*
X76400000Y-94700000D03*
X75400000Y-92700000D03*
X74400000Y-94700000D03*
X73400000Y-92700000D03*
X72400000Y-94700000D03*
X105400000Y-90200000D03*
X104400000Y-88200000D03*
X103400000Y-90200000D03*
X102400000Y-88200000D03*
X101400000Y-90200000D03*
X100400000Y-88200000D03*
X99400000Y-90200000D03*
X98400000Y-88200000D03*
X97400000Y-90200000D03*
X96400000Y-88200000D03*
X95400000Y-90200000D03*
X92400000Y-88200000D03*
X91400000Y-90200000D03*
X90400000Y-88200000D03*
X89400000Y-90200000D03*
X88400000Y-88200000D03*
X87400000Y-90200000D03*
X86400000Y-88200000D03*
X85400000Y-90200000D03*
X84400000Y-88200000D03*
X83400000Y-90200000D03*
X82400000Y-88200000D03*
X81400000Y-90200000D03*
X80400000Y-88200000D03*
X79400000Y-90200000D03*
X78400000Y-88200000D03*
X77400000Y-90200000D03*
X76400000Y-88200000D03*
X75400000Y-90200000D03*
X74400000Y-88200000D03*
X73400000Y-90200000D03*
X72400000Y-88200000D03*
%TD*%
D14*
%TO.C,J38*%
X221800000Y-180077500D03*
X224300000Y-180077500D03*
X226300000Y-180077500D03*
X228800000Y-180077500D03*
X221800000Y-182697500D03*
X224300000Y-182697500D03*
X226300000Y-182697500D03*
X228800000Y-182697500D03*
D17*
X218730000Y-185407500D03*
X231870000Y-185407500D03*
X218730000Y-179727500D03*
X231870000Y-179727500D03*
%TD*%
D23*
%TO.C,J16*%
X93950000Y-169750000D03*
X70800000Y-169750000D03*
D24*
X105600000Y-171000000D03*
D25*
X104600000Y-173000000D03*
X103600000Y-171000000D03*
X102600000Y-173000000D03*
X101600000Y-171000000D03*
X100600000Y-173000000D03*
X99600000Y-171000000D03*
X98600000Y-173000000D03*
X97600000Y-171000000D03*
X96600000Y-173000000D03*
X95600000Y-171000000D03*
X92600000Y-173000000D03*
X91600000Y-171000000D03*
X90600000Y-173000000D03*
X89600000Y-171000000D03*
X88600000Y-173000000D03*
X87600000Y-171000000D03*
X86600000Y-173000000D03*
X85600000Y-171000000D03*
X84600000Y-173000000D03*
X83600000Y-171000000D03*
X82600000Y-173000000D03*
X81600000Y-171000000D03*
X80600000Y-173000000D03*
X79600000Y-171000000D03*
X78600000Y-173000000D03*
X77600000Y-171000000D03*
X76600000Y-173000000D03*
X75600000Y-171000000D03*
X74600000Y-173000000D03*
X73600000Y-171000000D03*
X72600000Y-173000000D03*
X105600000Y-168500000D03*
X104600000Y-166500000D03*
X103600000Y-168500000D03*
X102600000Y-166500000D03*
X101600000Y-168500000D03*
X100600000Y-166500000D03*
X99600000Y-168500000D03*
X98600000Y-166500000D03*
X97600000Y-168500000D03*
X96600000Y-166500000D03*
X95600000Y-168500000D03*
X92600000Y-166500000D03*
X91600000Y-168500000D03*
X90600000Y-166500000D03*
X89600000Y-168500000D03*
X88600000Y-166500000D03*
X87600000Y-168500000D03*
X86600000Y-166500000D03*
X85600000Y-168500000D03*
X84600000Y-166500000D03*
X83600000Y-168500000D03*
X82600000Y-166500000D03*
X81600000Y-168500000D03*
X80600000Y-166500000D03*
X79600000Y-168500000D03*
X78600000Y-166500000D03*
X77600000Y-168500000D03*
X76600000Y-166500000D03*
X75600000Y-168500000D03*
X74600000Y-166500000D03*
X73600000Y-168500000D03*
X72600000Y-166500000D03*
%TD*%
D31*
%TO.C,U1*%
X189870000Y-182937588D03*
X189870000Y-120957588D03*
X168530000Y-182937588D03*
X168530000Y-120957588D03*
%TD*%
D19*
%TO.C,C19*%
X116600000Y-102807550D03*
D20*
X116600000Y-110325950D03*
%TD*%
D13*
%TO.C,J7*%
X58800000Y-130800000D03*
D14*
X56800000Y-130800000D03*
X58800000Y-128800000D03*
X56800000Y-128800000D03*
X58800000Y-126800000D03*
X56800000Y-126800000D03*
X58800000Y-124800000D03*
X56800000Y-124800000D03*
X58800000Y-122800000D03*
X56800000Y-122800000D03*
%TD*%
D21*
%TO.C,J34*%
X238400000Y-102900000D03*
D22*
X238400000Y-105440000D03*
X238400000Y-107980000D03*
%TD*%
D19*
%TO.C,C20*%
X90500000Y-108992450D03*
D20*
X90500000Y-101474050D03*
%TD*%
D10*
%TO.C,J14*%
X77360004Y-191019999D03*
X85059989Y-191019999D03*
D11*
X87200000Y-186700000D03*
D12*
X84200001Y-186700000D03*
X81200002Y-186700000D03*
X78200003Y-186700000D03*
X75200004Y-186700000D03*
X87200000Y-183700001D03*
X84200001Y-183700001D03*
X81200002Y-183700001D03*
X78200003Y-183700001D03*
X75200004Y-183700001D03*
%TD*%
D15*
%TO.C,J24*%
X200010350Y-70409298D03*
D16*
X202550350Y-70409298D03*
X205090350Y-70409298D03*
X207630350Y-70409298D03*
%TD*%
D15*
%TO.C,J22*%
X253570001Y-101840000D03*
D16*
X253570001Y-104380000D03*
X253570001Y-106920000D03*
X253570001Y-109460000D03*
X253570001Y-112000000D03*
%TD*%
D32*
%TO.C,Module1*%
X232400000Y-152700000D03*
X232400000Y-104700000D03*
X199400000Y-152700000D03*
X199400000Y-104700000D03*
%TD*%
M02*
