M48
; DRILL file {KiCad 8.0.2} date 2024-05-12T20:09:54-0600
; FORMAT={-:-/ absolute / inch / decimal}
; #@! TF.CreationDate,2024-05-12T20:09:54-06:00
; #@! TF.GenerationSoftware,Kicad,Pcbnew,8.0.2
; #@! TF.FileFunction,NonPlated,1,4,NPTH
FMAT,2
INCH
; #@! TA.AperFunction,NonPlated,NPTH,ComponentDrill
T1C0.0886
; #@! TA.AperFunction,NonPlated,NPTH,ComponentDrill
T2C0.0945
; #@! TA.AperFunction,NonPlated,NPTH,ComponentDrill
T3C0.1063
; #@! TA.AperFunction,NonPlated,NPTH,ComponentDrill
T4C0.1181
%
G90
G05
T1
X6.635Y-4.7621
X6.635Y-7.2023
X7.4752Y-4.7621
X7.4752Y-7.2023
T2
X2.7795Y-3.6004
X2.7795Y-4.7539
X2.7874Y-5.5256
X2.7874Y-6.6831
X3.6909Y-3.6004
X3.6909Y-4.7539
X3.6988Y-5.5256
X3.6988Y-6.6831
T3
X7.8504Y-4.122
X7.8504Y-6.0118
X9.1496Y-4.122
X9.1496Y-6.0118
T4
X2.1646Y-4.1063
X2.1646Y-4.4094
X2.1654Y-5.752
X2.1654Y-6.0551
X2.9882Y-2.4677
X3.0457Y-7.5205
X3.2914Y-2.4677
X3.3488Y-7.5205
M30
