%TF.GenerationSoftware,KiCad,Pcbnew,8.0.2*%
%TF.CreationDate,2024-05-12T20:10:00-06:00*%
%TF.ProjectId,GR-LRR-CONTROL,47522d4c-5252-42d4-934f-4e54524f4c2e,rev?*%
%TF.SameCoordinates,Original*%
%TF.FileFunction,Legend,Bot*%
%TF.FilePolarity,Positive*%
%FSLAX46Y46*%
G04 Gerber Fmt 4.6, Leading zero omitted, Abs format (unit mm)*
G04 Created by KiCad (PCBNEW 8.0.2) date 2024-05-12 20:10:00*
%MOMM*%
%LPD*%
G01*
G04 APERTURE LIST*
%ADD10C,0.300000*%
%ADD11C,0.508000*%
G04 APERTURE END LIST*
D10*
X256197368Y-97550495D02*
X255697368Y-97550495D01*
X255483082Y-98388590D02*
X256197368Y-98388590D01*
X256197368Y-98388590D02*
X256197368Y-96788590D01*
X256197368Y-96788590D02*
X255483082Y-96788590D01*
X254840225Y-98388590D02*
X254840225Y-96788590D01*
X254840225Y-96788590D02*
X253983082Y-98388590D01*
X253983082Y-98388590D02*
X253983082Y-96788590D01*
X252411653Y-98236209D02*
X252483081Y-98312400D01*
X252483081Y-98312400D02*
X252697367Y-98388590D01*
X252697367Y-98388590D02*
X252840224Y-98388590D01*
X252840224Y-98388590D02*
X253054510Y-98312400D01*
X253054510Y-98312400D02*
X253197367Y-98160019D01*
X253197367Y-98160019D02*
X253268796Y-98007638D01*
X253268796Y-98007638D02*
X253340224Y-97702876D01*
X253340224Y-97702876D02*
X253340224Y-97474304D01*
X253340224Y-97474304D02*
X253268796Y-97169542D01*
X253268796Y-97169542D02*
X253197367Y-97017161D01*
X253197367Y-97017161D02*
X253054510Y-96864780D01*
X253054510Y-96864780D02*
X252840224Y-96788590D01*
X252840224Y-96788590D02*
X252697367Y-96788590D01*
X252697367Y-96788590D02*
X252483081Y-96864780D01*
X252483081Y-96864780D02*
X252411653Y-96940971D01*
X251840224Y-96940971D02*
X251768796Y-96864780D01*
X251768796Y-96864780D02*
X251625939Y-96788590D01*
X251625939Y-96788590D02*
X251268796Y-96788590D01*
X251268796Y-96788590D02*
X251125939Y-96864780D01*
X251125939Y-96864780D02*
X251054510Y-96940971D01*
X251054510Y-96940971D02*
X250983081Y-97093352D01*
X250983081Y-97093352D02*
X250983081Y-97245733D01*
X250983081Y-97245733D02*
X251054510Y-97474304D01*
X251054510Y-97474304D02*
X251911653Y-98388590D01*
X251911653Y-98388590D02*
X250983081Y-98388590D01*
X127904964Y-88545489D02*
X127828774Y-88331203D01*
X127828774Y-88331203D02*
X127752583Y-88259774D01*
X127752583Y-88259774D02*
X127600202Y-88188346D01*
X127600202Y-88188346D02*
X127371631Y-88188346D01*
X127371631Y-88188346D02*
X127219250Y-88259774D01*
X127219250Y-88259774D02*
X127143060Y-88331203D01*
X127143060Y-88331203D02*
X127066869Y-88474060D01*
X127066869Y-88474060D02*
X127066869Y-89045489D01*
X127066869Y-89045489D02*
X128666869Y-89045489D01*
X128666869Y-89045489D02*
X128666869Y-88545489D01*
X128666869Y-88545489D02*
X128590679Y-88402632D01*
X128590679Y-88402632D02*
X128514488Y-88331203D01*
X128514488Y-88331203D02*
X128362107Y-88259774D01*
X128362107Y-88259774D02*
X128209726Y-88259774D01*
X128209726Y-88259774D02*
X128057345Y-88331203D01*
X128057345Y-88331203D02*
X127981155Y-88402632D01*
X127981155Y-88402632D02*
X127904964Y-88545489D01*
X127904964Y-88545489D02*
X127904964Y-89045489D01*
X127524012Y-87616917D02*
X127524012Y-86902632D01*
X127066869Y-87759774D02*
X128666869Y-87259774D01*
X128666869Y-87259774D02*
X127066869Y-86759774D01*
X128666869Y-86474060D02*
X128666869Y-85616918D01*
X127066869Y-86045489D02*
X128666869Y-86045489D01*
X128666869Y-85331203D02*
X128666869Y-84474061D01*
X127066869Y-84902632D02*
X128666869Y-84902632D01*
X127676393Y-83974061D02*
X127676393Y-82831204D01*
X127066869Y-83402632D02*
X128285917Y-83402632D01*
X122753144Y-88545489D02*
X122676954Y-88331203D01*
X122676954Y-88331203D02*
X122600763Y-88259774D01*
X122600763Y-88259774D02*
X122448382Y-88188346D01*
X122448382Y-88188346D02*
X122219811Y-88188346D01*
X122219811Y-88188346D02*
X122067430Y-88259774D01*
X122067430Y-88259774D02*
X121991240Y-88331203D01*
X121991240Y-88331203D02*
X121915049Y-88474060D01*
X121915049Y-88474060D02*
X121915049Y-89045489D01*
X121915049Y-89045489D02*
X123515049Y-89045489D01*
X123515049Y-89045489D02*
X123515049Y-88545489D01*
X123515049Y-88545489D02*
X123438859Y-88402632D01*
X123438859Y-88402632D02*
X123362668Y-88331203D01*
X123362668Y-88331203D02*
X123210287Y-88259774D01*
X123210287Y-88259774D02*
X123057906Y-88259774D01*
X123057906Y-88259774D02*
X122905525Y-88331203D01*
X122905525Y-88331203D02*
X122829335Y-88402632D01*
X122829335Y-88402632D02*
X122753144Y-88545489D01*
X122753144Y-88545489D02*
X122753144Y-89045489D01*
X122372192Y-87616917D02*
X122372192Y-86902632D01*
X121915049Y-87759774D02*
X123515049Y-87259774D01*
X123515049Y-87259774D02*
X121915049Y-86759774D01*
X123515049Y-86474060D02*
X123515049Y-85616918D01*
X121915049Y-86045489D02*
X123515049Y-86045489D01*
X123515049Y-85331203D02*
X123515049Y-84474061D01*
X121915049Y-84902632D02*
X123515049Y-84902632D01*
X122524573Y-83974061D02*
X122524573Y-82831204D01*
X121915049Y-83402632D02*
X123134097Y-83402632D01*
X118287039Y-88259774D02*
X118363229Y-88402632D01*
X118363229Y-88402632D02*
X118363229Y-88616917D01*
X118363229Y-88616917D02*
X118287039Y-88831203D01*
X118287039Y-88831203D02*
X118134658Y-88974060D01*
X118134658Y-88974060D02*
X117982277Y-89045489D01*
X117982277Y-89045489D02*
X117677515Y-89116917D01*
X117677515Y-89116917D02*
X117448943Y-89116917D01*
X117448943Y-89116917D02*
X117144181Y-89045489D01*
X117144181Y-89045489D02*
X116991800Y-88974060D01*
X116991800Y-88974060D02*
X116839420Y-88831203D01*
X116839420Y-88831203D02*
X116763229Y-88616917D01*
X116763229Y-88616917D02*
X116763229Y-88474060D01*
X116763229Y-88474060D02*
X116839420Y-88259774D01*
X116839420Y-88259774D02*
X116915610Y-88188346D01*
X116915610Y-88188346D02*
X117448943Y-88188346D01*
X117448943Y-88188346D02*
X117448943Y-88474060D01*
X116763229Y-87545489D02*
X118363229Y-87545489D01*
X118363229Y-87545489D02*
X116763229Y-86688346D01*
X116763229Y-86688346D02*
X118363229Y-86688346D01*
X116763229Y-85974060D02*
X118363229Y-85974060D01*
X118363229Y-85974060D02*
X118363229Y-85616917D01*
X118363229Y-85616917D02*
X118287039Y-85402631D01*
X118287039Y-85402631D02*
X118134658Y-85259774D01*
X118134658Y-85259774D02*
X117982277Y-85188345D01*
X117982277Y-85188345D02*
X117677515Y-85116917D01*
X117677515Y-85116917D02*
X117448943Y-85116917D01*
X117448943Y-85116917D02*
X117144181Y-85188345D01*
X117144181Y-85188345D02*
X116991800Y-85259774D01*
X116991800Y-85259774D02*
X116839420Y-85402631D01*
X116839420Y-85402631D02*
X116763229Y-85616917D01*
X116763229Y-85616917D02*
X116763229Y-85974060D01*
X113135219Y-88259774D02*
X113211409Y-88402632D01*
X113211409Y-88402632D02*
X113211409Y-88616917D01*
X113211409Y-88616917D02*
X113135219Y-88831203D01*
X113135219Y-88831203D02*
X112982838Y-88974060D01*
X112982838Y-88974060D02*
X112830457Y-89045489D01*
X112830457Y-89045489D02*
X112525695Y-89116917D01*
X112525695Y-89116917D02*
X112297123Y-89116917D01*
X112297123Y-89116917D02*
X111992361Y-89045489D01*
X111992361Y-89045489D02*
X111839980Y-88974060D01*
X111839980Y-88974060D02*
X111687600Y-88831203D01*
X111687600Y-88831203D02*
X111611409Y-88616917D01*
X111611409Y-88616917D02*
X111611409Y-88474060D01*
X111611409Y-88474060D02*
X111687600Y-88259774D01*
X111687600Y-88259774D02*
X111763790Y-88188346D01*
X111763790Y-88188346D02*
X112297123Y-88188346D01*
X112297123Y-88188346D02*
X112297123Y-88474060D01*
X111611409Y-87545489D02*
X113211409Y-87545489D01*
X113211409Y-87545489D02*
X111611409Y-86688346D01*
X111611409Y-86688346D02*
X113211409Y-86688346D01*
X111611409Y-85974060D02*
X113211409Y-85974060D01*
X113211409Y-85974060D02*
X113211409Y-85616917D01*
X113211409Y-85616917D02*
X113135219Y-85402631D01*
X113135219Y-85402631D02*
X112982838Y-85259774D01*
X112982838Y-85259774D02*
X112830457Y-85188345D01*
X112830457Y-85188345D02*
X112525695Y-85116917D01*
X112525695Y-85116917D02*
X112297123Y-85116917D01*
X112297123Y-85116917D02*
X111992361Y-85188345D01*
X111992361Y-85188345D02*
X111839980Y-85259774D01*
X111839980Y-85259774D02*
X111687600Y-85402631D01*
X111687600Y-85402631D02*
X111611409Y-85616917D01*
X111611409Y-85616917D02*
X111611409Y-85974060D01*
X258425939Y-136188870D02*
X258568797Y-136112680D01*
X258568797Y-136112680D02*
X258783082Y-136112680D01*
X258783082Y-136112680D02*
X258997368Y-136188870D01*
X258997368Y-136188870D02*
X259140225Y-136341251D01*
X259140225Y-136341251D02*
X259211654Y-136493632D01*
X259211654Y-136493632D02*
X259283082Y-136798394D01*
X259283082Y-136798394D02*
X259283082Y-137026966D01*
X259283082Y-137026966D02*
X259211654Y-137331728D01*
X259211654Y-137331728D02*
X259140225Y-137484109D01*
X259140225Y-137484109D02*
X258997368Y-137636490D01*
X258997368Y-137636490D02*
X258783082Y-137712680D01*
X258783082Y-137712680D02*
X258640225Y-137712680D01*
X258640225Y-137712680D02*
X258425939Y-137636490D01*
X258425939Y-137636490D02*
X258354511Y-137560299D01*
X258354511Y-137560299D02*
X258354511Y-137026966D01*
X258354511Y-137026966D02*
X258640225Y-137026966D01*
X257711654Y-137712680D02*
X257711654Y-136112680D01*
X257711654Y-136112680D02*
X256854511Y-137712680D01*
X256854511Y-137712680D02*
X256854511Y-136112680D01*
X256140225Y-137712680D02*
X256140225Y-136112680D01*
X256140225Y-136112680D02*
X255783082Y-136112680D01*
X255783082Y-136112680D02*
X255568796Y-136188870D01*
X255568796Y-136188870D02*
X255425939Y-136341251D01*
X255425939Y-136341251D02*
X255354510Y-136493632D01*
X255354510Y-136493632D02*
X255283082Y-136798394D01*
X255283082Y-136798394D02*
X255283082Y-137026966D01*
X255283082Y-137026966D02*
X255354510Y-137331728D01*
X255354510Y-137331728D02*
X255425939Y-137484109D01*
X255425939Y-137484109D02*
X255568796Y-137636490D01*
X255568796Y-137636490D02*
X255783082Y-137712680D01*
X255783082Y-137712680D02*
X256140225Y-137712680D01*
X259640224Y-138688590D02*
X258711652Y-138688590D01*
X258711652Y-138688590D02*
X259211652Y-139298114D01*
X259211652Y-139298114D02*
X258997367Y-139298114D01*
X258997367Y-139298114D02*
X258854510Y-139374304D01*
X258854510Y-139374304D02*
X258783081Y-139450495D01*
X258783081Y-139450495D02*
X258711652Y-139602876D01*
X258711652Y-139602876D02*
X258711652Y-139983828D01*
X258711652Y-139983828D02*
X258783081Y-140136209D01*
X258783081Y-140136209D02*
X258854510Y-140212400D01*
X258854510Y-140212400D02*
X258997367Y-140288590D01*
X258997367Y-140288590D02*
X259425938Y-140288590D01*
X259425938Y-140288590D02*
X259568795Y-140212400D01*
X259568795Y-140212400D02*
X259640224Y-140136209D01*
X258068796Y-140136209D02*
X257997367Y-140212400D01*
X257997367Y-140212400D02*
X258068796Y-140288590D01*
X258068796Y-140288590D02*
X258140224Y-140212400D01*
X258140224Y-140212400D02*
X258068796Y-140136209D01*
X258068796Y-140136209D02*
X258068796Y-140288590D01*
X257497367Y-138688590D02*
X256568795Y-138688590D01*
X256568795Y-138688590D02*
X257068795Y-139298114D01*
X257068795Y-139298114D02*
X256854510Y-139298114D01*
X256854510Y-139298114D02*
X256711653Y-139374304D01*
X256711653Y-139374304D02*
X256640224Y-139450495D01*
X256640224Y-139450495D02*
X256568795Y-139602876D01*
X256568795Y-139602876D02*
X256568795Y-139983828D01*
X256568795Y-139983828D02*
X256640224Y-140136209D01*
X256640224Y-140136209D02*
X256711653Y-140212400D01*
X256711653Y-140212400D02*
X256854510Y-140288590D01*
X256854510Y-140288590D02*
X257283081Y-140288590D01*
X257283081Y-140288590D02*
X257425938Y-140212400D01*
X257425938Y-140212400D02*
X257497367Y-140136209D01*
X256140224Y-138688590D02*
X255640224Y-140288590D01*
X255640224Y-140288590D02*
X255140224Y-138688590D01*
X215311654Y-79519125D02*
X214811654Y-79519125D01*
X214597368Y-80357220D02*
X215311654Y-80357220D01*
X215311654Y-80357220D02*
X215311654Y-78757220D01*
X215311654Y-78757220D02*
X214597368Y-78757220D01*
X213954511Y-80357220D02*
X213954511Y-78757220D01*
X213954511Y-78757220D02*
X213097368Y-80357220D01*
X213097368Y-80357220D02*
X213097368Y-78757220D01*
X211525939Y-80204839D02*
X211597367Y-80281030D01*
X211597367Y-80281030D02*
X211811653Y-80357220D01*
X211811653Y-80357220D02*
X211954510Y-80357220D01*
X211954510Y-80357220D02*
X212168796Y-80281030D01*
X212168796Y-80281030D02*
X212311653Y-80128649D01*
X212311653Y-80128649D02*
X212383082Y-79976268D01*
X212383082Y-79976268D02*
X212454510Y-79671506D01*
X212454510Y-79671506D02*
X212454510Y-79442934D01*
X212454510Y-79442934D02*
X212383082Y-79138172D01*
X212383082Y-79138172D02*
X212311653Y-78985791D01*
X212311653Y-78985791D02*
X212168796Y-78833410D01*
X212168796Y-78833410D02*
X211954510Y-78757220D01*
X211954510Y-78757220D02*
X211811653Y-78757220D01*
X211811653Y-78757220D02*
X211597367Y-78833410D01*
X211597367Y-78833410D02*
X211525939Y-78909601D01*
X210097367Y-80357220D02*
X210954510Y-80357220D01*
X210525939Y-80357220D02*
X210525939Y-78757220D01*
X210525939Y-78757220D02*
X210668796Y-78985791D01*
X210668796Y-78985791D02*
X210811653Y-79138172D01*
X210811653Y-79138172D02*
X210954510Y-79214363D01*
X209454511Y-80204839D02*
X209383082Y-80281030D01*
X209383082Y-80281030D02*
X209454511Y-80357220D01*
X209454511Y-80357220D02*
X209525939Y-80281030D01*
X209525939Y-80281030D02*
X209454511Y-80204839D01*
X209454511Y-80204839D02*
X209454511Y-80357220D01*
X209454511Y-79366744D02*
X209383082Y-79442934D01*
X209383082Y-79442934D02*
X209454511Y-79519125D01*
X209454511Y-79519125D02*
X209525939Y-79442934D01*
X209525939Y-79442934D02*
X209454511Y-79366744D01*
X209454511Y-79366744D02*
X209454511Y-79519125D01*
X239668795Y-82933130D02*
X239668795Y-81333130D01*
X239668795Y-81333130D02*
X239097366Y-81333130D01*
X239097366Y-81333130D02*
X238954509Y-81409320D01*
X238954509Y-81409320D02*
X238883080Y-81485511D01*
X238883080Y-81485511D02*
X238811652Y-81637892D01*
X238811652Y-81637892D02*
X238811652Y-81866463D01*
X238811652Y-81866463D02*
X238883080Y-82018844D01*
X238883080Y-82018844D02*
X238954509Y-82095035D01*
X238954509Y-82095035D02*
X239097366Y-82171225D01*
X239097366Y-82171225D02*
X239668795Y-82171225D01*
X238168795Y-82933130D02*
X238168795Y-81333130D01*
X238168795Y-82095035D02*
X237311652Y-82095035D01*
X237311652Y-82933130D02*
X237311652Y-81333130D01*
X236668794Y-82475987D02*
X235954509Y-82475987D01*
X236811651Y-82933130D02*
X236311651Y-81333130D01*
X236311651Y-81333130D02*
X235811651Y-82933130D01*
X235383080Y-82856940D02*
X235168795Y-82933130D01*
X235168795Y-82933130D02*
X234811652Y-82933130D01*
X234811652Y-82933130D02*
X234668795Y-82856940D01*
X234668795Y-82856940D02*
X234597366Y-82780749D01*
X234597366Y-82780749D02*
X234525937Y-82628368D01*
X234525937Y-82628368D02*
X234525937Y-82475987D01*
X234525937Y-82475987D02*
X234597366Y-82323606D01*
X234597366Y-82323606D02*
X234668795Y-82247416D01*
X234668795Y-82247416D02*
X234811652Y-82171225D01*
X234811652Y-82171225D02*
X235097366Y-82095035D01*
X235097366Y-82095035D02*
X235240223Y-82018844D01*
X235240223Y-82018844D02*
X235311652Y-81942654D01*
X235311652Y-81942654D02*
X235383080Y-81790273D01*
X235383080Y-81790273D02*
X235383080Y-81637892D01*
X235383080Y-81637892D02*
X235311652Y-81485511D01*
X235311652Y-81485511D02*
X235240223Y-81409320D01*
X235240223Y-81409320D02*
X235097366Y-81333130D01*
X235097366Y-81333130D02*
X234740223Y-81333130D01*
X234740223Y-81333130D02*
X234525937Y-81409320D01*
X233883081Y-82095035D02*
X233383081Y-82095035D01*
X233168795Y-82933130D02*
X233883081Y-82933130D01*
X233883081Y-82933130D02*
X233883081Y-81333130D01*
X233883081Y-81333130D02*
X233168795Y-81333130D01*
X231454509Y-82475987D02*
X230740224Y-82475987D01*
X231597366Y-82933130D02*
X231097366Y-81333130D01*
X231097366Y-81333130D02*
X230597366Y-82933130D01*
X228954510Y-82323606D02*
X227811653Y-82323606D01*
X225097367Y-82780749D02*
X225168795Y-82856940D01*
X225168795Y-82856940D02*
X225383081Y-82933130D01*
X225383081Y-82933130D02*
X225525938Y-82933130D01*
X225525938Y-82933130D02*
X225740224Y-82856940D01*
X225740224Y-82856940D02*
X225883081Y-82704559D01*
X225883081Y-82704559D02*
X225954510Y-82552178D01*
X225954510Y-82552178D02*
X226025938Y-82247416D01*
X226025938Y-82247416D02*
X226025938Y-82018844D01*
X226025938Y-82018844D02*
X225954510Y-81714082D01*
X225954510Y-81714082D02*
X225883081Y-81561701D01*
X225883081Y-81561701D02*
X225740224Y-81409320D01*
X225740224Y-81409320D02*
X225525938Y-81333130D01*
X225525938Y-81333130D02*
X225383081Y-81333130D01*
X225383081Y-81333130D02*
X225168795Y-81409320D01*
X225168795Y-81409320D02*
X225097367Y-81485511D01*
X224525938Y-82475987D02*
X223811653Y-82475987D01*
X224668795Y-82933130D02*
X224168795Y-81333130D01*
X224168795Y-81333130D02*
X223668795Y-82933130D01*
X223168796Y-82933130D02*
X223168796Y-81333130D01*
X223168796Y-81333130D02*
X222668796Y-82475987D01*
X222668796Y-82475987D02*
X222168796Y-81333130D01*
X222168796Y-81333130D02*
X222168796Y-82933130D01*
X221811653Y-83085511D02*
X220668795Y-83085511D01*
X220311653Y-82933130D02*
X220311653Y-81333130D01*
X220311653Y-81333130D02*
X219954510Y-81333130D01*
X219954510Y-81333130D02*
X219740224Y-81409320D01*
X219740224Y-81409320D02*
X219597367Y-81561701D01*
X219597367Y-81561701D02*
X219525938Y-81714082D01*
X219525938Y-81714082D02*
X219454510Y-82018844D01*
X219454510Y-82018844D02*
X219454510Y-82247416D01*
X219454510Y-82247416D02*
X219525938Y-82552178D01*
X219525938Y-82552178D02*
X219597367Y-82704559D01*
X219597367Y-82704559D02*
X219740224Y-82856940D01*
X219740224Y-82856940D02*
X219954510Y-82933130D01*
X219954510Y-82933130D02*
X220311653Y-82933130D01*
X218525938Y-81333130D02*
X218383081Y-81333130D01*
X218383081Y-81333130D02*
X218240224Y-81409320D01*
X218240224Y-81409320D02*
X218168796Y-81485511D01*
X218168796Y-81485511D02*
X218097367Y-81637892D01*
X218097367Y-81637892D02*
X218025938Y-81942654D01*
X218025938Y-81942654D02*
X218025938Y-82323606D01*
X218025938Y-82323606D02*
X218097367Y-82628368D01*
X218097367Y-82628368D02*
X218168796Y-82780749D01*
X218168796Y-82780749D02*
X218240224Y-82856940D01*
X218240224Y-82856940D02*
X218383081Y-82933130D01*
X218383081Y-82933130D02*
X218525938Y-82933130D01*
X218525938Y-82933130D02*
X218668796Y-82856940D01*
X218668796Y-82856940D02*
X218740224Y-82780749D01*
X218740224Y-82780749D02*
X218811653Y-82628368D01*
X218811653Y-82628368D02*
X218883081Y-82323606D01*
X218883081Y-82323606D02*
X218883081Y-81942654D01*
X218883081Y-81942654D02*
X218811653Y-81637892D01*
X218811653Y-81637892D02*
X218740224Y-81485511D01*
X218740224Y-81485511D02*
X218668796Y-81409320D01*
X218668796Y-81409320D02*
X218525938Y-81333130D01*
X216240225Y-82323606D02*
X215097368Y-82323606D01*
X213240225Y-82933130D02*
X213240225Y-81333130D01*
X213240225Y-81333130D02*
X212668796Y-81333130D01*
X212668796Y-81333130D02*
X212525939Y-81409320D01*
X212525939Y-81409320D02*
X212454510Y-81485511D01*
X212454510Y-81485511D02*
X212383082Y-81637892D01*
X212383082Y-81637892D02*
X212383082Y-81866463D01*
X212383082Y-81866463D02*
X212454510Y-82018844D01*
X212454510Y-82018844D02*
X212525939Y-82095035D01*
X212525939Y-82095035D02*
X212668796Y-82171225D01*
X212668796Y-82171225D02*
X213240225Y-82171225D01*
X211740225Y-82933130D02*
X211740225Y-81333130D01*
X211740225Y-82095035D02*
X210883082Y-82095035D01*
X210883082Y-82933130D02*
X210883082Y-81333130D01*
X210097367Y-82933130D02*
X209811653Y-82933130D01*
X209811653Y-82933130D02*
X209668796Y-82856940D01*
X209668796Y-82856940D02*
X209597367Y-82780749D01*
X209597367Y-82780749D02*
X209454510Y-82552178D01*
X209454510Y-82552178D02*
X209383081Y-82247416D01*
X209383081Y-82247416D02*
X209383081Y-81637892D01*
X209383081Y-81637892D02*
X209454510Y-81485511D01*
X209454510Y-81485511D02*
X209525939Y-81409320D01*
X209525939Y-81409320D02*
X209668796Y-81333130D01*
X209668796Y-81333130D02*
X209954510Y-81333130D01*
X209954510Y-81333130D02*
X210097367Y-81409320D01*
X210097367Y-81409320D02*
X210168796Y-81485511D01*
X210168796Y-81485511D02*
X210240224Y-81637892D01*
X210240224Y-81637892D02*
X210240224Y-82018844D01*
X210240224Y-82018844D02*
X210168796Y-82171225D01*
X210168796Y-82171225D02*
X210097367Y-82247416D01*
X210097367Y-82247416D02*
X209954510Y-82323606D01*
X209954510Y-82323606D02*
X209668796Y-82323606D01*
X209668796Y-82323606D02*
X209525939Y-82247416D01*
X209525939Y-82247416D02*
X209454510Y-82171225D01*
X209454510Y-82171225D02*
X209383081Y-82018844D01*
X241311652Y-85509040D02*
X241311652Y-83909040D01*
X241311652Y-83909040D02*
X240740223Y-83909040D01*
X240740223Y-83909040D02*
X240597366Y-83985230D01*
X240597366Y-83985230D02*
X240525937Y-84061421D01*
X240525937Y-84061421D02*
X240454509Y-84213802D01*
X240454509Y-84213802D02*
X240454509Y-84442373D01*
X240454509Y-84442373D02*
X240525937Y-84594754D01*
X240525937Y-84594754D02*
X240597366Y-84670945D01*
X240597366Y-84670945D02*
X240740223Y-84747135D01*
X240740223Y-84747135D02*
X241311652Y-84747135D01*
X239811652Y-85509040D02*
X239811652Y-83909040D01*
X239811652Y-84670945D02*
X238954509Y-84670945D01*
X238954509Y-85509040D02*
X238954509Y-83909040D01*
X238311651Y-85051897D02*
X237597366Y-85051897D01*
X238454508Y-85509040D02*
X237954508Y-83909040D01*
X237954508Y-83909040D02*
X237454508Y-85509040D01*
X237025937Y-85432850D02*
X236811652Y-85509040D01*
X236811652Y-85509040D02*
X236454509Y-85509040D01*
X236454509Y-85509040D02*
X236311652Y-85432850D01*
X236311652Y-85432850D02*
X236240223Y-85356659D01*
X236240223Y-85356659D02*
X236168794Y-85204278D01*
X236168794Y-85204278D02*
X236168794Y-85051897D01*
X236168794Y-85051897D02*
X236240223Y-84899516D01*
X236240223Y-84899516D02*
X236311652Y-84823326D01*
X236311652Y-84823326D02*
X236454509Y-84747135D01*
X236454509Y-84747135D02*
X236740223Y-84670945D01*
X236740223Y-84670945D02*
X236883080Y-84594754D01*
X236883080Y-84594754D02*
X236954509Y-84518564D01*
X236954509Y-84518564D02*
X237025937Y-84366183D01*
X237025937Y-84366183D02*
X237025937Y-84213802D01*
X237025937Y-84213802D02*
X236954509Y-84061421D01*
X236954509Y-84061421D02*
X236883080Y-83985230D01*
X236883080Y-83985230D02*
X236740223Y-83909040D01*
X236740223Y-83909040D02*
X236383080Y-83909040D01*
X236383080Y-83909040D02*
X236168794Y-83985230D01*
X235525938Y-84670945D02*
X235025938Y-84670945D01*
X234811652Y-85509040D02*
X235525938Y-85509040D01*
X235525938Y-85509040D02*
X235525938Y-83909040D01*
X235525938Y-83909040D02*
X234811652Y-83909040D01*
X232525938Y-84670945D02*
X232311652Y-84747135D01*
X232311652Y-84747135D02*
X232240223Y-84823326D01*
X232240223Y-84823326D02*
X232168795Y-84975707D01*
X232168795Y-84975707D02*
X232168795Y-85204278D01*
X232168795Y-85204278D02*
X232240223Y-85356659D01*
X232240223Y-85356659D02*
X232311652Y-85432850D01*
X232311652Y-85432850D02*
X232454509Y-85509040D01*
X232454509Y-85509040D02*
X233025938Y-85509040D01*
X233025938Y-85509040D02*
X233025938Y-83909040D01*
X233025938Y-83909040D02*
X232525938Y-83909040D01*
X232525938Y-83909040D02*
X232383081Y-83985230D01*
X232383081Y-83985230D02*
X232311652Y-84061421D01*
X232311652Y-84061421D02*
X232240223Y-84213802D01*
X232240223Y-84213802D02*
X232240223Y-84366183D01*
X232240223Y-84366183D02*
X232311652Y-84518564D01*
X232311652Y-84518564D02*
X232383081Y-84594754D01*
X232383081Y-84594754D02*
X232525938Y-84670945D01*
X232525938Y-84670945D02*
X233025938Y-84670945D01*
X230383081Y-84899516D02*
X229240224Y-84899516D01*
X226525938Y-85356659D02*
X226597366Y-85432850D01*
X226597366Y-85432850D02*
X226811652Y-85509040D01*
X226811652Y-85509040D02*
X226954509Y-85509040D01*
X226954509Y-85509040D02*
X227168795Y-85432850D01*
X227168795Y-85432850D02*
X227311652Y-85280469D01*
X227311652Y-85280469D02*
X227383081Y-85128088D01*
X227383081Y-85128088D02*
X227454509Y-84823326D01*
X227454509Y-84823326D02*
X227454509Y-84594754D01*
X227454509Y-84594754D02*
X227383081Y-84289992D01*
X227383081Y-84289992D02*
X227311652Y-84137611D01*
X227311652Y-84137611D02*
X227168795Y-83985230D01*
X227168795Y-83985230D02*
X226954509Y-83909040D01*
X226954509Y-83909040D02*
X226811652Y-83909040D01*
X226811652Y-83909040D02*
X226597366Y-83985230D01*
X226597366Y-83985230D02*
X226525938Y-84061421D01*
X225954509Y-85051897D02*
X225240224Y-85051897D01*
X226097366Y-85509040D02*
X225597366Y-83909040D01*
X225597366Y-83909040D02*
X225097366Y-85509040D01*
X224597367Y-85509040D02*
X224597367Y-83909040D01*
X224597367Y-83909040D02*
X224097367Y-85051897D01*
X224097367Y-85051897D02*
X223597367Y-83909040D01*
X223597367Y-83909040D02*
X223597367Y-85509040D01*
X223240224Y-85661421D02*
X222097366Y-85661421D01*
X221740224Y-85509040D02*
X221740224Y-83909040D01*
X221740224Y-83909040D02*
X221383081Y-83909040D01*
X221383081Y-83909040D02*
X221168795Y-83985230D01*
X221168795Y-83985230D02*
X221025938Y-84137611D01*
X221025938Y-84137611D02*
X220954509Y-84289992D01*
X220954509Y-84289992D02*
X220883081Y-84594754D01*
X220883081Y-84594754D02*
X220883081Y-84823326D01*
X220883081Y-84823326D02*
X220954509Y-85128088D01*
X220954509Y-85128088D02*
X221025938Y-85280469D01*
X221025938Y-85280469D02*
X221168795Y-85432850D01*
X221168795Y-85432850D02*
X221383081Y-85509040D01*
X221383081Y-85509040D02*
X221740224Y-85509040D01*
X219454509Y-85509040D02*
X220311652Y-85509040D01*
X219883081Y-85509040D02*
X219883081Y-83909040D01*
X219883081Y-83909040D02*
X220025938Y-84137611D01*
X220025938Y-84137611D02*
X220168795Y-84289992D01*
X220168795Y-84289992D02*
X220311652Y-84366183D01*
X217668796Y-84899516D02*
X216525939Y-84899516D01*
X214668796Y-85509040D02*
X214668796Y-83909040D01*
X214668796Y-83909040D02*
X214097367Y-83909040D01*
X214097367Y-83909040D02*
X213954510Y-83985230D01*
X213954510Y-83985230D02*
X213883081Y-84061421D01*
X213883081Y-84061421D02*
X213811653Y-84213802D01*
X213811653Y-84213802D02*
X213811653Y-84442373D01*
X213811653Y-84442373D02*
X213883081Y-84594754D01*
X213883081Y-84594754D02*
X213954510Y-84670945D01*
X213954510Y-84670945D02*
X214097367Y-84747135D01*
X214097367Y-84747135D02*
X214668796Y-84747135D01*
X213168796Y-85509040D02*
X213168796Y-83909040D01*
X213168796Y-84670945D02*
X212311653Y-84670945D01*
X212311653Y-85509040D02*
X212311653Y-83909040D01*
X210811652Y-85509040D02*
X211668795Y-85509040D01*
X211240224Y-85509040D02*
X211240224Y-83909040D01*
X211240224Y-83909040D02*
X211383081Y-84137611D01*
X211383081Y-84137611D02*
X211525938Y-84289992D01*
X211525938Y-84289992D02*
X211668795Y-84366183D01*
X209883081Y-83909040D02*
X209740224Y-83909040D01*
X209740224Y-83909040D02*
X209597367Y-83985230D01*
X209597367Y-83985230D02*
X209525939Y-84061421D01*
X209525939Y-84061421D02*
X209454510Y-84213802D01*
X209454510Y-84213802D02*
X209383081Y-84518564D01*
X209383081Y-84518564D02*
X209383081Y-84899516D01*
X209383081Y-84899516D02*
X209454510Y-85204278D01*
X209454510Y-85204278D02*
X209525939Y-85356659D01*
X209525939Y-85356659D02*
X209597367Y-85432850D01*
X209597367Y-85432850D02*
X209740224Y-85509040D01*
X209740224Y-85509040D02*
X209883081Y-85509040D01*
X209883081Y-85509040D02*
X210025939Y-85432850D01*
X210025939Y-85432850D02*
X210097367Y-85356659D01*
X210097367Y-85356659D02*
X210168796Y-85204278D01*
X210168796Y-85204278D02*
X210240224Y-84899516D01*
X210240224Y-84899516D02*
X210240224Y-84518564D01*
X210240224Y-84518564D02*
X210168796Y-84213802D01*
X210168796Y-84213802D02*
X210097367Y-84061421D01*
X210097367Y-84061421D02*
X210025939Y-83985230D01*
X210025939Y-83985230D02*
X209883081Y-83909040D01*
X241240223Y-88084950D02*
X241240223Y-86484950D01*
X241240223Y-86484950D02*
X240668794Y-86484950D01*
X240668794Y-86484950D02*
X240525937Y-86561140D01*
X240525937Y-86561140D02*
X240454508Y-86637331D01*
X240454508Y-86637331D02*
X240383080Y-86789712D01*
X240383080Y-86789712D02*
X240383080Y-87018283D01*
X240383080Y-87018283D02*
X240454508Y-87170664D01*
X240454508Y-87170664D02*
X240525937Y-87246855D01*
X240525937Y-87246855D02*
X240668794Y-87323045D01*
X240668794Y-87323045D02*
X241240223Y-87323045D01*
X239740223Y-88084950D02*
X239740223Y-86484950D01*
X239740223Y-87246855D02*
X238883080Y-87246855D01*
X238883080Y-88084950D02*
X238883080Y-86484950D01*
X238240222Y-87627807D02*
X237525937Y-87627807D01*
X238383079Y-88084950D02*
X237883079Y-86484950D01*
X237883079Y-86484950D02*
X237383079Y-88084950D01*
X236954508Y-88008760D02*
X236740223Y-88084950D01*
X236740223Y-88084950D02*
X236383080Y-88084950D01*
X236383080Y-88084950D02*
X236240223Y-88008760D01*
X236240223Y-88008760D02*
X236168794Y-87932569D01*
X236168794Y-87932569D02*
X236097365Y-87780188D01*
X236097365Y-87780188D02*
X236097365Y-87627807D01*
X236097365Y-87627807D02*
X236168794Y-87475426D01*
X236168794Y-87475426D02*
X236240223Y-87399236D01*
X236240223Y-87399236D02*
X236383080Y-87323045D01*
X236383080Y-87323045D02*
X236668794Y-87246855D01*
X236668794Y-87246855D02*
X236811651Y-87170664D01*
X236811651Y-87170664D02*
X236883080Y-87094474D01*
X236883080Y-87094474D02*
X236954508Y-86942093D01*
X236954508Y-86942093D02*
X236954508Y-86789712D01*
X236954508Y-86789712D02*
X236883080Y-86637331D01*
X236883080Y-86637331D02*
X236811651Y-86561140D01*
X236811651Y-86561140D02*
X236668794Y-86484950D01*
X236668794Y-86484950D02*
X236311651Y-86484950D01*
X236311651Y-86484950D02*
X236097365Y-86561140D01*
X235454509Y-87246855D02*
X234954509Y-87246855D01*
X234740223Y-88084950D02*
X235454509Y-88084950D01*
X235454509Y-88084950D02*
X235454509Y-86484950D01*
X235454509Y-86484950D02*
X234740223Y-86484950D01*
X233097366Y-86484950D02*
X232097366Y-86484950D01*
X232097366Y-86484950D02*
X233097366Y-88084950D01*
X233097366Y-88084950D02*
X232097366Y-88084950D01*
X230383081Y-87475426D02*
X229240224Y-87475426D01*
X226525938Y-87932569D02*
X226597366Y-88008760D01*
X226597366Y-88008760D02*
X226811652Y-88084950D01*
X226811652Y-88084950D02*
X226954509Y-88084950D01*
X226954509Y-88084950D02*
X227168795Y-88008760D01*
X227168795Y-88008760D02*
X227311652Y-87856379D01*
X227311652Y-87856379D02*
X227383081Y-87703998D01*
X227383081Y-87703998D02*
X227454509Y-87399236D01*
X227454509Y-87399236D02*
X227454509Y-87170664D01*
X227454509Y-87170664D02*
X227383081Y-86865902D01*
X227383081Y-86865902D02*
X227311652Y-86713521D01*
X227311652Y-86713521D02*
X227168795Y-86561140D01*
X227168795Y-86561140D02*
X226954509Y-86484950D01*
X226954509Y-86484950D02*
X226811652Y-86484950D01*
X226811652Y-86484950D02*
X226597366Y-86561140D01*
X226597366Y-86561140D02*
X226525938Y-86637331D01*
X225954509Y-87627807D02*
X225240224Y-87627807D01*
X226097366Y-88084950D02*
X225597366Y-86484950D01*
X225597366Y-86484950D02*
X225097366Y-88084950D01*
X224597367Y-88084950D02*
X224597367Y-86484950D01*
X224597367Y-86484950D02*
X224097367Y-87627807D01*
X224097367Y-87627807D02*
X223597367Y-86484950D01*
X223597367Y-86484950D02*
X223597367Y-88084950D01*
X223240224Y-88237331D02*
X222097366Y-88237331D01*
X221740224Y-88084950D02*
X221740224Y-86484950D01*
X221740224Y-86484950D02*
X221383081Y-86484950D01*
X221383081Y-86484950D02*
X221168795Y-86561140D01*
X221168795Y-86561140D02*
X221025938Y-86713521D01*
X221025938Y-86713521D02*
X220954509Y-86865902D01*
X220954509Y-86865902D02*
X220883081Y-87170664D01*
X220883081Y-87170664D02*
X220883081Y-87399236D01*
X220883081Y-87399236D02*
X220954509Y-87703998D01*
X220954509Y-87703998D02*
X221025938Y-87856379D01*
X221025938Y-87856379D02*
X221168795Y-88008760D01*
X221168795Y-88008760D02*
X221383081Y-88084950D01*
X221383081Y-88084950D02*
X221740224Y-88084950D01*
X220311652Y-86637331D02*
X220240224Y-86561140D01*
X220240224Y-86561140D02*
X220097367Y-86484950D01*
X220097367Y-86484950D02*
X219740224Y-86484950D01*
X219740224Y-86484950D02*
X219597367Y-86561140D01*
X219597367Y-86561140D02*
X219525938Y-86637331D01*
X219525938Y-86637331D02*
X219454509Y-86789712D01*
X219454509Y-86789712D02*
X219454509Y-86942093D01*
X219454509Y-86942093D02*
X219525938Y-87170664D01*
X219525938Y-87170664D02*
X220383081Y-88084950D01*
X220383081Y-88084950D02*
X219454509Y-88084950D01*
X217668796Y-87475426D02*
X216525939Y-87475426D01*
X214668796Y-88084950D02*
X214668796Y-86484950D01*
X214668796Y-86484950D02*
X214097367Y-86484950D01*
X214097367Y-86484950D02*
X213954510Y-86561140D01*
X213954510Y-86561140D02*
X213883081Y-86637331D01*
X213883081Y-86637331D02*
X213811653Y-86789712D01*
X213811653Y-86789712D02*
X213811653Y-87018283D01*
X213811653Y-87018283D02*
X213883081Y-87170664D01*
X213883081Y-87170664D02*
X213954510Y-87246855D01*
X213954510Y-87246855D02*
X214097367Y-87323045D01*
X214097367Y-87323045D02*
X214668796Y-87323045D01*
X213168796Y-88084950D02*
X213168796Y-86484950D01*
X213168796Y-87246855D02*
X212311653Y-87246855D01*
X212311653Y-88084950D02*
X212311653Y-86484950D01*
X210811652Y-88084950D02*
X211668795Y-88084950D01*
X211240224Y-88084950D02*
X211240224Y-86484950D01*
X211240224Y-86484950D02*
X211383081Y-86713521D01*
X211383081Y-86713521D02*
X211525938Y-86865902D01*
X211525938Y-86865902D02*
X211668795Y-86942093D01*
X209383081Y-88084950D02*
X210240224Y-88084950D01*
X209811653Y-88084950D02*
X209811653Y-86484950D01*
X209811653Y-86484950D02*
X209954510Y-86713521D01*
X209954510Y-86713521D02*
X210097367Y-86865902D01*
X210097367Y-86865902D02*
X210240224Y-86942093D01*
X215311654Y-89822765D02*
X214811654Y-89822765D01*
X214597368Y-90660860D02*
X215311654Y-90660860D01*
X215311654Y-90660860D02*
X215311654Y-89060860D01*
X215311654Y-89060860D02*
X214597368Y-89060860D01*
X213954511Y-90660860D02*
X213954511Y-89060860D01*
X213954511Y-89060860D02*
X213097368Y-90660860D01*
X213097368Y-90660860D02*
X213097368Y-89060860D01*
X211525939Y-90508479D02*
X211597367Y-90584670D01*
X211597367Y-90584670D02*
X211811653Y-90660860D01*
X211811653Y-90660860D02*
X211954510Y-90660860D01*
X211954510Y-90660860D02*
X212168796Y-90584670D01*
X212168796Y-90584670D02*
X212311653Y-90432289D01*
X212311653Y-90432289D02*
X212383082Y-90279908D01*
X212383082Y-90279908D02*
X212454510Y-89975146D01*
X212454510Y-89975146D02*
X212454510Y-89746574D01*
X212454510Y-89746574D02*
X212383082Y-89441812D01*
X212383082Y-89441812D02*
X212311653Y-89289431D01*
X212311653Y-89289431D02*
X212168796Y-89137050D01*
X212168796Y-89137050D02*
X211954510Y-89060860D01*
X211954510Y-89060860D02*
X211811653Y-89060860D01*
X211811653Y-89060860D02*
X211597367Y-89137050D01*
X211597367Y-89137050D02*
X211525939Y-89213241D01*
X210954510Y-89213241D02*
X210883082Y-89137050D01*
X210883082Y-89137050D02*
X210740225Y-89060860D01*
X210740225Y-89060860D02*
X210383082Y-89060860D01*
X210383082Y-89060860D02*
X210240225Y-89137050D01*
X210240225Y-89137050D02*
X210168796Y-89213241D01*
X210168796Y-89213241D02*
X210097367Y-89365622D01*
X210097367Y-89365622D02*
X210097367Y-89518003D01*
X210097367Y-89518003D02*
X210168796Y-89746574D01*
X210168796Y-89746574D02*
X211025939Y-90660860D01*
X211025939Y-90660860D02*
X210097367Y-90660860D01*
X209454511Y-90508479D02*
X209383082Y-90584670D01*
X209383082Y-90584670D02*
X209454511Y-90660860D01*
X209454511Y-90660860D02*
X209525939Y-90584670D01*
X209525939Y-90584670D02*
X209454511Y-90508479D01*
X209454511Y-90508479D02*
X209454511Y-90660860D01*
X209454511Y-89670384D02*
X209383082Y-89746574D01*
X209383082Y-89746574D02*
X209454511Y-89822765D01*
X209454511Y-89822765D02*
X209525939Y-89746574D01*
X209525939Y-89746574D02*
X209454511Y-89670384D01*
X209454511Y-89670384D02*
X209454511Y-89822765D01*
X241097366Y-93236770D02*
X241097366Y-91636770D01*
X241097366Y-91636770D02*
X240525937Y-91636770D01*
X240525937Y-91636770D02*
X240383080Y-91712960D01*
X240383080Y-91712960D02*
X240311651Y-91789151D01*
X240311651Y-91789151D02*
X240240223Y-91941532D01*
X240240223Y-91941532D02*
X240240223Y-92170103D01*
X240240223Y-92170103D02*
X240311651Y-92322484D01*
X240311651Y-92322484D02*
X240383080Y-92398675D01*
X240383080Y-92398675D02*
X240525937Y-92474865D01*
X240525937Y-92474865D02*
X241097366Y-92474865D01*
X239597366Y-93236770D02*
X239597366Y-91636770D01*
X239597366Y-92398675D02*
X238740223Y-92398675D01*
X238740223Y-93236770D02*
X238740223Y-91636770D01*
X238097365Y-92779627D02*
X237383080Y-92779627D01*
X238240222Y-93236770D02*
X237740222Y-91636770D01*
X237740222Y-91636770D02*
X237240222Y-93236770D01*
X236811651Y-93160580D02*
X236597366Y-93236770D01*
X236597366Y-93236770D02*
X236240223Y-93236770D01*
X236240223Y-93236770D02*
X236097366Y-93160580D01*
X236097366Y-93160580D02*
X236025937Y-93084389D01*
X236025937Y-93084389D02*
X235954508Y-92932008D01*
X235954508Y-92932008D02*
X235954508Y-92779627D01*
X235954508Y-92779627D02*
X236025937Y-92627246D01*
X236025937Y-92627246D02*
X236097366Y-92551056D01*
X236097366Y-92551056D02*
X236240223Y-92474865D01*
X236240223Y-92474865D02*
X236525937Y-92398675D01*
X236525937Y-92398675D02*
X236668794Y-92322484D01*
X236668794Y-92322484D02*
X236740223Y-92246294D01*
X236740223Y-92246294D02*
X236811651Y-92093913D01*
X236811651Y-92093913D02*
X236811651Y-91941532D01*
X236811651Y-91941532D02*
X236740223Y-91789151D01*
X236740223Y-91789151D02*
X236668794Y-91712960D01*
X236668794Y-91712960D02*
X236525937Y-91636770D01*
X236525937Y-91636770D02*
X236168794Y-91636770D01*
X236168794Y-91636770D02*
X235954508Y-91712960D01*
X235311652Y-92398675D02*
X234811652Y-92398675D01*
X234597366Y-93236770D02*
X235311652Y-93236770D01*
X235311652Y-93236770D02*
X235311652Y-91636770D01*
X235311652Y-91636770D02*
X234597366Y-91636770D01*
X232883080Y-92779627D02*
X232168795Y-92779627D01*
X233025937Y-93236770D02*
X232525937Y-91636770D01*
X232525937Y-91636770D02*
X232025937Y-93236770D01*
X230383081Y-92627246D02*
X229240224Y-92627246D01*
X226525938Y-93084389D02*
X226597366Y-93160580D01*
X226597366Y-93160580D02*
X226811652Y-93236770D01*
X226811652Y-93236770D02*
X226954509Y-93236770D01*
X226954509Y-93236770D02*
X227168795Y-93160580D01*
X227168795Y-93160580D02*
X227311652Y-93008199D01*
X227311652Y-93008199D02*
X227383081Y-92855818D01*
X227383081Y-92855818D02*
X227454509Y-92551056D01*
X227454509Y-92551056D02*
X227454509Y-92322484D01*
X227454509Y-92322484D02*
X227383081Y-92017722D01*
X227383081Y-92017722D02*
X227311652Y-91865341D01*
X227311652Y-91865341D02*
X227168795Y-91712960D01*
X227168795Y-91712960D02*
X226954509Y-91636770D01*
X226954509Y-91636770D02*
X226811652Y-91636770D01*
X226811652Y-91636770D02*
X226597366Y-91712960D01*
X226597366Y-91712960D02*
X226525938Y-91789151D01*
X225954509Y-92779627D02*
X225240224Y-92779627D01*
X226097366Y-93236770D02*
X225597366Y-91636770D01*
X225597366Y-91636770D02*
X225097366Y-93236770D01*
X224597367Y-93236770D02*
X224597367Y-91636770D01*
X224597367Y-91636770D02*
X224097367Y-92779627D01*
X224097367Y-92779627D02*
X223597367Y-91636770D01*
X223597367Y-91636770D02*
X223597367Y-93236770D01*
X223240224Y-93389151D02*
X222097366Y-93389151D01*
X221740224Y-93236770D02*
X221740224Y-91636770D01*
X221740224Y-91636770D02*
X221383081Y-91636770D01*
X221383081Y-91636770D02*
X221168795Y-91712960D01*
X221168795Y-91712960D02*
X221025938Y-91865341D01*
X221025938Y-91865341D02*
X220954509Y-92017722D01*
X220954509Y-92017722D02*
X220883081Y-92322484D01*
X220883081Y-92322484D02*
X220883081Y-92551056D01*
X220883081Y-92551056D02*
X220954509Y-92855818D01*
X220954509Y-92855818D02*
X221025938Y-93008199D01*
X221025938Y-93008199D02*
X221168795Y-93160580D01*
X221168795Y-93160580D02*
X221383081Y-93236770D01*
X221383081Y-93236770D02*
X221740224Y-93236770D01*
X220383081Y-91636770D02*
X219454509Y-91636770D01*
X219454509Y-91636770D02*
X219954509Y-92246294D01*
X219954509Y-92246294D02*
X219740224Y-92246294D01*
X219740224Y-92246294D02*
X219597367Y-92322484D01*
X219597367Y-92322484D02*
X219525938Y-92398675D01*
X219525938Y-92398675D02*
X219454509Y-92551056D01*
X219454509Y-92551056D02*
X219454509Y-92932008D01*
X219454509Y-92932008D02*
X219525938Y-93084389D01*
X219525938Y-93084389D02*
X219597367Y-93160580D01*
X219597367Y-93160580D02*
X219740224Y-93236770D01*
X219740224Y-93236770D02*
X220168795Y-93236770D01*
X220168795Y-93236770D02*
X220311652Y-93160580D01*
X220311652Y-93160580D02*
X220383081Y-93084389D01*
X217668796Y-92627246D02*
X216525939Y-92627246D01*
X214668796Y-93236770D02*
X214668796Y-91636770D01*
X214668796Y-91636770D02*
X214097367Y-91636770D01*
X214097367Y-91636770D02*
X213954510Y-91712960D01*
X213954510Y-91712960D02*
X213883081Y-91789151D01*
X213883081Y-91789151D02*
X213811653Y-91941532D01*
X213811653Y-91941532D02*
X213811653Y-92170103D01*
X213811653Y-92170103D02*
X213883081Y-92322484D01*
X213883081Y-92322484D02*
X213954510Y-92398675D01*
X213954510Y-92398675D02*
X214097367Y-92474865D01*
X214097367Y-92474865D02*
X214668796Y-92474865D01*
X213168796Y-93236770D02*
X213168796Y-91636770D01*
X213168796Y-92398675D02*
X212311653Y-92398675D01*
X212311653Y-93236770D02*
X212311653Y-91636770D01*
X210811652Y-93236770D02*
X211668795Y-93236770D01*
X211240224Y-93236770D02*
X211240224Y-91636770D01*
X211240224Y-91636770D02*
X211383081Y-91865341D01*
X211383081Y-91865341D02*
X211525938Y-92017722D01*
X211525938Y-92017722D02*
X211668795Y-92093913D01*
X210240224Y-91789151D02*
X210168796Y-91712960D01*
X210168796Y-91712960D02*
X210025939Y-91636770D01*
X210025939Y-91636770D02*
X209668796Y-91636770D01*
X209668796Y-91636770D02*
X209525939Y-91712960D01*
X209525939Y-91712960D02*
X209454510Y-91789151D01*
X209454510Y-91789151D02*
X209383081Y-91941532D01*
X209383081Y-91941532D02*
X209383081Y-92093913D01*
X209383081Y-92093913D02*
X209454510Y-92322484D01*
X209454510Y-92322484D02*
X210311653Y-93236770D01*
X210311653Y-93236770D02*
X209383081Y-93236770D01*
X241311652Y-95812680D02*
X241311652Y-94212680D01*
X241311652Y-94212680D02*
X240740223Y-94212680D01*
X240740223Y-94212680D02*
X240597366Y-94288870D01*
X240597366Y-94288870D02*
X240525937Y-94365061D01*
X240525937Y-94365061D02*
X240454509Y-94517442D01*
X240454509Y-94517442D02*
X240454509Y-94746013D01*
X240454509Y-94746013D02*
X240525937Y-94898394D01*
X240525937Y-94898394D02*
X240597366Y-94974585D01*
X240597366Y-94974585D02*
X240740223Y-95050775D01*
X240740223Y-95050775D02*
X241311652Y-95050775D01*
X239811652Y-95812680D02*
X239811652Y-94212680D01*
X239811652Y-94974585D02*
X238954509Y-94974585D01*
X238954509Y-95812680D02*
X238954509Y-94212680D01*
X238311651Y-95355537D02*
X237597366Y-95355537D01*
X238454508Y-95812680D02*
X237954508Y-94212680D01*
X237954508Y-94212680D02*
X237454508Y-95812680D01*
X237025937Y-95736490D02*
X236811652Y-95812680D01*
X236811652Y-95812680D02*
X236454509Y-95812680D01*
X236454509Y-95812680D02*
X236311652Y-95736490D01*
X236311652Y-95736490D02*
X236240223Y-95660299D01*
X236240223Y-95660299D02*
X236168794Y-95507918D01*
X236168794Y-95507918D02*
X236168794Y-95355537D01*
X236168794Y-95355537D02*
X236240223Y-95203156D01*
X236240223Y-95203156D02*
X236311652Y-95126966D01*
X236311652Y-95126966D02*
X236454509Y-95050775D01*
X236454509Y-95050775D02*
X236740223Y-94974585D01*
X236740223Y-94974585D02*
X236883080Y-94898394D01*
X236883080Y-94898394D02*
X236954509Y-94822204D01*
X236954509Y-94822204D02*
X237025937Y-94669823D01*
X237025937Y-94669823D02*
X237025937Y-94517442D01*
X237025937Y-94517442D02*
X236954509Y-94365061D01*
X236954509Y-94365061D02*
X236883080Y-94288870D01*
X236883080Y-94288870D02*
X236740223Y-94212680D01*
X236740223Y-94212680D02*
X236383080Y-94212680D01*
X236383080Y-94212680D02*
X236168794Y-94288870D01*
X235525938Y-94974585D02*
X235025938Y-94974585D01*
X234811652Y-95812680D02*
X235525938Y-95812680D01*
X235525938Y-95812680D02*
X235525938Y-94212680D01*
X235525938Y-94212680D02*
X234811652Y-94212680D01*
X232525938Y-94974585D02*
X232311652Y-95050775D01*
X232311652Y-95050775D02*
X232240223Y-95126966D01*
X232240223Y-95126966D02*
X232168795Y-95279347D01*
X232168795Y-95279347D02*
X232168795Y-95507918D01*
X232168795Y-95507918D02*
X232240223Y-95660299D01*
X232240223Y-95660299D02*
X232311652Y-95736490D01*
X232311652Y-95736490D02*
X232454509Y-95812680D01*
X232454509Y-95812680D02*
X233025938Y-95812680D01*
X233025938Y-95812680D02*
X233025938Y-94212680D01*
X233025938Y-94212680D02*
X232525938Y-94212680D01*
X232525938Y-94212680D02*
X232383081Y-94288870D01*
X232383081Y-94288870D02*
X232311652Y-94365061D01*
X232311652Y-94365061D02*
X232240223Y-94517442D01*
X232240223Y-94517442D02*
X232240223Y-94669823D01*
X232240223Y-94669823D02*
X232311652Y-94822204D01*
X232311652Y-94822204D02*
X232383081Y-94898394D01*
X232383081Y-94898394D02*
X232525938Y-94974585D01*
X232525938Y-94974585D02*
X233025938Y-94974585D01*
X230383081Y-95203156D02*
X229240224Y-95203156D01*
X226525938Y-95660299D02*
X226597366Y-95736490D01*
X226597366Y-95736490D02*
X226811652Y-95812680D01*
X226811652Y-95812680D02*
X226954509Y-95812680D01*
X226954509Y-95812680D02*
X227168795Y-95736490D01*
X227168795Y-95736490D02*
X227311652Y-95584109D01*
X227311652Y-95584109D02*
X227383081Y-95431728D01*
X227383081Y-95431728D02*
X227454509Y-95126966D01*
X227454509Y-95126966D02*
X227454509Y-94898394D01*
X227454509Y-94898394D02*
X227383081Y-94593632D01*
X227383081Y-94593632D02*
X227311652Y-94441251D01*
X227311652Y-94441251D02*
X227168795Y-94288870D01*
X227168795Y-94288870D02*
X226954509Y-94212680D01*
X226954509Y-94212680D02*
X226811652Y-94212680D01*
X226811652Y-94212680D02*
X226597366Y-94288870D01*
X226597366Y-94288870D02*
X226525938Y-94365061D01*
X225954509Y-95355537D02*
X225240224Y-95355537D01*
X226097366Y-95812680D02*
X225597366Y-94212680D01*
X225597366Y-94212680D02*
X225097366Y-95812680D01*
X224597367Y-95812680D02*
X224597367Y-94212680D01*
X224597367Y-94212680D02*
X224097367Y-95355537D01*
X224097367Y-95355537D02*
X223597367Y-94212680D01*
X223597367Y-94212680D02*
X223597367Y-95812680D01*
X223240224Y-95965061D02*
X222097366Y-95965061D01*
X221740224Y-95812680D02*
X221740224Y-94212680D01*
X221740224Y-94212680D02*
X221383081Y-94212680D01*
X221383081Y-94212680D02*
X221168795Y-94288870D01*
X221168795Y-94288870D02*
X221025938Y-94441251D01*
X221025938Y-94441251D02*
X220954509Y-94593632D01*
X220954509Y-94593632D02*
X220883081Y-94898394D01*
X220883081Y-94898394D02*
X220883081Y-95126966D01*
X220883081Y-95126966D02*
X220954509Y-95431728D01*
X220954509Y-95431728D02*
X221025938Y-95584109D01*
X221025938Y-95584109D02*
X221168795Y-95736490D01*
X221168795Y-95736490D02*
X221383081Y-95812680D01*
X221383081Y-95812680D02*
X221740224Y-95812680D01*
X219597367Y-94746013D02*
X219597367Y-95812680D01*
X219954509Y-94136490D02*
X220311652Y-95279347D01*
X220311652Y-95279347D02*
X219383081Y-95279347D01*
X217668796Y-95203156D02*
X216525939Y-95203156D01*
X214668796Y-95812680D02*
X214668796Y-94212680D01*
X214668796Y-94212680D02*
X214097367Y-94212680D01*
X214097367Y-94212680D02*
X213954510Y-94288870D01*
X213954510Y-94288870D02*
X213883081Y-94365061D01*
X213883081Y-94365061D02*
X213811653Y-94517442D01*
X213811653Y-94517442D02*
X213811653Y-94746013D01*
X213811653Y-94746013D02*
X213883081Y-94898394D01*
X213883081Y-94898394D02*
X213954510Y-94974585D01*
X213954510Y-94974585D02*
X214097367Y-95050775D01*
X214097367Y-95050775D02*
X214668796Y-95050775D01*
X213168796Y-95812680D02*
X213168796Y-94212680D01*
X213168796Y-94974585D02*
X212311653Y-94974585D01*
X212311653Y-95812680D02*
X212311653Y-94212680D01*
X210811652Y-95812680D02*
X211668795Y-95812680D01*
X211240224Y-95812680D02*
X211240224Y-94212680D01*
X211240224Y-94212680D02*
X211383081Y-94441251D01*
X211383081Y-94441251D02*
X211525938Y-94593632D01*
X211525938Y-94593632D02*
X211668795Y-94669823D01*
X209525939Y-94746013D02*
X209525939Y-95812680D01*
X209883081Y-94136490D02*
X210240224Y-95279347D01*
X210240224Y-95279347D02*
X209311653Y-95279347D01*
X238954509Y-98388590D02*
X238954509Y-96788590D01*
X238954509Y-96788590D02*
X238383080Y-96788590D01*
X238383080Y-96788590D02*
X238240223Y-96864780D01*
X238240223Y-96864780D02*
X238168794Y-96940971D01*
X238168794Y-96940971D02*
X238097366Y-97093352D01*
X238097366Y-97093352D02*
X238097366Y-97321923D01*
X238097366Y-97321923D02*
X238168794Y-97474304D01*
X238168794Y-97474304D02*
X238240223Y-97550495D01*
X238240223Y-97550495D02*
X238383080Y-97626685D01*
X238383080Y-97626685D02*
X238954509Y-97626685D01*
X237454509Y-98388590D02*
X237454509Y-96788590D01*
X237454509Y-97550495D02*
X236597366Y-97550495D01*
X236597366Y-98388590D02*
X236597366Y-96788590D01*
X235954508Y-97931447D02*
X235240223Y-97931447D01*
X236097365Y-98388590D02*
X235597365Y-96788590D01*
X235597365Y-96788590D02*
X235097365Y-98388590D01*
X234668794Y-98312400D02*
X234454509Y-98388590D01*
X234454509Y-98388590D02*
X234097366Y-98388590D01*
X234097366Y-98388590D02*
X233954509Y-98312400D01*
X233954509Y-98312400D02*
X233883080Y-98236209D01*
X233883080Y-98236209D02*
X233811651Y-98083828D01*
X233811651Y-98083828D02*
X233811651Y-97931447D01*
X233811651Y-97931447D02*
X233883080Y-97779066D01*
X233883080Y-97779066D02*
X233954509Y-97702876D01*
X233954509Y-97702876D02*
X234097366Y-97626685D01*
X234097366Y-97626685D02*
X234383080Y-97550495D01*
X234383080Y-97550495D02*
X234525937Y-97474304D01*
X234525937Y-97474304D02*
X234597366Y-97398114D01*
X234597366Y-97398114D02*
X234668794Y-97245733D01*
X234668794Y-97245733D02*
X234668794Y-97093352D01*
X234668794Y-97093352D02*
X234597366Y-96940971D01*
X234597366Y-96940971D02*
X234525937Y-96864780D01*
X234525937Y-96864780D02*
X234383080Y-96788590D01*
X234383080Y-96788590D02*
X234025937Y-96788590D01*
X234025937Y-96788590D02*
X233811651Y-96864780D01*
X233168795Y-97550495D02*
X232668795Y-97550495D01*
X232454509Y-98388590D02*
X233168795Y-98388590D01*
X233168795Y-98388590D02*
X233168795Y-96788590D01*
X233168795Y-96788590D02*
X232454509Y-96788590D01*
X230811652Y-96788590D02*
X229811652Y-96788590D01*
X229811652Y-96788590D02*
X230811652Y-98388590D01*
X230811652Y-98388590D02*
X229811652Y-98388590D01*
X228097367Y-97779066D02*
X226954510Y-97779066D01*
X224240224Y-98236209D02*
X224311652Y-98312400D01*
X224311652Y-98312400D02*
X224525938Y-98388590D01*
X224525938Y-98388590D02*
X224668795Y-98388590D01*
X224668795Y-98388590D02*
X224883081Y-98312400D01*
X224883081Y-98312400D02*
X225025938Y-98160019D01*
X225025938Y-98160019D02*
X225097367Y-98007638D01*
X225097367Y-98007638D02*
X225168795Y-97702876D01*
X225168795Y-97702876D02*
X225168795Y-97474304D01*
X225168795Y-97474304D02*
X225097367Y-97169542D01*
X225097367Y-97169542D02*
X225025938Y-97017161D01*
X225025938Y-97017161D02*
X224883081Y-96864780D01*
X224883081Y-96864780D02*
X224668795Y-96788590D01*
X224668795Y-96788590D02*
X224525938Y-96788590D01*
X224525938Y-96788590D02*
X224311652Y-96864780D01*
X224311652Y-96864780D02*
X224240224Y-96940971D01*
X223668795Y-97931447D02*
X222954510Y-97931447D01*
X223811652Y-98388590D02*
X223311652Y-96788590D01*
X223311652Y-96788590D02*
X222811652Y-98388590D01*
X222311653Y-98388590D02*
X222311653Y-96788590D01*
X222311653Y-96788590D02*
X221811653Y-97931447D01*
X221811653Y-97931447D02*
X221311653Y-96788590D01*
X221311653Y-96788590D02*
X221311653Y-98388590D01*
X220954510Y-98540971D02*
X219811652Y-98540971D01*
X219454510Y-98388590D02*
X219454510Y-96788590D01*
X219454510Y-96788590D02*
X219097367Y-96788590D01*
X219097367Y-96788590D02*
X218883081Y-96864780D01*
X218883081Y-96864780D02*
X218740224Y-97017161D01*
X218740224Y-97017161D02*
X218668795Y-97169542D01*
X218668795Y-97169542D02*
X218597367Y-97474304D01*
X218597367Y-97474304D02*
X218597367Y-97702876D01*
X218597367Y-97702876D02*
X218668795Y-98007638D01*
X218668795Y-98007638D02*
X218740224Y-98160019D01*
X218740224Y-98160019D02*
X218883081Y-98312400D01*
X218883081Y-98312400D02*
X219097367Y-98388590D01*
X219097367Y-98388590D02*
X219454510Y-98388590D01*
X217240224Y-96788590D02*
X217954510Y-96788590D01*
X217954510Y-96788590D02*
X218025938Y-97550495D01*
X218025938Y-97550495D02*
X217954510Y-97474304D01*
X217954510Y-97474304D02*
X217811653Y-97398114D01*
X217811653Y-97398114D02*
X217454510Y-97398114D01*
X217454510Y-97398114D02*
X217311653Y-97474304D01*
X217311653Y-97474304D02*
X217240224Y-97550495D01*
X217240224Y-97550495D02*
X217168795Y-97702876D01*
X217168795Y-97702876D02*
X217168795Y-98083828D01*
X217168795Y-98083828D02*
X217240224Y-98236209D01*
X217240224Y-98236209D02*
X217311653Y-98312400D01*
X217311653Y-98312400D02*
X217454510Y-98388590D01*
X217454510Y-98388590D02*
X217811653Y-98388590D01*
X217811653Y-98388590D02*
X217954510Y-98312400D01*
X217954510Y-98312400D02*
X218025938Y-98236209D01*
X215383082Y-97779066D02*
X214240225Y-97779066D01*
X212383082Y-98388590D02*
X212383082Y-96788590D01*
X212383082Y-96788590D02*
X211811653Y-96788590D01*
X211811653Y-96788590D02*
X211668796Y-96864780D01*
X211668796Y-96864780D02*
X211597367Y-96940971D01*
X211597367Y-96940971D02*
X211525939Y-97093352D01*
X211525939Y-97093352D02*
X211525939Y-97321923D01*
X211525939Y-97321923D02*
X211597367Y-97474304D01*
X211597367Y-97474304D02*
X211668796Y-97550495D01*
X211668796Y-97550495D02*
X211811653Y-97626685D01*
X211811653Y-97626685D02*
X212383082Y-97626685D01*
X210883082Y-98388590D02*
X210883082Y-96788590D01*
X209525939Y-97321923D02*
X209525939Y-98388590D01*
X209883081Y-96712400D02*
X210240224Y-97855257D01*
X210240224Y-97855257D02*
X209311653Y-97855257D01*
X232537050Y-65674060D02*
X232460860Y-65531203D01*
X232460860Y-65531203D02*
X232460860Y-65316917D01*
X232460860Y-65316917D02*
X232537050Y-65102631D01*
X232537050Y-65102631D02*
X232689431Y-64959774D01*
X232689431Y-64959774D02*
X232841812Y-64888345D01*
X232841812Y-64888345D02*
X233146574Y-64816917D01*
X233146574Y-64816917D02*
X233375146Y-64816917D01*
X233375146Y-64816917D02*
X233679908Y-64888345D01*
X233679908Y-64888345D02*
X233832289Y-64959774D01*
X233832289Y-64959774D02*
X233984670Y-65102631D01*
X233984670Y-65102631D02*
X234060860Y-65316917D01*
X234060860Y-65316917D02*
X234060860Y-65459774D01*
X234060860Y-65459774D02*
X233984670Y-65674060D01*
X233984670Y-65674060D02*
X233908479Y-65745488D01*
X233908479Y-65745488D02*
X233375146Y-65745488D01*
X233375146Y-65745488D02*
X233375146Y-65459774D01*
X234060860Y-66388345D02*
X232460860Y-66388345D01*
X232460860Y-66388345D02*
X234060860Y-67245488D01*
X234060860Y-67245488D02*
X232460860Y-67245488D01*
X234060860Y-67959774D02*
X232460860Y-67959774D01*
X232460860Y-67959774D02*
X232460860Y-68316917D01*
X232460860Y-68316917D02*
X232537050Y-68531203D01*
X232537050Y-68531203D02*
X232689431Y-68674060D01*
X232689431Y-68674060D02*
X232841812Y-68745489D01*
X232841812Y-68745489D02*
X233146574Y-68816917D01*
X233146574Y-68816917D02*
X233375146Y-68816917D01*
X233375146Y-68816917D02*
X233679908Y-68745489D01*
X233679908Y-68745489D02*
X233832289Y-68674060D01*
X233832289Y-68674060D02*
X233984670Y-68531203D01*
X233984670Y-68531203D02*
X234060860Y-68316917D01*
X234060860Y-68316917D02*
X234060860Y-67959774D01*
X235189151Y-65245490D02*
X235112960Y-65316918D01*
X235112960Y-65316918D02*
X235036770Y-65459776D01*
X235036770Y-65459776D02*
X235036770Y-65816918D01*
X235036770Y-65816918D02*
X235112960Y-65959776D01*
X235112960Y-65959776D02*
X235189151Y-66031204D01*
X235189151Y-66031204D02*
X235341532Y-66102633D01*
X235341532Y-66102633D02*
X235493913Y-66102633D01*
X235493913Y-66102633D02*
X235722484Y-66031204D01*
X235722484Y-66031204D02*
X236636770Y-65174061D01*
X236636770Y-65174061D02*
X236636770Y-66102633D01*
X235570103Y-67388347D02*
X236636770Y-67388347D01*
X234960580Y-67031204D02*
X236103437Y-66674061D01*
X236103437Y-66674061D02*
X236103437Y-67602632D01*
X235036770Y-67959775D02*
X236636770Y-68459775D01*
X236636770Y-68459775D02*
X235036770Y-68959775D01*
X237612680Y-61459775D02*
X238907918Y-61459775D01*
X238907918Y-61459775D02*
X239060299Y-61531204D01*
X239060299Y-61531204D02*
X239136490Y-61602633D01*
X239136490Y-61602633D02*
X239212680Y-61745490D01*
X239212680Y-61745490D02*
X239212680Y-62031204D01*
X239212680Y-62031204D02*
X239136490Y-62174061D01*
X239136490Y-62174061D02*
X239060299Y-62245490D01*
X239060299Y-62245490D02*
X238907918Y-62316918D01*
X238907918Y-62316918D02*
X237612680Y-62316918D01*
X237612680Y-62816919D02*
X237612680Y-63674062D01*
X239212680Y-63245490D02*
X237612680Y-63245490D01*
X239212680Y-64959776D02*
X239212680Y-64102633D01*
X239212680Y-64531204D02*
X237612680Y-64531204D01*
X237612680Y-64531204D02*
X237841251Y-64388347D01*
X237841251Y-64388347D02*
X237993632Y-64245490D01*
X237993632Y-64245490D02*
X238069823Y-64102633D01*
X239365061Y-65245490D02*
X239365061Y-66388347D01*
X238755537Y-66674061D02*
X238755537Y-67388347D01*
X239212680Y-66531204D02*
X237612680Y-67031204D01*
X237612680Y-67031204D02*
X239212680Y-67531204D01*
X237765061Y-67959775D02*
X237688870Y-68031203D01*
X237688870Y-68031203D02*
X237612680Y-68174061D01*
X237612680Y-68174061D02*
X237612680Y-68531203D01*
X237612680Y-68531203D02*
X237688870Y-68674061D01*
X237688870Y-68674061D02*
X237765061Y-68745489D01*
X237765061Y-68745489D02*
X237917442Y-68816918D01*
X237917442Y-68816918D02*
X238069823Y-68816918D01*
X238069823Y-68816918D02*
X238298394Y-68745489D01*
X238298394Y-68745489D02*
X239212680Y-67888346D01*
X239212680Y-67888346D02*
X239212680Y-68816918D01*
X240340971Y-65245490D02*
X240264780Y-65316918D01*
X240264780Y-65316918D02*
X240188590Y-65459776D01*
X240188590Y-65459776D02*
X240188590Y-65816918D01*
X240188590Y-65816918D02*
X240264780Y-65959776D01*
X240264780Y-65959776D02*
X240340971Y-66031204D01*
X240340971Y-66031204D02*
X240493352Y-66102633D01*
X240493352Y-66102633D02*
X240645733Y-66102633D01*
X240645733Y-66102633D02*
X240874304Y-66031204D01*
X240874304Y-66031204D02*
X241788590Y-65174061D01*
X241788590Y-65174061D02*
X241788590Y-66102633D01*
X240721923Y-67388347D02*
X241788590Y-67388347D01*
X240112400Y-67031204D02*
X241255257Y-66674061D01*
X241255257Y-66674061D02*
X241255257Y-67602632D01*
X240188590Y-67959775D02*
X241788590Y-68459775D01*
X241788590Y-68459775D02*
X240188590Y-68959775D01*
X256840224Y-82184950D02*
X257554510Y-82184950D01*
X257554510Y-82184950D02*
X257625938Y-82946855D01*
X257625938Y-82946855D02*
X257554510Y-82870664D01*
X257554510Y-82870664D02*
X257411653Y-82794474D01*
X257411653Y-82794474D02*
X257054510Y-82794474D01*
X257054510Y-82794474D02*
X256911653Y-82870664D01*
X256911653Y-82870664D02*
X256840224Y-82946855D01*
X256840224Y-82946855D02*
X256768795Y-83099236D01*
X256768795Y-83099236D02*
X256768795Y-83480188D01*
X256768795Y-83480188D02*
X256840224Y-83632569D01*
X256840224Y-83632569D02*
X256911653Y-83708760D01*
X256911653Y-83708760D02*
X257054510Y-83784950D01*
X257054510Y-83784950D02*
X257411653Y-83784950D01*
X257411653Y-83784950D02*
X257554510Y-83708760D01*
X257554510Y-83708760D02*
X257625938Y-83632569D01*
X256340224Y-82184950D02*
X255840224Y-83784950D01*
X255840224Y-83784950D02*
X255340224Y-82184950D01*
X256197367Y-85903717D02*
X255483082Y-85903717D01*
X256340224Y-86360860D02*
X255840224Y-84760860D01*
X255840224Y-84760860D02*
X255340224Y-86360860D01*
X255840225Y-88098675D02*
X255625939Y-88174865D01*
X255625939Y-88174865D02*
X255554510Y-88251056D01*
X255554510Y-88251056D02*
X255483082Y-88403437D01*
X255483082Y-88403437D02*
X255483082Y-88632008D01*
X255483082Y-88632008D02*
X255554510Y-88784389D01*
X255554510Y-88784389D02*
X255625939Y-88860580D01*
X255625939Y-88860580D02*
X255768796Y-88936770D01*
X255768796Y-88936770D02*
X256340225Y-88936770D01*
X256340225Y-88936770D02*
X256340225Y-87336770D01*
X256340225Y-87336770D02*
X255840225Y-87336770D01*
X255840225Y-87336770D02*
X255697368Y-87412960D01*
X255697368Y-87412960D02*
X255625939Y-87489151D01*
X255625939Y-87489151D02*
X255554510Y-87641532D01*
X255554510Y-87641532D02*
X255554510Y-87793913D01*
X255554510Y-87793913D02*
X255625939Y-87946294D01*
X255625939Y-87946294D02*
X255697368Y-88022484D01*
X255697368Y-88022484D02*
X255840225Y-88098675D01*
X255840225Y-88098675D02*
X256340225Y-88098675D01*
X256411653Y-89912680D02*
X255411653Y-89912680D01*
X255411653Y-89912680D02*
X256411653Y-91512680D01*
X256411653Y-91512680D02*
X255411653Y-91512680D01*
X258625939Y-92564780D02*
X258768797Y-92488590D01*
X258768797Y-92488590D02*
X258983082Y-92488590D01*
X258983082Y-92488590D02*
X259197368Y-92564780D01*
X259197368Y-92564780D02*
X259340225Y-92717161D01*
X259340225Y-92717161D02*
X259411654Y-92869542D01*
X259411654Y-92869542D02*
X259483082Y-93174304D01*
X259483082Y-93174304D02*
X259483082Y-93402876D01*
X259483082Y-93402876D02*
X259411654Y-93707638D01*
X259411654Y-93707638D02*
X259340225Y-93860019D01*
X259340225Y-93860019D02*
X259197368Y-94012400D01*
X259197368Y-94012400D02*
X258983082Y-94088590D01*
X258983082Y-94088590D02*
X258840225Y-94088590D01*
X258840225Y-94088590D02*
X258625939Y-94012400D01*
X258625939Y-94012400D02*
X258554511Y-93936209D01*
X258554511Y-93936209D02*
X258554511Y-93402876D01*
X258554511Y-93402876D02*
X258840225Y-93402876D01*
X257911654Y-94088590D02*
X257911654Y-92488590D01*
X257911654Y-92488590D02*
X257054511Y-94088590D01*
X257054511Y-94088590D02*
X257054511Y-92488590D01*
X256340225Y-94088590D02*
X256340225Y-92488590D01*
X256340225Y-92488590D02*
X255983082Y-92488590D01*
X255983082Y-92488590D02*
X255768796Y-92564780D01*
X255768796Y-92564780D02*
X255625939Y-92717161D01*
X255625939Y-92717161D02*
X255554510Y-92869542D01*
X255554510Y-92869542D02*
X255483082Y-93174304D01*
X255483082Y-93174304D02*
X255483082Y-93402876D01*
X255483082Y-93402876D02*
X255554510Y-93707638D01*
X255554510Y-93707638D02*
X255625939Y-93860019D01*
X255625939Y-93860019D02*
X255768796Y-94012400D01*
X255768796Y-94012400D02*
X255983082Y-94088590D01*
X255983082Y-94088590D02*
X256340225Y-94088590D01*
X199313241Y-65245490D02*
X199237050Y-65316918D01*
X199237050Y-65316918D02*
X199160860Y-65459776D01*
X199160860Y-65459776D02*
X199160860Y-65816918D01*
X199160860Y-65816918D02*
X199237050Y-65959776D01*
X199237050Y-65959776D02*
X199313241Y-66031204D01*
X199313241Y-66031204D02*
X199465622Y-66102633D01*
X199465622Y-66102633D02*
X199618003Y-66102633D01*
X199618003Y-66102633D02*
X199846574Y-66031204D01*
X199846574Y-66031204D02*
X200760860Y-65174061D01*
X200760860Y-65174061D02*
X200760860Y-66102633D01*
X199694193Y-67388347D02*
X200760860Y-67388347D01*
X199084670Y-67031204D02*
X200227527Y-66674061D01*
X200227527Y-66674061D02*
X200227527Y-67602632D01*
X199160860Y-67959775D02*
X200760860Y-68459775D01*
X200760860Y-68459775D02*
X199160860Y-68959775D01*
X203336770Y-65959774D02*
X202574865Y-65459774D01*
X203336770Y-65102631D02*
X201736770Y-65102631D01*
X201736770Y-65102631D02*
X201736770Y-65674060D01*
X201736770Y-65674060D02*
X201812960Y-65816917D01*
X201812960Y-65816917D02*
X201889151Y-65888346D01*
X201889151Y-65888346D02*
X202041532Y-65959774D01*
X202041532Y-65959774D02*
X202270103Y-65959774D01*
X202270103Y-65959774D02*
X202422484Y-65888346D01*
X202422484Y-65888346D02*
X202498675Y-65816917D01*
X202498675Y-65816917D02*
X202574865Y-65674060D01*
X202574865Y-65674060D02*
X202574865Y-65102631D01*
X202498675Y-66602631D02*
X202498675Y-67102631D01*
X203336770Y-67316917D02*
X203336770Y-66602631D01*
X203336770Y-66602631D02*
X201736770Y-66602631D01*
X201736770Y-66602631D02*
X201736770Y-67316917D01*
X203336770Y-67959774D02*
X201736770Y-67959774D01*
X201736770Y-67959774D02*
X201736770Y-68316917D01*
X201736770Y-68316917D02*
X201812960Y-68531203D01*
X201812960Y-68531203D02*
X201965341Y-68674060D01*
X201965341Y-68674060D02*
X202117722Y-68745489D01*
X202117722Y-68745489D02*
X202422484Y-68816917D01*
X202422484Y-68816917D02*
X202651056Y-68816917D01*
X202651056Y-68816917D02*
X202955818Y-68745489D01*
X202955818Y-68745489D02*
X203108199Y-68674060D01*
X203108199Y-68674060D02*
X203260580Y-68531203D01*
X203260580Y-68531203D02*
X203336770Y-68316917D01*
X203336770Y-68316917D02*
X203336770Y-67959774D01*
X205150775Y-61388345D02*
X205912680Y-61388345D01*
X204312680Y-60888345D02*
X205150775Y-61388345D01*
X205150775Y-61388345D02*
X204312680Y-61888345D01*
X205074585Y-62388344D02*
X205074585Y-62888344D01*
X205912680Y-63102630D02*
X205912680Y-62388344D01*
X205912680Y-62388344D02*
X204312680Y-62388344D01*
X204312680Y-62388344D02*
X204312680Y-63102630D01*
X205912680Y-64459773D02*
X205912680Y-63745487D01*
X205912680Y-63745487D02*
X204312680Y-63745487D01*
X205912680Y-65674059D02*
X205912680Y-64959773D01*
X205912680Y-64959773D02*
X204312680Y-64959773D01*
X204312680Y-66459774D02*
X204312680Y-66745488D01*
X204312680Y-66745488D02*
X204388870Y-66888345D01*
X204388870Y-66888345D02*
X204541251Y-67031202D01*
X204541251Y-67031202D02*
X204846013Y-67102631D01*
X204846013Y-67102631D02*
X205379347Y-67102631D01*
X205379347Y-67102631D02*
X205684109Y-67031202D01*
X205684109Y-67031202D02*
X205836490Y-66888345D01*
X205836490Y-66888345D02*
X205912680Y-66745488D01*
X205912680Y-66745488D02*
X205912680Y-66459774D01*
X205912680Y-66459774D02*
X205836490Y-66316917D01*
X205836490Y-66316917D02*
X205684109Y-66174059D01*
X205684109Y-66174059D02*
X205379347Y-66102631D01*
X205379347Y-66102631D02*
X204846013Y-66102631D01*
X204846013Y-66102631D02*
X204541251Y-66174059D01*
X204541251Y-66174059D02*
X204388870Y-66316917D01*
X204388870Y-66316917D02*
X204312680Y-66459774D01*
X204312680Y-67602631D02*
X205912680Y-67959774D01*
X205912680Y-67959774D02*
X204769823Y-68245488D01*
X204769823Y-68245488D02*
X205912680Y-68531203D01*
X205912680Y-68531203D02*
X204312680Y-68888346D01*
X206964780Y-62959774D02*
X206888590Y-62816917D01*
X206888590Y-62816917D02*
X206888590Y-62602631D01*
X206888590Y-62602631D02*
X206964780Y-62388345D01*
X206964780Y-62388345D02*
X207117161Y-62245488D01*
X207117161Y-62245488D02*
X207269542Y-62174059D01*
X207269542Y-62174059D02*
X207574304Y-62102631D01*
X207574304Y-62102631D02*
X207802876Y-62102631D01*
X207802876Y-62102631D02*
X208107638Y-62174059D01*
X208107638Y-62174059D02*
X208260019Y-62245488D01*
X208260019Y-62245488D02*
X208412400Y-62388345D01*
X208412400Y-62388345D02*
X208488590Y-62602631D01*
X208488590Y-62602631D02*
X208488590Y-62745488D01*
X208488590Y-62745488D02*
X208412400Y-62959774D01*
X208412400Y-62959774D02*
X208336209Y-63031202D01*
X208336209Y-63031202D02*
X207802876Y-63031202D01*
X207802876Y-63031202D02*
X207802876Y-62745488D01*
X208488590Y-64531202D02*
X207726685Y-64031202D01*
X208488590Y-63674059D02*
X206888590Y-63674059D01*
X206888590Y-63674059D02*
X206888590Y-64245488D01*
X206888590Y-64245488D02*
X206964780Y-64388345D01*
X206964780Y-64388345D02*
X207040971Y-64459774D01*
X207040971Y-64459774D02*
X207193352Y-64531202D01*
X207193352Y-64531202D02*
X207421923Y-64531202D01*
X207421923Y-64531202D02*
X207574304Y-64459774D01*
X207574304Y-64459774D02*
X207650495Y-64388345D01*
X207650495Y-64388345D02*
X207726685Y-64245488D01*
X207726685Y-64245488D02*
X207726685Y-63674059D01*
X207650495Y-65174059D02*
X207650495Y-65674059D01*
X208488590Y-65888345D02*
X208488590Y-65174059D01*
X208488590Y-65174059D02*
X206888590Y-65174059D01*
X206888590Y-65174059D02*
X206888590Y-65888345D01*
X207650495Y-66531202D02*
X207650495Y-67031202D01*
X208488590Y-67245488D02*
X208488590Y-66531202D01*
X208488590Y-66531202D02*
X206888590Y-66531202D01*
X206888590Y-66531202D02*
X206888590Y-67245488D01*
X208488590Y-67888345D02*
X206888590Y-67888345D01*
X206888590Y-67888345D02*
X208488590Y-68745488D01*
X208488590Y-68745488D02*
X206888590Y-68745488D01*
X128590679Y-71059774D02*
X128666869Y-71202632D01*
X128666869Y-71202632D02*
X128666869Y-71416917D01*
X128666869Y-71416917D02*
X128590679Y-71631203D01*
X128590679Y-71631203D02*
X128438298Y-71774060D01*
X128438298Y-71774060D02*
X128285917Y-71845489D01*
X128285917Y-71845489D02*
X127981155Y-71916917D01*
X127981155Y-71916917D02*
X127752583Y-71916917D01*
X127752583Y-71916917D02*
X127447821Y-71845489D01*
X127447821Y-71845489D02*
X127295440Y-71774060D01*
X127295440Y-71774060D02*
X127143060Y-71631203D01*
X127143060Y-71631203D02*
X127066869Y-71416917D01*
X127066869Y-71416917D02*
X127066869Y-71274060D01*
X127066869Y-71274060D02*
X127143060Y-71059774D01*
X127143060Y-71059774D02*
X127219250Y-70988346D01*
X127219250Y-70988346D02*
X127752583Y-70988346D01*
X127752583Y-70988346D02*
X127752583Y-71274060D01*
X127066869Y-70345489D02*
X128666869Y-70345489D01*
X128666869Y-70345489D02*
X127066869Y-69488346D01*
X127066869Y-69488346D02*
X128666869Y-69488346D01*
X127066869Y-68774060D02*
X128666869Y-68774060D01*
X128666869Y-68774060D02*
X128666869Y-68416917D01*
X128666869Y-68416917D02*
X128590679Y-68202631D01*
X128590679Y-68202631D02*
X128438298Y-68059774D01*
X128438298Y-68059774D02*
X128285917Y-67988345D01*
X128285917Y-67988345D02*
X127981155Y-67916917D01*
X127981155Y-67916917D02*
X127752583Y-67916917D01*
X127752583Y-67916917D02*
X127447821Y-67988345D01*
X127447821Y-67988345D02*
X127295440Y-68059774D01*
X127295440Y-68059774D02*
X127143060Y-68202631D01*
X127143060Y-68202631D02*
X127066869Y-68416917D01*
X127066869Y-68416917D02*
X127066869Y-68774060D01*
X123515049Y-71988346D02*
X123515049Y-71059774D01*
X123515049Y-71059774D02*
X122905525Y-71559774D01*
X122905525Y-71559774D02*
X122905525Y-71345489D01*
X122905525Y-71345489D02*
X122829335Y-71202632D01*
X122829335Y-71202632D02*
X122753144Y-71131203D01*
X122753144Y-71131203D02*
X122600763Y-71059774D01*
X122600763Y-71059774D02*
X122219811Y-71059774D01*
X122219811Y-71059774D02*
X122067430Y-71131203D01*
X122067430Y-71131203D02*
X121991240Y-71202632D01*
X121991240Y-71202632D02*
X121915049Y-71345489D01*
X121915049Y-71345489D02*
X121915049Y-71774060D01*
X121915049Y-71774060D02*
X121991240Y-71916917D01*
X121991240Y-71916917D02*
X122067430Y-71988346D01*
X122067430Y-70416918D02*
X121991240Y-70345489D01*
X121991240Y-70345489D02*
X121915049Y-70416918D01*
X121915049Y-70416918D02*
X121991240Y-70488346D01*
X121991240Y-70488346D02*
X122067430Y-70416918D01*
X122067430Y-70416918D02*
X121915049Y-70416918D01*
X123515049Y-69845489D02*
X123515049Y-68916917D01*
X123515049Y-68916917D02*
X122905525Y-69416917D01*
X122905525Y-69416917D02*
X122905525Y-69202632D01*
X122905525Y-69202632D02*
X122829335Y-69059775D01*
X122829335Y-69059775D02*
X122753144Y-68988346D01*
X122753144Y-68988346D02*
X122600763Y-68916917D01*
X122600763Y-68916917D02*
X122219811Y-68916917D01*
X122219811Y-68916917D02*
X122067430Y-68988346D01*
X122067430Y-68988346D02*
X121991240Y-69059775D01*
X121991240Y-69059775D02*
X121915049Y-69202632D01*
X121915049Y-69202632D02*
X121915049Y-69631203D01*
X121915049Y-69631203D02*
X121991240Y-69774060D01*
X121991240Y-69774060D02*
X122067430Y-69845489D01*
X123515049Y-68488346D02*
X121915049Y-67988346D01*
X121915049Y-67988346D02*
X123515049Y-67488346D01*
X118363229Y-71131203D02*
X118363229Y-71845489D01*
X118363229Y-71845489D02*
X117601324Y-71916917D01*
X117601324Y-71916917D02*
X117677515Y-71845489D01*
X117677515Y-71845489D02*
X117753705Y-71702632D01*
X117753705Y-71702632D02*
X117753705Y-71345489D01*
X117753705Y-71345489D02*
X117677515Y-71202632D01*
X117677515Y-71202632D02*
X117601324Y-71131203D01*
X117601324Y-71131203D02*
X117448943Y-71059774D01*
X117448943Y-71059774D02*
X117067991Y-71059774D01*
X117067991Y-71059774D02*
X116915610Y-71131203D01*
X116915610Y-71131203D02*
X116839420Y-71202632D01*
X116839420Y-71202632D02*
X116763229Y-71345489D01*
X116763229Y-71345489D02*
X116763229Y-71702632D01*
X116763229Y-71702632D02*
X116839420Y-71845489D01*
X116839420Y-71845489D02*
X116915610Y-71916917D01*
X118363229Y-70631203D02*
X116763229Y-70131203D01*
X116763229Y-70131203D02*
X118363229Y-69631203D01*
X113059028Y-71916917D02*
X113135219Y-71845489D01*
X113135219Y-71845489D02*
X113211409Y-71702632D01*
X113211409Y-71702632D02*
X113211409Y-71345489D01*
X113211409Y-71345489D02*
X113135219Y-71202632D01*
X113135219Y-71202632D02*
X113059028Y-71131203D01*
X113059028Y-71131203D02*
X112906647Y-71059774D01*
X112906647Y-71059774D02*
X112754266Y-71059774D01*
X112754266Y-71059774D02*
X112525695Y-71131203D01*
X112525695Y-71131203D02*
X111611409Y-71988346D01*
X111611409Y-71988346D02*
X111611409Y-71059774D01*
X112678076Y-69774061D02*
X111611409Y-69774061D01*
X113287600Y-70131203D02*
X112144742Y-70488346D01*
X112144742Y-70488346D02*
X112144742Y-69559775D01*
X113211409Y-69202632D02*
X111611409Y-68702632D01*
X111611409Y-68702632D02*
X113211409Y-68202632D01*
X60983082Y-84915978D02*
X61054510Y-84987406D01*
X61054510Y-84987406D02*
X61197368Y-85058835D01*
X61197368Y-85058835D02*
X61554510Y-85058835D01*
X61554510Y-85058835D02*
X61697368Y-84987406D01*
X61697368Y-84987406D02*
X61768796Y-84915978D01*
X61768796Y-84915978D02*
X61840225Y-84773121D01*
X61840225Y-84773121D02*
X61840225Y-84630264D01*
X61840225Y-84630264D02*
X61768796Y-84415978D01*
X61768796Y-84415978D02*
X60911653Y-83558835D01*
X60911653Y-83558835D02*
X61840225Y-83558835D01*
X62483081Y-83701692D02*
X62554510Y-83630264D01*
X62554510Y-83630264D02*
X62483081Y-83558835D01*
X62483081Y-83558835D02*
X62411653Y-83630264D01*
X62411653Y-83630264D02*
X62483081Y-83701692D01*
X62483081Y-83701692D02*
X62483081Y-83558835D01*
X64340224Y-84130264D02*
X65483082Y-84130264D01*
X64911653Y-83558835D02*
X64911653Y-84701692D01*
X66911653Y-85058835D02*
X66197367Y-85058835D01*
X66197367Y-85058835D02*
X66125939Y-84344549D01*
X66125939Y-84344549D02*
X66197367Y-84415978D01*
X66197367Y-84415978D02*
X66340225Y-84487406D01*
X66340225Y-84487406D02*
X66697367Y-84487406D01*
X66697367Y-84487406D02*
X66840225Y-84415978D01*
X66840225Y-84415978D02*
X66911653Y-84344549D01*
X66911653Y-84344549D02*
X66983082Y-84201692D01*
X66983082Y-84201692D02*
X66983082Y-83844549D01*
X66983082Y-83844549D02*
X66911653Y-83701692D01*
X66911653Y-83701692D02*
X66840225Y-83630264D01*
X66840225Y-83630264D02*
X66697367Y-83558835D01*
X66697367Y-83558835D02*
X66340225Y-83558835D01*
X66340225Y-83558835D02*
X66197367Y-83630264D01*
X66197367Y-83630264D02*
X66125939Y-83701692D01*
X67411653Y-85058835D02*
X67911653Y-83558835D01*
X67911653Y-83558835D02*
X68411653Y-85058835D01*
X69197367Y-85058835D02*
X69483081Y-85058835D01*
X69483081Y-85058835D02*
X69625938Y-84987406D01*
X69625938Y-84987406D02*
X69768795Y-84844549D01*
X69768795Y-84844549D02*
X69840224Y-84558835D01*
X69840224Y-84558835D02*
X69840224Y-84058835D01*
X69840224Y-84058835D02*
X69768795Y-83773121D01*
X69768795Y-83773121D02*
X69625938Y-83630264D01*
X69625938Y-83630264D02*
X69483081Y-83558835D01*
X69483081Y-83558835D02*
X69197367Y-83558835D01*
X69197367Y-83558835D02*
X69054510Y-83630264D01*
X69054510Y-83630264D02*
X68911652Y-83773121D01*
X68911652Y-83773121D02*
X68840224Y-84058835D01*
X68840224Y-84058835D02*
X68840224Y-84558835D01*
X68840224Y-84558835D02*
X68911652Y-84844549D01*
X68911652Y-84844549D02*
X69054510Y-84987406D01*
X69054510Y-84987406D02*
X69197367Y-85058835D01*
X70483081Y-85058835D02*
X70483081Y-83844549D01*
X70483081Y-83844549D02*
X70554510Y-83701692D01*
X70554510Y-83701692D02*
X70625939Y-83630264D01*
X70625939Y-83630264D02*
X70768796Y-83558835D01*
X70768796Y-83558835D02*
X71054510Y-83558835D01*
X71054510Y-83558835D02*
X71197367Y-83630264D01*
X71197367Y-83630264D02*
X71268796Y-83701692D01*
X71268796Y-83701692D02*
X71340224Y-83844549D01*
X71340224Y-83844549D02*
X71340224Y-85058835D01*
X71840225Y-85058835D02*
X72697368Y-85058835D01*
X72268796Y-83558835D02*
X72268796Y-85058835D01*
X76268796Y-83558835D02*
X75411653Y-83558835D01*
X75840224Y-83558835D02*
X75840224Y-85058835D01*
X75840224Y-85058835D02*
X75697367Y-84844549D01*
X75697367Y-84844549D02*
X75554510Y-84701692D01*
X75554510Y-84701692D02*
X75411653Y-84630264D01*
X76911652Y-83701692D02*
X76983081Y-83630264D01*
X76983081Y-83630264D02*
X76911652Y-83558835D01*
X76911652Y-83558835D02*
X76840224Y-83630264D01*
X76840224Y-83630264D02*
X76911652Y-83701692D01*
X76911652Y-83701692D02*
X76911652Y-83558835D01*
X79554510Y-84987406D02*
X79411653Y-85058835D01*
X79411653Y-85058835D02*
X79197367Y-85058835D01*
X79197367Y-85058835D02*
X78983081Y-84987406D01*
X78983081Y-84987406D02*
X78840224Y-84844549D01*
X78840224Y-84844549D02*
X78768795Y-84701692D01*
X78768795Y-84701692D02*
X78697367Y-84415978D01*
X78697367Y-84415978D02*
X78697367Y-84201692D01*
X78697367Y-84201692D02*
X78768795Y-83915978D01*
X78768795Y-83915978D02*
X78840224Y-83773121D01*
X78840224Y-83773121D02*
X78983081Y-83630264D01*
X78983081Y-83630264D02*
X79197367Y-83558835D01*
X79197367Y-83558835D02*
X79340224Y-83558835D01*
X79340224Y-83558835D02*
X79554510Y-83630264D01*
X79554510Y-83630264D02*
X79625938Y-83701692D01*
X79625938Y-83701692D02*
X79625938Y-84201692D01*
X79625938Y-84201692D02*
X79340224Y-84201692D01*
X80268795Y-83558835D02*
X80268795Y-85058835D01*
X80268795Y-85058835D02*
X81125938Y-83558835D01*
X81125938Y-83558835D02*
X81125938Y-85058835D01*
X81840224Y-83558835D02*
X81840224Y-85058835D01*
X81840224Y-85058835D02*
X82197367Y-85058835D01*
X82197367Y-85058835D02*
X82411653Y-84987406D01*
X82411653Y-84987406D02*
X82554510Y-84844549D01*
X82554510Y-84844549D02*
X82625939Y-84701692D01*
X82625939Y-84701692D02*
X82697367Y-84415978D01*
X82697367Y-84415978D02*
X82697367Y-84201692D01*
X82697367Y-84201692D02*
X82625939Y-83915978D01*
X82625939Y-83915978D02*
X82554510Y-83773121D01*
X82554510Y-83773121D02*
X82411653Y-83630264D01*
X82411653Y-83630264D02*
X82197367Y-83558835D01*
X82197367Y-83558835D02*
X81840224Y-83558835D01*
X61697368Y-82143919D02*
X61697368Y-81143919D01*
X61340225Y-82715348D02*
X60983082Y-81643919D01*
X60983082Y-81643919D02*
X61911653Y-81643919D01*
X62483081Y-81286776D02*
X62554510Y-81215348D01*
X62554510Y-81215348D02*
X62483081Y-81143919D01*
X62483081Y-81143919D02*
X62411653Y-81215348D01*
X62411653Y-81215348D02*
X62483081Y-81286776D01*
X62483081Y-81286776D02*
X62483081Y-81143919D01*
X64340224Y-81715348D02*
X65483082Y-81715348D01*
X64911653Y-81143919D02*
X64911653Y-82286776D01*
X66911653Y-82643919D02*
X66197367Y-82643919D01*
X66197367Y-82643919D02*
X66125939Y-81929633D01*
X66125939Y-81929633D02*
X66197367Y-82001062D01*
X66197367Y-82001062D02*
X66340225Y-82072490D01*
X66340225Y-82072490D02*
X66697367Y-82072490D01*
X66697367Y-82072490D02*
X66840225Y-82001062D01*
X66840225Y-82001062D02*
X66911653Y-81929633D01*
X66911653Y-81929633D02*
X66983082Y-81786776D01*
X66983082Y-81786776D02*
X66983082Y-81429633D01*
X66983082Y-81429633D02*
X66911653Y-81286776D01*
X66911653Y-81286776D02*
X66840225Y-81215348D01*
X66840225Y-81215348D02*
X66697367Y-81143919D01*
X66697367Y-81143919D02*
X66340225Y-81143919D01*
X66340225Y-81143919D02*
X66197367Y-81215348D01*
X66197367Y-81215348D02*
X66125939Y-81286776D01*
X67411653Y-82643919D02*
X67911653Y-81143919D01*
X67911653Y-81143919D02*
X68411653Y-82643919D01*
X69197367Y-82643919D02*
X69483081Y-82643919D01*
X69483081Y-82643919D02*
X69625938Y-82572490D01*
X69625938Y-82572490D02*
X69768795Y-82429633D01*
X69768795Y-82429633D02*
X69840224Y-82143919D01*
X69840224Y-82143919D02*
X69840224Y-81643919D01*
X69840224Y-81643919D02*
X69768795Y-81358205D01*
X69768795Y-81358205D02*
X69625938Y-81215348D01*
X69625938Y-81215348D02*
X69483081Y-81143919D01*
X69483081Y-81143919D02*
X69197367Y-81143919D01*
X69197367Y-81143919D02*
X69054510Y-81215348D01*
X69054510Y-81215348D02*
X68911652Y-81358205D01*
X68911652Y-81358205D02*
X68840224Y-81643919D01*
X68840224Y-81643919D02*
X68840224Y-82143919D01*
X68840224Y-82143919D02*
X68911652Y-82429633D01*
X68911652Y-82429633D02*
X69054510Y-82572490D01*
X69054510Y-82572490D02*
X69197367Y-82643919D01*
X70483081Y-82643919D02*
X70483081Y-81429633D01*
X70483081Y-81429633D02*
X70554510Y-81286776D01*
X70554510Y-81286776D02*
X70625939Y-81215348D01*
X70625939Y-81215348D02*
X70768796Y-81143919D01*
X70768796Y-81143919D02*
X71054510Y-81143919D01*
X71054510Y-81143919D02*
X71197367Y-81215348D01*
X71197367Y-81215348D02*
X71268796Y-81286776D01*
X71268796Y-81286776D02*
X71340224Y-81429633D01*
X71340224Y-81429633D02*
X71340224Y-82643919D01*
X71840225Y-82643919D02*
X72697368Y-82643919D01*
X72268796Y-81143919D02*
X72268796Y-82643919D01*
X75340224Y-82643919D02*
X76268796Y-82643919D01*
X76268796Y-82643919D02*
X75768796Y-82072490D01*
X75768796Y-82072490D02*
X75983081Y-82072490D01*
X75983081Y-82072490D02*
X76125939Y-82001062D01*
X76125939Y-82001062D02*
X76197367Y-81929633D01*
X76197367Y-81929633D02*
X76268796Y-81786776D01*
X76268796Y-81786776D02*
X76268796Y-81429633D01*
X76268796Y-81429633D02*
X76197367Y-81286776D01*
X76197367Y-81286776D02*
X76125939Y-81215348D01*
X76125939Y-81215348D02*
X75983081Y-81143919D01*
X75983081Y-81143919D02*
X75554510Y-81143919D01*
X75554510Y-81143919D02*
X75411653Y-81215348D01*
X75411653Y-81215348D02*
X75340224Y-81286776D01*
X76911652Y-81286776D02*
X76983081Y-81215348D01*
X76983081Y-81215348D02*
X76911652Y-81143919D01*
X76911652Y-81143919D02*
X76840224Y-81215348D01*
X76840224Y-81215348D02*
X76911652Y-81286776D01*
X76911652Y-81286776D02*
X76911652Y-81143919D01*
X79554510Y-82572490D02*
X79411653Y-82643919D01*
X79411653Y-82643919D02*
X79197367Y-82643919D01*
X79197367Y-82643919D02*
X78983081Y-82572490D01*
X78983081Y-82572490D02*
X78840224Y-82429633D01*
X78840224Y-82429633D02*
X78768795Y-82286776D01*
X78768795Y-82286776D02*
X78697367Y-82001062D01*
X78697367Y-82001062D02*
X78697367Y-81786776D01*
X78697367Y-81786776D02*
X78768795Y-81501062D01*
X78768795Y-81501062D02*
X78840224Y-81358205D01*
X78840224Y-81358205D02*
X78983081Y-81215348D01*
X78983081Y-81215348D02*
X79197367Y-81143919D01*
X79197367Y-81143919D02*
X79340224Y-81143919D01*
X79340224Y-81143919D02*
X79554510Y-81215348D01*
X79554510Y-81215348D02*
X79625938Y-81286776D01*
X79625938Y-81286776D02*
X79625938Y-81786776D01*
X79625938Y-81786776D02*
X79340224Y-81786776D01*
X80268795Y-81143919D02*
X80268795Y-82643919D01*
X80268795Y-82643919D02*
X81125938Y-81143919D01*
X81125938Y-81143919D02*
X81125938Y-82643919D01*
X81840224Y-81143919D02*
X81840224Y-82643919D01*
X81840224Y-82643919D02*
X82197367Y-82643919D01*
X82197367Y-82643919D02*
X82411653Y-82572490D01*
X82411653Y-82572490D02*
X82554510Y-82429633D01*
X82554510Y-82429633D02*
X82625939Y-82286776D01*
X82625939Y-82286776D02*
X82697367Y-82001062D01*
X82697367Y-82001062D02*
X82697367Y-81786776D01*
X82697367Y-81786776D02*
X82625939Y-81501062D01*
X82625939Y-81501062D02*
X82554510Y-81358205D01*
X82554510Y-81358205D02*
X82411653Y-81215348D01*
X82411653Y-81215348D02*
X82197367Y-81143919D01*
X82197367Y-81143919D02*
X81840224Y-81143919D01*
X61697368Y-80229003D02*
X61411653Y-80229003D01*
X61411653Y-80229003D02*
X61268796Y-80157574D01*
X61268796Y-80157574D02*
X61197368Y-80086146D01*
X61197368Y-80086146D02*
X61054510Y-79871860D01*
X61054510Y-79871860D02*
X60983082Y-79586146D01*
X60983082Y-79586146D02*
X60983082Y-79014717D01*
X60983082Y-79014717D02*
X61054510Y-78871860D01*
X61054510Y-78871860D02*
X61125939Y-78800432D01*
X61125939Y-78800432D02*
X61268796Y-78729003D01*
X61268796Y-78729003D02*
X61554510Y-78729003D01*
X61554510Y-78729003D02*
X61697368Y-78800432D01*
X61697368Y-78800432D02*
X61768796Y-78871860D01*
X61768796Y-78871860D02*
X61840225Y-79014717D01*
X61840225Y-79014717D02*
X61840225Y-79371860D01*
X61840225Y-79371860D02*
X61768796Y-79514717D01*
X61768796Y-79514717D02*
X61697368Y-79586146D01*
X61697368Y-79586146D02*
X61554510Y-79657574D01*
X61554510Y-79657574D02*
X61268796Y-79657574D01*
X61268796Y-79657574D02*
X61125939Y-79586146D01*
X61125939Y-79586146D02*
X61054510Y-79514717D01*
X61054510Y-79514717D02*
X60983082Y-79371860D01*
X62483081Y-78871860D02*
X62554510Y-78800432D01*
X62554510Y-78800432D02*
X62483081Y-78729003D01*
X62483081Y-78729003D02*
X62411653Y-78800432D01*
X62411653Y-78800432D02*
X62483081Y-78871860D01*
X62483081Y-78871860D02*
X62483081Y-78729003D01*
X64268796Y-79157574D02*
X64983082Y-79157574D01*
X64125939Y-78729003D02*
X64625939Y-80229003D01*
X64625939Y-80229003D02*
X65125939Y-78729003D01*
X65625938Y-79300432D02*
X66768796Y-79300432D01*
X66197367Y-78729003D02*
X66197367Y-79871860D01*
X75054509Y-80229003D02*
X74340223Y-80229003D01*
X74340223Y-80229003D02*
X74268795Y-79514717D01*
X74268795Y-79514717D02*
X74340223Y-79586146D01*
X74340223Y-79586146D02*
X74483081Y-79657574D01*
X74483081Y-79657574D02*
X74840223Y-79657574D01*
X74840223Y-79657574D02*
X74983081Y-79586146D01*
X74983081Y-79586146D02*
X75054509Y-79514717D01*
X75054509Y-79514717D02*
X75125938Y-79371860D01*
X75125938Y-79371860D02*
X75125938Y-79014717D01*
X75125938Y-79014717D02*
X75054509Y-78871860D01*
X75054509Y-78871860D02*
X74983081Y-78800432D01*
X74983081Y-78800432D02*
X74840223Y-78729003D01*
X74840223Y-78729003D02*
X74483081Y-78729003D01*
X74483081Y-78729003D02*
X74340223Y-78800432D01*
X74340223Y-78800432D02*
X74268795Y-78871860D01*
X75768794Y-78871860D02*
X75840223Y-78800432D01*
X75840223Y-78800432D02*
X75768794Y-78729003D01*
X75768794Y-78729003D02*
X75697366Y-78800432D01*
X75697366Y-78800432D02*
X75768794Y-78871860D01*
X75768794Y-78871860D02*
X75768794Y-78729003D01*
X77554509Y-79157574D02*
X78268795Y-79157574D01*
X77411652Y-78729003D02*
X77911652Y-80229003D01*
X77911652Y-80229003D02*
X78411652Y-78729003D01*
X78911651Y-79300432D02*
X80054509Y-79300432D01*
X61268796Y-77171230D02*
X61125939Y-77242658D01*
X61125939Y-77242658D02*
X61054510Y-77314087D01*
X61054510Y-77314087D02*
X60983082Y-77456944D01*
X60983082Y-77456944D02*
X60983082Y-77528373D01*
X60983082Y-77528373D02*
X61054510Y-77671230D01*
X61054510Y-77671230D02*
X61125939Y-77742658D01*
X61125939Y-77742658D02*
X61268796Y-77814087D01*
X61268796Y-77814087D02*
X61554510Y-77814087D01*
X61554510Y-77814087D02*
X61697368Y-77742658D01*
X61697368Y-77742658D02*
X61768796Y-77671230D01*
X61768796Y-77671230D02*
X61840225Y-77528373D01*
X61840225Y-77528373D02*
X61840225Y-77456944D01*
X61840225Y-77456944D02*
X61768796Y-77314087D01*
X61768796Y-77314087D02*
X61697368Y-77242658D01*
X61697368Y-77242658D02*
X61554510Y-77171230D01*
X61554510Y-77171230D02*
X61268796Y-77171230D01*
X61268796Y-77171230D02*
X61125939Y-77099801D01*
X61125939Y-77099801D02*
X61054510Y-77028373D01*
X61054510Y-77028373D02*
X60983082Y-76885516D01*
X60983082Y-76885516D02*
X60983082Y-76599801D01*
X60983082Y-76599801D02*
X61054510Y-76456944D01*
X61054510Y-76456944D02*
X61125939Y-76385516D01*
X61125939Y-76385516D02*
X61268796Y-76314087D01*
X61268796Y-76314087D02*
X61554510Y-76314087D01*
X61554510Y-76314087D02*
X61697368Y-76385516D01*
X61697368Y-76385516D02*
X61768796Y-76456944D01*
X61768796Y-76456944D02*
X61840225Y-76599801D01*
X61840225Y-76599801D02*
X61840225Y-76885516D01*
X61840225Y-76885516D02*
X61768796Y-77028373D01*
X61768796Y-77028373D02*
X61697368Y-77099801D01*
X61697368Y-77099801D02*
X61554510Y-77171230D01*
X62483081Y-76456944D02*
X62554510Y-76385516D01*
X62554510Y-76385516D02*
X62483081Y-76314087D01*
X62483081Y-76314087D02*
X62411653Y-76385516D01*
X62411653Y-76385516D02*
X62483081Y-76456944D01*
X62483081Y-76456944D02*
X62483081Y-76314087D01*
X64840224Y-77099801D02*
X65054510Y-77028373D01*
X65054510Y-77028373D02*
X65125939Y-76956944D01*
X65125939Y-76956944D02*
X65197367Y-76814087D01*
X65197367Y-76814087D02*
X65197367Y-76599801D01*
X65197367Y-76599801D02*
X65125939Y-76456944D01*
X65125939Y-76456944D02*
X65054510Y-76385516D01*
X65054510Y-76385516D02*
X64911653Y-76314087D01*
X64911653Y-76314087D02*
X64340224Y-76314087D01*
X64340224Y-76314087D02*
X64340224Y-77814087D01*
X64340224Y-77814087D02*
X64840224Y-77814087D01*
X64840224Y-77814087D02*
X64983082Y-77742658D01*
X64983082Y-77742658D02*
X65054510Y-77671230D01*
X65054510Y-77671230D02*
X65125939Y-77528373D01*
X65125939Y-77528373D02*
X65125939Y-77385516D01*
X65125939Y-77385516D02*
X65054510Y-77242658D01*
X65054510Y-77242658D02*
X64983082Y-77171230D01*
X64983082Y-77171230D02*
X64840224Y-77099801D01*
X64840224Y-77099801D02*
X64340224Y-77099801D01*
X65840224Y-76885516D02*
X66983082Y-76885516D01*
X66411653Y-76314087D02*
X66411653Y-77456944D01*
X74411652Y-77814087D02*
X75411652Y-77814087D01*
X75411652Y-77814087D02*
X74768795Y-76314087D01*
X75983080Y-76456944D02*
X76054509Y-76385516D01*
X76054509Y-76385516D02*
X75983080Y-76314087D01*
X75983080Y-76314087D02*
X75911652Y-76385516D01*
X75911652Y-76385516D02*
X75983080Y-76456944D01*
X75983080Y-76456944D02*
X75983080Y-76314087D01*
X78340223Y-77099801D02*
X78554509Y-77028373D01*
X78554509Y-77028373D02*
X78625938Y-76956944D01*
X78625938Y-76956944D02*
X78697366Y-76814087D01*
X78697366Y-76814087D02*
X78697366Y-76599801D01*
X78697366Y-76599801D02*
X78625938Y-76456944D01*
X78625938Y-76456944D02*
X78554509Y-76385516D01*
X78554509Y-76385516D02*
X78411652Y-76314087D01*
X78411652Y-76314087D02*
X77840223Y-76314087D01*
X77840223Y-76314087D02*
X77840223Y-77814087D01*
X77840223Y-77814087D02*
X78340223Y-77814087D01*
X78340223Y-77814087D02*
X78483081Y-77742658D01*
X78483081Y-77742658D02*
X78554509Y-77671230D01*
X78554509Y-77671230D02*
X78625938Y-77528373D01*
X78625938Y-77528373D02*
X78625938Y-77385516D01*
X78625938Y-77385516D02*
X78554509Y-77242658D01*
X78554509Y-77242658D02*
X78483081Y-77171230D01*
X78483081Y-77171230D02*
X78340223Y-77099801D01*
X78340223Y-77099801D02*
X77840223Y-77099801D01*
X79340223Y-76885516D02*
X80483081Y-76885516D01*
X61840225Y-73899171D02*
X60983082Y-73899171D01*
X61411653Y-73899171D02*
X61411653Y-75399171D01*
X61411653Y-75399171D02*
X61268796Y-75184885D01*
X61268796Y-75184885D02*
X61125939Y-75042028D01*
X61125939Y-75042028D02*
X60983082Y-74970600D01*
X62768796Y-75399171D02*
X62911653Y-75399171D01*
X62911653Y-75399171D02*
X63054510Y-75327742D01*
X63054510Y-75327742D02*
X63125939Y-75256314D01*
X63125939Y-75256314D02*
X63197367Y-75113457D01*
X63197367Y-75113457D02*
X63268796Y-74827742D01*
X63268796Y-74827742D02*
X63268796Y-74470600D01*
X63268796Y-74470600D02*
X63197367Y-74184885D01*
X63197367Y-74184885D02*
X63125939Y-74042028D01*
X63125939Y-74042028D02*
X63054510Y-73970600D01*
X63054510Y-73970600D02*
X62911653Y-73899171D01*
X62911653Y-73899171D02*
X62768796Y-73899171D01*
X62768796Y-73899171D02*
X62625939Y-73970600D01*
X62625939Y-73970600D02*
X62554510Y-74042028D01*
X62554510Y-74042028D02*
X62483081Y-74184885D01*
X62483081Y-74184885D02*
X62411653Y-74470600D01*
X62411653Y-74470600D02*
X62411653Y-74827742D01*
X62411653Y-74827742D02*
X62483081Y-75113457D01*
X62483081Y-75113457D02*
X62554510Y-75256314D01*
X62554510Y-75256314D02*
X62625939Y-75327742D01*
X62625939Y-75327742D02*
X62768796Y-75399171D01*
X63911652Y-74042028D02*
X63983081Y-73970600D01*
X63983081Y-73970600D02*
X63911652Y-73899171D01*
X63911652Y-73899171D02*
X63840224Y-73970600D01*
X63840224Y-73970600D02*
X63911652Y-74042028D01*
X63911652Y-74042028D02*
X63911652Y-73899171D01*
X65625938Y-75399171D02*
X66625938Y-75399171D01*
X66625938Y-75399171D02*
X65625938Y-73899171D01*
X65625938Y-73899171D02*
X66625938Y-73899171D01*
X67197366Y-74470600D02*
X68340224Y-74470600D01*
X67768795Y-73899171D02*
X67768795Y-75042028D01*
X74840223Y-73899171D02*
X75125937Y-73899171D01*
X75125937Y-73899171D02*
X75268794Y-73970600D01*
X75268794Y-73970600D02*
X75340223Y-74042028D01*
X75340223Y-74042028D02*
X75483080Y-74256314D01*
X75483080Y-74256314D02*
X75554509Y-74542028D01*
X75554509Y-74542028D02*
X75554509Y-75113457D01*
X75554509Y-75113457D02*
X75483080Y-75256314D01*
X75483080Y-75256314D02*
X75411652Y-75327742D01*
X75411652Y-75327742D02*
X75268794Y-75399171D01*
X75268794Y-75399171D02*
X74983080Y-75399171D01*
X74983080Y-75399171D02*
X74840223Y-75327742D01*
X74840223Y-75327742D02*
X74768794Y-75256314D01*
X74768794Y-75256314D02*
X74697366Y-75113457D01*
X74697366Y-75113457D02*
X74697366Y-74756314D01*
X74697366Y-74756314D02*
X74768794Y-74613457D01*
X74768794Y-74613457D02*
X74840223Y-74542028D01*
X74840223Y-74542028D02*
X74983080Y-74470600D01*
X74983080Y-74470600D02*
X75268794Y-74470600D01*
X75268794Y-74470600D02*
X75411652Y-74542028D01*
X75411652Y-74542028D02*
X75483080Y-74613457D01*
X75483080Y-74613457D02*
X75554509Y-74756314D01*
X76197365Y-74042028D02*
X76268794Y-73970600D01*
X76268794Y-73970600D02*
X76197365Y-73899171D01*
X76197365Y-73899171D02*
X76125937Y-73970600D01*
X76125937Y-73970600D02*
X76197365Y-74042028D01*
X76197365Y-74042028D02*
X76197365Y-73899171D01*
X77911651Y-75399171D02*
X78911651Y-75399171D01*
X78911651Y-75399171D02*
X77911651Y-73899171D01*
X77911651Y-73899171D02*
X78911651Y-73899171D01*
X79483079Y-74470600D02*
X80625937Y-74470600D01*
X256540224Y-100984950D02*
X257254510Y-100984950D01*
X257254510Y-100984950D02*
X257325938Y-101746855D01*
X257325938Y-101746855D02*
X257254510Y-101670664D01*
X257254510Y-101670664D02*
X257111653Y-101594474D01*
X257111653Y-101594474D02*
X256754510Y-101594474D01*
X256754510Y-101594474D02*
X256611653Y-101670664D01*
X256611653Y-101670664D02*
X256540224Y-101746855D01*
X256540224Y-101746855D02*
X256468795Y-101899236D01*
X256468795Y-101899236D02*
X256468795Y-102280188D01*
X256468795Y-102280188D02*
X256540224Y-102432569D01*
X256540224Y-102432569D02*
X256611653Y-102508760D01*
X256611653Y-102508760D02*
X256754510Y-102584950D01*
X256754510Y-102584950D02*
X257111653Y-102584950D01*
X257111653Y-102584950D02*
X257254510Y-102508760D01*
X257254510Y-102508760D02*
X257325938Y-102432569D01*
X256040224Y-100984950D02*
X255540224Y-102584950D01*
X255540224Y-102584950D02*
X255040224Y-100984950D01*
X255897367Y-104703717D02*
X255183082Y-104703717D01*
X256040224Y-105160860D02*
X255540224Y-103560860D01*
X255540224Y-103560860D02*
X255040224Y-105160860D01*
X255540225Y-106898675D02*
X255325939Y-106974865D01*
X255325939Y-106974865D02*
X255254510Y-107051056D01*
X255254510Y-107051056D02*
X255183082Y-107203437D01*
X255183082Y-107203437D02*
X255183082Y-107432008D01*
X255183082Y-107432008D02*
X255254510Y-107584389D01*
X255254510Y-107584389D02*
X255325939Y-107660580D01*
X255325939Y-107660580D02*
X255468796Y-107736770D01*
X255468796Y-107736770D02*
X256040225Y-107736770D01*
X256040225Y-107736770D02*
X256040225Y-106136770D01*
X256040225Y-106136770D02*
X255540225Y-106136770D01*
X255540225Y-106136770D02*
X255397368Y-106212960D01*
X255397368Y-106212960D02*
X255325939Y-106289151D01*
X255325939Y-106289151D02*
X255254510Y-106441532D01*
X255254510Y-106441532D02*
X255254510Y-106593913D01*
X255254510Y-106593913D02*
X255325939Y-106746294D01*
X255325939Y-106746294D02*
X255397368Y-106822484D01*
X255397368Y-106822484D02*
X255540225Y-106898675D01*
X255540225Y-106898675D02*
X256040225Y-106898675D01*
X256111653Y-108712680D02*
X255111653Y-108712680D01*
X255111653Y-108712680D02*
X256111653Y-110312680D01*
X256111653Y-110312680D02*
X255111653Y-110312680D01*
X258325939Y-111364780D02*
X258468797Y-111288590D01*
X258468797Y-111288590D02*
X258683082Y-111288590D01*
X258683082Y-111288590D02*
X258897368Y-111364780D01*
X258897368Y-111364780D02*
X259040225Y-111517161D01*
X259040225Y-111517161D02*
X259111654Y-111669542D01*
X259111654Y-111669542D02*
X259183082Y-111974304D01*
X259183082Y-111974304D02*
X259183082Y-112202876D01*
X259183082Y-112202876D02*
X259111654Y-112507638D01*
X259111654Y-112507638D02*
X259040225Y-112660019D01*
X259040225Y-112660019D02*
X258897368Y-112812400D01*
X258897368Y-112812400D02*
X258683082Y-112888590D01*
X258683082Y-112888590D02*
X258540225Y-112888590D01*
X258540225Y-112888590D02*
X258325939Y-112812400D01*
X258325939Y-112812400D02*
X258254511Y-112736209D01*
X258254511Y-112736209D02*
X258254511Y-112202876D01*
X258254511Y-112202876D02*
X258540225Y-112202876D01*
X257611654Y-112888590D02*
X257611654Y-111288590D01*
X257611654Y-111288590D02*
X256754511Y-112888590D01*
X256754511Y-112888590D02*
X256754511Y-111288590D01*
X256040225Y-112888590D02*
X256040225Y-111288590D01*
X256040225Y-111288590D02*
X255683082Y-111288590D01*
X255683082Y-111288590D02*
X255468796Y-111364780D01*
X255468796Y-111364780D02*
X255325939Y-111517161D01*
X255325939Y-111517161D02*
X255254510Y-111669542D01*
X255254510Y-111669542D02*
X255183082Y-111974304D01*
X255183082Y-111974304D02*
X255183082Y-112202876D01*
X255183082Y-112202876D02*
X255254510Y-112507638D01*
X255254510Y-112507638D02*
X255325939Y-112660019D01*
X255325939Y-112660019D02*
X255468796Y-112812400D01*
X255468796Y-112812400D02*
X255683082Y-112888590D01*
X255683082Y-112888590D02*
X256040225Y-112888590D01*
X167016917Y-120496437D02*
X166302632Y-120496437D01*
X167159774Y-120953580D02*
X166659774Y-119353580D01*
X166659774Y-119353580D02*
X166159774Y-120953580D01*
X165016918Y-119353580D02*
X165302632Y-119353580D01*
X165302632Y-119353580D02*
X165445489Y-119429770D01*
X165445489Y-119429770D02*
X165516918Y-119505961D01*
X165516918Y-119505961D02*
X165659775Y-119734532D01*
X165659775Y-119734532D02*
X165731203Y-120039294D01*
X165731203Y-120039294D02*
X165731203Y-120648818D01*
X165731203Y-120648818D02*
X165659775Y-120801199D01*
X165659775Y-120801199D02*
X165588346Y-120877390D01*
X165588346Y-120877390D02*
X165445489Y-120953580D01*
X165445489Y-120953580D02*
X165159775Y-120953580D01*
X165159775Y-120953580D02*
X165016918Y-120877390D01*
X165016918Y-120877390D02*
X164945489Y-120801199D01*
X164945489Y-120801199D02*
X164874060Y-120648818D01*
X164874060Y-120648818D02*
X164874060Y-120267866D01*
X164874060Y-120267866D02*
X164945489Y-120115485D01*
X164945489Y-120115485D02*
X165016918Y-120039294D01*
X165016918Y-120039294D02*
X165159775Y-119963104D01*
X165159775Y-119963104D02*
X165445489Y-119963104D01*
X165445489Y-119963104D02*
X165588346Y-120039294D01*
X165588346Y-120039294D02*
X165659775Y-120115485D01*
X165659775Y-120115485D02*
X165731203Y-120267866D01*
X167016917Y-123072347D02*
X166302632Y-123072347D01*
X167159774Y-123529490D02*
X166659774Y-121929490D01*
X166659774Y-121929490D02*
X166159774Y-123529490D01*
X165016918Y-122462823D02*
X165016918Y-123529490D01*
X165374060Y-121853300D02*
X165731203Y-122996157D01*
X165731203Y-122996157D02*
X164802632Y-122996157D01*
X167016917Y-125648257D02*
X166302632Y-125648257D01*
X167159774Y-126105400D02*
X166659774Y-124505400D01*
X166659774Y-124505400D02*
X166159774Y-126105400D01*
X165731203Y-124657781D02*
X165659775Y-124581590D01*
X165659775Y-124581590D02*
X165516918Y-124505400D01*
X165516918Y-124505400D02*
X165159775Y-124505400D01*
X165159775Y-124505400D02*
X165016918Y-124581590D01*
X165016918Y-124581590D02*
X164945489Y-124657781D01*
X164945489Y-124657781D02*
X164874060Y-124810162D01*
X164874060Y-124810162D02*
X164874060Y-124962543D01*
X164874060Y-124962543D02*
X164945489Y-125191114D01*
X164945489Y-125191114D02*
X165802632Y-126105400D01*
X165802632Y-126105400D02*
X164874060Y-126105400D01*
X167016917Y-128224167D02*
X166302632Y-128224167D01*
X167159774Y-128681310D02*
X166659774Y-127081310D01*
X166659774Y-127081310D02*
X166159774Y-128681310D01*
X165374060Y-127081310D02*
X165231203Y-127081310D01*
X165231203Y-127081310D02*
X165088346Y-127157500D01*
X165088346Y-127157500D02*
X165016918Y-127233691D01*
X165016918Y-127233691D02*
X164945489Y-127386072D01*
X164945489Y-127386072D02*
X164874060Y-127690834D01*
X164874060Y-127690834D02*
X164874060Y-128071786D01*
X164874060Y-128071786D02*
X164945489Y-128376548D01*
X164945489Y-128376548D02*
X165016918Y-128528929D01*
X165016918Y-128528929D02*
X165088346Y-128605120D01*
X165088346Y-128605120D02*
X165231203Y-128681310D01*
X165231203Y-128681310D02*
X165374060Y-128681310D01*
X165374060Y-128681310D02*
X165516918Y-128605120D01*
X165516918Y-128605120D02*
X165588346Y-128528929D01*
X165588346Y-128528929D02*
X165659775Y-128376548D01*
X165659775Y-128376548D02*
X165731203Y-128071786D01*
X165731203Y-128071786D02*
X165731203Y-127690834D01*
X165731203Y-127690834D02*
X165659775Y-127386072D01*
X165659775Y-127386072D02*
X165588346Y-127233691D01*
X165588346Y-127233691D02*
X165516918Y-127157500D01*
X165516918Y-127157500D02*
X165374060Y-127081310D01*
X166945489Y-131257220D02*
X166945489Y-129657220D01*
X166945489Y-129657220D02*
X166588346Y-129657220D01*
X166588346Y-129657220D02*
X166374060Y-129733410D01*
X166374060Y-129733410D02*
X166231203Y-129885791D01*
X166231203Y-129885791D02*
X166159774Y-130038172D01*
X166159774Y-130038172D02*
X166088346Y-130342934D01*
X166088346Y-130342934D02*
X166088346Y-130571506D01*
X166088346Y-130571506D02*
X166159774Y-130876268D01*
X166159774Y-130876268D02*
X166231203Y-131028649D01*
X166231203Y-131028649D02*
X166374060Y-131181030D01*
X166374060Y-131181030D02*
X166588346Y-131257220D01*
X166588346Y-131257220D02*
X166945489Y-131257220D01*
X164731203Y-129657220D02*
X165445489Y-129657220D01*
X165445489Y-129657220D02*
X165516917Y-130419125D01*
X165516917Y-130419125D02*
X165445489Y-130342934D01*
X165445489Y-130342934D02*
X165302632Y-130266744D01*
X165302632Y-130266744D02*
X164945489Y-130266744D01*
X164945489Y-130266744D02*
X164802632Y-130342934D01*
X164802632Y-130342934D02*
X164731203Y-130419125D01*
X164731203Y-130419125D02*
X164659774Y-130571506D01*
X164659774Y-130571506D02*
X164659774Y-130952458D01*
X164659774Y-130952458D02*
X164731203Y-131104839D01*
X164731203Y-131104839D02*
X164802632Y-131181030D01*
X164802632Y-131181030D02*
X164945489Y-131257220D01*
X164945489Y-131257220D02*
X165302632Y-131257220D01*
X165302632Y-131257220D02*
X165445489Y-131181030D01*
X165445489Y-131181030D02*
X165516917Y-131104839D01*
X166945489Y-133833130D02*
X166945489Y-132233130D01*
X166945489Y-132233130D02*
X166588346Y-132233130D01*
X166588346Y-132233130D02*
X166374060Y-132309320D01*
X166374060Y-132309320D02*
X166231203Y-132461701D01*
X166231203Y-132461701D02*
X166159774Y-132614082D01*
X166159774Y-132614082D02*
X166088346Y-132918844D01*
X166088346Y-132918844D02*
X166088346Y-133147416D01*
X166088346Y-133147416D02*
X166159774Y-133452178D01*
X166159774Y-133452178D02*
X166231203Y-133604559D01*
X166231203Y-133604559D02*
X166374060Y-133756940D01*
X166374060Y-133756940D02*
X166588346Y-133833130D01*
X166588346Y-133833130D02*
X166945489Y-133833130D01*
X165588346Y-132233130D02*
X164659774Y-132233130D01*
X164659774Y-132233130D02*
X165159774Y-132842654D01*
X165159774Y-132842654D02*
X164945489Y-132842654D01*
X164945489Y-132842654D02*
X164802632Y-132918844D01*
X164802632Y-132918844D02*
X164731203Y-132995035D01*
X164731203Y-132995035D02*
X164659774Y-133147416D01*
X164659774Y-133147416D02*
X164659774Y-133528368D01*
X164659774Y-133528368D02*
X164731203Y-133680749D01*
X164731203Y-133680749D02*
X164802632Y-133756940D01*
X164802632Y-133756940D02*
X164945489Y-133833130D01*
X164945489Y-133833130D02*
X165374060Y-133833130D01*
X165374060Y-133833130D02*
X165516917Y-133756940D01*
X165516917Y-133756940D02*
X165588346Y-133680749D01*
X166945489Y-136409040D02*
X166945489Y-134809040D01*
X166945489Y-134809040D02*
X166588346Y-134809040D01*
X166588346Y-134809040D02*
X166374060Y-134885230D01*
X166374060Y-134885230D02*
X166231203Y-135037611D01*
X166231203Y-135037611D02*
X166159774Y-135189992D01*
X166159774Y-135189992D02*
X166088346Y-135494754D01*
X166088346Y-135494754D02*
X166088346Y-135723326D01*
X166088346Y-135723326D02*
X166159774Y-136028088D01*
X166159774Y-136028088D02*
X166231203Y-136180469D01*
X166231203Y-136180469D02*
X166374060Y-136332850D01*
X166374060Y-136332850D02*
X166588346Y-136409040D01*
X166588346Y-136409040D02*
X166945489Y-136409040D01*
X164659774Y-136409040D02*
X165516917Y-136409040D01*
X165088346Y-136409040D02*
X165088346Y-134809040D01*
X165088346Y-134809040D02*
X165231203Y-135037611D01*
X165231203Y-135037611D02*
X165374060Y-135189992D01*
X165374060Y-135189992D02*
X165516917Y-135266183D01*
X166945489Y-138984950D02*
X166945489Y-137384950D01*
X166945489Y-137384950D02*
X166588346Y-137384950D01*
X166588346Y-137384950D02*
X166374060Y-137461140D01*
X166374060Y-137461140D02*
X166231203Y-137613521D01*
X166231203Y-137613521D02*
X166159774Y-137765902D01*
X166159774Y-137765902D02*
X166088346Y-138070664D01*
X166088346Y-138070664D02*
X166088346Y-138299236D01*
X166088346Y-138299236D02*
X166159774Y-138603998D01*
X166159774Y-138603998D02*
X166231203Y-138756379D01*
X166231203Y-138756379D02*
X166374060Y-138908760D01*
X166374060Y-138908760D02*
X166588346Y-138984950D01*
X166588346Y-138984950D02*
X166945489Y-138984950D01*
X165588346Y-137384950D02*
X164588346Y-137384950D01*
X164588346Y-137384950D02*
X165231203Y-138984950D01*
X166945489Y-141560860D02*
X166945489Y-139960860D01*
X166945489Y-139960860D02*
X166588346Y-139960860D01*
X166588346Y-139960860D02*
X166374060Y-140037050D01*
X166374060Y-140037050D02*
X166231203Y-140189431D01*
X166231203Y-140189431D02*
X166159774Y-140341812D01*
X166159774Y-140341812D02*
X166088346Y-140646574D01*
X166088346Y-140646574D02*
X166088346Y-140875146D01*
X166088346Y-140875146D02*
X166159774Y-141179908D01*
X166159774Y-141179908D02*
X166231203Y-141332289D01*
X166231203Y-141332289D02*
X166374060Y-141484670D01*
X166374060Y-141484670D02*
X166588346Y-141560860D01*
X166588346Y-141560860D02*
X166945489Y-141560860D01*
X164659774Y-141560860D02*
X165516917Y-141560860D01*
X165088346Y-141560860D02*
X165088346Y-139960860D01*
X165088346Y-139960860D02*
X165231203Y-140189431D01*
X165231203Y-140189431D02*
X165374060Y-140341812D01*
X165374060Y-140341812D02*
X165516917Y-140418003D01*
X163731203Y-139960860D02*
X163588346Y-139960860D01*
X163588346Y-139960860D02*
X163445489Y-140037050D01*
X163445489Y-140037050D02*
X163374061Y-140113241D01*
X163374061Y-140113241D02*
X163302632Y-140265622D01*
X163302632Y-140265622D02*
X163231203Y-140570384D01*
X163231203Y-140570384D02*
X163231203Y-140951336D01*
X163231203Y-140951336D02*
X163302632Y-141256098D01*
X163302632Y-141256098D02*
X163374061Y-141408479D01*
X163374061Y-141408479D02*
X163445489Y-141484670D01*
X163445489Y-141484670D02*
X163588346Y-141560860D01*
X163588346Y-141560860D02*
X163731203Y-141560860D01*
X163731203Y-141560860D02*
X163874061Y-141484670D01*
X163874061Y-141484670D02*
X163945489Y-141408479D01*
X163945489Y-141408479D02*
X164016918Y-141256098D01*
X164016918Y-141256098D02*
X164088346Y-140951336D01*
X164088346Y-140951336D02*
X164088346Y-140570384D01*
X164088346Y-140570384D02*
X164016918Y-140265622D01*
X164016918Y-140265622D02*
X163945489Y-140113241D01*
X163945489Y-140113241D02*
X163874061Y-140037050D01*
X163874061Y-140037050D02*
X163731203Y-139960860D01*
X166159774Y-142612960D02*
X166302632Y-142536770D01*
X166302632Y-142536770D02*
X166516917Y-142536770D01*
X166516917Y-142536770D02*
X166731203Y-142612960D01*
X166731203Y-142612960D02*
X166874060Y-142765341D01*
X166874060Y-142765341D02*
X166945489Y-142917722D01*
X166945489Y-142917722D02*
X167016917Y-143222484D01*
X167016917Y-143222484D02*
X167016917Y-143451056D01*
X167016917Y-143451056D02*
X166945489Y-143755818D01*
X166945489Y-143755818D02*
X166874060Y-143908199D01*
X166874060Y-143908199D02*
X166731203Y-144060580D01*
X166731203Y-144060580D02*
X166516917Y-144136770D01*
X166516917Y-144136770D02*
X166374060Y-144136770D01*
X166374060Y-144136770D02*
X166159774Y-144060580D01*
X166159774Y-144060580D02*
X166088346Y-143984389D01*
X166088346Y-143984389D02*
X166088346Y-143451056D01*
X166088346Y-143451056D02*
X166374060Y-143451056D01*
X165159774Y-142536770D02*
X165016917Y-142536770D01*
X165016917Y-142536770D02*
X164874060Y-142612960D01*
X164874060Y-142612960D02*
X164802632Y-142689151D01*
X164802632Y-142689151D02*
X164731203Y-142841532D01*
X164731203Y-142841532D02*
X164659774Y-143146294D01*
X164659774Y-143146294D02*
X164659774Y-143527246D01*
X164659774Y-143527246D02*
X164731203Y-143832008D01*
X164731203Y-143832008D02*
X164802632Y-143984389D01*
X164802632Y-143984389D02*
X164874060Y-144060580D01*
X164874060Y-144060580D02*
X165016917Y-144136770D01*
X165016917Y-144136770D02*
X165159774Y-144136770D01*
X165159774Y-144136770D02*
X165302632Y-144060580D01*
X165302632Y-144060580D02*
X165374060Y-143984389D01*
X165374060Y-143984389D02*
X165445489Y-143832008D01*
X165445489Y-143832008D02*
X165516917Y-143527246D01*
X165516917Y-143527246D02*
X165516917Y-143146294D01*
X165516917Y-143146294D02*
X165445489Y-142841532D01*
X165445489Y-142841532D02*
X165374060Y-142689151D01*
X165374060Y-142689151D02*
X165302632Y-142612960D01*
X165302632Y-142612960D02*
X165159774Y-142536770D01*
X166159774Y-145188870D02*
X166302632Y-145112680D01*
X166302632Y-145112680D02*
X166516917Y-145112680D01*
X166516917Y-145112680D02*
X166731203Y-145188870D01*
X166731203Y-145188870D02*
X166874060Y-145341251D01*
X166874060Y-145341251D02*
X166945489Y-145493632D01*
X166945489Y-145493632D02*
X167016917Y-145798394D01*
X167016917Y-145798394D02*
X167016917Y-146026966D01*
X167016917Y-146026966D02*
X166945489Y-146331728D01*
X166945489Y-146331728D02*
X166874060Y-146484109D01*
X166874060Y-146484109D02*
X166731203Y-146636490D01*
X166731203Y-146636490D02*
X166516917Y-146712680D01*
X166516917Y-146712680D02*
X166374060Y-146712680D01*
X166374060Y-146712680D02*
X166159774Y-146636490D01*
X166159774Y-146636490D02*
X166088346Y-146560299D01*
X166088346Y-146560299D02*
X166088346Y-146026966D01*
X166088346Y-146026966D02*
X166374060Y-146026966D01*
X165516917Y-145265061D02*
X165445489Y-145188870D01*
X165445489Y-145188870D02*
X165302632Y-145112680D01*
X165302632Y-145112680D02*
X164945489Y-145112680D01*
X164945489Y-145112680D02*
X164802632Y-145188870D01*
X164802632Y-145188870D02*
X164731203Y-145265061D01*
X164731203Y-145265061D02*
X164659774Y-145417442D01*
X164659774Y-145417442D02*
X164659774Y-145569823D01*
X164659774Y-145569823D02*
X164731203Y-145798394D01*
X164731203Y-145798394D02*
X165588346Y-146712680D01*
X165588346Y-146712680D02*
X164659774Y-146712680D01*
X166159774Y-147764780D02*
X166302632Y-147688590D01*
X166302632Y-147688590D02*
X166516917Y-147688590D01*
X166516917Y-147688590D02*
X166731203Y-147764780D01*
X166731203Y-147764780D02*
X166874060Y-147917161D01*
X166874060Y-147917161D02*
X166945489Y-148069542D01*
X166945489Y-148069542D02*
X167016917Y-148374304D01*
X167016917Y-148374304D02*
X167016917Y-148602876D01*
X167016917Y-148602876D02*
X166945489Y-148907638D01*
X166945489Y-148907638D02*
X166874060Y-149060019D01*
X166874060Y-149060019D02*
X166731203Y-149212400D01*
X166731203Y-149212400D02*
X166516917Y-149288590D01*
X166516917Y-149288590D02*
X166374060Y-149288590D01*
X166374060Y-149288590D02*
X166159774Y-149212400D01*
X166159774Y-149212400D02*
X166088346Y-149136209D01*
X166088346Y-149136209D02*
X166088346Y-148602876D01*
X166088346Y-148602876D02*
X166374060Y-148602876D01*
X164802632Y-148221923D02*
X164802632Y-149288590D01*
X165159774Y-147612400D02*
X165516917Y-148755257D01*
X165516917Y-148755257D02*
X164588346Y-148755257D01*
X215937050Y-65574060D02*
X215860860Y-65431203D01*
X215860860Y-65431203D02*
X215860860Y-65216917D01*
X215860860Y-65216917D02*
X215937050Y-65002631D01*
X215937050Y-65002631D02*
X216089431Y-64859774D01*
X216089431Y-64859774D02*
X216241812Y-64788345D01*
X216241812Y-64788345D02*
X216546574Y-64716917D01*
X216546574Y-64716917D02*
X216775146Y-64716917D01*
X216775146Y-64716917D02*
X217079908Y-64788345D01*
X217079908Y-64788345D02*
X217232289Y-64859774D01*
X217232289Y-64859774D02*
X217384670Y-65002631D01*
X217384670Y-65002631D02*
X217460860Y-65216917D01*
X217460860Y-65216917D02*
X217460860Y-65359774D01*
X217460860Y-65359774D02*
X217384670Y-65574060D01*
X217384670Y-65574060D02*
X217308479Y-65645488D01*
X217308479Y-65645488D02*
X216775146Y-65645488D01*
X216775146Y-65645488D02*
X216775146Y-65359774D01*
X217460860Y-66288345D02*
X215860860Y-66288345D01*
X215860860Y-66288345D02*
X217460860Y-67145488D01*
X217460860Y-67145488D02*
X215860860Y-67145488D01*
X217460860Y-67859774D02*
X215860860Y-67859774D01*
X215860860Y-67859774D02*
X215860860Y-68216917D01*
X215860860Y-68216917D02*
X215937050Y-68431203D01*
X215937050Y-68431203D02*
X216089431Y-68574060D01*
X216089431Y-68574060D02*
X216241812Y-68645489D01*
X216241812Y-68645489D02*
X216546574Y-68716917D01*
X216546574Y-68716917D02*
X216775146Y-68716917D01*
X216775146Y-68716917D02*
X217079908Y-68645489D01*
X217079908Y-68645489D02*
X217232289Y-68574060D01*
X217232289Y-68574060D02*
X217384670Y-68431203D01*
X217384670Y-68431203D02*
X217460860Y-68216917D01*
X217460860Y-68216917D02*
X217460860Y-67859774D01*
X218589151Y-65145490D02*
X218512960Y-65216918D01*
X218512960Y-65216918D02*
X218436770Y-65359776D01*
X218436770Y-65359776D02*
X218436770Y-65716918D01*
X218436770Y-65716918D02*
X218512960Y-65859776D01*
X218512960Y-65859776D02*
X218589151Y-65931204D01*
X218589151Y-65931204D02*
X218741532Y-66002633D01*
X218741532Y-66002633D02*
X218893913Y-66002633D01*
X218893913Y-66002633D02*
X219122484Y-65931204D01*
X219122484Y-65931204D02*
X220036770Y-65074061D01*
X220036770Y-65074061D02*
X220036770Y-66002633D01*
X218970103Y-67288347D02*
X220036770Y-67288347D01*
X218360580Y-66931204D02*
X219503437Y-66574061D01*
X219503437Y-66574061D02*
X219503437Y-67502632D01*
X218436770Y-67859775D02*
X220036770Y-68359775D01*
X220036770Y-68359775D02*
X218436770Y-68859775D01*
X221012680Y-61359775D02*
X222307918Y-61359775D01*
X222307918Y-61359775D02*
X222460299Y-61431204D01*
X222460299Y-61431204D02*
X222536490Y-61502633D01*
X222536490Y-61502633D02*
X222612680Y-61645490D01*
X222612680Y-61645490D02*
X222612680Y-61931204D01*
X222612680Y-61931204D02*
X222536490Y-62074061D01*
X222536490Y-62074061D02*
X222460299Y-62145490D01*
X222460299Y-62145490D02*
X222307918Y-62216918D01*
X222307918Y-62216918D02*
X221012680Y-62216918D01*
X221012680Y-62716919D02*
X221012680Y-63574062D01*
X222612680Y-63145490D02*
X221012680Y-63145490D01*
X222612680Y-64859776D02*
X222612680Y-64002633D01*
X222612680Y-64431204D02*
X221012680Y-64431204D01*
X221012680Y-64431204D02*
X221241251Y-64288347D01*
X221241251Y-64288347D02*
X221393632Y-64145490D01*
X221393632Y-64145490D02*
X221469823Y-64002633D01*
X222765061Y-65145490D02*
X222765061Y-66288347D01*
X222155537Y-66574061D02*
X222155537Y-67288347D01*
X222612680Y-66431204D02*
X221012680Y-66931204D01*
X221012680Y-66931204D02*
X222612680Y-67431204D01*
X222612680Y-68716918D02*
X222612680Y-67859775D01*
X222612680Y-68288346D02*
X221012680Y-68288346D01*
X221012680Y-68288346D02*
X221241251Y-68145489D01*
X221241251Y-68145489D02*
X221393632Y-68002632D01*
X221393632Y-68002632D02*
X221469823Y-67859775D01*
X223740971Y-65145490D02*
X223664780Y-65216918D01*
X223664780Y-65216918D02*
X223588590Y-65359776D01*
X223588590Y-65359776D02*
X223588590Y-65716918D01*
X223588590Y-65716918D02*
X223664780Y-65859776D01*
X223664780Y-65859776D02*
X223740971Y-65931204D01*
X223740971Y-65931204D02*
X223893352Y-66002633D01*
X223893352Y-66002633D02*
X224045733Y-66002633D01*
X224045733Y-66002633D02*
X224274304Y-65931204D01*
X224274304Y-65931204D02*
X225188590Y-65074061D01*
X225188590Y-65074061D02*
X225188590Y-66002633D01*
X224121923Y-67288347D02*
X225188590Y-67288347D01*
X223512400Y-66931204D02*
X224655257Y-66574061D01*
X224655257Y-66574061D02*
X224655257Y-67502632D01*
X223588590Y-67859775D02*
X225188590Y-68359775D01*
X225188590Y-68359775D02*
X223588590Y-68859775D01*
X90472518Y-62940225D02*
X90472518Y-62083082D01*
X90472518Y-62511653D02*
X88672518Y-62511653D01*
X88672518Y-62511653D02*
X88929661Y-62368796D01*
X88929661Y-62368796D02*
X89101089Y-62225939D01*
X89101089Y-62225939D02*
X89186804Y-62083082D01*
X90301089Y-63583081D02*
X90386804Y-63654510D01*
X90386804Y-63654510D02*
X90472518Y-63583081D01*
X90472518Y-63583081D02*
X90386804Y-63511653D01*
X90386804Y-63511653D02*
X90301089Y-63583081D01*
X90301089Y-63583081D02*
X90472518Y-63583081D01*
X89958232Y-65368796D02*
X89958232Y-66083082D01*
X90472518Y-65225939D02*
X88672518Y-65725939D01*
X88672518Y-65725939D02*
X90472518Y-66225939D01*
X88586804Y-67797367D02*
X90901089Y-66511653D01*
X89958232Y-68225939D02*
X89958232Y-68940225D01*
X90472518Y-68083082D02*
X88672518Y-68583082D01*
X88672518Y-68583082D02*
X90472518Y-69083082D01*
X89786804Y-69583081D02*
X89786804Y-70725939D01*
X90472518Y-70154510D02*
X89101089Y-70154510D01*
X91741845Y-62083082D02*
X91656131Y-62154510D01*
X91656131Y-62154510D02*
X91570417Y-62297368D01*
X91570417Y-62297368D02*
X91570417Y-62654510D01*
X91570417Y-62654510D02*
X91656131Y-62797368D01*
X91656131Y-62797368D02*
X91741845Y-62868796D01*
X91741845Y-62868796D02*
X91913274Y-62940225D01*
X91913274Y-62940225D02*
X92084703Y-62940225D01*
X92084703Y-62940225D02*
X92341845Y-62868796D01*
X92341845Y-62868796D02*
X93370417Y-62011653D01*
X93370417Y-62011653D02*
X93370417Y-62940225D01*
X93198988Y-63583081D02*
X93284703Y-63654510D01*
X93284703Y-63654510D02*
X93370417Y-63583081D01*
X93370417Y-63583081D02*
X93284703Y-63511653D01*
X93284703Y-63511653D02*
X93198988Y-63583081D01*
X93198988Y-63583081D02*
X93370417Y-63583081D01*
X93198988Y-66297367D02*
X93284703Y-66225939D01*
X93284703Y-66225939D02*
X93370417Y-66011653D01*
X93370417Y-66011653D02*
X93370417Y-65868796D01*
X93370417Y-65868796D02*
X93284703Y-65654510D01*
X93284703Y-65654510D02*
X93113274Y-65511653D01*
X93113274Y-65511653D02*
X92941845Y-65440224D01*
X92941845Y-65440224D02*
X92598988Y-65368796D01*
X92598988Y-65368796D02*
X92341845Y-65368796D01*
X92341845Y-65368796D02*
X91998988Y-65440224D01*
X91998988Y-65440224D02*
X91827560Y-65511653D01*
X91827560Y-65511653D02*
X91656131Y-65654510D01*
X91656131Y-65654510D02*
X91570417Y-65868796D01*
X91570417Y-65868796D02*
X91570417Y-66011653D01*
X91570417Y-66011653D02*
X91656131Y-66225939D01*
X91656131Y-66225939D02*
X91741845Y-66297367D01*
X91484703Y-68011653D02*
X93798988Y-66725939D01*
X92427560Y-69011653D02*
X92513274Y-69225939D01*
X92513274Y-69225939D02*
X92598988Y-69297368D01*
X92598988Y-69297368D02*
X92770417Y-69368796D01*
X92770417Y-69368796D02*
X93027560Y-69368796D01*
X93027560Y-69368796D02*
X93198988Y-69297368D01*
X93198988Y-69297368D02*
X93284703Y-69225939D01*
X93284703Y-69225939D02*
X93370417Y-69083082D01*
X93370417Y-69083082D02*
X93370417Y-68511653D01*
X93370417Y-68511653D02*
X91570417Y-68511653D01*
X91570417Y-68511653D02*
X91570417Y-69011653D01*
X91570417Y-69011653D02*
X91656131Y-69154511D01*
X91656131Y-69154511D02*
X91741845Y-69225939D01*
X91741845Y-69225939D02*
X91913274Y-69297368D01*
X91913274Y-69297368D02*
X92084703Y-69297368D01*
X92084703Y-69297368D02*
X92256131Y-69225939D01*
X92256131Y-69225939D02*
X92341845Y-69154511D01*
X92341845Y-69154511D02*
X92427560Y-69011653D01*
X92427560Y-69011653D02*
X92427560Y-68511653D01*
X92684703Y-70011653D02*
X92684703Y-71154511D01*
X93370417Y-70583082D02*
X91998988Y-70583082D01*
X94468316Y-62011653D02*
X94468316Y-62940225D01*
X94468316Y-62940225D02*
X95154030Y-62440225D01*
X95154030Y-62440225D02*
X95154030Y-62654510D01*
X95154030Y-62654510D02*
X95239744Y-62797368D01*
X95239744Y-62797368D02*
X95325459Y-62868796D01*
X95325459Y-62868796D02*
X95496887Y-62940225D01*
X95496887Y-62940225D02*
X95925459Y-62940225D01*
X95925459Y-62940225D02*
X96096887Y-62868796D01*
X96096887Y-62868796D02*
X96182602Y-62797368D01*
X96182602Y-62797368D02*
X96268316Y-62654510D01*
X96268316Y-62654510D02*
X96268316Y-62225939D01*
X96268316Y-62225939D02*
X96182602Y-62083082D01*
X96182602Y-62083082D02*
X96096887Y-62011653D01*
X96096887Y-63583081D02*
X96182602Y-63654510D01*
X96182602Y-63654510D02*
X96268316Y-63583081D01*
X96268316Y-63583081D02*
X96182602Y-63511653D01*
X96182602Y-63511653D02*
X96096887Y-63583081D01*
X96096887Y-63583081D02*
X96268316Y-63583081D01*
X96268316Y-65440224D02*
X94468316Y-65440224D01*
X95325459Y-65440224D02*
X95325459Y-66297367D01*
X96268316Y-66297367D02*
X94468316Y-66297367D01*
X95754030Y-66940225D02*
X95754030Y-67654511D01*
X96268316Y-66797368D02*
X94468316Y-67297368D01*
X94468316Y-67297368D02*
X96268316Y-67797368D01*
X96268316Y-69011653D02*
X96268316Y-68297367D01*
X96268316Y-68297367D02*
X94468316Y-68297367D01*
X96268316Y-70225939D02*
X96268316Y-69511653D01*
X96268316Y-69511653D02*
X94468316Y-69511653D01*
X96268316Y-71511654D02*
X96268316Y-70654511D01*
X96268316Y-71083082D02*
X94468316Y-71083082D01*
X94468316Y-71083082D02*
X94725459Y-70940225D01*
X94725459Y-70940225D02*
X94896887Y-70797368D01*
X94896887Y-70797368D02*
X94982602Y-70654511D01*
X97966215Y-62797368D02*
X99166215Y-62797368D01*
X97280501Y-62440225D02*
X98566215Y-62083082D01*
X98566215Y-62083082D02*
X98566215Y-63011653D01*
X98994786Y-63583081D02*
X99080501Y-63654510D01*
X99080501Y-63654510D02*
X99166215Y-63583081D01*
X99166215Y-63583081D02*
X99080501Y-63511653D01*
X99080501Y-63511653D02*
X98994786Y-63583081D01*
X98994786Y-63583081D02*
X99166215Y-63583081D01*
X99166215Y-65440224D02*
X97366215Y-65440224D01*
X98223358Y-65440224D02*
X98223358Y-66297367D01*
X99166215Y-66297367D02*
X97366215Y-66297367D01*
X98651929Y-66940225D02*
X98651929Y-67654511D01*
X99166215Y-66797368D02*
X97366215Y-67297368D01*
X97366215Y-67297368D02*
X99166215Y-67797368D01*
X99166215Y-69011653D02*
X99166215Y-68297367D01*
X99166215Y-68297367D02*
X97366215Y-68297367D01*
X99166215Y-70225939D02*
X99166215Y-69511653D01*
X99166215Y-69511653D02*
X97366215Y-69511653D01*
X97537643Y-70654511D02*
X97451929Y-70725939D01*
X97451929Y-70725939D02*
X97366215Y-70868797D01*
X97366215Y-70868797D02*
X97366215Y-71225939D01*
X97366215Y-71225939D02*
X97451929Y-71368797D01*
X97451929Y-71368797D02*
X97537643Y-71440225D01*
X97537643Y-71440225D02*
X97709072Y-71511654D01*
X97709072Y-71511654D02*
X97880501Y-71511654D01*
X97880501Y-71511654D02*
X98137643Y-71440225D01*
X98137643Y-71440225D02*
X99166215Y-70583082D01*
X99166215Y-70583082D02*
X99166215Y-71511654D01*
X100264114Y-62868796D02*
X100264114Y-62154510D01*
X100264114Y-62154510D02*
X101121257Y-62083082D01*
X101121257Y-62083082D02*
X101035542Y-62154510D01*
X101035542Y-62154510D02*
X100949828Y-62297368D01*
X100949828Y-62297368D02*
X100949828Y-62654510D01*
X100949828Y-62654510D02*
X101035542Y-62797368D01*
X101035542Y-62797368D02*
X101121257Y-62868796D01*
X101121257Y-62868796D02*
X101292685Y-62940225D01*
X101292685Y-62940225D02*
X101721257Y-62940225D01*
X101721257Y-62940225D02*
X101892685Y-62868796D01*
X101892685Y-62868796D02*
X101978400Y-62797368D01*
X101978400Y-62797368D02*
X102064114Y-62654510D01*
X102064114Y-62654510D02*
X102064114Y-62297368D01*
X102064114Y-62297368D02*
X101978400Y-62154510D01*
X101978400Y-62154510D02*
X101892685Y-62083082D01*
X101892685Y-63583081D02*
X101978400Y-63654510D01*
X101978400Y-63654510D02*
X102064114Y-63583081D01*
X102064114Y-63583081D02*
X101978400Y-63511653D01*
X101978400Y-63511653D02*
X101892685Y-63583081D01*
X101892685Y-63583081D02*
X102064114Y-63583081D01*
X102064114Y-65440224D02*
X100264114Y-65440224D01*
X101121257Y-65440224D02*
X101121257Y-66297367D01*
X102064114Y-66297367D02*
X100264114Y-66297367D01*
X101549828Y-66940225D02*
X101549828Y-67654511D01*
X102064114Y-66797368D02*
X100264114Y-67297368D01*
X100264114Y-67297368D02*
X102064114Y-67797368D01*
X102064114Y-69011653D02*
X102064114Y-68297367D01*
X102064114Y-68297367D02*
X100264114Y-68297367D01*
X102064114Y-70225939D02*
X102064114Y-69511653D01*
X102064114Y-69511653D02*
X100264114Y-69511653D01*
X100264114Y-70583082D02*
X100264114Y-71511654D01*
X100264114Y-71511654D02*
X100949828Y-71011654D01*
X100949828Y-71011654D02*
X100949828Y-71225939D01*
X100949828Y-71225939D02*
X101035542Y-71368797D01*
X101035542Y-71368797D02*
X101121257Y-71440225D01*
X101121257Y-71440225D02*
X101292685Y-71511654D01*
X101292685Y-71511654D02*
X101721257Y-71511654D01*
X101721257Y-71511654D02*
X101892685Y-71440225D01*
X101892685Y-71440225D02*
X101978400Y-71368797D01*
X101978400Y-71368797D02*
X102064114Y-71225939D01*
X102064114Y-71225939D02*
X102064114Y-70797368D01*
X102064114Y-70797368D02*
X101978400Y-70654511D01*
X101978400Y-70654511D02*
X101892685Y-70583082D01*
X158616917Y-120396437D02*
X157902632Y-120396437D01*
X158759774Y-120853580D02*
X158259774Y-119253580D01*
X158259774Y-119253580D02*
X157759774Y-120853580D01*
X157402632Y-119253580D02*
X156402632Y-119253580D01*
X156402632Y-119253580D02*
X157045489Y-120853580D01*
X158616917Y-122972347D02*
X157902632Y-122972347D01*
X158759774Y-123429490D02*
X158259774Y-121829490D01*
X158259774Y-121829490D02*
X157759774Y-123429490D01*
X156545489Y-121829490D02*
X157259775Y-121829490D01*
X157259775Y-121829490D02*
X157331203Y-122591395D01*
X157331203Y-122591395D02*
X157259775Y-122515204D01*
X157259775Y-122515204D02*
X157116918Y-122439014D01*
X157116918Y-122439014D02*
X156759775Y-122439014D01*
X156759775Y-122439014D02*
X156616918Y-122515204D01*
X156616918Y-122515204D02*
X156545489Y-122591395D01*
X156545489Y-122591395D02*
X156474060Y-122743776D01*
X156474060Y-122743776D02*
X156474060Y-123124728D01*
X156474060Y-123124728D02*
X156545489Y-123277109D01*
X156545489Y-123277109D02*
X156616918Y-123353300D01*
X156616918Y-123353300D02*
X156759775Y-123429490D01*
X156759775Y-123429490D02*
X157116918Y-123429490D01*
X157116918Y-123429490D02*
X157259775Y-123353300D01*
X157259775Y-123353300D02*
X157331203Y-123277109D01*
X158616917Y-125548257D02*
X157902632Y-125548257D01*
X158759774Y-126005400D02*
X158259774Y-124405400D01*
X158259774Y-124405400D02*
X157759774Y-126005400D01*
X157402632Y-124405400D02*
X156474060Y-124405400D01*
X156474060Y-124405400D02*
X156974060Y-125014924D01*
X156974060Y-125014924D02*
X156759775Y-125014924D01*
X156759775Y-125014924D02*
X156616918Y-125091114D01*
X156616918Y-125091114D02*
X156545489Y-125167305D01*
X156545489Y-125167305D02*
X156474060Y-125319686D01*
X156474060Y-125319686D02*
X156474060Y-125700638D01*
X156474060Y-125700638D02*
X156545489Y-125853019D01*
X156545489Y-125853019D02*
X156616918Y-125929210D01*
X156616918Y-125929210D02*
X156759775Y-126005400D01*
X156759775Y-126005400D02*
X157188346Y-126005400D01*
X157188346Y-126005400D02*
X157331203Y-125929210D01*
X157331203Y-125929210D02*
X157402632Y-125853019D01*
X158616917Y-128124167D02*
X157902632Y-128124167D01*
X158759774Y-128581310D02*
X158259774Y-126981310D01*
X158259774Y-126981310D02*
X157759774Y-128581310D01*
X156474060Y-128581310D02*
X157331203Y-128581310D01*
X156902632Y-128581310D02*
X156902632Y-126981310D01*
X156902632Y-126981310D02*
X157045489Y-127209881D01*
X157045489Y-127209881D02*
X157188346Y-127362262D01*
X157188346Y-127362262D02*
X157331203Y-127438453D01*
X158545489Y-131157220D02*
X158545489Y-129557220D01*
X158545489Y-129557220D02*
X158188346Y-129557220D01*
X158188346Y-129557220D02*
X157974060Y-129633410D01*
X157974060Y-129633410D02*
X157831203Y-129785791D01*
X157831203Y-129785791D02*
X157759774Y-129938172D01*
X157759774Y-129938172D02*
X157688346Y-130242934D01*
X157688346Y-130242934D02*
X157688346Y-130471506D01*
X157688346Y-130471506D02*
X157759774Y-130776268D01*
X157759774Y-130776268D02*
X157831203Y-130928649D01*
X157831203Y-130928649D02*
X157974060Y-131081030D01*
X157974060Y-131081030D02*
X158188346Y-131157220D01*
X158188346Y-131157220D02*
X158545489Y-131157220D01*
X156402632Y-129557220D02*
X156688346Y-129557220D01*
X156688346Y-129557220D02*
X156831203Y-129633410D01*
X156831203Y-129633410D02*
X156902632Y-129709601D01*
X156902632Y-129709601D02*
X157045489Y-129938172D01*
X157045489Y-129938172D02*
X157116917Y-130242934D01*
X157116917Y-130242934D02*
X157116917Y-130852458D01*
X157116917Y-130852458D02*
X157045489Y-131004839D01*
X157045489Y-131004839D02*
X156974060Y-131081030D01*
X156974060Y-131081030D02*
X156831203Y-131157220D01*
X156831203Y-131157220D02*
X156545489Y-131157220D01*
X156545489Y-131157220D02*
X156402632Y-131081030D01*
X156402632Y-131081030D02*
X156331203Y-131004839D01*
X156331203Y-131004839D02*
X156259774Y-130852458D01*
X156259774Y-130852458D02*
X156259774Y-130471506D01*
X156259774Y-130471506D02*
X156331203Y-130319125D01*
X156331203Y-130319125D02*
X156402632Y-130242934D01*
X156402632Y-130242934D02*
X156545489Y-130166744D01*
X156545489Y-130166744D02*
X156831203Y-130166744D01*
X156831203Y-130166744D02*
X156974060Y-130242934D01*
X156974060Y-130242934D02*
X157045489Y-130319125D01*
X157045489Y-130319125D02*
X157116917Y-130471506D01*
X158545489Y-133733130D02*
X158545489Y-132133130D01*
X158545489Y-132133130D02*
X158188346Y-132133130D01*
X158188346Y-132133130D02*
X157974060Y-132209320D01*
X157974060Y-132209320D02*
X157831203Y-132361701D01*
X157831203Y-132361701D02*
X157759774Y-132514082D01*
X157759774Y-132514082D02*
X157688346Y-132818844D01*
X157688346Y-132818844D02*
X157688346Y-133047416D01*
X157688346Y-133047416D02*
X157759774Y-133352178D01*
X157759774Y-133352178D02*
X157831203Y-133504559D01*
X157831203Y-133504559D02*
X157974060Y-133656940D01*
X157974060Y-133656940D02*
X158188346Y-133733130D01*
X158188346Y-133733130D02*
X158545489Y-133733130D01*
X156402632Y-132666463D02*
X156402632Y-133733130D01*
X156759774Y-132056940D02*
X157116917Y-133199797D01*
X157116917Y-133199797D02*
X156188346Y-133199797D01*
X158545489Y-136309040D02*
X158545489Y-134709040D01*
X158545489Y-134709040D02*
X158188346Y-134709040D01*
X158188346Y-134709040D02*
X157974060Y-134785230D01*
X157974060Y-134785230D02*
X157831203Y-134937611D01*
X157831203Y-134937611D02*
X157759774Y-135089992D01*
X157759774Y-135089992D02*
X157688346Y-135394754D01*
X157688346Y-135394754D02*
X157688346Y-135623326D01*
X157688346Y-135623326D02*
X157759774Y-135928088D01*
X157759774Y-135928088D02*
X157831203Y-136080469D01*
X157831203Y-136080469D02*
X157974060Y-136232850D01*
X157974060Y-136232850D02*
X158188346Y-136309040D01*
X158188346Y-136309040D02*
X158545489Y-136309040D01*
X157116917Y-134861421D02*
X157045489Y-134785230D01*
X157045489Y-134785230D02*
X156902632Y-134709040D01*
X156902632Y-134709040D02*
X156545489Y-134709040D01*
X156545489Y-134709040D02*
X156402632Y-134785230D01*
X156402632Y-134785230D02*
X156331203Y-134861421D01*
X156331203Y-134861421D02*
X156259774Y-135013802D01*
X156259774Y-135013802D02*
X156259774Y-135166183D01*
X156259774Y-135166183D02*
X156331203Y-135394754D01*
X156331203Y-135394754D02*
X157188346Y-136309040D01*
X157188346Y-136309040D02*
X156259774Y-136309040D01*
X158545489Y-138884950D02*
X158545489Y-137284950D01*
X158545489Y-137284950D02*
X158188346Y-137284950D01*
X158188346Y-137284950D02*
X157974060Y-137361140D01*
X157974060Y-137361140D02*
X157831203Y-137513521D01*
X157831203Y-137513521D02*
X157759774Y-137665902D01*
X157759774Y-137665902D02*
X157688346Y-137970664D01*
X157688346Y-137970664D02*
X157688346Y-138199236D01*
X157688346Y-138199236D02*
X157759774Y-138503998D01*
X157759774Y-138503998D02*
X157831203Y-138656379D01*
X157831203Y-138656379D02*
X157974060Y-138808760D01*
X157974060Y-138808760D02*
X158188346Y-138884950D01*
X158188346Y-138884950D02*
X158545489Y-138884950D01*
X156759774Y-137284950D02*
X156616917Y-137284950D01*
X156616917Y-137284950D02*
X156474060Y-137361140D01*
X156474060Y-137361140D02*
X156402632Y-137437331D01*
X156402632Y-137437331D02*
X156331203Y-137589712D01*
X156331203Y-137589712D02*
X156259774Y-137894474D01*
X156259774Y-137894474D02*
X156259774Y-138275426D01*
X156259774Y-138275426D02*
X156331203Y-138580188D01*
X156331203Y-138580188D02*
X156402632Y-138732569D01*
X156402632Y-138732569D02*
X156474060Y-138808760D01*
X156474060Y-138808760D02*
X156616917Y-138884950D01*
X156616917Y-138884950D02*
X156759774Y-138884950D01*
X156759774Y-138884950D02*
X156902632Y-138808760D01*
X156902632Y-138808760D02*
X156974060Y-138732569D01*
X156974060Y-138732569D02*
X157045489Y-138580188D01*
X157045489Y-138580188D02*
X157116917Y-138275426D01*
X157116917Y-138275426D02*
X157116917Y-137894474D01*
X157116917Y-137894474D02*
X157045489Y-137589712D01*
X157045489Y-137589712D02*
X156974060Y-137437331D01*
X156974060Y-137437331D02*
X156902632Y-137361140D01*
X156902632Y-137361140D02*
X156759774Y-137284950D01*
X158545489Y-141460860D02*
X158545489Y-139860860D01*
X158545489Y-139860860D02*
X158188346Y-139860860D01*
X158188346Y-139860860D02*
X157974060Y-139937050D01*
X157974060Y-139937050D02*
X157831203Y-140089431D01*
X157831203Y-140089431D02*
X157759774Y-140241812D01*
X157759774Y-140241812D02*
X157688346Y-140546574D01*
X157688346Y-140546574D02*
X157688346Y-140775146D01*
X157688346Y-140775146D02*
X157759774Y-141079908D01*
X157759774Y-141079908D02*
X157831203Y-141232289D01*
X157831203Y-141232289D02*
X157974060Y-141384670D01*
X157974060Y-141384670D02*
X158188346Y-141460860D01*
X158188346Y-141460860D02*
X158545489Y-141460860D01*
X156974060Y-141460860D02*
X156688346Y-141460860D01*
X156688346Y-141460860D02*
X156545489Y-141384670D01*
X156545489Y-141384670D02*
X156474060Y-141308479D01*
X156474060Y-141308479D02*
X156331203Y-141079908D01*
X156331203Y-141079908D02*
X156259774Y-140775146D01*
X156259774Y-140775146D02*
X156259774Y-140165622D01*
X156259774Y-140165622D02*
X156331203Y-140013241D01*
X156331203Y-140013241D02*
X156402632Y-139937050D01*
X156402632Y-139937050D02*
X156545489Y-139860860D01*
X156545489Y-139860860D02*
X156831203Y-139860860D01*
X156831203Y-139860860D02*
X156974060Y-139937050D01*
X156974060Y-139937050D02*
X157045489Y-140013241D01*
X157045489Y-140013241D02*
X157116917Y-140165622D01*
X157116917Y-140165622D02*
X157116917Y-140546574D01*
X157116917Y-140546574D02*
X157045489Y-140698955D01*
X157045489Y-140698955D02*
X156974060Y-140775146D01*
X156974060Y-140775146D02*
X156831203Y-140851336D01*
X156831203Y-140851336D02*
X156545489Y-140851336D01*
X156545489Y-140851336D02*
X156402632Y-140775146D01*
X156402632Y-140775146D02*
X156331203Y-140698955D01*
X156331203Y-140698955D02*
X156259774Y-140546574D01*
X158545489Y-144036770D02*
X158545489Y-142436770D01*
X158545489Y-142436770D02*
X158188346Y-142436770D01*
X158188346Y-142436770D02*
X157974060Y-142512960D01*
X157974060Y-142512960D02*
X157831203Y-142665341D01*
X157831203Y-142665341D02*
X157759774Y-142817722D01*
X157759774Y-142817722D02*
X157688346Y-143122484D01*
X157688346Y-143122484D02*
X157688346Y-143351056D01*
X157688346Y-143351056D02*
X157759774Y-143655818D01*
X157759774Y-143655818D02*
X157831203Y-143808199D01*
X157831203Y-143808199D02*
X157974060Y-143960580D01*
X157974060Y-143960580D02*
X158188346Y-144036770D01*
X158188346Y-144036770D02*
X158545489Y-144036770D01*
X156831203Y-143122484D02*
X156974060Y-143046294D01*
X156974060Y-143046294D02*
X157045489Y-142970103D01*
X157045489Y-142970103D02*
X157116917Y-142817722D01*
X157116917Y-142817722D02*
X157116917Y-142741532D01*
X157116917Y-142741532D02*
X157045489Y-142589151D01*
X157045489Y-142589151D02*
X156974060Y-142512960D01*
X156974060Y-142512960D02*
X156831203Y-142436770D01*
X156831203Y-142436770D02*
X156545489Y-142436770D01*
X156545489Y-142436770D02*
X156402632Y-142512960D01*
X156402632Y-142512960D02*
X156331203Y-142589151D01*
X156331203Y-142589151D02*
X156259774Y-142741532D01*
X156259774Y-142741532D02*
X156259774Y-142817722D01*
X156259774Y-142817722D02*
X156331203Y-142970103D01*
X156331203Y-142970103D02*
X156402632Y-143046294D01*
X156402632Y-143046294D02*
X156545489Y-143122484D01*
X156545489Y-143122484D02*
X156831203Y-143122484D01*
X156831203Y-143122484D02*
X156974060Y-143198675D01*
X156974060Y-143198675D02*
X157045489Y-143274865D01*
X157045489Y-143274865D02*
X157116917Y-143427246D01*
X157116917Y-143427246D02*
X157116917Y-143732008D01*
X157116917Y-143732008D02*
X157045489Y-143884389D01*
X157045489Y-143884389D02*
X156974060Y-143960580D01*
X156974060Y-143960580D02*
X156831203Y-144036770D01*
X156831203Y-144036770D02*
X156545489Y-144036770D01*
X156545489Y-144036770D02*
X156402632Y-143960580D01*
X156402632Y-143960580D02*
X156331203Y-143884389D01*
X156331203Y-143884389D02*
X156259774Y-143732008D01*
X156259774Y-143732008D02*
X156259774Y-143427246D01*
X156259774Y-143427246D02*
X156331203Y-143274865D01*
X156331203Y-143274865D02*
X156402632Y-143198675D01*
X156402632Y-143198675D02*
X156545489Y-143122484D01*
X157759774Y-145088870D02*
X157902632Y-145012680D01*
X157902632Y-145012680D02*
X158116917Y-145012680D01*
X158116917Y-145012680D02*
X158331203Y-145088870D01*
X158331203Y-145088870D02*
X158474060Y-145241251D01*
X158474060Y-145241251D02*
X158545489Y-145393632D01*
X158545489Y-145393632D02*
X158616917Y-145698394D01*
X158616917Y-145698394D02*
X158616917Y-145926966D01*
X158616917Y-145926966D02*
X158545489Y-146231728D01*
X158545489Y-146231728D02*
X158474060Y-146384109D01*
X158474060Y-146384109D02*
X158331203Y-146536490D01*
X158331203Y-146536490D02*
X158116917Y-146612680D01*
X158116917Y-146612680D02*
X157974060Y-146612680D01*
X157974060Y-146612680D02*
X157759774Y-146536490D01*
X157759774Y-146536490D02*
X157688346Y-146460299D01*
X157688346Y-146460299D02*
X157688346Y-145926966D01*
X157688346Y-145926966D02*
X157974060Y-145926966D01*
X156259774Y-146612680D02*
X157116917Y-146612680D01*
X156688346Y-146612680D02*
X156688346Y-145012680D01*
X156688346Y-145012680D02*
X156831203Y-145241251D01*
X156831203Y-145241251D02*
X156974060Y-145393632D01*
X156974060Y-145393632D02*
X157116917Y-145469823D01*
X157759774Y-147664780D02*
X157902632Y-147588590D01*
X157902632Y-147588590D02*
X158116917Y-147588590D01*
X158116917Y-147588590D02*
X158331203Y-147664780D01*
X158331203Y-147664780D02*
X158474060Y-147817161D01*
X158474060Y-147817161D02*
X158545489Y-147969542D01*
X158545489Y-147969542D02*
X158616917Y-148274304D01*
X158616917Y-148274304D02*
X158616917Y-148502876D01*
X158616917Y-148502876D02*
X158545489Y-148807638D01*
X158545489Y-148807638D02*
X158474060Y-148960019D01*
X158474060Y-148960019D02*
X158331203Y-149112400D01*
X158331203Y-149112400D02*
X158116917Y-149188590D01*
X158116917Y-149188590D02*
X157974060Y-149188590D01*
X157974060Y-149188590D02*
X157759774Y-149112400D01*
X157759774Y-149112400D02*
X157688346Y-149036209D01*
X157688346Y-149036209D02*
X157688346Y-148502876D01*
X157688346Y-148502876D02*
X157974060Y-148502876D01*
X157188346Y-147588590D02*
X156259774Y-147588590D01*
X156259774Y-147588590D02*
X156759774Y-148198114D01*
X156759774Y-148198114D02*
X156545489Y-148198114D01*
X156545489Y-148198114D02*
X156402632Y-148274304D01*
X156402632Y-148274304D02*
X156331203Y-148350495D01*
X156331203Y-148350495D02*
X156259774Y-148502876D01*
X156259774Y-148502876D02*
X156259774Y-148883828D01*
X156259774Y-148883828D02*
X156331203Y-149036209D01*
X156331203Y-149036209D02*
X156402632Y-149112400D01*
X156402632Y-149112400D02*
X156545489Y-149188590D01*
X156545489Y-149188590D02*
X156974060Y-149188590D01*
X156974060Y-149188590D02*
X157116917Y-149112400D01*
X157116917Y-149112400D02*
X157188346Y-149036209D01*
X88672518Y-74597368D02*
X88672518Y-74311653D01*
X88672518Y-74311653D02*
X88758232Y-74168796D01*
X88758232Y-74168796D02*
X88843946Y-74097368D01*
X88843946Y-74097368D02*
X89101089Y-73954510D01*
X89101089Y-73954510D02*
X89443946Y-73883082D01*
X89443946Y-73883082D02*
X90129661Y-73883082D01*
X90129661Y-73883082D02*
X90301089Y-73954510D01*
X90301089Y-73954510D02*
X90386804Y-74025939D01*
X90386804Y-74025939D02*
X90472518Y-74168796D01*
X90472518Y-74168796D02*
X90472518Y-74454510D01*
X90472518Y-74454510D02*
X90386804Y-74597368D01*
X90386804Y-74597368D02*
X90301089Y-74668796D01*
X90301089Y-74668796D02*
X90129661Y-74740225D01*
X90129661Y-74740225D02*
X89701089Y-74740225D01*
X89701089Y-74740225D02*
X89529661Y-74668796D01*
X89529661Y-74668796D02*
X89443946Y-74597368D01*
X89443946Y-74597368D02*
X89358232Y-74454510D01*
X89358232Y-74454510D02*
X89358232Y-74168796D01*
X89358232Y-74168796D02*
X89443946Y-74025939D01*
X89443946Y-74025939D02*
X89529661Y-73954510D01*
X89529661Y-73954510D02*
X89701089Y-73883082D01*
X90301089Y-75383081D02*
X90386804Y-75454510D01*
X90386804Y-75454510D02*
X90472518Y-75383081D01*
X90472518Y-75383081D02*
X90386804Y-75311653D01*
X90386804Y-75311653D02*
X90301089Y-75383081D01*
X90301089Y-75383081D02*
X90472518Y-75383081D01*
X89529661Y-77740224D02*
X89615375Y-77954510D01*
X89615375Y-77954510D02*
X89701089Y-78025939D01*
X89701089Y-78025939D02*
X89872518Y-78097367D01*
X89872518Y-78097367D02*
X90129661Y-78097367D01*
X90129661Y-78097367D02*
X90301089Y-78025939D01*
X90301089Y-78025939D02*
X90386804Y-77954510D01*
X90386804Y-77954510D02*
X90472518Y-77811653D01*
X90472518Y-77811653D02*
X90472518Y-77240224D01*
X90472518Y-77240224D02*
X88672518Y-77240224D01*
X88672518Y-77240224D02*
X88672518Y-77740224D01*
X88672518Y-77740224D02*
X88758232Y-77883082D01*
X88758232Y-77883082D02*
X88843946Y-77954510D01*
X88843946Y-77954510D02*
X89015375Y-78025939D01*
X89015375Y-78025939D02*
X89186804Y-78025939D01*
X89186804Y-78025939D02*
X89358232Y-77954510D01*
X89358232Y-77954510D02*
X89443946Y-77883082D01*
X89443946Y-77883082D02*
X89529661Y-77740224D01*
X89529661Y-77740224D02*
X89529661Y-77240224D01*
X88586804Y-79811653D02*
X90901089Y-78525939D01*
X89958232Y-80240225D02*
X89958232Y-80954511D01*
X90472518Y-80097368D02*
X88672518Y-80597368D01*
X88672518Y-80597368D02*
X90472518Y-81097368D01*
X89786804Y-81597367D02*
X89786804Y-82740225D01*
X91570417Y-73811653D02*
X91570417Y-74811653D01*
X91570417Y-74811653D02*
X93370417Y-74168796D01*
X93198988Y-75383081D02*
X93284703Y-75454510D01*
X93284703Y-75454510D02*
X93370417Y-75383081D01*
X93370417Y-75383081D02*
X93284703Y-75311653D01*
X93284703Y-75311653D02*
X93198988Y-75383081D01*
X93198988Y-75383081D02*
X93370417Y-75383081D01*
X92427560Y-77740224D02*
X92513274Y-77954510D01*
X92513274Y-77954510D02*
X92598988Y-78025939D01*
X92598988Y-78025939D02*
X92770417Y-78097367D01*
X92770417Y-78097367D02*
X93027560Y-78097367D01*
X93027560Y-78097367D02*
X93198988Y-78025939D01*
X93198988Y-78025939D02*
X93284703Y-77954510D01*
X93284703Y-77954510D02*
X93370417Y-77811653D01*
X93370417Y-77811653D02*
X93370417Y-77240224D01*
X93370417Y-77240224D02*
X91570417Y-77240224D01*
X91570417Y-77240224D02*
X91570417Y-77740224D01*
X91570417Y-77740224D02*
X91656131Y-77883082D01*
X91656131Y-77883082D02*
X91741845Y-77954510D01*
X91741845Y-77954510D02*
X91913274Y-78025939D01*
X91913274Y-78025939D02*
X92084703Y-78025939D01*
X92084703Y-78025939D02*
X92256131Y-77954510D01*
X92256131Y-77954510D02*
X92341845Y-77883082D01*
X92341845Y-77883082D02*
X92427560Y-77740224D01*
X92427560Y-77740224D02*
X92427560Y-77240224D01*
X93370417Y-79597367D02*
X92513274Y-79097367D01*
X93370417Y-78740224D02*
X91570417Y-78740224D01*
X91570417Y-78740224D02*
X91570417Y-79311653D01*
X91570417Y-79311653D02*
X91656131Y-79454510D01*
X91656131Y-79454510D02*
X91741845Y-79525939D01*
X91741845Y-79525939D02*
X91913274Y-79597367D01*
X91913274Y-79597367D02*
X92170417Y-79597367D01*
X92170417Y-79597367D02*
X92341845Y-79525939D01*
X92341845Y-79525939D02*
X92427560Y-79454510D01*
X92427560Y-79454510D02*
X92513274Y-79311653D01*
X92513274Y-79311653D02*
X92513274Y-78740224D01*
X91484703Y-81311653D02*
X93798988Y-80025939D01*
X92427560Y-82311653D02*
X92513274Y-82525939D01*
X92513274Y-82525939D02*
X92598988Y-82597368D01*
X92598988Y-82597368D02*
X92770417Y-82668796D01*
X92770417Y-82668796D02*
X93027560Y-82668796D01*
X93027560Y-82668796D02*
X93198988Y-82597368D01*
X93198988Y-82597368D02*
X93284703Y-82525939D01*
X93284703Y-82525939D02*
X93370417Y-82383082D01*
X93370417Y-82383082D02*
X93370417Y-81811653D01*
X93370417Y-81811653D02*
X91570417Y-81811653D01*
X91570417Y-81811653D02*
X91570417Y-82311653D01*
X91570417Y-82311653D02*
X91656131Y-82454511D01*
X91656131Y-82454511D02*
X91741845Y-82525939D01*
X91741845Y-82525939D02*
X91913274Y-82597368D01*
X91913274Y-82597368D02*
X92084703Y-82597368D01*
X92084703Y-82597368D02*
X92256131Y-82525939D01*
X92256131Y-82525939D02*
X92341845Y-82454511D01*
X92341845Y-82454511D02*
X92427560Y-82311653D01*
X92427560Y-82311653D02*
X92427560Y-81811653D01*
X92684703Y-83311653D02*
X92684703Y-84454511D01*
X95239744Y-74168796D02*
X95154030Y-74025939D01*
X95154030Y-74025939D02*
X95068316Y-73954510D01*
X95068316Y-73954510D02*
X94896887Y-73883082D01*
X94896887Y-73883082D02*
X94811173Y-73883082D01*
X94811173Y-73883082D02*
X94639744Y-73954510D01*
X94639744Y-73954510D02*
X94554030Y-74025939D01*
X94554030Y-74025939D02*
X94468316Y-74168796D01*
X94468316Y-74168796D02*
X94468316Y-74454510D01*
X94468316Y-74454510D02*
X94554030Y-74597368D01*
X94554030Y-74597368D02*
X94639744Y-74668796D01*
X94639744Y-74668796D02*
X94811173Y-74740225D01*
X94811173Y-74740225D02*
X94896887Y-74740225D01*
X94896887Y-74740225D02*
X95068316Y-74668796D01*
X95068316Y-74668796D02*
X95154030Y-74597368D01*
X95154030Y-74597368D02*
X95239744Y-74454510D01*
X95239744Y-74454510D02*
X95239744Y-74168796D01*
X95239744Y-74168796D02*
X95325459Y-74025939D01*
X95325459Y-74025939D02*
X95411173Y-73954510D01*
X95411173Y-73954510D02*
X95582602Y-73883082D01*
X95582602Y-73883082D02*
X95925459Y-73883082D01*
X95925459Y-73883082D02*
X96096887Y-73954510D01*
X96096887Y-73954510D02*
X96182602Y-74025939D01*
X96182602Y-74025939D02*
X96268316Y-74168796D01*
X96268316Y-74168796D02*
X96268316Y-74454510D01*
X96268316Y-74454510D02*
X96182602Y-74597368D01*
X96182602Y-74597368D02*
X96096887Y-74668796D01*
X96096887Y-74668796D02*
X95925459Y-74740225D01*
X95925459Y-74740225D02*
X95582602Y-74740225D01*
X95582602Y-74740225D02*
X95411173Y-74668796D01*
X95411173Y-74668796D02*
X95325459Y-74597368D01*
X95325459Y-74597368D02*
X95239744Y-74454510D01*
X96096887Y-75383081D02*
X96182602Y-75454510D01*
X96182602Y-75454510D02*
X96268316Y-75383081D01*
X96268316Y-75383081D02*
X96182602Y-75311653D01*
X96182602Y-75311653D02*
X96096887Y-75383081D01*
X96096887Y-75383081D02*
X96268316Y-75383081D01*
X95582602Y-77240224D02*
X95582602Y-78383082D01*
X96268316Y-77811653D02*
X94896887Y-77811653D01*
X94468316Y-79811653D02*
X94468316Y-79097367D01*
X94468316Y-79097367D02*
X95325459Y-79025939D01*
X95325459Y-79025939D02*
X95239744Y-79097367D01*
X95239744Y-79097367D02*
X95154030Y-79240225D01*
X95154030Y-79240225D02*
X95154030Y-79597367D01*
X95154030Y-79597367D02*
X95239744Y-79740225D01*
X95239744Y-79740225D02*
X95325459Y-79811653D01*
X95325459Y-79811653D02*
X95496887Y-79883082D01*
X95496887Y-79883082D02*
X95925459Y-79883082D01*
X95925459Y-79883082D02*
X96096887Y-79811653D01*
X96096887Y-79811653D02*
X96182602Y-79740225D01*
X96182602Y-79740225D02*
X96268316Y-79597367D01*
X96268316Y-79597367D02*
X96268316Y-79240225D01*
X96268316Y-79240225D02*
X96182602Y-79097367D01*
X96182602Y-79097367D02*
X96096887Y-79025939D01*
X94468316Y-80311653D02*
X96268316Y-80811653D01*
X96268316Y-80811653D02*
X94468316Y-81311653D01*
X94468316Y-82097367D02*
X94468316Y-82383081D01*
X94468316Y-82383081D02*
X94554030Y-82525938D01*
X94554030Y-82525938D02*
X94725459Y-82668795D01*
X94725459Y-82668795D02*
X95068316Y-82740224D01*
X95068316Y-82740224D02*
X95668316Y-82740224D01*
X95668316Y-82740224D02*
X96011173Y-82668795D01*
X96011173Y-82668795D02*
X96182602Y-82525938D01*
X96182602Y-82525938D02*
X96268316Y-82383081D01*
X96268316Y-82383081D02*
X96268316Y-82097367D01*
X96268316Y-82097367D02*
X96182602Y-81954510D01*
X96182602Y-81954510D02*
X96011173Y-81811652D01*
X96011173Y-81811652D02*
X95668316Y-81740224D01*
X95668316Y-81740224D02*
X95068316Y-81740224D01*
X95068316Y-81740224D02*
X94725459Y-81811652D01*
X94725459Y-81811652D02*
X94554030Y-81954510D01*
X94554030Y-81954510D02*
X94468316Y-82097367D01*
X94468316Y-83383081D02*
X95925459Y-83383081D01*
X95925459Y-83383081D02*
X96096887Y-83454510D01*
X96096887Y-83454510D02*
X96182602Y-83525939D01*
X96182602Y-83525939D02*
X96268316Y-83668796D01*
X96268316Y-83668796D02*
X96268316Y-83954510D01*
X96268316Y-83954510D02*
X96182602Y-84097367D01*
X96182602Y-84097367D02*
X96096887Y-84168796D01*
X96096887Y-84168796D02*
X95925459Y-84240224D01*
X95925459Y-84240224D02*
X94468316Y-84240224D01*
X94468316Y-84740225D02*
X94468316Y-85597368D01*
X96268316Y-85168796D02*
X94468316Y-85168796D01*
X99166215Y-74025939D02*
X99166215Y-74311653D01*
X99166215Y-74311653D02*
X99080501Y-74454510D01*
X99080501Y-74454510D02*
X98994786Y-74525939D01*
X98994786Y-74525939D02*
X98737643Y-74668796D01*
X98737643Y-74668796D02*
X98394786Y-74740225D01*
X98394786Y-74740225D02*
X97709072Y-74740225D01*
X97709072Y-74740225D02*
X97537643Y-74668796D01*
X97537643Y-74668796D02*
X97451929Y-74597368D01*
X97451929Y-74597368D02*
X97366215Y-74454510D01*
X97366215Y-74454510D02*
X97366215Y-74168796D01*
X97366215Y-74168796D02*
X97451929Y-74025939D01*
X97451929Y-74025939D02*
X97537643Y-73954510D01*
X97537643Y-73954510D02*
X97709072Y-73883082D01*
X97709072Y-73883082D02*
X98137643Y-73883082D01*
X98137643Y-73883082D02*
X98309072Y-73954510D01*
X98309072Y-73954510D02*
X98394786Y-74025939D01*
X98394786Y-74025939D02*
X98480501Y-74168796D01*
X98480501Y-74168796D02*
X98480501Y-74454510D01*
X98480501Y-74454510D02*
X98394786Y-74597368D01*
X98394786Y-74597368D02*
X98309072Y-74668796D01*
X98309072Y-74668796D02*
X98137643Y-74740225D01*
X98994786Y-75383081D02*
X99080501Y-75454510D01*
X99080501Y-75454510D02*
X99166215Y-75383081D01*
X99166215Y-75383081D02*
X99080501Y-75311653D01*
X99080501Y-75311653D02*
X98994786Y-75383081D01*
X98994786Y-75383081D02*
X99166215Y-75383081D01*
X97451929Y-78025939D02*
X97366215Y-77883082D01*
X97366215Y-77883082D02*
X97366215Y-77668796D01*
X97366215Y-77668796D02*
X97451929Y-77454510D01*
X97451929Y-77454510D02*
X97623358Y-77311653D01*
X97623358Y-77311653D02*
X97794786Y-77240224D01*
X97794786Y-77240224D02*
X98137643Y-77168796D01*
X98137643Y-77168796D02*
X98394786Y-77168796D01*
X98394786Y-77168796D02*
X98737643Y-77240224D01*
X98737643Y-77240224D02*
X98909072Y-77311653D01*
X98909072Y-77311653D02*
X99080501Y-77454510D01*
X99080501Y-77454510D02*
X99166215Y-77668796D01*
X99166215Y-77668796D02*
X99166215Y-77811653D01*
X99166215Y-77811653D02*
X99080501Y-78025939D01*
X99080501Y-78025939D02*
X98994786Y-78097367D01*
X98994786Y-78097367D02*
X98394786Y-78097367D01*
X98394786Y-78097367D02*
X98394786Y-77811653D01*
X99166215Y-78740224D02*
X97366215Y-78740224D01*
X97366215Y-78740224D02*
X99166215Y-79597367D01*
X99166215Y-79597367D02*
X97366215Y-79597367D01*
X99166215Y-80311653D02*
X97366215Y-80311653D01*
X97366215Y-80311653D02*
X97366215Y-80668796D01*
X97366215Y-80668796D02*
X97451929Y-80883082D01*
X97451929Y-80883082D02*
X97623358Y-81025939D01*
X97623358Y-81025939D02*
X97794786Y-81097368D01*
X97794786Y-81097368D02*
X98137643Y-81168796D01*
X98137643Y-81168796D02*
X98394786Y-81168796D01*
X98394786Y-81168796D02*
X98737643Y-81097368D01*
X98737643Y-81097368D02*
X98909072Y-81025939D01*
X98909072Y-81025939D02*
X99080501Y-80883082D01*
X99080501Y-80883082D02*
X99166215Y-80668796D01*
X99166215Y-80668796D02*
X99166215Y-80311653D01*
X102064114Y-74740225D02*
X102064114Y-73883082D01*
X102064114Y-74311653D02*
X100264114Y-74311653D01*
X100264114Y-74311653D02*
X100521257Y-74168796D01*
X100521257Y-74168796D02*
X100692685Y-74025939D01*
X100692685Y-74025939D02*
X100778400Y-73883082D01*
X100264114Y-75668796D02*
X100264114Y-75811653D01*
X100264114Y-75811653D02*
X100349828Y-75954510D01*
X100349828Y-75954510D02*
X100435542Y-76025939D01*
X100435542Y-76025939D02*
X100606971Y-76097367D01*
X100606971Y-76097367D02*
X100949828Y-76168796D01*
X100949828Y-76168796D02*
X101378400Y-76168796D01*
X101378400Y-76168796D02*
X101721257Y-76097367D01*
X101721257Y-76097367D02*
X101892685Y-76025939D01*
X101892685Y-76025939D02*
X101978400Y-75954510D01*
X101978400Y-75954510D02*
X102064114Y-75811653D01*
X102064114Y-75811653D02*
X102064114Y-75668796D01*
X102064114Y-75668796D02*
X101978400Y-75525939D01*
X101978400Y-75525939D02*
X101892685Y-75454510D01*
X101892685Y-75454510D02*
X101721257Y-75383081D01*
X101721257Y-75383081D02*
X101378400Y-75311653D01*
X101378400Y-75311653D02*
X100949828Y-75311653D01*
X100949828Y-75311653D02*
X100606971Y-75383081D01*
X100606971Y-75383081D02*
X100435542Y-75454510D01*
X100435542Y-75454510D02*
X100349828Y-75525939D01*
X100349828Y-75525939D02*
X100264114Y-75668796D01*
X101892685Y-76811652D02*
X101978400Y-76883081D01*
X101978400Y-76883081D02*
X102064114Y-76811652D01*
X102064114Y-76811652D02*
X101978400Y-76740224D01*
X101978400Y-76740224D02*
X101892685Y-76811652D01*
X101892685Y-76811652D02*
X102064114Y-76811652D01*
X100349828Y-79454510D02*
X100264114Y-79311653D01*
X100264114Y-79311653D02*
X100264114Y-79097367D01*
X100264114Y-79097367D02*
X100349828Y-78883081D01*
X100349828Y-78883081D02*
X100521257Y-78740224D01*
X100521257Y-78740224D02*
X100692685Y-78668795D01*
X100692685Y-78668795D02*
X101035542Y-78597367D01*
X101035542Y-78597367D02*
X101292685Y-78597367D01*
X101292685Y-78597367D02*
X101635542Y-78668795D01*
X101635542Y-78668795D02*
X101806971Y-78740224D01*
X101806971Y-78740224D02*
X101978400Y-78883081D01*
X101978400Y-78883081D02*
X102064114Y-79097367D01*
X102064114Y-79097367D02*
X102064114Y-79240224D01*
X102064114Y-79240224D02*
X101978400Y-79454510D01*
X101978400Y-79454510D02*
X101892685Y-79525938D01*
X101892685Y-79525938D02*
X101292685Y-79525938D01*
X101292685Y-79525938D02*
X101292685Y-79240224D01*
X102064114Y-80168795D02*
X100264114Y-80168795D01*
X100264114Y-80168795D02*
X102064114Y-81025938D01*
X102064114Y-81025938D02*
X100264114Y-81025938D01*
X102064114Y-81740224D02*
X100264114Y-81740224D01*
X100264114Y-81740224D02*
X100264114Y-82097367D01*
X100264114Y-82097367D02*
X100349828Y-82311653D01*
X100349828Y-82311653D02*
X100521257Y-82454510D01*
X100521257Y-82454510D02*
X100692685Y-82525939D01*
X100692685Y-82525939D02*
X101035542Y-82597367D01*
X101035542Y-82597367D02*
X101292685Y-82597367D01*
X101292685Y-82597367D02*
X101635542Y-82525939D01*
X101635542Y-82525939D02*
X101806971Y-82454510D01*
X101806971Y-82454510D02*
X101978400Y-82311653D01*
X101978400Y-82311653D02*
X102064114Y-82097367D01*
X102064114Y-82097367D02*
X102064114Y-81740224D01*
X256540224Y-119760860D02*
X257254510Y-119760860D01*
X257254510Y-119760860D02*
X257325938Y-120522765D01*
X257325938Y-120522765D02*
X257254510Y-120446574D01*
X257254510Y-120446574D02*
X257111653Y-120370384D01*
X257111653Y-120370384D02*
X256754510Y-120370384D01*
X256754510Y-120370384D02*
X256611653Y-120446574D01*
X256611653Y-120446574D02*
X256540224Y-120522765D01*
X256540224Y-120522765D02*
X256468795Y-120675146D01*
X256468795Y-120675146D02*
X256468795Y-121056098D01*
X256468795Y-121056098D02*
X256540224Y-121208479D01*
X256540224Y-121208479D02*
X256611653Y-121284670D01*
X256611653Y-121284670D02*
X256754510Y-121360860D01*
X256754510Y-121360860D02*
X257111653Y-121360860D01*
X257111653Y-121360860D02*
X257254510Y-121284670D01*
X257254510Y-121284670D02*
X257325938Y-121208479D01*
X256040224Y-119760860D02*
X255540224Y-121360860D01*
X255540224Y-121360860D02*
X255040224Y-119760860D01*
X258825938Y-123860580D02*
X258611653Y-123936770D01*
X258611653Y-123936770D02*
X258254510Y-123936770D01*
X258254510Y-123936770D02*
X258111653Y-123860580D01*
X258111653Y-123860580D02*
X258040224Y-123784389D01*
X258040224Y-123784389D02*
X257968795Y-123632008D01*
X257968795Y-123632008D02*
X257968795Y-123479627D01*
X257968795Y-123479627D02*
X258040224Y-123327246D01*
X258040224Y-123327246D02*
X258111653Y-123251056D01*
X258111653Y-123251056D02*
X258254510Y-123174865D01*
X258254510Y-123174865D02*
X258540224Y-123098675D01*
X258540224Y-123098675D02*
X258683081Y-123022484D01*
X258683081Y-123022484D02*
X258754510Y-122946294D01*
X258754510Y-122946294D02*
X258825938Y-122793913D01*
X258825938Y-122793913D02*
X258825938Y-122641532D01*
X258825938Y-122641532D02*
X258754510Y-122489151D01*
X258754510Y-122489151D02*
X258683081Y-122412960D01*
X258683081Y-122412960D02*
X258540224Y-122336770D01*
X258540224Y-122336770D02*
X258183081Y-122336770D01*
X258183081Y-122336770D02*
X257968795Y-122412960D01*
X257325939Y-123936770D02*
X257325939Y-122336770D01*
X257325939Y-122336770D02*
X256968796Y-122336770D01*
X256968796Y-122336770D02*
X256754510Y-122412960D01*
X256754510Y-122412960D02*
X256611653Y-122565341D01*
X256611653Y-122565341D02*
X256540224Y-122717722D01*
X256540224Y-122717722D02*
X256468796Y-123022484D01*
X256468796Y-123022484D02*
X256468796Y-123251056D01*
X256468796Y-123251056D02*
X256540224Y-123555818D01*
X256540224Y-123555818D02*
X256611653Y-123708199D01*
X256611653Y-123708199D02*
X256754510Y-123860580D01*
X256754510Y-123860580D02*
X256968796Y-123936770D01*
X256968796Y-123936770D02*
X257325939Y-123936770D01*
X255897367Y-123479627D02*
X255183082Y-123479627D01*
X256040224Y-123936770D02*
X255540224Y-122336770D01*
X255540224Y-122336770D02*
X255040224Y-123936770D01*
X258754510Y-126436490D02*
X258540225Y-126512680D01*
X258540225Y-126512680D02*
X258183082Y-126512680D01*
X258183082Y-126512680D02*
X258040225Y-126436490D01*
X258040225Y-126436490D02*
X257968796Y-126360299D01*
X257968796Y-126360299D02*
X257897367Y-126207918D01*
X257897367Y-126207918D02*
X257897367Y-126055537D01*
X257897367Y-126055537D02*
X257968796Y-125903156D01*
X257968796Y-125903156D02*
X258040225Y-125826966D01*
X258040225Y-125826966D02*
X258183082Y-125750775D01*
X258183082Y-125750775D02*
X258468796Y-125674585D01*
X258468796Y-125674585D02*
X258611653Y-125598394D01*
X258611653Y-125598394D02*
X258683082Y-125522204D01*
X258683082Y-125522204D02*
X258754510Y-125369823D01*
X258754510Y-125369823D02*
X258754510Y-125217442D01*
X258754510Y-125217442D02*
X258683082Y-125065061D01*
X258683082Y-125065061D02*
X258611653Y-124988870D01*
X258611653Y-124988870D02*
X258468796Y-124912680D01*
X258468796Y-124912680D02*
X258111653Y-124912680D01*
X258111653Y-124912680D02*
X257897367Y-124988870D01*
X256397368Y-126360299D02*
X256468796Y-126436490D01*
X256468796Y-126436490D02*
X256683082Y-126512680D01*
X256683082Y-126512680D02*
X256825939Y-126512680D01*
X256825939Y-126512680D02*
X257040225Y-126436490D01*
X257040225Y-126436490D02*
X257183082Y-126284109D01*
X257183082Y-126284109D02*
X257254511Y-126131728D01*
X257254511Y-126131728D02*
X257325939Y-125826966D01*
X257325939Y-125826966D02*
X257325939Y-125598394D01*
X257325939Y-125598394D02*
X257254511Y-125293632D01*
X257254511Y-125293632D02*
X257183082Y-125141251D01*
X257183082Y-125141251D02*
X257040225Y-124988870D01*
X257040225Y-124988870D02*
X256825939Y-124912680D01*
X256825939Y-124912680D02*
X256683082Y-124912680D01*
X256683082Y-124912680D02*
X256468796Y-124988870D01*
X256468796Y-124988870D02*
X256397368Y-125065061D01*
X255040225Y-126512680D02*
X255754511Y-126512680D01*
X255754511Y-126512680D02*
X255754511Y-124912680D01*
X258325939Y-127564780D02*
X258468797Y-127488590D01*
X258468797Y-127488590D02*
X258683082Y-127488590D01*
X258683082Y-127488590D02*
X258897368Y-127564780D01*
X258897368Y-127564780D02*
X259040225Y-127717161D01*
X259040225Y-127717161D02*
X259111654Y-127869542D01*
X259111654Y-127869542D02*
X259183082Y-128174304D01*
X259183082Y-128174304D02*
X259183082Y-128402876D01*
X259183082Y-128402876D02*
X259111654Y-128707638D01*
X259111654Y-128707638D02*
X259040225Y-128860019D01*
X259040225Y-128860019D02*
X258897368Y-129012400D01*
X258897368Y-129012400D02*
X258683082Y-129088590D01*
X258683082Y-129088590D02*
X258540225Y-129088590D01*
X258540225Y-129088590D02*
X258325939Y-129012400D01*
X258325939Y-129012400D02*
X258254511Y-128936209D01*
X258254511Y-128936209D02*
X258254511Y-128402876D01*
X258254511Y-128402876D02*
X258540225Y-128402876D01*
X257611654Y-129088590D02*
X257611654Y-127488590D01*
X257611654Y-127488590D02*
X256754511Y-129088590D01*
X256754511Y-129088590D02*
X256754511Y-127488590D01*
X256040225Y-129088590D02*
X256040225Y-127488590D01*
X256040225Y-127488590D02*
X255683082Y-127488590D01*
X255683082Y-127488590D02*
X255468796Y-127564780D01*
X255468796Y-127564780D02*
X255325939Y-127717161D01*
X255325939Y-127717161D02*
X255254510Y-127869542D01*
X255254510Y-127869542D02*
X255183082Y-128174304D01*
X255183082Y-128174304D02*
X255183082Y-128402876D01*
X255183082Y-128402876D02*
X255254510Y-128707638D01*
X255254510Y-128707638D02*
X255325939Y-128860019D01*
X255325939Y-128860019D02*
X255468796Y-129012400D01*
X255468796Y-129012400D02*
X255683082Y-129088590D01*
X255683082Y-129088590D02*
X256040225Y-129088590D01*
X256397368Y-78750495D02*
X255897368Y-78750495D01*
X255683082Y-79588590D02*
X256397368Y-79588590D01*
X256397368Y-79588590D02*
X256397368Y-77988590D01*
X256397368Y-77988590D02*
X255683082Y-77988590D01*
X255040225Y-79588590D02*
X255040225Y-77988590D01*
X255040225Y-77988590D02*
X254183082Y-79588590D01*
X254183082Y-79588590D02*
X254183082Y-77988590D01*
X252611653Y-79436209D02*
X252683081Y-79512400D01*
X252683081Y-79512400D02*
X252897367Y-79588590D01*
X252897367Y-79588590D02*
X253040224Y-79588590D01*
X253040224Y-79588590D02*
X253254510Y-79512400D01*
X253254510Y-79512400D02*
X253397367Y-79360019D01*
X253397367Y-79360019D02*
X253468796Y-79207638D01*
X253468796Y-79207638D02*
X253540224Y-78902876D01*
X253540224Y-78902876D02*
X253540224Y-78674304D01*
X253540224Y-78674304D02*
X253468796Y-78369542D01*
X253468796Y-78369542D02*
X253397367Y-78217161D01*
X253397367Y-78217161D02*
X253254510Y-78064780D01*
X253254510Y-78064780D02*
X253040224Y-77988590D01*
X253040224Y-77988590D02*
X252897367Y-77988590D01*
X252897367Y-77988590D02*
X252683081Y-78064780D01*
X252683081Y-78064780D02*
X252611653Y-78140971D01*
X251183081Y-79588590D02*
X252040224Y-79588590D01*
X251611653Y-79588590D02*
X251611653Y-77988590D01*
X251611653Y-77988590D02*
X251754510Y-78217161D01*
X251754510Y-78217161D02*
X251897367Y-78369542D01*
X251897367Y-78369542D02*
X252040224Y-78445733D01*
D11*
%TO.C,J18*%
X154677100Y-91102701D02*
G75*
G02*
X153915100Y-91102701I-381000J0D01*
G01*
X153915100Y-91102701D02*
G75*
G02*
X154677100Y-91102701I381000J0D01*
G01*
%TD*%
M02*
