M48
; DRILL file {KiCad 8.0.2} date 2024-05-08T16:37:32-0600
; FORMAT={-:-/ absolute / inch / decimal}
; #@! TF.CreationDate,2024-05-08T16:37:32-06:00
; #@! TF.GenerationSoftware,Kicad,Pcbnew,8.0.2
; #@! TF.FileFunction,Plated,1,4,PTH
FMAT,2
INCH
; #@! TA.AperFunction,Plated,PTH,ViaDrill
T1C0.0118
; #@! TA.AperFunction,Plated,PTH,ComponentDrill
T2C0.0256
; #@! TA.AperFunction,Plated,PTH,ComponentDrill
T3C0.0276
; #@! TA.AperFunction,Plated,PTH,ComponentDrill
T4C0.0300
; #@! TA.AperFunction,Plated,PTH,ComponentDrill
T5C0.0307
; #@! TA.AperFunction,Plated,PTH,ViaDrill
T6C0.0394
; #@! TA.AperFunction,Plated,PTH,ComponentDrill
T7C0.0394
; #@! TA.AperFunction,Plated,PTH,ComponentDrill
T8C0.0402
; #@! TA.AperFunction,Plated,PTH,ComponentDrill
T9C0.0510
; #@! TA.AperFunction,Plated,PTH,ComponentDrill
T10C0.0693
; #@! TA.AperFunction,Plated,PTH,ComponentDrill
T11C0.0906
; #@! TA.AperFunction,Plated,PTH,ComponentDrill
T12C0.1098
%
G90
G05
T1
X4.0315Y-3.7736
X4.0315Y-3.8976
X4.8583Y-3.8031
X4.9134Y-3.8268
X4.937Y-3.7244
X4.9528Y-3.8268
X4.9764Y-3.7323
X5.0Y-3.8346
X5.0157Y-3.774
X5.0551Y-3.7244
X5.1969Y-3.2126
X5.7244Y-6.7205
X5.8189Y-2.8898
X6.0236Y-6.5906
X6.126Y-5.4567
X6.1339Y-5.6063
X6.3169Y-5.6024
X6.3189Y-5.4571
X6.3622Y-6.6457
X6.7953Y-4.2756
X6.8346Y-5.8583
X6.8661Y-4.252
X6.8686Y-4.4082
X6.8819Y-6.1339
X6.8918Y-4.4252
X6.912Y-4.378
X6.9213Y-6.0866
X6.937Y-4.3937
X6.9465Y-4.425
X6.9528Y-5.9606
X6.9752Y-4.426
X6.9921Y-6.063
X7.0Y-5.9606
X7.004Y-4.426
X7.0325Y-4.4183
X7.0593Y-4.1036
X7.063Y-5.9606
X7.0697Y-4.426
X7.0866Y-4.0945
X7.1125Y-4.387
X7.1181Y-4.0972
X7.1413Y-4.387
X7.1466Y-4.1004
X7.1675Y-4.0789
X7.1732Y-4.3701
X7.1962Y-4.0781
X7.2111Y-4.3713
X7.2165Y-4.0984
X7.2362Y-4.2835
X7.2569Y-4.0876
X7.2693Y-4.1135
X7.2969Y-4.3409
X7.3228Y-4.315
X7.4961Y-4.6457
X7.4961Y-4.6929
X7.4961Y-4.7402
X7.4961Y-4.7874
X7.4961Y-4.8346
X7.4961Y-4.8819
X7.4961Y-4.9291
X7.4961Y-4.9764
X7.4961Y-5.0236
X7.4961Y-5.0709
X7.4961Y-5.1181
X7.4961Y-5.1654
X7.4961Y-5.2126
X7.4961Y-5.2598
X7.4961Y-5.315
X7.4961Y-5.3543
X7.7165Y-5.1181
X7.7165Y-5.1654
X7.7165Y-5.2126
X7.7165Y-5.2598
X7.748Y-5.3228
X7.8031Y-6.1575
X7.811Y-6.3465
X7.8138Y-5.752
X7.874Y-6.4803
X7.8827Y-6.6842
X7.8958Y-6.5699
X7.9055Y-6.252
X7.9094Y-6.4291
X7.937Y-6.9055
X7.9921Y-6.5118
X8.063Y-6.9843
X8.0906Y-6.7874
X8.0929Y-6.6299
X8.1654Y-6.2953
X8.1953Y-6.3858
X8.1969Y-6.6535
X8.2228Y-6.6299
X8.2713Y-6.6807
X8.2795Y-6.8268
X8.2835Y-6.762
X8.2992Y-6.874
X8.2992Y-6.937
X8.3055Y-6.248
X8.3307Y-6.6457
X8.3328Y-6.8267
X8.4961Y-6.3858
X8.5551Y-3.0709
X8.6102Y-6.7913
X8.7087Y-4.7244
X8.8189Y-4.7717
X8.835Y-5.6142
X8.9055Y-5.874
X8.907Y-4.8985
X8.9134Y-4.937
X8.9134Y-5.0236
X8.9134Y-5.0945
X8.9134Y-5.1654
X8.9134Y-5.2441
X8.9213Y-4.7402
X8.9213Y-4.7717
X8.9213Y-4.8268
X8.924Y-5.3543
X8.9449Y-4.7008
X8.9606Y-4.8504
X8.9606Y-4.9055
X8.9606Y-4.9449
X8.9606Y-4.9803
X8.9606Y-5.0118
X8.9606Y-5.1575
X8.9685Y-5.0787
X8.9685Y-5.2441
X8.9921Y-5.622
X9.0315Y-4.7402
X9.0315Y-5.748
X9.0394Y-5.4016
X9.0433Y-4.7598
X9.0472Y-4.7874
X9.0472Y-4.811
X9.0472Y-5.2441
X9.0551Y-4.5118
X9.063Y-4.702
X9.063Y-7.4016
X9.0636Y-4.7323
X9.1024Y-4.5669
X9.1102Y-5.4094
X9.126Y-5.2441
X9.2047Y-3.0433
X9.2283Y-5.3228
X9.2833Y-4.7232
X9.2835Y-5.2362
X9.2992Y-4.3937
X9.3386Y-5.5591
X9.4252Y-4.9685
X9.4409Y-5.0477
X9.4488Y-5.3858
X9.4803Y-4.6614
X9.4961Y-4.9291
X9.5709Y-3.689
X9.6564Y-3.755
T4
X6.6379Y-3.1016
X6.6392Y-2.8654
X6.6392Y-2.9441
X6.6392Y-3.0228
X6.6392Y-3.1803
X6.6392Y-3.2591
X6.6392Y-3.3378
X6.6392Y-3.4165
X6.6392Y-3.4953
X6.6392Y-3.574
X7.5039Y-2.8654
X7.5039Y-2.9441
X7.5039Y-3.0228
X7.5039Y-3.1016
X7.5039Y-3.1803
X7.5039Y-3.2591
X7.5039Y-3.3378
X7.5039Y-3.4165
X7.5039Y-3.4953
X7.5039Y-3.574
T5
X3.6063Y-4.0354
X3.6063Y-4.2913
X3.6063Y-4.8478
X3.6063Y-5.1037
X3.6063Y-5.6601
X3.6063Y-5.916
X3.6063Y-6.4724
X3.6063Y-6.7283
X3.6457Y-4.1142
X3.6457Y-4.2126
X3.6457Y-4.9265
X3.6457Y-5.0249
X3.6457Y-5.7388
X3.6457Y-5.8373
X3.6457Y-6.5512
X3.6457Y-6.6496
X3.685Y-4.0354
X3.685Y-4.2913
X3.685Y-4.8478
X3.685Y-5.1037
X3.685Y-5.6601
X3.685Y-5.916
X3.685Y-6.4724
X3.685Y-6.7283
X3.7244Y-4.1142
X3.7244Y-4.2126
X3.7244Y-4.9265
X3.7244Y-5.0249
X3.7244Y-5.7388
X3.7244Y-5.8373
X3.7244Y-6.5512
X3.7244Y-6.6496
X3.7638Y-4.0354
X3.7638Y-4.2913
X3.7638Y-4.8478
X3.7638Y-5.1037
X3.7638Y-5.6601
X3.7638Y-5.916
X3.7638Y-6.4724
X3.7638Y-6.7283
X3.8031Y-4.1142
X3.8031Y-4.2126
X3.8031Y-4.9265
X3.8031Y-5.0249
X3.8031Y-5.7388
X3.8031Y-5.8373
X3.8031Y-6.5512
X3.8031Y-6.6496
X3.8425Y-4.0354
X3.8425Y-4.2913
X3.8425Y-4.8478
X3.8425Y-5.1037
X3.8425Y-5.6601
X3.8425Y-5.916
X3.8425Y-6.4724
X3.8425Y-6.7283
X3.8819Y-4.1142
X3.8819Y-4.2126
X3.8819Y-4.9265
X3.8819Y-5.0249
X3.8819Y-5.7388
X3.8819Y-5.8373
X3.8819Y-6.5512
X3.8819Y-6.6496
X3.9213Y-4.0354
X3.9213Y-4.2913
X3.9213Y-4.8478
X3.9213Y-5.1037
X3.9213Y-5.6601
X3.9213Y-5.916
X3.9213Y-6.4724
X3.9213Y-6.7283
X3.9606Y-4.1142
X3.9606Y-4.2126
X3.9606Y-4.9265
X3.9606Y-5.0249
X3.9606Y-5.7388
X3.9606Y-5.8373
X3.9606Y-6.5512
X3.9606Y-6.6496
X4.0Y-4.0354
X4.0Y-4.2913
X4.0Y-4.8478
X4.0Y-5.1037
X4.0Y-5.6601
X4.0Y-5.916
X4.0Y-6.4724
X4.0Y-6.7283
X4.0394Y-4.1142
X4.0394Y-4.2126
X4.0394Y-4.9265
X4.0394Y-5.0249
X4.0394Y-5.7388
X4.0394Y-5.8373
X4.0394Y-6.5512
X4.0394Y-6.6496
X4.0787Y-4.0354
X4.0787Y-4.2913
X4.0787Y-4.8478
X4.0787Y-5.1037
X4.0787Y-5.6601
X4.0787Y-5.916
X4.0787Y-6.4724
X4.0787Y-6.7283
X4.1181Y-4.1142
X4.1181Y-4.2126
X4.1181Y-4.9265
X4.1181Y-5.0249
X4.1181Y-5.7388
X4.1181Y-5.8373
X4.1181Y-6.5512
X4.1181Y-6.6496
X4.1575Y-4.0354
X4.1575Y-4.2913
X4.1575Y-4.8478
X4.1575Y-5.1037
X4.1575Y-5.6601
X4.1575Y-5.916
X4.1575Y-6.4724
X4.1575Y-6.7283
X4.1969Y-4.1142
X4.1969Y-4.2126
X4.1969Y-4.9265
X4.1969Y-5.0249
X4.1969Y-5.7388
X4.1969Y-5.8373
X4.1969Y-6.5512
X4.1969Y-6.6496
X4.2362Y-4.0354
X4.2362Y-4.2913
X4.2362Y-4.8478
X4.2362Y-5.1037
X4.2362Y-5.6601
X4.2362Y-5.916
X4.2362Y-6.4724
X4.2362Y-6.7283
X4.2756Y-4.1142
X4.2756Y-4.2126
X4.2756Y-4.9265
X4.2756Y-5.0249
X4.2756Y-5.7388
X4.2756Y-5.8373
X4.2756Y-6.5512
X4.2756Y-6.6496
X4.315Y-4.0354
X4.315Y-4.2913
X4.315Y-4.8478
X4.315Y-5.1037
X4.315Y-5.6601
X4.315Y-5.916
X4.315Y-6.4724
X4.315Y-6.7283
X4.3543Y-4.1142
X4.3543Y-4.2126
X4.3543Y-4.9265
X4.3543Y-5.0249
X4.3543Y-5.7388
X4.3543Y-5.8373
X4.3543Y-6.5512
X4.3543Y-6.6496
X4.3937Y-4.0354
X4.3937Y-4.2913
X4.3937Y-4.8478
X4.3937Y-5.1037
X4.3937Y-5.6601
X4.3937Y-5.916
X4.3937Y-6.4724
X4.3937Y-6.7283
X4.5118Y-4.1142
X4.5118Y-4.2126
X4.5118Y-4.9265
X4.5118Y-5.0249
X4.5118Y-5.7388
X4.5118Y-5.8373
X4.5118Y-6.5512
X4.5118Y-6.6496
X4.5512Y-4.0354
X4.5512Y-4.2913
X4.5512Y-4.8478
X4.5512Y-5.1037
X4.5512Y-5.6601
X4.5512Y-5.916
X4.5512Y-6.4724
X4.5512Y-6.7283
X4.5906Y-4.1142
X4.5906Y-4.2126
X4.5906Y-4.9265
X4.5906Y-5.0249
X4.5906Y-5.7388
X4.5906Y-5.8373
X4.5906Y-6.5512
X4.5906Y-6.6496
X4.6299Y-4.0354
X4.6299Y-4.2913
X4.6299Y-4.8478
X4.6299Y-5.1037
X4.6299Y-5.6601
X4.6299Y-5.916
X4.6299Y-6.4724
X4.6299Y-6.7283
X4.6693Y-4.1142
X4.6693Y-4.2126
X4.6693Y-4.9265
X4.6693Y-5.0249
X4.6693Y-5.7388
X4.6693Y-5.8373
X4.6693Y-6.5512
X4.6693Y-6.6496
X4.7087Y-4.0354
X4.7087Y-4.2913
X4.7087Y-4.8478
X4.7087Y-5.1037
X4.7087Y-5.6601
X4.7087Y-5.916
X4.7087Y-6.4724
X4.7087Y-6.7283
X4.748Y-4.1142
X4.748Y-4.2126
X4.748Y-4.9265
X4.748Y-5.0249
X4.748Y-5.7388
X4.748Y-5.8373
X4.748Y-6.5512
X4.748Y-6.6496
X4.7874Y-4.0354
X4.7874Y-4.2913
X4.7874Y-4.8478
X4.7874Y-5.1037
X4.7874Y-5.6601
X4.7874Y-5.916
X4.7874Y-6.4724
X4.7874Y-6.7283
X4.8268Y-4.1142
X4.8268Y-4.2126
X4.8268Y-4.9265
X4.8268Y-5.0249
X4.8268Y-5.7388
X4.8268Y-5.8373
X4.8268Y-6.5512
X4.8268Y-6.6496
X4.8661Y-4.0354
X4.8661Y-4.2913
X4.8661Y-4.8478
X4.8661Y-5.1037
X4.8661Y-5.6601
X4.8661Y-5.916
X4.8661Y-6.4724
X4.8661Y-6.7283
X4.9055Y-4.1142
X4.9055Y-4.2126
X4.9055Y-4.9265
X4.9055Y-5.0249
X4.9055Y-5.7388
X4.9055Y-5.8373
X4.9055Y-6.5512
X4.9055Y-6.6496
T6
X8.4094Y-6.8819
T7
X2.2402Y-4.689
X2.2402Y-4.7677
X2.2402Y-4.8465
X2.2402Y-4.9252
X2.2402Y-5.0039
X2.2402Y-6.189
X2.2402Y-6.2677
X2.2402Y-6.3465
X2.2402Y-6.4252
X2.2402Y-6.5039
X2.3189Y-4.689
X2.3189Y-4.7677
X2.3189Y-4.8465
X2.3189Y-4.9252
X2.3189Y-5.0039
X2.3189Y-6.189
X2.3189Y-6.2677
X2.3189Y-6.3465
X2.3189Y-6.4252
X2.3189Y-6.5039
X3.7323Y-7.374
X3.7323Y-7.4528
X3.811Y-7.374
X3.811Y-7.4528
X3.8898Y-7.374
X3.8898Y-7.4528
X3.9685Y-7.374
X3.9685Y-7.4528
X4.0472Y-7.374
X4.0472Y-7.4528
X5.4134Y-7.3661
X5.4134Y-7.4449
X5.4921Y-7.3661
X5.4921Y-7.4449
X5.5351Y-2.7012
X5.5709Y-7.3661
X5.5709Y-7.4449
X5.6351Y-2.7012
X5.6496Y-7.3661
X5.6496Y-7.4449
X5.7283Y-7.3661
X5.7283Y-7.4449
X6.1835Y-4.0984
X6.1835Y-4.1984
X6.1835Y-4.2984
X6.1835Y-4.3984
X6.1835Y-4.4984
X6.1835Y-4.5984
X6.1835Y-4.6984
X6.1835Y-4.7984
X6.1835Y-4.8984
X6.1835Y-4.9984
X6.1835Y-5.0984
X6.1835Y-5.1984
X6.2835Y-4.0984
X6.2835Y-4.1984
X6.2835Y-4.2984
X6.2835Y-4.3984
X6.2835Y-4.4984
X6.2835Y-4.5984
X6.2835Y-4.6984
X6.2835Y-4.7984
X6.2835Y-4.8984
X6.2835Y-4.9984
X6.2835Y-5.0984
X6.2835Y-5.1984
X7.652Y-7.0972
X7.652Y-7.2004
X7.7504Y-7.0972
X7.7504Y-7.2004
X7.8248Y-2.702
X7.8291Y-7.0972
X7.8291Y-7.2004
X7.9248Y-2.702
X7.9276Y-7.0972
X7.9276Y-7.2004
X8.0248Y-2.702
X8.1248Y-2.702
X8.3476Y-7.0972
X8.3476Y-7.2004
X8.4461Y-7.0972
X8.4461Y-7.2004
X8.4823Y-2.702
X8.5248Y-7.0972
X8.5248Y-7.2004
X8.5823Y-2.702
X8.6232Y-7.0972
X8.6232Y-7.2004
X8.6823Y-2.702
X8.7823Y-2.702
X9.1378Y-2.7047
X9.152Y-5.5213
X9.152Y-5.6213
X9.152Y-5.7213
X9.152Y-5.8213
X9.152Y-5.9213
X9.152Y-6.0213
X9.152Y-6.1213
X9.1575Y-4.1024
X9.1575Y-4.2024
X9.1575Y-4.3024
X9.1575Y-4.6772
X9.1575Y-4.7772
X9.1575Y-4.8772
X9.2378Y-2.7047
X9.252Y-5.5213
X9.252Y-5.6213
X9.252Y-5.7213
X9.252Y-5.8213
X9.252Y-5.9213
X9.252Y-6.0213
X9.252Y-6.1213
X9.3378Y-2.7047
X9.4378Y-2.7047
X9.9858Y-4.6784
X9.9858Y-4.7784
X9.9858Y-4.8784
X9.9858Y-4.9784
X9.9858Y-3.9394
X9.9858Y-4.0394
X9.9858Y-4.1394
X9.9858Y-4.2394
X9.9858Y-4.3394
X9.987Y-3.1992
X9.987Y-3.2992
X9.987Y-3.3992
X9.987Y-3.4992
X9.987Y-3.5992
T8
X2.3386Y-5.3898
X2.3386Y-5.5079
X2.3386Y-5.626
X2.3386Y-5.7441
X2.3386Y-5.8622
X2.3394Y-3.8913
X2.3394Y-4.0094
X2.3394Y-4.1276
X2.3394Y-4.2457
X2.3394Y-4.3638
X2.4567Y-5.3898
X2.4567Y-5.5079
X2.4567Y-5.626
X2.4567Y-5.7441
X2.4567Y-5.8622
X2.4575Y-3.8913
X2.4575Y-4.0094
X2.4575Y-4.1276
X2.4575Y-4.2457
X2.4575Y-4.3638
X2.9346Y-7.2362
X2.9346Y-7.3543
X3.0527Y-7.2362
X3.0527Y-7.3543
X3.1709Y-7.2362
X3.1709Y-7.3543
X3.289Y-7.2362
X3.289Y-7.3543
X3.4071Y-7.2362
X3.4071Y-7.3543
X4.6118Y-7.2276
X4.6118Y-7.3457
X4.7299Y-7.2276
X4.7299Y-7.3457
X4.848Y-7.2276
X4.848Y-7.3457
X4.9661Y-7.2276
X4.9661Y-7.3457
X5.0843Y-7.2276
X5.0843Y-7.3457
T9
X6.4172Y-3.3427
X6.4172Y-3.5396
T10
X3.5768Y-2.9638
X3.5768Y-3.2138
X3.7518Y-2.9638
X3.7518Y-3.2138
X3.9667Y-2.9638
X3.9667Y-3.2138
X4.1417Y-2.9638
X4.1417Y-3.2138
T11
X7.5311Y-7.0835
X7.5311Y-7.3071
X8.0484Y-7.0835
X8.0484Y-7.3071
X8.2268Y-7.0835
X8.2268Y-7.3071
X8.7441Y-7.0835
X8.7441Y-7.3071
T12
X3.3242Y-3.1736
X3.8593Y-2.7236
X4.3943Y-3.1736
T2
G00X9.0329Y-7.487
M15
G01X9.0329Y-7.4713
M16
G05
G00X9.2238Y-7.487
M15
G01X9.2238Y-7.4713
M16
G05
T3
G00X9.0211Y-7.6083
M15
G01X9.0211Y-7.5886
M16
G05
G00X9.2356Y-7.6083
M15
G01X9.2356Y-7.5886
M16
G05
M30
