%TF.GenerationSoftware,KiCad,Pcbnew,8.0.2*%
%TF.CreationDate,2024-05-12T20:09:37-06:00*%
%TF.ProjectId,GR-LRR-POWER,47522d4c-5252-42d5-904f-5745522e6b69,rev?*%
%TF.SameCoordinates,Original*%
%TF.FileFunction,Drillmap*%
%TF.FilePolarity,Positive*%
%FSLAX45Y45*%
G04 Gerber Fmt 4.5, Leading zero omitted, Abs format (unit mm)*
G04 Created by KiCad (PCBNEW 8.0.2) date 2024-05-12 20:09:37*
%MOMM*%
%LPD*%
G01*
G04 APERTURE LIST*
%ADD10C,0.250000*%
%ADD11C,0.200000*%
%ADD12C,0.100000*%
%ADD13C,0.127000*%
%ADD14C,0.129540*%
%ADD15C,0.150000*%
%ADD16C,0.157000*%
%ADD17C,0.176000*%
%ADD18C,0.213000*%
%ADD19C,0.279000*%
%ADD20C,0.300000*%
G04 APERTURE END LIST*
D10*
X7637498Y-15342925D02*
G75*
G02*
X7294598Y-15342925I-171450J0D01*
G01*
X7294598Y-15342925D02*
G75*
G02*
X7637498Y-15342925I171450J0D01*
G01*
X15017033Y-20076964D02*
G75*
G02*
X16539363Y-20076964I761165J-8141D01*
G01*
X5267222Y-9399954D02*
X5267222Y-10065416D01*
X25523700Y-7580685D02*
X25523700Y-6691685D01*
X20938217Y-6502933D02*
X16728104Y-6502933D01*
X15017033Y-20076964D02*
G75*
G02*
X14828293Y-20263694I-188734J2014D01*
G01*
X6221448Y-20263697D02*
G75*
G02*
X6032693Y-20074945I2J188757D01*
G01*
X6032697Y-19185945D02*
X6032697Y-20074945D01*
X5267222Y-13050584D02*
X5267222Y-13716046D01*
X26463500Y-10065416D02*
X26289175Y-10065416D01*
X6221448Y-20263697D02*
X9952717Y-20263697D01*
X5267222Y-13716046D02*
X5092897Y-13716046D01*
X25523700Y-20074945D02*
X25523700Y-19185945D01*
X10618180Y-20089371D02*
X10618180Y-20263697D01*
X16539363Y-6689666D02*
G75*
G02*
X16728104Y-6502932I188747J-2024D01*
G01*
X5279630Y-18424780D02*
G75*
G02*
X6032696Y-19185945I-8137J-761160D01*
G01*
X26289175Y-13716046D02*
X26289175Y-13050584D01*
X21603680Y-20263697D02*
X25334948Y-20263697D01*
X5267222Y-17366676D02*
X5092897Y-17366676D01*
X5092897Y-8530591D02*
X5092897Y-9399954D01*
X25334948Y-6502933D02*
G75*
G02*
X25523697Y-6691685I2J-188747D01*
G01*
X26289175Y-10065416D02*
X26289175Y-9399954D01*
X7637498Y-11423705D02*
G75*
G02*
X7294598Y-11423705I-171450J0D01*
G01*
X7294598Y-11423705D02*
G75*
G02*
X7637498Y-11423705I171450J0D01*
G01*
X25334948Y-6502933D02*
X21603680Y-6502933D01*
X25049198Y-7593385D02*
G75*
G02*
X24706298Y-7593385I-171450J0D01*
G01*
X24706298Y-7593385D02*
G75*
G02*
X25049198Y-7593385I171450J0D01*
G01*
X26463500Y-18236039D02*
G75*
G02*
X26276767Y-18424779I-188760J9D01*
G01*
X26289175Y-9399954D02*
X26463500Y-9399954D01*
X16728104Y-20263697D02*
X20938217Y-20263697D01*
X26463500Y-13716046D02*
X26289175Y-13716046D01*
X5092897Y-8530591D02*
G75*
G02*
X5279630Y-8341848I188753J1D01*
G01*
X24261798Y-15342925D02*
G75*
G02*
X23918898Y-15342925I-171450J0D01*
G01*
X23918898Y-15342925D02*
G75*
G02*
X24261798Y-15342925I171450J0D01*
G01*
X21603680Y-6677259D02*
X20938217Y-6677259D01*
X10618180Y-20263697D02*
X14828293Y-20263697D01*
X9952717Y-6677259D02*
X9952717Y-6502933D01*
X14828293Y-6502933D02*
G75*
G02*
X15017036Y-6689666I-13J-188767D01*
G01*
X21603680Y-6502933D02*
X21603680Y-6677259D01*
X6850098Y-7593385D02*
G75*
G02*
X6507198Y-7593385I-171450J0D01*
G01*
X6507198Y-7593385D02*
G75*
G02*
X6850098Y-7593385I171450J0D01*
G01*
X26463500Y-16701214D02*
X26463500Y-13716046D01*
X20938217Y-20089371D02*
X21603680Y-20089371D01*
X5267222Y-16701214D02*
X5267222Y-17366676D01*
X16728104Y-20263697D02*
G75*
G02*
X16539364Y-20076964I-4J188747D01*
G01*
X26463500Y-18236039D02*
X26463500Y-17366676D01*
X5092897Y-13050584D02*
X5267222Y-13050584D01*
X14828293Y-6502933D02*
X10618180Y-6502933D01*
X5279630Y-18424780D02*
G75*
G02*
X5092899Y-18236039I2020J188740D01*
G01*
X9952717Y-20263697D02*
X9952717Y-20089371D01*
X9952717Y-20089371D02*
X10618180Y-20089371D01*
X20938217Y-6677259D02*
X20938217Y-6502933D01*
X6032697Y-6691685D02*
X6032697Y-7580685D01*
X5267222Y-10065416D02*
X5092897Y-10065416D01*
X26276767Y-8341850D02*
G75*
G02*
X25523696Y-7580685I8143J761170D01*
G01*
X25523700Y-19185945D02*
G75*
G02*
X26276767Y-18424784I761210J-5D01*
G01*
X25049198Y-19173245D02*
G75*
G02*
X24706298Y-19173245I-171450J0D01*
G01*
X24706298Y-19173245D02*
G75*
G02*
X25049198Y-19173245I171450J0D01*
G01*
X16539363Y-6689666D02*
G75*
G02*
X15017033Y-6689666I-761165J8141D01*
G01*
X10618180Y-6502933D02*
X10618180Y-6677259D01*
X9952717Y-6502933D02*
X6221448Y-6502933D01*
X26463500Y-9399954D02*
X26463500Y-8530591D01*
X5092897Y-13716046D02*
X5092897Y-16701214D01*
X26276767Y-8341850D02*
G75*
G02*
X26463501Y-8530591I-2017J-188740D01*
G01*
X6850098Y-19173245D02*
G75*
G02*
X6507198Y-19173245I-171450J0D01*
G01*
X6507198Y-19173245D02*
G75*
G02*
X6850098Y-19173245I171450J0D01*
G01*
X26289175Y-13050584D02*
X26463500Y-13050584D01*
X5092897Y-9399954D02*
X5267222Y-9399954D01*
X20938217Y-20263697D02*
X20938217Y-20089371D01*
X26289175Y-16701214D02*
X26463500Y-16701214D01*
X26463500Y-17366676D02*
X26289175Y-17366676D01*
X5092897Y-17366676D02*
X5092897Y-18236039D01*
X26463500Y-13050584D02*
X26463500Y-10065416D01*
X6032697Y-6691685D02*
G75*
G02*
X6221448Y-6502937I188753J-5D01*
G01*
X21603680Y-20089371D02*
X21603680Y-20263697D01*
X5092897Y-10065416D02*
X5092897Y-13050584D01*
X24261798Y-11423705D02*
G75*
G02*
X23918898Y-11423705I-171450J0D01*
G01*
X23918898Y-11423705D02*
G75*
G02*
X24261798Y-11423705I171450J0D01*
G01*
X25523700Y-20074945D02*
G75*
G02*
X25334948Y-20263700I-188750J-5D01*
G01*
X6032697Y-7580685D02*
G75*
G02*
X5279630Y-8341850I-761210J1D01*
G01*
X5092897Y-16701214D02*
X5267222Y-16701214D01*
X10618180Y-6677259D02*
X9952717Y-6677259D01*
X26289175Y-17366676D02*
X26289175Y-16701214D01*
D11*
D12*
X10585000Y-10755000D02*
X10615000Y-10785000D01*
X10615000Y-10755000D02*
X10585000Y-10785000D01*
X11085000Y-10855000D02*
X11115000Y-10885000D01*
X11115000Y-10855000D02*
X11085000Y-10885000D01*
X11155000Y-9630000D02*
X11185000Y-9660000D01*
X11185000Y-9630000D02*
X11155000Y-9660000D01*
X11215000Y-10340000D02*
X11245000Y-10370000D01*
X11245000Y-10340000D02*
X11215000Y-10370000D01*
X17550000Y-7215000D02*
G75*
G02*
X17500000Y-7215000I-25000J0D01*
G01*
X17500000Y-7215000D02*
G75*
G02*
X17550000Y-7215000I25000J0D01*
G01*
X17615901Y-7055901D02*
G75*
G02*
X17565901Y-7055901I-25000J0D01*
G01*
X17565901Y-7055901D02*
G75*
G02*
X17615901Y-7055901I25000J0D01*
G01*
X17615901Y-7374099D02*
G75*
G02*
X17565901Y-7374099I-25000J0D01*
G01*
X17565901Y-7374099D02*
G75*
G02*
X17615901Y-7374099I25000J0D01*
G01*
X17775000Y-6990000D02*
G75*
G02*
X17725000Y-6990000I-25000J0D01*
G01*
X17725000Y-6990000D02*
G75*
G02*
X17775000Y-6990000I25000J0D01*
G01*
X17775000Y-7440000D02*
G75*
G02*
X17725000Y-7440000I-25000J0D01*
G01*
X17725000Y-7440000D02*
G75*
G02*
X17775000Y-7440000I25000J0D01*
G01*
X17934099Y-7055901D02*
G75*
G02*
X17884099Y-7055901I-25000J0D01*
G01*
X17884099Y-7055901D02*
G75*
G02*
X17934099Y-7055901I25000J0D01*
G01*
X17934099Y-7374099D02*
G75*
G02*
X17884099Y-7374099I-25000J0D01*
G01*
X17884099Y-7374099D02*
G75*
G02*
X17934099Y-7374099I25000J0D01*
G01*
X18000000Y-7215000D02*
G75*
G02*
X17950000Y-7215000I-25000J0D01*
G01*
X17950000Y-7215000D02*
G75*
G02*
X18000000Y-7215000I25000J0D01*
G01*
X11258325Y-11451820D02*
X11258325Y-11538180D01*
X11215145Y-11495000D02*
X11301505Y-11495000D01*
X11608325Y-11451820D02*
X11608325Y-11538180D01*
X11565145Y-11495000D02*
X11651505Y-11495000D01*
D13*
X17464402Y-17678902D02*
X17464402Y-17589098D01*
X17374598Y-17589098D01*
X17374598Y-17678902D01*
X17464402Y-17678902D01*
X17464402Y-18440902D02*
X17464402Y-18351098D01*
X17374598Y-18351098D01*
X17374598Y-18440902D01*
X17464402Y-18440902D01*
X17464402Y-18948902D02*
X17464402Y-18859098D01*
X17374598Y-18859098D01*
X17374598Y-18948902D01*
X17464402Y-18948902D01*
X19496402Y-17678902D02*
X19496402Y-17589098D01*
X19406598Y-17589098D01*
X19406598Y-17678902D01*
X19496402Y-17678902D01*
X19496402Y-18694902D02*
X19496402Y-18605098D01*
X19406598Y-18605098D01*
X19406598Y-18694902D01*
X19496402Y-18694902D01*
X19496402Y-19710902D02*
X19496402Y-19621098D01*
X19406598Y-19621098D01*
X19406598Y-19710902D01*
X19496402Y-19710902D01*
D14*
X9175000Y-11209770D02*
X9239770Y-11145000D01*
X9175000Y-11080230D01*
X9110230Y-11145000D01*
X9175000Y-11209770D01*
X9175000Y-11709770D02*
X9239770Y-11645000D01*
X9175000Y-11580230D01*
X9110230Y-11645000D01*
X9175000Y-11709770D01*
D15*
X13385000Y-11853364D02*
X13535000Y-12003364D01*
X13535000Y-11853364D02*
X13385000Y-12003364D01*
X13535000Y-11928364D02*
G75*
G02*
X13385000Y-11928364I-75000J0D01*
G01*
X13385000Y-11928364D02*
G75*
G02*
X13535000Y-11928364I75000J0D01*
G01*
X13385000Y-14245000D02*
X13535000Y-14395000D01*
X13535000Y-14245000D02*
X13385000Y-14395000D01*
X13535000Y-14320000D02*
G75*
G02*
X13385000Y-14320000I-75000J0D01*
G01*
X13385000Y-14320000D02*
G75*
G02*
X13535000Y-14320000I75000J0D01*
G01*
X13385000Y-16629755D02*
X13535000Y-16779756D01*
X13535000Y-16629755D02*
X13385000Y-16779756D01*
X13535000Y-16704755D02*
G75*
G02*
X13385000Y-16704755I-75000J0D01*
G01*
X13385000Y-16704755D02*
G75*
G02*
X13535000Y-16704755I75000J0D01*
G01*
X15645000Y-11853364D02*
X15795000Y-12003364D01*
X15795000Y-11853364D02*
X15645000Y-12003364D01*
X15795000Y-11928364D02*
G75*
G02*
X15645000Y-11928364I-75000J0D01*
G01*
X15645000Y-11928364D02*
G75*
G02*
X15795000Y-11928364I75000J0D01*
G01*
X15645000Y-14245000D02*
X15795000Y-14395000D01*
X15795000Y-14245000D02*
X15645000Y-14395000D01*
X15795000Y-14320000D02*
G75*
G02*
X15645000Y-14320000I-75000J0D01*
G01*
X15645000Y-14320000D02*
G75*
G02*
X15795000Y-14320000I75000J0D01*
G01*
X15645000Y-16629755D02*
X15795000Y-16779756D01*
X15795000Y-16629755D02*
X15645000Y-16779756D01*
X15795000Y-16704755D02*
G75*
G02*
X15645000Y-16704755I-75000J0D01*
G01*
X15645000Y-16704755D02*
G75*
G02*
X15795000Y-16704755I75000J0D01*
G01*
D16*
X17239500Y-15189500D02*
X17396500Y-15346500D01*
X17396500Y-15189500D02*
X17239500Y-15346500D01*
X17318000Y-15189500D02*
X17318000Y-15346500D01*
X17239500Y-15268000D02*
X17396500Y-15268000D01*
X17239500Y-15951500D02*
X17396500Y-16108500D01*
X17396500Y-15951500D02*
X17239500Y-16108500D01*
X17318000Y-15951500D02*
X17318000Y-16108500D01*
X17239500Y-16030000D02*
X17396500Y-16030000D01*
X17239500Y-16713500D02*
X17396500Y-16870500D01*
X17396500Y-16713500D02*
X17239500Y-16870500D01*
X17318000Y-16713500D02*
X17318000Y-16870500D01*
X17239500Y-16792000D02*
X17396500Y-16792000D01*
X17439500Y-12649500D02*
X17596500Y-12806500D01*
X17596500Y-12649500D02*
X17439500Y-12806500D01*
X17518000Y-12649500D02*
X17518000Y-12806500D01*
X17439500Y-12728000D02*
X17596500Y-12728000D01*
X17439500Y-13411500D02*
X17596500Y-13568500D01*
X17596500Y-13411500D02*
X17439500Y-13568500D01*
X17518000Y-13411500D02*
X17518000Y-13568500D01*
X17439500Y-13490000D02*
X17596500Y-13490000D01*
X17439500Y-14173500D02*
X17596500Y-14330500D01*
X17596500Y-14173500D02*
X17439500Y-14330500D01*
X17518000Y-14173500D02*
X17518000Y-14330500D01*
X17439500Y-14252000D02*
X17596500Y-14252000D01*
X20033500Y-15570500D02*
X20190500Y-15727500D01*
X20190500Y-15570500D02*
X20033500Y-15727500D01*
X20112000Y-15570500D02*
X20112000Y-15727500D01*
X20033500Y-15649000D02*
X20190500Y-15649000D01*
X20033500Y-15951500D02*
X20190500Y-16108500D01*
X20190500Y-15951500D02*
X20033500Y-16108500D01*
X20112000Y-15951500D02*
X20112000Y-16108500D01*
X20033500Y-16030000D02*
X20190500Y-16030000D01*
X20033500Y-16332500D02*
X20190500Y-16489500D01*
X20190500Y-16332500D02*
X20033500Y-16489500D01*
X20112000Y-16332500D02*
X20112000Y-16489500D01*
X20033500Y-16411000D02*
X20190500Y-16411000D01*
X20233500Y-13030500D02*
X20390500Y-13187500D01*
X20390500Y-13030500D02*
X20233500Y-13187500D01*
X20312000Y-13030500D02*
X20312000Y-13187500D01*
X20233500Y-13109000D02*
X20390500Y-13109000D01*
X20233500Y-13411500D02*
X20390500Y-13568500D01*
X20390500Y-13411500D02*
X20233500Y-13568500D01*
X20312000Y-13411500D02*
X20312000Y-13568500D01*
X20233500Y-13490000D02*
X20390500Y-13490000D01*
X20233500Y-13792500D02*
X20390500Y-13949500D01*
X20390500Y-13792500D02*
X20233500Y-13949500D01*
X20312000Y-13792500D02*
X20312000Y-13949500D01*
X20233500Y-13871000D02*
X20390500Y-13871000D01*
D17*
X8967000Y-8122000D02*
X9143000Y-8298000D01*
X9143000Y-8122000D02*
X8967000Y-8298000D01*
X9117226Y-8272226D02*
X9117226Y-8147774D01*
X8992774Y-8147774D01*
X8992774Y-8272226D01*
X9117226Y-8272226D01*
X8967000Y-8757000D02*
X9143000Y-8933000D01*
X9143000Y-8757000D02*
X8967000Y-8933000D01*
X9117226Y-8907226D02*
X9117226Y-8782774D01*
X8992774Y-8782774D01*
X8992774Y-8907226D01*
X9117226Y-8907226D01*
X9411500Y-8122000D02*
X9587500Y-8298000D01*
X9587500Y-8122000D02*
X9411500Y-8298000D01*
X9561726Y-8272226D02*
X9561726Y-8147774D01*
X9437274Y-8147774D01*
X9437274Y-8272226D01*
X9561726Y-8272226D01*
X9411500Y-8757000D02*
X9587500Y-8933000D01*
X9587500Y-8757000D02*
X9411500Y-8933000D01*
X9561726Y-8907226D02*
X9561726Y-8782774D01*
X9437274Y-8782774D01*
X9437274Y-8907226D01*
X9561726Y-8907226D01*
X9957500Y-8122000D02*
X10133500Y-8298000D01*
X10133500Y-8122000D02*
X9957500Y-8298000D01*
X10107726Y-8272226D02*
X10107726Y-8147774D01*
X9983274Y-8147774D01*
X9983274Y-8272226D01*
X10107726Y-8272226D01*
X9957500Y-8757000D02*
X10133500Y-8933000D01*
X10133500Y-8757000D02*
X9957500Y-8933000D01*
X10107726Y-8907226D02*
X10107726Y-8782774D01*
X9983274Y-8782774D01*
X9983274Y-8907226D01*
X10107726Y-8907226D01*
X10402000Y-8122000D02*
X10578000Y-8298000D01*
X10578000Y-8122000D02*
X10402000Y-8298000D01*
X10552226Y-8272226D02*
X10552226Y-8147774D01*
X10427774Y-8147774D01*
X10427774Y-8272226D01*
X10552226Y-8272226D01*
X10402000Y-8757000D02*
X10578000Y-8933000D01*
X10578000Y-8757000D02*
X10402000Y-8933000D01*
X10552226Y-8907226D02*
X10552226Y-8782774D01*
X10427774Y-8782774D01*
X10427774Y-8907226D01*
X10552226Y-8907226D01*
X20975500Y-8122000D02*
X21151500Y-8298000D01*
X21151500Y-8122000D02*
X20975500Y-8298000D01*
X21125726Y-8272226D02*
X21125726Y-8147774D01*
X21001274Y-8147774D01*
X21001274Y-8272226D01*
X21125726Y-8272226D01*
X20975500Y-8757000D02*
X21151500Y-8933000D01*
X21151500Y-8757000D02*
X20975500Y-8933000D01*
X21125726Y-8907226D02*
X21125726Y-8782774D01*
X21001274Y-8782774D01*
X21001274Y-8907226D01*
X21125726Y-8907226D01*
X21420000Y-8122000D02*
X21596000Y-8298000D01*
X21596000Y-8122000D02*
X21420000Y-8298000D01*
X21570226Y-8272226D02*
X21570226Y-8147774D01*
X21445774Y-8147774D01*
X21445774Y-8272226D01*
X21570226Y-8272226D01*
X21420000Y-8757000D02*
X21596000Y-8933000D01*
X21596000Y-8757000D02*
X21420000Y-8933000D01*
X21570226Y-8907226D02*
X21570226Y-8782774D01*
X21445774Y-8782774D01*
X21445774Y-8907226D01*
X21570226Y-8907226D01*
X21966000Y-8122000D02*
X22142000Y-8298000D01*
X22142000Y-8122000D02*
X21966000Y-8298000D01*
X22116226Y-8272226D02*
X22116226Y-8147774D01*
X21991774Y-8147774D01*
X21991774Y-8272226D01*
X22116226Y-8272226D01*
X21966000Y-8757000D02*
X22142000Y-8933000D01*
X22142000Y-8757000D02*
X21966000Y-8933000D01*
X22116226Y-8907226D02*
X22116226Y-8782774D01*
X21991774Y-8782774D01*
X21991774Y-8907226D01*
X22116226Y-8907226D01*
X22410500Y-8122000D02*
X22586500Y-8298000D01*
X22586500Y-8122000D02*
X22410500Y-8298000D01*
X22560726Y-8272226D02*
X22560726Y-8147774D01*
X22436274Y-8147774D01*
X22436274Y-8272226D01*
X22560726Y-8272226D01*
X22410500Y-8757000D02*
X22586500Y-8933000D01*
X22586500Y-8757000D02*
X22410500Y-8933000D01*
X22560726Y-8907226D02*
X22560726Y-8782774D01*
X22436274Y-8782774D01*
X22436274Y-8907226D01*
X22560726Y-8907226D01*
D18*
X20005500Y-15161500D02*
X20218500Y-15374500D01*
X20218500Y-15161500D02*
X20005500Y-15374500D01*
X20112000Y-15374500D02*
X20218500Y-15268000D01*
X20112000Y-15161500D01*
X20005500Y-15268000D01*
X20112000Y-15374500D01*
X20005500Y-16685500D02*
X20218500Y-16898500D01*
X20218500Y-16685500D02*
X20005500Y-16898500D01*
X20112000Y-16898500D02*
X20218500Y-16792000D01*
X20112000Y-16685500D01*
X20005500Y-16792000D01*
X20112000Y-16898500D01*
X20205500Y-12621500D02*
X20418500Y-12834500D01*
X20418500Y-12621500D02*
X20205500Y-12834500D01*
X20312000Y-12834500D02*
X20418500Y-12728000D01*
X20312000Y-12621500D01*
X20205500Y-12728000D01*
X20312000Y-12834500D01*
X20205500Y-14145500D02*
X20418500Y-14358500D01*
X20418500Y-14145500D02*
X20205500Y-14358500D01*
X20312000Y-14358500D02*
X20418500Y-14252000D01*
X20312000Y-14145500D01*
X20205500Y-14252000D01*
X20312000Y-14358500D01*
D19*
X8413500Y-8603500D02*
X8413500Y-8882500D01*
X8274000Y-8743000D02*
X8553000Y-8743000D01*
X8553000Y-8743000D02*
G75*
G02*
X8274000Y-8743000I-139500J0D01*
G01*
X8274000Y-8743000D02*
G75*
G02*
X8553000Y-8743000I139500J0D01*
G01*
X9772500Y-7460500D02*
X9772500Y-7739500D01*
X9633000Y-7600000D02*
X9912000Y-7600000D01*
X9912000Y-7600000D02*
G75*
G02*
X9633000Y-7600000I-139500J0D01*
G01*
X9633000Y-7600000D02*
G75*
G02*
X9912000Y-7600000I139500J0D01*
G01*
X11131500Y-8603500D02*
X11131500Y-8882500D01*
X10992000Y-8743000D02*
X11271000Y-8743000D01*
X11271000Y-8743000D02*
G75*
G02*
X10992000Y-8743000I-139500J0D01*
G01*
X10992000Y-8743000D02*
G75*
G02*
X11271000Y-8743000I139500J0D01*
G01*
X20422000Y-8603500D02*
X20422000Y-8882500D01*
X20282500Y-8743000D02*
X20561500Y-8743000D01*
X20561500Y-8743000D02*
G75*
G02*
X20282500Y-8743000I-139500J0D01*
G01*
X20282500Y-8743000D02*
G75*
G02*
X20561500Y-8743000I139500J0D01*
G01*
X21781000Y-7460500D02*
X21781000Y-7739500D01*
X21641500Y-7600000D02*
X21920500Y-7600000D01*
X21920500Y-7600000D02*
G75*
G02*
X21641500Y-7600000I-139500J0D01*
G01*
X21641500Y-7600000D02*
G75*
G02*
X21920500Y-7600000I139500J0D01*
G01*
X23140000Y-8603500D02*
X23140000Y-8882500D01*
X23000500Y-8743000D02*
X23279500Y-8743000D01*
X23279500Y-8743000D02*
G75*
G02*
X23000500Y-8743000I-139500J0D01*
G01*
X23000500Y-8743000D02*
G75*
G02*
X23279500Y-8743000I139500J0D01*
G01*
D20*
X17856067Y-7321067D02*
X17856067Y-7108933D01*
X17643933Y-7108933D01*
X17643933Y-7321067D01*
X17856067Y-7321067D01*
X17900000Y-7215000D02*
G75*
G02*
X17600000Y-7215000I-150000J0D01*
G01*
X17600000Y-7215000D02*
G75*
G02*
X17900000Y-7215000I150000J0D01*
G01*
D11*
X5341174Y-20587684D02*
X5341174Y-20387684D01*
X5341174Y-20387684D02*
X5388793Y-20387684D01*
X5388793Y-20387684D02*
X5417364Y-20397208D01*
X5417364Y-20397208D02*
X5436412Y-20416255D01*
X5436412Y-20416255D02*
X5445936Y-20435303D01*
X5445936Y-20435303D02*
X5455459Y-20473398D01*
X5455459Y-20473398D02*
X5455459Y-20501970D01*
X5455459Y-20501970D02*
X5445936Y-20540065D01*
X5445936Y-20540065D02*
X5436412Y-20559112D01*
X5436412Y-20559112D02*
X5417364Y-20578160D01*
X5417364Y-20578160D02*
X5388793Y-20587684D01*
X5388793Y-20587684D02*
X5341174Y-20587684D01*
X5541174Y-20587684D02*
X5541174Y-20454350D01*
X5541174Y-20492446D02*
X5550697Y-20473398D01*
X5550697Y-20473398D02*
X5560221Y-20463874D01*
X5560221Y-20463874D02*
X5579269Y-20454350D01*
X5579269Y-20454350D02*
X5598316Y-20454350D01*
X5664983Y-20587684D02*
X5664983Y-20454350D01*
X5664983Y-20387684D02*
X5655459Y-20397208D01*
X5655459Y-20397208D02*
X5664983Y-20406731D01*
X5664983Y-20406731D02*
X5674507Y-20397208D01*
X5674507Y-20397208D02*
X5664983Y-20387684D01*
X5664983Y-20387684D02*
X5664983Y-20406731D01*
X5788793Y-20587684D02*
X5769745Y-20578160D01*
X5769745Y-20578160D02*
X5760221Y-20559112D01*
X5760221Y-20559112D02*
X5760221Y-20387684D01*
X5893554Y-20587684D02*
X5874507Y-20578160D01*
X5874507Y-20578160D02*
X5864983Y-20559112D01*
X5864983Y-20559112D02*
X5864983Y-20387684D01*
X6122126Y-20587684D02*
X6122126Y-20387684D01*
X6122126Y-20387684D02*
X6188793Y-20530541D01*
X6188793Y-20530541D02*
X6255459Y-20387684D01*
X6255459Y-20387684D02*
X6255459Y-20587684D01*
X6436412Y-20587684D02*
X6436412Y-20482922D01*
X6436412Y-20482922D02*
X6426888Y-20463874D01*
X6426888Y-20463874D02*
X6407840Y-20454350D01*
X6407840Y-20454350D02*
X6369745Y-20454350D01*
X6369745Y-20454350D02*
X6350697Y-20463874D01*
X6436412Y-20578160D02*
X6417364Y-20587684D01*
X6417364Y-20587684D02*
X6369745Y-20587684D01*
X6369745Y-20587684D02*
X6350697Y-20578160D01*
X6350697Y-20578160D02*
X6341174Y-20559112D01*
X6341174Y-20559112D02*
X6341174Y-20540065D01*
X6341174Y-20540065D02*
X6350697Y-20521017D01*
X6350697Y-20521017D02*
X6369745Y-20511493D01*
X6369745Y-20511493D02*
X6417364Y-20511493D01*
X6417364Y-20511493D02*
X6436412Y-20501970D01*
X6531650Y-20454350D02*
X6531650Y-20654350D01*
X6531650Y-20463874D02*
X6550697Y-20454350D01*
X6550697Y-20454350D02*
X6588793Y-20454350D01*
X6588793Y-20454350D02*
X6607840Y-20463874D01*
X6607840Y-20463874D02*
X6617364Y-20473398D01*
X6617364Y-20473398D02*
X6626888Y-20492446D01*
X6626888Y-20492446D02*
X6626888Y-20549589D01*
X6626888Y-20549589D02*
X6617364Y-20568636D01*
X6617364Y-20568636D02*
X6607840Y-20578160D01*
X6607840Y-20578160D02*
X6588793Y-20587684D01*
X6588793Y-20587684D02*
X6550697Y-20587684D01*
X6550697Y-20587684D02*
X6531650Y-20578160D01*
X6712602Y-20568636D02*
X6722126Y-20578160D01*
X6722126Y-20578160D02*
X6712602Y-20587684D01*
X6712602Y-20587684D02*
X6703078Y-20578160D01*
X6703078Y-20578160D02*
X6712602Y-20568636D01*
X6712602Y-20568636D02*
X6712602Y-20587684D01*
X6712602Y-20463874D02*
X6722126Y-20473398D01*
X6722126Y-20473398D02*
X6712602Y-20482922D01*
X6712602Y-20482922D02*
X6703078Y-20473398D01*
X6703078Y-20473398D02*
X6712602Y-20463874D01*
X6712602Y-20463874D02*
X6712602Y-20482922D01*
D12*
X5050397Y-20901200D02*
X5080397Y-20931200D01*
X5080397Y-20901200D02*
X5050397Y-20931200D01*
D11*
X5379269Y-20807684D02*
X5398317Y-20807684D01*
X5398317Y-20807684D02*
X5417364Y-20817208D01*
X5417364Y-20817208D02*
X5426888Y-20826731D01*
X5426888Y-20826731D02*
X5436412Y-20845779D01*
X5436412Y-20845779D02*
X5445936Y-20883874D01*
X5445936Y-20883874D02*
X5445936Y-20931493D01*
X5445936Y-20931493D02*
X5436412Y-20969589D01*
X5436412Y-20969589D02*
X5426888Y-20988636D01*
X5426888Y-20988636D02*
X5417364Y-20998160D01*
X5417364Y-20998160D02*
X5398317Y-21007684D01*
X5398317Y-21007684D02*
X5379269Y-21007684D01*
X5379269Y-21007684D02*
X5360221Y-20998160D01*
X5360221Y-20998160D02*
X5350697Y-20988636D01*
X5350697Y-20988636D02*
X5341174Y-20969589D01*
X5341174Y-20969589D02*
X5331650Y-20931493D01*
X5331650Y-20931493D02*
X5331650Y-20883874D01*
X5331650Y-20883874D02*
X5341174Y-20845779D01*
X5341174Y-20845779D02*
X5350697Y-20826731D01*
X5350697Y-20826731D02*
X5360221Y-20817208D01*
X5360221Y-20817208D02*
X5379269Y-20807684D01*
X5531650Y-20988636D02*
X5541174Y-20998160D01*
X5541174Y-20998160D02*
X5531650Y-21007684D01*
X5531650Y-21007684D02*
X5522126Y-20998160D01*
X5522126Y-20998160D02*
X5531650Y-20988636D01*
X5531650Y-20988636D02*
X5531650Y-21007684D01*
X5607840Y-20807684D02*
X5731650Y-20807684D01*
X5731650Y-20807684D02*
X5664983Y-20883874D01*
X5664983Y-20883874D02*
X5693555Y-20883874D01*
X5693555Y-20883874D02*
X5712602Y-20893398D01*
X5712602Y-20893398D02*
X5722126Y-20902922D01*
X5722126Y-20902922D02*
X5731650Y-20921970D01*
X5731650Y-20921970D02*
X5731650Y-20969589D01*
X5731650Y-20969589D02*
X5722126Y-20988636D01*
X5722126Y-20988636D02*
X5712602Y-20998160D01*
X5712602Y-20998160D02*
X5693555Y-21007684D01*
X5693555Y-21007684D02*
X5636412Y-21007684D01*
X5636412Y-21007684D02*
X5617364Y-20998160D01*
X5617364Y-20998160D02*
X5607840Y-20988636D01*
X5855459Y-20807684D02*
X5874507Y-20807684D01*
X5874507Y-20807684D02*
X5893555Y-20817208D01*
X5893555Y-20817208D02*
X5903078Y-20826731D01*
X5903078Y-20826731D02*
X5912602Y-20845779D01*
X5912602Y-20845779D02*
X5922126Y-20883874D01*
X5922126Y-20883874D02*
X5922126Y-20931493D01*
X5922126Y-20931493D02*
X5912602Y-20969589D01*
X5912602Y-20969589D02*
X5903078Y-20988636D01*
X5903078Y-20988636D02*
X5893555Y-20998160D01*
X5893555Y-20998160D02*
X5874507Y-21007684D01*
X5874507Y-21007684D02*
X5855459Y-21007684D01*
X5855459Y-21007684D02*
X5836412Y-20998160D01*
X5836412Y-20998160D02*
X5826888Y-20988636D01*
X5826888Y-20988636D02*
X5817364Y-20969589D01*
X5817364Y-20969589D02*
X5807840Y-20931493D01*
X5807840Y-20931493D02*
X5807840Y-20883874D01*
X5807840Y-20883874D02*
X5817364Y-20845779D01*
X5817364Y-20845779D02*
X5826888Y-20826731D01*
X5826888Y-20826731D02*
X5836412Y-20817208D01*
X5836412Y-20817208D02*
X5855459Y-20807684D01*
X6045935Y-20807684D02*
X6064983Y-20807684D01*
X6064983Y-20807684D02*
X6084031Y-20817208D01*
X6084031Y-20817208D02*
X6093555Y-20826731D01*
X6093555Y-20826731D02*
X6103078Y-20845779D01*
X6103078Y-20845779D02*
X6112602Y-20883874D01*
X6112602Y-20883874D02*
X6112602Y-20931493D01*
X6112602Y-20931493D02*
X6103078Y-20969589D01*
X6103078Y-20969589D02*
X6093555Y-20988636D01*
X6093555Y-20988636D02*
X6084031Y-20998160D01*
X6084031Y-20998160D02*
X6064983Y-21007684D01*
X6064983Y-21007684D02*
X6045935Y-21007684D01*
X6045935Y-21007684D02*
X6026888Y-20998160D01*
X6026888Y-20998160D02*
X6017364Y-20988636D01*
X6017364Y-20988636D02*
X6007840Y-20969589D01*
X6007840Y-20969589D02*
X5998316Y-20931493D01*
X5998316Y-20931493D02*
X5998316Y-20883874D01*
X5998316Y-20883874D02*
X6007840Y-20845779D01*
X6007840Y-20845779D02*
X6017364Y-20826731D01*
X6017364Y-20826731D02*
X6026888Y-20817208D01*
X6026888Y-20817208D02*
X6045935Y-20807684D01*
X6198316Y-21007684D02*
X6198316Y-20874350D01*
X6198316Y-20893398D02*
X6207840Y-20883874D01*
X6207840Y-20883874D02*
X6226888Y-20874350D01*
X6226888Y-20874350D02*
X6255459Y-20874350D01*
X6255459Y-20874350D02*
X6274507Y-20883874D01*
X6274507Y-20883874D02*
X6284031Y-20902922D01*
X6284031Y-20902922D02*
X6284031Y-21007684D01*
X6284031Y-20902922D02*
X6293555Y-20883874D01*
X6293555Y-20883874D02*
X6312602Y-20874350D01*
X6312602Y-20874350D02*
X6341174Y-20874350D01*
X6341174Y-20874350D02*
X6360221Y-20883874D01*
X6360221Y-20883874D02*
X6369745Y-20902922D01*
X6369745Y-20902922D02*
X6369745Y-21007684D01*
X6464983Y-21007684D02*
X6464983Y-20874350D01*
X6464983Y-20893398D02*
X6474507Y-20883874D01*
X6474507Y-20883874D02*
X6493555Y-20874350D01*
X6493555Y-20874350D02*
X6522126Y-20874350D01*
X6522126Y-20874350D02*
X6541174Y-20883874D01*
X6541174Y-20883874D02*
X6550697Y-20902922D01*
X6550697Y-20902922D02*
X6550697Y-21007684D01*
X6550697Y-20902922D02*
X6560221Y-20883874D01*
X6560221Y-20883874D02*
X6579269Y-20874350D01*
X6579269Y-20874350D02*
X6607840Y-20874350D01*
X6607840Y-20874350D02*
X6626888Y-20883874D01*
X6626888Y-20883874D02*
X6636412Y-20902922D01*
X6636412Y-20902922D02*
X6636412Y-21007684D01*
X7026888Y-20798160D02*
X6855459Y-21055303D01*
X7284031Y-20807684D02*
X7303079Y-20807684D01*
X7303079Y-20807684D02*
X7322126Y-20817208D01*
X7322126Y-20817208D02*
X7331650Y-20826731D01*
X7331650Y-20826731D02*
X7341174Y-20845779D01*
X7341174Y-20845779D02*
X7350698Y-20883874D01*
X7350698Y-20883874D02*
X7350698Y-20931493D01*
X7350698Y-20931493D02*
X7341174Y-20969589D01*
X7341174Y-20969589D02*
X7331650Y-20988636D01*
X7331650Y-20988636D02*
X7322126Y-20998160D01*
X7322126Y-20998160D02*
X7303079Y-21007684D01*
X7303079Y-21007684D02*
X7284031Y-21007684D01*
X7284031Y-21007684D02*
X7264983Y-20998160D01*
X7264983Y-20998160D02*
X7255459Y-20988636D01*
X7255459Y-20988636D02*
X7245936Y-20969589D01*
X7245936Y-20969589D02*
X7236412Y-20931493D01*
X7236412Y-20931493D02*
X7236412Y-20883874D01*
X7236412Y-20883874D02*
X7245936Y-20845779D01*
X7245936Y-20845779D02*
X7255459Y-20826731D01*
X7255459Y-20826731D02*
X7264983Y-20817208D01*
X7264983Y-20817208D02*
X7284031Y-20807684D01*
X7436412Y-20988636D02*
X7445936Y-20998160D01*
X7445936Y-20998160D02*
X7436412Y-21007684D01*
X7436412Y-21007684D02*
X7426888Y-20998160D01*
X7426888Y-20998160D02*
X7436412Y-20988636D01*
X7436412Y-20988636D02*
X7436412Y-21007684D01*
X7569745Y-20807684D02*
X7588793Y-20807684D01*
X7588793Y-20807684D02*
X7607840Y-20817208D01*
X7607840Y-20817208D02*
X7617364Y-20826731D01*
X7617364Y-20826731D02*
X7626888Y-20845779D01*
X7626888Y-20845779D02*
X7636412Y-20883874D01*
X7636412Y-20883874D02*
X7636412Y-20931493D01*
X7636412Y-20931493D02*
X7626888Y-20969589D01*
X7626888Y-20969589D02*
X7617364Y-20988636D01*
X7617364Y-20988636D02*
X7607840Y-20998160D01*
X7607840Y-20998160D02*
X7588793Y-21007684D01*
X7588793Y-21007684D02*
X7569745Y-21007684D01*
X7569745Y-21007684D02*
X7550698Y-20998160D01*
X7550698Y-20998160D02*
X7541174Y-20988636D01*
X7541174Y-20988636D02*
X7531650Y-20969589D01*
X7531650Y-20969589D02*
X7522126Y-20931493D01*
X7522126Y-20931493D02*
X7522126Y-20883874D01*
X7522126Y-20883874D02*
X7531650Y-20845779D01*
X7531650Y-20845779D02*
X7541174Y-20826731D01*
X7541174Y-20826731D02*
X7550698Y-20817208D01*
X7550698Y-20817208D02*
X7569745Y-20807684D01*
X7826888Y-21007684D02*
X7712602Y-21007684D01*
X7769745Y-21007684D02*
X7769745Y-20807684D01*
X7769745Y-20807684D02*
X7750698Y-20836255D01*
X7750698Y-20836255D02*
X7731650Y-20855303D01*
X7731650Y-20855303D02*
X7712602Y-20864827D01*
X8017364Y-21007684D02*
X7903079Y-21007684D01*
X7960221Y-21007684D02*
X7960221Y-20807684D01*
X7960221Y-20807684D02*
X7941174Y-20836255D01*
X7941174Y-20836255D02*
X7922126Y-20855303D01*
X7922126Y-20855303D02*
X7903079Y-20864827D01*
X8131650Y-20893398D02*
X8112602Y-20883874D01*
X8112602Y-20883874D02*
X8103079Y-20874350D01*
X8103079Y-20874350D02*
X8093555Y-20855303D01*
X8093555Y-20855303D02*
X8093555Y-20845779D01*
X8093555Y-20845779D02*
X8103079Y-20826731D01*
X8103079Y-20826731D02*
X8112602Y-20817208D01*
X8112602Y-20817208D02*
X8131650Y-20807684D01*
X8131650Y-20807684D02*
X8169745Y-20807684D01*
X8169745Y-20807684D02*
X8188793Y-20817208D01*
X8188793Y-20817208D02*
X8198317Y-20826731D01*
X8198317Y-20826731D02*
X8207840Y-20845779D01*
X8207840Y-20845779D02*
X8207840Y-20855303D01*
X8207840Y-20855303D02*
X8198317Y-20874350D01*
X8198317Y-20874350D02*
X8188793Y-20883874D01*
X8188793Y-20883874D02*
X8169745Y-20893398D01*
X8169745Y-20893398D02*
X8131650Y-20893398D01*
X8131650Y-20893398D02*
X8112602Y-20902922D01*
X8112602Y-20902922D02*
X8103079Y-20912446D01*
X8103079Y-20912446D02*
X8093555Y-20931493D01*
X8093555Y-20931493D02*
X8093555Y-20969589D01*
X8093555Y-20969589D02*
X8103079Y-20988636D01*
X8103079Y-20988636D02*
X8112602Y-20998160D01*
X8112602Y-20998160D02*
X8131650Y-21007684D01*
X8131650Y-21007684D02*
X8169745Y-21007684D01*
X8169745Y-21007684D02*
X8188793Y-20998160D01*
X8188793Y-20998160D02*
X8198317Y-20988636D01*
X8198317Y-20988636D02*
X8207840Y-20969589D01*
X8207840Y-20969589D02*
X8207840Y-20931493D01*
X8207840Y-20931493D02*
X8198317Y-20912446D01*
X8198317Y-20912446D02*
X8188793Y-20902922D01*
X8188793Y-20902922D02*
X8169745Y-20893398D01*
X8284031Y-20807684D02*
X8284031Y-20845779D01*
X8360221Y-20807684D02*
X8360221Y-20845779D01*
X8655460Y-21083874D02*
X8645936Y-21074350D01*
X8645936Y-21074350D02*
X8626888Y-21045779D01*
X8626888Y-21045779D02*
X8617364Y-21026731D01*
X8617364Y-21026731D02*
X8607841Y-20998160D01*
X8607841Y-20998160D02*
X8598317Y-20950541D01*
X8598317Y-20950541D02*
X8598317Y-20912446D01*
X8598317Y-20912446D02*
X8607841Y-20864827D01*
X8607841Y-20864827D02*
X8617364Y-20836255D01*
X8617364Y-20836255D02*
X8626888Y-20817208D01*
X8626888Y-20817208D02*
X8645936Y-20788636D01*
X8645936Y-20788636D02*
X8655460Y-20779112D01*
X8817364Y-20874350D02*
X8817364Y-21007684D01*
X8769745Y-20798160D02*
X8722126Y-20941017D01*
X8722126Y-20941017D02*
X8845936Y-20941017D01*
X9074507Y-21007684D02*
X9074507Y-20807684D01*
X9160222Y-21007684D02*
X9160222Y-20902922D01*
X9160222Y-20902922D02*
X9150698Y-20883874D01*
X9150698Y-20883874D02*
X9131650Y-20874350D01*
X9131650Y-20874350D02*
X9103079Y-20874350D01*
X9103079Y-20874350D02*
X9084031Y-20883874D01*
X9084031Y-20883874D02*
X9074507Y-20893398D01*
X9284031Y-21007684D02*
X9264984Y-20998160D01*
X9264984Y-20998160D02*
X9255460Y-20988636D01*
X9255460Y-20988636D02*
X9245936Y-20969589D01*
X9245936Y-20969589D02*
X9245936Y-20912446D01*
X9245936Y-20912446D02*
X9255460Y-20893398D01*
X9255460Y-20893398D02*
X9264984Y-20883874D01*
X9264984Y-20883874D02*
X9284031Y-20874350D01*
X9284031Y-20874350D02*
X9312603Y-20874350D01*
X9312603Y-20874350D02*
X9331650Y-20883874D01*
X9331650Y-20883874D02*
X9341174Y-20893398D01*
X9341174Y-20893398D02*
X9350698Y-20912446D01*
X9350698Y-20912446D02*
X9350698Y-20969589D01*
X9350698Y-20969589D02*
X9341174Y-20988636D01*
X9341174Y-20988636D02*
X9331650Y-20998160D01*
X9331650Y-20998160D02*
X9312603Y-21007684D01*
X9312603Y-21007684D02*
X9284031Y-21007684D01*
X9464984Y-21007684D02*
X9445936Y-20998160D01*
X9445936Y-20998160D02*
X9436412Y-20979112D01*
X9436412Y-20979112D02*
X9436412Y-20807684D01*
X9617365Y-20998160D02*
X9598317Y-21007684D01*
X9598317Y-21007684D02*
X9560222Y-21007684D01*
X9560222Y-21007684D02*
X9541174Y-20998160D01*
X9541174Y-20998160D02*
X9531650Y-20979112D01*
X9531650Y-20979112D02*
X9531650Y-20902922D01*
X9531650Y-20902922D02*
X9541174Y-20883874D01*
X9541174Y-20883874D02*
X9560222Y-20874350D01*
X9560222Y-20874350D02*
X9598317Y-20874350D01*
X9598317Y-20874350D02*
X9617365Y-20883874D01*
X9617365Y-20883874D02*
X9626888Y-20902922D01*
X9626888Y-20902922D02*
X9626888Y-20921970D01*
X9626888Y-20921970D02*
X9531650Y-20941017D01*
X9703079Y-20998160D02*
X9722126Y-21007684D01*
X9722126Y-21007684D02*
X9760222Y-21007684D01*
X9760222Y-21007684D02*
X9779269Y-20998160D01*
X9779269Y-20998160D02*
X9788793Y-20979112D01*
X9788793Y-20979112D02*
X9788793Y-20969589D01*
X9788793Y-20969589D02*
X9779269Y-20950541D01*
X9779269Y-20950541D02*
X9760222Y-20941017D01*
X9760222Y-20941017D02*
X9731650Y-20941017D01*
X9731650Y-20941017D02*
X9712603Y-20931493D01*
X9712603Y-20931493D02*
X9703079Y-20912446D01*
X9703079Y-20912446D02*
X9703079Y-20902922D01*
X9703079Y-20902922D02*
X9712603Y-20883874D01*
X9712603Y-20883874D02*
X9731650Y-20874350D01*
X9731650Y-20874350D02*
X9760222Y-20874350D01*
X9760222Y-20874350D02*
X9779269Y-20883874D01*
X9855460Y-21083874D02*
X9864984Y-21074350D01*
X9864984Y-21074350D02*
X9884031Y-21045779D01*
X9884031Y-21045779D02*
X9893555Y-21026731D01*
X9893555Y-21026731D02*
X9903079Y-20998160D01*
X9903079Y-20998160D02*
X9912603Y-20950541D01*
X9912603Y-20950541D02*
X9912603Y-20912446D01*
X9912603Y-20912446D02*
X9903079Y-20864827D01*
X9903079Y-20864827D02*
X9893555Y-20836255D01*
X9893555Y-20836255D02*
X9884031Y-20817208D01*
X9884031Y-20817208D02*
X9864984Y-20788636D01*
X9864984Y-20788636D02*
X9855460Y-20779112D01*
D12*
X5080397Y-21180200D02*
G75*
G02*
X5030397Y-21180200I-25000J0D01*
G01*
X5030397Y-21180200D02*
G75*
G02*
X5080397Y-21180200I25000J0D01*
G01*
D11*
X5379269Y-21071684D02*
X5398317Y-21071684D01*
X5398317Y-21071684D02*
X5417364Y-21081208D01*
X5417364Y-21081208D02*
X5426888Y-21090731D01*
X5426888Y-21090731D02*
X5436412Y-21109779D01*
X5436412Y-21109779D02*
X5445936Y-21147874D01*
X5445936Y-21147874D02*
X5445936Y-21195493D01*
X5445936Y-21195493D02*
X5436412Y-21233589D01*
X5436412Y-21233589D02*
X5426888Y-21252636D01*
X5426888Y-21252636D02*
X5417364Y-21262160D01*
X5417364Y-21262160D02*
X5398317Y-21271684D01*
X5398317Y-21271684D02*
X5379269Y-21271684D01*
X5379269Y-21271684D02*
X5360221Y-21262160D01*
X5360221Y-21262160D02*
X5350697Y-21252636D01*
X5350697Y-21252636D02*
X5341174Y-21233589D01*
X5341174Y-21233589D02*
X5331650Y-21195493D01*
X5331650Y-21195493D02*
X5331650Y-21147874D01*
X5331650Y-21147874D02*
X5341174Y-21109779D01*
X5341174Y-21109779D02*
X5350697Y-21090731D01*
X5350697Y-21090731D02*
X5360221Y-21081208D01*
X5360221Y-21081208D02*
X5379269Y-21071684D01*
X5531650Y-21252636D02*
X5541174Y-21262160D01*
X5541174Y-21262160D02*
X5531650Y-21271684D01*
X5531650Y-21271684D02*
X5522126Y-21262160D01*
X5522126Y-21262160D02*
X5531650Y-21252636D01*
X5531650Y-21252636D02*
X5531650Y-21271684D01*
X5722126Y-21071684D02*
X5626888Y-21071684D01*
X5626888Y-21071684D02*
X5617364Y-21166922D01*
X5617364Y-21166922D02*
X5626888Y-21157398D01*
X5626888Y-21157398D02*
X5645935Y-21147874D01*
X5645935Y-21147874D02*
X5693555Y-21147874D01*
X5693555Y-21147874D02*
X5712602Y-21157398D01*
X5712602Y-21157398D02*
X5722126Y-21166922D01*
X5722126Y-21166922D02*
X5731650Y-21185970D01*
X5731650Y-21185970D02*
X5731650Y-21233589D01*
X5731650Y-21233589D02*
X5722126Y-21252636D01*
X5722126Y-21252636D02*
X5712602Y-21262160D01*
X5712602Y-21262160D02*
X5693555Y-21271684D01*
X5693555Y-21271684D02*
X5645935Y-21271684D01*
X5645935Y-21271684D02*
X5626888Y-21262160D01*
X5626888Y-21262160D02*
X5617364Y-21252636D01*
X5855459Y-21071684D02*
X5874507Y-21071684D01*
X5874507Y-21071684D02*
X5893555Y-21081208D01*
X5893555Y-21081208D02*
X5903078Y-21090731D01*
X5903078Y-21090731D02*
X5912602Y-21109779D01*
X5912602Y-21109779D02*
X5922126Y-21147874D01*
X5922126Y-21147874D02*
X5922126Y-21195493D01*
X5922126Y-21195493D02*
X5912602Y-21233589D01*
X5912602Y-21233589D02*
X5903078Y-21252636D01*
X5903078Y-21252636D02*
X5893555Y-21262160D01*
X5893555Y-21262160D02*
X5874507Y-21271684D01*
X5874507Y-21271684D02*
X5855459Y-21271684D01*
X5855459Y-21271684D02*
X5836412Y-21262160D01*
X5836412Y-21262160D02*
X5826888Y-21252636D01*
X5826888Y-21252636D02*
X5817364Y-21233589D01*
X5817364Y-21233589D02*
X5807840Y-21195493D01*
X5807840Y-21195493D02*
X5807840Y-21147874D01*
X5807840Y-21147874D02*
X5817364Y-21109779D01*
X5817364Y-21109779D02*
X5826888Y-21090731D01*
X5826888Y-21090731D02*
X5836412Y-21081208D01*
X5836412Y-21081208D02*
X5855459Y-21071684D01*
X6045935Y-21071684D02*
X6064983Y-21071684D01*
X6064983Y-21071684D02*
X6084031Y-21081208D01*
X6084031Y-21081208D02*
X6093555Y-21090731D01*
X6093555Y-21090731D02*
X6103078Y-21109779D01*
X6103078Y-21109779D02*
X6112602Y-21147874D01*
X6112602Y-21147874D02*
X6112602Y-21195493D01*
X6112602Y-21195493D02*
X6103078Y-21233589D01*
X6103078Y-21233589D02*
X6093555Y-21252636D01*
X6093555Y-21252636D02*
X6084031Y-21262160D01*
X6084031Y-21262160D02*
X6064983Y-21271684D01*
X6064983Y-21271684D02*
X6045935Y-21271684D01*
X6045935Y-21271684D02*
X6026888Y-21262160D01*
X6026888Y-21262160D02*
X6017364Y-21252636D01*
X6017364Y-21252636D02*
X6007840Y-21233589D01*
X6007840Y-21233589D02*
X5998316Y-21195493D01*
X5998316Y-21195493D02*
X5998316Y-21147874D01*
X5998316Y-21147874D02*
X6007840Y-21109779D01*
X6007840Y-21109779D02*
X6017364Y-21090731D01*
X6017364Y-21090731D02*
X6026888Y-21081208D01*
X6026888Y-21081208D02*
X6045935Y-21071684D01*
X6198316Y-21271684D02*
X6198316Y-21138350D01*
X6198316Y-21157398D02*
X6207840Y-21147874D01*
X6207840Y-21147874D02*
X6226888Y-21138350D01*
X6226888Y-21138350D02*
X6255459Y-21138350D01*
X6255459Y-21138350D02*
X6274507Y-21147874D01*
X6274507Y-21147874D02*
X6284031Y-21166922D01*
X6284031Y-21166922D02*
X6284031Y-21271684D01*
X6284031Y-21166922D02*
X6293555Y-21147874D01*
X6293555Y-21147874D02*
X6312602Y-21138350D01*
X6312602Y-21138350D02*
X6341174Y-21138350D01*
X6341174Y-21138350D02*
X6360221Y-21147874D01*
X6360221Y-21147874D02*
X6369745Y-21166922D01*
X6369745Y-21166922D02*
X6369745Y-21271684D01*
X6464983Y-21271684D02*
X6464983Y-21138350D01*
X6464983Y-21157398D02*
X6474507Y-21147874D01*
X6474507Y-21147874D02*
X6493555Y-21138350D01*
X6493555Y-21138350D02*
X6522126Y-21138350D01*
X6522126Y-21138350D02*
X6541174Y-21147874D01*
X6541174Y-21147874D02*
X6550697Y-21166922D01*
X6550697Y-21166922D02*
X6550697Y-21271684D01*
X6550697Y-21166922D02*
X6560221Y-21147874D01*
X6560221Y-21147874D02*
X6579269Y-21138350D01*
X6579269Y-21138350D02*
X6607840Y-21138350D01*
X6607840Y-21138350D02*
X6626888Y-21147874D01*
X6626888Y-21147874D02*
X6636412Y-21166922D01*
X6636412Y-21166922D02*
X6636412Y-21271684D01*
X7026888Y-21062160D02*
X6855459Y-21319303D01*
X7284031Y-21071684D02*
X7303079Y-21071684D01*
X7303079Y-21071684D02*
X7322126Y-21081208D01*
X7322126Y-21081208D02*
X7331650Y-21090731D01*
X7331650Y-21090731D02*
X7341174Y-21109779D01*
X7341174Y-21109779D02*
X7350698Y-21147874D01*
X7350698Y-21147874D02*
X7350698Y-21195493D01*
X7350698Y-21195493D02*
X7341174Y-21233589D01*
X7341174Y-21233589D02*
X7331650Y-21252636D01*
X7331650Y-21252636D02*
X7322126Y-21262160D01*
X7322126Y-21262160D02*
X7303079Y-21271684D01*
X7303079Y-21271684D02*
X7284031Y-21271684D01*
X7284031Y-21271684D02*
X7264983Y-21262160D01*
X7264983Y-21262160D02*
X7255459Y-21252636D01*
X7255459Y-21252636D02*
X7245936Y-21233589D01*
X7245936Y-21233589D02*
X7236412Y-21195493D01*
X7236412Y-21195493D02*
X7236412Y-21147874D01*
X7236412Y-21147874D02*
X7245936Y-21109779D01*
X7245936Y-21109779D02*
X7255459Y-21090731D01*
X7255459Y-21090731D02*
X7264983Y-21081208D01*
X7264983Y-21081208D02*
X7284031Y-21071684D01*
X7436412Y-21252636D02*
X7445936Y-21262160D01*
X7445936Y-21262160D02*
X7436412Y-21271684D01*
X7436412Y-21271684D02*
X7426888Y-21262160D01*
X7426888Y-21262160D02*
X7436412Y-21252636D01*
X7436412Y-21252636D02*
X7436412Y-21271684D01*
X7569745Y-21071684D02*
X7588793Y-21071684D01*
X7588793Y-21071684D02*
X7607840Y-21081208D01*
X7607840Y-21081208D02*
X7617364Y-21090731D01*
X7617364Y-21090731D02*
X7626888Y-21109779D01*
X7626888Y-21109779D02*
X7636412Y-21147874D01*
X7636412Y-21147874D02*
X7636412Y-21195493D01*
X7636412Y-21195493D02*
X7626888Y-21233589D01*
X7626888Y-21233589D02*
X7617364Y-21252636D01*
X7617364Y-21252636D02*
X7607840Y-21262160D01*
X7607840Y-21262160D02*
X7588793Y-21271684D01*
X7588793Y-21271684D02*
X7569745Y-21271684D01*
X7569745Y-21271684D02*
X7550698Y-21262160D01*
X7550698Y-21262160D02*
X7541174Y-21252636D01*
X7541174Y-21252636D02*
X7531650Y-21233589D01*
X7531650Y-21233589D02*
X7522126Y-21195493D01*
X7522126Y-21195493D02*
X7522126Y-21147874D01*
X7522126Y-21147874D02*
X7531650Y-21109779D01*
X7531650Y-21109779D02*
X7541174Y-21090731D01*
X7541174Y-21090731D02*
X7550698Y-21081208D01*
X7550698Y-21081208D02*
X7569745Y-21071684D01*
X7826888Y-21271684D02*
X7712602Y-21271684D01*
X7769745Y-21271684D02*
X7769745Y-21071684D01*
X7769745Y-21071684D02*
X7750698Y-21100255D01*
X7750698Y-21100255D02*
X7731650Y-21119303D01*
X7731650Y-21119303D02*
X7712602Y-21128827D01*
X7922126Y-21271684D02*
X7960221Y-21271684D01*
X7960221Y-21271684D02*
X7979269Y-21262160D01*
X7979269Y-21262160D02*
X7988793Y-21252636D01*
X7988793Y-21252636D02*
X8007840Y-21224065D01*
X8007840Y-21224065D02*
X8017364Y-21185970D01*
X8017364Y-21185970D02*
X8017364Y-21109779D01*
X8017364Y-21109779D02*
X8007840Y-21090731D01*
X8007840Y-21090731D02*
X7998317Y-21081208D01*
X7998317Y-21081208D02*
X7979269Y-21071684D01*
X7979269Y-21071684D02*
X7941174Y-21071684D01*
X7941174Y-21071684D02*
X7922126Y-21081208D01*
X7922126Y-21081208D02*
X7912602Y-21090731D01*
X7912602Y-21090731D02*
X7903079Y-21109779D01*
X7903079Y-21109779D02*
X7903079Y-21157398D01*
X7903079Y-21157398D02*
X7912602Y-21176446D01*
X7912602Y-21176446D02*
X7922126Y-21185970D01*
X7922126Y-21185970D02*
X7941174Y-21195493D01*
X7941174Y-21195493D02*
X7979269Y-21195493D01*
X7979269Y-21195493D02*
X7998317Y-21185970D01*
X7998317Y-21185970D02*
X8007840Y-21176446D01*
X8007840Y-21176446D02*
X8017364Y-21157398D01*
X8084031Y-21071684D02*
X8217364Y-21071684D01*
X8217364Y-21071684D02*
X8131650Y-21271684D01*
X8284031Y-21071684D02*
X8284031Y-21109779D01*
X8360221Y-21071684D02*
X8360221Y-21109779D01*
X8655460Y-21347874D02*
X8645936Y-21338350D01*
X8645936Y-21338350D02*
X8626888Y-21309779D01*
X8626888Y-21309779D02*
X8617364Y-21290731D01*
X8617364Y-21290731D02*
X8607841Y-21262160D01*
X8607841Y-21262160D02*
X8598317Y-21214541D01*
X8598317Y-21214541D02*
X8598317Y-21176446D01*
X8598317Y-21176446D02*
X8607841Y-21128827D01*
X8607841Y-21128827D02*
X8617364Y-21100255D01*
X8617364Y-21100255D02*
X8626888Y-21081208D01*
X8626888Y-21081208D02*
X8645936Y-21052636D01*
X8645936Y-21052636D02*
X8655460Y-21043112D01*
X8760222Y-21157398D02*
X8741174Y-21147874D01*
X8741174Y-21147874D02*
X8731650Y-21138350D01*
X8731650Y-21138350D02*
X8722126Y-21119303D01*
X8722126Y-21119303D02*
X8722126Y-21109779D01*
X8722126Y-21109779D02*
X8731650Y-21090731D01*
X8731650Y-21090731D02*
X8741174Y-21081208D01*
X8741174Y-21081208D02*
X8760222Y-21071684D01*
X8760222Y-21071684D02*
X8798317Y-21071684D01*
X8798317Y-21071684D02*
X8817364Y-21081208D01*
X8817364Y-21081208D02*
X8826888Y-21090731D01*
X8826888Y-21090731D02*
X8836412Y-21109779D01*
X8836412Y-21109779D02*
X8836412Y-21119303D01*
X8836412Y-21119303D02*
X8826888Y-21138350D01*
X8826888Y-21138350D02*
X8817364Y-21147874D01*
X8817364Y-21147874D02*
X8798317Y-21157398D01*
X8798317Y-21157398D02*
X8760222Y-21157398D01*
X8760222Y-21157398D02*
X8741174Y-21166922D01*
X8741174Y-21166922D02*
X8731650Y-21176446D01*
X8731650Y-21176446D02*
X8722126Y-21195493D01*
X8722126Y-21195493D02*
X8722126Y-21233589D01*
X8722126Y-21233589D02*
X8731650Y-21252636D01*
X8731650Y-21252636D02*
X8741174Y-21262160D01*
X8741174Y-21262160D02*
X8760222Y-21271684D01*
X8760222Y-21271684D02*
X8798317Y-21271684D01*
X8798317Y-21271684D02*
X8817364Y-21262160D01*
X8817364Y-21262160D02*
X8826888Y-21252636D01*
X8826888Y-21252636D02*
X8836412Y-21233589D01*
X8836412Y-21233589D02*
X8836412Y-21195493D01*
X8836412Y-21195493D02*
X8826888Y-21176446D01*
X8826888Y-21176446D02*
X8817364Y-21166922D01*
X8817364Y-21166922D02*
X8798317Y-21157398D01*
X9074507Y-21271684D02*
X9074507Y-21071684D01*
X9160222Y-21271684D02*
X9160222Y-21166922D01*
X9160222Y-21166922D02*
X9150698Y-21147874D01*
X9150698Y-21147874D02*
X9131650Y-21138350D01*
X9131650Y-21138350D02*
X9103079Y-21138350D01*
X9103079Y-21138350D02*
X9084031Y-21147874D01*
X9084031Y-21147874D02*
X9074507Y-21157398D01*
X9284031Y-21271684D02*
X9264984Y-21262160D01*
X9264984Y-21262160D02*
X9255460Y-21252636D01*
X9255460Y-21252636D02*
X9245936Y-21233589D01*
X9245936Y-21233589D02*
X9245936Y-21176446D01*
X9245936Y-21176446D02*
X9255460Y-21157398D01*
X9255460Y-21157398D02*
X9264984Y-21147874D01*
X9264984Y-21147874D02*
X9284031Y-21138350D01*
X9284031Y-21138350D02*
X9312603Y-21138350D01*
X9312603Y-21138350D02*
X9331650Y-21147874D01*
X9331650Y-21147874D02*
X9341174Y-21157398D01*
X9341174Y-21157398D02*
X9350698Y-21176446D01*
X9350698Y-21176446D02*
X9350698Y-21233589D01*
X9350698Y-21233589D02*
X9341174Y-21252636D01*
X9341174Y-21252636D02*
X9331650Y-21262160D01*
X9331650Y-21262160D02*
X9312603Y-21271684D01*
X9312603Y-21271684D02*
X9284031Y-21271684D01*
X9464984Y-21271684D02*
X9445936Y-21262160D01*
X9445936Y-21262160D02*
X9436412Y-21243112D01*
X9436412Y-21243112D02*
X9436412Y-21071684D01*
X9617365Y-21262160D02*
X9598317Y-21271684D01*
X9598317Y-21271684D02*
X9560222Y-21271684D01*
X9560222Y-21271684D02*
X9541174Y-21262160D01*
X9541174Y-21262160D02*
X9531650Y-21243112D01*
X9531650Y-21243112D02*
X9531650Y-21166922D01*
X9531650Y-21166922D02*
X9541174Y-21147874D01*
X9541174Y-21147874D02*
X9560222Y-21138350D01*
X9560222Y-21138350D02*
X9598317Y-21138350D01*
X9598317Y-21138350D02*
X9617365Y-21147874D01*
X9617365Y-21147874D02*
X9626888Y-21166922D01*
X9626888Y-21166922D02*
X9626888Y-21185970D01*
X9626888Y-21185970D02*
X9531650Y-21205017D01*
X9703079Y-21262160D02*
X9722126Y-21271684D01*
X9722126Y-21271684D02*
X9760222Y-21271684D01*
X9760222Y-21271684D02*
X9779269Y-21262160D01*
X9779269Y-21262160D02*
X9788793Y-21243112D01*
X9788793Y-21243112D02*
X9788793Y-21233589D01*
X9788793Y-21233589D02*
X9779269Y-21214541D01*
X9779269Y-21214541D02*
X9760222Y-21205017D01*
X9760222Y-21205017D02*
X9731650Y-21205017D01*
X9731650Y-21205017D02*
X9712603Y-21195493D01*
X9712603Y-21195493D02*
X9703079Y-21176446D01*
X9703079Y-21176446D02*
X9703079Y-21166922D01*
X9703079Y-21166922D02*
X9712603Y-21147874D01*
X9712603Y-21147874D02*
X9731650Y-21138350D01*
X9731650Y-21138350D02*
X9760222Y-21138350D01*
X9760222Y-21138350D02*
X9779269Y-21147874D01*
X9855460Y-21347874D02*
X9864984Y-21338350D01*
X9864984Y-21338350D02*
X9884031Y-21309779D01*
X9884031Y-21309779D02*
X9893555Y-21290731D01*
X9893555Y-21290731D02*
X9903079Y-21262160D01*
X9903079Y-21262160D02*
X9912603Y-21214541D01*
X9912603Y-21214541D02*
X9912603Y-21176446D01*
X9912603Y-21176446D02*
X9903079Y-21128827D01*
X9903079Y-21128827D02*
X9893555Y-21100255D01*
X9893555Y-21100255D02*
X9884031Y-21081208D01*
X9884031Y-21081208D02*
X9864984Y-21052636D01*
X9864984Y-21052636D02*
X9855460Y-21043112D01*
D12*
X5037217Y-21401020D02*
X5037217Y-21487380D01*
X4994037Y-21444200D02*
X5080397Y-21444200D01*
D11*
X5379269Y-21335684D02*
X5398317Y-21335684D01*
X5398317Y-21335684D02*
X5417364Y-21345208D01*
X5417364Y-21345208D02*
X5426888Y-21354731D01*
X5426888Y-21354731D02*
X5436412Y-21373779D01*
X5436412Y-21373779D02*
X5445936Y-21411874D01*
X5445936Y-21411874D02*
X5445936Y-21459493D01*
X5445936Y-21459493D02*
X5436412Y-21497589D01*
X5436412Y-21497589D02*
X5426888Y-21516636D01*
X5426888Y-21516636D02*
X5417364Y-21526160D01*
X5417364Y-21526160D02*
X5398317Y-21535684D01*
X5398317Y-21535684D02*
X5379269Y-21535684D01*
X5379269Y-21535684D02*
X5360221Y-21526160D01*
X5360221Y-21526160D02*
X5350697Y-21516636D01*
X5350697Y-21516636D02*
X5341174Y-21497589D01*
X5341174Y-21497589D02*
X5331650Y-21459493D01*
X5331650Y-21459493D02*
X5331650Y-21411874D01*
X5331650Y-21411874D02*
X5341174Y-21373779D01*
X5341174Y-21373779D02*
X5350697Y-21354731D01*
X5350697Y-21354731D02*
X5360221Y-21345208D01*
X5360221Y-21345208D02*
X5379269Y-21335684D01*
X5531650Y-21516636D02*
X5541174Y-21526160D01*
X5541174Y-21526160D02*
X5531650Y-21535684D01*
X5531650Y-21535684D02*
X5522126Y-21526160D01*
X5522126Y-21526160D02*
X5531650Y-21516636D01*
X5531650Y-21516636D02*
X5531650Y-21535684D01*
X5655459Y-21421398D02*
X5636412Y-21411874D01*
X5636412Y-21411874D02*
X5626888Y-21402350D01*
X5626888Y-21402350D02*
X5617364Y-21383303D01*
X5617364Y-21383303D02*
X5617364Y-21373779D01*
X5617364Y-21373779D02*
X5626888Y-21354731D01*
X5626888Y-21354731D02*
X5636412Y-21345208D01*
X5636412Y-21345208D02*
X5655459Y-21335684D01*
X5655459Y-21335684D02*
X5693555Y-21335684D01*
X5693555Y-21335684D02*
X5712602Y-21345208D01*
X5712602Y-21345208D02*
X5722126Y-21354731D01*
X5722126Y-21354731D02*
X5731650Y-21373779D01*
X5731650Y-21373779D02*
X5731650Y-21383303D01*
X5731650Y-21383303D02*
X5722126Y-21402350D01*
X5722126Y-21402350D02*
X5712602Y-21411874D01*
X5712602Y-21411874D02*
X5693555Y-21421398D01*
X5693555Y-21421398D02*
X5655459Y-21421398D01*
X5655459Y-21421398D02*
X5636412Y-21430922D01*
X5636412Y-21430922D02*
X5626888Y-21440446D01*
X5626888Y-21440446D02*
X5617364Y-21459493D01*
X5617364Y-21459493D02*
X5617364Y-21497589D01*
X5617364Y-21497589D02*
X5626888Y-21516636D01*
X5626888Y-21516636D02*
X5636412Y-21526160D01*
X5636412Y-21526160D02*
X5655459Y-21535684D01*
X5655459Y-21535684D02*
X5693555Y-21535684D01*
X5693555Y-21535684D02*
X5712602Y-21526160D01*
X5712602Y-21526160D02*
X5722126Y-21516636D01*
X5722126Y-21516636D02*
X5731650Y-21497589D01*
X5731650Y-21497589D02*
X5731650Y-21459493D01*
X5731650Y-21459493D02*
X5722126Y-21440446D01*
X5722126Y-21440446D02*
X5712602Y-21430922D01*
X5712602Y-21430922D02*
X5693555Y-21421398D01*
X5903078Y-21335684D02*
X5864983Y-21335684D01*
X5864983Y-21335684D02*
X5845935Y-21345208D01*
X5845935Y-21345208D02*
X5836412Y-21354731D01*
X5836412Y-21354731D02*
X5817364Y-21383303D01*
X5817364Y-21383303D02*
X5807840Y-21421398D01*
X5807840Y-21421398D02*
X5807840Y-21497589D01*
X5807840Y-21497589D02*
X5817364Y-21516636D01*
X5817364Y-21516636D02*
X5826888Y-21526160D01*
X5826888Y-21526160D02*
X5845935Y-21535684D01*
X5845935Y-21535684D02*
X5884031Y-21535684D01*
X5884031Y-21535684D02*
X5903078Y-21526160D01*
X5903078Y-21526160D02*
X5912602Y-21516636D01*
X5912602Y-21516636D02*
X5922126Y-21497589D01*
X5922126Y-21497589D02*
X5922126Y-21449970D01*
X5922126Y-21449970D02*
X5912602Y-21430922D01*
X5912602Y-21430922D02*
X5903078Y-21421398D01*
X5903078Y-21421398D02*
X5884031Y-21411874D01*
X5884031Y-21411874D02*
X5845935Y-21411874D01*
X5845935Y-21411874D02*
X5826888Y-21421398D01*
X5826888Y-21421398D02*
X5817364Y-21430922D01*
X5817364Y-21430922D02*
X5807840Y-21449970D01*
X6093555Y-21402350D02*
X6093555Y-21535684D01*
X6045935Y-21326160D02*
X5998316Y-21469017D01*
X5998316Y-21469017D02*
X6122126Y-21469017D01*
X6198316Y-21535684D02*
X6198316Y-21402350D01*
X6198316Y-21421398D02*
X6207840Y-21411874D01*
X6207840Y-21411874D02*
X6226888Y-21402350D01*
X6226888Y-21402350D02*
X6255459Y-21402350D01*
X6255459Y-21402350D02*
X6274507Y-21411874D01*
X6274507Y-21411874D02*
X6284031Y-21430922D01*
X6284031Y-21430922D02*
X6284031Y-21535684D01*
X6284031Y-21430922D02*
X6293555Y-21411874D01*
X6293555Y-21411874D02*
X6312602Y-21402350D01*
X6312602Y-21402350D02*
X6341174Y-21402350D01*
X6341174Y-21402350D02*
X6360221Y-21411874D01*
X6360221Y-21411874D02*
X6369745Y-21430922D01*
X6369745Y-21430922D02*
X6369745Y-21535684D01*
X6464983Y-21535684D02*
X6464983Y-21402350D01*
X6464983Y-21421398D02*
X6474507Y-21411874D01*
X6474507Y-21411874D02*
X6493555Y-21402350D01*
X6493555Y-21402350D02*
X6522126Y-21402350D01*
X6522126Y-21402350D02*
X6541174Y-21411874D01*
X6541174Y-21411874D02*
X6550697Y-21430922D01*
X6550697Y-21430922D02*
X6550697Y-21535684D01*
X6550697Y-21430922D02*
X6560221Y-21411874D01*
X6560221Y-21411874D02*
X6579269Y-21402350D01*
X6579269Y-21402350D02*
X6607840Y-21402350D01*
X6607840Y-21402350D02*
X6626888Y-21411874D01*
X6626888Y-21411874D02*
X6636412Y-21430922D01*
X6636412Y-21430922D02*
X6636412Y-21535684D01*
X7026888Y-21326160D02*
X6855459Y-21583303D01*
X7284031Y-21335684D02*
X7303079Y-21335684D01*
X7303079Y-21335684D02*
X7322126Y-21345208D01*
X7322126Y-21345208D02*
X7331650Y-21354731D01*
X7331650Y-21354731D02*
X7341174Y-21373779D01*
X7341174Y-21373779D02*
X7350698Y-21411874D01*
X7350698Y-21411874D02*
X7350698Y-21459493D01*
X7350698Y-21459493D02*
X7341174Y-21497589D01*
X7341174Y-21497589D02*
X7331650Y-21516636D01*
X7331650Y-21516636D02*
X7322126Y-21526160D01*
X7322126Y-21526160D02*
X7303079Y-21535684D01*
X7303079Y-21535684D02*
X7284031Y-21535684D01*
X7284031Y-21535684D02*
X7264983Y-21526160D01*
X7264983Y-21526160D02*
X7255459Y-21516636D01*
X7255459Y-21516636D02*
X7245936Y-21497589D01*
X7245936Y-21497589D02*
X7236412Y-21459493D01*
X7236412Y-21459493D02*
X7236412Y-21411874D01*
X7236412Y-21411874D02*
X7245936Y-21373779D01*
X7245936Y-21373779D02*
X7255459Y-21354731D01*
X7255459Y-21354731D02*
X7264983Y-21345208D01*
X7264983Y-21345208D02*
X7284031Y-21335684D01*
X7436412Y-21516636D02*
X7445936Y-21526160D01*
X7445936Y-21526160D02*
X7436412Y-21535684D01*
X7436412Y-21535684D02*
X7426888Y-21526160D01*
X7426888Y-21526160D02*
X7436412Y-21516636D01*
X7436412Y-21516636D02*
X7436412Y-21535684D01*
X7569745Y-21335684D02*
X7588793Y-21335684D01*
X7588793Y-21335684D02*
X7607840Y-21345208D01*
X7607840Y-21345208D02*
X7617364Y-21354731D01*
X7617364Y-21354731D02*
X7626888Y-21373779D01*
X7626888Y-21373779D02*
X7636412Y-21411874D01*
X7636412Y-21411874D02*
X7636412Y-21459493D01*
X7636412Y-21459493D02*
X7626888Y-21497589D01*
X7626888Y-21497589D02*
X7617364Y-21516636D01*
X7617364Y-21516636D02*
X7607840Y-21526160D01*
X7607840Y-21526160D02*
X7588793Y-21535684D01*
X7588793Y-21535684D02*
X7569745Y-21535684D01*
X7569745Y-21535684D02*
X7550698Y-21526160D01*
X7550698Y-21526160D02*
X7541174Y-21516636D01*
X7541174Y-21516636D02*
X7531650Y-21497589D01*
X7531650Y-21497589D02*
X7522126Y-21459493D01*
X7522126Y-21459493D02*
X7522126Y-21411874D01*
X7522126Y-21411874D02*
X7531650Y-21373779D01*
X7531650Y-21373779D02*
X7541174Y-21354731D01*
X7541174Y-21354731D02*
X7550698Y-21345208D01*
X7550698Y-21345208D02*
X7569745Y-21335684D01*
X7703079Y-21335684D02*
X7826888Y-21335684D01*
X7826888Y-21335684D02*
X7760221Y-21411874D01*
X7760221Y-21411874D02*
X7788793Y-21411874D01*
X7788793Y-21411874D02*
X7807840Y-21421398D01*
X7807840Y-21421398D02*
X7817364Y-21430922D01*
X7817364Y-21430922D02*
X7826888Y-21449970D01*
X7826888Y-21449970D02*
X7826888Y-21497589D01*
X7826888Y-21497589D02*
X7817364Y-21516636D01*
X7817364Y-21516636D02*
X7807840Y-21526160D01*
X7807840Y-21526160D02*
X7788793Y-21535684D01*
X7788793Y-21535684D02*
X7731650Y-21535684D01*
X7731650Y-21535684D02*
X7712602Y-21526160D01*
X7712602Y-21526160D02*
X7703079Y-21516636D01*
X7998317Y-21402350D02*
X7998317Y-21535684D01*
X7950698Y-21326160D02*
X7903079Y-21469017D01*
X7903079Y-21469017D02*
X8026888Y-21469017D01*
X8141174Y-21335684D02*
X8160221Y-21335684D01*
X8160221Y-21335684D02*
X8179269Y-21345208D01*
X8179269Y-21345208D02*
X8188793Y-21354731D01*
X8188793Y-21354731D02*
X8198317Y-21373779D01*
X8198317Y-21373779D02*
X8207840Y-21411874D01*
X8207840Y-21411874D02*
X8207840Y-21459493D01*
X8207840Y-21459493D02*
X8198317Y-21497589D01*
X8198317Y-21497589D02*
X8188793Y-21516636D01*
X8188793Y-21516636D02*
X8179269Y-21526160D01*
X8179269Y-21526160D02*
X8160221Y-21535684D01*
X8160221Y-21535684D02*
X8141174Y-21535684D01*
X8141174Y-21535684D02*
X8122126Y-21526160D01*
X8122126Y-21526160D02*
X8112602Y-21516636D01*
X8112602Y-21516636D02*
X8103079Y-21497589D01*
X8103079Y-21497589D02*
X8093555Y-21459493D01*
X8093555Y-21459493D02*
X8093555Y-21411874D01*
X8093555Y-21411874D02*
X8103079Y-21373779D01*
X8103079Y-21373779D02*
X8112602Y-21354731D01*
X8112602Y-21354731D02*
X8122126Y-21345208D01*
X8122126Y-21345208D02*
X8141174Y-21335684D01*
X8284031Y-21335684D02*
X8284031Y-21373779D01*
X8360221Y-21335684D02*
X8360221Y-21373779D01*
X8655460Y-21611874D02*
X8645936Y-21602350D01*
X8645936Y-21602350D02*
X8626888Y-21573779D01*
X8626888Y-21573779D02*
X8617364Y-21554731D01*
X8617364Y-21554731D02*
X8607841Y-21526160D01*
X8607841Y-21526160D02*
X8598317Y-21478541D01*
X8598317Y-21478541D02*
X8598317Y-21440446D01*
X8598317Y-21440446D02*
X8607841Y-21392827D01*
X8607841Y-21392827D02*
X8617364Y-21364255D01*
X8617364Y-21364255D02*
X8626888Y-21345208D01*
X8626888Y-21345208D02*
X8645936Y-21316636D01*
X8645936Y-21316636D02*
X8655460Y-21307112D01*
X8722126Y-21354731D02*
X8731650Y-21345208D01*
X8731650Y-21345208D02*
X8750698Y-21335684D01*
X8750698Y-21335684D02*
X8798317Y-21335684D01*
X8798317Y-21335684D02*
X8817364Y-21345208D01*
X8817364Y-21345208D02*
X8826888Y-21354731D01*
X8826888Y-21354731D02*
X8836412Y-21373779D01*
X8836412Y-21373779D02*
X8836412Y-21392827D01*
X8836412Y-21392827D02*
X8826888Y-21421398D01*
X8826888Y-21421398D02*
X8712603Y-21535684D01*
X8712603Y-21535684D02*
X8836412Y-21535684D01*
X9074507Y-21535684D02*
X9074507Y-21335684D01*
X9160222Y-21535684D02*
X9160222Y-21430922D01*
X9160222Y-21430922D02*
X9150698Y-21411874D01*
X9150698Y-21411874D02*
X9131650Y-21402350D01*
X9131650Y-21402350D02*
X9103079Y-21402350D01*
X9103079Y-21402350D02*
X9084031Y-21411874D01*
X9084031Y-21411874D02*
X9074507Y-21421398D01*
X9284031Y-21535684D02*
X9264984Y-21526160D01*
X9264984Y-21526160D02*
X9255460Y-21516636D01*
X9255460Y-21516636D02*
X9245936Y-21497589D01*
X9245936Y-21497589D02*
X9245936Y-21440446D01*
X9245936Y-21440446D02*
X9255460Y-21421398D01*
X9255460Y-21421398D02*
X9264984Y-21411874D01*
X9264984Y-21411874D02*
X9284031Y-21402350D01*
X9284031Y-21402350D02*
X9312603Y-21402350D01*
X9312603Y-21402350D02*
X9331650Y-21411874D01*
X9331650Y-21411874D02*
X9341174Y-21421398D01*
X9341174Y-21421398D02*
X9350698Y-21440446D01*
X9350698Y-21440446D02*
X9350698Y-21497589D01*
X9350698Y-21497589D02*
X9341174Y-21516636D01*
X9341174Y-21516636D02*
X9331650Y-21526160D01*
X9331650Y-21526160D02*
X9312603Y-21535684D01*
X9312603Y-21535684D02*
X9284031Y-21535684D01*
X9464984Y-21535684D02*
X9445936Y-21526160D01*
X9445936Y-21526160D02*
X9436412Y-21507112D01*
X9436412Y-21507112D02*
X9436412Y-21335684D01*
X9617365Y-21526160D02*
X9598317Y-21535684D01*
X9598317Y-21535684D02*
X9560222Y-21535684D01*
X9560222Y-21535684D02*
X9541174Y-21526160D01*
X9541174Y-21526160D02*
X9531650Y-21507112D01*
X9531650Y-21507112D02*
X9531650Y-21430922D01*
X9531650Y-21430922D02*
X9541174Y-21411874D01*
X9541174Y-21411874D02*
X9560222Y-21402350D01*
X9560222Y-21402350D02*
X9598317Y-21402350D01*
X9598317Y-21402350D02*
X9617365Y-21411874D01*
X9617365Y-21411874D02*
X9626888Y-21430922D01*
X9626888Y-21430922D02*
X9626888Y-21449970D01*
X9626888Y-21449970D02*
X9531650Y-21469017D01*
X9703079Y-21526160D02*
X9722126Y-21535684D01*
X9722126Y-21535684D02*
X9760222Y-21535684D01*
X9760222Y-21535684D02*
X9779269Y-21526160D01*
X9779269Y-21526160D02*
X9788793Y-21507112D01*
X9788793Y-21507112D02*
X9788793Y-21497589D01*
X9788793Y-21497589D02*
X9779269Y-21478541D01*
X9779269Y-21478541D02*
X9760222Y-21469017D01*
X9760222Y-21469017D02*
X9731650Y-21469017D01*
X9731650Y-21469017D02*
X9712603Y-21459493D01*
X9712603Y-21459493D02*
X9703079Y-21440446D01*
X9703079Y-21440446D02*
X9703079Y-21430922D01*
X9703079Y-21430922D02*
X9712603Y-21411874D01*
X9712603Y-21411874D02*
X9731650Y-21402350D01*
X9731650Y-21402350D02*
X9760222Y-21402350D01*
X9760222Y-21402350D02*
X9779269Y-21411874D01*
X9855460Y-21611874D02*
X9864984Y-21602350D01*
X9864984Y-21602350D02*
X9884031Y-21573779D01*
X9884031Y-21573779D02*
X9893555Y-21554731D01*
X9893555Y-21554731D02*
X9903079Y-21526160D01*
X9903079Y-21526160D02*
X9912603Y-21478541D01*
X9912603Y-21478541D02*
X9912603Y-21440446D01*
X9912603Y-21440446D02*
X9903079Y-21392827D01*
X9903079Y-21392827D02*
X9893555Y-21364255D01*
X9893555Y-21364255D02*
X9884031Y-21345208D01*
X9884031Y-21345208D02*
X9864984Y-21316636D01*
X9864984Y-21316636D02*
X9855460Y-21307112D01*
D13*
X5061799Y-21753102D02*
X5061799Y-21663298D01*
X4971995Y-21663298D01*
X4971995Y-21753102D01*
X5061799Y-21753102D01*
D11*
X5445936Y-21799684D02*
X5331650Y-21799684D01*
X5388793Y-21799684D02*
X5388793Y-21599684D01*
X5388793Y-21599684D02*
X5369745Y-21628255D01*
X5369745Y-21628255D02*
X5350697Y-21647303D01*
X5350697Y-21647303D02*
X5331650Y-21656827D01*
X5531650Y-21780636D02*
X5541174Y-21790160D01*
X5541174Y-21790160D02*
X5531650Y-21799684D01*
X5531650Y-21799684D02*
X5522126Y-21790160D01*
X5522126Y-21790160D02*
X5531650Y-21780636D01*
X5531650Y-21780636D02*
X5531650Y-21799684D01*
X5617364Y-21618731D02*
X5626888Y-21609208D01*
X5626888Y-21609208D02*
X5645935Y-21599684D01*
X5645935Y-21599684D02*
X5693555Y-21599684D01*
X5693555Y-21599684D02*
X5712602Y-21609208D01*
X5712602Y-21609208D02*
X5722126Y-21618731D01*
X5722126Y-21618731D02*
X5731650Y-21637779D01*
X5731650Y-21637779D02*
X5731650Y-21656827D01*
X5731650Y-21656827D02*
X5722126Y-21685398D01*
X5722126Y-21685398D02*
X5607840Y-21799684D01*
X5607840Y-21799684D02*
X5731650Y-21799684D01*
X5798316Y-21599684D02*
X5931650Y-21599684D01*
X5931650Y-21599684D02*
X5845935Y-21799684D01*
X6045935Y-21599684D02*
X6064983Y-21599684D01*
X6064983Y-21599684D02*
X6084031Y-21609208D01*
X6084031Y-21609208D02*
X6093555Y-21618731D01*
X6093555Y-21618731D02*
X6103078Y-21637779D01*
X6103078Y-21637779D02*
X6112602Y-21675874D01*
X6112602Y-21675874D02*
X6112602Y-21723493D01*
X6112602Y-21723493D02*
X6103078Y-21761589D01*
X6103078Y-21761589D02*
X6093555Y-21780636D01*
X6093555Y-21780636D02*
X6084031Y-21790160D01*
X6084031Y-21790160D02*
X6064983Y-21799684D01*
X6064983Y-21799684D02*
X6045935Y-21799684D01*
X6045935Y-21799684D02*
X6026888Y-21790160D01*
X6026888Y-21790160D02*
X6017364Y-21780636D01*
X6017364Y-21780636D02*
X6007840Y-21761589D01*
X6007840Y-21761589D02*
X5998316Y-21723493D01*
X5998316Y-21723493D02*
X5998316Y-21675874D01*
X5998316Y-21675874D02*
X6007840Y-21637779D01*
X6007840Y-21637779D02*
X6017364Y-21618731D01*
X6017364Y-21618731D02*
X6026888Y-21609208D01*
X6026888Y-21609208D02*
X6045935Y-21599684D01*
X6198316Y-21799684D02*
X6198316Y-21666350D01*
X6198316Y-21685398D02*
X6207840Y-21675874D01*
X6207840Y-21675874D02*
X6226888Y-21666350D01*
X6226888Y-21666350D02*
X6255459Y-21666350D01*
X6255459Y-21666350D02*
X6274507Y-21675874D01*
X6274507Y-21675874D02*
X6284031Y-21694922D01*
X6284031Y-21694922D02*
X6284031Y-21799684D01*
X6284031Y-21694922D02*
X6293555Y-21675874D01*
X6293555Y-21675874D02*
X6312602Y-21666350D01*
X6312602Y-21666350D02*
X6341174Y-21666350D01*
X6341174Y-21666350D02*
X6360221Y-21675874D01*
X6360221Y-21675874D02*
X6369745Y-21694922D01*
X6369745Y-21694922D02*
X6369745Y-21799684D01*
X6464983Y-21799684D02*
X6464983Y-21666350D01*
X6464983Y-21685398D02*
X6474507Y-21675874D01*
X6474507Y-21675874D02*
X6493555Y-21666350D01*
X6493555Y-21666350D02*
X6522126Y-21666350D01*
X6522126Y-21666350D02*
X6541174Y-21675874D01*
X6541174Y-21675874D02*
X6550697Y-21694922D01*
X6550697Y-21694922D02*
X6550697Y-21799684D01*
X6550697Y-21694922D02*
X6560221Y-21675874D01*
X6560221Y-21675874D02*
X6579269Y-21666350D01*
X6579269Y-21666350D02*
X6607840Y-21666350D01*
X6607840Y-21666350D02*
X6626888Y-21675874D01*
X6626888Y-21675874D02*
X6636412Y-21694922D01*
X6636412Y-21694922D02*
X6636412Y-21799684D01*
X7026888Y-21590160D02*
X6855459Y-21847303D01*
X7284031Y-21599684D02*
X7303079Y-21599684D01*
X7303079Y-21599684D02*
X7322126Y-21609208D01*
X7322126Y-21609208D02*
X7331650Y-21618731D01*
X7331650Y-21618731D02*
X7341174Y-21637779D01*
X7341174Y-21637779D02*
X7350698Y-21675874D01*
X7350698Y-21675874D02*
X7350698Y-21723493D01*
X7350698Y-21723493D02*
X7341174Y-21761589D01*
X7341174Y-21761589D02*
X7331650Y-21780636D01*
X7331650Y-21780636D02*
X7322126Y-21790160D01*
X7322126Y-21790160D02*
X7303079Y-21799684D01*
X7303079Y-21799684D02*
X7284031Y-21799684D01*
X7284031Y-21799684D02*
X7264983Y-21790160D01*
X7264983Y-21790160D02*
X7255459Y-21780636D01*
X7255459Y-21780636D02*
X7245936Y-21761589D01*
X7245936Y-21761589D02*
X7236412Y-21723493D01*
X7236412Y-21723493D02*
X7236412Y-21675874D01*
X7236412Y-21675874D02*
X7245936Y-21637779D01*
X7245936Y-21637779D02*
X7255459Y-21618731D01*
X7255459Y-21618731D02*
X7264983Y-21609208D01*
X7264983Y-21609208D02*
X7284031Y-21599684D01*
X7436412Y-21780636D02*
X7445936Y-21790160D01*
X7445936Y-21790160D02*
X7436412Y-21799684D01*
X7436412Y-21799684D02*
X7426888Y-21790160D01*
X7426888Y-21790160D02*
X7436412Y-21780636D01*
X7436412Y-21780636D02*
X7436412Y-21799684D01*
X7569745Y-21599684D02*
X7588793Y-21599684D01*
X7588793Y-21599684D02*
X7607840Y-21609208D01*
X7607840Y-21609208D02*
X7617364Y-21618731D01*
X7617364Y-21618731D02*
X7626888Y-21637779D01*
X7626888Y-21637779D02*
X7636412Y-21675874D01*
X7636412Y-21675874D02*
X7636412Y-21723493D01*
X7636412Y-21723493D02*
X7626888Y-21761589D01*
X7626888Y-21761589D02*
X7617364Y-21780636D01*
X7617364Y-21780636D02*
X7607840Y-21790160D01*
X7607840Y-21790160D02*
X7588793Y-21799684D01*
X7588793Y-21799684D02*
X7569745Y-21799684D01*
X7569745Y-21799684D02*
X7550698Y-21790160D01*
X7550698Y-21790160D02*
X7541174Y-21780636D01*
X7541174Y-21780636D02*
X7531650Y-21761589D01*
X7531650Y-21761589D02*
X7522126Y-21723493D01*
X7522126Y-21723493D02*
X7522126Y-21675874D01*
X7522126Y-21675874D02*
X7531650Y-21637779D01*
X7531650Y-21637779D02*
X7541174Y-21618731D01*
X7541174Y-21618731D02*
X7550698Y-21609208D01*
X7550698Y-21609208D02*
X7569745Y-21599684D01*
X7817364Y-21599684D02*
X7722126Y-21599684D01*
X7722126Y-21599684D02*
X7712602Y-21694922D01*
X7712602Y-21694922D02*
X7722126Y-21685398D01*
X7722126Y-21685398D02*
X7741174Y-21675874D01*
X7741174Y-21675874D02*
X7788793Y-21675874D01*
X7788793Y-21675874D02*
X7807840Y-21685398D01*
X7807840Y-21685398D02*
X7817364Y-21694922D01*
X7817364Y-21694922D02*
X7826888Y-21713970D01*
X7826888Y-21713970D02*
X7826888Y-21761589D01*
X7826888Y-21761589D02*
X7817364Y-21780636D01*
X7817364Y-21780636D02*
X7807840Y-21790160D01*
X7807840Y-21790160D02*
X7788793Y-21799684D01*
X7788793Y-21799684D02*
X7741174Y-21799684D01*
X7741174Y-21799684D02*
X7722126Y-21790160D01*
X7722126Y-21790160D02*
X7712602Y-21780636D01*
X7950698Y-21599684D02*
X7969745Y-21599684D01*
X7969745Y-21599684D02*
X7988793Y-21609208D01*
X7988793Y-21609208D02*
X7998317Y-21618731D01*
X7998317Y-21618731D02*
X8007840Y-21637779D01*
X8007840Y-21637779D02*
X8017364Y-21675874D01*
X8017364Y-21675874D02*
X8017364Y-21723493D01*
X8017364Y-21723493D02*
X8007840Y-21761589D01*
X8007840Y-21761589D02*
X7998317Y-21780636D01*
X7998317Y-21780636D02*
X7988793Y-21790160D01*
X7988793Y-21790160D02*
X7969745Y-21799684D01*
X7969745Y-21799684D02*
X7950698Y-21799684D01*
X7950698Y-21799684D02*
X7931650Y-21790160D01*
X7931650Y-21790160D02*
X7922126Y-21780636D01*
X7922126Y-21780636D02*
X7912602Y-21761589D01*
X7912602Y-21761589D02*
X7903079Y-21723493D01*
X7903079Y-21723493D02*
X7903079Y-21675874D01*
X7903079Y-21675874D02*
X7912602Y-21637779D01*
X7912602Y-21637779D02*
X7922126Y-21618731D01*
X7922126Y-21618731D02*
X7931650Y-21609208D01*
X7931650Y-21609208D02*
X7950698Y-21599684D01*
X8141174Y-21599684D02*
X8160221Y-21599684D01*
X8160221Y-21599684D02*
X8179269Y-21609208D01*
X8179269Y-21609208D02*
X8188793Y-21618731D01*
X8188793Y-21618731D02*
X8198317Y-21637779D01*
X8198317Y-21637779D02*
X8207840Y-21675874D01*
X8207840Y-21675874D02*
X8207840Y-21723493D01*
X8207840Y-21723493D02*
X8198317Y-21761589D01*
X8198317Y-21761589D02*
X8188793Y-21780636D01*
X8188793Y-21780636D02*
X8179269Y-21790160D01*
X8179269Y-21790160D02*
X8160221Y-21799684D01*
X8160221Y-21799684D02*
X8141174Y-21799684D01*
X8141174Y-21799684D02*
X8122126Y-21790160D01*
X8122126Y-21790160D02*
X8112602Y-21780636D01*
X8112602Y-21780636D02*
X8103079Y-21761589D01*
X8103079Y-21761589D02*
X8093555Y-21723493D01*
X8093555Y-21723493D02*
X8093555Y-21675874D01*
X8093555Y-21675874D02*
X8103079Y-21637779D01*
X8103079Y-21637779D02*
X8112602Y-21618731D01*
X8112602Y-21618731D02*
X8122126Y-21609208D01*
X8122126Y-21609208D02*
X8141174Y-21599684D01*
X8284031Y-21599684D02*
X8284031Y-21637779D01*
X8360221Y-21599684D02*
X8360221Y-21637779D01*
X8655460Y-21875874D02*
X8645936Y-21866350D01*
X8645936Y-21866350D02*
X8626888Y-21837779D01*
X8626888Y-21837779D02*
X8617364Y-21818731D01*
X8617364Y-21818731D02*
X8607841Y-21790160D01*
X8607841Y-21790160D02*
X8598317Y-21742541D01*
X8598317Y-21742541D02*
X8598317Y-21704446D01*
X8598317Y-21704446D02*
X8607841Y-21656827D01*
X8607841Y-21656827D02*
X8617364Y-21628255D01*
X8617364Y-21628255D02*
X8626888Y-21609208D01*
X8626888Y-21609208D02*
X8645936Y-21580636D01*
X8645936Y-21580636D02*
X8655460Y-21571112D01*
X8817364Y-21599684D02*
X8779269Y-21599684D01*
X8779269Y-21599684D02*
X8760222Y-21609208D01*
X8760222Y-21609208D02*
X8750698Y-21618731D01*
X8750698Y-21618731D02*
X8731650Y-21647303D01*
X8731650Y-21647303D02*
X8722126Y-21685398D01*
X8722126Y-21685398D02*
X8722126Y-21761589D01*
X8722126Y-21761589D02*
X8731650Y-21780636D01*
X8731650Y-21780636D02*
X8741174Y-21790160D01*
X8741174Y-21790160D02*
X8760222Y-21799684D01*
X8760222Y-21799684D02*
X8798317Y-21799684D01*
X8798317Y-21799684D02*
X8817364Y-21790160D01*
X8817364Y-21790160D02*
X8826888Y-21780636D01*
X8826888Y-21780636D02*
X8836412Y-21761589D01*
X8836412Y-21761589D02*
X8836412Y-21713970D01*
X8836412Y-21713970D02*
X8826888Y-21694922D01*
X8826888Y-21694922D02*
X8817364Y-21685398D01*
X8817364Y-21685398D02*
X8798317Y-21675874D01*
X8798317Y-21675874D02*
X8760222Y-21675874D01*
X8760222Y-21675874D02*
X8741174Y-21685398D01*
X8741174Y-21685398D02*
X8731650Y-21694922D01*
X8731650Y-21694922D02*
X8722126Y-21713970D01*
X9074507Y-21799684D02*
X9074507Y-21599684D01*
X9160222Y-21799684D02*
X9160222Y-21694922D01*
X9160222Y-21694922D02*
X9150698Y-21675874D01*
X9150698Y-21675874D02*
X9131650Y-21666350D01*
X9131650Y-21666350D02*
X9103079Y-21666350D01*
X9103079Y-21666350D02*
X9084031Y-21675874D01*
X9084031Y-21675874D02*
X9074507Y-21685398D01*
X9284031Y-21799684D02*
X9264984Y-21790160D01*
X9264984Y-21790160D02*
X9255460Y-21780636D01*
X9255460Y-21780636D02*
X9245936Y-21761589D01*
X9245936Y-21761589D02*
X9245936Y-21704446D01*
X9245936Y-21704446D02*
X9255460Y-21685398D01*
X9255460Y-21685398D02*
X9264984Y-21675874D01*
X9264984Y-21675874D02*
X9284031Y-21666350D01*
X9284031Y-21666350D02*
X9312603Y-21666350D01*
X9312603Y-21666350D02*
X9331650Y-21675874D01*
X9331650Y-21675874D02*
X9341174Y-21685398D01*
X9341174Y-21685398D02*
X9350698Y-21704446D01*
X9350698Y-21704446D02*
X9350698Y-21761589D01*
X9350698Y-21761589D02*
X9341174Y-21780636D01*
X9341174Y-21780636D02*
X9331650Y-21790160D01*
X9331650Y-21790160D02*
X9312603Y-21799684D01*
X9312603Y-21799684D02*
X9284031Y-21799684D01*
X9464984Y-21799684D02*
X9445936Y-21790160D01*
X9445936Y-21790160D02*
X9436412Y-21771112D01*
X9436412Y-21771112D02*
X9436412Y-21599684D01*
X9617365Y-21790160D02*
X9598317Y-21799684D01*
X9598317Y-21799684D02*
X9560222Y-21799684D01*
X9560222Y-21799684D02*
X9541174Y-21790160D01*
X9541174Y-21790160D02*
X9531650Y-21771112D01*
X9531650Y-21771112D02*
X9531650Y-21694922D01*
X9531650Y-21694922D02*
X9541174Y-21675874D01*
X9541174Y-21675874D02*
X9560222Y-21666350D01*
X9560222Y-21666350D02*
X9598317Y-21666350D01*
X9598317Y-21666350D02*
X9617365Y-21675874D01*
X9617365Y-21675874D02*
X9626888Y-21694922D01*
X9626888Y-21694922D02*
X9626888Y-21713970D01*
X9626888Y-21713970D02*
X9531650Y-21733017D01*
X9703079Y-21790160D02*
X9722126Y-21799684D01*
X9722126Y-21799684D02*
X9760222Y-21799684D01*
X9760222Y-21799684D02*
X9779269Y-21790160D01*
X9779269Y-21790160D02*
X9788793Y-21771112D01*
X9788793Y-21771112D02*
X9788793Y-21761589D01*
X9788793Y-21761589D02*
X9779269Y-21742541D01*
X9779269Y-21742541D02*
X9760222Y-21733017D01*
X9760222Y-21733017D02*
X9731650Y-21733017D01*
X9731650Y-21733017D02*
X9712603Y-21723493D01*
X9712603Y-21723493D02*
X9703079Y-21704446D01*
X9703079Y-21704446D02*
X9703079Y-21694922D01*
X9703079Y-21694922D02*
X9712603Y-21675874D01*
X9712603Y-21675874D02*
X9731650Y-21666350D01*
X9731650Y-21666350D02*
X9760222Y-21666350D01*
X9760222Y-21666350D02*
X9779269Y-21675874D01*
X9855460Y-21875874D02*
X9864984Y-21866350D01*
X9864984Y-21866350D02*
X9884031Y-21837779D01*
X9884031Y-21837779D02*
X9893555Y-21818731D01*
X9893555Y-21818731D02*
X9903079Y-21790160D01*
X9903079Y-21790160D02*
X9912603Y-21742541D01*
X9912603Y-21742541D02*
X9912603Y-21704446D01*
X9912603Y-21704446D02*
X9903079Y-21656827D01*
X9903079Y-21656827D02*
X9893555Y-21628255D01*
X9893555Y-21628255D02*
X9884031Y-21609208D01*
X9884031Y-21609208D02*
X9864984Y-21580636D01*
X9864984Y-21580636D02*
X9855460Y-21571112D01*
D14*
X5015627Y-22036970D02*
X5080397Y-21972200D01*
X5015627Y-21907430D01*
X4950857Y-21972200D01*
X5015627Y-22036970D01*
D11*
X5445936Y-22063684D02*
X5331650Y-22063684D01*
X5388793Y-22063684D02*
X5388793Y-21863684D01*
X5388793Y-21863684D02*
X5369745Y-21892255D01*
X5369745Y-21892255D02*
X5350697Y-21911303D01*
X5350697Y-21911303D02*
X5331650Y-21920827D01*
X5531650Y-22044636D02*
X5541174Y-22054160D01*
X5541174Y-22054160D02*
X5531650Y-22063684D01*
X5531650Y-22063684D02*
X5522126Y-22054160D01*
X5522126Y-22054160D02*
X5531650Y-22044636D01*
X5531650Y-22044636D02*
X5531650Y-22063684D01*
X5617364Y-21882731D02*
X5626888Y-21873208D01*
X5626888Y-21873208D02*
X5645935Y-21863684D01*
X5645935Y-21863684D02*
X5693555Y-21863684D01*
X5693555Y-21863684D02*
X5712602Y-21873208D01*
X5712602Y-21873208D02*
X5722126Y-21882731D01*
X5722126Y-21882731D02*
X5731650Y-21901779D01*
X5731650Y-21901779D02*
X5731650Y-21920827D01*
X5731650Y-21920827D02*
X5722126Y-21949398D01*
X5722126Y-21949398D02*
X5607840Y-22063684D01*
X5607840Y-22063684D02*
X5731650Y-22063684D01*
X5826888Y-22063684D02*
X5864983Y-22063684D01*
X5864983Y-22063684D02*
X5884031Y-22054160D01*
X5884031Y-22054160D02*
X5893555Y-22044636D01*
X5893555Y-22044636D02*
X5912602Y-22016065D01*
X5912602Y-22016065D02*
X5922126Y-21977970D01*
X5922126Y-21977970D02*
X5922126Y-21901779D01*
X5922126Y-21901779D02*
X5912602Y-21882731D01*
X5912602Y-21882731D02*
X5903078Y-21873208D01*
X5903078Y-21873208D02*
X5884031Y-21863684D01*
X5884031Y-21863684D02*
X5845935Y-21863684D01*
X5845935Y-21863684D02*
X5826888Y-21873208D01*
X5826888Y-21873208D02*
X5817364Y-21882731D01*
X5817364Y-21882731D02*
X5807840Y-21901779D01*
X5807840Y-21901779D02*
X5807840Y-21949398D01*
X5807840Y-21949398D02*
X5817364Y-21968446D01*
X5817364Y-21968446D02*
X5826888Y-21977970D01*
X5826888Y-21977970D02*
X5845935Y-21987493D01*
X5845935Y-21987493D02*
X5884031Y-21987493D01*
X5884031Y-21987493D02*
X5903078Y-21977970D01*
X5903078Y-21977970D02*
X5912602Y-21968446D01*
X5912602Y-21968446D02*
X5922126Y-21949398D01*
X6103078Y-21863684D02*
X6007840Y-21863684D01*
X6007840Y-21863684D02*
X5998316Y-21958922D01*
X5998316Y-21958922D02*
X6007840Y-21949398D01*
X6007840Y-21949398D02*
X6026888Y-21939874D01*
X6026888Y-21939874D02*
X6074507Y-21939874D01*
X6074507Y-21939874D02*
X6093555Y-21949398D01*
X6093555Y-21949398D02*
X6103078Y-21958922D01*
X6103078Y-21958922D02*
X6112602Y-21977970D01*
X6112602Y-21977970D02*
X6112602Y-22025589D01*
X6112602Y-22025589D02*
X6103078Y-22044636D01*
X6103078Y-22044636D02*
X6093555Y-22054160D01*
X6093555Y-22054160D02*
X6074507Y-22063684D01*
X6074507Y-22063684D02*
X6026888Y-22063684D01*
X6026888Y-22063684D02*
X6007840Y-22054160D01*
X6007840Y-22054160D02*
X5998316Y-22044636D01*
X6198316Y-22063684D02*
X6198316Y-21930350D01*
X6198316Y-21949398D02*
X6207840Y-21939874D01*
X6207840Y-21939874D02*
X6226888Y-21930350D01*
X6226888Y-21930350D02*
X6255459Y-21930350D01*
X6255459Y-21930350D02*
X6274507Y-21939874D01*
X6274507Y-21939874D02*
X6284031Y-21958922D01*
X6284031Y-21958922D02*
X6284031Y-22063684D01*
X6284031Y-21958922D02*
X6293555Y-21939874D01*
X6293555Y-21939874D02*
X6312602Y-21930350D01*
X6312602Y-21930350D02*
X6341174Y-21930350D01*
X6341174Y-21930350D02*
X6360221Y-21939874D01*
X6360221Y-21939874D02*
X6369745Y-21958922D01*
X6369745Y-21958922D02*
X6369745Y-22063684D01*
X6464983Y-22063684D02*
X6464983Y-21930350D01*
X6464983Y-21949398D02*
X6474507Y-21939874D01*
X6474507Y-21939874D02*
X6493555Y-21930350D01*
X6493555Y-21930350D02*
X6522126Y-21930350D01*
X6522126Y-21930350D02*
X6541174Y-21939874D01*
X6541174Y-21939874D02*
X6550697Y-21958922D01*
X6550697Y-21958922D02*
X6550697Y-22063684D01*
X6550697Y-21958922D02*
X6560221Y-21939874D01*
X6560221Y-21939874D02*
X6579269Y-21930350D01*
X6579269Y-21930350D02*
X6607840Y-21930350D01*
X6607840Y-21930350D02*
X6626888Y-21939874D01*
X6626888Y-21939874D02*
X6636412Y-21958922D01*
X6636412Y-21958922D02*
X6636412Y-22063684D01*
X7026888Y-21854160D02*
X6855459Y-22111303D01*
X7284031Y-21863684D02*
X7303079Y-21863684D01*
X7303079Y-21863684D02*
X7322126Y-21873208D01*
X7322126Y-21873208D02*
X7331650Y-21882731D01*
X7331650Y-21882731D02*
X7341174Y-21901779D01*
X7341174Y-21901779D02*
X7350698Y-21939874D01*
X7350698Y-21939874D02*
X7350698Y-21987493D01*
X7350698Y-21987493D02*
X7341174Y-22025589D01*
X7341174Y-22025589D02*
X7331650Y-22044636D01*
X7331650Y-22044636D02*
X7322126Y-22054160D01*
X7322126Y-22054160D02*
X7303079Y-22063684D01*
X7303079Y-22063684D02*
X7284031Y-22063684D01*
X7284031Y-22063684D02*
X7264983Y-22054160D01*
X7264983Y-22054160D02*
X7255459Y-22044636D01*
X7255459Y-22044636D02*
X7245936Y-22025589D01*
X7245936Y-22025589D02*
X7236412Y-21987493D01*
X7236412Y-21987493D02*
X7236412Y-21939874D01*
X7236412Y-21939874D02*
X7245936Y-21901779D01*
X7245936Y-21901779D02*
X7255459Y-21882731D01*
X7255459Y-21882731D02*
X7264983Y-21873208D01*
X7264983Y-21873208D02*
X7284031Y-21863684D01*
X7436412Y-22044636D02*
X7445936Y-22054160D01*
X7445936Y-22054160D02*
X7436412Y-22063684D01*
X7436412Y-22063684D02*
X7426888Y-22054160D01*
X7426888Y-22054160D02*
X7436412Y-22044636D01*
X7436412Y-22044636D02*
X7436412Y-22063684D01*
X7569745Y-21863684D02*
X7588793Y-21863684D01*
X7588793Y-21863684D02*
X7607840Y-21873208D01*
X7607840Y-21873208D02*
X7617364Y-21882731D01*
X7617364Y-21882731D02*
X7626888Y-21901779D01*
X7626888Y-21901779D02*
X7636412Y-21939874D01*
X7636412Y-21939874D02*
X7636412Y-21987493D01*
X7636412Y-21987493D02*
X7626888Y-22025589D01*
X7626888Y-22025589D02*
X7617364Y-22044636D01*
X7617364Y-22044636D02*
X7607840Y-22054160D01*
X7607840Y-22054160D02*
X7588793Y-22063684D01*
X7588793Y-22063684D02*
X7569745Y-22063684D01*
X7569745Y-22063684D02*
X7550698Y-22054160D01*
X7550698Y-22054160D02*
X7541174Y-22044636D01*
X7541174Y-22044636D02*
X7531650Y-22025589D01*
X7531650Y-22025589D02*
X7522126Y-21987493D01*
X7522126Y-21987493D02*
X7522126Y-21939874D01*
X7522126Y-21939874D02*
X7531650Y-21901779D01*
X7531650Y-21901779D02*
X7541174Y-21882731D01*
X7541174Y-21882731D02*
X7550698Y-21873208D01*
X7550698Y-21873208D02*
X7569745Y-21863684D01*
X7817364Y-21863684D02*
X7722126Y-21863684D01*
X7722126Y-21863684D02*
X7712602Y-21958922D01*
X7712602Y-21958922D02*
X7722126Y-21949398D01*
X7722126Y-21949398D02*
X7741174Y-21939874D01*
X7741174Y-21939874D02*
X7788793Y-21939874D01*
X7788793Y-21939874D02*
X7807840Y-21949398D01*
X7807840Y-21949398D02*
X7817364Y-21958922D01*
X7817364Y-21958922D02*
X7826888Y-21977970D01*
X7826888Y-21977970D02*
X7826888Y-22025589D01*
X7826888Y-22025589D02*
X7817364Y-22044636D01*
X7817364Y-22044636D02*
X7807840Y-22054160D01*
X7807840Y-22054160D02*
X7788793Y-22063684D01*
X7788793Y-22063684D02*
X7741174Y-22063684D01*
X7741174Y-22063684D02*
X7722126Y-22054160D01*
X7722126Y-22054160D02*
X7712602Y-22044636D01*
X8017364Y-22063684D02*
X7903079Y-22063684D01*
X7960221Y-22063684D02*
X7960221Y-21863684D01*
X7960221Y-21863684D02*
X7941174Y-21892255D01*
X7941174Y-21892255D02*
X7922126Y-21911303D01*
X7922126Y-21911303D02*
X7903079Y-21920827D01*
X8141174Y-21863684D02*
X8160221Y-21863684D01*
X8160221Y-21863684D02*
X8179269Y-21873208D01*
X8179269Y-21873208D02*
X8188793Y-21882731D01*
X8188793Y-21882731D02*
X8198317Y-21901779D01*
X8198317Y-21901779D02*
X8207840Y-21939874D01*
X8207840Y-21939874D02*
X8207840Y-21987493D01*
X8207840Y-21987493D02*
X8198317Y-22025589D01*
X8198317Y-22025589D02*
X8188793Y-22044636D01*
X8188793Y-22044636D02*
X8179269Y-22054160D01*
X8179269Y-22054160D02*
X8160221Y-22063684D01*
X8160221Y-22063684D02*
X8141174Y-22063684D01*
X8141174Y-22063684D02*
X8122126Y-22054160D01*
X8122126Y-22054160D02*
X8112602Y-22044636D01*
X8112602Y-22044636D02*
X8103079Y-22025589D01*
X8103079Y-22025589D02*
X8093555Y-21987493D01*
X8093555Y-21987493D02*
X8093555Y-21939874D01*
X8093555Y-21939874D02*
X8103079Y-21901779D01*
X8103079Y-21901779D02*
X8112602Y-21882731D01*
X8112602Y-21882731D02*
X8122126Y-21873208D01*
X8122126Y-21873208D02*
X8141174Y-21863684D01*
X8284031Y-21863684D02*
X8284031Y-21901779D01*
X8360221Y-21863684D02*
X8360221Y-21901779D01*
X8655460Y-22139874D02*
X8645936Y-22130350D01*
X8645936Y-22130350D02*
X8626888Y-22101779D01*
X8626888Y-22101779D02*
X8617364Y-22082731D01*
X8617364Y-22082731D02*
X8607841Y-22054160D01*
X8607841Y-22054160D02*
X8598317Y-22006541D01*
X8598317Y-22006541D02*
X8598317Y-21968446D01*
X8598317Y-21968446D02*
X8607841Y-21920827D01*
X8607841Y-21920827D02*
X8617364Y-21892255D01*
X8617364Y-21892255D02*
X8626888Y-21873208D01*
X8626888Y-21873208D02*
X8645936Y-21844636D01*
X8645936Y-21844636D02*
X8655460Y-21835112D01*
X8722126Y-21882731D02*
X8731650Y-21873208D01*
X8731650Y-21873208D02*
X8750698Y-21863684D01*
X8750698Y-21863684D02*
X8798317Y-21863684D01*
X8798317Y-21863684D02*
X8817364Y-21873208D01*
X8817364Y-21873208D02*
X8826888Y-21882731D01*
X8826888Y-21882731D02*
X8836412Y-21901779D01*
X8836412Y-21901779D02*
X8836412Y-21920827D01*
X8836412Y-21920827D02*
X8826888Y-21949398D01*
X8826888Y-21949398D02*
X8712603Y-22063684D01*
X8712603Y-22063684D02*
X8836412Y-22063684D01*
X9074507Y-22063684D02*
X9074507Y-21863684D01*
X9160222Y-22063684D02*
X9160222Y-21958922D01*
X9160222Y-21958922D02*
X9150698Y-21939874D01*
X9150698Y-21939874D02*
X9131650Y-21930350D01*
X9131650Y-21930350D02*
X9103079Y-21930350D01*
X9103079Y-21930350D02*
X9084031Y-21939874D01*
X9084031Y-21939874D02*
X9074507Y-21949398D01*
X9284031Y-22063684D02*
X9264984Y-22054160D01*
X9264984Y-22054160D02*
X9255460Y-22044636D01*
X9255460Y-22044636D02*
X9245936Y-22025589D01*
X9245936Y-22025589D02*
X9245936Y-21968446D01*
X9245936Y-21968446D02*
X9255460Y-21949398D01*
X9255460Y-21949398D02*
X9264984Y-21939874D01*
X9264984Y-21939874D02*
X9284031Y-21930350D01*
X9284031Y-21930350D02*
X9312603Y-21930350D01*
X9312603Y-21930350D02*
X9331650Y-21939874D01*
X9331650Y-21939874D02*
X9341174Y-21949398D01*
X9341174Y-21949398D02*
X9350698Y-21968446D01*
X9350698Y-21968446D02*
X9350698Y-22025589D01*
X9350698Y-22025589D02*
X9341174Y-22044636D01*
X9341174Y-22044636D02*
X9331650Y-22054160D01*
X9331650Y-22054160D02*
X9312603Y-22063684D01*
X9312603Y-22063684D02*
X9284031Y-22063684D01*
X9464984Y-22063684D02*
X9445936Y-22054160D01*
X9445936Y-22054160D02*
X9436412Y-22035112D01*
X9436412Y-22035112D02*
X9436412Y-21863684D01*
X9617365Y-22054160D02*
X9598317Y-22063684D01*
X9598317Y-22063684D02*
X9560222Y-22063684D01*
X9560222Y-22063684D02*
X9541174Y-22054160D01*
X9541174Y-22054160D02*
X9531650Y-22035112D01*
X9531650Y-22035112D02*
X9531650Y-21958922D01*
X9531650Y-21958922D02*
X9541174Y-21939874D01*
X9541174Y-21939874D02*
X9560222Y-21930350D01*
X9560222Y-21930350D02*
X9598317Y-21930350D01*
X9598317Y-21930350D02*
X9617365Y-21939874D01*
X9617365Y-21939874D02*
X9626888Y-21958922D01*
X9626888Y-21958922D02*
X9626888Y-21977970D01*
X9626888Y-21977970D02*
X9531650Y-21997017D01*
X9703079Y-22054160D02*
X9722126Y-22063684D01*
X9722126Y-22063684D02*
X9760222Y-22063684D01*
X9760222Y-22063684D02*
X9779269Y-22054160D01*
X9779269Y-22054160D02*
X9788793Y-22035112D01*
X9788793Y-22035112D02*
X9788793Y-22025589D01*
X9788793Y-22025589D02*
X9779269Y-22006541D01*
X9779269Y-22006541D02*
X9760222Y-21997017D01*
X9760222Y-21997017D02*
X9731650Y-21997017D01*
X9731650Y-21997017D02*
X9712603Y-21987493D01*
X9712603Y-21987493D02*
X9703079Y-21968446D01*
X9703079Y-21968446D02*
X9703079Y-21958922D01*
X9703079Y-21958922D02*
X9712603Y-21939874D01*
X9712603Y-21939874D02*
X9731650Y-21930350D01*
X9731650Y-21930350D02*
X9760222Y-21930350D01*
X9760222Y-21930350D02*
X9779269Y-21939874D01*
X9855460Y-22139874D02*
X9864984Y-22130350D01*
X9864984Y-22130350D02*
X9884031Y-22101779D01*
X9884031Y-22101779D02*
X9893555Y-22082731D01*
X9893555Y-22082731D02*
X9903079Y-22054160D01*
X9903079Y-22054160D02*
X9912603Y-22006541D01*
X9912603Y-22006541D02*
X9912603Y-21968446D01*
X9912603Y-21968446D02*
X9903079Y-21920827D01*
X9903079Y-21920827D02*
X9893555Y-21892255D01*
X9893555Y-21892255D02*
X9884031Y-21873208D01*
X9884031Y-21873208D02*
X9864984Y-21844636D01*
X9864984Y-21844636D02*
X9855460Y-21835112D01*
D15*
X4930397Y-22161200D02*
X5080397Y-22311200D01*
X5080397Y-22161200D02*
X4930397Y-22311200D01*
X5080397Y-22236200D02*
G75*
G02*
X4930397Y-22236200I-75000J0D01*
G01*
X4930397Y-22236200D02*
G75*
G02*
X5080397Y-22236200I75000J0D01*
G01*
D11*
X5445936Y-22327684D02*
X5331650Y-22327684D01*
X5388793Y-22327684D02*
X5388793Y-22127684D01*
X5388793Y-22127684D02*
X5369745Y-22156255D01*
X5369745Y-22156255D02*
X5350697Y-22175303D01*
X5350697Y-22175303D02*
X5331650Y-22184827D01*
X5531650Y-22308636D02*
X5541174Y-22318160D01*
X5541174Y-22318160D02*
X5531650Y-22327684D01*
X5531650Y-22327684D02*
X5522126Y-22318160D01*
X5522126Y-22318160D02*
X5531650Y-22308636D01*
X5531650Y-22308636D02*
X5531650Y-22327684D01*
X5722126Y-22127684D02*
X5626888Y-22127684D01*
X5626888Y-22127684D02*
X5617364Y-22222922D01*
X5617364Y-22222922D02*
X5626888Y-22213398D01*
X5626888Y-22213398D02*
X5645935Y-22203874D01*
X5645935Y-22203874D02*
X5693555Y-22203874D01*
X5693555Y-22203874D02*
X5712602Y-22213398D01*
X5712602Y-22213398D02*
X5722126Y-22222922D01*
X5722126Y-22222922D02*
X5731650Y-22241970D01*
X5731650Y-22241970D02*
X5731650Y-22289589D01*
X5731650Y-22289589D02*
X5722126Y-22308636D01*
X5722126Y-22308636D02*
X5712602Y-22318160D01*
X5712602Y-22318160D02*
X5693555Y-22327684D01*
X5693555Y-22327684D02*
X5645935Y-22327684D01*
X5645935Y-22327684D02*
X5626888Y-22318160D01*
X5626888Y-22318160D02*
X5617364Y-22308636D01*
X5855459Y-22127684D02*
X5874507Y-22127684D01*
X5874507Y-22127684D02*
X5893555Y-22137208D01*
X5893555Y-22137208D02*
X5903078Y-22146731D01*
X5903078Y-22146731D02*
X5912602Y-22165779D01*
X5912602Y-22165779D02*
X5922126Y-22203874D01*
X5922126Y-22203874D02*
X5922126Y-22251493D01*
X5922126Y-22251493D02*
X5912602Y-22289589D01*
X5912602Y-22289589D02*
X5903078Y-22308636D01*
X5903078Y-22308636D02*
X5893555Y-22318160D01*
X5893555Y-22318160D02*
X5874507Y-22327684D01*
X5874507Y-22327684D02*
X5855459Y-22327684D01*
X5855459Y-22327684D02*
X5836412Y-22318160D01*
X5836412Y-22318160D02*
X5826888Y-22308636D01*
X5826888Y-22308636D02*
X5817364Y-22289589D01*
X5817364Y-22289589D02*
X5807840Y-22251493D01*
X5807840Y-22251493D02*
X5807840Y-22203874D01*
X5807840Y-22203874D02*
X5817364Y-22165779D01*
X5817364Y-22165779D02*
X5826888Y-22146731D01*
X5826888Y-22146731D02*
X5836412Y-22137208D01*
X5836412Y-22137208D02*
X5855459Y-22127684D01*
X6045935Y-22127684D02*
X6064983Y-22127684D01*
X6064983Y-22127684D02*
X6084031Y-22137208D01*
X6084031Y-22137208D02*
X6093555Y-22146731D01*
X6093555Y-22146731D02*
X6103078Y-22165779D01*
X6103078Y-22165779D02*
X6112602Y-22203874D01*
X6112602Y-22203874D02*
X6112602Y-22251493D01*
X6112602Y-22251493D02*
X6103078Y-22289589D01*
X6103078Y-22289589D02*
X6093555Y-22308636D01*
X6093555Y-22308636D02*
X6084031Y-22318160D01*
X6084031Y-22318160D02*
X6064983Y-22327684D01*
X6064983Y-22327684D02*
X6045935Y-22327684D01*
X6045935Y-22327684D02*
X6026888Y-22318160D01*
X6026888Y-22318160D02*
X6017364Y-22308636D01*
X6017364Y-22308636D02*
X6007840Y-22289589D01*
X6007840Y-22289589D02*
X5998316Y-22251493D01*
X5998316Y-22251493D02*
X5998316Y-22203874D01*
X5998316Y-22203874D02*
X6007840Y-22165779D01*
X6007840Y-22165779D02*
X6017364Y-22146731D01*
X6017364Y-22146731D02*
X6026888Y-22137208D01*
X6026888Y-22137208D02*
X6045935Y-22127684D01*
X6198316Y-22327684D02*
X6198316Y-22194350D01*
X6198316Y-22213398D02*
X6207840Y-22203874D01*
X6207840Y-22203874D02*
X6226888Y-22194350D01*
X6226888Y-22194350D02*
X6255459Y-22194350D01*
X6255459Y-22194350D02*
X6274507Y-22203874D01*
X6274507Y-22203874D02*
X6284031Y-22222922D01*
X6284031Y-22222922D02*
X6284031Y-22327684D01*
X6284031Y-22222922D02*
X6293555Y-22203874D01*
X6293555Y-22203874D02*
X6312602Y-22194350D01*
X6312602Y-22194350D02*
X6341174Y-22194350D01*
X6341174Y-22194350D02*
X6360221Y-22203874D01*
X6360221Y-22203874D02*
X6369745Y-22222922D01*
X6369745Y-22222922D02*
X6369745Y-22327684D01*
X6464983Y-22327684D02*
X6464983Y-22194350D01*
X6464983Y-22213398D02*
X6474507Y-22203874D01*
X6474507Y-22203874D02*
X6493555Y-22194350D01*
X6493555Y-22194350D02*
X6522126Y-22194350D01*
X6522126Y-22194350D02*
X6541174Y-22203874D01*
X6541174Y-22203874D02*
X6550697Y-22222922D01*
X6550697Y-22222922D02*
X6550697Y-22327684D01*
X6550697Y-22222922D02*
X6560221Y-22203874D01*
X6560221Y-22203874D02*
X6579269Y-22194350D01*
X6579269Y-22194350D02*
X6607840Y-22194350D01*
X6607840Y-22194350D02*
X6626888Y-22203874D01*
X6626888Y-22203874D02*
X6636412Y-22222922D01*
X6636412Y-22222922D02*
X6636412Y-22327684D01*
X7026888Y-22118160D02*
X6855459Y-22375303D01*
X7284031Y-22127684D02*
X7303079Y-22127684D01*
X7303079Y-22127684D02*
X7322126Y-22137208D01*
X7322126Y-22137208D02*
X7331650Y-22146731D01*
X7331650Y-22146731D02*
X7341174Y-22165779D01*
X7341174Y-22165779D02*
X7350698Y-22203874D01*
X7350698Y-22203874D02*
X7350698Y-22251493D01*
X7350698Y-22251493D02*
X7341174Y-22289589D01*
X7341174Y-22289589D02*
X7331650Y-22308636D01*
X7331650Y-22308636D02*
X7322126Y-22318160D01*
X7322126Y-22318160D02*
X7303079Y-22327684D01*
X7303079Y-22327684D02*
X7284031Y-22327684D01*
X7284031Y-22327684D02*
X7264983Y-22318160D01*
X7264983Y-22318160D02*
X7255459Y-22308636D01*
X7255459Y-22308636D02*
X7245936Y-22289589D01*
X7245936Y-22289589D02*
X7236412Y-22251493D01*
X7236412Y-22251493D02*
X7236412Y-22203874D01*
X7236412Y-22203874D02*
X7245936Y-22165779D01*
X7245936Y-22165779D02*
X7255459Y-22146731D01*
X7255459Y-22146731D02*
X7264983Y-22137208D01*
X7264983Y-22137208D02*
X7284031Y-22127684D01*
X7436412Y-22308636D02*
X7445936Y-22318160D01*
X7445936Y-22318160D02*
X7436412Y-22327684D01*
X7436412Y-22327684D02*
X7426888Y-22318160D01*
X7426888Y-22318160D02*
X7436412Y-22308636D01*
X7436412Y-22308636D02*
X7436412Y-22327684D01*
X7569745Y-22127684D02*
X7588793Y-22127684D01*
X7588793Y-22127684D02*
X7607840Y-22137208D01*
X7607840Y-22137208D02*
X7617364Y-22146731D01*
X7617364Y-22146731D02*
X7626888Y-22165779D01*
X7626888Y-22165779D02*
X7636412Y-22203874D01*
X7636412Y-22203874D02*
X7636412Y-22251493D01*
X7636412Y-22251493D02*
X7626888Y-22289589D01*
X7626888Y-22289589D02*
X7617364Y-22308636D01*
X7617364Y-22308636D02*
X7607840Y-22318160D01*
X7607840Y-22318160D02*
X7588793Y-22327684D01*
X7588793Y-22327684D02*
X7569745Y-22327684D01*
X7569745Y-22327684D02*
X7550698Y-22318160D01*
X7550698Y-22318160D02*
X7541174Y-22308636D01*
X7541174Y-22308636D02*
X7531650Y-22289589D01*
X7531650Y-22289589D02*
X7522126Y-22251493D01*
X7522126Y-22251493D02*
X7522126Y-22203874D01*
X7522126Y-22203874D02*
X7531650Y-22165779D01*
X7531650Y-22165779D02*
X7541174Y-22146731D01*
X7541174Y-22146731D02*
X7550698Y-22137208D01*
X7550698Y-22137208D02*
X7569745Y-22127684D01*
X7817364Y-22127684D02*
X7722126Y-22127684D01*
X7722126Y-22127684D02*
X7712602Y-22222922D01*
X7712602Y-22222922D02*
X7722126Y-22213398D01*
X7722126Y-22213398D02*
X7741174Y-22203874D01*
X7741174Y-22203874D02*
X7788793Y-22203874D01*
X7788793Y-22203874D02*
X7807840Y-22213398D01*
X7807840Y-22213398D02*
X7817364Y-22222922D01*
X7817364Y-22222922D02*
X7826888Y-22241970D01*
X7826888Y-22241970D02*
X7826888Y-22289589D01*
X7826888Y-22289589D02*
X7817364Y-22308636D01*
X7817364Y-22308636D02*
X7807840Y-22318160D01*
X7807840Y-22318160D02*
X7788793Y-22327684D01*
X7788793Y-22327684D02*
X7741174Y-22327684D01*
X7741174Y-22327684D02*
X7722126Y-22318160D01*
X7722126Y-22318160D02*
X7712602Y-22308636D01*
X7922126Y-22327684D02*
X7960221Y-22327684D01*
X7960221Y-22327684D02*
X7979269Y-22318160D01*
X7979269Y-22318160D02*
X7988793Y-22308636D01*
X7988793Y-22308636D02*
X8007840Y-22280065D01*
X8007840Y-22280065D02*
X8017364Y-22241970D01*
X8017364Y-22241970D02*
X8017364Y-22165779D01*
X8017364Y-22165779D02*
X8007840Y-22146731D01*
X8007840Y-22146731D02*
X7998317Y-22137208D01*
X7998317Y-22137208D02*
X7979269Y-22127684D01*
X7979269Y-22127684D02*
X7941174Y-22127684D01*
X7941174Y-22127684D02*
X7922126Y-22137208D01*
X7922126Y-22137208D02*
X7912602Y-22146731D01*
X7912602Y-22146731D02*
X7903079Y-22165779D01*
X7903079Y-22165779D02*
X7903079Y-22213398D01*
X7903079Y-22213398D02*
X7912602Y-22232446D01*
X7912602Y-22232446D02*
X7922126Y-22241970D01*
X7922126Y-22241970D02*
X7941174Y-22251493D01*
X7941174Y-22251493D02*
X7979269Y-22251493D01*
X7979269Y-22251493D02*
X7998317Y-22241970D01*
X7998317Y-22241970D02*
X8007840Y-22232446D01*
X8007840Y-22232446D02*
X8017364Y-22213398D01*
X8207840Y-22327684D02*
X8093555Y-22327684D01*
X8150698Y-22327684D02*
X8150698Y-22127684D01*
X8150698Y-22127684D02*
X8131650Y-22156255D01*
X8131650Y-22156255D02*
X8112602Y-22175303D01*
X8112602Y-22175303D02*
X8093555Y-22184827D01*
X8284031Y-22127684D02*
X8284031Y-22165779D01*
X8360221Y-22127684D02*
X8360221Y-22165779D01*
X8655460Y-22403874D02*
X8645936Y-22394350D01*
X8645936Y-22394350D02*
X8626888Y-22365779D01*
X8626888Y-22365779D02*
X8617364Y-22346731D01*
X8617364Y-22346731D02*
X8607841Y-22318160D01*
X8607841Y-22318160D02*
X8598317Y-22270541D01*
X8598317Y-22270541D02*
X8598317Y-22232446D01*
X8598317Y-22232446D02*
X8607841Y-22184827D01*
X8607841Y-22184827D02*
X8617364Y-22156255D01*
X8617364Y-22156255D02*
X8626888Y-22137208D01*
X8626888Y-22137208D02*
X8645936Y-22108636D01*
X8645936Y-22108636D02*
X8655460Y-22099112D01*
X8817364Y-22127684D02*
X8779269Y-22127684D01*
X8779269Y-22127684D02*
X8760222Y-22137208D01*
X8760222Y-22137208D02*
X8750698Y-22146731D01*
X8750698Y-22146731D02*
X8731650Y-22175303D01*
X8731650Y-22175303D02*
X8722126Y-22213398D01*
X8722126Y-22213398D02*
X8722126Y-22289589D01*
X8722126Y-22289589D02*
X8731650Y-22308636D01*
X8731650Y-22308636D02*
X8741174Y-22318160D01*
X8741174Y-22318160D02*
X8760222Y-22327684D01*
X8760222Y-22327684D02*
X8798317Y-22327684D01*
X8798317Y-22327684D02*
X8817364Y-22318160D01*
X8817364Y-22318160D02*
X8826888Y-22308636D01*
X8826888Y-22308636D02*
X8836412Y-22289589D01*
X8836412Y-22289589D02*
X8836412Y-22241970D01*
X8836412Y-22241970D02*
X8826888Y-22222922D01*
X8826888Y-22222922D02*
X8817364Y-22213398D01*
X8817364Y-22213398D02*
X8798317Y-22203874D01*
X8798317Y-22203874D02*
X8760222Y-22203874D01*
X8760222Y-22203874D02*
X8741174Y-22213398D01*
X8741174Y-22213398D02*
X8731650Y-22222922D01*
X8731650Y-22222922D02*
X8722126Y-22241970D01*
X9074507Y-22327684D02*
X9074507Y-22127684D01*
X9160222Y-22327684D02*
X9160222Y-22222922D01*
X9160222Y-22222922D02*
X9150698Y-22203874D01*
X9150698Y-22203874D02*
X9131650Y-22194350D01*
X9131650Y-22194350D02*
X9103079Y-22194350D01*
X9103079Y-22194350D02*
X9084031Y-22203874D01*
X9084031Y-22203874D02*
X9074507Y-22213398D01*
X9284031Y-22327684D02*
X9264984Y-22318160D01*
X9264984Y-22318160D02*
X9255460Y-22308636D01*
X9255460Y-22308636D02*
X9245936Y-22289589D01*
X9245936Y-22289589D02*
X9245936Y-22232446D01*
X9245936Y-22232446D02*
X9255460Y-22213398D01*
X9255460Y-22213398D02*
X9264984Y-22203874D01*
X9264984Y-22203874D02*
X9284031Y-22194350D01*
X9284031Y-22194350D02*
X9312603Y-22194350D01*
X9312603Y-22194350D02*
X9331650Y-22203874D01*
X9331650Y-22203874D02*
X9341174Y-22213398D01*
X9341174Y-22213398D02*
X9350698Y-22232446D01*
X9350698Y-22232446D02*
X9350698Y-22289589D01*
X9350698Y-22289589D02*
X9341174Y-22308636D01*
X9341174Y-22308636D02*
X9331650Y-22318160D01*
X9331650Y-22318160D02*
X9312603Y-22327684D01*
X9312603Y-22327684D02*
X9284031Y-22327684D01*
X9464984Y-22327684D02*
X9445936Y-22318160D01*
X9445936Y-22318160D02*
X9436412Y-22299112D01*
X9436412Y-22299112D02*
X9436412Y-22127684D01*
X9617365Y-22318160D02*
X9598317Y-22327684D01*
X9598317Y-22327684D02*
X9560222Y-22327684D01*
X9560222Y-22327684D02*
X9541174Y-22318160D01*
X9541174Y-22318160D02*
X9531650Y-22299112D01*
X9531650Y-22299112D02*
X9531650Y-22222922D01*
X9531650Y-22222922D02*
X9541174Y-22203874D01*
X9541174Y-22203874D02*
X9560222Y-22194350D01*
X9560222Y-22194350D02*
X9598317Y-22194350D01*
X9598317Y-22194350D02*
X9617365Y-22203874D01*
X9617365Y-22203874D02*
X9626888Y-22222922D01*
X9626888Y-22222922D02*
X9626888Y-22241970D01*
X9626888Y-22241970D02*
X9531650Y-22261017D01*
X9703079Y-22318160D02*
X9722126Y-22327684D01*
X9722126Y-22327684D02*
X9760222Y-22327684D01*
X9760222Y-22327684D02*
X9779269Y-22318160D01*
X9779269Y-22318160D02*
X9788793Y-22299112D01*
X9788793Y-22299112D02*
X9788793Y-22289589D01*
X9788793Y-22289589D02*
X9779269Y-22270541D01*
X9779269Y-22270541D02*
X9760222Y-22261017D01*
X9760222Y-22261017D02*
X9731650Y-22261017D01*
X9731650Y-22261017D02*
X9712603Y-22251493D01*
X9712603Y-22251493D02*
X9703079Y-22232446D01*
X9703079Y-22232446D02*
X9703079Y-22222922D01*
X9703079Y-22222922D02*
X9712603Y-22203874D01*
X9712603Y-22203874D02*
X9731650Y-22194350D01*
X9731650Y-22194350D02*
X9760222Y-22194350D01*
X9760222Y-22194350D02*
X9779269Y-22203874D01*
X9855460Y-22403874D02*
X9864984Y-22394350D01*
X9864984Y-22394350D02*
X9884031Y-22365779D01*
X9884031Y-22365779D02*
X9893555Y-22346731D01*
X9893555Y-22346731D02*
X9903079Y-22318160D01*
X9903079Y-22318160D02*
X9912603Y-22270541D01*
X9912603Y-22270541D02*
X9912603Y-22232446D01*
X9912603Y-22232446D02*
X9903079Y-22184827D01*
X9903079Y-22184827D02*
X9893555Y-22156255D01*
X9893555Y-22156255D02*
X9884031Y-22137208D01*
X9884031Y-22137208D02*
X9864984Y-22108636D01*
X9864984Y-22108636D02*
X9855460Y-22099112D01*
D16*
X4923397Y-22427700D02*
X5080397Y-22584700D01*
X5080397Y-22427700D02*
X4923397Y-22584700D01*
X5001897Y-22427700D02*
X5001897Y-22584700D01*
X4923397Y-22506200D02*
X5080397Y-22506200D01*
D11*
X5445936Y-22597684D02*
X5331650Y-22597684D01*
X5388793Y-22597684D02*
X5388793Y-22397684D01*
X5388793Y-22397684D02*
X5369745Y-22426255D01*
X5369745Y-22426255D02*
X5350697Y-22445303D01*
X5350697Y-22445303D02*
X5331650Y-22454827D01*
X5531650Y-22578636D02*
X5541174Y-22588160D01*
X5541174Y-22588160D02*
X5531650Y-22597684D01*
X5531650Y-22597684D02*
X5522126Y-22588160D01*
X5522126Y-22588160D02*
X5531650Y-22578636D01*
X5531650Y-22578636D02*
X5531650Y-22597684D01*
X5722126Y-22397684D02*
X5626888Y-22397684D01*
X5626888Y-22397684D02*
X5617364Y-22492922D01*
X5617364Y-22492922D02*
X5626888Y-22483398D01*
X5626888Y-22483398D02*
X5645935Y-22473874D01*
X5645935Y-22473874D02*
X5693555Y-22473874D01*
X5693555Y-22473874D02*
X5712602Y-22483398D01*
X5712602Y-22483398D02*
X5722126Y-22492922D01*
X5722126Y-22492922D02*
X5731650Y-22511969D01*
X5731650Y-22511969D02*
X5731650Y-22559588D01*
X5731650Y-22559588D02*
X5722126Y-22578636D01*
X5722126Y-22578636D02*
X5712602Y-22588160D01*
X5712602Y-22588160D02*
X5693555Y-22597684D01*
X5693555Y-22597684D02*
X5645935Y-22597684D01*
X5645935Y-22597684D02*
X5626888Y-22588160D01*
X5626888Y-22588160D02*
X5617364Y-22578636D01*
X5798316Y-22397684D02*
X5931650Y-22397684D01*
X5931650Y-22397684D02*
X5845935Y-22597684D01*
X6045935Y-22397684D02*
X6064983Y-22397684D01*
X6064983Y-22397684D02*
X6084031Y-22407208D01*
X6084031Y-22407208D02*
X6093555Y-22416731D01*
X6093555Y-22416731D02*
X6103078Y-22435779D01*
X6103078Y-22435779D02*
X6112602Y-22473874D01*
X6112602Y-22473874D02*
X6112602Y-22521493D01*
X6112602Y-22521493D02*
X6103078Y-22559588D01*
X6103078Y-22559588D02*
X6093555Y-22578636D01*
X6093555Y-22578636D02*
X6084031Y-22588160D01*
X6084031Y-22588160D02*
X6064983Y-22597684D01*
X6064983Y-22597684D02*
X6045935Y-22597684D01*
X6045935Y-22597684D02*
X6026888Y-22588160D01*
X6026888Y-22588160D02*
X6017364Y-22578636D01*
X6017364Y-22578636D02*
X6007840Y-22559588D01*
X6007840Y-22559588D02*
X5998316Y-22521493D01*
X5998316Y-22521493D02*
X5998316Y-22473874D01*
X5998316Y-22473874D02*
X6007840Y-22435779D01*
X6007840Y-22435779D02*
X6017364Y-22416731D01*
X6017364Y-22416731D02*
X6026888Y-22407208D01*
X6026888Y-22407208D02*
X6045935Y-22397684D01*
X6198316Y-22597684D02*
X6198316Y-22464350D01*
X6198316Y-22483398D02*
X6207840Y-22473874D01*
X6207840Y-22473874D02*
X6226888Y-22464350D01*
X6226888Y-22464350D02*
X6255459Y-22464350D01*
X6255459Y-22464350D02*
X6274507Y-22473874D01*
X6274507Y-22473874D02*
X6284031Y-22492922D01*
X6284031Y-22492922D02*
X6284031Y-22597684D01*
X6284031Y-22492922D02*
X6293555Y-22473874D01*
X6293555Y-22473874D02*
X6312602Y-22464350D01*
X6312602Y-22464350D02*
X6341174Y-22464350D01*
X6341174Y-22464350D02*
X6360221Y-22473874D01*
X6360221Y-22473874D02*
X6369745Y-22492922D01*
X6369745Y-22492922D02*
X6369745Y-22597684D01*
X6464983Y-22597684D02*
X6464983Y-22464350D01*
X6464983Y-22483398D02*
X6474507Y-22473874D01*
X6474507Y-22473874D02*
X6493555Y-22464350D01*
X6493555Y-22464350D02*
X6522126Y-22464350D01*
X6522126Y-22464350D02*
X6541174Y-22473874D01*
X6541174Y-22473874D02*
X6550697Y-22492922D01*
X6550697Y-22492922D02*
X6550697Y-22597684D01*
X6550697Y-22492922D02*
X6560221Y-22473874D01*
X6560221Y-22473874D02*
X6579269Y-22464350D01*
X6579269Y-22464350D02*
X6607840Y-22464350D01*
X6607840Y-22464350D02*
X6626888Y-22473874D01*
X6626888Y-22473874D02*
X6636412Y-22492922D01*
X6636412Y-22492922D02*
X6636412Y-22597684D01*
X7026888Y-22388160D02*
X6855459Y-22645303D01*
X7284031Y-22397684D02*
X7303079Y-22397684D01*
X7303079Y-22397684D02*
X7322126Y-22407208D01*
X7322126Y-22407208D02*
X7331650Y-22416731D01*
X7331650Y-22416731D02*
X7341174Y-22435779D01*
X7341174Y-22435779D02*
X7350698Y-22473874D01*
X7350698Y-22473874D02*
X7350698Y-22521493D01*
X7350698Y-22521493D02*
X7341174Y-22559588D01*
X7341174Y-22559588D02*
X7331650Y-22578636D01*
X7331650Y-22578636D02*
X7322126Y-22588160D01*
X7322126Y-22588160D02*
X7303079Y-22597684D01*
X7303079Y-22597684D02*
X7284031Y-22597684D01*
X7284031Y-22597684D02*
X7264983Y-22588160D01*
X7264983Y-22588160D02*
X7255459Y-22578636D01*
X7255459Y-22578636D02*
X7245936Y-22559588D01*
X7245936Y-22559588D02*
X7236412Y-22521493D01*
X7236412Y-22521493D02*
X7236412Y-22473874D01*
X7236412Y-22473874D02*
X7245936Y-22435779D01*
X7245936Y-22435779D02*
X7255459Y-22416731D01*
X7255459Y-22416731D02*
X7264983Y-22407208D01*
X7264983Y-22407208D02*
X7284031Y-22397684D01*
X7436412Y-22578636D02*
X7445936Y-22588160D01*
X7445936Y-22588160D02*
X7436412Y-22597684D01*
X7436412Y-22597684D02*
X7426888Y-22588160D01*
X7426888Y-22588160D02*
X7436412Y-22578636D01*
X7436412Y-22578636D02*
X7436412Y-22597684D01*
X7569745Y-22397684D02*
X7588793Y-22397684D01*
X7588793Y-22397684D02*
X7607840Y-22407208D01*
X7607840Y-22407208D02*
X7617364Y-22416731D01*
X7617364Y-22416731D02*
X7626888Y-22435779D01*
X7626888Y-22435779D02*
X7636412Y-22473874D01*
X7636412Y-22473874D02*
X7636412Y-22521493D01*
X7636412Y-22521493D02*
X7626888Y-22559588D01*
X7626888Y-22559588D02*
X7617364Y-22578636D01*
X7617364Y-22578636D02*
X7607840Y-22588160D01*
X7607840Y-22588160D02*
X7588793Y-22597684D01*
X7588793Y-22597684D02*
X7569745Y-22597684D01*
X7569745Y-22597684D02*
X7550698Y-22588160D01*
X7550698Y-22588160D02*
X7541174Y-22578636D01*
X7541174Y-22578636D02*
X7531650Y-22559588D01*
X7531650Y-22559588D02*
X7522126Y-22521493D01*
X7522126Y-22521493D02*
X7522126Y-22473874D01*
X7522126Y-22473874D02*
X7531650Y-22435779D01*
X7531650Y-22435779D02*
X7541174Y-22416731D01*
X7541174Y-22416731D02*
X7550698Y-22407208D01*
X7550698Y-22407208D02*
X7569745Y-22397684D01*
X7807840Y-22397684D02*
X7769745Y-22397684D01*
X7769745Y-22397684D02*
X7750698Y-22407208D01*
X7750698Y-22407208D02*
X7741174Y-22416731D01*
X7741174Y-22416731D02*
X7722126Y-22445303D01*
X7722126Y-22445303D02*
X7712602Y-22483398D01*
X7712602Y-22483398D02*
X7712602Y-22559588D01*
X7712602Y-22559588D02*
X7722126Y-22578636D01*
X7722126Y-22578636D02*
X7731650Y-22588160D01*
X7731650Y-22588160D02*
X7750698Y-22597684D01*
X7750698Y-22597684D02*
X7788793Y-22597684D01*
X7788793Y-22597684D02*
X7807840Y-22588160D01*
X7807840Y-22588160D02*
X7817364Y-22578636D01*
X7817364Y-22578636D02*
X7826888Y-22559588D01*
X7826888Y-22559588D02*
X7826888Y-22511969D01*
X7826888Y-22511969D02*
X7817364Y-22492922D01*
X7817364Y-22492922D02*
X7807840Y-22483398D01*
X7807840Y-22483398D02*
X7788793Y-22473874D01*
X7788793Y-22473874D02*
X7750698Y-22473874D01*
X7750698Y-22473874D02*
X7731650Y-22483398D01*
X7731650Y-22483398D02*
X7722126Y-22492922D01*
X7722126Y-22492922D02*
X7712602Y-22511969D01*
X8017364Y-22597684D02*
X7903079Y-22597684D01*
X7960221Y-22597684D02*
X7960221Y-22397684D01*
X7960221Y-22397684D02*
X7941174Y-22426255D01*
X7941174Y-22426255D02*
X7922126Y-22445303D01*
X7922126Y-22445303D02*
X7903079Y-22454827D01*
X8131650Y-22483398D02*
X8112602Y-22473874D01*
X8112602Y-22473874D02*
X8103079Y-22464350D01*
X8103079Y-22464350D02*
X8093555Y-22445303D01*
X8093555Y-22445303D02*
X8093555Y-22435779D01*
X8093555Y-22435779D02*
X8103079Y-22416731D01*
X8103079Y-22416731D02*
X8112602Y-22407208D01*
X8112602Y-22407208D02*
X8131650Y-22397684D01*
X8131650Y-22397684D02*
X8169745Y-22397684D01*
X8169745Y-22397684D02*
X8188793Y-22407208D01*
X8188793Y-22407208D02*
X8198317Y-22416731D01*
X8198317Y-22416731D02*
X8207840Y-22435779D01*
X8207840Y-22435779D02*
X8207840Y-22445303D01*
X8207840Y-22445303D02*
X8198317Y-22464350D01*
X8198317Y-22464350D02*
X8188793Y-22473874D01*
X8188793Y-22473874D02*
X8169745Y-22483398D01*
X8169745Y-22483398D02*
X8131650Y-22483398D01*
X8131650Y-22483398D02*
X8112602Y-22492922D01*
X8112602Y-22492922D02*
X8103079Y-22502446D01*
X8103079Y-22502446D02*
X8093555Y-22521493D01*
X8093555Y-22521493D02*
X8093555Y-22559588D01*
X8093555Y-22559588D02*
X8103079Y-22578636D01*
X8103079Y-22578636D02*
X8112602Y-22588160D01*
X8112602Y-22588160D02*
X8131650Y-22597684D01*
X8131650Y-22597684D02*
X8169745Y-22597684D01*
X8169745Y-22597684D02*
X8188793Y-22588160D01*
X8188793Y-22588160D02*
X8198317Y-22578636D01*
X8198317Y-22578636D02*
X8207840Y-22559588D01*
X8207840Y-22559588D02*
X8207840Y-22521493D01*
X8207840Y-22521493D02*
X8198317Y-22502446D01*
X8198317Y-22502446D02*
X8188793Y-22492922D01*
X8188793Y-22492922D02*
X8169745Y-22483398D01*
X8284031Y-22397684D02*
X8284031Y-22435779D01*
X8360221Y-22397684D02*
X8360221Y-22435779D01*
X8655460Y-22673874D02*
X8645936Y-22664350D01*
X8645936Y-22664350D02*
X8626888Y-22635779D01*
X8626888Y-22635779D02*
X8617364Y-22616731D01*
X8617364Y-22616731D02*
X8607841Y-22588160D01*
X8607841Y-22588160D02*
X8598317Y-22540541D01*
X8598317Y-22540541D02*
X8598317Y-22502446D01*
X8598317Y-22502446D02*
X8607841Y-22454827D01*
X8607841Y-22454827D02*
X8617364Y-22426255D01*
X8617364Y-22426255D02*
X8626888Y-22407208D01*
X8626888Y-22407208D02*
X8645936Y-22378636D01*
X8645936Y-22378636D02*
X8655460Y-22369112D01*
X8836412Y-22597684D02*
X8722126Y-22597684D01*
X8779269Y-22597684D02*
X8779269Y-22397684D01*
X8779269Y-22397684D02*
X8760222Y-22426255D01*
X8760222Y-22426255D02*
X8741174Y-22445303D01*
X8741174Y-22445303D02*
X8722126Y-22454827D01*
X8912603Y-22416731D02*
X8922126Y-22407208D01*
X8922126Y-22407208D02*
X8941174Y-22397684D01*
X8941174Y-22397684D02*
X8988793Y-22397684D01*
X8988793Y-22397684D02*
X9007841Y-22407208D01*
X9007841Y-22407208D02*
X9017364Y-22416731D01*
X9017364Y-22416731D02*
X9026888Y-22435779D01*
X9026888Y-22435779D02*
X9026888Y-22454827D01*
X9026888Y-22454827D02*
X9017364Y-22483398D01*
X9017364Y-22483398D02*
X8903079Y-22597684D01*
X8903079Y-22597684D02*
X9026888Y-22597684D01*
X9264984Y-22597684D02*
X9264984Y-22397684D01*
X9350698Y-22597684D02*
X9350698Y-22492922D01*
X9350698Y-22492922D02*
X9341174Y-22473874D01*
X9341174Y-22473874D02*
X9322126Y-22464350D01*
X9322126Y-22464350D02*
X9293555Y-22464350D01*
X9293555Y-22464350D02*
X9274507Y-22473874D01*
X9274507Y-22473874D02*
X9264984Y-22483398D01*
X9474507Y-22597684D02*
X9455460Y-22588160D01*
X9455460Y-22588160D02*
X9445936Y-22578636D01*
X9445936Y-22578636D02*
X9436412Y-22559588D01*
X9436412Y-22559588D02*
X9436412Y-22502446D01*
X9436412Y-22502446D02*
X9445936Y-22483398D01*
X9445936Y-22483398D02*
X9455460Y-22473874D01*
X9455460Y-22473874D02*
X9474507Y-22464350D01*
X9474507Y-22464350D02*
X9503079Y-22464350D01*
X9503079Y-22464350D02*
X9522126Y-22473874D01*
X9522126Y-22473874D02*
X9531650Y-22483398D01*
X9531650Y-22483398D02*
X9541174Y-22502446D01*
X9541174Y-22502446D02*
X9541174Y-22559588D01*
X9541174Y-22559588D02*
X9531650Y-22578636D01*
X9531650Y-22578636D02*
X9522126Y-22588160D01*
X9522126Y-22588160D02*
X9503079Y-22597684D01*
X9503079Y-22597684D02*
X9474507Y-22597684D01*
X9655460Y-22597684D02*
X9636412Y-22588160D01*
X9636412Y-22588160D02*
X9626888Y-22569112D01*
X9626888Y-22569112D02*
X9626888Y-22397684D01*
X9807841Y-22588160D02*
X9788793Y-22597684D01*
X9788793Y-22597684D02*
X9750698Y-22597684D01*
X9750698Y-22597684D02*
X9731650Y-22588160D01*
X9731650Y-22588160D02*
X9722126Y-22569112D01*
X9722126Y-22569112D02*
X9722126Y-22492922D01*
X9722126Y-22492922D02*
X9731650Y-22473874D01*
X9731650Y-22473874D02*
X9750698Y-22464350D01*
X9750698Y-22464350D02*
X9788793Y-22464350D01*
X9788793Y-22464350D02*
X9807841Y-22473874D01*
X9807841Y-22473874D02*
X9817365Y-22492922D01*
X9817365Y-22492922D02*
X9817365Y-22511969D01*
X9817365Y-22511969D02*
X9722126Y-22531017D01*
X9893555Y-22588160D02*
X9912603Y-22597684D01*
X9912603Y-22597684D02*
X9950698Y-22597684D01*
X9950698Y-22597684D02*
X9969746Y-22588160D01*
X9969746Y-22588160D02*
X9979269Y-22569112D01*
X9979269Y-22569112D02*
X9979269Y-22559588D01*
X9979269Y-22559588D02*
X9969746Y-22540541D01*
X9969746Y-22540541D02*
X9950698Y-22531017D01*
X9950698Y-22531017D02*
X9922126Y-22531017D01*
X9922126Y-22531017D02*
X9903079Y-22521493D01*
X9903079Y-22521493D02*
X9893555Y-22502446D01*
X9893555Y-22502446D02*
X9893555Y-22492922D01*
X9893555Y-22492922D02*
X9903079Y-22473874D01*
X9903079Y-22473874D02*
X9922126Y-22464350D01*
X9922126Y-22464350D02*
X9950698Y-22464350D01*
X9950698Y-22464350D02*
X9969746Y-22473874D01*
X10045936Y-22673874D02*
X10055460Y-22664350D01*
X10055460Y-22664350D02*
X10074507Y-22635779D01*
X10074507Y-22635779D02*
X10084031Y-22616731D01*
X10084031Y-22616731D02*
X10093555Y-22588160D01*
X10093555Y-22588160D02*
X10103079Y-22540541D01*
X10103079Y-22540541D02*
X10103079Y-22502446D01*
X10103079Y-22502446D02*
X10093555Y-22454827D01*
X10093555Y-22454827D02*
X10084031Y-22426255D01*
X10084031Y-22426255D02*
X10074507Y-22407208D01*
X10074507Y-22407208D02*
X10055460Y-22378636D01*
X10055460Y-22378636D02*
X10045936Y-22369112D01*
D17*
X4904397Y-22695200D02*
X5080397Y-22871200D01*
X5080397Y-22695200D02*
X4904397Y-22871200D01*
X5054623Y-22845426D02*
X5054623Y-22720974D01*
X4930171Y-22720974D01*
X4930171Y-22845426D01*
X5054623Y-22845426D01*
D11*
X5445936Y-22874684D02*
X5331650Y-22874684D01*
X5388793Y-22874684D02*
X5388793Y-22674684D01*
X5388793Y-22674684D02*
X5369745Y-22703255D01*
X5369745Y-22703255D02*
X5350697Y-22722303D01*
X5350697Y-22722303D02*
X5331650Y-22731827D01*
X5531650Y-22855636D02*
X5541174Y-22865160D01*
X5541174Y-22865160D02*
X5531650Y-22874684D01*
X5531650Y-22874684D02*
X5522126Y-22865160D01*
X5522126Y-22865160D02*
X5531650Y-22855636D01*
X5531650Y-22855636D02*
X5531650Y-22874684D01*
X5607840Y-22674684D02*
X5741174Y-22674684D01*
X5741174Y-22674684D02*
X5655459Y-22874684D01*
X5903078Y-22674684D02*
X5864983Y-22674684D01*
X5864983Y-22674684D02*
X5845935Y-22684208D01*
X5845935Y-22684208D02*
X5836412Y-22693731D01*
X5836412Y-22693731D02*
X5817364Y-22722303D01*
X5817364Y-22722303D02*
X5807840Y-22760398D01*
X5807840Y-22760398D02*
X5807840Y-22836588D01*
X5807840Y-22836588D02*
X5817364Y-22855636D01*
X5817364Y-22855636D02*
X5826888Y-22865160D01*
X5826888Y-22865160D02*
X5845935Y-22874684D01*
X5845935Y-22874684D02*
X5884031Y-22874684D01*
X5884031Y-22874684D02*
X5903078Y-22865160D01*
X5903078Y-22865160D02*
X5912602Y-22855636D01*
X5912602Y-22855636D02*
X5922126Y-22836588D01*
X5922126Y-22836588D02*
X5922126Y-22788969D01*
X5922126Y-22788969D02*
X5912602Y-22769922D01*
X5912602Y-22769922D02*
X5903078Y-22760398D01*
X5903078Y-22760398D02*
X5884031Y-22750874D01*
X5884031Y-22750874D02*
X5845935Y-22750874D01*
X5845935Y-22750874D02*
X5826888Y-22760398D01*
X5826888Y-22760398D02*
X5817364Y-22769922D01*
X5817364Y-22769922D02*
X5807840Y-22788969D01*
X6045935Y-22674684D02*
X6064983Y-22674684D01*
X6064983Y-22674684D02*
X6084031Y-22684208D01*
X6084031Y-22684208D02*
X6093555Y-22693731D01*
X6093555Y-22693731D02*
X6103078Y-22712779D01*
X6103078Y-22712779D02*
X6112602Y-22750874D01*
X6112602Y-22750874D02*
X6112602Y-22798493D01*
X6112602Y-22798493D02*
X6103078Y-22836588D01*
X6103078Y-22836588D02*
X6093555Y-22855636D01*
X6093555Y-22855636D02*
X6084031Y-22865160D01*
X6084031Y-22865160D02*
X6064983Y-22874684D01*
X6064983Y-22874684D02*
X6045935Y-22874684D01*
X6045935Y-22874684D02*
X6026888Y-22865160D01*
X6026888Y-22865160D02*
X6017364Y-22855636D01*
X6017364Y-22855636D02*
X6007840Y-22836588D01*
X6007840Y-22836588D02*
X5998316Y-22798493D01*
X5998316Y-22798493D02*
X5998316Y-22750874D01*
X5998316Y-22750874D02*
X6007840Y-22712779D01*
X6007840Y-22712779D02*
X6017364Y-22693731D01*
X6017364Y-22693731D02*
X6026888Y-22684208D01*
X6026888Y-22684208D02*
X6045935Y-22674684D01*
X6198316Y-22874684D02*
X6198316Y-22741350D01*
X6198316Y-22760398D02*
X6207840Y-22750874D01*
X6207840Y-22750874D02*
X6226888Y-22741350D01*
X6226888Y-22741350D02*
X6255459Y-22741350D01*
X6255459Y-22741350D02*
X6274507Y-22750874D01*
X6274507Y-22750874D02*
X6284031Y-22769922D01*
X6284031Y-22769922D02*
X6284031Y-22874684D01*
X6284031Y-22769922D02*
X6293555Y-22750874D01*
X6293555Y-22750874D02*
X6312602Y-22741350D01*
X6312602Y-22741350D02*
X6341174Y-22741350D01*
X6341174Y-22741350D02*
X6360221Y-22750874D01*
X6360221Y-22750874D02*
X6369745Y-22769922D01*
X6369745Y-22769922D02*
X6369745Y-22874684D01*
X6464983Y-22874684D02*
X6464983Y-22741350D01*
X6464983Y-22760398D02*
X6474507Y-22750874D01*
X6474507Y-22750874D02*
X6493555Y-22741350D01*
X6493555Y-22741350D02*
X6522126Y-22741350D01*
X6522126Y-22741350D02*
X6541174Y-22750874D01*
X6541174Y-22750874D02*
X6550697Y-22769922D01*
X6550697Y-22769922D02*
X6550697Y-22874684D01*
X6550697Y-22769922D02*
X6560221Y-22750874D01*
X6560221Y-22750874D02*
X6579269Y-22741350D01*
X6579269Y-22741350D02*
X6607840Y-22741350D01*
X6607840Y-22741350D02*
X6626888Y-22750874D01*
X6626888Y-22750874D02*
X6636412Y-22769922D01*
X6636412Y-22769922D02*
X6636412Y-22874684D01*
X7026888Y-22665160D02*
X6855459Y-22922303D01*
X7284031Y-22674684D02*
X7303079Y-22674684D01*
X7303079Y-22674684D02*
X7322126Y-22684208D01*
X7322126Y-22684208D02*
X7331650Y-22693731D01*
X7331650Y-22693731D02*
X7341174Y-22712779D01*
X7341174Y-22712779D02*
X7350698Y-22750874D01*
X7350698Y-22750874D02*
X7350698Y-22798493D01*
X7350698Y-22798493D02*
X7341174Y-22836588D01*
X7341174Y-22836588D02*
X7331650Y-22855636D01*
X7331650Y-22855636D02*
X7322126Y-22865160D01*
X7322126Y-22865160D02*
X7303079Y-22874684D01*
X7303079Y-22874684D02*
X7284031Y-22874684D01*
X7284031Y-22874684D02*
X7264983Y-22865160D01*
X7264983Y-22865160D02*
X7255459Y-22855636D01*
X7255459Y-22855636D02*
X7245936Y-22836588D01*
X7245936Y-22836588D02*
X7236412Y-22798493D01*
X7236412Y-22798493D02*
X7236412Y-22750874D01*
X7236412Y-22750874D02*
X7245936Y-22712779D01*
X7245936Y-22712779D02*
X7255459Y-22693731D01*
X7255459Y-22693731D02*
X7264983Y-22684208D01*
X7264983Y-22684208D02*
X7284031Y-22674684D01*
X7436412Y-22855636D02*
X7445936Y-22865160D01*
X7445936Y-22865160D02*
X7436412Y-22874684D01*
X7436412Y-22874684D02*
X7426888Y-22865160D01*
X7426888Y-22865160D02*
X7436412Y-22855636D01*
X7436412Y-22855636D02*
X7436412Y-22874684D01*
X7569745Y-22674684D02*
X7588793Y-22674684D01*
X7588793Y-22674684D02*
X7607840Y-22684208D01*
X7607840Y-22684208D02*
X7617364Y-22693731D01*
X7617364Y-22693731D02*
X7626888Y-22712779D01*
X7626888Y-22712779D02*
X7636412Y-22750874D01*
X7636412Y-22750874D02*
X7636412Y-22798493D01*
X7636412Y-22798493D02*
X7626888Y-22836588D01*
X7626888Y-22836588D02*
X7617364Y-22855636D01*
X7617364Y-22855636D02*
X7607840Y-22865160D01*
X7607840Y-22865160D02*
X7588793Y-22874684D01*
X7588793Y-22874684D02*
X7569745Y-22874684D01*
X7569745Y-22874684D02*
X7550698Y-22865160D01*
X7550698Y-22865160D02*
X7541174Y-22855636D01*
X7541174Y-22855636D02*
X7531650Y-22836588D01*
X7531650Y-22836588D02*
X7522126Y-22798493D01*
X7522126Y-22798493D02*
X7522126Y-22750874D01*
X7522126Y-22750874D02*
X7531650Y-22712779D01*
X7531650Y-22712779D02*
X7541174Y-22693731D01*
X7541174Y-22693731D02*
X7550698Y-22684208D01*
X7550698Y-22684208D02*
X7569745Y-22674684D01*
X7807840Y-22674684D02*
X7769745Y-22674684D01*
X7769745Y-22674684D02*
X7750698Y-22684208D01*
X7750698Y-22684208D02*
X7741174Y-22693731D01*
X7741174Y-22693731D02*
X7722126Y-22722303D01*
X7722126Y-22722303D02*
X7712602Y-22760398D01*
X7712602Y-22760398D02*
X7712602Y-22836588D01*
X7712602Y-22836588D02*
X7722126Y-22855636D01*
X7722126Y-22855636D02*
X7731650Y-22865160D01*
X7731650Y-22865160D02*
X7750698Y-22874684D01*
X7750698Y-22874684D02*
X7788793Y-22874684D01*
X7788793Y-22874684D02*
X7807840Y-22865160D01*
X7807840Y-22865160D02*
X7817364Y-22855636D01*
X7817364Y-22855636D02*
X7826888Y-22836588D01*
X7826888Y-22836588D02*
X7826888Y-22788969D01*
X7826888Y-22788969D02*
X7817364Y-22769922D01*
X7817364Y-22769922D02*
X7807840Y-22760398D01*
X7807840Y-22760398D02*
X7788793Y-22750874D01*
X7788793Y-22750874D02*
X7750698Y-22750874D01*
X7750698Y-22750874D02*
X7731650Y-22760398D01*
X7731650Y-22760398D02*
X7722126Y-22769922D01*
X7722126Y-22769922D02*
X7712602Y-22788969D01*
X7922126Y-22874684D02*
X7960221Y-22874684D01*
X7960221Y-22874684D02*
X7979269Y-22865160D01*
X7979269Y-22865160D02*
X7988793Y-22855636D01*
X7988793Y-22855636D02*
X8007840Y-22827065D01*
X8007840Y-22827065D02*
X8017364Y-22788969D01*
X8017364Y-22788969D02*
X8017364Y-22712779D01*
X8017364Y-22712779D02*
X8007840Y-22693731D01*
X8007840Y-22693731D02*
X7998317Y-22684208D01*
X7998317Y-22684208D02*
X7979269Y-22674684D01*
X7979269Y-22674684D02*
X7941174Y-22674684D01*
X7941174Y-22674684D02*
X7922126Y-22684208D01*
X7922126Y-22684208D02*
X7912602Y-22693731D01*
X7912602Y-22693731D02*
X7903079Y-22712779D01*
X7903079Y-22712779D02*
X7903079Y-22760398D01*
X7903079Y-22760398D02*
X7912602Y-22779446D01*
X7912602Y-22779446D02*
X7922126Y-22788969D01*
X7922126Y-22788969D02*
X7941174Y-22798493D01*
X7941174Y-22798493D02*
X7979269Y-22798493D01*
X7979269Y-22798493D02*
X7998317Y-22788969D01*
X7998317Y-22788969D02*
X8007840Y-22779446D01*
X8007840Y-22779446D02*
X8017364Y-22760398D01*
X8084031Y-22674684D02*
X8207840Y-22674684D01*
X8207840Y-22674684D02*
X8141174Y-22750874D01*
X8141174Y-22750874D02*
X8169745Y-22750874D01*
X8169745Y-22750874D02*
X8188793Y-22760398D01*
X8188793Y-22760398D02*
X8198317Y-22769922D01*
X8198317Y-22769922D02*
X8207840Y-22788969D01*
X8207840Y-22788969D02*
X8207840Y-22836588D01*
X8207840Y-22836588D02*
X8198317Y-22855636D01*
X8198317Y-22855636D02*
X8188793Y-22865160D01*
X8188793Y-22865160D02*
X8169745Y-22874684D01*
X8169745Y-22874684D02*
X8112602Y-22874684D01*
X8112602Y-22874684D02*
X8093555Y-22865160D01*
X8093555Y-22865160D02*
X8084031Y-22855636D01*
X8284031Y-22674684D02*
X8284031Y-22712779D01*
X8360221Y-22674684D02*
X8360221Y-22712779D01*
X8655460Y-22950874D02*
X8645936Y-22941350D01*
X8645936Y-22941350D02*
X8626888Y-22912779D01*
X8626888Y-22912779D02*
X8617364Y-22893731D01*
X8617364Y-22893731D02*
X8607841Y-22865160D01*
X8607841Y-22865160D02*
X8598317Y-22817541D01*
X8598317Y-22817541D02*
X8598317Y-22779446D01*
X8598317Y-22779446D02*
X8607841Y-22731827D01*
X8607841Y-22731827D02*
X8617364Y-22703255D01*
X8617364Y-22703255D02*
X8626888Y-22684208D01*
X8626888Y-22684208D02*
X8645936Y-22655636D01*
X8645936Y-22655636D02*
X8655460Y-22646112D01*
X8836412Y-22874684D02*
X8722126Y-22874684D01*
X8779269Y-22874684D02*
X8779269Y-22674684D01*
X8779269Y-22674684D02*
X8760222Y-22703255D01*
X8760222Y-22703255D02*
X8741174Y-22722303D01*
X8741174Y-22722303D02*
X8722126Y-22731827D01*
X9007841Y-22674684D02*
X8969745Y-22674684D01*
X8969745Y-22674684D02*
X8950698Y-22684208D01*
X8950698Y-22684208D02*
X8941174Y-22693731D01*
X8941174Y-22693731D02*
X8922126Y-22722303D01*
X8922126Y-22722303D02*
X8912603Y-22760398D01*
X8912603Y-22760398D02*
X8912603Y-22836588D01*
X8912603Y-22836588D02*
X8922126Y-22855636D01*
X8922126Y-22855636D02*
X8931650Y-22865160D01*
X8931650Y-22865160D02*
X8950698Y-22874684D01*
X8950698Y-22874684D02*
X8988793Y-22874684D01*
X8988793Y-22874684D02*
X9007841Y-22865160D01*
X9007841Y-22865160D02*
X9017364Y-22855636D01*
X9017364Y-22855636D02*
X9026888Y-22836588D01*
X9026888Y-22836588D02*
X9026888Y-22788969D01*
X9026888Y-22788969D02*
X9017364Y-22769922D01*
X9017364Y-22769922D02*
X9007841Y-22760398D01*
X9007841Y-22760398D02*
X8988793Y-22750874D01*
X8988793Y-22750874D02*
X8950698Y-22750874D01*
X8950698Y-22750874D02*
X8931650Y-22760398D01*
X8931650Y-22760398D02*
X8922126Y-22769922D01*
X8922126Y-22769922D02*
X8912603Y-22788969D01*
X9264984Y-22874684D02*
X9264984Y-22674684D01*
X9350698Y-22874684D02*
X9350698Y-22769922D01*
X9350698Y-22769922D02*
X9341174Y-22750874D01*
X9341174Y-22750874D02*
X9322126Y-22741350D01*
X9322126Y-22741350D02*
X9293555Y-22741350D01*
X9293555Y-22741350D02*
X9274507Y-22750874D01*
X9274507Y-22750874D02*
X9264984Y-22760398D01*
X9474507Y-22874684D02*
X9455460Y-22865160D01*
X9455460Y-22865160D02*
X9445936Y-22855636D01*
X9445936Y-22855636D02*
X9436412Y-22836588D01*
X9436412Y-22836588D02*
X9436412Y-22779446D01*
X9436412Y-22779446D02*
X9445936Y-22760398D01*
X9445936Y-22760398D02*
X9455460Y-22750874D01*
X9455460Y-22750874D02*
X9474507Y-22741350D01*
X9474507Y-22741350D02*
X9503079Y-22741350D01*
X9503079Y-22741350D02*
X9522126Y-22750874D01*
X9522126Y-22750874D02*
X9531650Y-22760398D01*
X9531650Y-22760398D02*
X9541174Y-22779446D01*
X9541174Y-22779446D02*
X9541174Y-22836588D01*
X9541174Y-22836588D02*
X9531650Y-22855636D01*
X9531650Y-22855636D02*
X9522126Y-22865160D01*
X9522126Y-22865160D02*
X9503079Y-22874684D01*
X9503079Y-22874684D02*
X9474507Y-22874684D01*
X9655460Y-22874684D02*
X9636412Y-22865160D01*
X9636412Y-22865160D02*
X9626888Y-22846112D01*
X9626888Y-22846112D02*
X9626888Y-22674684D01*
X9807841Y-22865160D02*
X9788793Y-22874684D01*
X9788793Y-22874684D02*
X9750698Y-22874684D01*
X9750698Y-22874684D02*
X9731650Y-22865160D01*
X9731650Y-22865160D02*
X9722126Y-22846112D01*
X9722126Y-22846112D02*
X9722126Y-22769922D01*
X9722126Y-22769922D02*
X9731650Y-22750874D01*
X9731650Y-22750874D02*
X9750698Y-22741350D01*
X9750698Y-22741350D02*
X9788793Y-22741350D01*
X9788793Y-22741350D02*
X9807841Y-22750874D01*
X9807841Y-22750874D02*
X9817365Y-22769922D01*
X9817365Y-22769922D02*
X9817365Y-22788969D01*
X9817365Y-22788969D02*
X9722126Y-22808017D01*
X9893555Y-22865160D02*
X9912603Y-22874684D01*
X9912603Y-22874684D02*
X9950698Y-22874684D01*
X9950698Y-22874684D02*
X9969746Y-22865160D01*
X9969746Y-22865160D02*
X9979269Y-22846112D01*
X9979269Y-22846112D02*
X9979269Y-22836588D01*
X9979269Y-22836588D02*
X9969746Y-22817541D01*
X9969746Y-22817541D02*
X9950698Y-22808017D01*
X9950698Y-22808017D02*
X9922126Y-22808017D01*
X9922126Y-22808017D02*
X9903079Y-22798493D01*
X9903079Y-22798493D02*
X9893555Y-22779446D01*
X9893555Y-22779446D02*
X9893555Y-22769922D01*
X9893555Y-22769922D02*
X9903079Y-22750874D01*
X9903079Y-22750874D02*
X9922126Y-22741350D01*
X9922126Y-22741350D02*
X9950698Y-22741350D01*
X9950698Y-22741350D02*
X9969746Y-22750874D01*
X10045936Y-22950874D02*
X10055460Y-22941350D01*
X10055460Y-22941350D02*
X10074507Y-22912779D01*
X10074507Y-22912779D02*
X10084031Y-22893731D01*
X10084031Y-22893731D02*
X10093555Y-22865160D01*
X10093555Y-22865160D02*
X10103079Y-22817541D01*
X10103079Y-22817541D02*
X10103079Y-22779446D01*
X10103079Y-22779446D02*
X10093555Y-22731827D01*
X10093555Y-22731827D02*
X10084031Y-22703255D01*
X10084031Y-22703255D02*
X10074507Y-22684208D01*
X10074507Y-22684208D02*
X10055460Y-22655636D01*
X10055460Y-22655636D02*
X10045936Y-22646112D01*
X4880397Y-22979200D02*
X5080397Y-23179200D01*
X5080397Y-22979200D02*
X4880397Y-23179200D01*
X4980397Y-23179200D02*
X5080397Y-23079200D01*
X4980397Y-22979200D01*
X4880397Y-23079200D01*
X4980397Y-23179200D01*
X5331650Y-22989731D02*
X5341174Y-22980208D01*
X5341174Y-22980208D02*
X5360221Y-22970684D01*
X5360221Y-22970684D02*
X5407840Y-22970684D01*
X5407840Y-22970684D02*
X5426888Y-22980208D01*
X5426888Y-22980208D02*
X5436412Y-22989731D01*
X5436412Y-22989731D02*
X5445936Y-23008779D01*
X5445936Y-23008779D02*
X5445936Y-23027827D01*
X5445936Y-23027827D02*
X5436412Y-23056398D01*
X5436412Y-23056398D02*
X5322126Y-23170684D01*
X5322126Y-23170684D02*
X5445936Y-23170684D01*
X5531650Y-23151636D02*
X5541174Y-23161160D01*
X5541174Y-23161160D02*
X5531650Y-23170684D01*
X5531650Y-23170684D02*
X5522126Y-23161160D01*
X5522126Y-23161160D02*
X5531650Y-23151636D01*
X5531650Y-23151636D02*
X5531650Y-23170684D01*
X5731650Y-23170684D02*
X5617364Y-23170684D01*
X5674507Y-23170684D02*
X5674507Y-22970684D01*
X5674507Y-22970684D02*
X5655459Y-22999255D01*
X5655459Y-22999255D02*
X5636412Y-23018303D01*
X5636412Y-23018303D02*
X5617364Y-23027827D01*
X5798316Y-22970684D02*
X5922126Y-22970684D01*
X5922126Y-22970684D02*
X5855459Y-23046874D01*
X5855459Y-23046874D02*
X5884031Y-23046874D01*
X5884031Y-23046874D02*
X5903078Y-23056398D01*
X5903078Y-23056398D02*
X5912602Y-23065922D01*
X5912602Y-23065922D02*
X5922126Y-23084969D01*
X5922126Y-23084969D02*
X5922126Y-23132588D01*
X5922126Y-23132588D02*
X5912602Y-23151636D01*
X5912602Y-23151636D02*
X5903078Y-23161160D01*
X5903078Y-23161160D02*
X5884031Y-23170684D01*
X5884031Y-23170684D02*
X5826888Y-23170684D01*
X5826888Y-23170684D02*
X5807840Y-23161160D01*
X5807840Y-23161160D02*
X5798316Y-23151636D01*
X6045935Y-22970684D02*
X6064983Y-22970684D01*
X6064983Y-22970684D02*
X6084031Y-22980208D01*
X6084031Y-22980208D02*
X6093555Y-22989731D01*
X6093555Y-22989731D02*
X6103078Y-23008779D01*
X6103078Y-23008779D02*
X6112602Y-23046874D01*
X6112602Y-23046874D02*
X6112602Y-23094493D01*
X6112602Y-23094493D02*
X6103078Y-23132588D01*
X6103078Y-23132588D02*
X6093555Y-23151636D01*
X6093555Y-23151636D02*
X6084031Y-23161160D01*
X6084031Y-23161160D02*
X6064983Y-23170684D01*
X6064983Y-23170684D02*
X6045935Y-23170684D01*
X6045935Y-23170684D02*
X6026888Y-23161160D01*
X6026888Y-23161160D02*
X6017364Y-23151636D01*
X6017364Y-23151636D02*
X6007840Y-23132588D01*
X6007840Y-23132588D02*
X5998316Y-23094493D01*
X5998316Y-23094493D02*
X5998316Y-23046874D01*
X5998316Y-23046874D02*
X6007840Y-23008779D01*
X6007840Y-23008779D02*
X6017364Y-22989731D01*
X6017364Y-22989731D02*
X6026888Y-22980208D01*
X6026888Y-22980208D02*
X6045935Y-22970684D01*
X6198316Y-23170684D02*
X6198316Y-23037350D01*
X6198316Y-23056398D02*
X6207840Y-23046874D01*
X6207840Y-23046874D02*
X6226888Y-23037350D01*
X6226888Y-23037350D02*
X6255459Y-23037350D01*
X6255459Y-23037350D02*
X6274507Y-23046874D01*
X6274507Y-23046874D02*
X6284031Y-23065922D01*
X6284031Y-23065922D02*
X6284031Y-23170684D01*
X6284031Y-23065922D02*
X6293555Y-23046874D01*
X6293555Y-23046874D02*
X6312602Y-23037350D01*
X6312602Y-23037350D02*
X6341174Y-23037350D01*
X6341174Y-23037350D02*
X6360221Y-23046874D01*
X6360221Y-23046874D02*
X6369745Y-23065922D01*
X6369745Y-23065922D02*
X6369745Y-23170684D01*
X6464983Y-23170684D02*
X6464983Y-23037350D01*
X6464983Y-23056398D02*
X6474507Y-23046874D01*
X6474507Y-23046874D02*
X6493555Y-23037350D01*
X6493555Y-23037350D02*
X6522126Y-23037350D01*
X6522126Y-23037350D02*
X6541174Y-23046874D01*
X6541174Y-23046874D02*
X6550697Y-23065922D01*
X6550697Y-23065922D02*
X6550697Y-23170684D01*
X6550697Y-23065922D02*
X6560221Y-23046874D01*
X6560221Y-23046874D02*
X6579269Y-23037350D01*
X6579269Y-23037350D02*
X6607840Y-23037350D01*
X6607840Y-23037350D02*
X6626888Y-23046874D01*
X6626888Y-23046874D02*
X6636412Y-23065922D01*
X6636412Y-23065922D02*
X6636412Y-23170684D01*
X7026888Y-22961160D02*
X6855459Y-23218303D01*
X7284031Y-22970684D02*
X7303079Y-22970684D01*
X7303079Y-22970684D02*
X7322126Y-22980208D01*
X7322126Y-22980208D02*
X7331650Y-22989731D01*
X7331650Y-22989731D02*
X7341174Y-23008779D01*
X7341174Y-23008779D02*
X7350698Y-23046874D01*
X7350698Y-23046874D02*
X7350698Y-23094493D01*
X7350698Y-23094493D02*
X7341174Y-23132588D01*
X7341174Y-23132588D02*
X7331650Y-23151636D01*
X7331650Y-23151636D02*
X7322126Y-23161160D01*
X7322126Y-23161160D02*
X7303079Y-23170684D01*
X7303079Y-23170684D02*
X7284031Y-23170684D01*
X7284031Y-23170684D02*
X7264983Y-23161160D01*
X7264983Y-23161160D02*
X7255459Y-23151636D01*
X7255459Y-23151636D02*
X7245936Y-23132588D01*
X7245936Y-23132588D02*
X7236412Y-23094493D01*
X7236412Y-23094493D02*
X7236412Y-23046874D01*
X7236412Y-23046874D02*
X7245936Y-23008779D01*
X7245936Y-23008779D02*
X7255459Y-22989731D01*
X7255459Y-22989731D02*
X7264983Y-22980208D01*
X7264983Y-22980208D02*
X7284031Y-22970684D01*
X7436412Y-23151636D02*
X7445936Y-23161160D01*
X7445936Y-23161160D02*
X7436412Y-23170684D01*
X7436412Y-23170684D02*
X7426888Y-23161160D01*
X7426888Y-23161160D02*
X7436412Y-23151636D01*
X7436412Y-23151636D02*
X7436412Y-23170684D01*
X7569745Y-22970684D02*
X7588793Y-22970684D01*
X7588793Y-22970684D02*
X7607840Y-22980208D01*
X7607840Y-22980208D02*
X7617364Y-22989731D01*
X7617364Y-22989731D02*
X7626888Y-23008779D01*
X7626888Y-23008779D02*
X7636412Y-23046874D01*
X7636412Y-23046874D02*
X7636412Y-23094493D01*
X7636412Y-23094493D02*
X7626888Y-23132588D01*
X7626888Y-23132588D02*
X7617364Y-23151636D01*
X7617364Y-23151636D02*
X7607840Y-23161160D01*
X7607840Y-23161160D02*
X7588793Y-23170684D01*
X7588793Y-23170684D02*
X7569745Y-23170684D01*
X7569745Y-23170684D02*
X7550698Y-23161160D01*
X7550698Y-23161160D02*
X7541174Y-23151636D01*
X7541174Y-23151636D02*
X7531650Y-23132588D01*
X7531650Y-23132588D02*
X7522126Y-23094493D01*
X7522126Y-23094493D02*
X7522126Y-23046874D01*
X7522126Y-23046874D02*
X7531650Y-23008779D01*
X7531650Y-23008779D02*
X7541174Y-22989731D01*
X7541174Y-22989731D02*
X7550698Y-22980208D01*
X7550698Y-22980208D02*
X7569745Y-22970684D01*
X7750698Y-23056398D02*
X7731650Y-23046874D01*
X7731650Y-23046874D02*
X7722126Y-23037350D01*
X7722126Y-23037350D02*
X7712602Y-23018303D01*
X7712602Y-23018303D02*
X7712602Y-23008779D01*
X7712602Y-23008779D02*
X7722126Y-22989731D01*
X7722126Y-22989731D02*
X7731650Y-22980208D01*
X7731650Y-22980208D02*
X7750698Y-22970684D01*
X7750698Y-22970684D02*
X7788793Y-22970684D01*
X7788793Y-22970684D02*
X7807840Y-22980208D01*
X7807840Y-22980208D02*
X7817364Y-22989731D01*
X7817364Y-22989731D02*
X7826888Y-23008779D01*
X7826888Y-23008779D02*
X7826888Y-23018303D01*
X7826888Y-23018303D02*
X7817364Y-23037350D01*
X7817364Y-23037350D02*
X7807840Y-23046874D01*
X7807840Y-23046874D02*
X7788793Y-23056398D01*
X7788793Y-23056398D02*
X7750698Y-23056398D01*
X7750698Y-23056398D02*
X7731650Y-23065922D01*
X7731650Y-23065922D02*
X7722126Y-23075446D01*
X7722126Y-23075446D02*
X7712602Y-23094493D01*
X7712602Y-23094493D02*
X7712602Y-23132588D01*
X7712602Y-23132588D02*
X7722126Y-23151636D01*
X7722126Y-23151636D02*
X7731650Y-23161160D01*
X7731650Y-23161160D02*
X7750698Y-23170684D01*
X7750698Y-23170684D02*
X7788793Y-23170684D01*
X7788793Y-23170684D02*
X7807840Y-23161160D01*
X7807840Y-23161160D02*
X7817364Y-23151636D01*
X7817364Y-23151636D02*
X7826888Y-23132588D01*
X7826888Y-23132588D02*
X7826888Y-23094493D01*
X7826888Y-23094493D02*
X7817364Y-23075446D01*
X7817364Y-23075446D02*
X7807840Y-23065922D01*
X7807840Y-23065922D02*
X7788793Y-23056398D01*
X7893555Y-22970684D02*
X8017364Y-22970684D01*
X8017364Y-22970684D02*
X7950698Y-23046874D01*
X7950698Y-23046874D02*
X7979269Y-23046874D01*
X7979269Y-23046874D02*
X7998317Y-23056398D01*
X7998317Y-23056398D02*
X8007840Y-23065922D01*
X8007840Y-23065922D02*
X8017364Y-23084969D01*
X8017364Y-23084969D02*
X8017364Y-23132588D01*
X8017364Y-23132588D02*
X8007840Y-23151636D01*
X8007840Y-23151636D02*
X7998317Y-23161160D01*
X7998317Y-23161160D02*
X7979269Y-23170684D01*
X7979269Y-23170684D02*
X7922126Y-23170684D01*
X7922126Y-23170684D02*
X7903079Y-23161160D01*
X7903079Y-23161160D02*
X7893555Y-23151636D01*
X8112602Y-23170684D02*
X8150698Y-23170684D01*
X8150698Y-23170684D02*
X8169745Y-23161160D01*
X8169745Y-23161160D02*
X8179269Y-23151636D01*
X8179269Y-23151636D02*
X8198317Y-23123065D01*
X8198317Y-23123065D02*
X8207840Y-23084969D01*
X8207840Y-23084969D02*
X8207840Y-23008779D01*
X8207840Y-23008779D02*
X8198317Y-22989731D01*
X8198317Y-22989731D02*
X8188793Y-22980208D01*
X8188793Y-22980208D02*
X8169745Y-22970684D01*
X8169745Y-22970684D02*
X8131650Y-22970684D01*
X8131650Y-22970684D02*
X8112602Y-22980208D01*
X8112602Y-22980208D02*
X8103079Y-22989731D01*
X8103079Y-22989731D02*
X8093555Y-23008779D01*
X8093555Y-23008779D02*
X8093555Y-23056398D01*
X8093555Y-23056398D02*
X8103079Y-23075446D01*
X8103079Y-23075446D02*
X8112602Y-23084969D01*
X8112602Y-23084969D02*
X8131650Y-23094493D01*
X8131650Y-23094493D02*
X8169745Y-23094493D01*
X8169745Y-23094493D02*
X8188793Y-23084969D01*
X8188793Y-23084969D02*
X8198317Y-23075446D01*
X8198317Y-23075446D02*
X8207840Y-23056398D01*
X8284031Y-22970684D02*
X8284031Y-23008779D01*
X8360221Y-22970684D02*
X8360221Y-23008779D01*
X8655460Y-23246874D02*
X8645936Y-23237350D01*
X8645936Y-23237350D02*
X8626888Y-23208779D01*
X8626888Y-23208779D02*
X8617364Y-23189731D01*
X8617364Y-23189731D02*
X8607841Y-23161160D01*
X8607841Y-23161160D02*
X8598317Y-23113541D01*
X8598317Y-23113541D02*
X8598317Y-23075446D01*
X8598317Y-23075446D02*
X8607841Y-23027827D01*
X8607841Y-23027827D02*
X8617364Y-22999255D01*
X8617364Y-22999255D02*
X8626888Y-22980208D01*
X8626888Y-22980208D02*
X8645936Y-22951636D01*
X8645936Y-22951636D02*
X8655460Y-22942112D01*
X8817364Y-23037350D02*
X8817364Y-23170684D01*
X8769745Y-22961160D02*
X8722126Y-23104017D01*
X8722126Y-23104017D02*
X8845936Y-23104017D01*
X9074507Y-23170684D02*
X9074507Y-22970684D01*
X9160222Y-23170684D02*
X9160222Y-23065922D01*
X9160222Y-23065922D02*
X9150698Y-23046874D01*
X9150698Y-23046874D02*
X9131650Y-23037350D01*
X9131650Y-23037350D02*
X9103079Y-23037350D01*
X9103079Y-23037350D02*
X9084031Y-23046874D01*
X9084031Y-23046874D02*
X9074507Y-23056398D01*
X9284031Y-23170684D02*
X9264984Y-23161160D01*
X9264984Y-23161160D02*
X9255460Y-23151636D01*
X9255460Y-23151636D02*
X9245936Y-23132588D01*
X9245936Y-23132588D02*
X9245936Y-23075446D01*
X9245936Y-23075446D02*
X9255460Y-23056398D01*
X9255460Y-23056398D02*
X9264984Y-23046874D01*
X9264984Y-23046874D02*
X9284031Y-23037350D01*
X9284031Y-23037350D02*
X9312603Y-23037350D01*
X9312603Y-23037350D02*
X9331650Y-23046874D01*
X9331650Y-23046874D02*
X9341174Y-23056398D01*
X9341174Y-23056398D02*
X9350698Y-23075446D01*
X9350698Y-23075446D02*
X9350698Y-23132588D01*
X9350698Y-23132588D02*
X9341174Y-23151636D01*
X9341174Y-23151636D02*
X9331650Y-23161160D01*
X9331650Y-23161160D02*
X9312603Y-23170684D01*
X9312603Y-23170684D02*
X9284031Y-23170684D01*
X9464984Y-23170684D02*
X9445936Y-23161160D01*
X9445936Y-23161160D02*
X9436412Y-23142112D01*
X9436412Y-23142112D02*
X9436412Y-22970684D01*
X9617365Y-23161160D02*
X9598317Y-23170684D01*
X9598317Y-23170684D02*
X9560222Y-23170684D01*
X9560222Y-23170684D02*
X9541174Y-23161160D01*
X9541174Y-23161160D02*
X9531650Y-23142112D01*
X9531650Y-23142112D02*
X9531650Y-23065922D01*
X9531650Y-23065922D02*
X9541174Y-23046874D01*
X9541174Y-23046874D02*
X9560222Y-23037350D01*
X9560222Y-23037350D02*
X9598317Y-23037350D01*
X9598317Y-23037350D02*
X9617365Y-23046874D01*
X9617365Y-23046874D02*
X9626888Y-23065922D01*
X9626888Y-23065922D02*
X9626888Y-23084969D01*
X9626888Y-23084969D02*
X9531650Y-23104017D01*
X9703079Y-23161160D02*
X9722126Y-23170684D01*
X9722126Y-23170684D02*
X9760222Y-23170684D01*
X9760222Y-23170684D02*
X9779269Y-23161160D01*
X9779269Y-23161160D02*
X9788793Y-23142112D01*
X9788793Y-23142112D02*
X9788793Y-23132588D01*
X9788793Y-23132588D02*
X9779269Y-23113541D01*
X9779269Y-23113541D02*
X9760222Y-23104017D01*
X9760222Y-23104017D02*
X9731650Y-23104017D01*
X9731650Y-23104017D02*
X9712603Y-23094493D01*
X9712603Y-23094493D02*
X9703079Y-23075446D01*
X9703079Y-23075446D02*
X9703079Y-23065922D01*
X9703079Y-23065922D02*
X9712603Y-23046874D01*
X9712603Y-23046874D02*
X9731650Y-23037350D01*
X9731650Y-23037350D02*
X9760222Y-23037350D01*
X9760222Y-23037350D02*
X9779269Y-23046874D01*
X9855460Y-23246874D02*
X9864984Y-23237350D01*
X9864984Y-23237350D02*
X9884031Y-23208779D01*
X9884031Y-23208779D02*
X9893555Y-23189731D01*
X9893555Y-23189731D02*
X9903079Y-23161160D01*
X9903079Y-23161160D02*
X9912603Y-23113541D01*
X9912603Y-23113541D02*
X9912603Y-23075446D01*
X9912603Y-23075446D02*
X9903079Y-23027827D01*
X9903079Y-23027827D02*
X9893555Y-22999255D01*
X9893555Y-22999255D02*
X9884031Y-22980208D01*
X9884031Y-22980208D02*
X9864984Y-22951636D01*
X9864984Y-22951636D02*
X9855460Y-22942112D01*
X4980397Y-23299200D02*
X4980397Y-23499200D01*
X4880397Y-23399200D02*
X5080397Y-23399200D01*
X5080397Y-23399200D02*
G75*
G02*
X4880397Y-23399200I-100000J0D01*
G01*
X4880397Y-23399200D02*
G75*
G02*
X5080397Y-23399200I100000J0D01*
G01*
X5331650Y-23309731D02*
X5341174Y-23300208D01*
X5341174Y-23300208D02*
X5360221Y-23290684D01*
X5360221Y-23290684D02*
X5407840Y-23290684D01*
X5407840Y-23290684D02*
X5426888Y-23300208D01*
X5426888Y-23300208D02*
X5436412Y-23309731D01*
X5436412Y-23309731D02*
X5445936Y-23328779D01*
X5445936Y-23328779D02*
X5445936Y-23347827D01*
X5445936Y-23347827D02*
X5436412Y-23376398D01*
X5436412Y-23376398D02*
X5322126Y-23490684D01*
X5322126Y-23490684D02*
X5445936Y-23490684D01*
X5531650Y-23471636D02*
X5541174Y-23481160D01*
X5541174Y-23481160D02*
X5531650Y-23490684D01*
X5531650Y-23490684D02*
X5522126Y-23481160D01*
X5522126Y-23481160D02*
X5531650Y-23471636D01*
X5531650Y-23471636D02*
X5531650Y-23490684D01*
X5607840Y-23290684D02*
X5741174Y-23290684D01*
X5741174Y-23290684D02*
X5655459Y-23490684D01*
X5826888Y-23490684D02*
X5864983Y-23490684D01*
X5864983Y-23490684D02*
X5884031Y-23481160D01*
X5884031Y-23481160D02*
X5893555Y-23471636D01*
X5893555Y-23471636D02*
X5912602Y-23443065D01*
X5912602Y-23443065D02*
X5922126Y-23404969D01*
X5922126Y-23404969D02*
X5922126Y-23328779D01*
X5922126Y-23328779D02*
X5912602Y-23309731D01*
X5912602Y-23309731D02*
X5903078Y-23300208D01*
X5903078Y-23300208D02*
X5884031Y-23290684D01*
X5884031Y-23290684D02*
X5845935Y-23290684D01*
X5845935Y-23290684D02*
X5826888Y-23300208D01*
X5826888Y-23300208D02*
X5817364Y-23309731D01*
X5817364Y-23309731D02*
X5807840Y-23328779D01*
X5807840Y-23328779D02*
X5807840Y-23376398D01*
X5807840Y-23376398D02*
X5817364Y-23395446D01*
X5817364Y-23395446D02*
X5826888Y-23404969D01*
X5826888Y-23404969D02*
X5845935Y-23414493D01*
X5845935Y-23414493D02*
X5884031Y-23414493D01*
X5884031Y-23414493D02*
X5903078Y-23404969D01*
X5903078Y-23404969D02*
X5912602Y-23395446D01*
X5912602Y-23395446D02*
X5922126Y-23376398D01*
X6045935Y-23290684D02*
X6064983Y-23290684D01*
X6064983Y-23290684D02*
X6084031Y-23300208D01*
X6084031Y-23300208D02*
X6093555Y-23309731D01*
X6093555Y-23309731D02*
X6103078Y-23328779D01*
X6103078Y-23328779D02*
X6112602Y-23366874D01*
X6112602Y-23366874D02*
X6112602Y-23414493D01*
X6112602Y-23414493D02*
X6103078Y-23452588D01*
X6103078Y-23452588D02*
X6093555Y-23471636D01*
X6093555Y-23471636D02*
X6084031Y-23481160D01*
X6084031Y-23481160D02*
X6064983Y-23490684D01*
X6064983Y-23490684D02*
X6045935Y-23490684D01*
X6045935Y-23490684D02*
X6026888Y-23481160D01*
X6026888Y-23481160D02*
X6017364Y-23471636D01*
X6017364Y-23471636D02*
X6007840Y-23452588D01*
X6007840Y-23452588D02*
X5998316Y-23414493D01*
X5998316Y-23414493D02*
X5998316Y-23366874D01*
X5998316Y-23366874D02*
X6007840Y-23328779D01*
X6007840Y-23328779D02*
X6017364Y-23309731D01*
X6017364Y-23309731D02*
X6026888Y-23300208D01*
X6026888Y-23300208D02*
X6045935Y-23290684D01*
X6198316Y-23490684D02*
X6198316Y-23357350D01*
X6198316Y-23376398D02*
X6207840Y-23366874D01*
X6207840Y-23366874D02*
X6226888Y-23357350D01*
X6226888Y-23357350D02*
X6255459Y-23357350D01*
X6255459Y-23357350D02*
X6274507Y-23366874D01*
X6274507Y-23366874D02*
X6284031Y-23385922D01*
X6284031Y-23385922D02*
X6284031Y-23490684D01*
X6284031Y-23385922D02*
X6293555Y-23366874D01*
X6293555Y-23366874D02*
X6312602Y-23357350D01*
X6312602Y-23357350D02*
X6341174Y-23357350D01*
X6341174Y-23357350D02*
X6360221Y-23366874D01*
X6360221Y-23366874D02*
X6369745Y-23385922D01*
X6369745Y-23385922D02*
X6369745Y-23490684D01*
X6464983Y-23490684D02*
X6464983Y-23357350D01*
X6464983Y-23376398D02*
X6474507Y-23366874D01*
X6474507Y-23366874D02*
X6493555Y-23357350D01*
X6493555Y-23357350D02*
X6522126Y-23357350D01*
X6522126Y-23357350D02*
X6541174Y-23366874D01*
X6541174Y-23366874D02*
X6550697Y-23385922D01*
X6550697Y-23385922D02*
X6550697Y-23490684D01*
X6550697Y-23385922D02*
X6560221Y-23366874D01*
X6560221Y-23366874D02*
X6579269Y-23357350D01*
X6579269Y-23357350D02*
X6607840Y-23357350D01*
X6607840Y-23357350D02*
X6626888Y-23366874D01*
X6626888Y-23366874D02*
X6636412Y-23385922D01*
X6636412Y-23385922D02*
X6636412Y-23490684D01*
X7026888Y-23281160D02*
X6855459Y-23538303D01*
X7284031Y-23290684D02*
X7303079Y-23290684D01*
X7303079Y-23290684D02*
X7322126Y-23300208D01*
X7322126Y-23300208D02*
X7331650Y-23309731D01*
X7331650Y-23309731D02*
X7341174Y-23328779D01*
X7341174Y-23328779D02*
X7350698Y-23366874D01*
X7350698Y-23366874D02*
X7350698Y-23414493D01*
X7350698Y-23414493D02*
X7341174Y-23452588D01*
X7341174Y-23452588D02*
X7331650Y-23471636D01*
X7331650Y-23471636D02*
X7322126Y-23481160D01*
X7322126Y-23481160D02*
X7303079Y-23490684D01*
X7303079Y-23490684D02*
X7284031Y-23490684D01*
X7284031Y-23490684D02*
X7264983Y-23481160D01*
X7264983Y-23481160D02*
X7255459Y-23471636D01*
X7255459Y-23471636D02*
X7245936Y-23452588D01*
X7245936Y-23452588D02*
X7236412Y-23414493D01*
X7236412Y-23414493D02*
X7236412Y-23366874D01*
X7236412Y-23366874D02*
X7245936Y-23328779D01*
X7245936Y-23328779D02*
X7255459Y-23309731D01*
X7255459Y-23309731D02*
X7264983Y-23300208D01*
X7264983Y-23300208D02*
X7284031Y-23290684D01*
X7436412Y-23471636D02*
X7445936Y-23481160D01*
X7445936Y-23481160D02*
X7436412Y-23490684D01*
X7436412Y-23490684D02*
X7426888Y-23481160D01*
X7426888Y-23481160D02*
X7436412Y-23471636D01*
X7436412Y-23471636D02*
X7436412Y-23490684D01*
X7636412Y-23490684D02*
X7522126Y-23490684D01*
X7579269Y-23490684D02*
X7579269Y-23290684D01*
X7579269Y-23290684D02*
X7560221Y-23319255D01*
X7560221Y-23319255D02*
X7541174Y-23338303D01*
X7541174Y-23338303D02*
X7522126Y-23347827D01*
X7760221Y-23290684D02*
X7779269Y-23290684D01*
X7779269Y-23290684D02*
X7798317Y-23300208D01*
X7798317Y-23300208D02*
X7807840Y-23309731D01*
X7807840Y-23309731D02*
X7817364Y-23328779D01*
X7817364Y-23328779D02*
X7826888Y-23366874D01*
X7826888Y-23366874D02*
X7826888Y-23414493D01*
X7826888Y-23414493D02*
X7817364Y-23452588D01*
X7817364Y-23452588D02*
X7807840Y-23471636D01*
X7807840Y-23471636D02*
X7798317Y-23481160D01*
X7798317Y-23481160D02*
X7779269Y-23490684D01*
X7779269Y-23490684D02*
X7760221Y-23490684D01*
X7760221Y-23490684D02*
X7741174Y-23481160D01*
X7741174Y-23481160D02*
X7731650Y-23471636D01*
X7731650Y-23471636D02*
X7722126Y-23452588D01*
X7722126Y-23452588D02*
X7712602Y-23414493D01*
X7712602Y-23414493D02*
X7712602Y-23366874D01*
X7712602Y-23366874D02*
X7722126Y-23328779D01*
X7722126Y-23328779D02*
X7731650Y-23309731D01*
X7731650Y-23309731D02*
X7741174Y-23300208D01*
X7741174Y-23300208D02*
X7760221Y-23290684D01*
X7922126Y-23490684D02*
X7960221Y-23490684D01*
X7960221Y-23490684D02*
X7979269Y-23481160D01*
X7979269Y-23481160D02*
X7988793Y-23471636D01*
X7988793Y-23471636D02*
X8007840Y-23443065D01*
X8007840Y-23443065D02*
X8017364Y-23404969D01*
X8017364Y-23404969D02*
X8017364Y-23328779D01*
X8017364Y-23328779D02*
X8007840Y-23309731D01*
X8007840Y-23309731D02*
X7998317Y-23300208D01*
X7998317Y-23300208D02*
X7979269Y-23290684D01*
X7979269Y-23290684D02*
X7941174Y-23290684D01*
X7941174Y-23290684D02*
X7922126Y-23300208D01*
X7922126Y-23300208D02*
X7912602Y-23309731D01*
X7912602Y-23309731D02*
X7903079Y-23328779D01*
X7903079Y-23328779D02*
X7903079Y-23376398D01*
X7903079Y-23376398D02*
X7912602Y-23395446D01*
X7912602Y-23395446D02*
X7922126Y-23404969D01*
X7922126Y-23404969D02*
X7941174Y-23414493D01*
X7941174Y-23414493D02*
X7979269Y-23414493D01*
X7979269Y-23414493D02*
X7998317Y-23404969D01*
X7998317Y-23404969D02*
X8007840Y-23395446D01*
X8007840Y-23395446D02*
X8017364Y-23376398D01*
X8131650Y-23376398D02*
X8112602Y-23366874D01*
X8112602Y-23366874D02*
X8103079Y-23357350D01*
X8103079Y-23357350D02*
X8093555Y-23338303D01*
X8093555Y-23338303D02*
X8093555Y-23328779D01*
X8093555Y-23328779D02*
X8103079Y-23309731D01*
X8103079Y-23309731D02*
X8112602Y-23300208D01*
X8112602Y-23300208D02*
X8131650Y-23290684D01*
X8131650Y-23290684D02*
X8169745Y-23290684D01*
X8169745Y-23290684D02*
X8188793Y-23300208D01*
X8188793Y-23300208D02*
X8198317Y-23309731D01*
X8198317Y-23309731D02*
X8207840Y-23328779D01*
X8207840Y-23328779D02*
X8207840Y-23338303D01*
X8207840Y-23338303D02*
X8198317Y-23357350D01*
X8198317Y-23357350D02*
X8188793Y-23366874D01*
X8188793Y-23366874D02*
X8169745Y-23376398D01*
X8169745Y-23376398D02*
X8131650Y-23376398D01*
X8131650Y-23376398D02*
X8112602Y-23385922D01*
X8112602Y-23385922D02*
X8103079Y-23395446D01*
X8103079Y-23395446D02*
X8093555Y-23414493D01*
X8093555Y-23414493D02*
X8093555Y-23452588D01*
X8093555Y-23452588D02*
X8103079Y-23471636D01*
X8103079Y-23471636D02*
X8112602Y-23481160D01*
X8112602Y-23481160D02*
X8131650Y-23490684D01*
X8131650Y-23490684D02*
X8169745Y-23490684D01*
X8169745Y-23490684D02*
X8188793Y-23481160D01*
X8188793Y-23481160D02*
X8198317Y-23471636D01*
X8198317Y-23471636D02*
X8207840Y-23452588D01*
X8207840Y-23452588D02*
X8207840Y-23414493D01*
X8207840Y-23414493D02*
X8198317Y-23395446D01*
X8198317Y-23395446D02*
X8188793Y-23385922D01*
X8188793Y-23385922D02*
X8169745Y-23376398D01*
X8284031Y-23290684D02*
X8284031Y-23328779D01*
X8360221Y-23290684D02*
X8360221Y-23328779D01*
X8655460Y-23566874D02*
X8645936Y-23557350D01*
X8645936Y-23557350D02*
X8626888Y-23528779D01*
X8626888Y-23528779D02*
X8617364Y-23509731D01*
X8617364Y-23509731D02*
X8607841Y-23481160D01*
X8607841Y-23481160D02*
X8598317Y-23433541D01*
X8598317Y-23433541D02*
X8598317Y-23395446D01*
X8598317Y-23395446D02*
X8607841Y-23347827D01*
X8607841Y-23347827D02*
X8617364Y-23319255D01*
X8617364Y-23319255D02*
X8626888Y-23300208D01*
X8626888Y-23300208D02*
X8645936Y-23271636D01*
X8645936Y-23271636D02*
X8655460Y-23262112D01*
X8817364Y-23290684D02*
X8779269Y-23290684D01*
X8779269Y-23290684D02*
X8760222Y-23300208D01*
X8760222Y-23300208D02*
X8750698Y-23309731D01*
X8750698Y-23309731D02*
X8731650Y-23338303D01*
X8731650Y-23338303D02*
X8722126Y-23376398D01*
X8722126Y-23376398D02*
X8722126Y-23452588D01*
X8722126Y-23452588D02*
X8731650Y-23471636D01*
X8731650Y-23471636D02*
X8741174Y-23481160D01*
X8741174Y-23481160D02*
X8760222Y-23490684D01*
X8760222Y-23490684D02*
X8798317Y-23490684D01*
X8798317Y-23490684D02*
X8817364Y-23481160D01*
X8817364Y-23481160D02*
X8826888Y-23471636D01*
X8826888Y-23471636D02*
X8836412Y-23452588D01*
X8836412Y-23452588D02*
X8836412Y-23404969D01*
X8836412Y-23404969D02*
X8826888Y-23385922D01*
X8826888Y-23385922D02*
X8817364Y-23376398D01*
X8817364Y-23376398D02*
X8798317Y-23366874D01*
X8798317Y-23366874D02*
X8760222Y-23366874D01*
X8760222Y-23366874D02*
X8741174Y-23376398D01*
X8741174Y-23376398D02*
X8731650Y-23385922D01*
X8731650Y-23385922D02*
X8722126Y-23404969D01*
X9074507Y-23490684D02*
X9074507Y-23290684D01*
X9160222Y-23490684D02*
X9160222Y-23385922D01*
X9160222Y-23385922D02*
X9150698Y-23366874D01*
X9150698Y-23366874D02*
X9131650Y-23357350D01*
X9131650Y-23357350D02*
X9103079Y-23357350D01*
X9103079Y-23357350D02*
X9084031Y-23366874D01*
X9084031Y-23366874D02*
X9074507Y-23376398D01*
X9284031Y-23490684D02*
X9264984Y-23481160D01*
X9264984Y-23481160D02*
X9255460Y-23471636D01*
X9255460Y-23471636D02*
X9245936Y-23452588D01*
X9245936Y-23452588D02*
X9245936Y-23395446D01*
X9245936Y-23395446D02*
X9255460Y-23376398D01*
X9255460Y-23376398D02*
X9264984Y-23366874D01*
X9264984Y-23366874D02*
X9284031Y-23357350D01*
X9284031Y-23357350D02*
X9312603Y-23357350D01*
X9312603Y-23357350D02*
X9331650Y-23366874D01*
X9331650Y-23366874D02*
X9341174Y-23376398D01*
X9341174Y-23376398D02*
X9350698Y-23395446D01*
X9350698Y-23395446D02*
X9350698Y-23452588D01*
X9350698Y-23452588D02*
X9341174Y-23471636D01*
X9341174Y-23471636D02*
X9331650Y-23481160D01*
X9331650Y-23481160D02*
X9312603Y-23490684D01*
X9312603Y-23490684D02*
X9284031Y-23490684D01*
X9464984Y-23490684D02*
X9445936Y-23481160D01*
X9445936Y-23481160D02*
X9436412Y-23462112D01*
X9436412Y-23462112D02*
X9436412Y-23290684D01*
X9617365Y-23481160D02*
X9598317Y-23490684D01*
X9598317Y-23490684D02*
X9560222Y-23490684D01*
X9560222Y-23490684D02*
X9541174Y-23481160D01*
X9541174Y-23481160D02*
X9531650Y-23462112D01*
X9531650Y-23462112D02*
X9531650Y-23385922D01*
X9531650Y-23385922D02*
X9541174Y-23366874D01*
X9541174Y-23366874D02*
X9560222Y-23357350D01*
X9560222Y-23357350D02*
X9598317Y-23357350D01*
X9598317Y-23357350D02*
X9617365Y-23366874D01*
X9617365Y-23366874D02*
X9626888Y-23385922D01*
X9626888Y-23385922D02*
X9626888Y-23404969D01*
X9626888Y-23404969D02*
X9531650Y-23424017D01*
X9703079Y-23481160D02*
X9722126Y-23490684D01*
X9722126Y-23490684D02*
X9760222Y-23490684D01*
X9760222Y-23490684D02*
X9779269Y-23481160D01*
X9779269Y-23481160D02*
X9788793Y-23462112D01*
X9788793Y-23462112D02*
X9788793Y-23452588D01*
X9788793Y-23452588D02*
X9779269Y-23433541D01*
X9779269Y-23433541D02*
X9760222Y-23424017D01*
X9760222Y-23424017D02*
X9731650Y-23424017D01*
X9731650Y-23424017D02*
X9712603Y-23414493D01*
X9712603Y-23414493D02*
X9703079Y-23395446D01*
X9703079Y-23395446D02*
X9703079Y-23385922D01*
X9703079Y-23385922D02*
X9712603Y-23366874D01*
X9712603Y-23366874D02*
X9731650Y-23357350D01*
X9731650Y-23357350D02*
X9760222Y-23357350D01*
X9760222Y-23357350D02*
X9779269Y-23366874D01*
X9855460Y-23566874D02*
X9864984Y-23557350D01*
X9864984Y-23557350D02*
X9884031Y-23528779D01*
X9884031Y-23528779D02*
X9893555Y-23509731D01*
X9893555Y-23509731D02*
X9903079Y-23481160D01*
X9903079Y-23481160D02*
X9912603Y-23433541D01*
X9912603Y-23433541D02*
X9912603Y-23395446D01*
X9912603Y-23395446D02*
X9903079Y-23347827D01*
X9903079Y-23347827D02*
X9893555Y-23319255D01*
X9893555Y-23319255D02*
X9884031Y-23300208D01*
X9884031Y-23300208D02*
X9864984Y-23271636D01*
X9864984Y-23271636D02*
X9855460Y-23262112D01*
X5051108Y-23789911D02*
X5051108Y-23648489D01*
X4909685Y-23648489D01*
X4909685Y-23789911D01*
X5051108Y-23789911D01*
X5080397Y-23719200D02*
G75*
G02*
X4880397Y-23719200I-100000J0D01*
G01*
X4880397Y-23719200D02*
G75*
G02*
X5080397Y-23719200I100000J0D01*
G01*
X5322126Y-23610684D02*
X5445936Y-23610684D01*
X5445936Y-23610684D02*
X5379269Y-23686874D01*
X5379269Y-23686874D02*
X5407840Y-23686874D01*
X5407840Y-23686874D02*
X5426888Y-23696398D01*
X5426888Y-23696398D02*
X5436412Y-23705922D01*
X5436412Y-23705922D02*
X5445936Y-23724969D01*
X5445936Y-23724969D02*
X5445936Y-23772588D01*
X5445936Y-23772588D02*
X5436412Y-23791636D01*
X5436412Y-23791636D02*
X5426888Y-23801160D01*
X5426888Y-23801160D02*
X5407840Y-23810684D01*
X5407840Y-23810684D02*
X5350697Y-23810684D01*
X5350697Y-23810684D02*
X5331650Y-23801160D01*
X5331650Y-23801160D02*
X5322126Y-23791636D01*
X5531650Y-23791636D02*
X5541174Y-23801160D01*
X5541174Y-23801160D02*
X5531650Y-23810684D01*
X5531650Y-23810684D02*
X5522126Y-23801160D01*
X5522126Y-23801160D02*
X5531650Y-23791636D01*
X5531650Y-23791636D02*
X5531650Y-23810684D01*
X5664983Y-23610684D02*
X5684031Y-23610684D01*
X5684031Y-23610684D02*
X5703078Y-23620208D01*
X5703078Y-23620208D02*
X5712602Y-23629731D01*
X5712602Y-23629731D02*
X5722126Y-23648779D01*
X5722126Y-23648779D02*
X5731650Y-23686874D01*
X5731650Y-23686874D02*
X5731650Y-23734493D01*
X5731650Y-23734493D02*
X5722126Y-23772588D01*
X5722126Y-23772588D02*
X5712602Y-23791636D01*
X5712602Y-23791636D02*
X5703078Y-23801160D01*
X5703078Y-23801160D02*
X5684031Y-23810684D01*
X5684031Y-23810684D02*
X5664983Y-23810684D01*
X5664983Y-23810684D02*
X5645935Y-23801160D01*
X5645935Y-23801160D02*
X5636412Y-23791636D01*
X5636412Y-23791636D02*
X5626888Y-23772588D01*
X5626888Y-23772588D02*
X5617364Y-23734493D01*
X5617364Y-23734493D02*
X5617364Y-23686874D01*
X5617364Y-23686874D02*
X5626888Y-23648779D01*
X5626888Y-23648779D02*
X5636412Y-23629731D01*
X5636412Y-23629731D02*
X5645935Y-23620208D01*
X5645935Y-23620208D02*
X5664983Y-23610684D01*
X5855459Y-23610684D02*
X5874507Y-23610684D01*
X5874507Y-23610684D02*
X5893555Y-23620208D01*
X5893555Y-23620208D02*
X5903078Y-23629731D01*
X5903078Y-23629731D02*
X5912602Y-23648779D01*
X5912602Y-23648779D02*
X5922126Y-23686874D01*
X5922126Y-23686874D02*
X5922126Y-23734493D01*
X5922126Y-23734493D02*
X5912602Y-23772588D01*
X5912602Y-23772588D02*
X5903078Y-23791636D01*
X5903078Y-23791636D02*
X5893555Y-23801160D01*
X5893555Y-23801160D02*
X5874507Y-23810684D01*
X5874507Y-23810684D02*
X5855459Y-23810684D01*
X5855459Y-23810684D02*
X5836412Y-23801160D01*
X5836412Y-23801160D02*
X5826888Y-23791636D01*
X5826888Y-23791636D02*
X5817364Y-23772588D01*
X5817364Y-23772588D02*
X5807840Y-23734493D01*
X5807840Y-23734493D02*
X5807840Y-23686874D01*
X5807840Y-23686874D02*
X5817364Y-23648779D01*
X5817364Y-23648779D02*
X5826888Y-23629731D01*
X5826888Y-23629731D02*
X5836412Y-23620208D01*
X5836412Y-23620208D02*
X5855459Y-23610684D01*
X6045935Y-23610684D02*
X6064983Y-23610684D01*
X6064983Y-23610684D02*
X6084031Y-23620208D01*
X6084031Y-23620208D02*
X6093555Y-23629731D01*
X6093555Y-23629731D02*
X6103078Y-23648779D01*
X6103078Y-23648779D02*
X6112602Y-23686874D01*
X6112602Y-23686874D02*
X6112602Y-23734493D01*
X6112602Y-23734493D02*
X6103078Y-23772588D01*
X6103078Y-23772588D02*
X6093555Y-23791636D01*
X6093555Y-23791636D02*
X6084031Y-23801160D01*
X6084031Y-23801160D02*
X6064983Y-23810684D01*
X6064983Y-23810684D02*
X6045935Y-23810684D01*
X6045935Y-23810684D02*
X6026888Y-23801160D01*
X6026888Y-23801160D02*
X6017364Y-23791636D01*
X6017364Y-23791636D02*
X6007840Y-23772588D01*
X6007840Y-23772588D02*
X5998316Y-23734493D01*
X5998316Y-23734493D02*
X5998316Y-23686874D01*
X5998316Y-23686874D02*
X6007840Y-23648779D01*
X6007840Y-23648779D02*
X6017364Y-23629731D01*
X6017364Y-23629731D02*
X6026888Y-23620208D01*
X6026888Y-23620208D02*
X6045935Y-23610684D01*
X6198316Y-23810684D02*
X6198316Y-23677350D01*
X6198316Y-23696398D02*
X6207840Y-23686874D01*
X6207840Y-23686874D02*
X6226888Y-23677350D01*
X6226888Y-23677350D02*
X6255459Y-23677350D01*
X6255459Y-23677350D02*
X6274507Y-23686874D01*
X6274507Y-23686874D02*
X6284031Y-23705922D01*
X6284031Y-23705922D02*
X6284031Y-23810684D01*
X6284031Y-23705922D02*
X6293555Y-23686874D01*
X6293555Y-23686874D02*
X6312602Y-23677350D01*
X6312602Y-23677350D02*
X6341174Y-23677350D01*
X6341174Y-23677350D02*
X6360221Y-23686874D01*
X6360221Y-23686874D02*
X6369745Y-23705922D01*
X6369745Y-23705922D02*
X6369745Y-23810684D01*
X6464983Y-23810684D02*
X6464983Y-23677350D01*
X6464983Y-23696398D02*
X6474507Y-23686874D01*
X6474507Y-23686874D02*
X6493555Y-23677350D01*
X6493555Y-23677350D02*
X6522126Y-23677350D01*
X6522126Y-23677350D02*
X6541174Y-23686874D01*
X6541174Y-23686874D02*
X6550697Y-23705922D01*
X6550697Y-23705922D02*
X6550697Y-23810684D01*
X6550697Y-23705922D02*
X6560221Y-23686874D01*
X6560221Y-23686874D02*
X6579269Y-23677350D01*
X6579269Y-23677350D02*
X6607840Y-23677350D01*
X6607840Y-23677350D02*
X6626888Y-23686874D01*
X6626888Y-23686874D02*
X6636412Y-23705922D01*
X6636412Y-23705922D02*
X6636412Y-23810684D01*
X7026888Y-23601160D02*
X6855459Y-23858303D01*
X7284031Y-23610684D02*
X7303079Y-23610684D01*
X7303079Y-23610684D02*
X7322126Y-23620208D01*
X7322126Y-23620208D02*
X7331650Y-23629731D01*
X7331650Y-23629731D02*
X7341174Y-23648779D01*
X7341174Y-23648779D02*
X7350698Y-23686874D01*
X7350698Y-23686874D02*
X7350698Y-23734493D01*
X7350698Y-23734493D02*
X7341174Y-23772588D01*
X7341174Y-23772588D02*
X7331650Y-23791636D01*
X7331650Y-23791636D02*
X7322126Y-23801160D01*
X7322126Y-23801160D02*
X7303079Y-23810684D01*
X7303079Y-23810684D02*
X7284031Y-23810684D01*
X7284031Y-23810684D02*
X7264983Y-23801160D01*
X7264983Y-23801160D02*
X7255459Y-23791636D01*
X7255459Y-23791636D02*
X7245936Y-23772588D01*
X7245936Y-23772588D02*
X7236412Y-23734493D01*
X7236412Y-23734493D02*
X7236412Y-23686874D01*
X7236412Y-23686874D02*
X7245936Y-23648779D01*
X7245936Y-23648779D02*
X7255459Y-23629731D01*
X7255459Y-23629731D02*
X7264983Y-23620208D01*
X7264983Y-23620208D02*
X7284031Y-23610684D01*
X7436412Y-23791636D02*
X7445936Y-23801160D01*
X7445936Y-23801160D02*
X7436412Y-23810684D01*
X7436412Y-23810684D02*
X7426888Y-23801160D01*
X7426888Y-23801160D02*
X7436412Y-23791636D01*
X7436412Y-23791636D02*
X7436412Y-23810684D01*
X7636412Y-23810684D02*
X7522126Y-23810684D01*
X7579269Y-23810684D02*
X7579269Y-23610684D01*
X7579269Y-23610684D02*
X7560221Y-23639255D01*
X7560221Y-23639255D02*
X7541174Y-23658303D01*
X7541174Y-23658303D02*
X7522126Y-23667827D01*
X7826888Y-23810684D02*
X7712602Y-23810684D01*
X7769745Y-23810684D02*
X7769745Y-23610684D01*
X7769745Y-23610684D02*
X7750698Y-23639255D01*
X7750698Y-23639255D02*
X7731650Y-23658303D01*
X7731650Y-23658303D02*
X7712602Y-23667827D01*
X7941174Y-23696398D02*
X7922126Y-23686874D01*
X7922126Y-23686874D02*
X7912602Y-23677350D01*
X7912602Y-23677350D02*
X7903079Y-23658303D01*
X7903079Y-23658303D02*
X7903079Y-23648779D01*
X7903079Y-23648779D02*
X7912602Y-23629731D01*
X7912602Y-23629731D02*
X7922126Y-23620208D01*
X7922126Y-23620208D02*
X7941174Y-23610684D01*
X7941174Y-23610684D02*
X7979269Y-23610684D01*
X7979269Y-23610684D02*
X7998317Y-23620208D01*
X7998317Y-23620208D02*
X8007840Y-23629731D01*
X8007840Y-23629731D02*
X8017364Y-23648779D01*
X8017364Y-23648779D02*
X8017364Y-23658303D01*
X8017364Y-23658303D02*
X8007840Y-23677350D01*
X8007840Y-23677350D02*
X7998317Y-23686874D01*
X7998317Y-23686874D02*
X7979269Y-23696398D01*
X7979269Y-23696398D02*
X7941174Y-23696398D01*
X7941174Y-23696398D02*
X7922126Y-23705922D01*
X7922126Y-23705922D02*
X7912602Y-23715446D01*
X7912602Y-23715446D02*
X7903079Y-23734493D01*
X7903079Y-23734493D02*
X7903079Y-23772588D01*
X7903079Y-23772588D02*
X7912602Y-23791636D01*
X7912602Y-23791636D02*
X7922126Y-23801160D01*
X7922126Y-23801160D02*
X7941174Y-23810684D01*
X7941174Y-23810684D02*
X7979269Y-23810684D01*
X7979269Y-23810684D02*
X7998317Y-23801160D01*
X7998317Y-23801160D02*
X8007840Y-23791636D01*
X8007840Y-23791636D02*
X8017364Y-23772588D01*
X8017364Y-23772588D02*
X8017364Y-23734493D01*
X8017364Y-23734493D02*
X8007840Y-23715446D01*
X8007840Y-23715446D02*
X7998317Y-23705922D01*
X7998317Y-23705922D02*
X7979269Y-23696398D01*
X8207840Y-23810684D02*
X8093555Y-23810684D01*
X8150698Y-23810684D02*
X8150698Y-23610684D01*
X8150698Y-23610684D02*
X8131650Y-23639255D01*
X8131650Y-23639255D02*
X8112602Y-23658303D01*
X8112602Y-23658303D02*
X8093555Y-23667827D01*
X8284031Y-23610684D02*
X8284031Y-23648779D01*
X8360221Y-23610684D02*
X8360221Y-23648779D01*
X8655460Y-23886874D02*
X8645936Y-23877350D01*
X8645936Y-23877350D02*
X8626888Y-23848779D01*
X8626888Y-23848779D02*
X8617364Y-23829731D01*
X8617364Y-23829731D02*
X8607841Y-23801160D01*
X8607841Y-23801160D02*
X8598317Y-23753541D01*
X8598317Y-23753541D02*
X8598317Y-23715446D01*
X8598317Y-23715446D02*
X8607841Y-23667827D01*
X8607841Y-23667827D02*
X8617364Y-23639255D01*
X8617364Y-23639255D02*
X8626888Y-23620208D01*
X8626888Y-23620208D02*
X8645936Y-23591636D01*
X8645936Y-23591636D02*
X8655460Y-23582112D01*
X8836412Y-23810684D02*
X8722126Y-23810684D01*
X8779269Y-23810684D02*
X8779269Y-23610684D01*
X8779269Y-23610684D02*
X8760222Y-23639255D01*
X8760222Y-23639255D02*
X8741174Y-23658303D01*
X8741174Y-23658303D02*
X8722126Y-23667827D01*
X9074507Y-23810684D02*
X9074507Y-23610684D01*
X9160222Y-23810684D02*
X9160222Y-23705922D01*
X9160222Y-23705922D02*
X9150698Y-23686874D01*
X9150698Y-23686874D02*
X9131650Y-23677350D01*
X9131650Y-23677350D02*
X9103079Y-23677350D01*
X9103079Y-23677350D02*
X9084031Y-23686874D01*
X9084031Y-23686874D02*
X9074507Y-23696398D01*
X9284031Y-23810684D02*
X9264984Y-23801160D01*
X9264984Y-23801160D02*
X9255460Y-23791636D01*
X9255460Y-23791636D02*
X9245936Y-23772588D01*
X9245936Y-23772588D02*
X9245936Y-23715446D01*
X9245936Y-23715446D02*
X9255460Y-23696398D01*
X9255460Y-23696398D02*
X9264984Y-23686874D01*
X9264984Y-23686874D02*
X9284031Y-23677350D01*
X9284031Y-23677350D02*
X9312603Y-23677350D01*
X9312603Y-23677350D02*
X9331650Y-23686874D01*
X9331650Y-23686874D02*
X9341174Y-23696398D01*
X9341174Y-23696398D02*
X9350698Y-23715446D01*
X9350698Y-23715446D02*
X9350698Y-23772588D01*
X9350698Y-23772588D02*
X9341174Y-23791636D01*
X9341174Y-23791636D02*
X9331650Y-23801160D01*
X9331650Y-23801160D02*
X9312603Y-23810684D01*
X9312603Y-23810684D02*
X9284031Y-23810684D01*
X9464984Y-23810684D02*
X9445936Y-23801160D01*
X9445936Y-23801160D02*
X9436412Y-23782112D01*
X9436412Y-23782112D02*
X9436412Y-23610684D01*
X9617365Y-23801160D02*
X9598317Y-23810684D01*
X9598317Y-23810684D02*
X9560222Y-23810684D01*
X9560222Y-23810684D02*
X9541174Y-23801160D01*
X9541174Y-23801160D02*
X9531650Y-23782112D01*
X9531650Y-23782112D02*
X9531650Y-23705922D01*
X9531650Y-23705922D02*
X9541174Y-23686874D01*
X9541174Y-23686874D02*
X9560222Y-23677350D01*
X9560222Y-23677350D02*
X9598317Y-23677350D01*
X9598317Y-23677350D02*
X9617365Y-23686874D01*
X9617365Y-23686874D02*
X9626888Y-23705922D01*
X9626888Y-23705922D02*
X9626888Y-23724969D01*
X9626888Y-23724969D02*
X9531650Y-23744017D01*
X9693555Y-23886874D02*
X9703079Y-23877350D01*
X9703079Y-23877350D02*
X9722126Y-23848779D01*
X9722126Y-23848779D02*
X9731650Y-23829731D01*
X9731650Y-23829731D02*
X9741174Y-23801160D01*
X9741174Y-23801160D02*
X9750698Y-23753541D01*
X9750698Y-23753541D02*
X9750698Y-23715446D01*
X9750698Y-23715446D02*
X9741174Y-23667827D01*
X9741174Y-23667827D02*
X9731650Y-23639255D01*
X9731650Y-23639255D02*
X9722126Y-23620208D01*
X9722126Y-23620208D02*
X9703079Y-23591636D01*
X9703079Y-23591636D02*
X9693555Y-23582112D01*
M02*
