%TF.GenerationSoftware,KiCad,Pcbnew,8.0.2*%
%TF.CreationDate,2024-05-09T14:15:38-06:00*%
%TF.ProjectId,GR-LRR-POWER,47522d4c-5252-42d5-904f-5745522e6b69,rev?*%
%TF.SameCoordinates,Original*%
%TF.FileFunction,Soldermask,Bot*%
%TF.FilePolarity,Negative*%
%FSLAX46Y46*%
G04 Gerber Fmt 4.6, Leading zero omitted, Abs format (unit mm)*
G04 Created by KiCad (PCBNEW 8.0.2) date 2024-05-09 14:15:38*
%MOMM*%
%LPD*%
G01*
G04 APERTURE LIST*
%ADD10C,0.800000*%
%ADD11C,6.000000*%
%ADD12C,1.803400*%
%ADD13C,2.300000*%
%ADD14C,2.100000*%
%ADD15R,2.640000X2.640000*%
%ADD16C,2.640000*%
%ADD17C,4.185000*%
%ADD18C,2.355000*%
%ADD19C,3.195000*%
%ADD20C,1.371600*%
G04 APERTURE END LIST*
D10*
%TO.C,H2*%
X175250000Y-72150000D03*
X175909010Y-70559010D03*
X175909010Y-73740990D03*
X177500000Y-69900000D03*
D11*
X177500000Y-72150000D03*
D10*
X177500000Y-74400000D03*
X179090990Y-70559010D03*
X179090990Y-73740990D03*
X179750000Y-72150000D03*
%TD*%
D12*
%TO.C,J3*%
X91750000Y-108500000D03*
X91750000Y-113500000D03*
%TD*%
D13*
%TO.C,U5*%
X134600000Y-119283645D03*
X157200000Y-119283645D03*
%TD*%
D14*
%TO.C,PS3*%
X174195000Y-189040000D03*
X174195000Y-183960000D03*
X194515000Y-196660000D03*
X194515000Y-186500000D03*
X194515000Y-176340000D03*
X174195000Y-176340000D03*
%TD*%
D15*
%TO.C,J2*%
X224985000Y-85520000D03*
D16*
X220540000Y-85520000D03*
X215080000Y-85520000D03*
X210635000Y-85520000D03*
X210635000Y-79170000D03*
X215080000Y-79170000D03*
X220540000Y-79170000D03*
X224985000Y-79170000D03*
D17*
X217810000Y-73070000D03*
X231400000Y-84500000D03*
X204220000Y-84500000D03*
%TD*%
D18*
%TO.C,PS1*%
X175180000Y-127280000D03*
X175180000Y-134900000D03*
X175180000Y-142520000D03*
D19*
X203120000Y-142520000D03*
D18*
X203120000Y-138710000D03*
X203120000Y-134900000D03*
X203120000Y-131090000D03*
D19*
X203120000Y-127280000D03*
%TD*%
D18*
%TO.C,PS2*%
X173180000Y-152680000D03*
X173180000Y-160300000D03*
X173180000Y-167920000D03*
D19*
X201120000Y-167920000D03*
D18*
X201120000Y-164110000D03*
X201120000Y-160300000D03*
X201120000Y-156490000D03*
D19*
X201120000Y-152680000D03*
%TD*%
D13*
%TO.C,U6*%
X134600000Y-143200000D03*
X157200000Y-143200000D03*
%TD*%
D15*
%TO.C,J1*%
X104900000Y-85500000D03*
D16*
X100455000Y-85500000D03*
X94995000Y-85500000D03*
X90550000Y-85500000D03*
X90550000Y-79150000D03*
X94995000Y-79150000D03*
X100455000Y-79150000D03*
X104900000Y-79150000D03*
D17*
X97725000Y-73050000D03*
X111315000Y-84480000D03*
X84135000Y-84480000D03*
%TD*%
D20*
%TO.C,C1*%
X112583249Y-112000000D03*
X116083250Y-112000000D03*
%TD*%
D13*
%TO.C,U7*%
X134600000Y-167047555D03*
X157200000Y-167047555D03*
%TD*%
M02*
