%TF.GenerationSoftware,KiCad,Pcbnew,8.0.2*%
%TF.CreationDate,2024-05-12T20:09:37-06:00*%
%TF.ProjectId,GR-LRR-POWER,47522d4c-5252-42d5-904f-5745522e6b69,rev?*%
%TF.SameCoordinates,Original*%
%TF.FileFunction,Drillmap*%
%TF.FilePolarity,Positive*%
%FSLAX45Y45*%
G04 Gerber Fmt 4.5, Leading zero omitted, Abs format (unit mm)*
G04 Created by KiCad (PCBNEW 8.0.2) date 2024-05-12 20:09:37*
%MOMM*%
%LPD*%
G01*
G04 APERTURE LIST*
%ADD10C,0.250000*%
%ADD11C,0.200000*%
G04 APERTURE END LIST*
D10*
X7637498Y-15342925D02*
G75*
G02*
X7294598Y-15342925I-171450J0D01*
G01*
X7294598Y-15342925D02*
G75*
G02*
X7637498Y-15342925I171450J0D01*
G01*
X15017033Y-20076964D02*
G75*
G02*
X16539363Y-20076964I761165J-8141D01*
G01*
X5267222Y-9399954D02*
X5267222Y-10065416D01*
X25523700Y-7580685D02*
X25523700Y-6691685D01*
X20938217Y-6502933D02*
X16728104Y-6502933D01*
X15017033Y-20076964D02*
G75*
G02*
X14828293Y-20263694I-188734J2014D01*
G01*
X6221448Y-20263697D02*
G75*
G02*
X6032693Y-20074945I2J188757D01*
G01*
X6032697Y-19185945D02*
X6032697Y-20074945D01*
X5267222Y-13050584D02*
X5267222Y-13716046D01*
X26463500Y-10065416D02*
X26289175Y-10065416D01*
X6221448Y-20263697D02*
X9952717Y-20263697D01*
X5267222Y-13716046D02*
X5092897Y-13716046D01*
X25523700Y-20074945D02*
X25523700Y-19185945D01*
X10618180Y-20089371D02*
X10618180Y-20263697D01*
X16539363Y-6689666D02*
G75*
G02*
X16728104Y-6502932I188747J-2024D01*
G01*
X5279630Y-18424780D02*
G75*
G02*
X6032696Y-19185945I-8137J-761160D01*
G01*
X26289175Y-13716046D02*
X26289175Y-13050584D01*
X21603680Y-20263697D02*
X25334948Y-20263697D01*
X5267222Y-17366676D02*
X5092897Y-17366676D01*
X5092897Y-8530591D02*
X5092897Y-9399954D01*
X25334948Y-6502933D02*
G75*
G02*
X25523697Y-6691685I2J-188747D01*
G01*
X26289175Y-10065416D02*
X26289175Y-9399954D01*
X7637498Y-11423705D02*
G75*
G02*
X7294598Y-11423705I-171450J0D01*
G01*
X7294598Y-11423705D02*
G75*
G02*
X7637498Y-11423705I171450J0D01*
G01*
X25334948Y-6502933D02*
X21603680Y-6502933D01*
X25049198Y-7593385D02*
G75*
G02*
X24706298Y-7593385I-171450J0D01*
G01*
X24706298Y-7593385D02*
G75*
G02*
X25049198Y-7593385I171450J0D01*
G01*
X26463500Y-18236039D02*
G75*
G02*
X26276767Y-18424779I-188760J9D01*
G01*
X26289175Y-9399954D02*
X26463500Y-9399954D01*
X16728104Y-20263697D02*
X20938217Y-20263697D01*
X26463500Y-13716046D02*
X26289175Y-13716046D01*
X5092897Y-8530591D02*
G75*
G02*
X5279630Y-8341848I188753J1D01*
G01*
X24261798Y-15342925D02*
G75*
G02*
X23918898Y-15342925I-171450J0D01*
G01*
X23918898Y-15342925D02*
G75*
G02*
X24261798Y-15342925I171450J0D01*
G01*
X21603680Y-6677259D02*
X20938217Y-6677259D01*
X10618180Y-20263697D02*
X14828293Y-20263697D01*
X9952717Y-6677259D02*
X9952717Y-6502933D01*
X14828293Y-6502933D02*
G75*
G02*
X15017036Y-6689666I-13J-188767D01*
G01*
X21603680Y-6502933D02*
X21603680Y-6677259D01*
X6850098Y-7593385D02*
G75*
G02*
X6507198Y-7593385I-171450J0D01*
G01*
X6507198Y-7593385D02*
G75*
G02*
X6850098Y-7593385I171450J0D01*
G01*
X26463500Y-16701214D02*
X26463500Y-13716046D01*
X20938217Y-20089371D02*
X21603680Y-20089371D01*
X5267222Y-16701214D02*
X5267222Y-17366676D01*
X16728104Y-20263697D02*
G75*
G02*
X16539364Y-20076964I-4J188747D01*
G01*
X26463500Y-18236039D02*
X26463500Y-17366676D01*
X5092897Y-13050584D02*
X5267222Y-13050584D01*
X14828293Y-6502933D02*
X10618180Y-6502933D01*
X5279630Y-18424780D02*
G75*
G02*
X5092899Y-18236039I2020J188740D01*
G01*
X9952717Y-20263697D02*
X9952717Y-20089371D01*
X9952717Y-20089371D02*
X10618180Y-20089371D01*
X20938217Y-6677259D02*
X20938217Y-6502933D01*
X6032697Y-6691685D02*
X6032697Y-7580685D01*
X5267222Y-10065416D02*
X5092897Y-10065416D01*
X26276767Y-8341850D02*
G75*
G02*
X25523696Y-7580685I8143J761170D01*
G01*
X25523700Y-19185945D02*
G75*
G02*
X26276767Y-18424784I761210J-5D01*
G01*
X25049198Y-19173245D02*
G75*
G02*
X24706298Y-19173245I-171450J0D01*
G01*
X24706298Y-19173245D02*
G75*
G02*
X25049198Y-19173245I171450J0D01*
G01*
X16539363Y-6689666D02*
G75*
G02*
X15017033Y-6689666I-761165J8141D01*
G01*
X10618180Y-6502933D02*
X10618180Y-6677259D01*
X9952717Y-6502933D02*
X6221448Y-6502933D01*
X26463500Y-9399954D02*
X26463500Y-8530591D01*
X5092897Y-13716046D02*
X5092897Y-16701214D01*
X26276767Y-8341850D02*
G75*
G02*
X26463501Y-8530591I-2017J-188740D01*
G01*
X6850098Y-19173245D02*
G75*
G02*
X6507198Y-19173245I-171450J0D01*
G01*
X6507198Y-19173245D02*
G75*
G02*
X6850098Y-19173245I171450J0D01*
G01*
X26289175Y-13050584D02*
X26463500Y-13050584D01*
X5092897Y-9399954D02*
X5267222Y-9399954D01*
X20938217Y-20263697D02*
X20938217Y-20089371D01*
X26289175Y-16701214D02*
X26463500Y-16701214D01*
X26463500Y-17366676D02*
X26289175Y-17366676D01*
X5092897Y-17366676D02*
X5092897Y-18236039D01*
X26463500Y-13050584D02*
X26463500Y-10065416D01*
X6032697Y-6691685D02*
G75*
G02*
X6221448Y-6502937I188753J-5D01*
G01*
X21603680Y-20089371D02*
X21603680Y-20263697D01*
X5092897Y-10065416D02*
X5092897Y-13050584D01*
X24261798Y-11423705D02*
G75*
G02*
X23918898Y-11423705I-171450J0D01*
G01*
X23918898Y-11423705D02*
G75*
G02*
X24261798Y-11423705I171450J0D01*
G01*
X25523700Y-20074945D02*
G75*
G02*
X25334948Y-20263700I-188750J-5D01*
G01*
X6032697Y-7580685D02*
G75*
G02*
X5279630Y-8341850I-761210J1D01*
G01*
X5092897Y-16701214D02*
X5267222Y-16701214D01*
X10618180Y-6677259D02*
X9952717Y-6677259D01*
X26289175Y-17366676D02*
X26289175Y-16701214D01*
D11*
X5341174Y-20587684D02*
X5341174Y-20387684D01*
X5341174Y-20387684D02*
X5388793Y-20387684D01*
X5388793Y-20387684D02*
X5417364Y-20397208D01*
X5417364Y-20397208D02*
X5436412Y-20416255D01*
X5436412Y-20416255D02*
X5445936Y-20435303D01*
X5445936Y-20435303D02*
X5455459Y-20473398D01*
X5455459Y-20473398D02*
X5455459Y-20501970D01*
X5455459Y-20501970D02*
X5445936Y-20540065D01*
X5445936Y-20540065D02*
X5436412Y-20559112D01*
X5436412Y-20559112D02*
X5417364Y-20578160D01*
X5417364Y-20578160D02*
X5388793Y-20587684D01*
X5388793Y-20587684D02*
X5341174Y-20587684D01*
X5541174Y-20587684D02*
X5541174Y-20454350D01*
X5541174Y-20492446D02*
X5550697Y-20473398D01*
X5550697Y-20473398D02*
X5560221Y-20463874D01*
X5560221Y-20463874D02*
X5579269Y-20454350D01*
X5579269Y-20454350D02*
X5598316Y-20454350D01*
X5664983Y-20587684D02*
X5664983Y-20454350D01*
X5664983Y-20387684D02*
X5655459Y-20397208D01*
X5655459Y-20397208D02*
X5664983Y-20406731D01*
X5664983Y-20406731D02*
X5674507Y-20397208D01*
X5674507Y-20397208D02*
X5664983Y-20387684D01*
X5664983Y-20387684D02*
X5664983Y-20406731D01*
X5788793Y-20587684D02*
X5769745Y-20578160D01*
X5769745Y-20578160D02*
X5760221Y-20559112D01*
X5760221Y-20559112D02*
X5760221Y-20387684D01*
X5893554Y-20587684D02*
X5874507Y-20578160D01*
X5874507Y-20578160D02*
X5864983Y-20559112D01*
X5864983Y-20559112D02*
X5864983Y-20387684D01*
X6122126Y-20587684D02*
X6122126Y-20387684D01*
X6122126Y-20387684D02*
X6188793Y-20530541D01*
X6188793Y-20530541D02*
X6255459Y-20387684D01*
X6255459Y-20387684D02*
X6255459Y-20587684D01*
X6436412Y-20587684D02*
X6436412Y-20482922D01*
X6436412Y-20482922D02*
X6426888Y-20463874D01*
X6426888Y-20463874D02*
X6407840Y-20454350D01*
X6407840Y-20454350D02*
X6369745Y-20454350D01*
X6369745Y-20454350D02*
X6350697Y-20463874D01*
X6436412Y-20578160D02*
X6417364Y-20587684D01*
X6417364Y-20587684D02*
X6369745Y-20587684D01*
X6369745Y-20587684D02*
X6350697Y-20578160D01*
X6350697Y-20578160D02*
X6341174Y-20559112D01*
X6341174Y-20559112D02*
X6341174Y-20540065D01*
X6341174Y-20540065D02*
X6350697Y-20521017D01*
X6350697Y-20521017D02*
X6369745Y-20511493D01*
X6369745Y-20511493D02*
X6417364Y-20511493D01*
X6417364Y-20511493D02*
X6436412Y-20501970D01*
X6531650Y-20454350D02*
X6531650Y-20654350D01*
X6531650Y-20463874D02*
X6550697Y-20454350D01*
X6550697Y-20454350D02*
X6588793Y-20454350D01*
X6588793Y-20454350D02*
X6607840Y-20463874D01*
X6607840Y-20463874D02*
X6617364Y-20473398D01*
X6617364Y-20473398D02*
X6626888Y-20492446D01*
X6626888Y-20492446D02*
X6626888Y-20549589D01*
X6626888Y-20549589D02*
X6617364Y-20568636D01*
X6617364Y-20568636D02*
X6607840Y-20578160D01*
X6607840Y-20578160D02*
X6588793Y-20587684D01*
X6588793Y-20587684D02*
X6550697Y-20587684D01*
X6550697Y-20587684D02*
X6531650Y-20578160D01*
X6712602Y-20568636D02*
X6722126Y-20578160D01*
X6722126Y-20578160D02*
X6712602Y-20587684D01*
X6712602Y-20587684D02*
X6703078Y-20578160D01*
X6703078Y-20578160D02*
X6712602Y-20568636D01*
X6712602Y-20568636D02*
X6712602Y-20587684D01*
X6712602Y-20463874D02*
X6722126Y-20473398D01*
X6722126Y-20473398D02*
X6712602Y-20482922D01*
X6712602Y-20482922D02*
X6703078Y-20473398D01*
X6703078Y-20473398D02*
X6712602Y-20463874D01*
X6712602Y-20463874D02*
X6712602Y-20482922D01*
M02*
