%TF.GenerationSoftware,KiCad,Pcbnew,8.0.2*%
%TF.CreationDate,2024-05-12T20:09:40-06:00*%
%TF.ProjectId,GR-LRR-POWER,47522d4c-5252-42d5-904f-5745522e6b69,rev?*%
%TF.SameCoordinates,Original*%
%TF.FileFunction,Legend,Top*%
%TF.FilePolarity,Positive*%
%FSLAX46Y46*%
G04 Gerber Fmt 4.6, Leading zero omitted, Abs format (unit mm)*
G04 Created by KiCad (PCBNEW 8.0.2) date 2024-05-12 20:09:40*
%MOMM*%
%LPD*%
G01*
G04 APERTURE LIST*
%ADD10C,0.200000*%
%ADD11C,0.300000*%
%ADD12C,0.150000*%
%ADD13C,0.254000*%
%ADD14C,0.152400*%
%ADD15C,0.120000*%
%ADD16C,0.100000*%
%ADD17C,0.127000*%
%ADD18C,0.508000*%
G04 APERTURE END LIST*
D10*
X137000000Y-90000000D02*
X137000000Y-172000000D01*
X69815584Y-78930000D02*
G75*
G02*
X63654416Y-78930000I-3080584J0D01*
G01*
X63654416Y-78930000D02*
G75*
G02*
X69815584Y-78930000I3080584J0D01*
G01*
X251835000Y-75980000D02*
G75*
G02*
X245673832Y-75980000I-3080584J0D01*
G01*
X245673832Y-75980000D02*
G75*
G02*
X251835000Y-75980000I3080584J0D01*
G01*
D11*
X128817257Y-143259774D02*
X128817257Y-144688346D01*
X128817257Y-144688346D02*
X130245828Y-144831203D01*
X130245828Y-144831203D02*
X130102971Y-144688346D01*
X130102971Y-144688346D02*
X129960114Y-144402632D01*
X129960114Y-144402632D02*
X129960114Y-143688346D01*
X129960114Y-143688346D02*
X130102971Y-143402632D01*
X130102971Y-143402632D02*
X130245828Y-143259774D01*
X130245828Y-143259774D02*
X130531542Y-143116917D01*
X130531542Y-143116917D02*
X131245828Y-143116917D01*
X131245828Y-143116917D02*
X131531542Y-143259774D01*
X131531542Y-143259774D02*
X131674400Y-143402632D01*
X131674400Y-143402632D02*
X131817257Y-143688346D01*
X131817257Y-143688346D02*
X131817257Y-144402632D01*
X131817257Y-144402632D02*
X131674400Y-144688346D01*
X131674400Y-144688346D02*
X131531542Y-144831203D01*
X128817257Y-142259774D02*
X131817257Y-141259774D01*
X131817257Y-141259774D02*
X128817257Y-140259774D01*
X129002971Y-122431203D02*
X128860114Y-122288346D01*
X128860114Y-122288346D02*
X128717257Y-122002632D01*
X128717257Y-122002632D02*
X128717257Y-121288346D01*
X128717257Y-121288346D02*
X128860114Y-121002632D01*
X128860114Y-121002632D02*
X129002971Y-120859774D01*
X129002971Y-120859774D02*
X129288685Y-120716917D01*
X129288685Y-120716917D02*
X129574400Y-120716917D01*
X129574400Y-120716917D02*
X130002971Y-120859774D01*
X130002971Y-120859774D02*
X131717257Y-122574060D01*
X131717257Y-122574060D02*
X131717257Y-120716917D01*
X129717257Y-118145489D02*
X131717257Y-118145489D01*
X128574400Y-118859774D02*
X130717257Y-119574060D01*
X130717257Y-119574060D02*
X130717257Y-117716917D01*
X128717257Y-117002631D02*
X131717257Y-116002631D01*
X131717257Y-116002631D02*
X128717257Y-115002631D01*
X211368796Y-136702971D02*
X211511653Y-136560114D01*
X211511653Y-136560114D02*
X211797368Y-136417257D01*
X211797368Y-136417257D02*
X212511653Y-136417257D01*
X212511653Y-136417257D02*
X212797368Y-136560114D01*
X212797368Y-136560114D02*
X212940225Y-136702971D01*
X212940225Y-136702971D02*
X213083082Y-136988685D01*
X213083082Y-136988685D02*
X213083082Y-137274400D01*
X213083082Y-137274400D02*
X212940225Y-137702971D01*
X212940225Y-137702971D02*
X211225939Y-139417257D01*
X211225939Y-139417257D02*
X213083082Y-139417257D01*
X215654511Y-137417257D02*
X215654511Y-139417257D01*
X214940225Y-136274400D02*
X214225939Y-138417257D01*
X214225939Y-138417257D02*
X216083082Y-138417257D01*
X216797368Y-136417257D02*
X217797368Y-139417257D01*
X217797368Y-139417257D02*
X218797368Y-136417257D01*
X128817257Y-171474060D02*
X128817257Y-169616917D01*
X128817257Y-169616917D02*
X129960114Y-170616917D01*
X129960114Y-170616917D02*
X129960114Y-170188346D01*
X129960114Y-170188346D02*
X130102971Y-169902632D01*
X130102971Y-169902632D02*
X130245828Y-169759774D01*
X130245828Y-169759774D02*
X130531542Y-169616917D01*
X130531542Y-169616917D02*
X131245828Y-169616917D01*
X131245828Y-169616917D02*
X131531542Y-169759774D01*
X131531542Y-169759774D02*
X131674400Y-169902632D01*
X131674400Y-169902632D02*
X131817257Y-170188346D01*
X131817257Y-170188346D02*
X131817257Y-171045489D01*
X131817257Y-171045489D02*
X131674400Y-171331203D01*
X131674400Y-171331203D02*
X131531542Y-171474060D01*
X131531542Y-168331203D02*
X131674400Y-168188346D01*
X131674400Y-168188346D02*
X131817257Y-168331203D01*
X131817257Y-168331203D02*
X131674400Y-168474060D01*
X131674400Y-168474060D02*
X131531542Y-168331203D01*
X131531542Y-168331203D02*
X131817257Y-168331203D01*
X128817257Y-167188346D02*
X128817257Y-165331203D01*
X128817257Y-165331203D02*
X129960114Y-166331203D01*
X129960114Y-166331203D02*
X129960114Y-165902632D01*
X129960114Y-165902632D02*
X130102971Y-165616918D01*
X130102971Y-165616918D02*
X130245828Y-165474060D01*
X130245828Y-165474060D02*
X130531542Y-165331203D01*
X130531542Y-165331203D02*
X131245828Y-165331203D01*
X131245828Y-165331203D02*
X131531542Y-165474060D01*
X131531542Y-165474060D02*
X131674400Y-165616918D01*
X131674400Y-165616918D02*
X131817257Y-165902632D01*
X131817257Y-165902632D02*
X131817257Y-166759775D01*
X131817257Y-166759775D02*
X131674400Y-167045489D01*
X131674400Y-167045489D02*
X131531542Y-167188346D01*
X128817257Y-164474060D02*
X131817257Y-163474060D01*
X131817257Y-163474060D02*
X128817257Y-162474060D01*
X131417257Y-97116917D02*
X131417257Y-98831203D01*
X131417257Y-97974060D02*
X128417257Y-97974060D01*
X128417257Y-97974060D02*
X128845828Y-98259774D01*
X128845828Y-98259774D02*
X129131542Y-98545489D01*
X129131542Y-98545489D02*
X129274400Y-98831203D01*
X129702971Y-95402631D02*
X129560114Y-95688346D01*
X129560114Y-95688346D02*
X129417257Y-95831203D01*
X129417257Y-95831203D02*
X129131542Y-95974060D01*
X129131542Y-95974060D02*
X128988685Y-95974060D01*
X128988685Y-95974060D02*
X128702971Y-95831203D01*
X128702971Y-95831203D02*
X128560114Y-95688346D01*
X128560114Y-95688346D02*
X128417257Y-95402631D01*
X128417257Y-95402631D02*
X128417257Y-94831203D01*
X128417257Y-94831203D02*
X128560114Y-94545489D01*
X128560114Y-94545489D02*
X128702971Y-94402631D01*
X128702971Y-94402631D02*
X128988685Y-94259774D01*
X128988685Y-94259774D02*
X129131542Y-94259774D01*
X129131542Y-94259774D02*
X129417257Y-94402631D01*
X129417257Y-94402631D02*
X129560114Y-94545489D01*
X129560114Y-94545489D02*
X129702971Y-94831203D01*
X129702971Y-94831203D02*
X129702971Y-95402631D01*
X129702971Y-95402631D02*
X129845828Y-95688346D01*
X129845828Y-95688346D02*
X129988685Y-95831203D01*
X129988685Y-95831203D02*
X130274400Y-95974060D01*
X130274400Y-95974060D02*
X130845828Y-95974060D01*
X130845828Y-95974060D02*
X131131542Y-95831203D01*
X131131542Y-95831203D02*
X131274400Y-95688346D01*
X131274400Y-95688346D02*
X131417257Y-95402631D01*
X131417257Y-95402631D02*
X131417257Y-94831203D01*
X131417257Y-94831203D02*
X131274400Y-94545489D01*
X131274400Y-94545489D02*
X131131542Y-94402631D01*
X131131542Y-94402631D02*
X130845828Y-94259774D01*
X130845828Y-94259774D02*
X130274400Y-94259774D01*
X130274400Y-94259774D02*
X129988685Y-94402631D01*
X129988685Y-94402631D02*
X129845828Y-94545489D01*
X129845828Y-94545489D02*
X129702971Y-94831203D01*
X128417257Y-93402631D02*
X131417257Y-92402631D01*
X131417257Y-92402631D02*
X128417257Y-91402631D01*
X225345810Y-92968796D02*
X225417238Y-92825939D01*
X225417238Y-92825939D02*
X225488667Y-92754510D01*
X225488667Y-92754510D02*
X225631524Y-92683082D01*
X225631524Y-92683082D02*
X225702953Y-92683082D01*
X225702953Y-92683082D02*
X225845810Y-92754510D01*
X225845810Y-92754510D02*
X225917238Y-92825939D01*
X225917238Y-92825939D02*
X225988667Y-92968796D01*
X225988667Y-92968796D02*
X225988667Y-93254510D01*
X225988667Y-93254510D02*
X225917238Y-93397368D01*
X225917238Y-93397368D02*
X225845810Y-93468796D01*
X225845810Y-93468796D02*
X225702953Y-93540225D01*
X225702953Y-93540225D02*
X225631524Y-93540225D01*
X225631524Y-93540225D02*
X225488667Y-93468796D01*
X225488667Y-93468796D02*
X225417238Y-93397368D01*
X225417238Y-93397368D02*
X225345810Y-93254510D01*
X225345810Y-93254510D02*
X225345810Y-92968796D01*
X225345810Y-92968796D02*
X225274381Y-92825939D01*
X225274381Y-92825939D02*
X225202953Y-92754510D01*
X225202953Y-92754510D02*
X225060096Y-92683082D01*
X225060096Y-92683082D02*
X224774381Y-92683082D01*
X224774381Y-92683082D02*
X224631524Y-92754510D01*
X224631524Y-92754510D02*
X224560096Y-92825939D01*
X224560096Y-92825939D02*
X224488667Y-92968796D01*
X224488667Y-92968796D02*
X224488667Y-93254510D01*
X224488667Y-93254510D02*
X224560096Y-93397368D01*
X224560096Y-93397368D02*
X224631524Y-93468796D01*
X224631524Y-93468796D02*
X224774381Y-93540225D01*
X224774381Y-93540225D02*
X225060096Y-93540225D01*
X225060096Y-93540225D02*
X225202953Y-93468796D01*
X225202953Y-93468796D02*
X225274381Y-93397368D01*
X225274381Y-93397368D02*
X225345810Y-93254510D01*
X224631524Y-94183081D02*
X224560096Y-94254510D01*
X224560096Y-94254510D02*
X224488667Y-94183081D01*
X224488667Y-94183081D02*
X224560096Y-94111653D01*
X224560096Y-94111653D02*
X224631524Y-94183081D01*
X224631524Y-94183081D02*
X224488667Y-94183081D01*
X225845810Y-95968796D02*
X225917238Y-96040224D01*
X225917238Y-96040224D02*
X225988667Y-96183082D01*
X225988667Y-96183082D02*
X225988667Y-96540224D01*
X225988667Y-96540224D02*
X225917238Y-96683082D01*
X225917238Y-96683082D02*
X225845810Y-96754510D01*
X225845810Y-96754510D02*
X225702953Y-96825939D01*
X225702953Y-96825939D02*
X225560096Y-96825939D01*
X225560096Y-96825939D02*
X225345810Y-96754510D01*
X225345810Y-96754510D02*
X224488667Y-95897367D01*
X224488667Y-95897367D02*
X224488667Y-96825939D01*
X225488667Y-98111653D02*
X224488667Y-98111653D01*
X226060096Y-97754510D02*
X224988667Y-97397367D01*
X224988667Y-97397367D02*
X224988667Y-98325938D01*
X225988667Y-98683081D02*
X224488667Y-99183081D01*
X224488667Y-99183081D02*
X225988667Y-99683081D01*
X221158835Y-92611653D02*
X221158835Y-93611653D01*
X221158835Y-93611653D02*
X219658835Y-92968796D01*
X219801692Y-94183081D02*
X219730264Y-94254510D01*
X219730264Y-94254510D02*
X219658835Y-94183081D01*
X219658835Y-94183081D02*
X219730264Y-94111653D01*
X219730264Y-94111653D02*
X219801692Y-94183081D01*
X219801692Y-94183081D02*
X219658835Y-94183081D01*
X221158835Y-96754510D02*
X221158835Y-96040224D01*
X221158835Y-96040224D02*
X220444549Y-95968796D01*
X220444549Y-95968796D02*
X220515978Y-96040224D01*
X220515978Y-96040224D02*
X220587406Y-96183082D01*
X220587406Y-96183082D02*
X220587406Y-96540224D01*
X220587406Y-96540224D02*
X220515978Y-96683082D01*
X220515978Y-96683082D02*
X220444549Y-96754510D01*
X220444549Y-96754510D02*
X220301692Y-96825939D01*
X220301692Y-96825939D02*
X219944549Y-96825939D01*
X219944549Y-96825939D02*
X219801692Y-96754510D01*
X219801692Y-96754510D02*
X219730264Y-96683082D01*
X219730264Y-96683082D02*
X219658835Y-96540224D01*
X219658835Y-96540224D02*
X219658835Y-96183082D01*
X219658835Y-96183082D02*
X219730264Y-96040224D01*
X219730264Y-96040224D02*
X219801692Y-95968796D01*
X221158835Y-97254510D02*
X219658835Y-97754510D01*
X219658835Y-97754510D02*
X221158835Y-98254510D01*
X216329003Y-93397368D02*
X216329003Y-93111653D01*
X216329003Y-93111653D02*
X216257574Y-92968796D01*
X216257574Y-92968796D02*
X216186146Y-92897368D01*
X216186146Y-92897368D02*
X215971860Y-92754510D01*
X215971860Y-92754510D02*
X215686146Y-92683082D01*
X215686146Y-92683082D02*
X215114717Y-92683082D01*
X215114717Y-92683082D02*
X214971860Y-92754510D01*
X214971860Y-92754510D02*
X214900432Y-92825939D01*
X214900432Y-92825939D02*
X214829003Y-92968796D01*
X214829003Y-92968796D02*
X214829003Y-93254510D01*
X214829003Y-93254510D02*
X214900432Y-93397368D01*
X214900432Y-93397368D02*
X214971860Y-93468796D01*
X214971860Y-93468796D02*
X215114717Y-93540225D01*
X215114717Y-93540225D02*
X215471860Y-93540225D01*
X215471860Y-93540225D02*
X215614717Y-93468796D01*
X215614717Y-93468796D02*
X215686146Y-93397368D01*
X215686146Y-93397368D02*
X215757574Y-93254510D01*
X215757574Y-93254510D02*
X215757574Y-92968796D01*
X215757574Y-92968796D02*
X215686146Y-92825939D01*
X215686146Y-92825939D02*
X215614717Y-92754510D01*
X215614717Y-92754510D02*
X215471860Y-92683082D01*
X214971860Y-94183081D02*
X214900432Y-94254510D01*
X214900432Y-94254510D02*
X214829003Y-94183081D01*
X214829003Y-94183081D02*
X214900432Y-94111653D01*
X214900432Y-94111653D02*
X214971860Y-94183081D01*
X214971860Y-94183081D02*
X214829003Y-94183081D01*
X216329003Y-95897367D02*
X216329003Y-96825939D01*
X216329003Y-96825939D02*
X215757574Y-96325939D01*
X215757574Y-96325939D02*
X215757574Y-96540224D01*
X215757574Y-96540224D02*
X215686146Y-96683082D01*
X215686146Y-96683082D02*
X215614717Y-96754510D01*
X215614717Y-96754510D02*
X215471860Y-96825939D01*
X215471860Y-96825939D02*
X215114717Y-96825939D01*
X215114717Y-96825939D02*
X214971860Y-96754510D01*
X214971860Y-96754510D02*
X214900432Y-96683082D01*
X214900432Y-96683082D02*
X214829003Y-96540224D01*
X214829003Y-96540224D02*
X214829003Y-96111653D01*
X214829003Y-96111653D02*
X214900432Y-95968796D01*
X214900432Y-95968796D02*
X214971860Y-95897367D01*
X214971860Y-97468795D02*
X214900432Y-97540224D01*
X214900432Y-97540224D02*
X214829003Y-97468795D01*
X214829003Y-97468795D02*
X214900432Y-97397367D01*
X214900432Y-97397367D02*
X214971860Y-97468795D01*
X214971860Y-97468795D02*
X214829003Y-97468795D01*
X216329003Y-98040224D02*
X216329003Y-98968796D01*
X216329003Y-98968796D02*
X215757574Y-98468796D01*
X215757574Y-98468796D02*
X215757574Y-98683081D01*
X215757574Y-98683081D02*
X215686146Y-98825939D01*
X215686146Y-98825939D02*
X215614717Y-98897367D01*
X215614717Y-98897367D02*
X215471860Y-98968796D01*
X215471860Y-98968796D02*
X215114717Y-98968796D01*
X215114717Y-98968796D02*
X214971860Y-98897367D01*
X214971860Y-98897367D02*
X214900432Y-98825939D01*
X214900432Y-98825939D02*
X214829003Y-98683081D01*
X214829003Y-98683081D02*
X214829003Y-98254510D01*
X214829003Y-98254510D02*
X214900432Y-98111653D01*
X214900432Y-98111653D02*
X214971860Y-98040224D01*
X216329003Y-99397367D02*
X214829003Y-99897367D01*
X214829003Y-99897367D02*
X216329003Y-100397367D01*
X211499171Y-93468796D02*
X211499171Y-92754510D01*
X211499171Y-92754510D02*
X210784885Y-92683082D01*
X210784885Y-92683082D02*
X210856314Y-92754510D01*
X210856314Y-92754510D02*
X210927742Y-92897368D01*
X210927742Y-92897368D02*
X210927742Y-93254510D01*
X210927742Y-93254510D02*
X210856314Y-93397368D01*
X210856314Y-93397368D02*
X210784885Y-93468796D01*
X210784885Y-93468796D02*
X210642028Y-93540225D01*
X210642028Y-93540225D02*
X210284885Y-93540225D01*
X210284885Y-93540225D02*
X210142028Y-93468796D01*
X210142028Y-93468796D02*
X210070600Y-93397368D01*
X210070600Y-93397368D02*
X209999171Y-93254510D01*
X209999171Y-93254510D02*
X209999171Y-92897368D01*
X209999171Y-92897368D02*
X210070600Y-92754510D01*
X210070600Y-92754510D02*
X210142028Y-92683082D01*
X210142028Y-94183081D02*
X210070600Y-94254510D01*
X210070600Y-94254510D02*
X209999171Y-94183081D01*
X209999171Y-94183081D02*
X210070600Y-94111653D01*
X210070600Y-94111653D02*
X210142028Y-94183081D01*
X210142028Y-94183081D02*
X209999171Y-94183081D01*
X211427742Y-96825939D02*
X211499171Y-96683082D01*
X211499171Y-96683082D02*
X211499171Y-96468796D01*
X211499171Y-96468796D02*
X211427742Y-96254510D01*
X211427742Y-96254510D02*
X211284885Y-96111653D01*
X211284885Y-96111653D02*
X211142028Y-96040224D01*
X211142028Y-96040224D02*
X210856314Y-95968796D01*
X210856314Y-95968796D02*
X210642028Y-95968796D01*
X210642028Y-95968796D02*
X210356314Y-96040224D01*
X210356314Y-96040224D02*
X210213457Y-96111653D01*
X210213457Y-96111653D02*
X210070600Y-96254510D01*
X210070600Y-96254510D02*
X209999171Y-96468796D01*
X209999171Y-96468796D02*
X209999171Y-96611653D01*
X209999171Y-96611653D02*
X210070600Y-96825939D01*
X210070600Y-96825939D02*
X210142028Y-96897367D01*
X210142028Y-96897367D02*
X210642028Y-96897367D01*
X210642028Y-96897367D02*
X210642028Y-96611653D01*
X209999171Y-97540224D02*
X211499171Y-97540224D01*
X211499171Y-97540224D02*
X209999171Y-98397367D01*
X209999171Y-98397367D02*
X211499171Y-98397367D01*
X209999171Y-99111653D02*
X211499171Y-99111653D01*
X211499171Y-99111653D02*
X211499171Y-99468796D01*
X211499171Y-99468796D02*
X211427742Y-99683082D01*
X211427742Y-99683082D02*
X211284885Y-99825939D01*
X211284885Y-99825939D02*
X211142028Y-99897368D01*
X211142028Y-99897368D02*
X210856314Y-99968796D01*
X210856314Y-99968796D02*
X210642028Y-99968796D01*
X210642028Y-99968796D02*
X210356314Y-99897368D01*
X210356314Y-99897368D02*
X210213457Y-99825939D01*
X210213457Y-99825939D02*
X210070600Y-99683082D01*
X210070600Y-99683082D02*
X209999171Y-99468796D01*
X209999171Y-99468796D02*
X209999171Y-99111653D01*
X81383082Y-112049568D02*
X81597368Y-112120996D01*
X81597368Y-112120996D02*
X81954510Y-112120996D01*
X81954510Y-112120996D02*
X82097368Y-112049568D01*
X82097368Y-112049568D02*
X82168796Y-111978139D01*
X82168796Y-111978139D02*
X82240225Y-111835282D01*
X82240225Y-111835282D02*
X82240225Y-111692425D01*
X82240225Y-111692425D02*
X82168796Y-111549568D01*
X82168796Y-111549568D02*
X82097368Y-111478139D01*
X82097368Y-111478139D02*
X81954510Y-111406710D01*
X81954510Y-111406710D02*
X81668796Y-111335282D01*
X81668796Y-111335282D02*
X81525939Y-111263853D01*
X81525939Y-111263853D02*
X81454510Y-111192425D01*
X81454510Y-111192425D02*
X81383082Y-111049568D01*
X81383082Y-111049568D02*
X81383082Y-110906710D01*
X81383082Y-110906710D02*
X81454510Y-110763853D01*
X81454510Y-110763853D02*
X81525939Y-110692425D01*
X81525939Y-110692425D02*
X81668796Y-110620996D01*
X81668796Y-110620996D02*
X82025939Y-110620996D01*
X82025939Y-110620996D02*
X82240225Y-110692425D01*
X82883081Y-112120996D02*
X82883081Y-110620996D01*
X82883081Y-111335282D02*
X83740224Y-111335282D01*
X83740224Y-112120996D02*
X83740224Y-110620996D01*
X84454510Y-112120996D02*
X84454510Y-110620996D01*
X84454510Y-110620996D02*
X84811653Y-110620996D01*
X84811653Y-110620996D02*
X85025939Y-110692425D01*
X85025939Y-110692425D02*
X85168796Y-110835282D01*
X85168796Y-110835282D02*
X85240225Y-110978139D01*
X85240225Y-110978139D02*
X85311653Y-111263853D01*
X85311653Y-111263853D02*
X85311653Y-111478139D01*
X85311653Y-111478139D02*
X85240225Y-111763853D01*
X85240225Y-111763853D02*
X85168796Y-111906710D01*
X85168796Y-111906710D02*
X85025939Y-112049568D01*
X85025939Y-112049568D02*
X84811653Y-112120996D01*
X84811653Y-112120996D02*
X84454510Y-112120996D01*
X85954510Y-112120996D02*
X85954510Y-110620996D01*
X85954510Y-110620996D02*
X86811653Y-112120996D01*
X86811653Y-112120996D02*
X86811653Y-110620996D01*
X82240225Y-115522257D02*
X82097368Y-115450828D01*
X82097368Y-115450828D02*
X81883082Y-115450828D01*
X81883082Y-115450828D02*
X81668796Y-115522257D01*
X81668796Y-115522257D02*
X81525939Y-115665114D01*
X81525939Y-115665114D02*
X81454510Y-115807971D01*
X81454510Y-115807971D02*
X81383082Y-116093685D01*
X81383082Y-116093685D02*
X81383082Y-116307971D01*
X81383082Y-116307971D02*
X81454510Y-116593685D01*
X81454510Y-116593685D02*
X81525939Y-116736542D01*
X81525939Y-116736542D02*
X81668796Y-116879400D01*
X81668796Y-116879400D02*
X81883082Y-116950828D01*
X81883082Y-116950828D02*
X82025939Y-116950828D01*
X82025939Y-116950828D02*
X82240225Y-116879400D01*
X82240225Y-116879400D02*
X82311653Y-116807971D01*
X82311653Y-116807971D02*
X82311653Y-116307971D01*
X82311653Y-116307971D02*
X82025939Y-116307971D01*
X82954510Y-116950828D02*
X82954510Y-115450828D01*
X82954510Y-115450828D02*
X83811653Y-116950828D01*
X83811653Y-116950828D02*
X83811653Y-115450828D01*
X84525939Y-116950828D02*
X84525939Y-115450828D01*
X84525939Y-115450828D02*
X84883082Y-115450828D01*
X84883082Y-115450828D02*
X85097368Y-115522257D01*
X85097368Y-115522257D02*
X85240225Y-115665114D01*
X85240225Y-115665114D02*
X85311654Y-115807971D01*
X85311654Y-115807971D02*
X85383082Y-116093685D01*
X85383082Y-116093685D02*
X85383082Y-116307971D01*
X85383082Y-116307971D02*
X85311654Y-116593685D01*
X85311654Y-116593685D02*
X85240225Y-116736542D01*
X85240225Y-116736542D02*
X85097368Y-116879400D01*
X85097368Y-116879400D02*
X84883082Y-116950828D01*
X84883082Y-116950828D02*
X84525939Y-116950828D01*
X67754510Y-96235912D02*
X67754510Y-94735912D01*
X67754510Y-94735912D02*
X68325939Y-94735912D01*
X68325939Y-94735912D02*
X68468796Y-94807341D01*
X68468796Y-94807341D02*
X68540225Y-94878769D01*
X68540225Y-94878769D02*
X68611653Y-95021626D01*
X68611653Y-95021626D02*
X68611653Y-95235912D01*
X68611653Y-95235912D02*
X68540225Y-95378769D01*
X68540225Y-95378769D02*
X68468796Y-95450198D01*
X68468796Y-95450198D02*
X68325939Y-95521626D01*
X68325939Y-95521626D02*
X67754510Y-95521626D01*
X69254510Y-96235912D02*
X69254510Y-94735912D01*
X69968796Y-96235912D02*
X69968796Y-94735912D01*
X69968796Y-94735912D02*
X70825939Y-96235912D01*
X70825939Y-96235912D02*
X70825939Y-94735912D01*
X71468797Y-96164484D02*
X71683083Y-96235912D01*
X71683083Y-96235912D02*
X72040225Y-96235912D01*
X72040225Y-96235912D02*
X72183083Y-96164484D01*
X72183083Y-96164484D02*
X72254511Y-96093055D01*
X72254511Y-96093055D02*
X72325940Y-95950198D01*
X72325940Y-95950198D02*
X72325940Y-95807341D01*
X72325940Y-95807341D02*
X72254511Y-95664484D01*
X72254511Y-95664484D02*
X72183083Y-95593055D01*
X72183083Y-95593055D02*
X72040225Y-95521626D01*
X72040225Y-95521626D02*
X71754511Y-95450198D01*
X71754511Y-95450198D02*
X71611654Y-95378769D01*
X71611654Y-95378769D02*
X71540225Y-95307341D01*
X71540225Y-95307341D02*
X71468797Y-95164484D01*
X71468797Y-95164484D02*
X71468797Y-95021626D01*
X71468797Y-95021626D02*
X71540225Y-94878769D01*
X71540225Y-94878769D02*
X71611654Y-94807341D01*
X71611654Y-94807341D02*
X71754511Y-94735912D01*
X71754511Y-94735912D02*
X72111654Y-94735912D01*
X72111654Y-94735912D02*
X72325940Y-94807341D01*
X74897368Y-96235912D02*
X74040225Y-96235912D01*
X74468796Y-96235912D02*
X74468796Y-94735912D01*
X74468796Y-94735912D02*
X74325939Y-94950198D01*
X74325939Y-94950198D02*
X74183082Y-95093055D01*
X74183082Y-95093055D02*
X74040225Y-95164484D01*
X75540224Y-95664484D02*
X76683082Y-95664484D01*
X78040225Y-95235912D02*
X78040225Y-96235912D01*
X77683082Y-94664484D02*
X77325939Y-95735912D01*
X77325939Y-95735912D02*
X78254510Y-95735912D01*
X80468795Y-95450198D02*
X80683081Y-95521626D01*
X80683081Y-95521626D02*
X80754510Y-95593055D01*
X80754510Y-95593055D02*
X80825938Y-95735912D01*
X80825938Y-95735912D02*
X80825938Y-95950198D01*
X80825938Y-95950198D02*
X80754510Y-96093055D01*
X80754510Y-96093055D02*
X80683081Y-96164484D01*
X80683081Y-96164484D02*
X80540224Y-96235912D01*
X80540224Y-96235912D02*
X79968795Y-96235912D01*
X79968795Y-96235912D02*
X79968795Y-94735912D01*
X79968795Y-94735912D02*
X80468795Y-94735912D01*
X80468795Y-94735912D02*
X80611653Y-94807341D01*
X80611653Y-94807341D02*
X80683081Y-94878769D01*
X80683081Y-94878769D02*
X80754510Y-95021626D01*
X80754510Y-95021626D02*
X80754510Y-95164484D01*
X80754510Y-95164484D02*
X80683081Y-95307341D01*
X80683081Y-95307341D02*
X80611653Y-95378769D01*
X80611653Y-95378769D02*
X80468795Y-95450198D01*
X80468795Y-95450198D02*
X79968795Y-95450198D01*
X81254510Y-94735912D02*
X81754510Y-96235912D01*
X81754510Y-96235912D02*
X82254510Y-94735912D01*
X67754510Y-98650828D02*
X67754510Y-97150828D01*
X67754510Y-97150828D02*
X68325939Y-97150828D01*
X68325939Y-97150828D02*
X68468796Y-97222257D01*
X68468796Y-97222257D02*
X68540225Y-97293685D01*
X68540225Y-97293685D02*
X68611653Y-97436542D01*
X68611653Y-97436542D02*
X68611653Y-97650828D01*
X68611653Y-97650828D02*
X68540225Y-97793685D01*
X68540225Y-97793685D02*
X68468796Y-97865114D01*
X68468796Y-97865114D02*
X68325939Y-97936542D01*
X68325939Y-97936542D02*
X67754510Y-97936542D01*
X69254510Y-98650828D02*
X69254510Y-97150828D01*
X69968796Y-98650828D02*
X69968796Y-97150828D01*
X69968796Y-97150828D02*
X70825939Y-98650828D01*
X70825939Y-98650828D02*
X70825939Y-97150828D01*
X71468797Y-98579400D02*
X71683083Y-98650828D01*
X71683083Y-98650828D02*
X72040225Y-98650828D01*
X72040225Y-98650828D02*
X72183083Y-98579400D01*
X72183083Y-98579400D02*
X72254511Y-98507971D01*
X72254511Y-98507971D02*
X72325940Y-98365114D01*
X72325940Y-98365114D02*
X72325940Y-98222257D01*
X72325940Y-98222257D02*
X72254511Y-98079400D01*
X72254511Y-98079400D02*
X72183083Y-98007971D01*
X72183083Y-98007971D02*
X72040225Y-97936542D01*
X72040225Y-97936542D02*
X71754511Y-97865114D01*
X71754511Y-97865114D02*
X71611654Y-97793685D01*
X71611654Y-97793685D02*
X71540225Y-97722257D01*
X71540225Y-97722257D02*
X71468797Y-97579400D01*
X71468797Y-97579400D02*
X71468797Y-97436542D01*
X71468797Y-97436542D02*
X71540225Y-97293685D01*
X71540225Y-97293685D02*
X71611654Y-97222257D01*
X71611654Y-97222257D02*
X71754511Y-97150828D01*
X71754511Y-97150828D02*
X72111654Y-97150828D01*
X72111654Y-97150828D02*
X72325940Y-97222257D01*
X74825939Y-97150828D02*
X74111653Y-97150828D01*
X74111653Y-97150828D02*
X74040225Y-97865114D01*
X74040225Y-97865114D02*
X74111653Y-97793685D01*
X74111653Y-97793685D02*
X74254511Y-97722257D01*
X74254511Y-97722257D02*
X74611653Y-97722257D01*
X74611653Y-97722257D02*
X74754511Y-97793685D01*
X74754511Y-97793685D02*
X74825939Y-97865114D01*
X74825939Y-97865114D02*
X74897368Y-98007971D01*
X74897368Y-98007971D02*
X74897368Y-98365114D01*
X74897368Y-98365114D02*
X74825939Y-98507971D01*
X74825939Y-98507971D02*
X74754511Y-98579400D01*
X74754511Y-98579400D02*
X74611653Y-98650828D01*
X74611653Y-98650828D02*
X74254511Y-98650828D01*
X74254511Y-98650828D02*
X74111653Y-98579400D01*
X74111653Y-98579400D02*
X74040225Y-98507971D01*
X75540224Y-98079400D02*
X76683082Y-98079400D01*
X77611653Y-97793685D02*
X77468796Y-97722257D01*
X77468796Y-97722257D02*
X77397367Y-97650828D01*
X77397367Y-97650828D02*
X77325939Y-97507971D01*
X77325939Y-97507971D02*
X77325939Y-97436542D01*
X77325939Y-97436542D02*
X77397367Y-97293685D01*
X77397367Y-97293685D02*
X77468796Y-97222257D01*
X77468796Y-97222257D02*
X77611653Y-97150828D01*
X77611653Y-97150828D02*
X77897367Y-97150828D01*
X77897367Y-97150828D02*
X78040225Y-97222257D01*
X78040225Y-97222257D02*
X78111653Y-97293685D01*
X78111653Y-97293685D02*
X78183082Y-97436542D01*
X78183082Y-97436542D02*
X78183082Y-97507971D01*
X78183082Y-97507971D02*
X78111653Y-97650828D01*
X78111653Y-97650828D02*
X78040225Y-97722257D01*
X78040225Y-97722257D02*
X77897367Y-97793685D01*
X77897367Y-97793685D02*
X77611653Y-97793685D01*
X77611653Y-97793685D02*
X77468796Y-97865114D01*
X77468796Y-97865114D02*
X77397367Y-97936542D01*
X77397367Y-97936542D02*
X77325939Y-98079400D01*
X77325939Y-98079400D02*
X77325939Y-98365114D01*
X77325939Y-98365114D02*
X77397367Y-98507971D01*
X77397367Y-98507971D02*
X77468796Y-98579400D01*
X77468796Y-98579400D02*
X77611653Y-98650828D01*
X77611653Y-98650828D02*
X77897367Y-98650828D01*
X77897367Y-98650828D02*
X78040225Y-98579400D01*
X78040225Y-98579400D02*
X78111653Y-98507971D01*
X78111653Y-98507971D02*
X78183082Y-98365114D01*
X78183082Y-98365114D02*
X78183082Y-98079400D01*
X78183082Y-98079400D02*
X78111653Y-97936542D01*
X78111653Y-97936542D02*
X78040225Y-97865114D01*
X78040225Y-97865114D02*
X77897367Y-97793685D01*
X80468795Y-97865114D02*
X80683081Y-97936542D01*
X80683081Y-97936542D02*
X80754510Y-98007971D01*
X80754510Y-98007971D02*
X80825938Y-98150828D01*
X80825938Y-98150828D02*
X80825938Y-98365114D01*
X80825938Y-98365114D02*
X80754510Y-98507971D01*
X80754510Y-98507971D02*
X80683081Y-98579400D01*
X80683081Y-98579400D02*
X80540224Y-98650828D01*
X80540224Y-98650828D02*
X79968795Y-98650828D01*
X79968795Y-98650828D02*
X79968795Y-97150828D01*
X79968795Y-97150828D02*
X80468795Y-97150828D01*
X80468795Y-97150828D02*
X80611653Y-97222257D01*
X80611653Y-97222257D02*
X80683081Y-97293685D01*
X80683081Y-97293685D02*
X80754510Y-97436542D01*
X80754510Y-97436542D02*
X80754510Y-97579400D01*
X80754510Y-97579400D02*
X80683081Y-97722257D01*
X80683081Y-97722257D02*
X80611653Y-97793685D01*
X80611653Y-97793685D02*
X80468795Y-97865114D01*
X80468795Y-97865114D02*
X79968795Y-97865114D01*
X82254510Y-97222257D02*
X82111653Y-97150828D01*
X82111653Y-97150828D02*
X81897367Y-97150828D01*
X81897367Y-97150828D02*
X81683081Y-97222257D01*
X81683081Y-97222257D02*
X81540224Y-97365114D01*
X81540224Y-97365114D02*
X81468795Y-97507971D01*
X81468795Y-97507971D02*
X81397367Y-97793685D01*
X81397367Y-97793685D02*
X81397367Y-98007971D01*
X81397367Y-98007971D02*
X81468795Y-98293685D01*
X81468795Y-98293685D02*
X81540224Y-98436542D01*
X81540224Y-98436542D02*
X81683081Y-98579400D01*
X81683081Y-98579400D02*
X81897367Y-98650828D01*
X81897367Y-98650828D02*
X82040224Y-98650828D01*
X82040224Y-98650828D02*
X82254510Y-98579400D01*
X82254510Y-98579400D02*
X82325938Y-98507971D01*
X82325938Y-98507971D02*
X82325938Y-98007971D01*
X82325938Y-98007971D02*
X82040224Y-98007971D01*
X82968795Y-98650828D02*
X82968795Y-97150828D01*
X82968795Y-97150828D02*
X83825938Y-98650828D01*
X83825938Y-98650828D02*
X83825938Y-97150828D01*
X84540224Y-98650828D02*
X84540224Y-97150828D01*
X84540224Y-97150828D02*
X84897367Y-97150828D01*
X84897367Y-97150828D02*
X85111653Y-97222257D01*
X85111653Y-97222257D02*
X85254510Y-97365114D01*
X85254510Y-97365114D02*
X85325939Y-97507971D01*
X85325939Y-97507971D02*
X85397367Y-97793685D01*
X85397367Y-97793685D02*
X85397367Y-98007971D01*
X85397367Y-98007971D02*
X85325939Y-98293685D01*
X85325939Y-98293685D02*
X85254510Y-98436542D01*
X85254510Y-98436542D02*
X85111653Y-98579400D01*
X85111653Y-98579400D02*
X84897367Y-98650828D01*
X84897367Y-98650828D02*
X84540224Y-98650828D01*
X220840225Y-153717257D02*
X219411653Y-153717257D01*
X219411653Y-153717257D02*
X219268796Y-155145828D01*
X219268796Y-155145828D02*
X219411653Y-155002971D01*
X219411653Y-155002971D02*
X219697368Y-154860114D01*
X219697368Y-154860114D02*
X220411653Y-154860114D01*
X220411653Y-154860114D02*
X220697368Y-155002971D01*
X220697368Y-155002971D02*
X220840225Y-155145828D01*
X220840225Y-155145828D02*
X220983082Y-155431542D01*
X220983082Y-155431542D02*
X220983082Y-156145828D01*
X220983082Y-156145828D02*
X220840225Y-156431542D01*
X220840225Y-156431542D02*
X220697368Y-156574400D01*
X220697368Y-156574400D02*
X220411653Y-156717257D01*
X220411653Y-156717257D02*
X219697368Y-156717257D01*
X219697368Y-156717257D02*
X219411653Y-156574400D01*
X219411653Y-156574400D02*
X219268796Y-156431542D01*
X221840225Y-153717257D02*
X222840225Y-156717257D01*
X222840225Y-156717257D02*
X223840225Y-153717257D01*
X171483082Y-114867257D02*
X169768796Y-114867257D01*
X170625939Y-114867257D02*
X170625939Y-111867257D01*
X170625939Y-111867257D02*
X170340225Y-112295828D01*
X170340225Y-112295828D02*
X170054510Y-112581542D01*
X170054510Y-112581542D02*
X169768796Y-112724400D01*
X173197368Y-113152971D02*
X172911653Y-113010114D01*
X172911653Y-113010114D02*
X172768796Y-112867257D01*
X172768796Y-112867257D02*
X172625939Y-112581542D01*
X172625939Y-112581542D02*
X172625939Y-112438685D01*
X172625939Y-112438685D02*
X172768796Y-112152971D01*
X172768796Y-112152971D02*
X172911653Y-112010114D01*
X172911653Y-112010114D02*
X173197368Y-111867257D01*
X173197368Y-111867257D02*
X173768796Y-111867257D01*
X173768796Y-111867257D02*
X174054511Y-112010114D01*
X174054511Y-112010114D02*
X174197368Y-112152971D01*
X174197368Y-112152971D02*
X174340225Y-112438685D01*
X174340225Y-112438685D02*
X174340225Y-112581542D01*
X174340225Y-112581542D02*
X174197368Y-112867257D01*
X174197368Y-112867257D02*
X174054511Y-113010114D01*
X174054511Y-113010114D02*
X173768796Y-113152971D01*
X173768796Y-113152971D02*
X173197368Y-113152971D01*
X173197368Y-113152971D02*
X172911653Y-113295828D01*
X172911653Y-113295828D02*
X172768796Y-113438685D01*
X172768796Y-113438685D02*
X172625939Y-113724400D01*
X172625939Y-113724400D02*
X172625939Y-114295828D01*
X172625939Y-114295828D02*
X172768796Y-114581542D01*
X172768796Y-114581542D02*
X172911653Y-114724400D01*
X172911653Y-114724400D02*
X173197368Y-114867257D01*
X173197368Y-114867257D02*
X173768796Y-114867257D01*
X173768796Y-114867257D02*
X174054511Y-114724400D01*
X174054511Y-114724400D02*
X174197368Y-114581542D01*
X174197368Y-114581542D02*
X174340225Y-114295828D01*
X174340225Y-114295828D02*
X174340225Y-113724400D01*
X174340225Y-113724400D02*
X174197368Y-113438685D01*
X174197368Y-113438685D02*
X174054511Y-113295828D01*
X174054511Y-113295828D02*
X173768796Y-113152971D01*
X175197368Y-111867257D02*
X176197368Y-114867257D01*
X176197368Y-114867257D02*
X177197368Y-111867257D01*
X212425939Y-179617257D02*
X214283082Y-179617257D01*
X214283082Y-179617257D02*
X213283082Y-180760114D01*
X213283082Y-180760114D02*
X213711653Y-180760114D01*
X213711653Y-180760114D02*
X213997368Y-180902971D01*
X213997368Y-180902971D02*
X214140225Y-181045828D01*
X214140225Y-181045828D02*
X214283082Y-181331542D01*
X214283082Y-181331542D02*
X214283082Y-182045828D01*
X214283082Y-182045828D02*
X214140225Y-182331542D01*
X214140225Y-182331542D02*
X213997368Y-182474400D01*
X213997368Y-182474400D02*
X213711653Y-182617257D01*
X213711653Y-182617257D02*
X212854510Y-182617257D01*
X212854510Y-182617257D02*
X212568796Y-182474400D01*
X212568796Y-182474400D02*
X212425939Y-182331542D01*
X215568796Y-182331542D02*
X215711653Y-182474400D01*
X215711653Y-182474400D02*
X215568796Y-182617257D01*
X215568796Y-182617257D02*
X215425939Y-182474400D01*
X215425939Y-182474400D02*
X215568796Y-182331542D01*
X215568796Y-182331542D02*
X215568796Y-182617257D01*
X216711653Y-179617257D02*
X218568796Y-179617257D01*
X218568796Y-179617257D02*
X217568796Y-180760114D01*
X217568796Y-180760114D02*
X217997367Y-180760114D01*
X217997367Y-180760114D02*
X218283082Y-180902971D01*
X218283082Y-180902971D02*
X218425939Y-181045828D01*
X218425939Y-181045828D02*
X218568796Y-181331542D01*
X218568796Y-181331542D02*
X218568796Y-182045828D01*
X218568796Y-182045828D02*
X218425939Y-182331542D01*
X218425939Y-182331542D02*
X218283082Y-182474400D01*
X218283082Y-182474400D02*
X217997367Y-182617257D01*
X217997367Y-182617257D02*
X217140224Y-182617257D01*
X217140224Y-182617257D02*
X216854510Y-182474400D01*
X216854510Y-182474400D02*
X216711653Y-182331542D01*
X219425939Y-179617257D02*
X220425939Y-182617257D01*
X220425939Y-182617257D02*
X221425939Y-179617257D01*
X224688667Y-106140225D02*
X224688667Y-105283082D01*
X224688667Y-105711653D02*
X226188667Y-105711653D01*
X226188667Y-105711653D02*
X225974381Y-105568796D01*
X225974381Y-105568796D02*
X225831524Y-105425939D01*
X225831524Y-105425939D02*
X225760096Y-105283082D01*
X224831524Y-106783081D02*
X224760096Y-106854510D01*
X224760096Y-106854510D02*
X224688667Y-106783081D01*
X224688667Y-106783081D02*
X224760096Y-106711653D01*
X224760096Y-106711653D02*
X224831524Y-106783081D01*
X224831524Y-106783081D02*
X224688667Y-106783081D01*
X225474381Y-109140224D02*
X225402953Y-109354510D01*
X225402953Y-109354510D02*
X225331524Y-109425939D01*
X225331524Y-109425939D02*
X225188667Y-109497367D01*
X225188667Y-109497367D02*
X224974381Y-109497367D01*
X224974381Y-109497367D02*
X224831524Y-109425939D01*
X224831524Y-109425939D02*
X224760096Y-109354510D01*
X224760096Y-109354510D02*
X224688667Y-109211653D01*
X224688667Y-109211653D02*
X224688667Y-108640224D01*
X224688667Y-108640224D02*
X226188667Y-108640224D01*
X226188667Y-108640224D02*
X226188667Y-109140224D01*
X226188667Y-109140224D02*
X226117238Y-109283082D01*
X226117238Y-109283082D02*
X226045810Y-109354510D01*
X226045810Y-109354510D02*
X225902953Y-109425939D01*
X225902953Y-109425939D02*
X225760096Y-109425939D01*
X225760096Y-109425939D02*
X225617238Y-109354510D01*
X225617238Y-109354510D02*
X225545810Y-109283082D01*
X225545810Y-109283082D02*
X225474381Y-109140224D01*
X225474381Y-109140224D02*
X225474381Y-108640224D01*
X225117238Y-110068796D02*
X225117238Y-110783082D01*
X224688667Y-109925939D02*
X226188667Y-110425939D01*
X226188667Y-110425939D02*
X224688667Y-110925939D01*
X226188667Y-111211653D02*
X226188667Y-112068796D01*
X224688667Y-111640224D02*
X226188667Y-111640224D01*
X226188667Y-112354510D02*
X226188667Y-113211653D01*
X224688667Y-112783081D02*
X226188667Y-112783081D01*
X221215978Y-105283082D02*
X221287406Y-105354510D01*
X221287406Y-105354510D02*
X221358835Y-105497368D01*
X221358835Y-105497368D02*
X221358835Y-105854510D01*
X221358835Y-105854510D02*
X221287406Y-105997368D01*
X221287406Y-105997368D02*
X221215978Y-106068796D01*
X221215978Y-106068796D02*
X221073121Y-106140225D01*
X221073121Y-106140225D02*
X220930264Y-106140225D01*
X220930264Y-106140225D02*
X220715978Y-106068796D01*
X220715978Y-106068796D02*
X219858835Y-105211653D01*
X219858835Y-105211653D02*
X219858835Y-106140225D01*
X220001692Y-106783081D02*
X219930264Y-106854510D01*
X219930264Y-106854510D02*
X219858835Y-106783081D01*
X219858835Y-106783081D02*
X219930264Y-106711653D01*
X219930264Y-106711653D02*
X220001692Y-106783081D01*
X220001692Y-106783081D02*
X219858835Y-106783081D01*
X220644549Y-109140224D02*
X220573121Y-109354510D01*
X220573121Y-109354510D02*
X220501692Y-109425939D01*
X220501692Y-109425939D02*
X220358835Y-109497367D01*
X220358835Y-109497367D02*
X220144549Y-109497367D01*
X220144549Y-109497367D02*
X220001692Y-109425939D01*
X220001692Y-109425939D02*
X219930264Y-109354510D01*
X219930264Y-109354510D02*
X219858835Y-109211653D01*
X219858835Y-109211653D02*
X219858835Y-108640224D01*
X219858835Y-108640224D02*
X221358835Y-108640224D01*
X221358835Y-108640224D02*
X221358835Y-109140224D01*
X221358835Y-109140224D02*
X221287406Y-109283082D01*
X221287406Y-109283082D02*
X221215978Y-109354510D01*
X221215978Y-109354510D02*
X221073121Y-109425939D01*
X221073121Y-109425939D02*
X220930264Y-109425939D01*
X220930264Y-109425939D02*
X220787406Y-109354510D01*
X220787406Y-109354510D02*
X220715978Y-109283082D01*
X220715978Y-109283082D02*
X220644549Y-109140224D01*
X220644549Y-109140224D02*
X220644549Y-108640224D01*
X220287406Y-110068796D02*
X220287406Y-110783082D01*
X219858835Y-109925939D02*
X221358835Y-110425939D01*
X221358835Y-110425939D02*
X219858835Y-110925939D01*
X221358835Y-111211653D02*
X221358835Y-112068796D01*
X219858835Y-111640224D02*
X221358835Y-111640224D01*
X221358835Y-112354510D02*
X221358835Y-113211653D01*
X219858835Y-112783081D02*
X221358835Y-112783081D01*
X216529003Y-105211653D02*
X216529003Y-106140225D01*
X216529003Y-106140225D02*
X215957574Y-105640225D01*
X215957574Y-105640225D02*
X215957574Y-105854510D01*
X215957574Y-105854510D02*
X215886146Y-105997368D01*
X215886146Y-105997368D02*
X215814717Y-106068796D01*
X215814717Y-106068796D02*
X215671860Y-106140225D01*
X215671860Y-106140225D02*
X215314717Y-106140225D01*
X215314717Y-106140225D02*
X215171860Y-106068796D01*
X215171860Y-106068796D02*
X215100432Y-105997368D01*
X215100432Y-105997368D02*
X215029003Y-105854510D01*
X215029003Y-105854510D02*
X215029003Y-105425939D01*
X215029003Y-105425939D02*
X215100432Y-105283082D01*
X215100432Y-105283082D02*
X215171860Y-105211653D01*
X215171860Y-106783081D02*
X215100432Y-106854510D01*
X215100432Y-106854510D02*
X215029003Y-106783081D01*
X215029003Y-106783081D02*
X215100432Y-106711653D01*
X215100432Y-106711653D02*
X215171860Y-106783081D01*
X215171860Y-106783081D02*
X215029003Y-106783081D01*
X216457574Y-109425939D02*
X216529003Y-109283082D01*
X216529003Y-109283082D02*
X216529003Y-109068796D01*
X216529003Y-109068796D02*
X216457574Y-108854510D01*
X216457574Y-108854510D02*
X216314717Y-108711653D01*
X216314717Y-108711653D02*
X216171860Y-108640224D01*
X216171860Y-108640224D02*
X215886146Y-108568796D01*
X215886146Y-108568796D02*
X215671860Y-108568796D01*
X215671860Y-108568796D02*
X215386146Y-108640224D01*
X215386146Y-108640224D02*
X215243289Y-108711653D01*
X215243289Y-108711653D02*
X215100432Y-108854510D01*
X215100432Y-108854510D02*
X215029003Y-109068796D01*
X215029003Y-109068796D02*
X215029003Y-109211653D01*
X215029003Y-109211653D02*
X215100432Y-109425939D01*
X215100432Y-109425939D02*
X215171860Y-109497367D01*
X215171860Y-109497367D02*
X215671860Y-109497367D01*
X215671860Y-109497367D02*
X215671860Y-109211653D01*
X215029003Y-110140224D02*
X216529003Y-110140224D01*
X216529003Y-110140224D02*
X215029003Y-110997367D01*
X215029003Y-110997367D02*
X216529003Y-110997367D01*
X215029003Y-111711653D02*
X216529003Y-111711653D01*
X216529003Y-111711653D02*
X216529003Y-112068796D01*
X216529003Y-112068796D02*
X216457574Y-112283082D01*
X216457574Y-112283082D02*
X216314717Y-112425939D01*
X216314717Y-112425939D02*
X216171860Y-112497368D01*
X216171860Y-112497368D02*
X215886146Y-112568796D01*
X215886146Y-112568796D02*
X215671860Y-112568796D01*
X215671860Y-112568796D02*
X215386146Y-112497368D01*
X215386146Y-112497368D02*
X215243289Y-112425939D01*
X215243289Y-112425939D02*
X215100432Y-112283082D01*
X215100432Y-112283082D02*
X215029003Y-112068796D01*
X215029003Y-112068796D02*
X215029003Y-111711653D01*
X211199171Y-105997368D02*
X210199171Y-105997368D01*
X211770600Y-105640225D02*
X210699171Y-105283082D01*
X210699171Y-105283082D02*
X210699171Y-106211653D01*
X210342028Y-106783081D02*
X210270600Y-106854510D01*
X210270600Y-106854510D02*
X210199171Y-106783081D01*
X210199171Y-106783081D02*
X210270600Y-106711653D01*
X210270600Y-106711653D02*
X210342028Y-106783081D01*
X210342028Y-106783081D02*
X210199171Y-106783081D01*
X211627742Y-109425939D02*
X211699171Y-109283082D01*
X211699171Y-109283082D02*
X211699171Y-109068796D01*
X211699171Y-109068796D02*
X211627742Y-108854510D01*
X211627742Y-108854510D02*
X211484885Y-108711653D01*
X211484885Y-108711653D02*
X211342028Y-108640224D01*
X211342028Y-108640224D02*
X211056314Y-108568796D01*
X211056314Y-108568796D02*
X210842028Y-108568796D01*
X210842028Y-108568796D02*
X210556314Y-108640224D01*
X210556314Y-108640224D02*
X210413457Y-108711653D01*
X210413457Y-108711653D02*
X210270600Y-108854510D01*
X210270600Y-108854510D02*
X210199171Y-109068796D01*
X210199171Y-109068796D02*
X210199171Y-109211653D01*
X210199171Y-109211653D02*
X210270600Y-109425939D01*
X210270600Y-109425939D02*
X210342028Y-109497367D01*
X210342028Y-109497367D02*
X210842028Y-109497367D01*
X210842028Y-109497367D02*
X210842028Y-109211653D01*
X210199171Y-110140224D02*
X211699171Y-110140224D01*
X211699171Y-110140224D02*
X210199171Y-110997367D01*
X210199171Y-110997367D02*
X211699171Y-110997367D01*
X210199171Y-111711653D02*
X211699171Y-111711653D01*
X211699171Y-111711653D02*
X211699171Y-112068796D01*
X211699171Y-112068796D02*
X211627742Y-112283082D01*
X211627742Y-112283082D02*
X211484885Y-112425939D01*
X211484885Y-112425939D02*
X211342028Y-112497368D01*
X211342028Y-112497368D02*
X211056314Y-112568796D01*
X211056314Y-112568796D02*
X210842028Y-112568796D01*
X210842028Y-112568796D02*
X210556314Y-112497368D01*
X210556314Y-112497368D02*
X210413457Y-112425939D01*
X210413457Y-112425939D02*
X210270600Y-112283082D01*
X210270600Y-112283082D02*
X210199171Y-112068796D01*
X210199171Y-112068796D02*
X210199171Y-111711653D01*
X130840225Y-77372257D02*
X130697368Y-77300828D01*
X130697368Y-77300828D02*
X130483082Y-77300828D01*
X130483082Y-77300828D02*
X130268796Y-77372257D01*
X130268796Y-77372257D02*
X130125939Y-77515114D01*
X130125939Y-77515114D02*
X130054510Y-77657971D01*
X130054510Y-77657971D02*
X129983082Y-77943685D01*
X129983082Y-77943685D02*
X129983082Y-78157971D01*
X129983082Y-78157971D02*
X130054510Y-78443685D01*
X130054510Y-78443685D02*
X130125939Y-78586542D01*
X130125939Y-78586542D02*
X130268796Y-78729400D01*
X130268796Y-78729400D02*
X130483082Y-78800828D01*
X130483082Y-78800828D02*
X130625939Y-78800828D01*
X130625939Y-78800828D02*
X130840225Y-78729400D01*
X130840225Y-78729400D02*
X130911653Y-78657971D01*
X130911653Y-78657971D02*
X130911653Y-78157971D01*
X130911653Y-78157971D02*
X130625939Y-78157971D01*
X132411653Y-78800828D02*
X131911653Y-78086542D01*
X131554510Y-78800828D02*
X131554510Y-77300828D01*
X131554510Y-77300828D02*
X132125939Y-77300828D01*
X132125939Y-77300828D02*
X132268796Y-77372257D01*
X132268796Y-77372257D02*
X132340225Y-77443685D01*
X132340225Y-77443685D02*
X132411653Y-77586542D01*
X132411653Y-77586542D02*
X132411653Y-77800828D01*
X132411653Y-77800828D02*
X132340225Y-77943685D01*
X132340225Y-77943685D02*
X132268796Y-78015114D01*
X132268796Y-78015114D02*
X132125939Y-78086542D01*
X132125939Y-78086542D02*
X131554510Y-78086542D01*
X133054510Y-78229400D02*
X134197368Y-78229400D01*
X135625939Y-78800828D02*
X134911653Y-78800828D01*
X134911653Y-78800828D02*
X134911653Y-77300828D01*
X136983082Y-78800828D02*
X136483082Y-78086542D01*
X136125939Y-78800828D02*
X136125939Y-77300828D01*
X136125939Y-77300828D02*
X136697368Y-77300828D01*
X136697368Y-77300828D02*
X136840225Y-77372257D01*
X136840225Y-77372257D02*
X136911654Y-77443685D01*
X136911654Y-77443685D02*
X136983082Y-77586542D01*
X136983082Y-77586542D02*
X136983082Y-77800828D01*
X136983082Y-77800828D02*
X136911654Y-77943685D01*
X136911654Y-77943685D02*
X136840225Y-78015114D01*
X136840225Y-78015114D02*
X136697368Y-78086542D01*
X136697368Y-78086542D02*
X136125939Y-78086542D01*
X138483082Y-78800828D02*
X137983082Y-78086542D01*
X137625939Y-78800828D02*
X137625939Y-77300828D01*
X137625939Y-77300828D02*
X138197368Y-77300828D01*
X138197368Y-77300828D02*
X138340225Y-77372257D01*
X138340225Y-77372257D02*
X138411654Y-77443685D01*
X138411654Y-77443685D02*
X138483082Y-77586542D01*
X138483082Y-77586542D02*
X138483082Y-77800828D01*
X138483082Y-77800828D02*
X138411654Y-77943685D01*
X138411654Y-77943685D02*
X138340225Y-78015114D01*
X138340225Y-78015114D02*
X138197368Y-78086542D01*
X138197368Y-78086542D02*
X137625939Y-78086542D01*
X139125939Y-78229400D02*
X140268797Y-78229400D01*
X140983082Y-78800828D02*
X140983082Y-77300828D01*
X140983082Y-77300828D02*
X141554511Y-77300828D01*
X141554511Y-77300828D02*
X141697368Y-77372257D01*
X141697368Y-77372257D02*
X141768797Y-77443685D01*
X141768797Y-77443685D02*
X141840225Y-77586542D01*
X141840225Y-77586542D02*
X141840225Y-77800828D01*
X141840225Y-77800828D02*
X141768797Y-77943685D01*
X141768797Y-77943685D02*
X141697368Y-78015114D01*
X141697368Y-78015114D02*
X141554511Y-78086542D01*
X141554511Y-78086542D02*
X140983082Y-78086542D01*
X142768797Y-77300828D02*
X143054511Y-77300828D01*
X143054511Y-77300828D02*
X143197368Y-77372257D01*
X143197368Y-77372257D02*
X143340225Y-77515114D01*
X143340225Y-77515114D02*
X143411654Y-77800828D01*
X143411654Y-77800828D02*
X143411654Y-78300828D01*
X143411654Y-78300828D02*
X143340225Y-78586542D01*
X143340225Y-78586542D02*
X143197368Y-78729400D01*
X143197368Y-78729400D02*
X143054511Y-78800828D01*
X143054511Y-78800828D02*
X142768797Y-78800828D01*
X142768797Y-78800828D02*
X142625940Y-78729400D01*
X142625940Y-78729400D02*
X142483082Y-78586542D01*
X142483082Y-78586542D02*
X142411654Y-78300828D01*
X142411654Y-78300828D02*
X142411654Y-77800828D01*
X142411654Y-77800828D02*
X142483082Y-77515114D01*
X142483082Y-77515114D02*
X142625940Y-77372257D01*
X142625940Y-77372257D02*
X142768797Y-77300828D01*
X143911654Y-77300828D02*
X144268797Y-78800828D01*
X144268797Y-78800828D02*
X144554511Y-77729400D01*
X144554511Y-77729400D02*
X144840226Y-78800828D01*
X144840226Y-78800828D02*
X145197369Y-77300828D01*
X145768797Y-78015114D02*
X146268797Y-78015114D01*
X146483083Y-78800828D02*
X145768797Y-78800828D01*
X145768797Y-78800828D02*
X145768797Y-77300828D01*
X145768797Y-77300828D02*
X146483083Y-77300828D01*
X147983083Y-78800828D02*
X147483083Y-78086542D01*
X147125940Y-78800828D02*
X147125940Y-77300828D01*
X147125940Y-77300828D02*
X147697369Y-77300828D01*
X147697369Y-77300828D02*
X147840226Y-77372257D01*
X147840226Y-77372257D02*
X147911655Y-77443685D01*
X147911655Y-77443685D02*
X147983083Y-77586542D01*
X147983083Y-77586542D02*
X147983083Y-77800828D01*
X147983083Y-77800828D02*
X147911655Y-77943685D01*
X147911655Y-77943685D02*
X147840226Y-78015114D01*
X147840226Y-78015114D02*
X147697369Y-78086542D01*
X147697369Y-78086542D02*
X147125940Y-78086542D01*
X148625940Y-78229400D02*
X149768798Y-78229400D01*
X150768798Y-77300828D02*
X150911655Y-77300828D01*
X150911655Y-77300828D02*
X151054512Y-77372257D01*
X151054512Y-77372257D02*
X151125941Y-77443685D01*
X151125941Y-77443685D02*
X151197369Y-77586542D01*
X151197369Y-77586542D02*
X151268798Y-77872257D01*
X151268798Y-77872257D02*
X151268798Y-78229400D01*
X151268798Y-78229400D02*
X151197369Y-78515114D01*
X151197369Y-78515114D02*
X151125941Y-78657971D01*
X151125941Y-78657971D02*
X151054512Y-78729400D01*
X151054512Y-78729400D02*
X150911655Y-78800828D01*
X150911655Y-78800828D02*
X150768798Y-78800828D01*
X150768798Y-78800828D02*
X150625941Y-78729400D01*
X150625941Y-78729400D02*
X150554512Y-78657971D01*
X150554512Y-78657971D02*
X150483083Y-78515114D01*
X150483083Y-78515114D02*
X150411655Y-78229400D01*
X150411655Y-78229400D02*
X150411655Y-77872257D01*
X150411655Y-77872257D02*
X150483083Y-77586542D01*
X150483083Y-77586542D02*
X150554512Y-77443685D01*
X150554512Y-77443685D02*
X150625941Y-77372257D01*
X150625941Y-77372257D02*
X150768798Y-77300828D01*
X152625940Y-77300828D02*
X151911654Y-77300828D01*
X151911654Y-77300828D02*
X151840226Y-78015114D01*
X151840226Y-78015114D02*
X151911654Y-77943685D01*
X151911654Y-77943685D02*
X152054512Y-77872257D01*
X152054512Y-77872257D02*
X152411654Y-77872257D01*
X152411654Y-77872257D02*
X152554512Y-77943685D01*
X152554512Y-77943685D02*
X152625940Y-78015114D01*
X152625940Y-78015114D02*
X152697369Y-78157971D01*
X152697369Y-78157971D02*
X152697369Y-78515114D01*
X152697369Y-78515114D02*
X152625940Y-78657971D01*
X152625940Y-78657971D02*
X152554512Y-78729400D01*
X152554512Y-78729400D02*
X152411654Y-78800828D01*
X152411654Y-78800828D02*
X152054512Y-78800828D01*
X152054512Y-78800828D02*
X151911654Y-78729400D01*
X151911654Y-78729400D02*
X151840226Y-78657971D01*
X153340225Y-78229400D02*
X154483083Y-78229400D01*
X155983083Y-78800828D02*
X155125940Y-78800828D01*
X155554511Y-78800828D02*
X155554511Y-77300828D01*
X155554511Y-77300828D02*
X155411654Y-77515114D01*
X155411654Y-77515114D02*
X155268797Y-77657971D01*
X155268797Y-77657971D02*
X155125940Y-77729400D01*
X156554511Y-77443685D02*
X156625939Y-77372257D01*
X156625939Y-77372257D02*
X156768797Y-77300828D01*
X156768797Y-77300828D02*
X157125939Y-77300828D01*
X157125939Y-77300828D02*
X157268797Y-77372257D01*
X157268797Y-77372257D02*
X157340225Y-77443685D01*
X157340225Y-77443685D02*
X157411654Y-77586542D01*
X157411654Y-77586542D02*
X157411654Y-77729400D01*
X157411654Y-77729400D02*
X157340225Y-77943685D01*
X157340225Y-77943685D02*
X156483082Y-78800828D01*
X156483082Y-78800828D02*
X157411654Y-78800828D01*
X158054510Y-78229400D02*
X159197368Y-78229400D01*
X159840225Y-77443685D02*
X159911653Y-77372257D01*
X159911653Y-77372257D02*
X160054511Y-77300828D01*
X160054511Y-77300828D02*
X160411653Y-77300828D01*
X160411653Y-77300828D02*
X160554511Y-77372257D01*
X160554511Y-77372257D02*
X160625939Y-77443685D01*
X160625939Y-77443685D02*
X160697368Y-77586542D01*
X160697368Y-77586542D02*
X160697368Y-77729400D01*
X160697368Y-77729400D02*
X160625939Y-77943685D01*
X160625939Y-77943685D02*
X159768796Y-78800828D01*
X159768796Y-78800828D02*
X160697368Y-78800828D01*
X161625939Y-77300828D02*
X161768796Y-77300828D01*
X161768796Y-77300828D02*
X161911653Y-77372257D01*
X161911653Y-77372257D02*
X161983082Y-77443685D01*
X161983082Y-77443685D02*
X162054510Y-77586542D01*
X162054510Y-77586542D02*
X162125939Y-77872257D01*
X162125939Y-77872257D02*
X162125939Y-78229400D01*
X162125939Y-78229400D02*
X162054510Y-78515114D01*
X162054510Y-78515114D02*
X161983082Y-78657971D01*
X161983082Y-78657971D02*
X161911653Y-78729400D01*
X161911653Y-78729400D02*
X161768796Y-78800828D01*
X161768796Y-78800828D02*
X161625939Y-78800828D01*
X161625939Y-78800828D02*
X161483082Y-78729400D01*
X161483082Y-78729400D02*
X161411653Y-78657971D01*
X161411653Y-78657971D02*
X161340224Y-78515114D01*
X161340224Y-78515114D02*
X161268796Y-78229400D01*
X161268796Y-78229400D02*
X161268796Y-77872257D01*
X161268796Y-77872257D02*
X161340224Y-77586542D01*
X161340224Y-77586542D02*
X161411653Y-77443685D01*
X161411653Y-77443685D02*
X161483082Y-77372257D01*
X161483082Y-77372257D02*
X161625939Y-77300828D01*
X162697367Y-77443685D02*
X162768795Y-77372257D01*
X162768795Y-77372257D02*
X162911653Y-77300828D01*
X162911653Y-77300828D02*
X163268795Y-77300828D01*
X163268795Y-77300828D02*
X163411653Y-77372257D01*
X163411653Y-77372257D02*
X163483081Y-77443685D01*
X163483081Y-77443685D02*
X163554510Y-77586542D01*
X163554510Y-77586542D02*
X163554510Y-77729400D01*
X163554510Y-77729400D02*
X163483081Y-77943685D01*
X163483081Y-77943685D02*
X162625938Y-78800828D01*
X162625938Y-78800828D02*
X163554510Y-78800828D01*
X164840224Y-77800828D02*
X164840224Y-78800828D01*
X164483081Y-77229400D02*
X164125938Y-78300828D01*
X164125938Y-78300828D02*
X165054509Y-78300828D01*
X165625937Y-78229400D02*
X166768795Y-78229400D01*
X167411652Y-78372257D02*
X168125938Y-78372257D01*
X167268795Y-78800828D02*
X167768795Y-77300828D01*
X167768795Y-77300828D02*
X168268795Y-78800828D01*
X169411652Y-77800828D02*
X169411652Y-78800828D01*
X169054509Y-77229400D02*
X168697366Y-78300828D01*
X168697366Y-78300828D02*
X169625937Y-78300828D01*
D12*
X109761904Y-99745180D02*
X109761904Y-98935657D01*
X109761904Y-98935657D02*
X109714285Y-98840419D01*
X109714285Y-98840419D02*
X109666666Y-98792800D01*
X109666666Y-98792800D02*
X109571428Y-98745180D01*
X109571428Y-98745180D02*
X109380952Y-98745180D01*
X109380952Y-98745180D02*
X109285714Y-98792800D01*
X109285714Y-98792800D02*
X109238095Y-98840419D01*
X109238095Y-98840419D02*
X109190476Y-98935657D01*
X109190476Y-98935657D02*
X109190476Y-99745180D01*
X108190476Y-98745180D02*
X108761904Y-98745180D01*
X108476190Y-98745180D02*
X108476190Y-99745180D01*
X108476190Y-99745180D02*
X108571428Y-99602323D01*
X108571428Y-99602323D02*
X108666666Y-99507085D01*
X108666666Y-99507085D02*
X108761904Y-99459466D01*
X143140419Y-177004697D02*
X143092800Y-176957078D01*
X143092800Y-176957078D02*
X143045180Y-176814221D01*
X143045180Y-176814221D02*
X143045180Y-176718983D01*
X143045180Y-176718983D02*
X143092800Y-176576126D01*
X143092800Y-176576126D02*
X143188038Y-176480888D01*
X143188038Y-176480888D02*
X143283276Y-176433269D01*
X143283276Y-176433269D02*
X143473752Y-176385650D01*
X143473752Y-176385650D02*
X143616609Y-176385650D01*
X143616609Y-176385650D02*
X143807085Y-176433269D01*
X143807085Y-176433269D02*
X143902323Y-176480888D01*
X143902323Y-176480888D02*
X143997561Y-176576126D01*
X143997561Y-176576126D02*
X144045180Y-176718983D01*
X144045180Y-176718983D02*
X144045180Y-176814221D01*
X144045180Y-176814221D02*
X143997561Y-176957078D01*
X143997561Y-176957078D02*
X143949942Y-177004697D01*
X143045180Y-177957078D02*
X143045180Y-177385650D01*
X143045180Y-177671364D02*
X144045180Y-177671364D01*
X144045180Y-177671364D02*
X143902323Y-177576126D01*
X143902323Y-177576126D02*
X143807085Y-177480888D01*
X143807085Y-177480888D02*
X143759466Y-177385650D01*
X144045180Y-178290412D02*
X144045180Y-178909459D01*
X144045180Y-178909459D02*
X143664228Y-178576126D01*
X143664228Y-178576126D02*
X143664228Y-178718983D01*
X143664228Y-178718983D02*
X143616609Y-178814221D01*
X143616609Y-178814221D02*
X143568990Y-178861840D01*
X143568990Y-178861840D02*
X143473752Y-178909459D01*
X143473752Y-178909459D02*
X143235657Y-178909459D01*
X143235657Y-178909459D02*
X143140419Y-178861840D01*
X143140419Y-178861840D02*
X143092800Y-178814221D01*
X143092800Y-178814221D02*
X143045180Y-178718983D01*
X143045180Y-178718983D02*
X143045180Y-178433269D01*
X143045180Y-178433269D02*
X143092800Y-178338031D01*
X143092800Y-178338031D02*
X143140419Y-178290412D01*
X102524819Y-116066666D02*
X102048628Y-116399999D01*
X102524819Y-116638094D02*
X101524819Y-116638094D01*
X101524819Y-116638094D02*
X101524819Y-116257142D01*
X101524819Y-116257142D02*
X101572438Y-116161904D01*
X101572438Y-116161904D02*
X101620057Y-116114285D01*
X101620057Y-116114285D02*
X101715295Y-116066666D01*
X101715295Y-116066666D02*
X101858152Y-116066666D01*
X101858152Y-116066666D02*
X101953390Y-116114285D01*
X101953390Y-116114285D02*
X102001009Y-116161904D01*
X102001009Y-116161904D02*
X102048628Y-116257142D01*
X102048628Y-116257142D02*
X102048628Y-116638094D01*
X101858152Y-115209523D02*
X102524819Y-115209523D01*
X101477200Y-115447618D02*
X102191485Y-115685713D01*
X102191485Y-115685713D02*
X102191485Y-115066666D01*
X98884819Y-116971428D02*
X98884819Y-117542856D01*
X98884819Y-117257142D02*
X97884819Y-117257142D01*
X97884819Y-117257142D02*
X98027676Y-117352380D01*
X98027676Y-117352380D02*
X98122914Y-117447618D01*
X98122914Y-117447618D02*
X98170533Y-117542856D01*
X98313390Y-116399999D02*
X98265771Y-116495237D01*
X98265771Y-116495237D02*
X98218152Y-116542856D01*
X98218152Y-116542856D02*
X98122914Y-116590475D01*
X98122914Y-116590475D02*
X98075295Y-116590475D01*
X98075295Y-116590475D02*
X97980057Y-116542856D01*
X97980057Y-116542856D02*
X97932438Y-116495237D01*
X97932438Y-116495237D02*
X97884819Y-116399999D01*
X97884819Y-116399999D02*
X97884819Y-116209523D01*
X97884819Y-116209523D02*
X97932438Y-116114285D01*
X97932438Y-116114285D02*
X97980057Y-116066666D01*
X97980057Y-116066666D02*
X98075295Y-116019047D01*
X98075295Y-116019047D02*
X98122914Y-116019047D01*
X98122914Y-116019047D02*
X98218152Y-116066666D01*
X98218152Y-116066666D02*
X98265771Y-116114285D01*
X98265771Y-116114285D02*
X98313390Y-116209523D01*
X98313390Y-116209523D02*
X98313390Y-116399999D01*
X98313390Y-116399999D02*
X98361009Y-116495237D01*
X98361009Y-116495237D02*
X98408628Y-116542856D01*
X98408628Y-116542856D02*
X98503866Y-116590475D01*
X98503866Y-116590475D02*
X98694342Y-116590475D01*
X98694342Y-116590475D02*
X98789580Y-116542856D01*
X98789580Y-116542856D02*
X98837200Y-116495237D01*
X98837200Y-116495237D02*
X98884819Y-116399999D01*
X98884819Y-116399999D02*
X98884819Y-116209523D01*
X98884819Y-116209523D02*
X98837200Y-116114285D01*
X98837200Y-116114285D02*
X98789580Y-116066666D01*
X98789580Y-116066666D02*
X98694342Y-116019047D01*
X98694342Y-116019047D02*
X98503866Y-116019047D01*
X98503866Y-116019047D02*
X98408628Y-116066666D01*
X98408628Y-116066666D02*
X98361009Y-116114285D01*
X98361009Y-116114285D02*
X98313390Y-116209523D01*
X97884819Y-115685713D02*
X97884819Y-115019047D01*
X97884819Y-115019047D02*
X98884819Y-115447618D01*
X98884819Y-114638094D02*
X97884819Y-114638094D01*
X98503866Y-114542856D02*
X98884819Y-114257142D01*
X98218152Y-114257142D02*
X98599104Y-114638094D01*
D13*
X144270380Y-118487963D02*
X144270380Y-119516058D01*
X144270380Y-119516058D02*
X144330857Y-119637010D01*
X144330857Y-119637010D02*
X144391333Y-119697487D01*
X144391333Y-119697487D02*
X144512285Y-119757963D01*
X144512285Y-119757963D02*
X144754190Y-119757963D01*
X144754190Y-119757963D02*
X144875142Y-119697487D01*
X144875142Y-119697487D02*
X144935619Y-119637010D01*
X144935619Y-119637010D02*
X144996095Y-119516058D01*
X144996095Y-119516058D02*
X144996095Y-118487963D01*
X146205618Y-118487963D02*
X145600856Y-118487963D01*
X145600856Y-118487963D02*
X145540380Y-119092725D01*
X145540380Y-119092725D02*
X145600856Y-119032248D01*
X145600856Y-119032248D02*
X145721809Y-118971772D01*
X145721809Y-118971772D02*
X146024190Y-118971772D01*
X146024190Y-118971772D02*
X146145142Y-119032248D01*
X146145142Y-119032248D02*
X146205618Y-119092725D01*
X146205618Y-119092725D02*
X146266095Y-119213677D01*
X146266095Y-119213677D02*
X146266095Y-119516058D01*
X146266095Y-119516058D02*
X146205618Y-119637010D01*
X146205618Y-119637010D02*
X146145142Y-119697487D01*
X146145142Y-119697487D02*
X146024190Y-119757963D01*
X146024190Y-119757963D02*
X145721809Y-119757963D01*
X145721809Y-119757963D02*
X145600856Y-119697487D01*
X145600856Y-119697487D02*
X145540380Y-119637010D01*
D12*
X161140419Y-154556642D02*
X161092800Y-154509023D01*
X161092800Y-154509023D02*
X161045180Y-154366166D01*
X161045180Y-154366166D02*
X161045180Y-154270928D01*
X161045180Y-154270928D02*
X161092800Y-154128071D01*
X161092800Y-154128071D02*
X161188038Y-154032833D01*
X161188038Y-154032833D02*
X161283276Y-153985214D01*
X161283276Y-153985214D02*
X161473752Y-153937595D01*
X161473752Y-153937595D02*
X161616609Y-153937595D01*
X161616609Y-153937595D02*
X161807085Y-153985214D01*
X161807085Y-153985214D02*
X161902323Y-154032833D01*
X161902323Y-154032833D02*
X161997561Y-154128071D01*
X161997561Y-154128071D02*
X162045180Y-154270928D01*
X162045180Y-154270928D02*
X162045180Y-154366166D01*
X162045180Y-154366166D02*
X161997561Y-154509023D01*
X161997561Y-154509023D02*
X161949942Y-154556642D01*
X161045180Y-155509023D02*
X161045180Y-154937595D01*
X161045180Y-155223309D02*
X162045180Y-155223309D01*
X162045180Y-155223309D02*
X161902323Y-155128071D01*
X161902323Y-155128071D02*
X161807085Y-155032833D01*
X161807085Y-155032833D02*
X161759466Y-154937595D01*
X162045180Y-156128071D02*
X162045180Y-156223309D01*
X162045180Y-156223309D02*
X161997561Y-156318547D01*
X161997561Y-156318547D02*
X161949942Y-156366166D01*
X161949942Y-156366166D02*
X161854704Y-156413785D01*
X161854704Y-156413785D02*
X161664228Y-156461404D01*
X161664228Y-156461404D02*
X161426133Y-156461404D01*
X161426133Y-156461404D02*
X161235657Y-156413785D01*
X161235657Y-156413785D02*
X161140419Y-156366166D01*
X161140419Y-156366166D02*
X161092800Y-156318547D01*
X161092800Y-156318547D02*
X161045180Y-156223309D01*
X161045180Y-156223309D02*
X161045180Y-156128071D01*
X161045180Y-156128071D02*
X161092800Y-156032833D01*
X161092800Y-156032833D02*
X161140419Y-155985214D01*
X161140419Y-155985214D02*
X161235657Y-155937595D01*
X161235657Y-155937595D02*
X161426133Y-155889976D01*
X161426133Y-155889976D02*
X161664228Y-155889976D01*
X161664228Y-155889976D02*
X161854704Y-155937595D01*
X161854704Y-155937595D02*
X161949942Y-155985214D01*
X161949942Y-155985214D02*
X161997561Y-156032833D01*
X161997561Y-156032833D02*
X162045180Y-156128071D01*
D13*
X182157856Y-187074318D02*
X182157856Y-185804318D01*
X182157856Y-185804318D02*
X182641666Y-185804318D01*
X182641666Y-185804318D02*
X182762618Y-185864794D01*
X182762618Y-185864794D02*
X182823095Y-185925270D01*
X182823095Y-185925270D02*
X182883571Y-186046222D01*
X182883571Y-186046222D02*
X182883571Y-186227651D01*
X182883571Y-186227651D02*
X182823095Y-186348603D01*
X182823095Y-186348603D02*
X182762618Y-186409080D01*
X182762618Y-186409080D02*
X182641666Y-186469556D01*
X182641666Y-186469556D02*
X182157856Y-186469556D01*
X183367380Y-187013842D02*
X183548809Y-187074318D01*
X183548809Y-187074318D02*
X183851190Y-187074318D01*
X183851190Y-187074318D02*
X183972142Y-187013842D01*
X183972142Y-187013842D02*
X184032618Y-186953365D01*
X184032618Y-186953365D02*
X184093095Y-186832413D01*
X184093095Y-186832413D02*
X184093095Y-186711461D01*
X184093095Y-186711461D02*
X184032618Y-186590508D01*
X184032618Y-186590508D02*
X183972142Y-186530032D01*
X183972142Y-186530032D02*
X183851190Y-186469556D01*
X183851190Y-186469556D02*
X183609285Y-186409080D01*
X183609285Y-186409080D02*
X183488333Y-186348603D01*
X183488333Y-186348603D02*
X183427856Y-186288127D01*
X183427856Y-186288127D02*
X183367380Y-186167175D01*
X183367380Y-186167175D02*
X183367380Y-186046222D01*
X183367380Y-186046222D02*
X183427856Y-185925270D01*
X183427856Y-185925270D02*
X183488333Y-185864794D01*
X183488333Y-185864794D02*
X183609285Y-185804318D01*
X183609285Y-185804318D02*
X183911666Y-185804318D01*
X183911666Y-185804318D02*
X184093095Y-185864794D01*
X184516428Y-185804318D02*
X185302619Y-185804318D01*
X185302619Y-185804318D02*
X184879285Y-186288127D01*
X184879285Y-186288127D02*
X185060714Y-186288127D01*
X185060714Y-186288127D02*
X185181666Y-186348603D01*
X185181666Y-186348603D02*
X185242142Y-186409080D01*
X185242142Y-186409080D02*
X185302619Y-186530032D01*
X185302619Y-186530032D02*
X185302619Y-186832413D01*
X185302619Y-186832413D02*
X185242142Y-186953365D01*
X185242142Y-186953365D02*
X185181666Y-187013842D01*
X185181666Y-187013842D02*
X185060714Y-187074318D01*
X185060714Y-187074318D02*
X184697857Y-187074318D01*
X184697857Y-187074318D02*
X184576904Y-187013842D01*
X184576904Y-187013842D02*
X184516428Y-186953365D01*
D12*
X141899819Y-177349449D02*
X140899819Y-177349449D01*
X140899819Y-177349449D02*
X140899819Y-177111354D01*
X140899819Y-177111354D02*
X140947438Y-176968497D01*
X140947438Y-176968497D02*
X141042676Y-176873259D01*
X141042676Y-176873259D02*
X141137914Y-176825640D01*
X141137914Y-176825640D02*
X141328390Y-176778021D01*
X141328390Y-176778021D02*
X141471247Y-176778021D01*
X141471247Y-176778021D02*
X141661723Y-176825640D01*
X141661723Y-176825640D02*
X141756961Y-176873259D01*
X141756961Y-176873259D02*
X141852200Y-176968497D01*
X141852200Y-176968497D02*
X141899819Y-177111354D01*
X141899819Y-177111354D02*
X141899819Y-177349449D01*
X141233152Y-175920878D02*
X141899819Y-175920878D01*
X140852200Y-176158973D02*
X141566485Y-176397068D01*
X141566485Y-176397068D02*
X141566485Y-175778021D01*
X102524819Y-111066666D02*
X102048628Y-111399999D01*
X102524819Y-111638094D02*
X101524819Y-111638094D01*
X101524819Y-111638094D02*
X101524819Y-111257142D01*
X101524819Y-111257142D02*
X101572438Y-111161904D01*
X101572438Y-111161904D02*
X101620057Y-111114285D01*
X101620057Y-111114285D02*
X101715295Y-111066666D01*
X101715295Y-111066666D02*
X101858152Y-111066666D01*
X101858152Y-111066666D02*
X101953390Y-111114285D01*
X101953390Y-111114285D02*
X102001009Y-111161904D01*
X102001009Y-111161904D02*
X102048628Y-111257142D01*
X102048628Y-111257142D02*
X102048628Y-111638094D01*
X101524819Y-110733332D02*
X101524819Y-110114285D01*
X101524819Y-110114285D02*
X101905771Y-110447618D01*
X101905771Y-110447618D02*
X101905771Y-110304761D01*
X101905771Y-110304761D02*
X101953390Y-110209523D01*
X101953390Y-110209523D02*
X102001009Y-110161904D01*
X102001009Y-110161904D02*
X102096247Y-110114285D01*
X102096247Y-110114285D02*
X102334342Y-110114285D01*
X102334342Y-110114285D02*
X102429580Y-110161904D01*
X102429580Y-110161904D02*
X102477200Y-110209523D01*
X102477200Y-110209523D02*
X102524819Y-110304761D01*
X102524819Y-110304761D02*
X102524819Y-110590475D01*
X102524819Y-110590475D02*
X102477200Y-110685713D01*
X102477200Y-110685713D02*
X102429580Y-110733332D01*
X98884819Y-111971428D02*
X98884819Y-112542856D01*
X98884819Y-112257142D02*
X97884819Y-112257142D01*
X97884819Y-112257142D02*
X98027676Y-112352380D01*
X98027676Y-112352380D02*
X98122914Y-112447618D01*
X98122914Y-112447618D02*
X98170533Y-112542856D01*
X98884819Y-111019047D02*
X98884819Y-111590475D01*
X98884819Y-111304761D02*
X97884819Y-111304761D01*
X97884819Y-111304761D02*
X98027676Y-111399999D01*
X98027676Y-111399999D02*
X98122914Y-111495237D01*
X98122914Y-111495237D02*
X98170533Y-111590475D01*
X97884819Y-110685713D02*
X97884819Y-110066666D01*
X97884819Y-110066666D02*
X98265771Y-110399999D01*
X98265771Y-110399999D02*
X98265771Y-110257142D01*
X98265771Y-110257142D02*
X98313390Y-110161904D01*
X98313390Y-110161904D02*
X98361009Y-110114285D01*
X98361009Y-110114285D02*
X98456247Y-110066666D01*
X98456247Y-110066666D02*
X98694342Y-110066666D01*
X98694342Y-110066666D02*
X98789580Y-110114285D01*
X98789580Y-110114285D02*
X98837200Y-110161904D01*
X98837200Y-110161904D02*
X98884819Y-110257142D01*
X98884819Y-110257142D02*
X98884819Y-110542856D01*
X98884819Y-110542856D02*
X98837200Y-110638094D01*
X98837200Y-110638094D02*
X98789580Y-110685713D01*
X98884819Y-109638094D02*
X97884819Y-109638094D01*
X98503866Y-109542856D02*
X98884819Y-109257142D01*
X98218152Y-109257142D02*
X98599104Y-109638094D01*
D13*
X217114318Y-75598332D02*
X218021461Y-75598332D01*
X218021461Y-75598332D02*
X218202889Y-75658809D01*
X218202889Y-75658809D02*
X218323842Y-75779761D01*
X218323842Y-75779761D02*
X218384318Y-75961190D01*
X218384318Y-75961190D02*
X218384318Y-76082142D01*
X217235270Y-75054047D02*
X217174794Y-74993571D01*
X217174794Y-74993571D02*
X217114318Y-74872618D01*
X217114318Y-74872618D02*
X217114318Y-74570237D01*
X217114318Y-74570237D02*
X217174794Y-74449285D01*
X217174794Y-74449285D02*
X217235270Y-74388809D01*
X217235270Y-74388809D02*
X217356222Y-74328332D01*
X217356222Y-74328332D02*
X217477175Y-74328332D01*
X217477175Y-74328332D02*
X217658603Y-74388809D01*
X217658603Y-74388809D02*
X218384318Y-75114523D01*
X218384318Y-75114523D02*
X218384318Y-74328332D01*
X185757856Y-135474318D02*
X185757856Y-134204318D01*
X185757856Y-134204318D02*
X186241666Y-134204318D01*
X186241666Y-134204318D02*
X186362618Y-134264794D01*
X186362618Y-134264794D02*
X186423095Y-134325270D01*
X186423095Y-134325270D02*
X186483571Y-134446222D01*
X186483571Y-134446222D02*
X186483571Y-134627651D01*
X186483571Y-134627651D02*
X186423095Y-134748603D01*
X186423095Y-134748603D02*
X186362618Y-134809080D01*
X186362618Y-134809080D02*
X186241666Y-134869556D01*
X186241666Y-134869556D02*
X185757856Y-134869556D01*
X186967380Y-135413842D02*
X187148809Y-135474318D01*
X187148809Y-135474318D02*
X187451190Y-135474318D01*
X187451190Y-135474318D02*
X187572142Y-135413842D01*
X187572142Y-135413842D02*
X187632618Y-135353365D01*
X187632618Y-135353365D02*
X187693095Y-135232413D01*
X187693095Y-135232413D02*
X187693095Y-135111461D01*
X187693095Y-135111461D02*
X187632618Y-134990508D01*
X187632618Y-134990508D02*
X187572142Y-134930032D01*
X187572142Y-134930032D02*
X187451190Y-134869556D01*
X187451190Y-134869556D02*
X187209285Y-134809080D01*
X187209285Y-134809080D02*
X187088333Y-134748603D01*
X187088333Y-134748603D02*
X187027856Y-134688127D01*
X187027856Y-134688127D02*
X186967380Y-134567175D01*
X186967380Y-134567175D02*
X186967380Y-134446222D01*
X186967380Y-134446222D02*
X187027856Y-134325270D01*
X187027856Y-134325270D02*
X187088333Y-134264794D01*
X187088333Y-134264794D02*
X187209285Y-134204318D01*
X187209285Y-134204318D02*
X187511666Y-134204318D01*
X187511666Y-134204318D02*
X187693095Y-134264794D01*
X188902619Y-135474318D02*
X188176904Y-135474318D01*
X188539761Y-135474318D02*
X188539761Y-134204318D01*
X188539761Y-134204318D02*
X188418809Y-134385746D01*
X188418809Y-134385746D02*
X188297857Y-134506699D01*
X188297857Y-134506699D02*
X188176904Y-134567175D01*
X228874318Y-155821190D02*
X228874318Y-156425952D01*
X228874318Y-156425952D02*
X227604318Y-156425952D01*
X228209080Y-155397857D02*
X228209080Y-154974523D01*
X228874318Y-154793095D02*
X228874318Y-155397857D01*
X228874318Y-155397857D02*
X227604318Y-155397857D01*
X227604318Y-155397857D02*
X227604318Y-154793095D01*
X228874318Y-154248809D02*
X227604318Y-154248809D01*
X227604318Y-154248809D02*
X227604318Y-153946428D01*
X227604318Y-153946428D02*
X227664794Y-153764999D01*
X227664794Y-153764999D02*
X227785746Y-153644047D01*
X227785746Y-153644047D02*
X227906699Y-153583570D01*
X227906699Y-153583570D02*
X228148603Y-153523094D01*
X228148603Y-153523094D02*
X228330032Y-153523094D01*
X228330032Y-153523094D02*
X228571937Y-153583570D01*
X228571937Y-153583570D02*
X228692889Y-153644047D01*
X228692889Y-153644047D02*
X228813842Y-153764999D01*
X228813842Y-153764999D02*
X228874318Y-153946428D01*
X228874318Y-153946428D02*
X228874318Y-154248809D01*
X227604318Y-153099761D02*
X227604318Y-152313570D01*
X227604318Y-152313570D02*
X228088127Y-152736904D01*
X228088127Y-152736904D02*
X228088127Y-152555475D01*
X228088127Y-152555475D02*
X228148603Y-152434523D01*
X228148603Y-152434523D02*
X228209080Y-152374047D01*
X228209080Y-152374047D02*
X228330032Y-152313570D01*
X228330032Y-152313570D02*
X228632413Y-152313570D01*
X228632413Y-152313570D02*
X228753365Y-152374047D01*
X228753365Y-152374047D02*
X228813842Y-152434523D01*
X228813842Y-152434523D02*
X228874318Y-152555475D01*
X228874318Y-152555475D02*
X228874318Y-152918332D01*
X228874318Y-152918332D02*
X228813842Y-153039285D01*
X228813842Y-153039285D02*
X228753365Y-153099761D01*
X184757856Y-160874318D02*
X184757856Y-159604318D01*
X184757856Y-159604318D02*
X185241666Y-159604318D01*
X185241666Y-159604318D02*
X185362618Y-159664794D01*
X185362618Y-159664794D02*
X185423095Y-159725270D01*
X185423095Y-159725270D02*
X185483571Y-159846222D01*
X185483571Y-159846222D02*
X185483571Y-160027651D01*
X185483571Y-160027651D02*
X185423095Y-160148603D01*
X185423095Y-160148603D02*
X185362618Y-160209080D01*
X185362618Y-160209080D02*
X185241666Y-160269556D01*
X185241666Y-160269556D02*
X184757856Y-160269556D01*
X185967380Y-160813842D02*
X186148809Y-160874318D01*
X186148809Y-160874318D02*
X186451190Y-160874318D01*
X186451190Y-160874318D02*
X186572142Y-160813842D01*
X186572142Y-160813842D02*
X186632618Y-160753365D01*
X186632618Y-160753365D02*
X186693095Y-160632413D01*
X186693095Y-160632413D02*
X186693095Y-160511461D01*
X186693095Y-160511461D02*
X186632618Y-160390508D01*
X186632618Y-160390508D02*
X186572142Y-160330032D01*
X186572142Y-160330032D02*
X186451190Y-160269556D01*
X186451190Y-160269556D02*
X186209285Y-160209080D01*
X186209285Y-160209080D02*
X186088333Y-160148603D01*
X186088333Y-160148603D02*
X186027856Y-160088127D01*
X186027856Y-160088127D02*
X185967380Y-159967175D01*
X185967380Y-159967175D02*
X185967380Y-159846222D01*
X185967380Y-159846222D02*
X186027856Y-159725270D01*
X186027856Y-159725270D02*
X186088333Y-159664794D01*
X186088333Y-159664794D02*
X186209285Y-159604318D01*
X186209285Y-159604318D02*
X186511666Y-159604318D01*
X186511666Y-159604318D02*
X186693095Y-159664794D01*
X187176904Y-159725270D02*
X187237380Y-159664794D01*
X187237380Y-159664794D02*
X187358333Y-159604318D01*
X187358333Y-159604318D02*
X187660714Y-159604318D01*
X187660714Y-159604318D02*
X187781666Y-159664794D01*
X187781666Y-159664794D02*
X187842142Y-159725270D01*
X187842142Y-159725270D02*
X187902619Y-159846222D01*
X187902619Y-159846222D02*
X187902619Y-159967175D01*
X187902619Y-159967175D02*
X187842142Y-160148603D01*
X187842142Y-160148603D02*
X187116428Y-160874318D01*
X187116428Y-160874318D02*
X187902619Y-160874318D01*
D12*
X176738095Y-68604819D02*
X176738095Y-67604819D01*
X176738095Y-68081009D02*
X177309523Y-68081009D01*
X177309523Y-68604819D02*
X177309523Y-67604819D01*
X177738095Y-67700057D02*
X177785714Y-67652438D01*
X177785714Y-67652438D02*
X177880952Y-67604819D01*
X177880952Y-67604819D02*
X178119047Y-67604819D01*
X178119047Y-67604819D02*
X178214285Y-67652438D01*
X178214285Y-67652438D02*
X178261904Y-67700057D01*
X178261904Y-67700057D02*
X178309523Y-67795295D01*
X178309523Y-67795295D02*
X178309523Y-67890533D01*
X178309523Y-67890533D02*
X178261904Y-68033390D01*
X178261904Y-68033390D02*
X177690476Y-68604819D01*
X177690476Y-68604819D02*
X178309523Y-68604819D01*
D13*
X227074318Y-182221190D02*
X227074318Y-182825952D01*
X227074318Y-182825952D02*
X225804318Y-182825952D01*
X226409080Y-181797857D02*
X226409080Y-181374523D01*
X227074318Y-181193095D02*
X227074318Y-181797857D01*
X227074318Y-181797857D02*
X225804318Y-181797857D01*
X225804318Y-181797857D02*
X225804318Y-181193095D01*
X227074318Y-180648809D02*
X225804318Y-180648809D01*
X225804318Y-180648809D02*
X225804318Y-180346428D01*
X225804318Y-180346428D02*
X225864794Y-180164999D01*
X225864794Y-180164999D02*
X225985746Y-180044047D01*
X225985746Y-180044047D02*
X226106699Y-179983570D01*
X226106699Y-179983570D02*
X226348603Y-179923094D01*
X226348603Y-179923094D02*
X226530032Y-179923094D01*
X226530032Y-179923094D02*
X226771937Y-179983570D01*
X226771937Y-179983570D02*
X226892889Y-180044047D01*
X226892889Y-180044047D02*
X227013842Y-180164999D01*
X227013842Y-180164999D02*
X227074318Y-180346428D01*
X227074318Y-180346428D02*
X227074318Y-180648809D01*
X226227651Y-178834523D02*
X227074318Y-178834523D01*
X225743842Y-179136904D02*
X226650984Y-179439285D01*
X226650984Y-179439285D02*
X226650984Y-178653094D01*
D12*
X218609580Y-129066666D02*
X218657200Y-129114285D01*
X218657200Y-129114285D02*
X218704819Y-129257142D01*
X218704819Y-129257142D02*
X218704819Y-129352380D01*
X218704819Y-129352380D02*
X218657200Y-129495237D01*
X218657200Y-129495237D02*
X218561961Y-129590475D01*
X218561961Y-129590475D02*
X218466723Y-129638094D01*
X218466723Y-129638094D02*
X218276247Y-129685713D01*
X218276247Y-129685713D02*
X218133390Y-129685713D01*
X218133390Y-129685713D02*
X217942914Y-129638094D01*
X217942914Y-129638094D02*
X217847676Y-129590475D01*
X217847676Y-129590475D02*
X217752438Y-129495237D01*
X217752438Y-129495237D02*
X217704819Y-129352380D01*
X217704819Y-129352380D02*
X217704819Y-129257142D01*
X217704819Y-129257142D02*
X217752438Y-129114285D01*
X217752438Y-129114285D02*
X217800057Y-129066666D01*
X217704819Y-128733332D02*
X217704819Y-128066666D01*
X217704819Y-128066666D02*
X218704819Y-128495237D01*
D13*
X144270380Y-142404318D02*
X144270380Y-143432413D01*
X144270380Y-143432413D02*
X144330857Y-143553365D01*
X144330857Y-143553365D02*
X144391333Y-143613842D01*
X144391333Y-143613842D02*
X144512285Y-143674318D01*
X144512285Y-143674318D02*
X144754190Y-143674318D01*
X144754190Y-143674318D02*
X144875142Y-143613842D01*
X144875142Y-143613842D02*
X144935619Y-143553365D01*
X144935619Y-143553365D02*
X144996095Y-143432413D01*
X144996095Y-143432413D02*
X144996095Y-142404318D01*
X146145142Y-142404318D02*
X145903237Y-142404318D01*
X145903237Y-142404318D02*
X145782285Y-142464794D01*
X145782285Y-142464794D02*
X145721809Y-142525270D01*
X145721809Y-142525270D02*
X145600856Y-142706699D01*
X145600856Y-142706699D02*
X145540380Y-142948603D01*
X145540380Y-142948603D02*
X145540380Y-143432413D01*
X145540380Y-143432413D02*
X145600856Y-143553365D01*
X145600856Y-143553365D02*
X145661333Y-143613842D01*
X145661333Y-143613842D02*
X145782285Y-143674318D01*
X145782285Y-143674318D02*
X146024190Y-143674318D01*
X146024190Y-143674318D02*
X146145142Y-143613842D01*
X146145142Y-143613842D02*
X146205618Y-143553365D01*
X146205618Y-143553365D02*
X146266095Y-143432413D01*
X146266095Y-143432413D02*
X146266095Y-143130032D01*
X146266095Y-143130032D02*
X146205618Y-143009080D01*
X146205618Y-143009080D02*
X146145142Y-142948603D01*
X146145142Y-142948603D02*
X146024190Y-142888127D01*
X146024190Y-142888127D02*
X145782285Y-142888127D01*
X145782285Y-142888127D02*
X145661333Y-142948603D01*
X145661333Y-142948603D02*
X145600856Y-143009080D01*
X145600856Y-143009080D02*
X145540380Y-143130032D01*
D12*
X216409580Y-154980357D02*
X216457200Y-155027976D01*
X216457200Y-155027976D02*
X216504819Y-155170833D01*
X216504819Y-155170833D02*
X216504819Y-155266071D01*
X216504819Y-155266071D02*
X216457200Y-155408928D01*
X216457200Y-155408928D02*
X216361961Y-155504166D01*
X216361961Y-155504166D02*
X216266723Y-155551785D01*
X216266723Y-155551785D02*
X216076247Y-155599404D01*
X216076247Y-155599404D02*
X215933390Y-155599404D01*
X215933390Y-155599404D02*
X215742914Y-155551785D01*
X215742914Y-155551785D02*
X215647676Y-155504166D01*
X215647676Y-155504166D02*
X215552438Y-155408928D01*
X215552438Y-155408928D02*
X215504819Y-155266071D01*
X215504819Y-155266071D02*
X215504819Y-155170833D01*
X215504819Y-155170833D02*
X215552438Y-155027976D01*
X215552438Y-155027976D02*
X215600057Y-154980357D01*
X216504819Y-154027976D02*
X216504819Y-154599404D01*
X216504819Y-154313690D02*
X215504819Y-154313690D01*
X215504819Y-154313690D02*
X215647676Y-154408928D01*
X215647676Y-154408928D02*
X215742914Y-154504166D01*
X215742914Y-154504166D02*
X215790533Y-154599404D01*
X216504819Y-153075595D02*
X216504819Y-153647023D01*
X216504819Y-153361309D02*
X215504819Y-153361309D01*
X215504819Y-153361309D02*
X215647676Y-153456547D01*
X215647676Y-153456547D02*
X215742914Y-153551785D01*
X215742914Y-153551785D02*
X215790533Y-153647023D01*
X143140419Y-129716978D02*
X143092800Y-129669359D01*
X143092800Y-129669359D02*
X143045180Y-129526502D01*
X143045180Y-129526502D02*
X143045180Y-129431264D01*
X143045180Y-129431264D02*
X143092800Y-129288407D01*
X143092800Y-129288407D02*
X143188038Y-129193169D01*
X143188038Y-129193169D02*
X143283276Y-129145550D01*
X143283276Y-129145550D02*
X143473752Y-129097931D01*
X143473752Y-129097931D02*
X143616609Y-129097931D01*
X143616609Y-129097931D02*
X143807085Y-129145550D01*
X143807085Y-129145550D02*
X143902323Y-129193169D01*
X143902323Y-129193169D02*
X143997561Y-129288407D01*
X143997561Y-129288407D02*
X144045180Y-129431264D01*
X144045180Y-129431264D02*
X144045180Y-129526502D01*
X144045180Y-129526502D02*
X143997561Y-129669359D01*
X143997561Y-129669359D02*
X143949942Y-129716978D01*
X144045180Y-130621740D02*
X144045180Y-130145550D01*
X144045180Y-130145550D02*
X143568990Y-130097931D01*
X143568990Y-130097931D02*
X143616609Y-130145550D01*
X143616609Y-130145550D02*
X143664228Y-130240788D01*
X143664228Y-130240788D02*
X143664228Y-130478883D01*
X143664228Y-130478883D02*
X143616609Y-130574121D01*
X143616609Y-130574121D02*
X143568990Y-130621740D01*
X143568990Y-130621740D02*
X143473752Y-130669359D01*
X143473752Y-130669359D02*
X143235657Y-130669359D01*
X143235657Y-130669359D02*
X143140419Y-130621740D01*
X143140419Y-130621740D02*
X143092800Y-130574121D01*
X143092800Y-130574121D02*
X143045180Y-130478883D01*
X143045180Y-130478883D02*
X143045180Y-130240788D01*
X143045180Y-130240788D02*
X143092800Y-130145550D01*
X143092800Y-130145550D02*
X143140419Y-130097931D01*
X222234819Y-175716666D02*
X221758628Y-176049999D01*
X222234819Y-176288094D02*
X221234819Y-176288094D01*
X221234819Y-176288094D02*
X221234819Y-175907142D01*
X221234819Y-175907142D02*
X221282438Y-175811904D01*
X221282438Y-175811904D02*
X221330057Y-175764285D01*
X221330057Y-175764285D02*
X221425295Y-175716666D01*
X221425295Y-175716666D02*
X221568152Y-175716666D01*
X221568152Y-175716666D02*
X221663390Y-175764285D01*
X221663390Y-175764285D02*
X221711009Y-175811904D01*
X221711009Y-175811904D02*
X221758628Y-175907142D01*
X221758628Y-175907142D02*
X221758628Y-176288094D01*
X221663390Y-175145237D02*
X221615771Y-175240475D01*
X221615771Y-175240475D02*
X221568152Y-175288094D01*
X221568152Y-175288094D02*
X221472914Y-175335713D01*
X221472914Y-175335713D02*
X221425295Y-175335713D01*
X221425295Y-175335713D02*
X221330057Y-175288094D01*
X221330057Y-175288094D02*
X221282438Y-175240475D01*
X221282438Y-175240475D02*
X221234819Y-175145237D01*
X221234819Y-175145237D02*
X221234819Y-174954761D01*
X221234819Y-174954761D02*
X221282438Y-174859523D01*
X221282438Y-174859523D02*
X221330057Y-174811904D01*
X221330057Y-174811904D02*
X221425295Y-174764285D01*
X221425295Y-174764285D02*
X221472914Y-174764285D01*
X221472914Y-174764285D02*
X221568152Y-174811904D01*
X221568152Y-174811904D02*
X221615771Y-174859523D01*
X221615771Y-174859523D02*
X221663390Y-174954761D01*
X221663390Y-174954761D02*
X221663390Y-175145237D01*
X221663390Y-175145237D02*
X221711009Y-175240475D01*
X221711009Y-175240475D02*
X221758628Y-175288094D01*
X221758628Y-175288094D02*
X221853866Y-175335713D01*
X221853866Y-175335713D02*
X222044342Y-175335713D01*
X222044342Y-175335713D02*
X222139580Y-175288094D01*
X222139580Y-175288094D02*
X222187200Y-175240475D01*
X222187200Y-175240475D02*
X222234819Y-175145237D01*
X222234819Y-175145237D02*
X222234819Y-174954761D01*
X222234819Y-174954761D02*
X222187200Y-174859523D01*
X222187200Y-174859523D02*
X222139580Y-174811904D01*
X222139580Y-174811904D02*
X222044342Y-174764285D01*
X222044342Y-174764285D02*
X221853866Y-174764285D01*
X221853866Y-174764285D02*
X221758628Y-174811904D01*
X221758628Y-174811904D02*
X221711009Y-174859523D01*
X221711009Y-174859523D02*
X221663390Y-174954761D01*
D13*
X97029318Y-75598332D02*
X97936461Y-75598332D01*
X97936461Y-75598332D02*
X98117889Y-75658809D01*
X98117889Y-75658809D02*
X98238842Y-75779761D01*
X98238842Y-75779761D02*
X98299318Y-75961190D01*
X98299318Y-75961190D02*
X98299318Y-76082142D01*
X98299318Y-74328332D02*
X98299318Y-75054047D01*
X98299318Y-74691190D02*
X97029318Y-74691190D01*
X97029318Y-74691190D02*
X97210746Y-74812142D01*
X97210746Y-74812142D02*
X97331699Y-74933094D01*
X97331699Y-74933094D02*
X97392175Y-75054047D01*
D12*
X106224819Y-106016666D02*
X105748628Y-106349999D01*
X106224819Y-106588094D02*
X105224819Y-106588094D01*
X105224819Y-106588094D02*
X105224819Y-106207142D01*
X105224819Y-106207142D02*
X105272438Y-106111904D01*
X105272438Y-106111904D02*
X105320057Y-106064285D01*
X105320057Y-106064285D02*
X105415295Y-106016666D01*
X105415295Y-106016666D02*
X105558152Y-106016666D01*
X105558152Y-106016666D02*
X105653390Y-106064285D01*
X105653390Y-106064285D02*
X105701009Y-106111904D01*
X105701009Y-106111904D02*
X105748628Y-106207142D01*
X105748628Y-106207142D02*
X105748628Y-106588094D01*
X106224819Y-105064285D02*
X106224819Y-105635713D01*
X106224819Y-105349999D02*
X105224819Y-105349999D01*
X105224819Y-105349999D02*
X105367676Y-105445237D01*
X105367676Y-105445237D02*
X105462914Y-105540475D01*
X105462914Y-105540475D02*
X105510533Y-105635713D01*
X114548116Y-113345819D02*
X114595735Y-113298200D01*
X114595735Y-113298200D02*
X114738592Y-113250580D01*
X114738592Y-113250580D02*
X114833830Y-113250580D01*
X114833830Y-113250580D02*
X114976687Y-113298200D01*
X114976687Y-113298200D02*
X115071925Y-113393438D01*
X115071925Y-113393438D02*
X115119544Y-113488676D01*
X115119544Y-113488676D02*
X115167163Y-113679152D01*
X115167163Y-113679152D02*
X115167163Y-113822009D01*
X115167163Y-113822009D02*
X115119544Y-114012485D01*
X115119544Y-114012485D02*
X115071925Y-114107723D01*
X115071925Y-114107723D02*
X114976687Y-114202961D01*
X114976687Y-114202961D02*
X114833830Y-114250580D01*
X114833830Y-114250580D02*
X114738592Y-114250580D01*
X114738592Y-114250580D02*
X114595735Y-114202961D01*
X114595735Y-114202961D02*
X114548116Y-114155342D01*
X113595735Y-113250580D02*
X114167163Y-113250580D01*
X113881449Y-113250580D02*
X113881449Y-114250580D01*
X113881449Y-114250580D02*
X113976687Y-114107723D01*
X113976687Y-114107723D02*
X114071925Y-114012485D01*
X114071925Y-114012485D02*
X114167163Y-113964866D01*
X92295180Y-113616666D02*
X91580895Y-113616666D01*
X91580895Y-113616666D02*
X91438038Y-113569047D01*
X91438038Y-113569047D02*
X91342800Y-113473809D01*
X91342800Y-113473809D02*
X91295180Y-113330952D01*
X91295180Y-113330952D02*
X91295180Y-113235714D01*
X92295180Y-113997619D02*
X92295180Y-114616666D01*
X92295180Y-114616666D02*
X91914228Y-114283333D01*
X91914228Y-114283333D02*
X91914228Y-114426190D01*
X91914228Y-114426190D02*
X91866609Y-114521428D01*
X91866609Y-114521428D02*
X91818990Y-114569047D01*
X91818990Y-114569047D02*
X91723752Y-114616666D01*
X91723752Y-114616666D02*
X91485657Y-114616666D01*
X91485657Y-114616666D02*
X91390419Y-114569047D01*
X91390419Y-114569047D02*
X91342800Y-114521428D01*
X91342800Y-114521428D02*
X91295180Y-114426190D01*
X91295180Y-114426190D02*
X91295180Y-114140476D01*
X91295180Y-114140476D02*
X91342800Y-114045238D01*
X91342800Y-114045238D02*
X91390419Y-113997619D01*
X161140419Y-131185278D02*
X161092800Y-131137659D01*
X161092800Y-131137659D02*
X161045180Y-130994802D01*
X161045180Y-130994802D02*
X161045180Y-130899564D01*
X161045180Y-130899564D02*
X161092800Y-130756707D01*
X161092800Y-130756707D02*
X161188038Y-130661469D01*
X161188038Y-130661469D02*
X161283276Y-130613850D01*
X161283276Y-130613850D02*
X161473752Y-130566231D01*
X161473752Y-130566231D02*
X161616609Y-130566231D01*
X161616609Y-130566231D02*
X161807085Y-130613850D01*
X161807085Y-130613850D02*
X161902323Y-130661469D01*
X161902323Y-130661469D02*
X161997561Y-130756707D01*
X161997561Y-130756707D02*
X162045180Y-130899564D01*
X162045180Y-130899564D02*
X162045180Y-130994802D01*
X162045180Y-130994802D02*
X161997561Y-131137659D01*
X161997561Y-131137659D02*
X161949942Y-131185278D01*
X162045180Y-132042421D02*
X162045180Y-131851945D01*
X162045180Y-131851945D02*
X161997561Y-131756707D01*
X161997561Y-131756707D02*
X161949942Y-131709088D01*
X161949942Y-131709088D02*
X161807085Y-131613850D01*
X161807085Y-131613850D02*
X161616609Y-131566231D01*
X161616609Y-131566231D02*
X161235657Y-131566231D01*
X161235657Y-131566231D02*
X161140419Y-131613850D01*
X161140419Y-131613850D02*
X161092800Y-131661469D01*
X161092800Y-131661469D02*
X161045180Y-131756707D01*
X161045180Y-131756707D02*
X161045180Y-131947183D01*
X161045180Y-131947183D02*
X161092800Y-132042421D01*
X161092800Y-132042421D02*
X161140419Y-132090040D01*
X161140419Y-132090040D02*
X161235657Y-132137659D01*
X161235657Y-132137659D02*
X161473752Y-132137659D01*
X161473752Y-132137659D02*
X161568990Y-132090040D01*
X161568990Y-132090040D02*
X161616609Y-132042421D01*
X161616609Y-132042421D02*
X161664228Y-131947183D01*
X161664228Y-131947183D02*
X161664228Y-131756707D01*
X161664228Y-131756707D02*
X161616609Y-131661469D01*
X161616609Y-131661469D02*
X161568990Y-131613850D01*
X161568990Y-131613850D02*
X161473752Y-131566231D01*
X203140419Y-180855642D02*
X203092800Y-180808023D01*
X203092800Y-180808023D02*
X203045180Y-180665166D01*
X203045180Y-180665166D02*
X203045180Y-180569928D01*
X203045180Y-180569928D02*
X203092800Y-180427071D01*
X203092800Y-180427071D02*
X203188038Y-180331833D01*
X203188038Y-180331833D02*
X203283276Y-180284214D01*
X203283276Y-180284214D02*
X203473752Y-180236595D01*
X203473752Y-180236595D02*
X203616609Y-180236595D01*
X203616609Y-180236595D02*
X203807085Y-180284214D01*
X203807085Y-180284214D02*
X203902323Y-180331833D01*
X203902323Y-180331833D02*
X203997561Y-180427071D01*
X203997561Y-180427071D02*
X204045180Y-180569928D01*
X204045180Y-180569928D02*
X204045180Y-180665166D01*
X204045180Y-180665166D02*
X203997561Y-180808023D01*
X203997561Y-180808023D02*
X203949942Y-180855642D01*
X203045180Y-181808023D02*
X203045180Y-181236595D01*
X203045180Y-181522309D02*
X204045180Y-181522309D01*
X204045180Y-181522309D02*
X203902323Y-181427071D01*
X203902323Y-181427071D02*
X203807085Y-181331833D01*
X203807085Y-181331833D02*
X203759466Y-181236595D01*
X203949942Y-182188976D02*
X203997561Y-182236595D01*
X203997561Y-182236595D02*
X204045180Y-182331833D01*
X204045180Y-182331833D02*
X204045180Y-182569928D01*
X204045180Y-182569928D02*
X203997561Y-182665166D01*
X203997561Y-182665166D02*
X203949942Y-182712785D01*
X203949942Y-182712785D02*
X203854704Y-182760404D01*
X203854704Y-182760404D02*
X203759466Y-182760404D01*
X203759466Y-182760404D02*
X203616609Y-182712785D01*
X203616609Y-182712785D02*
X203045180Y-182141357D01*
X203045180Y-182141357D02*
X203045180Y-182760404D01*
X150853333Y-149654819D02*
X150377143Y-149654819D01*
X150377143Y-149654819D02*
X150377143Y-148654819D01*
X151091429Y-148654819D02*
X151710476Y-148654819D01*
X151710476Y-148654819D02*
X151377143Y-149035771D01*
X151377143Y-149035771D02*
X151520000Y-149035771D01*
X151520000Y-149035771D02*
X151615238Y-149083390D01*
X151615238Y-149083390D02*
X151662857Y-149131009D01*
X151662857Y-149131009D02*
X151710476Y-149226247D01*
X151710476Y-149226247D02*
X151710476Y-149464342D01*
X151710476Y-149464342D02*
X151662857Y-149559580D01*
X151662857Y-149559580D02*
X151615238Y-149607200D01*
X151615238Y-149607200D02*
X151520000Y-149654819D01*
X151520000Y-149654819D02*
X151234286Y-149654819D01*
X151234286Y-149654819D02*
X151139048Y-149607200D01*
X151139048Y-149607200D02*
X151091429Y-149559580D01*
X112820595Y-98579820D02*
X112820595Y-99389343D01*
X112820595Y-99389343D02*
X112868214Y-99484581D01*
X112868214Y-99484581D02*
X112915833Y-99532201D01*
X112915833Y-99532201D02*
X113011071Y-99579820D01*
X113011071Y-99579820D02*
X113201547Y-99579820D01*
X113201547Y-99579820D02*
X113296785Y-99532201D01*
X113296785Y-99532201D02*
X113344404Y-99484581D01*
X113344404Y-99484581D02*
X113392023Y-99389343D01*
X113392023Y-99389343D02*
X113392023Y-98579820D01*
X113820595Y-98675058D02*
X113868214Y-98627439D01*
X113868214Y-98627439D02*
X113963452Y-98579820D01*
X113963452Y-98579820D02*
X114201547Y-98579820D01*
X114201547Y-98579820D02*
X114296785Y-98627439D01*
X114296785Y-98627439D02*
X114344404Y-98675058D01*
X114344404Y-98675058D02*
X114392023Y-98770296D01*
X114392023Y-98770296D02*
X114392023Y-98865534D01*
X114392023Y-98865534D02*
X114344404Y-99008391D01*
X114344404Y-99008391D02*
X113772976Y-99579820D01*
X113772976Y-99579820D02*
X114392023Y-99579820D01*
X208940419Y-155233333D02*
X208892800Y-155185714D01*
X208892800Y-155185714D02*
X208845180Y-155042857D01*
X208845180Y-155042857D02*
X208845180Y-154947619D01*
X208845180Y-154947619D02*
X208892800Y-154804762D01*
X208892800Y-154804762D02*
X208988038Y-154709524D01*
X208988038Y-154709524D02*
X209083276Y-154661905D01*
X209083276Y-154661905D02*
X209273752Y-154614286D01*
X209273752Y-154614286D02*
X209416609Y-154614286D01*
X209416609Y-154614286D02*
X209607085Y-154661905D01*
X209607085Y-154661905D02*
X209702323Y-154709524D01*
X209702323Y-154709524D02*
X209797561Y-154804762D01*
X209797561Y-154804762D02*
X209845180Y-154947619D01*
X209845180Y-154947619D02*
X209845180Y-155042857D01*
X209845180Y-155042857D02*
X209797561Y-155185714D01*
X209797561Y-155185714D02*
X209749942Y-155233333D01*
X209416609Y-155804762D02*
X209464228Y-155709524D01*
X209464228Y-155709524D02*
X209511847Y-155661905D01*
X209511847Y-155661905D02*
X209607085Y-155614286D01*
X209607085Y-155614286D02*
X209654704Y-155614286D01*
X209654704Y-155614286D02*
X209749942Y-155661905D01*
X209749942Y-155661905D02*
X209797561Y-155709524D01*
X209797561Y-155709524D02*
X209845180Y-155804762D01*
X209845180Y-155804762D02*
X209845180Y-155995238D01*
X209845180Y-155995238D02*
X209797561Y-156090476D01*
X209797561Y-156090476D02*
X209749942Y-156138095D01*
X209749942Y-156138095D02*
X209654704Y-156185714D01*
X209654704Y-156185714D02*
X209607085Y-156185714D01*
X209607085Y-156185714D02*
X209511847Y-156138095D01*
X209511847Y-156138095D02*
X209464228Y-156090476D01*
X209464228Y-156090476D02*
X209416609Y-155995238D01*
X209416609Y-155995238D02*
X209416609Y-155804762D01*
X209416609Y-155804762D02*
X209368990Y-155709524D01*
X209368990Y-155709524D02*
X209321371Y-155661905D01*
X209321371Y-155661905D02*
X209226133Y-155614286D01*
X209226133Y-155614286D02*
X209035657Y-155614286D01*
X209035657Y-155614286D02*
X208940419Y-155661905D01*
X208940419Y-155661905D02*
X208892800Y-155709524D01*
X208892800Y-155709524D02*
X208845180Y-155804762D01*
X208845180Y-155804762D02*
X208845180Y-155995238D01*
X208845180Y-155995238D02*
X208892800Y-156090476D01*
X208892800Y-156090476D02*
X208940419Y-156138095D01*
X208940419Y-156138095D02*
X209035657Y-156185714D01*
X209035657Y-156185714D02*
X209226133Y-156185714D01*
X209226133Y-156185714D02*
X209321371Y-156138095D01*
X209321371Y-156138095D02*
X209368990Y-156090476D01*
X209368990Y-156090476D02*
X209416609Y-155995238D01*
X161140419Y-178472997D02*
X161092800Y-178425378D01*
X161092800Y-178425378D02*
X161045180Y-178282521D01*
X161045180Y-178282521D02*
X161045180Y-178187283D01*
X161045180Y-178187283D02*
X161092800Y-178044426D01*
X161092800Y-178044426D02*
X161188038Y-177949188D01*
X161188038Y-177949188D02*
X161283276Y-177901569D01*
X161283276Y-177901569D02*
X161473752Y-177853950D01*
X161473752Y-177853950D02*
X161616609Y-177853950D01*
X161616609Y-177853950D02*
X161807085Y-177901569D01*
X161807085Y-177901569D02*
X161902323Y-177949188D01*
X161902323Y-177949188D02*
X161997561Y-178044426D01*
X161997561Y-178044426D02*
X162045180Y-178187283D01*
X162045180Y-178187283D02*
X162045180Y-178282521D01*
X162045180Y-178282521D02*
X161997561Y-178425378D01*
X161997561Y-178425378D02*
X161949942Y-178472997D01*
X161045180Y-179425378D02*
X161045180Y-178853950D01*
X161045180Y-179139664D02*
X162045180Y-179139664D01*
X162045180Y-179139664D02*
X161902323Y-179044426D01*
X161902323Y-179044426D02*
X161807085Y-178949188D01*
X161807085Y-178949188D02*
X161759466Y-178853950D01*
X161711847Y-180282521D02*
X161045180Y-180282521D01*
X162092800Y-180044426D02*
X161378514Y-179806331D01*
X161378514Y-179806331D02*
X161378514Y-180425378D01*
X141899819Y-129585539D02*
X140899819Y-129585539D01*
X140899819Y-129585539D02*
X140899819Y-129347444D01*
X140899819Y-129347444D02*
X140947438Y-129204587D01*
X140947438Y-129204587D02*
X141042676Y-129109349D01*
X141042676Y-129109349D02*
X141137914Y-129061730D01*
X141137914Y-129061730D02*
X141328390Y-129014111D01*
X141328390Y-129014111D02*
X141471247Y-129014111D01*
X141471247Y-129014111D02*
X141661723Y-129061730D01*
X141661723Y-129061730D02*
X141756961Y-129109349D01*
X141756961Y-129109349D02*
X141852200Y-129204587D01*
X141852200Y-129204587D02*
X141899819Y-129347444D01*
X141899819Y-129347444D02*
X141899819Y-129585539D01*
X140995057Y-128633158D02*
X140947438Y-128585539D01*
X140947438Y-128585539D02*
X140899819Y-128490301D01*
X140899819Y-128490301D02*
X140899819Y-128252206D01*
X140899819Y-128252206D02*
X140947438Y-128156968D01*
X140947438Y-128156968D02*
X140995057Y-128109349D01*
X140995057Y-128109349D02*
X141090295Y-128061730D01*
X141090295Y-128061730D02*
X141185533Y-128061730D01*
X141185533Y-128061730D02*
X141328390Y-128109349D01*
X141328390Y-128109349D02*
X141899819Y-128680777D01*
X141899819Y-128680777D02*
X141899819Y-128061730D01*
X219534819Y-131866666D02*
X219058628Y-132199999D01*
X219534819Y-132438094D02*
X218534819Y-132438094D01*
X218534819Y-132438094D02*
X218534819Y-132057142D01*
X218534819Y-132057142D02*
X218582438Y-131961904D01*
X218582438Y-131961904D02*
X218630057Y-131914285D01*
X218630057Y-131914285D02*
X218725295Y-131866666D01*
X218725295Y-131866666D02*
X218868152Y-131866666D01*
X218868152Y-131866666D02*
X218963390Y-131914285D01*
X218963390Y-131914285D02*
X219011009Y-131961904D01*
X219011009Y-131961904D02*
X219058628Y-132057142D01*
X219058628Y-132057142D02*
X219058628Y-132438094D01*
X218534819Y-130961904D02*
X218534819Y-131438094D01*
X218534819Y-131438094D02*
X219011009Y-131485713D01*
X219011009Y-131485713D02*
X218963390Y-131438094D01*
X218963390Y-131438094D02*
X218915771Y-131342856D01*
X218915771Y-131342856D02*
X218915771Y-131104761D01*
X218915771Y-131104761D02*
X218963390Y-131009523D01*
X218963390Y-131009523D02*
X219011009Y-130961904D01*
X219011009Y-130961904D02*
X219106247Y-130914285D01*
X219106247Y-130914285D02*
X219344342Y-130914285D01*
X219344342Y-130914285D02*
X219439580Y-130961904D01*
X219439580Y-130961904D02*
X219487200Y-131009523D01*
X219487200Y-131009523D02*
X219534819Y-131104761D01*
X219534819Y-131104761D02*
X219534819Y-131342856D01*
X219534819Y-131342856D02*
X219487200Y-131438094D01*
X219487200Y-131438094D02*
X219439580Y-131485713D01*
X150833333Y-125738464D02*
X150357143Y-125738464D01*
X150357143Y-125738464D02*
X150357143Y-124738464D01*
X151119048Y-124833702D02*
X151166667Y-124786083D01*
X151166667Y-124786083D02*
X151261905Y-124738464D01*
X151261905Y-124738464D02*
X151500000Y-124738464D01*
X151500000Y-124738464D02*
X151595238Y-124786083D01*
X151595238Y-124786083D02*
X151642857Y-124833702D01*
X151642857Y-124833702D02*
X151690476Y-124928940D01*
X151690476Y-124928940D02*
X151690476Y-125024178D01*
X151690476Y-125024178D02*
X151642857Y-125167035D01*
X151642857Y-125167035D02*
X151071429Y-125738464D01*
X151071429Y-125738464D02*
X151690476Y-125738464D01*
X143140419Y-153633333D02*
X143092800Y-153585714D01*
X143092800Y-153585714D02*
X143045180Y-153442857D01*
X143045180Y-153442857D02*
X143045180Y-153347619D01*
X143045180Y-153347619D02*
X143092800Y-153204762D01*
X143092800Y-153204762D02*
X143188038Y-153109524D01*
X143188038Y-153109524D02*
X143283276Y-153061905D01*
X143283276Y-153061905D02*
X143473752Y-153014286D01*
X143473752Y-153014286D02*
X143616609Y-153014286D01*
X143616609Y-153014286D02*
X143807085Y-153061905D01*
X143807085Y-153061905D02*
X143902323Y-153109524D01*
X143902323Y-153109524D02*
X143997561Y-153204762D01*
X143997561Y-153204762D02*
X144045180Y-153347619D01*
X144045180Y-153347619D02*
X144045180Y-153442857D01*
X144045180Y-153442857D02*
X143997561Y-153585714D01*
X143997561Y-153585714D02*
X143949942Y-153633333D01*
X143045180Y-154109524D02*
X143045180Y-154300000D01*
X143045180Y-154300000D02*
X143092800Y-154395238D01*
X143092800Y-154395238D02*
X143140419Y-154442857D01*
X143140419Y-154442857D02*
X143283276Y-154538095D01*
X143283276Y-154538095D02*
X143473752Y-154585714D01*
X143473752Y-154585714D02*
X143854704Y-154585714D01*
X143854704Y-154585714D02*
X143949942Y-154538095D01*
X143949942Y-154538095D02*
X143997561Y-154490476D01*
X143997561Y-154490476D02*
X144045180Y-154395238D01*
X144045180Y-154395238D02*
X144045180Y-154204762D01*
X144045180Y-154204762D02*
X143997561Y-154109524D01*
X143997561Y-154109524D02*
X143949942Y-154061905D01*
X143949942Y-154061905D02*
X143854704Y-154014286D01*
X143854704Y-154014286D02*
X143616609Y-154014286D01*
X143616609Y-154014286D02*
X143521371Y-154061905D01*
X143521371Y-154061905D02*
X143473752Y-154109524D01*
X143473752Y-154109524D02*
X143426133Y-154204762D01*
X143426133Y-154204762D02*
X143426133Y-154395238D01*
X143426133Y-154395238D02*
X143473752Y-154490476D01*
X143473752Y-154490476D02*
X143521371Y-154538095D01*
X143521371Y-154538095D02*
X143616609Y-154585714D01*
X178234819Y-108066666D02*
X177758628Y-108399999D01*
X178234819Y-108638094D02*
X177234819Y-108638094D01*
X177234819Y-108638094D02*
X177234819Y-108257142D01*
X177234819Y-108257142D02*
X177282438Y-108161904D01*
X177282438Y-108161904D02*
X177330057Y-108114285D01*
X177330057Y-108114285D02*
X177425295Y-108066666D01*
X177425295Y-108066666D02*
X177568152Y-108066666D01*
X177568152Y-108066666D02*
X177663390Y-108114285D01*
X177663390Y-108114285D02*
X177711009Y-108161904D01*
X177711009Y-108161904D02*
X177758628Y-108257142D01*
X177758628Y-108257142D02*
X177758628Y-108638094D01*
X177234819Y-107209523D02*
X177234819Y-107399999D01*
X177234819Y-107399999D02*
X177282438Y-107495237D01*
X177282438Y-107495237D02*
X177330057Y-107542856D01*
X177330057Y-107542856D02*
X177472914Y-107638094D01*
X177472914Y-107638094D02*
X177663390Y-107685713D01*
X177663390Y-107685713D02*
X178044342Y-107685713D01*
X178044342Y-107685713D02*
X178139580Y-107638094D01*
X178139580Y-107638094D02*
X178187200Y-107590475D01*
X178187200Y-107590475D02*
X178234819Y-107495237D01*
X178234819Y-107495237D02*
X178234819Y-107304761D01*
X178234819Y-107304761D02*
X178187200Y-107209523D01*
X178187200Y-107209523D02*
X178139580Y-107161904D01*
X178139580Y-107161904D02*
X178044342Y-107114285D01*
X178044342Y-107114285D02*
X177806247Y-107114285D01*
X177806247Y-107114285D02*
X177711009Y-107161904D01*
X177711009Y-107161904D02*
X177663390Y-107209523D01*
X177663390Y-107209523D02*
X177615771Y-107304761D01*
X177615771Y-107304761D02*
X177615771Y-107495237D01*
X177615771Y-107495237D02*
X177663390Y-107590475D01*
X177663390Y-107590475D02*
X177711009Y-107638094D01*
X177711009Y-107638094D02*
X177806247Y-107685713D01*
X141899819Y-153501894D02*
X140899819Y-153501894D01*
X140899819Y-153501894D02*
X140899819Y-153263799D01*
X140899819Y-153263799D02*
X140947438Y-153120942D01*
X140947438Y-153120942D02*
X141042676Y-153025704D01*
X141042676Y-153025704D02*
X141137914Y-152978085D01*
X141137914Y-152978085D02*
X141328390Y-152930466D01*
X141328390Y-152930466D02*
X141471247Y-152930466D01*
X141471247Y-152930466D02*
X141661723Y-152978085D01*
X141661723Y-152978085D02*
X141756961Y-153025704D01*
X141756961Y-153025704D02*
X141852200Y-153120942D01*
X141852200Y-153120942D02*
X141899819Y-153263799D01*
X141899819Y-153263799D02*
X141899819Y-153501894D01*
X140899819Y-152597132D02*
X140899819Y-151978085D01*
X140899819Y-151978085D02*
X141280771Y-152311418D01*
X141280771Y-152311418D02*
X141280771Y-152168561D01*
X141280771Y-152168561D02*
X141328390Y-152073323D01*
X141328390Y-152073323D02*
X141376009Y-152025704D01*
X141376009Y-152025704D02*
X141471247Y-151978085D01*
X141471247Y-151978085D02*
X141709342Y-151978085D01*
X141709342Y-151978085D02*
X141804580Y-152025704D01*
X141804580Y-152025704D02*
X141852200Y-152073323D01*
X141852200Y-152073323D02*
X141899819Y-152168561D01*
X141899819Y-152168561D02*
X141899819Y-152454275D01*
X141899819Y-152454275D02*
X141852200Y-152549513D01*
X141852200Y-152549513D02*
X141804580Y-152597132D01*
D13*
X180174318Y-114421190D02*
X180174318Y-115025952D01*
X180174318Y-115025952D02*
X178904318Y-115025952D01*
X179509080Y-113997857D02*
X179509080Y-113574523D01*
X180174318Y-113393095D02*
X180174318Y-113997857D01*
X180174318Y-113997857D02*
X178904318Y-113997857D01*
X178904318Y-113997857D02*
X178904318Y-113393095D01*
X180174318Y-112848809D02*
X178904318Y-112848809D01*
X178904318Y-112848809D02*
X178904318Y-112546428D01*
X178904318Y-112546428D02*
X178964794Y-112364999D01*
X178964794Y-112364999D02*
X179085746Y-112244047D01*
X179085746Y-112244047D02*
X179206699Y-112183570D01*
X179206699Y-112183570D02*
X179448603Y-112123094D01*
X179448603Y-112123094D02*
X179630032Y-112123094D01*
X179630032Y-112123094D02*
X179871937Y-112183570D01*
X179871937Y-112183570D02*
X179992889Y-112244047D01*
X179992889Y-112244047D02*
X180113842Y-112364999D01*
X180113842Y-112364999D02*
X180174318Y-112546428D01*
X180174318Y-112546428D02*
X180174318Y-112848809D01*
X179025270Y-111639285D02*
X178964794Y-111578809D01*
X178964794Y-111578809D02*
X178904318Y-111457856D01*
X178904318Y-111457856D02*
X178904318Y-111155475D01*
X178904318Y-111155475D02*
X178964794Y-111034523D01*
X178964794Y-111034523D02*
X179025270Y-110974047D01*
X179025270Y-110974047D02*
X179146222Y-110913570D01*
X179146222Y-110913570D02*
X179267175Y-110913570D01*
X179267175Y-110913570D02*
X179448603Y-110974047D01*
X179448603Y-110974047D02*
X180174318Y-111699761D01*
X180174318Y-111699761D02*
X180174318Y-110913570D01*
D12*
X210940419Y-129787633D02*
X210892800Y-129740014D01*
X210892800Y-129740014D02*
X210845180Y-129597157D01*
X210845180Y-129597157D02*
X210845180Y-129501919D01*
X210845180Y-129501919D02*
X210892800Y-129359062D01*
X210892800Y-129359062D02*
X210988038Y-129263824D01*
X210988038Y-129263824D02*
X211083276Y-129216205D01*
X211083276Y-129216205D02*
X211273752Y-129168586D01*
X211273752Y-129168586D02*
X211416609Y-129168586D01*
X211416609Y-129168586D02*
X211607085Y-129216205D01*
X211607085Y-129216205D02*
X211702323Y-129263824D01*
X211702323Y-129263824D02*
X211797561Y-129359062D01*
X211797561Y-129359062D02*
X211845180Y-129501919D01*
X211845180Y-129501919D02*
X211845180Y-129597157D01*
X211845180Y-129597157D02*
X211797561Y-129740014D01*
X211797561Y-129740014D02*
X211749942Y-129787633D01*
X211511847Y-130644776D02*
X210845180Y-130644776D01*
X211892800Y-130406681D02*
X211178514Y-130168586D01*
X211178514Y-130168586D02*
X211178514Y-130787633D01*
X224334819Y-149616666D02*
X223858628Y-149949999D01*
X224334819Y-150188094D02*
X223334819Y-150188094D01*
X223334819Y-150188094D02*
X223334819Y-149807142D01*
X223334819Y-149807142D02*
X223382438Y-149711904D01*
X223382438Y-149711904D02*
X223430057Y-149664285D01*
X223430057Y-149664285D02*
X223525295Y-149616666D01*
X223525295Y-149616666D02*
X223668152Y-149616666D01*
X223668152Y-149616666D02*
X223763390Y-149664285D01*
X223763390Y-149664285D02*
X223811009Y-149711904D01*
X223811009Y-149711904D02*
X223858628Y-149807142D01*
X223858628Y-149807142D02*
X223858628Y-150188094D01*
X223334819Y-149283332D02*
X223334819Y-148616666D01*
X223334819Y-148616666D02*
X224334819Y-149045237D01*
D13*
X224174318Y-138396190D02*
X224174318Y-139000952D01*
X224174318Y-139000952D02*
X222904318Y-139000952D01*
X223509080Y-137972857D02*
X223509080Y-137549523D01*
X224174318Y-137368095D02*
X224174318Y-137972857D01*
X224174318Y-137972857D02*
X222904318Y-137972857D01*
X222904318Y-137972857D02*
X222904318Y-137368095D01*
X224174318Y-136823809D02*
X222904318Y-136823809D01*
X222904318Y-136823809D02*
X222904318Y-136521428D01*
X222904318Y-136521428D02*
X222964794Y-136339999D01*
X222964794Y-136339999D02*
X223085746Y-136219047D01*
X223085746Y-136219047D02*
X223206699Y-136158570D01*
X223206699Y-136158570D02*
X223448603Y-136098094D01*
X223448603Y-136098094D02*
X223630032Y-136098094D01*
X223630032Y-136098094D02*
X223871937Y-136158570D01*
X223871937Y-136158570D02*
X223992889Y-136219047D01*
X223992889Y-136219047D02*
X224113842Y-136339999D01*
X224113842Y-136339999D02*
X224174318Y-136521428D01*
X224174318Y-136521428D02*
X224174318Y-136823809D01*
X224174318Y-134888570D02*
X224174318Y-135614285D01*
X224174318Y-135251428D02*
X222904318Y-135251428D01*
X222904318Y-135251428D02*
X223085746Y-135372380D01*
X223085746Y-135372380D02*
X223206699Y-135493332D01*
X223206699Y-135493332D02*
X223267175Y-135614285D01*
D12*
X150853333Y-173471174D02*
X150377143Y-173471174D01*
X150377143Y-173471174D02*
X150377143Y-172471174D01*
X151615238Y-172804507D02*
X151615238Y-173471174D01*
X151377143Y-172423555D02*
X151139048Y-173137840D01*
X151139048Y-173137840D02*
X151758095Y-173137840D01*
X110173645Y-105929820D02*
X110173645Y-106739343D01*
X110173645Y-106739343D02*
X110221264Y-106834581D01*
X110221264Y-106834581D02*
X110268883Y-106882201D01*
X110268883Y-106882201D02*
X110364121Y-106929820D01*
X110364121Y-106929820D02*
X110554597Y-106929820D01*
X110554597Y-106929820D02*
X110649835Y-106882201D01*
X110649835Y-106882201D02*
X110697454Y-106834581D01*
X110697454Y-106834581D02*
X110745073Y-106739343D01*
X110745073Y-106739343D02*
X110745073Y-105929820D01*
X111126026Y-105929820D02*
X111745073Y-105929820D01*
X111745073Y-105929820D02*
X111411740Y-106310772D01*
X111411740Y-106310772D02*
X111554597Y-106310772D01*
X111554597Y-106310772D02*
X111649835Y-106358391D01*
X111649835Y-106358391D02*
X111697454Y-106406010D01*
X111697454Y-106406010D02*
X111745073Y-106501248D01*
X111745073Y-106501248D02*
X111745073Y-106739343D01*
X111745073Y-106739343D02*
X111697454Y-106834581D01*
X111697454Y-106834581D02*
X111649835Y-106882201D01*
X111649835Y-106882201D02*
X111554597Y-106929820D01*
X111554597Y-106929820D02*
X111268883Y-106929820D01*
X111268883Y-106929820D02*
X111173645Y-106882201D01*
X111173645Y-106882201D02*
X111126026Y-106834581D01*
X109367100Y-103405420D02*
X109367100Y-103643515D01*
X109129005Y-103548277D02*
X109367100Y-103643515D01*
X109367100Y-103643515D02*
X109605195Y-103548277D01*
X109224243Y-103833991D02*
X109367100Y-103643515D01*
X109367100Y-103643515D02*
X109509957Y-103833991D01*
X109367100Y-103405420D02*
X109367100Y-103643515D01*
X109129005Y-103548277D02*
X109367100Y-103643515D01*
X109367100Y-103643515D02*
X109605195Y-103548277D01*
X109224243Y-103833991D02*
X109367100Y-103643515D01*
X109367100Y-103643515D02*
X109509957Y-103833991D01*
X102524819Y-106016666D02*
X102048628Y-106349999D01*
X102524819Y-106588094D02*
X101524819Y-106588094D01*
X101524819Y-106588094D02*
X101524819Y-106207142D01*
X101524819Y-106207142D02*
X101572438Y-106111904D01*
X101572438Y-106111904D02*
X101620057Y-106064285D01*
X101620057Y-106064285D02*
X101715295Y-106016666D01*
X101715295Y-106016666D02*
X101858152Y-106016666D01*
X101858152Y-106016666D02*
X101953390Y-106064285D01*
X101953390Y-106064285D02*
X102001009Y-106111904D01*
X102001009Y-106111904D02*
X102048628Y-106207142D01*
X102048628Y-106207142D02*
X102048628Y-106588094D01*
X101620057Y-105635713D02*
X101572438Y-105588094D01*
X101572438Y-105588094D02*
X101524819Y-105492856D01*
X101524819Y-105492856D02*
X101524819Y-105254761D01*
X101524819Y-105254761D02*
X101572438Y-105159523D01*
X101572438Y-105159523D02*
X101620057Y-105111904D01*
X101620057Y-105111904D02*
X101715295Y-105064285D01*
X101715295Y-105064285D02*
X101810533Y-105064285D01*
X101810533Y-105064285D02*
X101953390Y-105111904D01*
X101953390Y-105111904D02*
X102524819Y-105683332D01*
X102524819Y-105683332D02*
X102524819Y-105064285D01*
X98313390Y-107778571D02*
X98265771Y-107873809D01*
X98265771Y-107873809D02*
X98218152Y-107921428D01*
X98218152Y-107921428D02*
X98122914Y-107969047D01*
X98122914Y-107969047D02*
X98075295Y-107969047D01*
X98075295Y-107969047D02*
X97980057Y-107921428D01*
X97980057Y-107921428D02*
X97932438Y-107873809D01*
X97932438Y-107873809D02*
X97884819Y-107778571D01*
X97884819Y-107778571D02*
X97884819Y-107588095D01*
X97884819Y-107588095D02*
X97932438Y-107492857D01*
X97932438Y-107492857D02*
X97980057Y-107445238D01*
X97980057Y-107445238D02*
X98075295Y-107397619D01*
X98075295Y-107397619D02*
X98122914Y-107397619D01*
X98122914Y-107397619D02*
X98218152Y-107445238D01*
X98218152Y-107445238D02*
X98265771Y-107492857D01*
X98265771Y-107492857D02*
X98313390Y-107588095D01*
X98313390Y-107588095D02*
X98313390Y-107778571D01*
X98313390Y-107778571D02*
X98361009Y-107873809D01*
X98361009Y-107873809D02*
X98408628Y-107921428D01*
X98408628Y-107921428D02*
X98503866Y-107969047D01*
X98503866Y-107969047D02*
X98694342Y-107969047D01*
X98694342Y-107969047D02*
X98789580Y-107921428D01*
X98789580Y-107921428D02*
X98837200Y-107873809D01*
X98837200Y-107873809D02*
X98884819Y-107778571D01*
X98884819Y-107778571D02*
X98884819Y-107588095D01*
X98884819Y-107588095D02*
X98837200Y-107492857D01*
X98837200Y-107492857D02*
X98789580Y-107445238D01*
X98789580Y-107445238D02*
X98694342Y-107397619D01*
X98694342Y-107397619D02*
X98503866Y-107397619D01*
X98503866Y-107397619D02*
X98408628Y-107445238D01*
X98408628Y-107445238D02*
X98361009Y-107492857D01*
X98361009Y-107492857D02*
X98313390Y-107588095D01*
X97884819Y-107064285D02*
X97884819Y-106397619D01*
X97884819Y-106397619D02*
X98884819Y-106826190D01*
X97884819Y-105826190D02*
X97884819Y-105730952D01*
X97884819Y-105730952D02*
X97932438Y-105635714D01*
X97932438Y-105635714D02*
X97980057Y-105588095D01*
X97980057Y-105588095D02*
X98075295Y-105540476D01*
X98075295Y-105540476D02*
X98265771Y-105492857D01*
X98265771Y-105492857D02*
X98503866Y-105492857D01*
X98503866Y-105492857D02*
X98694342Y-105540476D01*
X98694342Y-105540476D02*
X98789580Y-105588095D01*
X98789580Y-105588095D02*
X98837200Y-105635714D01*
X98837200Y-105635714D02*
X98884819Y-105730952D01*
X98884819Y-105730952D02*
X98884819Y-105826190D01*
X98884819Y-105826190D02*
X98837200Y-105921428D01*
X98837200Y-105921428D02*
X98789580Y-105969047D01*
X98789580Y-105969047D02*
X98694342Y-106016666D01*
X98694342Y-106016666D02*
X98503866Y-106064285D01*
X98503866Y-106064285D02*
X98265771Y-106064285D01*
X98265771Y-106064285D02*
X98075295Y-106016666D01*
X98075295Y-106016666D02*
X97980057Y-105969047D01*
X97980057Y-105969047D02*
X97932438Y-105921428D01*
X97932438Y-105921428D02*
X97884819Y-105826190D01*
X97884819Y-104873809D02*
X97884819Y-104778571D01*
X97884819Y-104778571D02*
X97932438Y-104683333D01*
X97932438Y-104683333D02*
X97980057Y-104635714D01*
X97980057Y-104635714D02*
X98075295Y-104588095D01*
X98075295Y-104588095D02*
X98265771Y-104540476D01*
X98265771Y-104540476D02*
X98503866Y-104540476D01*
X98503866Y-104540476D02*
X98694342Y-104588095D01*
X98694342Y-104588095D02*
X98789580Y-104635714D01*
X98789580Y-104635714D02*
X98837200Y-104683333D01*
X98837200Y-104683333D02*
X98884819Y-104778571D01*
X98884819Y-104778571D02*
X98884819Y-104873809D01*
X98884819Y-104873809D02*
X98837200Y-104969047D01*
X98837200Y-104969047D02*
X98789580Y-105016666D01*
X98789580Y-105016666D02*
X98694342Y-105064285D01*
X98694342Y-105064285D02*
X98503866Y-105111904D01*
X98503866Y-105111904D02*
X98265771Y-105111904D01*
X98265771Y-105111904D02*
X98075295Y-105064285D01*
X98075295Y-105064285D02*
X97980057Y-105016666D01*
X97980057Y-105016666D02*
X97932438Y-104969047D01*
X97932438Y-104969047D02*
X97884819Y-104873809D01*
X98884819Y-104111904D02*
X97884819Y-104111904D01*
X98503866Y-104016666D02*
X98884819Y-103730952D01*
X98218152Y-103730952D02*
X98599104Y-104111904D01*
D13*
X144270380Y-166251873D02*
X144270380Y-167279968D01*
X144270380Y-167279968D02*
X144330857Y-167400920D01*
X144330857Y-167400920D02*
X144391333Y-167461397D01*
X144391333Y-167461397D02*
X144512285Y-167521873D01*
X144512285Y-167521873D02*
X144754190Y-167521873D01*
X144754190Y-167521873D02*
X144875142Y-167461397D01*
X144875142Y-167461397D02*
X144935619Y-167400920D01*
X144935619Y-167400920D02*
X144996095Y-167279968D01*
X144996095Y-167279968D02*
X144996095Y-166251873D01*
X145479904Y-166251873D02*
X146326571Y-166251873D01*
X146326571Y-166251873D02*
X145782285Y-167521873D01*
D12*
X210809580Y-181141357D02*
X210857200Y-181188976D01*
X210857200Y-181188976D02*
X210904819Y-181331833D01*
X210904819Y-181331833D02*
X210904819Y-181427071D01*
X210904819Y-181427071D02*
X210857200Y-181569928D01*
X210857200Y-181569928D02*
X210761961Y-181665166D01*
X210761961Y-181665166D02*
X210666723Y-181712785D01*
X210666723Y-181712785D02*
X210476247Y-181760404D01*
X210476247Y-181760404D02*
X210333390Y-181760404D01*
X210333390Y-181760404D02*
X210142914Y-181712785D01*
X210142914Y-181712785D02*
X210047676Y-181665166D01*
X210047676Y-181665166D02*
X209952438Y-181569928D01*
X209952438Y-181569928D02*
X209904819Y-181427071D01*
X209904819Y-181427071D02*
X209904819Y-181331833D01*
X209904819Y-181331833D02*
X209952438Y-181188976D01*
X209952438Y-181188976D02*
X210000057Y-181141357D01*
X210904819Y-180188976D02*
X210904819Y-180760404D01*
X210904819Y-180474690D02*
X209904819Y-180474690D01*
X209904819Y-180474690D02*
X210047676Y-180569928D01*
X210047676Y-180569928D02*
X210142914Y-180665166D01*
X210142914Y-180665166D02*
X210190533Y-180760404D01*
X209904819Y-179284214D02*
X209904819Y-179760404D01*
X209904819Y-179760404D02*
X210381009Y-179808023D01*
X210381009Y-179808023D02*
X210333390Y-179760404D01*
X210333390Y-179760404D02*
X210285771Y-179665166D01*
X210285771Y-179665166D02*
X210285771Y-179427071D01*
X210285771Y-179427071D02*
X210333390Y-179331833D01*
X210333390Y-179331833D02*
X210381009Y-179284214D01*
X210381009Y-179284214D02*
X210476247Y-179236595D01*
X210476247Y-179236595D02*
X210714342Y-179236595D01*
X210714342Y-179236595D02*
X210809580Y-179284214D01*
X210809580Y-179284214D02*
X210857200Y-179331833D01*
X210857200Y-179331833D02*
X210904819Y-179427071D01*
X210904819Y-179427071D02*
X210904819Y-179665166D01*
X210904819Y-179665166D02*
X210857200Y-179760404D01*
X210857200Y-179760404D02*
X210809580Y-179808023D01*
D14*
%TO.C,U1*%
X107298200Y-97498200D02*
X107298200Y-97689061D01*
X107298200Y-100710939D02*
X107298200Y-100901800D01*
X107298200Y-100901800D02*
X110701800Y-100901800D01*
X110701800Y-97498200D02*
X107298200Y-97498200D01*
X110701800Y-97689061D02*
X110701800Y-97498200D01*
X110701800Y-100901800D02*
X110701800Y-100710939D01*
%TO.C,C13*%
X141223004Y-173720563D02*
X141223004Y-181574547D01*
X141223004Y-181574547D02*
X141946563Y-181574547D01*
X141946563Y-173720563D02*
X141223004Y-173720563D01*
X143500000Y-172763364D02*
X143500000Y-172001364D01*
X143881000Y-172382364D02*
X143119000Y-172382364D01*
X145053437Y-181574547D02*
X145776996Y-181574547D01*
X145776996Y-173720563D02*
X145053437Y-173720563D01*
X145776996Y-181574547D02*
X145776996Y-173720563D01*
D15*
%TO.C,R4*%
X99340000Y-115172936D02*
X99340000Y-116627064D01*
X101160000Y-115172936D02*
X101160000Y-116627064D01*
D10*
%TO.C,U5*%
X133700000Y-114583645D02*
X133700000Y-118260645D01*
X133700000Y-114583645D02*
X158100000Y-114583645D01*
X133700000Y-123983645D02*
X133700000Y-120306645D01*
X158100000Y-114583645D02*
X158100000Y-118260645D01*
X158100000Y-123983645D02*
X133700000Y-123983645D01*
X158100000Y-123983645D02*
X158100000Y-120306645D01*
X133079490Y-119170645D02*
G75*
G02*
X132946510Y-119170645I-66490J0D01*
G01*
X132946510Y-119170645D02*
G75*
G02*
X133079490Y-119170645I66490J0D01*
G01*
D14*
%TO.C,C10*%
X156216800Y-149916300D02*
X156216800Y-160482700D01*
X156216800Y-160482700D02*
X160468760Y-160482700D01*
X160468760Y-149916300D02*
X156216800Y-149916300D01*
X162531240Y-160482700D02*
X166783200Y-160482700D01*
X166783200Y-149916300D02*
X162531240Y-149916300D01*
X166783200Y-160482700D02*
X166783200Y-149916300D01*
X161576200Y-148786000D02*
G75*
G02*
X161423800Y-148786000I-76200J0D01*
G01*
X161423800Y-148786000D02*
G75*
G02*
X161576200Y-148786000I76200J0D01*
G01*
D16*
%TO.C,PS3*%
X169095000Y-189040000D02*
X169095000Y-189040000D01*
X169195000Y-189040000D02*
X169195000Y-189040000D01*
X170405000Y-198500000D02*
X170405000Y-174500000D01*
X192355000Y-174300000D02*
X176355000Y-174300000D01*
X192355000Y-198700000D02*
X170355000Y-198700000D01*
X198305000Y-198700000D02*
X198305000Y-174500000D01*
X169095000Y-189040000D02*
G75*
G02*
X169195000Y-189040000I50000J0D01*
G01*
X169195000Y-189040000D02*
G75*
G02*
X169095000Y-189040000I-50000J0D01*
G01*
D17*
%TO.C,D4*%
X134047500Y-175088855D02*
X134047500Y-181943855D01*
X134047500Y-181943855D02*
X135100000Y-181943855D01*
X135100000Y-175088855D02*
X134047500Y-175088855D01*
X138900000Y-175088855D02*
X139952500Y-175088855D01*
X139952500Y-175088855D02*
X139952500Y-181943855D01*
X139952500Y-181943855D02*
X138900000Y-181943855D01*
D10*
X137200000Y-173016355D02*
G75*
G02*
X137000000Y-173016355I-100000J0D01*
G01*
X137000000Y-173016355D02*
G75*
G02*
X137200000Y-173016355I100000J0D01*
G01*
D15*
%TO.C,R3*%
X99340000Y-110172936D02*
X99340000Y-111627064D01*
X101160000Y-110172936D02*
X101160000Y-111627064D01*
D16*
%TO.C,J2*%
X190300000Y-68000000D02*
X190300000Y-79510000D01*
X190300000Y-79510000D02*
X200155000Y-79510000D01*
X199555000Y-57840000D02*
X199585000Y-68000000D01*
X199585000Y-68000000D02*
X190300000Y-68000000D01*
X200155000Y-79510000D02*
X200155000Y-92510000D01*
X200155000Y-92510000D02*
X235465000Y-92510000D01*
X235465000Y-79510000D02*
X245320000Y-79510000D01*
X235465000Y-92510000D02*
X235465000Y-79510000D01*
X236035000Y-57840000D02*
X199555000Y-57840000D01*
X236035000Y-68000000D02*
X236035000Y-57840000D01*
X245320000Y-68000000D02*
X236035000Y-68000000D01*
X245320000Y-79510000D02*
X245320000Y-68000000D01*
D10*
%TO.C,PS1*%
X168950000Y-126900000D02*
X168950000Y-126900000D01*
X169150000Y-126900000D02*
X169150000Y-126900000D01*
D16*
X172650000Y-123450000D02*
X205650000Y-123450000D01*
X172650000Y-146350000D02*
X172650000Y-123450000D01*
X205650000Y-123450000D02*
X205650000Y-146350000D01*
X205650000Y-146350000D02*
X172650000Y-146350000D01*
D10*
X168950000Y-126900000D02*
G75*
G02*
X169150000Y-126900000I100000J0D01*
G01*
X169150000Y-126900000D02*
G75*
G02*
X168950000Y-126900000I-100000J0D01*
G01*
%TO.C,LED3*%
X224450000Y-153050000D02*
X224450000Y-156975000D01*
X224450000Y-156975000D02*
X226950000Y-156975000D01*
X226950000Y-156975000D02*
X226950000Y-153050000D01*
D11*
%TO.C,PS2*%
X168950000Y-152680000D02*
X168950000Y-152680000D01*
X169150000Y-152680000D02*
X169150000Y-152680000D01*
D16*
X170650000Y-148850000D02*
X203650000Y-148850000D01*
X170650000Y-171730000D02*
X170650000Y-148850000D01*
X203650000Y-148850000D02*
X203650000Y-171730000D01*
X203650000Y-171730000D02*
X170650000Y-171730000D01*
D11*
X168950000Y-152680000D02*
G75*
G02*
X169150000Y-152680000I100000J0D01*
G01*
X169150000Y-152680000D02*
G75*
G02*
X168950000Y-152680000I-100000J0D01*
G01*
D10*
%TO.C,LED4*%
X222350000Y-179250000D02*
X222350000Y-183175000D01*
X222350000Y-183175000D02*
X224850000Y-183175000D01*
X224850000Y-183175000D02*
X224850000Y-179250000D01*
D15*
%TO.C,C7*%
X215490000Y-128188748D02*
X215490000Y-129611252D01*
X217310000Y-128188748D02*
X217310000Y-129611252D01*
D10*
%TO.C,U6*%
X133700000Y-138500000D02*
X133700000Y-142177000D01*
X133700000Y-138500000D02*
X158100000Y-138500000D01*
X133700000Y-147900000D02*
X133700000Y-144223000D01*
X158100000Y-138500000D02*
X158100000Y-142177000D01*
X158100000Y-147900000D02*
X133700000Y-147900000D01*
X158100000Y-147900000D02*
X158100000Y-144223000D01*
X133079490Y-143087000D02*
G75*
G02*
X132946510Y-143087000I-66490J0D01*
G01*
X132946510Y-143087000D02*
G75*
G02*
X133079490Y-143087000I66490J0D01*
G01*
D15*
%TO.C,C11*%
X213290000Y-153626248D02*
X213290000Y-155048752D01*
X215110000Y-153626248D02*
X215110000Y-155048752D01*
D14*
%TO.C,C5*%
X141223004Y-125956653D02*
X141223004Y-133810637D01*
X141223004Y-133810637D02*
X141946563Y-133810637D01*
X141946563Y-125956653D02*
X141223004Y-125956653D01*
X143500000Y-124999454D02*
X143500000Y-124237454D01*
X143881000Y-124618454D02*
X143119000Y-124618454D01*
X145053437Y-133810637D02*
X145776996Y-133810637D01*
X145776996Y-125956653D02*
X145053437Y-125956653D01*
X145776996Y-133810637D02*
X145776996Y-125956653D01*
D15*
%TO.C,R8*%
X222690000Y-176277064D02*
X222690000Y-174822936D01*
X224510000Y-176277064D02*
X224510000Y-174822936D01*
D16*
%TO.C,J1*%
X70215000Y-68000000D02*
X70215000Y-79510000D01*
X70215000Y-79510000D02*
X80070000Y-79510000D01*
X79470000Y-57840000D02*
X79500000Y-68000000D01*
X79500000Y-68000000D02*
X70215000Y-68000000D01*
X80070000Y-79510000D02*
X80070000Y-92510000D01*
X80070000Y-92510000D02*
X115380000Y-92510000D01*
X115380000Y-79510000D02*
X125235000Y-79510000D01*
X115380000Y-92510000D02*
X115380000Y-79510000D01*
X115950000Y-57840000D02*
X79470000Y-57840000D01*
X115950000Y-68000000D02*
X115950000Y-57840000D01*
X125235000Y-68000000D02*
X115950000Y-68000000D01*
X125235000Y-79510000D02*
X125235000Y-68000000D01*
D15*
%TO.C,R1*%
X103040000Y-105122936D02*
X103040000Y-106577064D01*
X104860000Y-105122936D02*
X104860000Y-106577064D01*
D14*
%TO.C,C1*%
X119476750Y-115585000D02*
X119476750Y-114315000D01*
X120111750Y-114950000D02*
X118841750Y-114950000D01*
X118714750Y-114950000D02*
G75*
G02*
X109951750Y-114950000I-4381500J0D01*
G01*
X109951750Y-114950000D02*
G75*
G02*
X118714750Y-114950000I4381500J0D01*
G01*
%TO.C,J3*%
X87528401Y-108819200D02*
X87528401Y-119080800D01*
X87528401Y-119080800D02*
X95377001Y-119080800D01*
X95377001Y-108819200D02*
X87528401Y-108819200D01*
X95377001Y-119080800D02*
X95377001Y-108819200D01*
D18*
X92131000Y-107041200D02*
G75*
G02*
X91369000Y-107041200I-381000J0D01*
G01*
X91369000Y-107041200D02*
G75*
G02*
X92131000Y-107041200I381000J0D01*
G01*
D14*
%TO.C,C6*%
X156216800Y-126068745D02*
X156216800Y-136635145D01*
X156216800Y-136635145D02*
X160468760Y-136635145D01*
X160468760Y-126068745D02*
X156216800Y-126068745D01*
X162531240Y-136635145D02*
X166783200Y-136635145D01*
X166783200Y-126068745D02*
X162531240Y-126068745D01*
X166783200Y-136635145D02*
X166783200Y-126068745D01*
X161576200Y-124938445D02*
G75*
G02*
X161423800Y-124938445I-76200J0D01*
G01*
X161423800Y-124938445D02*
G75*
G02*
X161576200Y-124938445I76200J0D01*
G01*
%TO.C,C12*%
X199969400Y-177967900D02*
X199969400Y-185029100D01*
X199969400Y-185029100D02*
X202621160Y-185029100D01*
X202621160Y-177967900D02*
X199969400Y-177967900D01*
X203500000Y-176761400D02*
X203500000Y-175999400D01*
X203881000Y-176380400D02*
X203119000Y-176380400D01*
X204378840Y-185029100D02*
X207030600Y-185029100D01*
X207030600Y-177967900D02*
X204378840Y-177967900D01*
X207030600Y-185029100D02*
X207030600Y-177967900D01*
D15*
%TO.C,L3*%
X146610000Y-149940000D02*
X146610000Y-150840000D01*
X146610000Y-149940000D02*
X155430000Y-149940000D01*
X146610000Y-159260000D02*
X146610000Y-158360000D01*
X146610000Y-159260000D02*
X155430000Y-159260000D01*
X155430000Y-149940000D02*
X155430000Y-150840000D01*
X155430000Y-159260000D02*
X155430000Y-158360000D01*
D14*
%TO.C,U2*%
X111880700Y-97423201D02*
X111880700Y-97614062D01*
X111880700Y-100635940D02*
X111880700Y-100826801D01*
X111880700Y-100826801D02*
X115284300Y-100826801D01*
X115284300Y-97423201D02*
X111880700Y-97423201D01*
X115284300Y-97614062D02*
X115284300Y-97423201D01*
X115284300Y-100826801D02*
X115284300Y-100635940D01*
%TO.C,C8*%
X205769400Y-151869400D02*
X205769400Y-158930600D01*
X205769400Y-158930600D02*
X208421160Y-158930600D01*
X208421160Y-151869400D02*
X205769400Y-151869400D01*
X209300000Y-150662900D02*
X209300000Y-149900900D01*
X209681000Y-150281900D02*
X208919000Y-150281900D01*
X210178840Y-158930600D02*
X212830600Y-158930600D01*
X212830600Y-151869400D02*
X210178840Y-151869400D01*
X212830600Y-158930600D02*
X212830600Y-151869400D01*
%TO.C,C14*%
X156216800Y-173832655D02*
X156216800Y-184399055D01*
X156216800Y-184399055D02*
X160468760Y-184399055D01*
X160468760Y-173832655D02*
X156216800Y-173832655D01*
X162531240Y-184399055D02*
X166783200Y-184399055D01*
X166783200Y-173832655D02*
X162531240Y-173832655D01*
X166783200Y-184399055D02*
X166783200Y-173832655D01*
X161576200Y-172702355D02*
G75*
G02*
X161423800Y-172702355I-76200J0D01*
G01*
X161423800Y-172702355D02*
G75*
G02*
X161576200Y-172702355I76200J0D01*
G01*
D17*
%TO.C,D2*%
X134047500Y-127324945D02*
X134047500Y-134179945D01*
X134047500Y-134179945D02*
X135100000Y-134179945D01*
X135100000Y-127324945D02*
X134047500Y-127324945D01*
X138900000Y-127324945D02*
X139952500Y-127324945D01*
X139952500Y-127324945D02*
X139952500Y-134179945D01*
X139952500Y-134179945D02*
X138900000Y-134179945D01*
D10*
X137200000Y-125252445D02*
G75*
G02*
X137000000Y-125252445I-100000J0D01*
G01*
X137000000Y-125252445D02*
G75*
G02*
X137200000Y-125252445I100000J0D01*
G01*
D15*
%TO.C,R5*%
X219990000Y-132427064D02*
X219990000Y-130972936D01*
X221810000Y-132427064D02*
X221810000Y-130972936D01*
%TO.C,L2*%
X146590000Y-126023645D02*
X146590000Y-126923645D01*
X146590000Y-126023645D02*
X155410000Y-126023645D01*
X146590000Y-135343645D02*
X146590000Y-134443645D01*
X146590000Y-135343645D02*
X155410000Y-135343645D01*
X155410000Y-126023645D02*
X155410000Y-126923645D01*
X155410000Y-135343645D02*
X155410000Y-134443645D01*
D14*
%TO.C,C9*%
X141223004Y-149873008D02*
X141223004Y-157726992D01*
X141223004Y-157726992D02*
X141946563Y-157726992D01*
X141946563Y-149873008D02*
X141223004Y-149873008D01*
X143500000Y-148915809D02*
X143500000Y-148153809D01*
X143881000Y-148534809D02*
X143119000Y-148534809D01*
X145053437Y-157726992D02*
X145776996Y-157726992D01*
X145776996Y-149873008D02*
X145053437Y-149873008D01*
X145776996Y-157726992D02*
X145776996Y-149873008D01*
D15*
%TO.C,R6*%
X178690000Y-108627064D02*
X178690000Y-107172936D01*
X180510000Y-108627064D02*
X180510000Y-107172936D01*
D17*
%TO.C,D3*%
X134047500Y-151241300D02*
X134047500Y-158096300D01*
X134047500Y-158096300D02*
X135100000Y-158096300D01*
X135100000Y-151241300D02*
X134047500Y-151241300D01*
X138900000Y-151241300D02*
X139952500Y-151241300D01*
X139952500Y-151241300D02*
X139952500Y-158096300D01*
X139952500Y-158096300D02*
X138900000Y-158096300D01*
D10*
X137200000Y-149168800D02*
G75*
G02*
X137000000Y-149168800I-100000J0D01*
G01*
X137000000Y-149168800D02*
G75*
G02*
X137200000Y-149168800I100000J0D01*
G01*
%TO.C,LED2*%
X178350000Y-111500000D02*
X178350000Y-115425000D01*
X178350000Y-115425000D02*
X180850000Y-115425000D01*
X180850000Y-115425000D02*
X180850000Y-111500000D01*
D14*
%TO.C,C4*%
X207769400Y-126423700D02*
X207769400Y-133484900D01*
X207769400Y-133484900D02*
X210421160Y-133484900D01*
X210421160Y-126423700D02*
X207769400Y-126423700D01*
X211300000Y-125217200D02*
X211300000Y-124455200D01*
X211681000Y-124836200D02*
X210919000Y-124836200D01*
X212178840Y-133484900D02*
X214830600Y-133484900D01*
X214830600Y-126423700D02*
X212178840Y-126423700D01*
X214830600Y-133484900D02*
X214830600Y-126423700D01*
D15*
%TO.C,R7*%
X224790000Y-150177064D02*
X224790000Y-148722936D01*
X226610000Y-150177064D02*
X226610000Y-148722936D01*
D10*
%TO.C,LED1*%
X219680000Y-135475000D02*
X219680000Y-139400000D01*
X219680000Y-139400000D02*
X222180000Y-139400000D01*
X222180000Y-139400000D02*
X222180000Y-135475000D01*
D15*
%TO.C,L4*%
X146610000Y-173756355D02*
X146610000Y-174656355D01*
X146610000Y-173756355D02*
X155430000Y-173756355D01*
X146610000Y-183076355D02*
X146610000Y-182176355D01*
X146610000Y-183076355D02*
X155430000Y-183076355D01*
X155430000Y-173756355D02*
X155430000Y-174656355D01*
X155430000Y-183076355D02*
X155430000Y-182176355D01*
D14*
%TO.C,U3*%
X109932250Y-108049801D02*
X111938850Y-108049801D01*
X111938850Y-104900201D02*
X109932250Y-104900201D01*
D15*
%TO.C,R2*%
X99340000Y-105122936D02*
X99340000Y-106577064D01*
X101160000Y-105122936D02*
X101160000Y-106577064D01*
D10*
%TO.C,U7*%
X133700000Y-162347555D02*
X133700000Y-166024555D01*
X133700000Y-162347555D02*
X158100000Y-162347555D01*
X133700000Y-171747555D02*
X133700000Y-168070555D01*
X158100000Y-162347555D02*
X158100000Y-166024555D01*
X158100000Y-171747555D02*
X133700000Y-171747555D01*
X158100000Y-171747555D02*
X158100000Y-168070555D01*
X133079490Y-166934555D02*
G75*
G02*
X132946510Y-166934555I-66490J0D01*
G01*
X132946510Y-166934555D02*
G75*
G02*
X133079490Y-166934555I66490J0D01*
G01*
D15*
%TO.C,C15*%
X207690000Y-179787248D02*
X207690000Y-181209752D01*
X209510000Y-179787248D02*
X209510000Y-181209752D01*
%TD*%
M02*
