M48
; DRILL file {KiCad 8.0.2} date 2024-05-09T14:15:34-0600
; FORMAT={-:-/ absolute / inch / decimal}
; #@! TF.CreationDate,2024-05-09T14:15:34-06:00
; #@! TF.GenerationSoftware,Kicad,Pcbnew,8.0.2
; #@! TF.FileFunction,Plated,1,2,PTH
FMAT,2
INCH
; #@! TA.AperFunction,Plated,PTH,ViaDrill
T1C0.0118
; #@! TA.AperFunction,Plated,PTH,ComponentDrill
T2C0.0197
; #@! TA.AperFunction,Plated,PTH,ComponentDrill
T3C0.0340
; #@! TA.AperFunction,Plated,PTH,ComponentDrill
T4C0.0500
; #@! TA.AperFunction,Plated,PTH,ComponentDrill
T5C0.0510
; #@! TA.AperFunction,Plated,PTH,ComponentDrill
T6C0.0591
; #@! TA.AperFunction,Plated,PTH,ComponentDrill
T7C0.0618
; #@! TA.AperFunction,Plated,PTH,ComponentDrill
T8C0.0693
; #@! TA.AperFunction,Plated,PTH,ComponentDrill
T9C0.0839
; #@! TA.AperFunction,Plated,PTH,ComponentDrill
T10C0.1098
; #@! TA.AperFunction,Plated,PTH,ComponentDrill
T11C0.1181
%
G90
G05
T1
X4.1732Y-4.124
X4.3701Y-4.1634
X4.3976Y-3.6811
X4.4213Y-3.9606
T2
X6.8996Y-2.8406
X6.9256Y-2.7779
X6.9256Y-2.9032
X6.9882Y-2.752
X6.9882Y-2.9291
X7.0508Y-2.7779
X7.0508Y-2.9032
X7.0768Y-2.8406
T3
X4.4324Y-4.4094
X4.5702Y-4.4094
T4
X6.8581Y-6.9425
X6.8581Y-7.2425
X6.8581Y-7.4425
X7.6581Y-6.9425
X7.6581Y-7.3425
X7.6581Y-7.7425
T5
X3.6122Y-4.2717
X3.6122Y-4.4685
T6
X5.2992Y-4.6962
X5.2992Y-5.6378
X5.2992Y-6.5767
X6.189Y-4.6962
X6.189Y-5.6378
X6.189Y-6.5767
T7
X6.8181Y-6.011
X6.8181Y-6.311
X6.8181Y-6.611
X6.8969Y-5.011
X6.8969Y-5.311
X6.8969Y-5.611
X7.9181Y-6.161
X7.9181Y-6.311
X7.9181Y-6.461
X7.9969Y-5.161
X7.9969Y-5.311
X7.9969Y-5.461
T8
X3.565Y-3.1161
X3.565Y-3.3661
X3.74Y-3.1161
X3.74Y-3.3661
X3.9549Y-3.1161
X3.9549Y-3.3661
X4.1299Y-3.1161
X4.1299Y-3.3661
X8.2927Y-3.1169
X8.2927Y-3.3669
X8.4677Y-3.1169
X8.4677Y-3.3669
X8.6827Y-3.1169
X8.6827Y-3.3669
X8.8577Y-3.1169
X8.8577Y-3.3669
T9
X7.9181Y-6.011
X7.9181Y-6.611
X7.9969Y-5.011
X7.9969Y-5.611
T10
X3.3124Y-3.326
X3.8474Y-2.876
X4.3825Y-3.326
X8.0402Y-3.3268
X8.5752Y-2.8768
X9.1102Y-3.3268
T11
X6.9882Y-2.8406
M30
