%TF.GenerationSoftware,KiCad,Pcbnew,8.0.2*%
%TF.CreationDate,2024-05-09T14:15:38-06:00*%
%TF.ProjectId,GR-LRR-POWER,47522d4c-5252-42d5-904f-5745522e6b69,rev?*%
%TF.SameCoordinates,Original*%
%TF.FileFunction,Paste,Top*%
%TF.FilePolarity,Positive*%
%FSLAX46Y46*%
G04 Gerber Fmt 4.6, Leading zero omitted, Abs format (unit mm)*
G04 Created by KiCad (PCBNEW 8.0.2) date 2024-05-09 14:15:38*
%MOMM*%
%LPD*%
G01*
G04 APERTURE LIST*
G04 Aperture macros list*
%AMRoundRect*
0 Rectangle with rounded corners*
0 $1 Rounding radius*
0 $2 $3 $4 $5 $6 $7 $8 $9 X,Y pos of 4 corners*
0 Add a 4 corners polygon primitive as box body*
4,1,4,$2,$3,$4,$5,$6,$7,$8,$9,$2,$3,0*
0 Add four circle primitives for the rounded corners*
1,1,$1+$1,$2,$3*
1,1,$1+$1,$4,$5*
1,1,$1+$1,$6,$7*
1,1,$1+$1,$8,$9*
0 Add four rect primitives between the rounded corners*
20,1,$1+$1,$2,$3,$4,$5,0*
20,1,$1+$1,$4,$5,$6,$7,0*
20,1,$1+$1,$6,$7,$8,$9,0*
20,1,$1+$1,$8,$9,$2,$3,0*%
G04 Aperture macros list end*
%ADD10C,0.000000*%
%ADD11R,0.876300X0.406400*%
%ADD12R,0.558800X0.406400*%
%ADD13R,0.508000X0.406400*%
%ADD14R,2.449195X2.179396*%
%ADD15RoundRect,0.250000X-0.625000X0.400000X-0.625000X-0.400000X0.625000X-0.400000X0.625000X0.400000X0*%
%ADD16R,1.397000X3.302000*%
%ADD17RoundRect,0.850200X-0.709800X0.239800X-0.709800X-0.239800X0.709800X-0.239800X0.709800X0.239800X0*%
%ADD18R,1.800000X1.150000*%
%ADD19RoundRect,0.250000X-0.650000X0.412500X-0.650000X-0.412500X0.650000X-0.412500X0.650000X0.412500X0*%
%ADD20RoundRect,0.250000X0.625000X-0.400000X0.625000X0.400000X-0.625000X0.400000X-0.625000X-0.400000X0*%
%ADD21R,1.092200X2.692400*%
%ADD22R,1.780000X7.000000*%
G04 APERTURE END LIST*
D10*
%TO.C,U1*%
G36*
X107736502Y-95132400D02*
G01*
X109463702Y-95132400D01*
X109463702Y-97367600D01*
X107736502Y-97367600D01*
X107736500Y-97428199D01*
X107228500Y-97428199D01*
X107228500Y-97021799D01*
X107736500Y-97021799D01*
X107736500Y-96778201D01*
X107228500Y-96778201D01*
X107228500Y-96371801D01*
X107736500Y-96371801D01*
X107736500Y-96128199D01*
X107228500Y-96128199D01*
X107228500Y-95721799D01*
X107736500Y-95721799D01*
X107736500Y-95478201D01*
X107228500Y-95478201D01*
X107228500Y-95071801D01*
X107736500Y-95071801D01*
X107736502Y-95132400D01*
G37*
%TO.C,U2*%
G36*
X115354000Y-95403202D02*
G01*
X114846000Y-95403202D01*
X114846000Y-95646800D01*
X115354000Y-95646800D01*
X115354000Y-96053200D01*
X114846000Y-96053200D01*
X114846000Y-96296802D01*
X115354000Y-96296802D01*
X115354000Y-96703202D01*
X114846000Y-96703202D01*
X114846000Y-96946800D01*
X115354000Y-96946800D01*
X115354000Y-97353200D01*
X114846000Y-97353200D01*
X114845998Y-97292601D01*
X113118798Y-97292601D01*
X113118798Y-95057401D01*
X114845998Y-95057401D01*
X114846000Y-94996802D01*
X115354000Y-94996802D01*
X115354000Y-95403202D01*
G37*
%TD*%
D11*
%TO.C,U3*%
X109621100Y-102550002D03*
X109621100Y-103200000D03*
X109621100Y-103850002D03*
X109621100Y-104500000D03*
X112250000Y-104500000D03*
X112250000Y-103850002D03*
X112250000Y-103200000D03*
X112250000Y-102550002D03*
%TD*%
D12*
%TO.C,U1*%
X110517500Y-97224999D03*
X110517500Y-96575001D03*
X110517500Y-95924999D03*
X110517500Y-95275001D03*
D13*
X107482500Y-95275001D03*
X107482500Y-95924999D03*
X107482500Y-96575001D03*
X107482500Y-97224999D03*
%TD*%
D14*
%TO.C,C13*%
X143500000Y-174861061D03*
X143500000Y-180434049D03*
%TD*%
D15*
%TO.C,R4*%
X100250000Y-111400000D03*
X100250000Y-114500000D03*
%TD*%
D16*
%TO.C,C10*%
X161500000Y-151199000D03*
X161500000Y-159200000D03*
%TD*%
D17*
%TO.C,D4*%
X137000000Y-182001355D03*
X137000000Y-175031355D03*
%TD*%
D15*
%TO.C,R3*%
X100250000Y-106400000D03*
X100250000Y-109500000D03*
%TD*%
D18*
%TO.C,LED3*%
X225700000Y-156050000D03*
X225700000Y-153050000D03*
%TD*%
%TO.C,LED4*%
X223600000Y-182250000D03*
X223600000Y-179250000D03*
%TD*%
D19*
%TO.C,C7*%
X216400000Y-127337500D03*
X216400000Y-130462500D03*
%TD*%
%TO.C,C11*%
X214200000Y-152775000D03*
X214200000Y-155900000D03*
%TD*%
D14*
%TO.C,C5*%
X143500000Y-127097151D03*
X143500000Y-132670139D03*
%TD*%
D20*
%TO.C,R8*%
X223600000Y-177100000D03*
X223600000Y-174000000D03*
%TD*%
D15*
%TO.C,R1*%
X103950000Y-101350000D03*
X103950000Y-104450000D03*
%TD*%
D16*
%TO.C,C6*%
X161500000Y-127351445D03*
X161500000Y-135352445D03*
%TD*%
D21*
%TO.C,C12*%
X203500000Y-178844200D03*
X203500000Y-184152800D03*
%TD*%
D22*
%TO.C,L3*%
X148440000Y-154600000D03*
X153600000Y-154600000D03*
%TD*%
D12*
%TO.C,U2*%
X112065000Y-95200002D03*
X112065000Y-95850000D03*
X112065000Y-96500002D03*
X112065000Y-97150000D03*
D13*
X115100000Y-97150000D03*
X115100000Y-96500002D03*
X115100000Y-95850000D03*
X115100000Y-95200002D03*
%TD*%
D21*
%TO.C,C8*%
X209300000Y-152745700D03*
X209300000Y-158054300D03*
%TD*%
D16*
%TO.C,C14*%
X161500000Y-175115355D03*
X161500000Y-183116355D03*
%TD*%
D17*
%TO.C,D2*%
X137000000Y-134237445D03*
X137000000Y-127267445D03*
%TD*%
D20*
%TO.C,R5*%
X220900000Y-133250000D03*
X220900000Y-130150000D03*
%TD*%
D22*
%TO.C,L2*%
X148420000Y-130683645D03*
X153580000Y-130683645D03*
%TD*%
D14*
%TO.C,C9*%
X143500000Y-151013506D03*
X143500000Y-156586494D03*
%TD*%
D20*
%TO.C,R6*%
X179600000Y-109450000D03*
X179600000Y-106350000D03*
%TD*%
D17*
%TO.C,D3*%
X137000000Y-158153800D03*
X137000000Y-151183800D03*
%TD*%
D18*
%TO.C,LED2*%
X179600000Y-114500000D03*
X179600000Y-111500000D03*
%TD*%
D21*
%TO.C,C4*%
X211300000Y-127300000D03*
X211300000Y-132608600D03*
%TD*%
D20*
%TO.C,R7*%
X225700000Y-151000000D03*
X225700000Y-147900000D03*
%TD*%
D18*
%TO.C,LED1*%
X220930000Y-138475000D03*
X220930000Y-135475000D03*
%TD*%
D22*
%TO.C,L4*%
X148440000Y-178416355D03*
X153600000Y-178416355D03*
%TD*%
D15*
%TO.C,R2*%
X100250000Y-101350000D03*
X100250000Y-104450000D03*
%TD*%
D19*
%TO.C,C15*%
X208600000Y-178936000D03*
X208600000Y-182061000D03*
%TD*%
M02*
