%TF.GenerationSoftware,KiCad,Pcbnew,8.0.2*%
%TF.CreationDate,2024-05-09T14:15:38-06:00*%
%TF.ProjectId,GR-LRR-POWER,47522d4c-5252-42d5-904f-5745522e6b69,rev?*%
%TF.SameCoordinates,Original*%
%TF.FileFunction,Profile,NP*%
%FSLAX46Y46*%
G04 Gerber Fmt 4.6, Leading zero omitted, Abs format (unit mm)*
G04 Created by KiCad (PCBNEW 8.0.2) date 2024-05-09 14:15:38*
%MOMM*%
%LPD*%
G01*
G04 APERTURE LIST*
%TA.AperFunction,Profile*%
%ADD10C,0.250000*%
%TD*%
G04 APERTURE END LIST*
D10*
X76374984Y-153429250D02*
G75*
G02*
X72945984Y-153429250I-1714500J0D01*
G01*
X72945984Y-153429250D02*
G75*
G02*
X76374984Y-153429250I1714500J0D01*
G01*
X150170335Y-200769637D02*
G75*
G02*
X165393633Y-200769637I7611649J-81413D01*
G01*
X52672222Y-93999539D02*
X52672222Y-100654161D01*
X255237000Y-75806850D02*
X255237000Y-66916850D01*
X209382173Y-65029334D02*
X167281041Y-65029334D01*
X150170335Y-200769637D02*
G75*
G02*
X148282927Y-202636942I-1887335J20137D01*
G01*
X62214484Y-202636966D02*
G75*
G02*
X60326934Y-200749450I16J1887566D01*
G01*
X60326968Y-191859450D02*
X60326968Y-200749450D01*
X52672222Y-130505839D02*
X52672222Y-137160461D01*
X264635000Y-100654161D02*
X262891746Y-100654161D01*
X62214484Y-202636966D02*
X99527173Y-202636966D01*
X52672222Y-137160461D02*
X50928968Y-137160461D01*
X255237000Y-200749450D02*
X255237000Y-191859450D01*
X106181795Y-200893712D02*
X106181795Y-202636966D01*
X165393633Y-66896663D02*
G75*
G02*
X167281041Y-65029325I1887467J-20237D01*
G01*
X52796297Y-184247801D02*
G75*
G02*
X60326964Y-191859450I-81367J-7611599D01*
G01*
X262891746Y-137160461D02*
X262891746Y-130505839D01*
X216036795Y-202636966D02*
X253349484Y-202636966D01*
X52672222Y-173666761D02*
X50928968Y-173666761D01*
X50928968Y-85305907D02*
X50928968Y-93999539D01*
X253349484Y-65029334D02*
G75*
G02*
X255236966Y-66916850I16J-1887466D01*
G01*
X262891746Y-100654161D02*
X262891746Y-93999539D01*
X76374984Y-114237050D02*
G75*
G02*
X72945984Y-114237050I-1714500J0D01*
G01*
X72945984Y-114237050D02*
G75*
G02*
X76374984Y-114237050I1714500J0D01*
G01*
X253349484Y-65029334D02*
X216036795Y-65029334D01*
X250491984Y-75933850D02*
G75*
G02*
X247062984Y-75933850I-1714500J0D01*
G01*
X247062984Y-75933850D02*
G75*
G02*
X250491984Y-75933850I1714500J0D01*
G01*
X264635000Y-182360393D02*
G75*
G02*
X262767671Y-184247791I-1887600J93D01*
G01*
X262891746Y-93999539D02*
X264635000Y-93999539D01*
X167281041Y-202636966D02*
X209382173Y-202636966D01*
X264635000Y-137160461D02*
X262891746Y-137160461D01*
X50928968Y-85305907D02*
G75*
G02*
X52796297Y-83418476I1887532J7D01*
G01*
X242617984Y-153429250D02*
G75*
G02*
X239188984Y-153429250I-1714500J0D01*
G01*
X239188984Y-153429250D02*
G75*
G02*
X242617984Y-153429250I1714500J0D01*
G01*
X216036795Y-66772588D02*
X209382173Y-66772588D01*
X106181795Y-202636966D02*
X148282927Y-202636966D01*
X99527173Y-66772588D02*
X99527173Y-65029334D01*
X148282927Y-65029334D02*
G75*
G02*
X150170356Y-66896663I-127J-1887666D01*
G01*
X216036795Y-65029334D02*
X216036795Y-66772588D01*
X68500984Y-75933850D02*
G75*
G02*
X65071984Y-75933850I-1714500J0D01*
G01*
X65071984Y-75933850D02*
G75*
G02*
X68500984Y-75933850I1714500J0D01*
G01*
X264635000Y-167012139D02*
X264635000Y-137160461D01*
X209382173Y-200893712D02*
X216036795Y-200893712D01*
X52672222Y-167012139D02*
X52672222Y-173666761D01*
X167281041Y-202636966D02*
G75*
G02*
X165393641Y-200769637I-41J1887466D01*
G01*
X264635000Y-182360393D02*
X264635000Y-173666761D01*
X50928968Y-130505839D02*
X52672222Y-130505839D01*
X148282927Y-65029334D02*
X106181795Y-65029334D01*
X52796297Y-184247801D02*
G75*
G02*
X50928991Y-182360393I20203J1887401D01*
G01*
X99527173Y-202636966D02*
X99527173Y-200893712D01*
X99527173Y-200893712D02*
X106181795Y-200893712D01*
X209382173Y-66772588D02*
X209382173Y-65029334D01*
X60326968Y-66916850D02*
X60326968Y-75806850D01*
X52672222Y-100654161D02*
X50928968Y-100654161D01*
X262767671Y-83418499D02*
G75*
G02*
X255236965Y-75806850I81429J7611699D01*
G01*
X255237000Y-191859450D02*
G75*
G02*
X262767671Y-184247836I7612100J-50D01*
G01*
X250491984Y-191732450D02*
G75*
G02*
X247062984Y-191732450I-1714500J0D01*
G01*
X247062984Y-191732450D02*
G75*
G02*
X250491984Y-191732450I1714500J0D01*
G01*
X165393633Y-66896663D02*
G75*
G02*
X150170335Y-66896663I-7611649J81413D01*
G01*
X106181795Y-65029334D02*
X106181795Y-66772588D01*
X99527173Y-65029334D02*
X62214484Y-65029334D01*
X264635000Y-93999539D02*
X264635000Y-85305907D01*
X50928968Y-137160461D02*
X50928968Y-167012139D01*
X262767671Y-83418499D02*
G75*
G02*
X264635009Y-85305907I-20171J-1887401D01*
G01*
X68500984Y-191732450D02*
G75*
G02*
X65071984Y-191732450I-1714500J0D01*
G01*
X65071984Y-191732450D02*
G75*
G02*
X68500984Y-191732450I1714500J0D01*
G01*
X262891746Y-130505839D02*
X264635000Y-130505839D01*
X50928968Y-93999539D02*
X52672222Y-93999539D01*
X209382173Y-202636966D02*
X209382173Y-200893712D01*
X262891746Y-167012139D02*
X264635000Y-167012139D01*
X264635000Y-173666761D02*
X262891746Y-173666761D01*
X50928968Y-173666761D02*
X50928968Y-182360393D01*
X264635000Y-130505839D02*
X264635000Y-100654161D01*
X60326968Y-66916850D02*
G75*
G02*
X62214484Y-65029368I1887532J-50D01*
G01*
X216036795Y-200893712D02*
X216036795Y-202636966D01*
X50928968Y-100654161D02*
X50928968Y-130505839D01*
X242617984Y-114237050D02*
G75*
G02*
X239188984Y-114237050I-1714500J0D01*
G01*
X239188984Y-114237050D02*
G75*
G02*
X242617984Y-114237050I1714500J0D01*
G01*
X255237000Y-200749450D02*
G75*
G02*
X253349484Y-202637000I-1887500J-50D01*
G01*
X60326968Y-75806850D02*
G75*
G02*
X52796297Y-83418502I-7612098J10D01*
G01*
X50928968Y-167012139D02*
X52672222Y-167012139D01*
X106181795Y-66772588D02*
X99527173Y-66772588D01*
X262891746Y-173666761D02*
X262891746Y-167012139D01*
M02*
