%TF.GenerationSoftware,KiCad,Pcbnew,8.0.2*%
%TF.CreationDate,2024-05-09T14:15:38-06:00*%
%TF.ProjectId,GR-LRR-POWER,47522d4c-5252-42d5-904f-5745522e6b69,rev?*%
%TF.SameCoordinates,Original*%
%TF.FileFunction,Soldermask,Top*%
%TF.FilePolarity,Negative*%
%FSLAX46Y46*%
G04 Gerber Fmt 4.6, Leading zero omitted, Abs format (unit mm)*
G04 Created by KiCad (PCBNEW 8.0.2) date 2024-05-09 14:15:38*
%MOMM*%
%LPD*%
G01*
G04 APERTURE LIST*
G04 Aperture macros list*
%AMRoundRect*
0 Rectangle with rounded corners*
0 $1 Rounding radius*
0 $2 $3 $4 $5 $6 $7 $8 $9 X,Y pos of 4 corners*
0 Add a 4 corners polygon primitive as box body*
4,1,4,$2,$3,$4,$5,$6,$7,$8,$9,$2,$3,0*
0 Add four circle primitives for the rounded corners*
1,1,$1+$1,$2,$3*
1,1,$1+$1,$4,$5*
1,1,$1+$1,$6,$7*
1,1,$1+$1,$8,$9*
0 Add four rect primitives between the rounded corners*
20,1,$1+$1,$2,$3,$4,$5,0*
20,1,$1+$1,$4,$5,$6,$7,0*
20,1,$1+$1,$6,$7,$8,$9,0*
20,1,$1+$1,$8,$9,$2,$3,0*%
G04 Aperture macros list end*
%ADD10C,0.000000*%
%ADD11C,0.800000*%
%ADD12C,6.000000*%
%ADD13R,0.876300X0.406400*%
%ADD14C,1.803400*%
%ADD15R,0.558800X0.406400*%
%ADD16R,0.508000X0.406400*%
%ADD17R,2.449195X2.179396*%
%ADD18RoundRect,0.250000X-0.625000X0.400000X-0.625000X-0.400000X0.625000X-0.400000X0.625000X0.400000X0*%
%ADD19C,2.300000*%
%ADD20R,1.397000X3.302000*%
%ADD21C,2.100000*%
%ADD22RoundRect,0.929760X-0.732240X0.262240X-0.732240X-0.262240X0.732240X-0.262240X0.732240X0.262240X0*%
%ADD23R,2.640000X2.640000*%
%ADD24C,2.640000*%
%ADD25C,4.185000*%
%ADD26C,2.355000*%
%ADD27C,3.195000*%
%ADD28R,1.800000X1.150000*%
%ADD29RoundRect,0.250000X-0.650000X0.412500X-0.650000X-0.412500X0.650000X-0.412500X0.650000X0.412500X0*%
%ADD30RoundRect,0.250000X0.625000X-0.400000X0.625000X0.400000X-0.625000X0.400000X-0.625000X-0.400000X0*%
%ADD31C,1.371600*%
%ADD32R,1.092200X2.692400*%
%ADD33R,1.780000X7.000000*%
G04 APERTURE END LIST*
D10*
%TO.C,U1*%
G36*
X107736502Y-95132400D02*
G01*
X109463702Y-95132400D01*
X109463702Y-97367600D01*
X107736502Y-97367600D01*
X107736500Y-97428199D01*
X107228500Y-97428199D01*
X107228500Y-97021799D01*
X107736500Y-97021799D01*
X107736500Y-96778201D01*
X107228500Y-96778201D01*
X107228500Y-96371801D01*
X107736500Y-96371801D01*
X107736500Y-96128199D01*
X107228500Y-96128199D01*
X107228500Y-95721799D01*
X107736500Y-95721799D01*
X107736500Y-95478201D01*
X107228500Y-95478201D01*
X107228500Y-95071801D01*
X107736500Y-95071801D01*
X107736502Y-95132400D01*
G37*
%TO.C,U2*%
G36*
X115354000Y-95403202D02*
G01*
X114846000Y-95403202D01*
X114846000Y-95646800D01*
X115354000Y-95646800D01*
X115354000Y-96053200D01*
X114846000Y-96053200D01*
X114846000Y-96296802D01*
X115354000Y-96296802D01*
X115354000Y-96703202D01*
X114846000Y-96703202D01*
X114846000Y-96946800D01*
X115354000Y-96946800D01*
X115354000Y-97353200D01*
X114846000Y-97353200D01*
X114845998Y-97292601D01*
X113118798Y-97292601D01*
X113118798Y-95057401D01*
X114845998Y-95057401D01*
X114846000Y-94996802D01*
X115354000Y-94996802D01*
X115354000Y-95403202D01*
G37*
%TD*%
D11*
%TO.C,H2*%
X175250000Y-72150000D03*
X175909010Y-70559010D03*
X175909010Y-73740990D03*
X177500000Y-69900000D03*
D12*
X177500000Y-72150000D03*
D11*
X177500000Y-74400000D03*
X179090990Y-70559010D03*
X179090990Y-73740990D03*
X179750000Y-72150000D03*
%TD*%
D13*
%TO.C,U3*%
X109621100Y-102550002D03*
X109621100Y-103200000D03*
X109621100Y-103850002D03*
X109621100Y-104500000D03*
X112250000Y-104500000D03*
X112250000Y-103850002D03*
X112250000Y-103200000D03*
X112250000Y-102550002D03*
%TD*%
D14*
%TO.C,J3*%
X91750000Y-108500000D03*
X91750000Y-113500000D03*
%TD*%
D15*
%TO.C,U1*%
X110517500Y-97224999D03*
X110517500Y-96575001D03*
X110517500Y-95924999D03*
X110517500Y-95275001D03*
D16*
X107482500Y-95275001D03*
X107482500Y-95924999D03*
X107482500Y-96575001D03*
X107482500Y-97224999D03*
%TD*%
D17*
%TO.C,C13*%
X143500000Y-174861061D03*
X143500000Y-180434049D03*
%TD*%
D18*
%TO.C,R4*%
X100250000Y-111400000D03*
X100250000Y-114500000D03*
%TD*%
D19*
%TO.C,U5*%
X134600000Y-119283645D03*
X157200000Y-119283645D03*
%TD*%
D20*
%TO.C,C10*%
X161500000Y-151199000D03*
X161500000Y-159200000D03*
%TD*%
D21*
%TO.C,PS3*%
X174195000Y-189040000D03*
X174195000Y-183960000D03*
X194515000Y-196660000D03*
X194515000Y-186500000D03*
X194515000Y-176340000D03*
X174195000Y-176340000D03*
%TD*%
D22*
%TO.C,D4*%
X137000000Y-182001355D03*
X137000000Y-175031355D03*
%TD*%
D18*
%TO.C,R3*%
X100250000Y-106400000D03*
X100250000Y-109500000D03*
%TD*%
D23*
%TO.C,J2*%
X224985000Y-85520000D03*
D24*
X220540000Y-85520000D03*
X215080000Y-85520000D03*
X210635000Y-85520000D03*
X210635000Y-79170000D03*
X215080000Y-79170000D03*
X220540000Y-79170000D03*
X224985000Y-79170000D03*
D25*
X217810000Y-73070000D03*
X231400000Y-84500000D03*
X204220000Y-84500000D03*
%TD*%
D26*
%TO.C,PS1*%
X175180000Y-127280000D03*
X175180000Y-134900000D03*
X175180000Y-142520000D03*
D27*
X203120000Y-142520000D03*
D26*
X203120000Y-138710000D03*
X203120000Y-134900000D03*
X203120000Y-131090000D03*
D27*
X203120000Y-127280000D03*
%TD*%
D28*
%TO.C,LED3*%
X225700000Y-156050000D03*
X225700000Y-153050000D03*
%TD*%
D26*
%TO.C,PS2*%
X173180000Y-152680000D03*
X173180000Y-160300000D03*
X173180000Y-167920000D03*
D27*
X201120000Y-167920000D03*
D26*
X201120000Y-164110000D03*
X201120000Y-160300000D03*
X201120000Y-156490000D03*
D27*
X201120000Y-152680000D03*
%TD*%
D28*
%TO.C,LED4*%
X223600000Y-182250000D03*
X223600000Y-179250000D03*
%TD*%
D29*
%TO.C,C7*%
X216400000Y-127337500D03*
X216400000Y-130462500D03*
%TD*%
D19*
%TO.C,U6*%
X134600000Y-143200000D03*
X157200000Y-143200000D03*
%TD*%
D29*
%TO.C,C11*%
X214200000Y-152775000D03*
X214200000Y-155900000D03*
%TD*%
D17*
%TO.C,C5*%
X143500000Y-127097151D03*
X143500000Y-132670139D03*
%TD*%
D30*
%TO.C,R8*%
X223600000Y-177100000D03*
X223600000Y-174000000D03*
%TD*%
D23*
%TO.C,J1*%
X104900000Y-85500000D03*
D24*
X100455000Y-85500000D03*
X94995000Y-85500000D03*
X90550000Y-85500000D03*
X90550000Y-79150000D03*
X94995000Y-79150000D03*
X100455000Y-79150000D03*
X104900000Y-79150000D03*
D25*
X97725000Y-73050000D03*
X111315000Y-84480000D03*
X84135000Y-84480000D03*
%TD*%
D18*
%TO.C,R1*%
X103950000Y-101350000D03*
X103950000Y-104450000D03*
%TD*%
D31*
%TO.C,C1*%
X112583249Y-112000000D03*
X116083250Y-112000000D03*
%TD*%
D20*
%TO.C,C6*%
X161500000Y-127351445D03*
X161500000Y-135352445D03*
%TD*%
D32*
%TO.C,C12*%
X203500000Y-178844200D03*
X203500000Y-184152800D03*
%TD*%
D33*
%TO.C,L3*%
X148440000Y-154600000D03*
X153600000Y-154600000D03*
%TD*%
D15*
%TO.C,U2*%
X112065000Y-95200002D03*
X112065000Y-95850000D03*
X112065000Y-96500002D03*
X112065000Y-97150000D03*
D16*
X115100000Y-97150000D03*
X115100000Y-96500002D03*
X115100000Y-95850000D03*
X115100000Y-95200002D03*
%TD*%
D32*
%TO.C,C8*%
X209300000Y-152745700D03*
X209300000Y-158054300D03*
%TD*%
D20*
%TO.C,C14*%
X161500000Y-175115355D03*
X161500000Y-183116355D03*
%TD*%
D22*
%TO.C,D2*%
X137000000Y-134237445D03*
X137000000Y-127267445D03*
%TD*%
D30*
%TO.C,R5*%
X220900000Y-133250000D03*
X220900000Y-130150000D03*
%TD*%
D33*
%TO.C,L2*%
X148420000Y-130683645D03*
X153580000Y-130683645D03*
%TD*%
D17*
%TO.C,C9*%
X143500000Y-151013506D03*
X143500000Y-156586494D03*
%TD*%
D30*
%TO.C,R6*%
X179600000Y-109450000D03*
X179600000Y-106350000D03*
%TD*%
D22*
%TO.C,D3*%
X137000000Y-158153800D03*
X137000000Y-151183800D03*
%TD*%
D28*
%TO.C,LED2*%
X179600000Y-114500000D03*
X179600000Y-111500000D03*
%TD*%
D32*
%TO.C,C4*%
X211300000Y-127300000D03*
X211300000Y-132608600D03*
%TD*%
D30*
%TO.C,R7*%
X225700000Y-151000000D03*
X225700000Y-147900000D03*
%TD*%
D28*
%TO.C,LED1*%
X220930000Y-138475000D03*
X220930000Y-135475000D03*
%TD*%
D33*
%TO.C,L4*%
X148440000Y-178416355D03*
X153600000Y-178416355D03*
%TD*%
D18*
%TO.C,R2*%
X100250000Y-101350000D03*
X100250000Y-104450000D03*
%TD*%
D19*
%TO.C,U7*%
X134600000Y-167047555D03*
X157200000Y-167047555D03*
%TD*%
D29*
%TO.C,C15*%
X208600000Y-178936000D03*
X208600000Y-182061000D03*
%TD*%
M02*
