%TF.GenerationSoftware,KiCad,Pcbnew,8.0.2*%
%TF.CreationDate,2024-05-09T14:15:38-06:00*%
%TF.ProjectId,GR-LRR-POWER,47522d4c-5252-42d5-904f-5745522e6b69,rev?*%
%TF.SameCoordinates,Original*%
%TF.FileFunction,Legend,Top*%
%TF.FilePolarity,Positive*%
%FSLAX46Y46*%
G04 Gerber Fmt 4.6, Leading zero omitted, Abs format (unit mm)*
G04 Created by KiCad (PCBNEW 8.0.2) date 2024-05-09 14:15:38*
%MOMM*%
%LPD*%
G01*
G04 APERTURE LIST*
%ADD10C,0.300000*%
%ADD11C,0.200000*%
%ADD12C,0.150000*%
%ADD13C,0.254000*%
%ADD14C,0.152400*%
%ADD15C,0.508000*%
%ADD16C,0.120000*%
%ADD17C,0.100000*%
%ADD18C,0.127000*%
G04 APERTURE END LIST*
D10*
X67754510Y-93285912D02*
X67754510Y-91785912D01*
X67754510Y-91785912D02*
X68325939Y-91785912D01*
X68325939Y-91785912D02*
X68468796Y-91857341D01*
X68468796Y-91857341D02*
X68540225Y-91928769D01*
X68540225Y-91928769D02*
X68611653Y-92071626D01*
X68611653Y-92071626D02*
X68611653Y-92285912D01*
X68611653Y-92285912D02*
X68540225Y-92428769D01*
X68540225Y-92428769D02*
X68468796Y-92500198D01*
X68468796Y-92500198D02*
X68325939Y-92571626D01*
X68325939Y-92571626D02*
X67754510Y-92571626D01*
X69254510Y-93285912D02*
X69254510Y-91785912D01*
X69968796Y-93285912D02*
X69968796Y-91785912D01*
X69968796Y-91785912D02*
X70825939Y-93285912D01*
X70825939Y-93285912D02*
X70825939Y-91785912D01*
X71468797Y-93214484D02*
X71683083Y-93285912D01*
X71683083Y-93285912D02*
X72040225Y-93285912D01*
X72040225Y-93285912D02*
X72183083Y-93214484D01*
X72183083Y-93214484D02*
X72254511Y-93143055D01*
X72254511Y-93143055D02*
X72325940Y-93000198D01*
X72325940Y-93000198D02*
X72325940Y-92857341D01*
X72325940Y-92857341D02*
X72254511Y-92714484D01*
X72254511Y-92714484D02*
X72183083Y-92643055D01*
X72183083Y-92643055D02*
X72040225Y-92571626D01*
X72040225Y-92571626D02*
X71754511Y-92500198D01*
X71754511Y-92500198D02*
X71611654Y-92428769D01*
X71611654Y-92428769D02*
X71540225Y-92357341D01*
X71540225Y-92357341D02*
X71468797Y-92214484D01*
X71468797Y-92214484D02*
X71468797Y-92071626D01*
X71468797Y-92071626D02*
X71540225Y-91928769D01*
X71540225Y-91928769D02*
X71611654Y-91857341D01*
X71611654Y-91857341D02*
X71754511Y-91785912D01*
X71754511Y-91785912D02*
X72111654Y-91785912D01*
X72111654Y-91785912D02*
X72325940Y-91857341D01*
X74897368Y-93285912D02*
X74040225Y-93285912D01*
X74468796Y-93285912D02*
X74468796Y-91785912D01*
X74468796Y-91785912D02*
X74325939Y-92000198D01*
X74325939Y-92000198D02*
X74183082Y-92143055D01*
X74183082Y-92143055D02*
X74040225Y-92214484D01*
X75540224Y-92714484D02*
X76683082Y-92714484D01*
X78040225Y-92285912D02*
X78040225Y-93285912D01*
X77683082Y-91714484D02*
X77325939Y-92785912D01*
X77325939Y-92785912D02*
X78254510Y-92785912D01*
X80468795Y-92500198D02*
X80683081Y-92571626D01*
X80683081Y-92571626D02*
X80754510Y-92643055D01*
X80754510Y-92643055D02*
X80825938Y-92785912D01*
X80825938Y-92785912D02*
X80825938Y-93000198D01*
X80825938Y-93000198D02*
X80754510Y-93143055D01*
X80754510Y-93143055D02*
X80683081Y-93214484D01*
X80683081Y-93214484D02*
X80540224Y-93285912D01*
X80540224Y-93285912D02*
X79968795Y-93285912D01*
X79968795Y-93285912D02*
X79968795Y-91785912D01*
X79968795Y-91785912D02*
X80468795Y-91785912D01*
X80468795Y-91785912D02*
X80611653Y-91857341D01*
X80611653Y-91857341D02*
X80683081Y-91928769D01*
X80683081Y-91928769D02*
X80754510Y-92071626D01*
X80754510Y-92071626D02*
X80754510Y-92214484D01*
X80754510Y-92214484D02*
X80683081Y-92357341D01*
X80683081Y-92357341D02*
X80611653Y-92428769D01*
X80611653Y-92428769D02*
X80468795Y-92500198D01*
X80468795Y-92500198D02*
X79968795Y-92500198D01*
X81254510Y-91785912D02*
X81754510Y-93285912D01*
X81754510Y-93285912D02*
X82254510Y-91785912D01*
X67754510Y-95700828D02*
X67754510Y-94200828D01*
X67754510Y-94200828D02*
X68325939Y-94200828D01*
X68325939Y-94200828D02*
X68468796Y-94272257D01*
X68468796Y-94272257D02*
X68540225Y-94343685D01*
X68540225Y-94343685D02*
X68611653Y-94486542D01*
X68611653Y-94486542D02*
X68611653Y-94700828D01*
X68611653Y-94700828D02*
X68540225Y-94843685D01*
X68540225Y-94843685D02*
X68468796Y-94915114D01*
X68468796Y-94915114D02*
X68325939Y-94986542D01*
X68325939Y-94986542D02*
X67754510Y-94986542D01*
X69254510Y-95700828D02*
X69254510Y-94200828D01*
X69968796Y-95700828D02*
X69968796Y-94200828D01*
X69968796Y-94200828D02*
X70825939Y-95700828D01*
X70825939Y-95700828D02*
X70825939Y-94200828D01*
X71468797Y-95629400D02*
X71683083Y-95700828D01*
X71683083Y-95700828D02*
X72040225Y-95700828D01*
X72040225Y-95700828D02*
X72183083Y-95629400D01*
X72183083Y-95629400D02*
X72254511Y-95557971D01*
X72254511Y-95557971D02*
X72325940Y-95415114D01*
X72325940Y-95415114D02*
X72325940Y-95272257D01*
X72325940Y-95272257D02*
X72254511Y-95129400D01*
X72254511Y-95129400D02*
X72183083Y-95057971D01*
X72183083Y-95057971D02*
X72040225Y-94986542D01*
X72040225Y-94986542D02*
X71754511Y-94915114D01*
X71754511Y-94915114D02*
X71611654Y-94843685D01*
X71611654Y-94843685D02*
X71540225Y-94772257D01*
X71540225Y-94772257D02*
X71468797Y-94629400D01*
X71468797Y-94629400D02*
X71468797Y-94486542D01*
X71468797Y-94486542D02*
X71540225Y-94343685D01*
X71540225Y-94343685D02*
X71611654Y-94272257D01*
X71611654Y-94272257D02*
X71754511Y-94200828D01*
X71754511Y-94200828D02*
X72111654Y-94200828D01*
X72111654Y-94200828D02*
X72325940Y-94272257D01*
X74825939Y-94200828D02*
X74111653Y-94200828D01*
X74111653Y-94200828D02*
X74040225Y-94915114D01*
X74040225Y-94915114D02*
X74111653Y-94843685D01*
X74111653Y-94843685D02*
X74254511Y-94772257D01*
X74254511Y-94772257D02*
X74611653Y-94772257D01*
X74611653Y-94772257D02*
X74754511Y-94843685D01*
X74754511Y-94843685D02*
X74825939Y-94915114D01*
X74825939Y-94915114D02*
X74897368Y-95057971D01*
X74897368Y-95057971D02*
X74897368Y-95415114D01*
X74897368Y-95415114D02*
X74825939Y-95557971D01*
X74825939Y-95557971D02*
X74754511Y-95629400D01*
X74754511Y-95629400D02*
X74611653Y-95700828D01*
X74611653Y-95700828D02*
X74254511Y-95700828D01*
X74254511Y-95700828D02*
X74111653Y-95629400D01*
X74111653Y-95629400D02*
X74040225Y-95557971D01*
X75540224Y-95129400D02*
X76683082Y-95129400D01*
X77611653Y-94843685D02*
X77468796Y-94772257D01*
X77468796Y-94772257D02*
X77397367Y-94700828D01*
X77397367Y-94700828D02*
X77325939Y-94557971D01*
X77325939Y-94557971D02*
X77325939Y-94486542D01*
X77325939Y-94486542D02*
X77397367Y-94343685D01*
X77397367Y-94343685D02*
X77468796Y-94272257D01*
X77468796Y-94272257D02*
X77611653Y-94200828D01*
X77611653Y-94200828D02*
X77897367Y-94200828D01*
X77897367Y-94200828D02*
X78040225Y-94272257D01*
X78040225Y-94272257D02*
X78111653Y-94343685D01*
X78111653Y-94343685D02*
X78183082Y-94486542D01*
X78183082Y-94486542D02*
X78183082Y-94557971D01*
X78183082Y-94557971D02*
X78111653Y-94700828D01*
X78111653Y-94700828D02*
X78040225Y-94772257D01*
X78040225Y-94772257D02*
X77897367Y-94843685D01*
X77897367Y-94843685D02*
X77611653Y-94843685D01*
X77611653Y-94843685D02*
X77468796Y-94915114D01*
X77468796Y-94915114D02*
X77397367Y-94986542D01*
X77397367Y-94986542D02*
X77325939Y-95129400D01*
X77325939Y-95129400D02*
X77325939Y-95415114D01*
X77325939Y-95415114D02*
X77397367Y-95557971D01*
X77397367Y-95557971D02*
X77468796Y-95629400D01*
X77468796Y-95629400D02*
X77611653Y-95700828D01*
X77611653Y-95700828D02*
X77897367Y-95700828D01*
X77897367Y-95700828D02*
X78040225Y-95629400D01*
X78040225Y-95629400D02*
X78111653Y-95557971D01*
X78111653Y-95557971D02*
X78183082Y-95415114D01*
X78183082Y-95415114D02*
X78183082Y-95129400D01*
X78183082Y-95129400D02*
X78111653Y-94986542D01*
X78111653Y-94986542D02*
X78040225Y-94915114D01*
X78040225Y-94915114D02*
X77897367Y-94843685D01*
X80468795Y-94915114D02*
X80683081Y-94986542D01*
X80683081Y-94986542D02*
X80754510Y-95057971D01*
X80754510Y-95057971D02*
X80825938Y-95200828D01*
X80825938Y-95200828D02*
X80825938Y-95415114D01*
X80825938Y-95415114D02*
X80754510Y-95557971D01*
X80754510Y-95557971D02*
X80683081Y-95629400D01*
X80683081Y-95629400D02*
X80540224Y-95700828D01*
X80540224Y-95700828D02*
X79968795Y-95700828D01*
X79968795Y-95700828D02*
X79968795Y-94200828D01*
X79968795Y-94200828D02*
X80468795Y-94200828D01*
X80468795Y-94200828D02*
X80611653Y-94272257D01*
X80611653Y-94272257D02*
X80683081Y-94343685D01*
X80683081Y-94343685D02*
X80754510Y-94486542D01*
X80754510Y-94486542D02*
X80754510Y-94629400D01*
X80754510Y-94629400D02*
X80683081Y-94772257D01*
X80683081Y-94772257D02*
X80611653Y-94843685D01*
X80611653Y-94843685D02*
X80468795Y-94915114D01*
X80468795Y-94915114D02*
X79968795Y-94915114D01*
X82254510Y-94272257D02*
X82111653Y-94200828D01*
X82111653Y-94200828D02*
X81897367Y-94200828D01*
X81897367Y-94200828D02*
X81683081Y-94272257D01*
X81683081Y-94272257D02*
X81540224Y-94415114D01*
X81540224Y-94415114D02*
X81468795Y-94557971D01*
X81468795Y-94557971D02*
X81397367Y-94843685D01*
X81397367Y-94843685D02*
X81397367Y-95057971D01*
X81397367Y-95057971D02*
X81468795Y-95343685D01*
X81468795Y-95343685D02*
X81540224Y-95486542D01*
X81540224Y-95486542D02*
X81683081Y-95629400D01*
X81683081Y-95629400D02*
X81897367Y-95700828D01*
X81897367Y-95700828D02*
X82040224Y-95700828D01*
X82040224Y-95700828D02*
X82254510Y-95629400D01*
X82254510Y-95629400D02*
X82325938Y-95557971D01*
X82325938Y-95557971D02*
X82325938Y-95057971D01*
X82325938Y-95057971D02*
X82040224Y-95057971D01*
X82968795Y-95700828D02*
X82968795Y-94200828D01*
X82968795Y-94200828D02*
X83825938Y-95700828D01*
X83825938Y-95700828D02*
X83825938Y-94200828D01*
X84540224Y-95700828D02*
X84540224Y-94200828D01*
X84540224Y-94200828D02*
X84897367Y-94200828D01*
X84897367Y-94200828D02*
X85111653Y-94272257D01*
X85111653Y-94272257D02*
X85254510Y-94415114D01*
X85254510Y-94415114D02*
X85325939Y-94557971D01*
X85325939Y-94557971D02*
X85397367Y-94843685D01*
X85397367Y-94843685D02*
X85397367Y-95057971D01*
X85397367Y-95057971D02*
X85325939Y-95343685D01*
X85325939Y-95343685D02*
X85254510Y-95486542D01*
X85254510Y-95486542D02*
X85111653Y-95629400D01*
X85111653Y-95629400D02*
X84897367Y-95700828D01*
X84897367Y-95700828D02*
X84540224Y-95700828D01*
X130040225Y-67442425D02*
X129897368Y-67370996D01*
X129897368Y-67370996D02*
X129683082Y-67370996D01*
X129683082Y-67370996D02*
X129468796Y-67442425D01*
X129468796Y-67442425D02*
X129325939Y-67585282D01*
X129325939Y-67585282D02*
X129254510Y-67728139D01*
X129254510Y-67728139D02*
X129183082Y-68013853D01*
X129183082Y-68013853D02*
X129183082Y-68228139D01*
X129183082Y-68228139D02*
X129254510Y-68513853D01*
X129254510Y-68513853D02*
X129325939Y-68656710D01*
X129325939Y-68656710D02*
X129468796Y-68799568D01*
X129468796Y-68799568D02*
X129683082Y-68870996D01*
X129683082Y-68870996D02*
X129825939Y-68870996D01*
X129825939Y-68870996D02*
X130040225Y-68799568D01*
X130040225Y-68799568D02*
X130111653Y-68728139D01*
X130111653Y-68728139D02*
X130111653Y-68228139D01*
X130111653Y-68228139D02*
X129825939Y-68228139D01*
X131611653Y-68870996D02*
X131111653Y-68156710D01*
X130754510Y-68870996D02*
X130754510Y-67370996D01*
X130754510Y-67370996D02*
X131325939Y-67370996D01*
X131325939Y-67370996D02*
X131468796Y-67442425D01*
X131468796Y-67442425D02*
X131540225Y-67513853D01*
X131540225Y-67513853D02*
X131611653Y-67656710D01*
X131611653Y-67656710D02*
X131611653Y-67870996D01*
X131611653Y-67870996D02*
X131540225Y-68013853D01*
X131540225Y-68013853D02*
X131468796Y-68085282D01*
X131468796Y-68085282D02*
X131325939Y-68156710D01*
X131325939Y-68156710D02*
X130754510Y-68156710D01*
X132254510Y-68299568D02*
X133397368Y-68299568D01*
X134825939Y-68870996D02*
X134111653Y-68870996D01*
X134111653Y-68870996D02*
X134111653Y-67370996D01*
X136183082Y-68870996D02*
X135683082Y-68156710D01*
X135325939Y-68870996D02*
X135325939Y-67370996D01*
X135325939Y-67370996D02*
X135897368Y-67370996D01*
X135897368Y-67370996D02*
X136040225Y-67442425D01*
X136040225Y-67442425D02*
X136111654Y-67513853D01*
X136111654Y-67513853D02*
X136183082Y-67656710D01*
X136183082Y-67656710D02*
X136183082Y-67870996D01*
X136183082Y-67870996D02*
X136111654Y-68013853D01*
X136111654Y-68013853D02*
X136040225Y-68085282D01*
X136040225Y-68085282D02*
X135897368Y-68156710D01*
X135897368Y-68156710D02*
X135325939Y-68156710D01*
X137683082Y-68870996D02*
X137183082Y-68156710D01*
X136825939Y-68870996D02*
X136825939Y-67370996D01*
X136825939Y-67370996D02*
X137397368Y-67370996D01*
X137397368Y-67370996D02*
X137540225Y-67442425D01*
X137540225Y-67442425D02*
X137611654Y-67513853D01*
X137611654Y-67513853D02*
X137683082Y-67656710D01*
X137683082Y-67656710D02*
X137683082Y-67870996D01*
X137683082Y-67870996D02*
X137611654Y-68013853D01*
X137611654Y-68013853D02*
X137540225Y-68085282D01*
X137540225Y-68085282D02*
X137397368Y-68156710D01*
X137397368Y-68156710D02*
X136825939Y-68156710D01*
X138325939Y-68299568D02*
X139468797Y-68299568D01*
X140183082Y-68870996D02*
X140183082Y-67370996D01*
X140183082Y-67370996D02*
X140754511Y-67370996D01*
X140754511Y-67370996D02*
X140897368Y-67442425D01*
X140897368Y-67442425D02*
X140968797Y-67513853D01*
X140968797Y-67513853D02*
X141040225Y-67656710D01*
X141040225Y-67656710D02*
X141040225Y-67870996D01*
X141040225Y-67870996D02*
X140968797Y-68013853D01*
X140968797Y-68013853D02*
X140897368Y-68085282D01*
X140897368Y-68085282D02*
X140754511Y-68156710D01*
X140754511Y-68156710D02*
X140183082Y-68156710D01*
X141968797Y-67370996D02*
X142254511Y-67370996D01*
X142254511Y-67370996D02*
X142397368Y-67442425D01*
X142397368Y-67442425D02*
X142540225Y-67585282D01*
X142540225Y-67585282D02*
X142611654Y-67870996D01*
X142611654Y-67870996D02*
X142611654Y-68370996D01*
X142611654Y-68370996D02*
X142540225Y-68656710D01*
X142540225Y-68656710D02*
X142397368Y-68799568D01*
X142397368Y-68799568D02*
X142254511Y-68870996D01*
X142254511Y-68870996D02*
X141968797Y-68870996D01*
X141968797Y-68870996D02*
X141825940Y-68799568D01*
X141825940Y-68799568D02*
X141683082Y-68656710D01*
X141683082Y-68656710D02*
X141611654Y-68370996D01*
X141611654Y-68370996D02*
X141611654Y-67870996D01*
X141611654Y-67870996D02*
X141683082Y-67585282D01*
X141683082Y-67585282D02*
X141825940Y-67442425D01*
X141825940Y-67442425D02*
X141968797Y-67370996D01*
X143111654Y-67370996D02*
X143468797Y-68870996D01*
X143468797Y-68870996D02*
X143754511Y-67799568D01*
X143754511Y-67799568D02*
X144040226Y-68870996D01*
X144040226Y-68870996D02*
X144397369Y-67370996D01*
X144968797Y-68085282D02*
X145468797Y-68085282D01*
X145683083Y-68870996D02*
X144968797Y-68870996D01*
X144968797Y-68870996D02*
X144968797Y-67370996D01*
X144968797Y-67370996D02*
X145683083Y-67370996D01*
X147183083Y-68870996D02*
X146683083Y-68156710D01*
X146325940Y-68870996D02*
X146325940Y-67370996D01*
X146325940Y-67370996D02*
X146897369Y-67370996D01*
X146897369Y-67370996D02*
X147040226Y-67442425D01*
X147040226Y-67442425D02*
X147111655Y-67513853D01*
X147111655Y-67513853D02*
X147183083Y-67656710D01*
X147183083Y-67656710D02*
X147183083Y-67870996D01*
X147183083Y-67870996D02*
X147111655Y-68013853D01*
X147111655Y-68013853D02*
X147040226Y-68085282D01*
X147040226Y-68085282D02*
X146897369Y-68156710D01*
X146897369Y-68156710D02*
X146325940Y-68156710D01*
X129540225Y-69785912D02*
X129683082Y-69785912D01*
X129683082Y-69785912D02*
X129825939Y-69857341D01*
X129825939Y-69857341D02*
X129897368Y-69928769D01*
X129897368Y-69928769D02*
X129968796Y-70071626D01*
X129968796Y-70071626D02*
X130040225Y-70357341D01*
X130040225Y-70357341D02*
X130040225Y-70714484D01*
X130040225Y-70714484D02*
X129968796Y-71000198D01*
X129968796Y-71000198D02*
X129897368Y-71143055D01*
X129897368Y-71143055D02*
X129825939Y-71214484D01*
X129825939Y-71214484D02*
X129683082Y-71285912D01*
X129683082Y-71285912D02*
X129540225Y-71285912D01*
X129540225Y-71285912D02*
X129397368Y-71214484D01*
X129397368Y-71214484D02*
X129325939Y-71143055D01*
X129325939Y-71143055D02*
X129254510Y-71000198D01*
X129254510Y-71000198D02*
X129183082Y-70714484D01*
X129183082Y-70714484D02*
X129183082Y-70357341D01*
X129183082Y-70357341D02*
X129254510Y-70071626D01*
X129254510Y-70071626D02*
X129325939Y-69928769D01*
X129325939Y-69928769D02*
X129397368Y-69857341D01*
X129397368Y-69857341D02*
X129540225Y-69785912D01*
X131397367Y-69785912D02*
X130683081Y-69785912D01*
X130683081Y-69785912D02*
X130611653Y-70500198D01*
X130611653Y-70500198D02*
X130683081Y-70428769D01*
X130683081Y-70428769D02*
X130825939Y-70357341D01*
X130825939Y-70357341D02*
X131183081Y-70357341D01*
X131183081Y-70357341D02*
X131325939Y-70428769D01*
X131325939Y-70428769D02*
X131397367Y-70500198D01*
X131397367Y-70500198D02*
X131468796Y-70643055D01*
X131468796Y-70643055D02*
X131468796Y-71000198D01*
X131468796Y-71000198D02*
X131397367Y-71143055D01*
X131397367Y-71143055D02*
X131325939Y-71214484D01*
X131325939Y-71214484D02*
X131183081Y-71285912D01*
X131183081Y-71285912D02*
X130825939Y-71285912D01*
X130825939Y-71285912D02*
X130683081Y-71214484D01*
X130683081Y-71214484D02*
X130611653Y-71143055D01*
X132111652Y-70714484D02*
X133254510Y-70714484D01*
X134254510Y-69785912D02*
X134397367Y-69785912D01*
X134397367Y-69785912D02*
X134540224Y-69857341D01*
X134540224Y-69857341D02*
X134611653Y-69928769D01*
X134611653Y-69928769D02*
X134683081Y-70071626D01*
X134683081Y-70071626D02*
X134754510Y-70357341D01*
X134754510Y-70357341D02*
X134754510Y-70714484D01*
X134754510Y-70714484D02*
X134683081Y-71000198D01*
X134683081Y-71000198D02*
X134611653Y-71143055D01*
X134611653Y-71143055D02*
X134540224Y-71214484D01*
X134540224Y-71214484D02*
X134397367Y-71285912D01*
X134397367Y-71285912D02*
X134254510Y-71285912D01*
X134254510Y-71285912D02*
X134111653Y-71214484D01*
X134111653Y-71214484D02*
X134040224Y-71143055D01*
X134040224Y-71143055D02*
X133968795Y-71000198D01*
X133968795Y-71000198D02*
X133897367Y-70714484D01*
X133897367Y-70714484D02*
X133897367Y-70357341D01*
X133897367Y-70357341D02*
X133968795Y-70071626D01*
X133968795Y-70071626D02*
X134040224Y-69928769D01*
X134040224Y-69928769D02*
X134111653Y-69857341D01*
X134111653Y-69857341D02*
X134254510Y-69785912D01*
X135468795Y-71285912D02*
X135754509Y-71285912D01*
X135754509Y-71285912D02*
X135897366Y-71214484D01*
X135897366Y-71214484D02*
X135968795Y-71143055D01*
X135968795Y-71143055D02*
X136111652Y-70928769D01*
X136111652Y-70928769D02*
X136183081Y-70643055D01*
X136183081Y-70643055D02*
X136183081Y-70071626D01*
X136183081Y-70071626D02*
X136111652Y-69928769D01*
X136111652Y-69928769D02*
X136040224Y-69857341D01*
X136040224Y-69857341D02*
X135897366Y-69785912D01*
X135897366Y-69785912D02*
X135611652Y-69785912D01*
X135611652Y-69785912D02*
X135468795Y-69857341D01*
X135468795Y-69857341D02*
X135397366Y-69928769D01*
X135397366Y-69928769D02*
X135325938Y-70071626D01*
X135325938Y-70071626D02*
X135325938Y-70428769D01*
X135325938Y-70428769D02*
X135397366Y-70571626D01*
X135397366Y-70571626D02*
X135468795Y-70643055D01*
X135468795Y-70643055D02*
X135611652Y-70714484D01*
X135611652Y-70714484D02*
X135897366Y-70714484D01*
X135897366Y-70714484D02*
X136040224Y-70643055D01*
X136040224Y-70643055D02*
X136111652Y-70571626D01*
X136111652Y-70571626D02*
X136183081Y-70428769D01*
X136825937Y-70714484D02*
X137968795Y-70714484D01*
X138611652Y-69928769D02*
X138683080Y-69857341D01*
X138683080Y-69857341D02*
X138825938Y-69785912D01*
X138825938Y-69785912D02*
X139183080Y-69785912D01*
X139183080Y-69785912D02*
X139325938Y-69857341D01*
X139325938Y-69857341D02*
X139397366Y-69928769D01*
X139397366Y-69928769D02*
X139468795Y-70071626D01*
X139468795Y-70071626D02*
X139468795Y-70214484D01*
X139468795Y-70214484D02*
X139397366Y-70428769D01*
X139397366Y-70428769D02*
X138540223Y-71285912D01*
X138540223Y-71285912D02*
X139468795Y-71285912D01*
X140397366Y-69785912D02*
X140540223Y-69785912D01*
X140540223Y-69785912D02*
X140683080Y-69857341D01*
X140683080Y-69857341D02*
X140754509Y-69928769D01*
X140754509Y-69928769D02*
X140825937Y-70071626D01*
X140825937Y-70071626D02*
X140897366Y-70357341D01*
X140897366Y-70357341D02*
X140897366Y-70714484D01*
X140897366Y-70714484D02*
X140825937Y-71000198D01*
X140825937Y-71000198D02*
X140754509Y-71143055D01*
X140754509Y-71143055D02*
X140683080Y-71214484D01*
X140683080Y-71214484D02*
X140540223Y-71285912D01*
X140540223Y-71285912D02*
X140397366Y-71285912D01*
X140397366Y-71285912D02*
X140254509Y-71214484D01*
X140254509Y-71214484D02*
X140183080Y-71143055D01*
X140183080Y-71143055D02*
X140111651Y-71000198D01*
X140111651Y-71000198D02*
X140040223Y-70714484D01*
X140040223Y-70714484D02*
X140040223Y-70357341D01*
X140040223Y-70357341D02*
X140111651Y-70071626D01*
X140111651Y-70071626D02*
X140183080Y-69928769D01*
X140183080Y-69928769D02*
X140254509Y-69857341D01*
X140254509Y-69857341D02*
X140397366Y-69785912D01*
X141468794Y-69928769D02*
X141540222Y-69857341D01*
X141540222Y-69857341D02*
X141683080Y-69785912D01*
X141683080Y-69785912D02*
X142040222Y-69785912D01*
X142040222Y-69785912D02*
X142183080Y-69857341D01*
X142183080Y-69857341D02*
X142254508Y-69928769D01*
X142254508Y-69928769D02*
X142325937Y-70071626D01*
X142325937Y-70071626D02*
X142325937Y-70214484D01*
X142325937Y-70214484D02*
X142254508Y-70428769D01*
X142254508Y-70428769D02*
X141397365Y-71285912D01*
X141397365Y-71285912D02*
X142325937Y-71285912D01*
X143611651Y-70285912D02*
X143611651Y-71285912D01*
X143254508Y-69714484D02*
X142897365Y-70785912D01*
X142897365Y-70785912D02*
X143825936Y-70785912D01*
X129183082Y-73272257D02*
X129897368Y-73272257D01*
X129040225Y-73700828D02*
X129540225Y-72200828D01*
X129540225Y-72200828D02*
X130040225Y-73700828D01*
X130397367Y-72200828D02*
X131325939Y-72200828D01*
X131325939Y-72200828D02*
X130825939Y-72772257D01*
X130825939Y-72772257D02*
X131040224Y-72772257D01*
X131040224Y-72772257D02*
X131183082Y-72843685D01*
X131183082Y-72843685D02*
X131254510Y-72915114D01*
X131254510Y-72915114D02*
X131325939Y-73057971D01*
X131325939Y-73057971D02*
X131325939Y-73415114D01*
X131325939Y-73415114D02*
X131254510Y-73557971D01*
X131254510Y-73557971D02*
X131183082Y-73629400D01*
X131183082Y-73629400D02*
X131040224Y-73700828D01*
X131040224Y-73700828D02*
X130611653Y-73700828D01*
X130611653Y-73700828D02*
X130468796Y-73629400D01*
X130468796Y-73629400D02*
X130397367Y-73557971D01*
X81383082Y-109099568D02*
X81597368Y-109170996D01*
X81597368Y-109170996D02*
X81954510Y-109170996D01*
X81954510Y-109170996D02*
X82097368Y-109099568D01*
X82097368Y-109099568D02*
X82168796Y-109028139D01*
X82168796Y-109028139D02*
X82240225Y-108885282D01*
X82240225Y-108885282D02*
X82240225Y-108742425D01*
X82240225Y-108742425D02*
X82168796Y-108599568D01*
X82168796Y-108599568D02*
X82097368Y-108528139D01*
X82097368Y-108528139D02*
X81954510Y-108456710D01*
X81954510Y-108456710D02*
X81668796Y-108385282D01*
X81668796Y-108385282D02*
X81525939Y-108313853D01*
X81525939Y-108313853D02*
X81454510Y-108242425D01*
X81454510Y-108242425D02*
X81383082Y-108099568D01*
X81383082Y-108099568D02*
X81383082Y-107956710D01*
X81383082Y-107956710D02*
X81454510Y-107813853D01*
X81454510Y-107813853D02*
X81525939Y-107742425D01*
X81525939Y-107742425D02*
X81668796Y-107670996D01*
X81668796Y-107670996D02*
X82025939Y-107670996D01*
X82025939Y-107670996D02*
X82240225Y-107742425D01*
X82883081Y-109170996D02*
X82883081Y-107670996D01*
X82883081Y-108385282D02*
X83740224Y-108385282D01*
X83740224Y-109170996D02*
X83740224Y-107670996D01*
X84454510Y-109170996D02*
X84454510Y-107670996D01*
X84454510Y-107670996D02*
X84811653Y-107670996D01*
X84811653Y-107670996D02*
X85025939Y-107742425D01*
X85025939Y-107742425D02*
X85168796Y-107885282D01*
X85168796Y-107885282D02*
X85240225Y-108028139D01*
X85240225Y-108028139D02*
X85311653Y-108313853D01*
X85311653Y-108313853D02*
X85311653Y-108528139D01*
X85311653Y-108528139D02*
X85240225Y-108813853D01*
X85240225Y-108813853D02*
X85168796Y-108956710D01*
X85168796Y-108956710D02*
X85025939Y-109099568D01*
X85025939Y-109099568D02*
X84811653Y-109170996D01*
X84811653Y-109170996D02*
X84454510Y-109170996D01*
X85954510Y-109170996D02*
X85954510Y-107670996D01*
X85954510Y-107670996D02*
X86811653Y-109170996D01*
X86811653Y-109170996D02*
X86811653Y-107670996D01*
X82240225Y-112572257D02*
X82097368Y-112500828D01*
X82097368Y-112500828D02*
X81883082Y-112500828D01*
X81883082Y-112500828D02*
X81668796Y-112572257D01*
X81668796Y-112572257D02*
X81525939Y-112715114D01*
X81525939Y-112715114D02*
X81454510Y-112857971D01*
X81454510Y-112857971D02*
X81383082Y-113143685D01*
X81383082Y-113143685D02*
X81383082Y-113357971D01*
X81383082Y-113357971D02*
X81454510Y-113643685D01*
X81454510Y-113643685D02*
X81525939Y-113786542D01*
X81525939Y-113786542D02*
X81668796Y-113929400D01*
X81668796Y-113929400D02*
X81883082Y-114000828D01*
X81883082Y-114000828D02*
X82025939Y-114000828D01*
X82025939Y-114000828D02*
X82240225Y-113929400D01*
X82240225Y-113929400D02*
X82311653Y-113857971D01*
X82311653Y-113857971D02*
X82311653Y-113357971D01*
X82311653Y-113357971D02*
X82025939Y-113357971D01*
X82954510Y-114000828D02*
X82954510Y-112500828D01*
X82954510Y-112500828D02*
X83811653Y-114000828D01*
X83811653Y-114000828D02*
X83811653Y-112500828D01*
X84525939Y-114000828D02*
X84525939Y-112500828D01*
X84525939Y-112500828D02*
X84883082Y-112500828D01*
X84883082Y-112500828D02*
X85097368Y-112572257D01*
X85097368Y-112572257D02*
X85240225Y-112715114D01*
X85240225Y-112715114D02*
X85311654Y-112857971D01*
X85311654Y-112857971D02*
X85383082Y-113143685D01*
X85383082Y-113143685D02*
X85383082Y-113357971D01*
X85383082Y-113357971D02*
X85311654Y-113643685D01*
X85311654Y-113643685D02*
X85240225Y-113786542D01*
X85240225Y-113786542D02*
X85097368Y-113929400D01*
X85097368Y-113929400D02*
X84883082Y-114000828D01*
X84883082Y-114000828D02*
X84525939Y-114000828D01*
D11*
X137000000Y-90000000D02*
X137000000Y-172000000D01*
X69815584Y-75980000D02*
G75*
G02*
X63654416Y-75980000I-3080584J0D01*
G01*
X63654416Y-75980000D02*
G75*
G02*
X69815584Y-75980000I3080584J0D01*
G01*
X251835000Y-75980000D02*
G75*
G02*
X245673832Y-75980000I-3080584J0D01*
G01*
X245673832Y-75980000D02*
G75*
G02*
X251835000Y-75980000I3080584J0D01*
G01*
D10*
X128817257Y-143259774D02*
X128817257Y-144688346D01*
X128817257Y-144688346D02*
X130245828Y-144831203D01*
X130245828Y-144831203D02*
X130102971Y-144688346D01*
X130102971Y-144688346D02*
X129960114Y-144402632D01*
X129960114Y-144402632D02*
X129960114Y-143688346D01*
X129960114Y-143688346D02*
X130102971Y-143402632D01*
X130102971Y-143402632D02*
X130245828Y-143259774D01*
X130245828Y-143259774D02*
X130531542Y-143116917D01*
X130531542Y-143116917D02*
X131245828Y-143116917D01*
X131245828Y-143116917D02*
X131531542Y-143259774D01*
X131531542Y-143259774D02*
X131674400Y-143402632D01*
X131674400Y-143402632D02*
X131817257Y-143688346D01*
X131817257Y-143688346D02*
X131817257Y-144402632D01*
X131817257Y-144402632D02*
X131674400Y-144688346D01*
X131674400Y-144688346D02*
X131531542Y-144831203D01*
X128817257Y-142259774D02*
X131817257Y-141259774D01*
X131817257Y-141259774D02*
X128817257Y-140259774D01*
X129002971Y-122431203D02*
X128860114Y-122288346D01*
X128860114Y-122288346D02*
X128717257Y-122002632D01*
X128717257Y-122002632D02*
X128717257Y-121288346D01*
X128717257Y-121288346D02*
X128860114Y-121002632D01*
X128860114Y-121002632D02*
X129002971Y-120859774D01*
X129002971Y-120859774D02*
X129288685Y-120716917D01*
X129288685Y-120716917D02*
X129574400Y-120716917D01*
X129574400Y-120716917D02*
X130002971Y-120859774D01*
X130002971Y-120859774D02*
X131717257Y-122574060D01*
X131717257Y-122574060D02*
X131717257Y-120716917D01*
X129717257Y-118145489D02*
X131717257Y-118145489D01*
X128574400Y-118859774D02*
X130717257Y-119574060D01*
X130717257Y-119574060D02*
X130717257Y-117716917D01*
X128717257Y-117002631D02*
X131717257Y-116002631D01*
X131717257Y-116002631D02*
X128717257Y-115002631D01*
X211368796Y-136702971D02*
X211511653Y-136560114D01*
X211511653Y-136560114D02*
X211797368Y-136417257D01*
X211797368Y-136417257D02*
X212511653Y-136417257D01*
X212511653Y-136417257D02*
X212797368Y-136560114D01*
X212797368Y-136560114D02*
X212940225Y-136702971D01*
X212940225Y-136702971D02*
X213083082Y-136988685D01*
X213083082Y-136988685D02*
X213083082Y-137274400D01*
X213083082Y-137274400D02*
X212940225Y-137702971D01*
X212940225Y-137702971D02*
X211225939Y-139417257D01*
X211225939Y-139417257D02*
X213083082Y-139417257D01*
X215654511Y-137417257D02*
X215654511Y-139417257D01*
X214940225Y-136274400D02*
X214225939Y-138417257D01*
X214225939Y-138417257D02*
X216083082Y-138417257D01*
X216797368Y-136417257D02*
X217797368Y-139417257D01*
X217797368Y-139417257D02*
X218797368Y-136417257D01*
X128817257Y-171474060D02*
X128817257Y-169616917D01*
X128817257Y-169616917D02*
X129960114Y-170616917D01*
X129960114Y-170616917D02*
X129960114Y-170188346D01*
X129960114Y-170188346D02*
X130102971Y-169902632D01*
X130102971Y-169902632D02*
X130245828Y-169759774D01*
X130245828Y-169759774D02*
X130531542Y-169616917D01*
X130531542Y-169616917D02*
X131245828Y-169616917D01*
X131245828Y-169616917D02*
X131531542Y-169759774D01*
X131531542Y-169759774D02*
X131674400Y-169902632D01*
X131674400Y-169902632D02*
X131817257Y-170188346D01*
X131817257Y-170188346D02*
X131817257Y-171045489D01*
X131817257Y-171045489D02*
X131674400Y-171331203D01*
X131674400Y-171331203D02*
X131531542Y-171474060D01*
X131531542Y-168331203D02*
X131674400Y-168188346D01*
X131674400Y-168188346D02*
X131817257Y-168331203D01*
X131817257Y-168331203D02*
X131674400Y-168474060D01*
X131674400Y-168474060D02*
X131531542Y-168331203D01*
X131531542Y-168331203D02*
X131817257Y-168331203D01*
X128817257Y-167188346D02*
X128817257Y-165331203D01*
X128817257Y-165331203D02*
X129960114Y-166331203D01*
X129960114Y-166331203D02*
X129960114Y-165902632D01*
X129960114Y-165902632D02*
X130102971Y-165616918D01*
X130102971Y-165616918D02*
X130245828Y-165474060D01*
X130245828Y-165474060D02*
X130531542Y-165331203D01*
X130531542Y-165331203D02*
X131245828Y-165331203D01*
X131245828Y-165331203D02*
X131531542Y-165474060D01*
X131531542Y-165474060D02*
X131674400Y-165616918D01*
X131674400Y-165616918D02*
X131817257Y-165902632D01*
X131817257Y-165902632D02*
X131817257Y-166759775D01*
X131817257Y-166759775D02*
X131674400Y-167045489D01*
X131674400Y-167045489D02*
X131531542Y-167188346D01*
X128817257Y-164474060D02*
X131817257Y-163474060D01*
X131817257Y-163474060D02*
X128817257Y-162474060D01*
X131417257Y-97116917D02*
X131417257Y-98831203D01*
X131417257Y-97974060D02*
X128417257Y-97974060D01*
X128417257Y-97974060D02*
X128845828Y-98259774D01*
X128845828Y-98259774D02*
X129131542Y-98545489D01*
X129131542Y-98545489D02*
X129274400Y-98831203D01*
X129702971Y-95402631D02*
X129560114Y-95688346D01*
X129560114Y-95688346D02*
X129417257Y-95831203D01*
X129417257Y-95831203D02*
X129131542Y-95974060D01*
X129131542Y-95974060D02*
X128988685Y-95974060D01*
X128988685Y-95974060D02*
X128702971Y-95831203D01*
X128702971Y-95831203D02*
X128560114Y-95688346D01*
X128560114Y-95688346D02*
X128417257Y-95402631D01*
X128417257Y-95402631D02*
X128417257Y-94831203D01*
X128417257Y-94831203D02*
X128560114Y-94545489D01*
X128560114Y-94545489D02*
X128702971Y-94402631D01*
X128702971Y-94402631D02*
X128988685Y-94259774D01*
X128988685Y-94259774D02*
X129131542Y-94259774D01*
X129131542Y-94259774D02*
X129417257Y-94402631D01*
X129417257Y-94402631D02*
X129560114Y-94545489D01*
X129560114Y-94545489D02*
X129702971Y-94831203D01*
X129702971Y-94831203D02*
X129702971Y-95402631D01*
X129702971Y-95402631D02*
X129845828Y-95688346D01*
X129845828Y-95688346D02*
X129988685Y-95831203D01*
X129988685Y-95831203D02*
X130274400Y-95974060D01*
X130274400Y-95974060D02*
X130845828Y-95974060D01*
X130845828Y-95974060D02*
X131131542Y-95831203D01*
X131131542Y-95831203D02*
X131274400Y-95688346D01*
X131274400Y-95688346D02*
X131417257Y-95402631D01*
X131417257Y-95402631D02*
X131417257Y-94831203D01*
X131417257Y-94831203D02*
X131274400Y-94545489D01*
X131274400Y-94545489D02*
X131131542Y-94402631D01*
X131131542Y-94402631D02*
X130845828Y-94259774D01*
X130845828Y-94259774D02*
X130274400Y-94259774D01*
X130274400Y-94259774D02*
X129988685Y-94402631D01*
X129988685Y-94402631D02*
X129845828Y-94545489D01*
X129845828Y-94545489D02*
X129702971Y-94831203D01*
X128417257Y-93402631D02*
X131417257Y-92402631D01*
X131417257Y-92402631D02*
X128417257Y-91402631D01*
X225345810Y-92968796D02*
X225417238Y-92825939D01*
X225417238Y-92825939D02*
X225488667Y-92754510D01*
X225488667Y-92754510D02*
X225631524Y-92683082D01*
X225631524Y-92683082D02*
X225702953Y-92683082D01*
X225702953Y-92683082D02*
X225845810Y-92754510D01*
X225845810Y-92754510D02*
X225917238Y-92825939D01*
X225917238Y-92825939D02*
X225988667Y-92968796D01*
X225988667Y-92968796D02*
X225988667Y-93254510D01*
X225988667Y-93254510D02*
X225917238Y-93397368D01*
X225917238Y-93397368D02*
X225845810Y-93468796D01*
X225845810Y-93468796D02*
X225702953Y-93540225D01*
X225702953Y-93540225D02*
X225631524Y-93540225D01*
X225631524Y-93540225D02*
X225488667Y-93468796D01*
X225488667Y-93468796D02*
X225417238Y-93397368D01*
X225417238Y-93397368D02*
X225345810Y-93254510D01*
X225345810Y-93254510D02*
X225345810Y-92968796D01*
X225345810Y-92968796D02*
X225274381Y-92825939D01*
X225274381Y-92825939D02*
X225202953Y-92754510D01*
X225202953Y-92754510D02*
X225060096Y-92683082D01*
X225060096Y-92683082D02*
X224774381Y-92683082D01*
X224774381Y-92683082D02*
X224631524Y-92754510D01*
X224631524Y-92754510D02*
X224560096Y-92825939D01*
X224560096Y-92825939D02*
X224488667Y-92968796D01*
X224488667Y-92968796D02*
X224488667Y-93254510D01*
X224488667Y-93254510D02*
X224560096Y-93397368D01*
X224560096Y-93397368D02*
X224631524Y-93468796D01*
X224631524Y-93468796D02*
X224774381Y-93540225D01*
X224774381Y-93540225D02*
X225060096Y-93540225D01*
X225060096Y-93540225D02*
X225202953Y-93468796D01*
X225202953Y-93468796D02*
X225274381Y-93397368D01*
X225274381Y-93397368D02*
X225345810Y-93254510D01*
X224631524Y-94183081D02*
X224560096Y-94254510D01*
X224560096Y-94254510D02*
X224488667Y-94183081D01*
X224488667Y-94183081D02*
X224560096Y-94111653D01*
X224560096Y-94111653D02*
X224631524Y-94183081D01*
X224631524Y-94183081D02*
X224488667Y-94183081D01*
X225845810Y-95968796D02*
X225917238Y-96040224D01*
X225917238Y-96040224D02*
X225988667Y-96183082D01*
X225988667Y-96183082D02*
X225988667Y-96540224D01*
X225988667Y-96540224D02*
X225917238Y-96683082D01*
X225917238Y-96683082D02*
X225845810Y-96754510D01*
X225845810Y-96754510D02*
X225702953Y-96825939D01*
X225702953Y-96825939D02*
X225560096Y-96825939D01*
X225560096Y-96825939D02*
X225345810Y-96754510D01*
X225345810Y-96754510D02*
X224488667Y-95897367D01*
X224488667Y-95897367D02*
X224488667Y-96825939D01*
X225488667Y-98111653D02*
X224488667Y-98111653D01*
X226060096Y-97754510D02*
X224988667Y-97397367D01*
X224988667Y-97397367D02*
X224988667Y-98325938D01*
X225988667Y-98683081D02*
X224488667Y-99183081D01*
X224488667Y-99183081D02*
X225988667Y-99683081D01*
X221158835Y-92611653D02*
X221158835Y-93611653D01*
X221158835Y-93611653D02*
X219658835Y-92968796D01*
X219801692Y-94183081D02*
X219730264Y-94254510D01*
X219730264Y-94254510D02*
X219658835Y-94183081D01*
X219658835Y-94183081D02*
X219730264Y-94111653D01*
X219730264Y-94111653D02*
X219801692Y-94183081D01*
X219801692Y-94183081D02*
X219658835Y-94183081D01*
X221158835Y-96754510D02*
X221158835Y-96040224D01*
X221158835Y-96040224D02*
X220444549Y-95968796D01*
X220444549Y-95968796D02*
X220515978Y-96040224D01*
X220515978Y-96040224D02*
X220587406Y-96183082D01*
X220587406Y-96183082D02*
X220587406Y-96540224D01*
X220587406Y-96540224D02*
X220515978Y-96683082D01*
X220515978Y-96683082D02*
X220444549Y-96754510D01*
X220444549Y-96754510D02*
X220301692Y-96825939D01*
X220301692Y-96825939D02*
X219944549Y-96825939D01*
X219944549Y-96825939D02*
X219801692Y-96754510D01*
X219801692Y-96754510D02*
X219730264Y-96683082D01*
X219730264Y-96683082D02*
X219658835Y-96540224D01*
X219658835Y-96540224D02*
X219658835Y-96183082D01*
X219658835Y-96183082D02*
X219730264Y-96040224D01*
X219730264Y-96040224D02*
X219801692Y-95968796D01*
X221158835Y-97254510D02*
X219658835Y-97754510D01*
X219658835Y-97754510D02*
X221158835Y-98254510D01*
X216329003Y-93397368D02*
X216329003Y-93111653D01*
X216329003Y-93111653D02*
X216257574Y-92968796D01*
X216257574Y-92968796D02*
X216186146Y-92897368D01*
X216186146Y-92897368D02*
X215971860Y-92754510D01*
X215971860Y-92754510D02*
X215686146Y-92683082D01*
X215686146Y-92683082D02*
X215114717Y-92683082D01*
X215114717Y-92683082D02*
X214971860Y-92754510D01*
X214971860Y-92754510D02*
X214900432Y-92825939D01*
X214900432Y-92825939D02*
X214829003Y-92968796D01*
X214829003Y-92968796D02*
X214829003Y-93254510D01*
X214829003Y-93254510D02*
X214900432Y-93397368D01*
X214900432Y-93397368D02*
X214971860Y-93468796D01*
X214971860Y-93468796D02*
X215114717Y-93540225D01*
X215114717Y-93540225D02*
X215471860Y-93540225D01*
X215471860Y-93540225D02*
X215614717Y-93468796D01*
X215614717Y-93468796D02*
X215686146Y-93397368D01*
X215686146Y-93397368D02*
X215757574Y-93254510D01*
X215757574Y-93254510D02*
X215757574Y-92968796D01*
X215757574Y-92968796D02*
X215686146Y-92825939D01*
X215686146Y-92825939D02*
X215614717Y-92754510D01*
X215614717Y-92754510D02*
X215471860Y-92683082D01*
X214971860Y-94183081D02*
X214900432Y-94254510D01*
X214900432Y-94254510D02*
X214829003Y-94183081D01*
X214829003Y-94183081D02*
X214900432Y-94111653D01*
X214900432Y-94111653D02*
X214971860Y-94183081D01*
X214971860Y-94183081D02*
X214829003Y-94183081D01*
X216329003Y-95897367D02*
X216329003Y-96825939D01*
X216329003Y-96825939D02*
X215757574Y-96325939D01*
X215757574Y-96325939D02*
X215757574Y-96540224D01*
X215757574Y-96540224D02*
X215686146Y-96683082D01*
X215686146Y-96683082D02*
X215614717Y-96754510D01*
X215614717Y-96754510D02*
X215471860Y-96825939D01*
X215471860Y-96825939D02*
X215114717Y-96825939D01*
X215114717Y-96825939D02*
X214971860Y-96754510D01*
X214971860Y-96754510D02*
X214900432Y-96683082D01*
X214900432Y-96683082D02*
X214829003Y-96540224D01*
X214829003Y-96540224D02*
X214829003Y-96111653D01*
X214829003Y-96111653D02*
X214900432Y-95968796D01*
X214900432Y-95968796D02*
X214971860Y-95897367D01*
X214971860Y-97468795D02*
X214900432Y-97540224D01*
X214900432Y-97540224D02*
X214829003Y-97468795D01*
X214829003Y-97468795D02*
X214900432Y-97397367D01*
X214900432Y-97397367D02*
X214971860Y-97468795D01*
X214971860Y-97468795D02*
X214829003Y-97468795D01*
X216329003Y-98040224D02*
X216329003Y-98968796D01*
X216329003Y-98968796D02*
X215757574Y-98468796D01*
X215757574Y-98468796D02*
X215757574Y-98683081D01*
X215757574Y-98683081D02*
X215686146Y-98825939D01*
X215686146Y-98825939D02*
X215614717Y-98897367D01*
X215614717Y-98897367D02*
X215471860Y-98968796D01*
X215471860Y-98968796D02*
X215114717Y-98968796D01*
X215114717Y-98968796D02*
X214971860Y-98897367D01*
X214971860Y-98897367D02*
X214900432Y-98825939D01*
X214900432Y-98825939D02*
X214829003Y-98683081D01*
X214829003Y-98683081D02*
X214829003Y-98254510D01*
X214829003Y-98254510D02*
X214900432Y-98111653D01*
X214900432Y-98111653D02*
X214971860Y-98040224D01*
X216329003Y-99397367D02*
X214829003Y-99897367D01*
X214829003Y-99897367D02*
X216329003Y-100397367D01*
X211499171Y-93468796D02*
X211499171Y-92754510D01*
X211499171Y-92754510D02*
X210784885Y-92683082D01*
X210784885Y-92683082D02*
X210856314Y-92754510D01*
X210856314Y-92754510D02*
X210927742Y-92897368D01*
X210927742Y-92897368D02*
X210927742Y-93254510D01*
X210927742Y-93254510D02*
X210856314Y-93397368D01*
X210856314Y-93397368D02*
X210784885Y-93468796D01*
X210784885Y-93468796D02*
X210642028Y-93540225D01*
X210642028Y-93540225D02*
X210284885Y-93540225D01*
X210284885Y-93540225D02*
X210142028Y-93468796D01*
X210142028Y-93468796D02*
X210070600Y-93397368D01*
X210070600Y-93397368D02*
X209999171Y-93254510D01*
X209999171Y-93254510D02*
X209999171Y-92897368D01*
X209999171Y-92897368D02*
X210070600Y-92754510D01*
X210070600Y-92754510D02*
X210142028Y-92683082D01*
X210142028Y-94183081D02*
X210070600Y-94254510D01*
X210070600Y-94254510D02*
X209999171Y-94183081D01*
X209999171Y-94183081D02*
X210070600Y-94111653D01*
X210070600Y-94111653D02*
X210142028Y-94183081D01*
X210142028Y-94183081D02*
X209999171Y-94183081D01*
X211427742Y-96825939D02*
X211499171Y-96683082D01*
X211499171Y-96683082D02*
X211499171Y-96468796D01*
X211499171Y-96468796D02*
X211427742Y-96254510D01*
X211427742Y-96254510D02*
X211284885Y-96111653D01*
X211284885Y-96111653D02*
X211142028Y-96040224D01*
X211142028Y-96040224D02*
X210856314Y-95968796D01*
X210856314Y-95968796D02*
X210642028Y-95968796D01*
X210642028Y-95968796D02*
X210356314Y-96040224D01*
X210356314Y-96040224D02*
X210213457Y-96111653D01*
X210213457Y-96111653D02*
X210070600Y-96254510D01*
X210070600Y-96254510D02*
X209999171Y-96468796D01*
X209999171Y-96468796D02*
X209999171Y-96611653D01*
X209999171Y-96611653D02*
X210070600Y-96825939D01*
X210070600Y-96825939D02*
X210142028Y-96897367D01*
X210142028Y-96897367D02*
X210642028Y-96897367D01*
X210642028Y-96897367D02*
X210642028Y-96611653D01*
X209999171Y-97540224D02*
X211499171Y-97540224D01*
X211499171Y-97540224D02*
X209999171Y-98397367D01*
X209999171Y-98397367D02*
X211499171Y-98397367D01*
X209999171Y-99111653D02*
X211499171Y-99111653D01*
X211499171Y-99111653D02*
X211499171Y-99468796D01*
X211499171Y-99468796D02*
X211427742Y-99683082D01*
X211427742Y-99683082D02*
X211284885Y-99825939D01*
X211284885Y-99825939D02*
X211142028Y-99897368D01*
X211142028Y-99897368D02*
X210856314Y-99968796D01*
X210856314Y-99968796D02*
X210642028Y-99968796D01*
X210642028Y-99968796D02*
X210356314Y-99897368D01*
X210356314Y-99897368D02*
X210213457Y-99825939D01*
X210213457Y-99825939D02*
X210070600Y-99683082D01*
X210070600Y-99683082D02*
X209999171Y-99468796D01*
X209999171Y-99468796D02*
X209999171Y-99111653D01*
X220840225Y-153717257D02*
X219411653Y-153717257D01*
X219411653Y-153717257D02*
X219268796Y-155145828D01*
X219268796Y-155145828D02*
X219411653Y-155002971D01*
X219411653Y-155002971D02*
X219697368Y-154860114D01*
X219697368Y-154860114D02*
X220411653Y-154860114D01*
X220411653Y-154860114D02*
X220697368Y-155002971D01*
X220697368Y-155002971D02*
X220840225Y-155145828D01*
X220840225Y-155145828D02*
X220983082Y-155431542D01*
X220983082Y-155431542D02*
X220983082Y-156145828D01*
X220983082Y-156145828D02*
X220840225Y-156431542D01*
X220840225Y-156431542D02*
X220697368Y-156574400D01*
X220697368Y-156574400D02*
X220411653Y-156717257D01*
X220411653Y-156717257D02*
X219697368Y-156717257D01*
X219697368Y-156717257D02*
X219411653Y-156574400D01*
X219411653Y-156574400D02*
X219268796Y-156431542D01*
X221840225Y-153717257D02*
X222840225Y-156717257D01*
X222840225Y-156717257D02*
X223840225Y-153717257D01*
X171483082Y-114867257D02*
X169768796Y-114867257D01*
X170625939Y-114867257D02*
X170625939Y-111867257D01*
X170625939Y-111867257D02*
X170340225Y-112295828D01*
X170340225Y-112295828D02*
X170054510Y-112581542D01*
X170054510Y-112581542D02*
X169768796Y-112724400D01*
X173197368Y-113152971D02*
X172911653Y-113010114D01*
X172911653Y-113010114D02*
X172768796Y-112867257D01*
X172768796Y-112867257D02*
X172625939Y-112581542D01*
X172625939Y-112581542D02*
X172625939Y-112438685D01*
X172625939Y-112438685D02*
X172768796Y-112152971D01*
X172768796Y-112152971D02*
X172911653Y-112010114D01*
X172911653Y-112010114D02*
X173197368Y-111867257D01*
X173197368Y-111867257D02*
X173768796Y-111867257D01*
X173768796Y-111867257D02*
X174054511Y-112010114D01*
X174054511Y-112010114D02*
X174197368Y-112152971D01*
X174197368Y-112152971D02*
X174340225Y-112438685D01*
X174340225Y-112438685D02*
X174340225Y-112581542D01*
X174340225Y-112581542D02*
X174197368Y-112867257D01*
X174197368Y-112867257D02*
X174054511Y-113010114D01*
X174054511Y-113010114D02*
X173768796Y-113152971D01*
X173768796Y-113152971D02*
X173197368Y-113152971D01*
X173197368Y-113152971D02*
X172911653Y-113295828D01*
X172911653Y-113295828D02*
X172768796Y-113438685D01*
X172768796Y-113438685D02*
X172625939Y-113724400D01*
X172625939Y-113724400D02*
X172625939Y-114295828D01*
X172625939Y-114295828D02*
X172768796Y-114581542D01*
X172768796Y-114581542D02*
X172911653Y-114724400D01*
X172911653Y-114724400D02*
X173197368Y-114867257D01*
X173197368Y-114867257D02*
X173768796Y-114867257D01*
X173768796Y-114867257D02*
X174054511Y-114724400D01*
X174054511Y-114724400D02*
X174197368Y-114581542D01*
X174197368Y-114581542D02*
X174340225Y-114295828D01*
X174340225Y-114295828D02*
X174340225Y-113724400D01*
X174340225Y-113724400D02*
X174197368Y-113438685D01*
X174197368Y-113438685D02*
X174054511Y-113295828D01*
X174054511Y-113295828D02*
X173768796Y-113152971D01*
X175197368Y-111867257D02*
X176197368Y-114867257D01*
X176197368Y-114867257D02*
X177197368Y-111867257D01*
X212425939Y-179617257D02*
X214283082Y-179617257D01*
X214283082Y-179617257D02*
X213283082Y-180760114D01*
X213283082Y-180760114D02*
X213711653Y-180760114D01*
X213711653Y-180760114D02*
X213997368Y-180902971D01*
X213997368Y-180902971D02*
X214140225Y-181045828D01*
X214140225Y-181045828D02*
X214283082Y-181331542D01*
X214283082Y-181331542D02*
X214283082Y-182045828D01*
X214283082Y-182045828D02*
X214140225Y-182331542D01*
X214140225Y-182331542D02*
X213997368Y-182474400D01*
X213997368Y-182474400D02*
X213711653Y-182617257D01*
X213711653Y-182617257D02*
X212854510Y-182617257D01*
X212854510Y-182617257D02*
X212568796Y-182474400D01*
X212568796Y-182474400D02*
X212425939Y-182331542D01*
X215568796Y-182331542D02*
X215711653Y-182474400D01*
X215711653Y-182474400D02*
X215568796Y-182617257D01*
X215568796Y-182617257D02*
X215425939Y-182474400D01*
X215425939Y-182474400D02*
X215568796Y-182331542D01*
X215568796Y-182331542D02*
X215568796Y-182617257D01*
X216711653Y-179617257D02*
X218568796Y-179617257D01*
X218568796Y-179617257D02*
X217568796Y-180760114D01*
X217568796Y-180760114D02*
X217997367Y-180760114D01*
X217997367Y-180760114D02*
X218283082Y-180902971D01*
X218283082Y-180902971D02*
X218425939Y-181045828D01*
X218425939Y-181045828D02*
X218568796Y-181331542D01*
X218568796Y-181331542D02*
X218568796Y-182045828D01*
X218568796Y-182045828D02*
X218425939Y-182331542D01*
X218425939Y-182331542D02*
X218283082Y-182474400D01*
X218283082Y-182474400D02*
X217997367Y-182617257D01*
X217997367Y-182617257D02*
X217140224Y-182617257D01*
X217140224Y-182617257D02*
X216854510Y-182474400D01*
X216854510Y-182474400D02*
X216711653Y-182331542D01*
X219425939Y-179617257D02*
X220425939Y-182617257D01*
X220425939Y-182617257D02*
X221425939Y-179617257D01*
X224688667Y-106140225D02*
X224688667Y-105283082D01*
X224688667Y-105711653D02*
X226188667Y-105711653D01*
X226188667Y-105711653D02*
X225974381Y-105568796D01*
X225974381Y-105568796D02*
X225831524Y-105425939D01*
X225831524Y-105425939D02*
X225760096Y-105283082D01*
X224831524Y-106783081D02*
X224760096Y-106854510D01*
X224760096Y-106854510D02*
X224688667Y-106783081D01*
X224688667Y-106783081D02*
X224760096Y-106711653D01*
X224760096Y-106711653D02*
X224831524Y-106783081D01*
X224831524Y-106783081D02*
X224688667Y-106783081D01*
X225474381Y-109140224D02*
X225402953Y-109354510D01*
X225402953Y-109354510D02*
X225331524Y-109425939D01*
X225331524Y-109425939D02*
X225188667Y-109497367D01*
X225188667Y-109497367D02*
X224974381Y-109497367D01*
X224974381Y-109497367D02*
X224831524Y-109425939D01*
X224831524Y-109425939D02*
X224760096Y-109354510D01*
X224760096Y-109354510D02*
X224688667Y-109211653D01*
X224688667Y-109211653D02*
X224688667Y-108640224D01*
X224688667Y-108640224D02*
X226188667Y-108640224D01*
X226188667Y-108640224D02*
X226188667Y-109140224D01*
X226188667Y-109140224D02*
X226117238Y-109283082D01*
X226117238Y-109283082D02*
X226045810Y-109354510D01*
X226045810Y-109354510D02*
X225902953Y-109425939D01*
X225902953Y-109425939D02*
X225760096Y-109425939D01*
X225760096Y-109425939D02*
X225617238Y-109354510D01*
X225617238Y-109354510D02*
X225545810Y-109283082D01*
X225545810Y-109283082D02*
X225474381Y-109140224D01*
X225474381Y-109140224D02*
X225474381Y-108640224D01*
X225117238Y-110068796D02*
X225117238Y-110783082D01*
X224688667Y-109925939D02*
X226188667Y-110425939D01*
X226188667Y-110425939D02*
X224688667Y-110925939D01*
X226188667Y-111211653D02*
X226188667Y-112068796D01*
X224688667Y-111640224D02*
X226188667Y-111640224D01*
X226188667Y-112354510D02*
X226188667Y-113211653D01*
X224688667Y-112783081D02*
X226188667Y-112783081D01*
X221215978Y-105283082D02*
X221287406Y-105354510D01*
X221287406Y-105354510D02*
X221358835Y-105497368D01*
X221358835Y-105497368D02*
X221358835Y-105854510D01*
X221358835Y-105854510D02*
X221287406Y-105997368D01*
X221287406Y-105997368D02*
X221215978Y-106068796D01*
X221215978Y-106068796D02*
X221073121Y-106140225D01*
X221073121Y-106140225D02*
X220930264Y-106140225D01*
X220930264Y-106140225D02*
X220715978Y-106068796D01*
X220715978Y-106068796D02*
X219858835Y-105211653D01*
X219858835Y-105211653D02*
X219858835Y-106140225D01*
X220001692Y-106783081D02*
X219930264Y-106854510D01*
X219930264Y-106854510D02*
X219858835Y-106783081D01*
X219858835Y-106783081D02*
X219930264Y-106711653D01*
X219930264Y-106711653D02*
X220001692Y-106783081D01*
X220001692Y-106783081D02*
X219858835Y-106783081D01*
X220644549Y-109140224D02*
X220573121Y-109354510D01*
X220573121Y-109354510D02*
X220501692Y-109425939D01*
X220501692Y-109425939D02*
X220358835Y-109497367D01*
X220358835Y-109497367D02*
X220144549Y-109497367D01*
X220144549Y-109497367D02*
X220001692Y-109425939D01*
X220001692Y-109425939D02*
X219930264Y-109354510D01*
X219930264Y-109354510D02*
X219858835Y-109211653D01*
X219858835Y-109211653D02*
X219858835Y-108640224D01*
X219858835Y-108640224D02*
X221358835Y-108640224D01*
X221358835Y-108640224D02*
X221358835Y-109140224D01*
X221358835Y-109140224D02*
X221287406Y-109283082D01*
X221287406Y-109283082D02*
X221215978Y-109354510D01*
X221215978Y-109354510D02*
X221073121Y-109425939D01*
X221073121Y-109425939D02*
X220930264Y-109425939D01*
X220930264Y-109425939D02*
X220787406Y-109354510D01*
X220787406Y-109354510D02*
X220715978Y-109283082D01*
X220715978Y-109283082D02*
X220644549Y-109140224D01*
X220644549Y-109140224D02*
X220644549Y-108640224D01*
X220287406Y-110068796D02*
X220287406Y-110783082D01*
X219858835Y-109925939D02*
X221358835Y-110425939D01*
X221358835Y-110425939D02*
X219858835Y-110925939D01*
X221358835Y-111211653D02*
X221358835Y-112068796D01*
X219858835Y-111640224D02*
X221358835Y-111640224D01*
X221358835Y-112354510D02*
X221358835Y-113211653D01*
X219858835Y-112783081D02*
X221358835Y-112783081D01*
X216529003Y-105211653D02*
X216529003Y-106140225D01*
X216529003Y-106140225D02*
X215957574Y-105640225D01*
X215957574Y-105640225D02*
X215957574Y-105854510D01*
X215957574Y-105854510D02*
X215886146Y-105997368D01*
X215886146Y-105997368D02*
X215814717Y-106068796D01*
X215814717Y-106068796D02*
X215671860Y-106140225D01*
X215671860Y-106140225D02*
X215314717Y-106140225D01*
X215314717Y-106140225D02*
X215171860Y-106068796D01*
X215171860Y-106068796D02*
X215100432Y-105997368D01*
X215100432Y-105997368D02*
X215029003Y-105854510D01*
X215029003Y-105854510D02*
X215029003Y-105425939D01*
X215029003Y-105425939D02*
X215100432Y-105283082D01*
X215100432Y-105283082D02*
X215171860Y-105211653D01*
X215171860Y-106783081D02*
X215100432Y-106854510D01*
X215100432Y-106854510D02*
X215029003Y-106783081D01*
X215029003Y-106783081D02*
X215100432Y-106711653D01*
X215100432Y-106711653D02*
X215171860Y-106783081D01*
X215171860Y-106783081D02*
X215029003Y-106783081D01*
X216457574Y-109425939D02*
X216529003Y-109283082D01*
X216529003Y-109283082D02*
X216529003Y-109068796D01*
X216529003Y-109068796D02*
X216457574Y-108854510D01*
X216457574Y-108854510D02*
X216314717Y-108711653D01*
X216314717Y-108711653D02*
X216171860Y-108640224D01*
X216171860Y-108640224D02*
X215886146Y-108568796D01*
X215886146Y-108568796D02*
X215671860Y-108568796D01*
X215671860Y-108568796D02*
X215386146Y-108640224D01*
X215386146Y-108640224D02*
X215243289Y-108711653D01*
X215243289Y-108711653D02*
X215100432Y-108854510D01*
X215100432Y-108854510D02*
X215029003Y-109068796D01*
X215029003Y-109068796D02*
X215029003Y-109211653D01*
X215029003Y-109211653D02*
X215100432Y-109425939D01*
X215100432Y-109425939D02*
X215171860Y-109497367D01*
X215171860Y-109497367D02*
X215671860Y-109497367D01*
X215671860Y-109497367D02*
X215671860Y-109211653D01*
X215029003Y-110140224D02*
X216529003Y-110140224D01*
X216529003Y-110140224D02*
X215029003Y-110997367D01*
X215029003Y-110997367D02*
X216529003Y-110997367D01*
X215029003Y-111711653D02*
X216529003Y-111711653D01*
X216529003Y-111711653D02*
X216529003Y-112068796D01*
X216529003Y-112068796D02*
X216457574Y-112283082D01*
X216457574Y-112283082D02*
X216314717Y-112425939D01*
X216314717Y-112425939D02*
X216171860Y-112497368D01*
X216171860Y-112497368D02*
X215886146Y-112568796D01*
X215886146Y-112568796D02*
X215671860Y-112568796D01*
X215671860Y-112568796D02*
X215386146Y-112497368D01*
X215386146Y-112497368D02*
X215243289Y-112425939D01*
X215243289Y-112425939D02*
X215100432Y-112283082D01*
X215100432Y-112283082D02*
X215029003Y-112068796D01*
X215029003Y-112068796D02*
X215029003Y-111711653D01*
X211199171Y-105997368D02*
X210199171Y-105997368D01*
X211770600Y-105640225D02*
X210699171Y-105283082D01*
X210699171Y-105283082D02*
X210699171Y-106211653D01*
X210342028Y-106783081D02*
X210270600Y-106854510D01*
X210270600Y-106854510D02*
X210199171Y-106783081D01*
X210199171Y-106783081D02*
X210270600Y-106711653D01*
X210270600Y-106711653D02*
X210342028Y-106783081D01*
X210342028Y-106783081D02*
X210199171Y-106783081D01*
X211627742Y-109425939D02*
X211699171Y-109283082D01*
X211699171Y-109283082D02*
X211699171Y-109068796D01*
X211699171Y-109068796D02*
X211627742Y-108854510D01*
X211627742Y-108854510D02*
X211484885Y-108711653D01*
X211484885Y-108711653D02*
X211342028Y-108640224D01*
X211342028Y-108640224D02*
X211056314Y-108568796D01*
X211056314Y-108568796D02*
X210842028Y-108568796D01*
X210842028Y-108568796D02*
X210556314Y-108640224D01*
X210556314Y-108640224D02*
X210413457Y-108711653D01*
X210413457Y-108711653D02*
X210270600Y-108854510D01*
X210270600Y-108854510D02*
X210199171Y-109068796D01*
X210199171Y-109068796D02*
X210199171Y-109211653D01*
X210199171Y-109211653D02*
X210270600Y-109425939D01*
X210270600Y-109425939D02*
X210342028Y-109497367D01*
X210342028Y-109497367D02*
X210842028Y-109497367D01*
X210842028Y-109497367D02*
X210842028Y-109211653D01*
X210199171Y-110140224D02*
X211699171Y-110140224D01*
X211699171Y-110140224D02*
X210199171Y-110997367D01*
X210199171Y-110997367D02*
X211699171Y-110997367D01*
X210199171Y-111711653D02*
X211699171Y-111711653D01*
X211699171Y-111711653D02*
X211699171Y-112068796D01*
X211699171Y-112068796D02*
X211627742Y-112283082D01*
X211627742Y-112283082D02*
X211484885Y-112425939D01*
X211484885Y-112425939D02*
X211342028Y-112497368D01*
X211342028Y-112497368D02*
X211056314Y-112568796D01*
X211056314Y-112568796D02*
X210842028Y-112568796D01*
X210842028Y-112568796D02*
X210556314Y-112497368D01*
X210556314Y-112497368D02*
X210413457Y-112425939D01*
X210413457Y-112425939D02*
X210270600Y-112283082D01*
X210270600Y-112283082D02*
X210199171Y-112068796D01*
X210199171Y-112068796D02*
X210199171Y-111711653D01*
D12*
X176738095Y-68604819D02*
X176738095Y-67604819D01*
X176738095Y-68081009D02*
X177309523Y-68081009D01*
X177309523Y-68604819D02*
X177309523Y-67604819D01*
X177738095Y-67700057D02*
X177785714Y-67652438D01*
X177785714Y-67652438D02*
X177880952Y-67604819D01*
X177880952Y-67604819D02*
X178119047Y-67604819D01*
X178119047Y-67604819D02*
X178214285Y-67652438D01*
X178214285Y-67652438D02*
X178261904Y-67700057D01*
X178261904Y-67700057D02*
X178309523Y-67795295D01*
X178309523Y-67795295D02*
X178309523Y-67890533D01*
X178309523Y-67890533D02*
X178261904Y-68033390D01*
X178261904Y-68033390D02*
X177690476Y-68604819D01*
X177690476Y-68604819D02*
X178309523Y-68604819D01*
X110173645Y-102979820D02*
X110173645Y-103789343D01*
X110173645Y-103789343D02*
X110221264Y-103884581D01*
X110221264Y-103884581D02*
X110268883Y-103932201D01*
X110268883Y-103932201D02*
X110364121Y-103979820D01*
X110364121Y-103979820D02*
X110554597Y-103979820D01*
X110554597Y-103979820D02*
X110649835Y-103932201D01*
X110649835Y-103932201D02*
X110697454Y-103884581D01*
X110697454Y-103884581D02*
X110745073Y-103789343D01*
X110745073Y-103789343D02*
X110745073Y-102979820D01*
X111126026Y-102979820D02*
X111745073Y-102979820D01*
X111745073Y-102979820D02*
X111411740Y-103360772D01*
X111411740Y-103360772D02*
X111554597Y-103360772D01*
X111554597Y-103360772D02*
X111649835Y-103408391D01*
X111649835Y-103408391D02*
X111697454Y-103456010D01*
X111697454Y-103456010D02*
X111745073Y-103551248D01*
X111745073Y-103551248D02*
X111745073Y-103789343D01*
X111745073Y-103789343D02*
X111697454Y-103884581D01*
X111697454Y-103884581D02*
X111649835Y-103932201D01*
X111649835Y-103932201D02*
X111554597Y-103979820D01*
X111554597Y-103979820D02*
X111268883Y-103979820D01*
X111268883Y-103979820D02*
X111173645Y-103932201D01*
X111173645Y-103932201D02*
X111126026Y-103884581D01*
X109367100Y-100455420D02*
X109367100Y-100693515D01*
X109129005Y-100598277D02*
X109367100Y-100693515D01*
X109367100Y-100693515D02*
X109605195Y-100598277D01*
X109224243Y-100883991D02*
X109367100Y-100693515D01*
X109367100Y-100693515D02*
X109509957Y-100883991D01*
X109367100Y-100455420D02*
X109367100Y-100693515D01*
X109129005Y-100598277D02*
X109367100Y-100693515D01*
X109367100Y-100693515D02*
X109605195Y-100598277D01*
X109224243Y-100883991D02*
X109367100Y-100693515D01*
X109367100Y-100693515D02*
X109509957Y-100883991D01*
X92295180Y-110666666D02*
X91580895Y-110666666D01*
X91580895Y-110666666D02*
X91438038Y-110619047D01*
X91438038Y-110619047D02*
X91342800Y-110523809D01*
X91342800Y-110523809D02*
X91295180Y-110380952D01*
X91295180Y-110380952D02*
X91295180Y-110285714D01*
X92295180Y-111047619D02*
X92295180Y-111666666D01*
X92295180Y-111666666D02*
X91914228Y-111333333D01*
X91914228Y-111333333D02*
X91914228Y-111476190D01*
X91914228Y-111476190D02*
X91866609Y-111571428D01*
X91866609Y-111571428D02*
X91818990Y-111619047D01*
X91818990Y-111619047D02*
X91723752Y-111666666D01*
X91723752Y-111666666D02*
X91485657Y-111666666D01*
X91485657Y-111666666D02*
X91390419Y-111619047D01*
X91390419Y-111619047D02*
X91342800Y-111571428D01*
X91342800Y-111571428D02*
X91295180Y-111476190D01*
X91295180Y-111476190D02*
X91295180Y-111190476D01*
X91295180Y-111190476D02*
X91342800Y-111095238D01*
X91342800Y-111095238D02*
X91390419Y-111047619D01*
X109761904Y-96795180D02*
X109761904Y-95985657D01*
X109761904Y-95985657D02*
X109714285Y-95890419D01*
X109714285Y-95890419D02*
X109666666Y-95842800D01*
X109666666Y-95842800D02*
X109571428Y-95795180D01*
X109571428Y-95795180D02*
X109380952Y-95795180D01*
X109380952Y-95795180D02*
X109285714Y-95842800D01*
X109285714Y-95842800D02*
X109238095Y-95890419D01*
X109238095Y-95890419D02*
X109190476Y-95985657D01*
X109190476Y-95985657D02*
X109190476Y-96795180D01*
X108190476Y-95795180D02*
X108761904Y-95795180D01*
X108476190Y-95795180D02*
X108476190Y-96795180D01*
X108476190Y-96795180D02*
X108571428Y-96652323D01*
X108571428Y-96652323D02*
X108666666Y-96557085D01*
X108666666Y-96557085D02*
X108761904Y-96509466D01*
X143140419Y-177004697D02*
X143092800Y-176957078D01*
X143092800Y-176957078D02*
X143045180Y-176814221D01*
X143045180Y-176814221D02*
X143045180Y-176718983D01*
X143045180Y-176718983D02*
X143092800Y-176576126D01*
X143092800Y-176576126D02*
X143188038Y-176480888D01*
X143188038Y-176480888D02*
X143283276Y-176433269D01*
X143283276Y-176433269D02*
X143473752Y-176385650D01*
X143473752Y-176385650D02*
X143616609Y-176385650D01*
X143616609Y-176385650D02*
X143807085Y-176433269D01*
X143807085Y-176433269D02*
X143902323Y-176480888D01*
X143902323Y-176480888D02*
X143997561Y-176576126D01*
X143997561Y-176576126D02*
X144045180Y-176718983D01*
X144045180Y-176718983D02*
X144045180Y-176814221D01*
X144045180Y-176814221D02*
X143997561Y-176957078D01*
X143997561Y-176957078D02*
X143949942Y-177004697D01*
X143045180Y-177957078D02*
X143045180Y-177385650D01*
X143045180Y-177671364D02*
X144045180Y-177671364D01*
X144045180Y-177671364D02*
X143902323Y-177576126D01*
X143902323Y-177576126D02*
X143807085Y-177480888D01*
X143807085Y-177480888D02*
X143759466Y-177385650D01*
X144045180Y-178290412D02*
X144045180Y-178909459D01*
X144045180Y-178909459D02*
X143664228Y-178576126D01*
X143664228Y-178576126D02*
X143664228Y-178718983D01*
X143664228Y-178718983D02*
X143616609Y-178814221D01*
X143616609Y-178814221D02*
X143568990Y-178861840D01*
X143568990Y-178861840D02*
X143473752Y-178909459D01*
X143473752Y-178909459D02*
X143235657Y-178909459D01*
X143235657Y-178909459D02*
X143140419Y-178861840D01*
X143140419Y-178861840D02*
X143092800Y-178814221D01*
X143092800Y-178814221D02*
X143045180Y-178718983D01*
X143045180Y-178718983D02*
X143045180Y-178433269D01*
X143045180Y-178433269D02*
X143092800Y-178338031D01*
X143092800Y-178338031D02*
X143140419Y-178290412D01*
X102524819Y-113116666D02*
X102048628Y-113449999D01*
X102524819Y-113688094D02*
X101524819Y-113688094D01*
X101524819Y-113688094D02*
X101524819Y-113307142D01*
X101524819Y-113307142D02*
X101572438Y-113211904D01*
X101572438Y-113211904D02*
X101620057Y-113164285D01*
X101620057Y-113164285D02*
X101715295Y-113116666D01*
X101715295Y-113116666D02*
X101858152Y-113116666D01*
X101858152Y-113116666D02*
X101953390Y-113164285D01*
X101953390Y-113164285D02*
X102001009Y-113211904D01*
X102001009Y-113211904D02*
X102048628Y-113307142D01*
X102048628Y-113307142D02*
X102048628Y-113688094D01*
X101858152Y-112259523D02*
X102524819Y-112259523D01*
X101477200Y-112497618D02*
X102191485Y-112735713D01*
X102191485Y-112735713D02*
X102191485Y-112116666D01*
X98884819Y-114021428D02*
X98884819Y-114592856D01*
X98884819Y-114307142D02*
X97884819Y-114307142D01*
X97884819Y-114307142D02*
X98027676Y-114402380D01*
X98027676Y-114402380D02*
X98122914Y-114497618D01*
X98122914Y-114497618D02*
X98170533Y-114592856D01*
X98313390Y-113449999D02*
X98265771Y-113545237D01*
X98265771Y-113545237D02*
X98218152Y-113592856D01*
X98218152Y-113592856D02*
X98122914Y-113640475D01*
X98122914Y-113640475D02*
X98075295Y-113640475D01*
X98075295Y-113640475D02*
X97980057Y-113592856D01*
X97980057Y-113592856D02*
X97932438Y-113545237D01*
X97932438Y-113545237D02*
X97884819Y-113449999D01*
X97884819Y-113449999D02*
X97884819Y-113259523D01*
X97884819Y-113259523D02*
X97932438Y-113164285D01*
X97932438Y-113164285D02*
X97980057Y-113116666D01*
X97980057Y-113116666D02*
X98075295Y-113069047D01*
X98075295Y-113069047D02*
X98122914Y-113069047D01*
X98122914Y-113069047D02*
X98218152Y-113116666D01*
X98218152Y-113116666D02*
X98265771Y-113164285D01*
X98265771Y-113164285D02*
X98313390Y-113259523D01*
X98313390Y-113259523D02*
X98313390Y-113449999D01*
X98313390Y-113449999D02*
X98361009Y-113545237D01*
X98361009Y-113545237D02*
X98408628Y-113592856D01*
X98408628Y-113592856D02*
X98503866Y-113640475D01*
X98503866Y-113640475D02*
X98694342Y-113640475D01*
X98694342Y-113640475D02*
X98789580Y-113592856D01*
X98789580Y-113592856D02*
X98837200Y-113545237D01*
X98837200Y-113545237D02*
X98884819Y-113449999D01*
X98884819Y-113449999D02*
X98884819Y-113259523D01*
X98884819Y-113259523D02*
X98837200Y-113164285D01*
X98837200Y-113164285D02*
X98789580Y-113116666D01*
X98789580Y-113116666D02*
X98694342Y-113069047D01*
X98694342Y-113069047D02*
X98503866Y-113069047D01*
X98503866Y-113069047D02*
X98408628Y-113116666D01*
X98408628Y-113116666D02*
X98361009Y-113164285D01*
X98361009Y-113164285D02*
X98313390Y-113259523D01*
X97884819Y-112735713D02*
X97884819Y-112069047D01*
X97884819Y-112069047D02*
X98884819Y-112497618D01*
X98884819Y-111688094D02*
X97884819Y-111688094D01*
X98503866Y-111592856D02*
X98884819Y-111307142D01*
X98218152Y-111307142D02*
X98599104Y-111688094D01*
D13*
X144270380Y-118487963D02*
X144270380Y-119516058D01*
X144270380Y-119516058D02*
X144330857Y-119637010D01*
X144330857Y-119637010D02*
X144391333Y-119697487D01*
X144391333Y-119697487D02*
X144512285Y-119757963D01*
X144512285Y-119757963D02*
X144754190Y-119757963D01*
X144754190Y-119757963D02*
X144875142Y-119697487D01*
X144875142Y-119697487D02*
X144935619Y-119637010D01*
X144935619Y-119637010D02*
X144996095Y-119516058D01*
X144996095Y-119516058D02*
X144996095Y-118487963D01*
X146205618Y-118487963D02*
X145600856Y-118487963D01*
X145600856Y-118487963D02*
X145540380Y-119092725D01*
X145540380Y-119092725D02*
X145600856Y-119032248D01*
X145600856Y-119032248D02*
X145721809Y-118971772D01*
X145721809Y-118971772D02*
X146024190Y-118971772D01*
X146024190Y-118971772D02*
X146145142Y-119032248D01*
X146145142Y-119032248D02*
X146205618Y-119092725D01*
X146205618Y-119092725D02*
X146266095Y-119213677D01*
X146266095Y-119213677D02*
X146266095Y-119516058D01*
X146266095Y-119516058D02*
X146205618Y-119637010D01*
X146205618Y-119637010D02*
X146145142Y-119697487D01*
X146145142Y-119697487D02*
X146024190Y-119757963D01*
X146024190Y-119757963D02*
X145721809Y-119757963D01*
X145721809Y-119757963D02*
X145600856Y-119697487D01*
X145600856Y-119697487D02*
X145540380Y-119637010D01*
D12*
X161140419Y-154556642D02*
X161092800Y-154509023D01*
X161092800Y-154509023D02*
X161045180Y-154366166D01*
X161045180Y-154366166D02*
X161045180Y-154270928D01*
X161045180Y-154270928D02*
X161092800Y-154128071D01*
X161092800Y-154128071D02*
X161188038Y-154032833D01*
X161188038Y-154032833D02*
X161283276Y-153985214D01*
X161283276Y-153985214D02*
X161473752Y-153937595D01*
X161473752Y-153937595D02*
X161616609Y-153937595D01*
X161616609Y-153937595D02*
X161807085Y-153985214D01*
X161807085Y-153985214D02*
X161902323Y-154032833D01*
X161902323Y-154032833D02*
X161997561Y-154128071D01*
X161997561Y-154128071D02*
X162045180Y-154270928D01*
X162045180Y-154270928D02*
X162045180Y-154366166D01*
X162045180Y-154366166D02*
X161997561Y-154509023D01*
X161997561Y-154509023D02*
X161949942Y-154556642D01*
X161045180Y-155509023D02*
X161045180Y-154937595D01*
X161045180Y-155223309D02*
X162045180Y-155223309D01*
X162045180Y-155223309D02*
X161902323Y-155128071D01*
X161902323Y-155128071D02*
X161807085Y-155032833D01*
X161807085Y-155032833D02*
X161759466Y-154937595D01*
X162045180Y-156128071D02*
X162045180Y-156223309D01*
X162045180Y-156223309D02*
X161997561Y-156318547D01*
X161997561Y-156318547D02*
X161949942Y-156366166D01*
X161949942Y-156366166D02*
X161854704Y-156413785D01*
X161854704Y-156413785D02*
X161664228Y-156461404D01*
X161664228Y-156461404D02*
X161426133Y-156461404D01*
X161426133Y-156461404D02*
X161235657Y-156413785D01*
X161235657Y-156413785D02*
X161140419Y-156366166D01*
X161140419Y-156366166D02*
X161092800Y-156318547D01*
X161092800Y-156318547D02*
X161045180Y-156223309D01*
X161045180Y-156223309D02*
X161045180Y-156128071D01*
X161045180Y-156128071D02*
X161092800Y-156032833D01*
X161092800Y-156032833D02*
X161140419Y-155985214D01*
X161140419Y-155985214D02*
X161235657Y-155937595D01*
X161235657Y-155937595D02*
X161426133Y-155889976D01*
X161426133Y-155889976D02*
X161664228Y-155889976D01*
X161664228Y-155889976D02*
X161854704Y-155937595D01*
X161854704Y-155937595D02*
X161949942Y-155985214D01*
X161949942Y-155985214D02*
X161997561Y-156032833D01*
X161997561Y-156032833D02*
X162045180Y-156128071D01*
D13*
X182157856Y-187074318D02*
X182157856Y-185804318D01*
X182157856Y-185804318D02*
X182641666Y-185804318D01*
X182641666Y-185804318D02*
X182762618Y-185864794D01*
X182762618Y-185864794D02*
X182823095Y-185925270D01*
X182823095Y-185925270D02*
X182883571Y-186046222D01*
X182883571Y-186046222D02*
X182883571Y-186227651D01*
X182883571Y-186227651D02*
X182823095Y-186348603D01*
X182823095Y-186348603D02*
X182762618Y-186409080D01*
X182762618Y-186409080D02*
X182641666Y-186469556D01*
X182641666Y-186469556D02*
X182157856Y-186469556D01*
X183367380Y-187013842D02*
X183548809Y-187074318D01*
X183548809Y-187074318D02*
X183851190Y-187074318D01*
X183851190Y-187074318D02*
X183972142Y-187013842D01*
X183972142Y-187013842D02*
X184032618Y-186953365D01*
X184032618Y-186953365D02*
X184093095Y-186832413D01*
X184093095Y-186832413D02*
X184093095Y-186711461D01*
X184093095Y-186711461D02*
X184032618Y-186590508D01*
X184032618Y-186590508D02*
X183972142Y-186530032D01*
X183972142Y-186530032D02*
X183851190Y-186469556D01*
X183851190Y-186469556D02*
X183609285Y-186409080D01*
X183609285Y-186409080D02*
X183488333Y-186348603D01*
X183488333Y-186348603D02*
X183427856Y-186288127D01*
X183427856Y-186288127D02*
X183367380Y-186167175D01*
X183367380Y-186167175D02*
X183367380Y-186046222D01*
X183367380Y-186046222D02*
X183427856Y-185925270D01*
X183427856Y-185925270D02*
X183488333Y-185864794D01*
X183488333Y-185864794D02*
X183609285Y-185804318D01*
X183609285Y-185804318D02*
X183911666Y-185804318D01*
X183911666Y-185804318D02*
X184093095Y-185864794D01*
X184516428Y-185804318D02*
X185302619Y-185804318D01*
X185302619Y-185804318D02*
X184879285Y-186288127D01*
X184879285Y-186288127D02*
X185060714Y-186288127D01*
X185060714Y-186288127D02*
X185181666Y-186348603D01*
X185181666Y-186348603D02*
X185242142Y-186409080D01*
X185242142Y-186409080D02*
X185302619Y-186530032D01*
X185302619Y-186530032D02*
X185302619Y-186832413D01*
X185302619Y-186832413D02*
X185242142Y-186953365D01*
X185242142Y-186953365D02*
X185181666Y-187013842D01*
X185181666Y-187013842D02*
X185060714Y-187074318D01*
X185060714Y-187074318D02*
X184697857Y-187074318D01*
X184697857Y-187074318D02*
X184576904Y-187013842D01*
X184576904Y-187013842D02*
X184516428Y-186953365D01*
D12*
X141899819Y-177349449D02*
X140899819Y-177349449D01*
X140899819Y-177349449D02*
X140899819Y-177111354D01*
X140899819Y-177111354D02*
X140947438Y-176968497D01*
X140947438Y-176968497D02*
X141042676Y-176873259D01*
X141042676Y-176873259D02*
X141137914Y-176825640D01*
X141137914Y-176825640D02*
X141328390Y-176778021D01*
X141328390Y-176778021D02*
X141471247Y-176778021D01*
X141471247Y-176778021D02*
X141661723Y-176825640D01*
X141661723Y-176825640D02*
X141756961Y-176873259D01*
X141756961Y-176873259D02*
X141852200Y-176968497D01*
X141852200Y-176968497D02*
X141899819Y-177111354D01*
X141899819Y-177111354D02*
X141899819Y-177349449D01*
X141233152Y-175920878D02*
X141899819Y-175920878D01*
X140852200Y-176158973D02*
X141566485Y-176397068D01*
X141566485Y-176397068D02*
X141566485Y-175778021D01*
X102524819Y-108116666D02*
X102048628Y-108449999D01*
X102524819Y-108688094D02*
X101524819Y-108688094D01*
X101524819Y-108688094D02*
X101524819Y-108307142D01*
X101524819Y-108307142D02*
X101572438Y-108211904D01*
X101572438Y-108211904D02*
X101620057Y-108164285D01*
X101620057Y-108164285D02*
X101715295Y-108116666D01*
X101715295Y-108116666D02*
X101858152Y-108116666D01*
X101858152Y-108116666D02*
X101953390Y-108164285D01*
X101953390Y-108164285D02*
X102001009Y-108211904D01*
X102001009Y-108211904D02*
X102048628Y-108307142D01*
X102048628Y-108307142D02*
X102048628Y-108688094D01*
X101524819Y-107783332D02*
X101524819Y-107164285D01*
X101524819Y-107164285D02*
X101905771Y-107497618D01*
X101905771Y-107497618D02*
X101905771Y-107354761D01*
X101905771Y-107354761D02*
X101953390Y-107259523D01*
X101953390Y-107259523D02*
X102001009Y-107211904D01*
X102001009Y-107211904D02*
X102096247Y-107164285D01*
X102096247Y-107164285D02*
X102334342Y-107164285D01*
X102334342Y-107164285D02*
X102429580Y-107211904D01*
X102429580Y-107211904D02*
X102477200Y-107259523D01*
X102477200Y-107259523D02*
X102524819Y-107354761D01*
X102524819Y-107354761D02*
X102524819Y-107640475D01*
X102524819Y-107640475D02*
X102477200Y-107735713D01*
X102477200Y-107735713D02*
X102429580Y-107783332D01*
X98884819Y-109021428D02*
X98884819Y-109592856D01*
X98884819Y-109307142D02*
X97884819Y-109307142D01*
X97884819Y-109307142D02*
X98027676Y-109402380D01*
X98027676Y-109402380D02*
X98122914Y-109497618D01*
X98122914Y-109497618D02*
X98170533Y-109592856D01*
X98884819Y-108069047D02*
X98884819Y-108640475D01*
X98884819Y-108354761D02*
X97884819Y-108354761D01*
X97884819Y-108354761D02*
X98027676Y-108449999D01*
X98027676Y-108449999D02*
X98122914Y-108545237D01*
X98122914Y-108545237D02*
X98170533Y-108640475D01*
X97884819Y-107735713D02*
X97884819Y-107116666D01*
X97884819Y-107116666D02*
X98265771Y-107449999D01*
X98265771Y-107449999D02*
X98265771Y-107307142D01*
X98265771Y-107307142D02*
X98313390Y-107211904D01*
X98313390Y-107211904D02*
X98361009Y-107164285D01*
X98361009Y-107164285D02*
X98456247Y-107116666D01*
X98456247Y-107116666D02*
X98694342Y-107116666D01*
X98694342Y-107116666D02*
X98789580Y-107164285D01*
X98789580Y-107164285D02*
X98837200Y-107211904D01*
X98837200Y-107211904D02*
X98884819Y-107307142D01*
X98884819Y-107307142D02*
X98884819Y-107592856D01*
X98884819Y-107592856D02*
X98837200Y-107688094D01*
X98837200Y-107688094D02*
X98789580Y-107735713D01*
X98884819Y-106688094D02*
X97884819Y-106688094D01*
X98503866Y-106592856D02*
X98884819Y-106307142D01*
X98218152Y-106307142D02*
X98599104Y-106688094D01*
D13*
X217114318Y-72668332D02*
X218021461Y-72668332D01*
X218021461Y-72668332D02*
X218202889Y-72728809D01*
X218202889Y-72728809D02*
X218323842Y-72849761D01*
X218323842Y-72849761D02*
X218384318Y-73031190D01*
X218384318Y-73031190D02*
X218384318Y-73152142D01*
X217235270Y-72124047D02*
X217174794Y-72063571D01*
X217174794Y-72063571D02*
X217114318Y-71942618D01*
X217114318Y-71942618D02*
X217114318Y-71640237D01*
X217114318Y-71640237D02*
X217174794Y-71519285D01*
X217174794Y-71519285D02*
X217235270Y-71458809D01*
X217235270Y-71458809D02*
X217356222Y-71398332D01*
X217356222Y-71398332D02*
X217477175Y-71398332D01*
X217477175Y-71398332D02*
X217658603Y-71458809D01*
X217658603Y-71458809D02*
X218384318Y-72184523D01*
X218384318Y-72184523D02*
X218384318Y-71398332D01*
X185757856Y-135474318D02*
X185757856Y-134204318D01*
X185757856Y-134204318D02*
X186241666Y-134204318D01*
X186241666Y-134204318D02*
X186362618Y-134264794D01*
X186362618Y-134264794D02*
X186423095Y-134325270D01*
X186423095Y-134325270D02*
X186483571Y-134446222D01*
X186483571Y-134446222D02*
X186483571Y-134627651D01*
X186483571Y-134627651D02*
X186423095Y-134748603D01*
X186423095Y-134748603D02*
X186362618Y-134809080D01*
X186362618Y-134809080D02*
X186241666Y-134869556D01*
X186241666Y-134869556D02*
X185757856Y-134869556D01*
X186967380Y-135413842D02*
X187148809Y-135474318D01*
X187148809Y-135474318D02*
X187451190Y-135474318D01*
X187451190Y-135474318D02*
X187572142Y-135413842D01*
X187572142Y-135413842D02*
X187632618Y-135353365D01*
X187632618Y-135353365D02*
X187693095Y-135232413D01*
X187693095Y-135232413D02*
X187693095Y-135111461D01*
X187693095Y-135111461D02*
X187632618Y-134990508D01*
X187632618Y-134990508D02*
X187572142Y-134930032D01*
X187572142Y-134930032D02*
X187451190Y-134869556D01*
X187451190Y-134869556D02*
X187209285Y-134809080D01*
X187209285Y-134809080D02*
X187088333Y-134748603D01*
X187088333Y-134748603D02*
X187027856Y-134688127D01*
X187027856Y-134688127D02*
X186967380Y-134567175D01*
X186967380Y-134567175D02*
X186967380Y-134446222D01*
X186967380Y-134446222D02*
X187027856Y-134325270D01*
X187027856Y-134325270D02*
X187088333Y-134264794D01*
X187088333Y-134264794D02*
X187209285Y-134204318D01*
X187209285Y-134204318D02*
X187511666Y-134204318D01*
X187511666Y-134204318D02*
X187693095Y-134264794D01*
X188902619Y-135474318D02*
X188176904Y-135474318D01*
X188539761Y-135474318D02*
X188539761Y-134204318D01*
X188539761Y-134204318D02*
X188418809Y-134385746D01*
X188418809Y-134385746D02*
X188297857Y-134506699D01*
X188297857Y-134506699D02*
X188176904Y-134567175D01*
X228874318Y-155821190D02*
X228874318Y-156425952D01*
X228874318Y-156425952D02*
X227604318Y-156425952D01*
X228209080Y-155397857D02*
X228209080Y-154974523D01*
X228874318Y-154793095D02*
X228874318Y-155397857D01*
X228874318Y-155397857D02*
X227604318Y-155397857D01*
X227604318Y-155397857D02*
X227604318Y-154793095D01*
X228874318Y-154248809D02*
X227604318Y-154248809D01*
X227604318Y-154248809D02*
X227604318Y-153946428D01*
X227604318Y-153946428D02*
X227664794Y-153764999D01*
X227664794Y-153764999D02*
X227785746Y-153644047D01*
X227785746Y-153644047D02*
X227906699Y-153583570D01*
X227906699Y-153583570D02*
X228148603Y-153523094D01*
X228148603Y-153523094D02*
X228330032Y-153523094D01*
X228330032Y-153523094D02*
X228571937Y-153583570D01*
X228571937Y-153583570D02*
X228692889Y-153644047D01*
X228692889Y-153644047D02*
X228813842Y-153764999D01*
X228813842Y-153764999D02*
X228874318Y-153946428D01*
X228874318Y-153946428D02*
X228874318Y-154248809D01*
X227604318Y-153099761D02*
X227604318Y-152313570D01*
X227604318Y-152313570D02*
X228088127Y-152736904D01*
X228088127Y-152736904D02*
X228088127Y-152555475D01*
X228088127Y-152555475D02*
X228148603Y-152434523D01*
X228148603Y-152434523D02*
X228209080Y-152374047D01*
X228209080Y-152374047D02*
X228330032Y-152313570D01*
X228330032Y-152313570D02*
X228632413Y-152313570D01*
X228632413Y-152313570D02*
X228753365Y-152374047D01*
X228753365Y-152374047D02*
X228813842Y-152434523D01*
X228813842Y-152434523D02*
X228874318Y-152555475D01*
X228874318Y-152555475D02*
X228874318Y-152918332D01*
X228874318Y-152918332D02*
X228813842Y-153039285D01*
X228813842Y-153039285D02*
X228753365Y-153099761D01*
X184757856Y-160874318D02*
X184757856Y-159604318D01*
X184757856Y-159604318D02*
X185241666Y-159604318D01*
X185241666Y-159604318D02*
X185362618Y-159664794D01*
X185362618Y-159664794D02*
X185423095Y-159725270D01*
X185423095Y-159725270D02*
X185483571Y-159846222D01*
X185483571Y-159846222D02*
X185483571Y-160027651D01*
X185483571Y-160027651D02*
X185423095Y-160148603D01*
X185423095Y-160148603D02*
X185362618Y-160209080D01*
X185362618Y-160209080D02*
X185241666Y-160269556D01*
X185241666Y-160269556D02*
X184757856Y-160269556D01*
X185967380Y-160813842D02*
X186148809Y-160874318D01*
X186148809Y-160874318D02*
X186451190Y-160874318D01*
X186451190Y-160874318D02*
X186572142Y-160813842D01*
X186572142Y-160813842D02*
X186632618Y-160753365D01*
X186632618Y-160753365D02*
X186693095Y-160632413D01*
X186693095Y-160632413D02*
X186693095Y-160511461D01*
X186693095Y-160511461D02*
X186632618Y-160390508D01*
X186632618Y-160390508D02*
X186572142Y-160330032D01*
X186572142Y-160330032D02*
X186451190Y-160269556D01*
X186451190Y-160269556D02*
X186209285Y-160209080D01*
X186209285Y-160209080D02*
X186088333Y-160148603D01*
X186088333Y-160148603D02*
X186027856Y-160088127D01*
X186027856Y-160088127D02*
X185967380Y-159967175D01*
X185967380Y-159967175D02*
X185967380Y-159846222D01*
X185967380Y-159846222D02*
X186027856Y-159725270D01*
X186027856Y-159725270D02*
X186088333Y-159664794D01*
X186088333Y-159664794D02*
X186209285Y-159604318D01*
X186209285Y-159604318D02*
X186511666Y-159604318D01*
X186511666Y-159604318D02*
X186693095Y-159664794D01*
X187176904Y-159725270D02*
X187237380Y-159664794D01*
X187237380Y-159664794D02*
X187358333Y-159604318D01*
X187358333Y-159604318D02*
X187660714Y-159604318D01*
X187660714Y-159604318D02*
X187781666Y-159664794D01*
X187781666Y-159664794D02*
X187842142Y-159725270D01*
X187842142Y-159725270D02*
X187902619Y-159846222D01*
X187902619Y-159846222D02*
X187902619Y-159967175D01*
X187902619Y-159967175D02*
X187842142Y-160148603D01*
X187842142Y-160148603D02*
X187116428Y-160874318D01*
X187116428Y-160874318D02*
X187902619Y-160874318D01*
X227074318Y-182221190D02*
X227074318Y-182825952D01*
X227074318Y-182825952D02*
X225804318Y-182825952D01*
X226409080Y-181797857D02*
X226409080Y-181374523D01*
X227074318Y-181193095D02*
X227074318Y-181797857D01*
X227074318Y-181797857D02*
X225804318Y-181797857D01*
X225804318Y-181797857D02*
X225804318Y-181193095D01*
X227074318Y-180648809D02*
X225804318Y-180648809D01*
X225804318Y-180648809D02*
X225804318Y-180346428D01*
X225804318Y-180346428D02*
X225864794Y-180164999D01*
X225864794Y-180164999D02*
X225985746Y-180044047D01*
X225985746Y-180044047D02*
X226106699Y-179983570D01*
X226106699Y-179983570D02*
X226348603Y-179923094D01*
X226348603Y-179923094D02*
X226530032Y-179923094D01*
X226530032Y-179923094D02*
X226771937Y-179983570D01*
X226771937Y-179983570D02*
X226892889Y-180044047D01*
X226892889Y-180044047D02*
X227013842Y-180164999D01*
X227013842Y-180164999D02*
X227074318Y-180346428D01*
X227074318Y-180346428D02*
X227074318Y-180648809D01*
X226227651Y-178834523D02*
X227074318Y-178834523D01*
X225743842Y-179136904D02*
X226650984Y-179439285D01*
X226650984Y-179439285D02*
X226650984Y-178653094D01*
D12*
X218609580Y-129066666D02*
X218657200Y-129114285D01*
X218657200Y-129114285D02*
X218704819Y-129257142D01*
X218704819Y-129257142D02*
X218704819Y-129352380D01*
X218704819Y-129352380D02*
X218657200Y-129495237D01*
X218657200Y-129495237D02*
X218561961Y-129590475D01*
X218561961Y-129590475D02*
X218466723Y-129638094D01*
X218466723Y-129638094D02*
X218276247Y-129685713D01*
X218276247Y-129685713D02*
X218133390Y-129685713D01*
X218133390Y-129685713D02*
X217942914Y-129638094D01*
X217942914Y-129638094D02*
X217847676Y-129590475D01*
X217847676Y-129590475D02*
X217752438Y-129495237D01*
X217752438Y-129495237D02*
X217704819Y-129352380D01*
X217704819Y-129352380D02*
X217704819Y-129257142D01*
X217704819Y-129257142D02*
X217752438Y-129114285D01*
X217752438Y-129114285D02*
X217800057Y-129066666D01*
X217704819Y-128733332D02*
X217704819Y-128066666D01*
X217704819Y-128066666D02*
X218704819Y-128495237D01*
D13*
X144270380Y-142404318D02*
X144270380Y-143432413D01*
X144270380Y-143432413D02*
X144330857Y-143553365D01*
X144330857Y-143553365D02*
X144391333Y-143613842D01*
X144391333Y-143613842D02*
X144512285Y-143674318D01*
X144512285Y-143674318D02*
X144754190Y-143674318D01*
X144754190Y-143674318D02*
X144875142Y-143613842D01*
X144875142Y-143613842D02*
X144935619Y-143553365D01*
X144935619Y-143553365D02*
X144996095Y-143432413D01*
X144996095Y-143432413D02*
X144996095Y-142404318D01*
X146145142Y-142404318D02*
X145903237Y-142404318D01*
X145903237Y-142404318D02*
X145782285Y-142464794D01*
X145782285Y-142464794D02*
X145721809Y-142525270D01*
X145721809Y-142525270D02*
X145600856Y-142706699D01*
X145600856Y-142706699D02*
X145540380Y-142948603D01*
X145540380Y-142948603D02*
X145540380Y-143432413D01*
X145540380Y-143432413D02*
X145600856Y-143553365D01*
X145600856Y-143553365D02*
X145661333Y-143613842D01*
X145661333Y-143613842D02*
X145782285Y-143674318D01*
X145782285Y-143674318D02*
X146024190Y-143674318D01*
X146024190Y-143674318D02*
X146145142Y-143613842D01*
X146145142Y-143613842D02*
X146205618Y-143553365D01*
X146205618Y-143553365D02*
X146266095Y-143432413D01*
X146266095Y-143432413D02*
X146266095Y-143130032D01*
X146266095Y-143130032D02*
X146205618Y-143009080D01*
X146205618Y-143009080D02*
X146145142Y-142948603D01*
X146145142Y-142948603D02*
X146024190Y-142888127D01*
X146024190Y-142888127D02*
X145782285Y-142888127D01*
X145782285Y-142888127D02*
X145661333Y-142948603D01*
X145661333Y-142948603D02*
X145600856Y-143009080D01*
X145600856Y-143009080D02*
X145540380Y-143130032D01*
D12*
X216409580Y-154980357D02*
X216457200Y-155027976D01*
X216457200Y-155027976D02*
X216504819Y-155170833D01*
X216504819Y-155170833D02*
X216504819Y-155266071D01*
X216504819Y-155266071D02*
X216457200Y-155408928D01*
X216457200Y-155408928D02*
X216361961Y-155504166D01*
X216361961Y-155504166D02*
X216266723Y-155551785D01*
X216266723Y-155551785D02*
X216076247Y-155599404D01*
X216076247Y-155599404D02*
X215933390Y-155599404D01*
X215933390Y-155599404D02*
X215742914Y-155551785D01*
X215742914Y-155551785D02*
X215647676Y-155504166D01*
X215647676Y-155504166D02*
X215552438Y-155408928D01*
X215552438Y-155408928D02*
X215504819Y-155266071D01*
X215504819Y-155266071D02*
X215504819Y-155170833D01*
X215504819Y-155170833D02*
X215552438Y-155027976D01*
X215552438Y-155027976D02*
X215600057Y-154980357D01*
X216504819Y-154027976D02*
X216504819Y-154599404D01*
X216504819Y-154313690D02*
X215504819Y-154313690D01*
X215504819Y-154313690D02*
X215647676Y-154408928D01*
X215647676Y-154408928D02*
X215742914Y-154504166D01*
X215742914Y-154504166D02*
X215790533Y-154599404D01*
X216504819Y-153075595D02*
X216504819Y-153647023D01*
X216504819Y-153361309D02*
X215504819Y-153361309D01*
X215504819Y-153361309D02*
X215647676Y-153456547D01*
X215647676Y-153456547D02*
X215742914Y-153551785D01*
X215742914Y-153551785D02*
X215790533Y-153647023D01*
X143140419Y-129716978D02*
X143092800Y-129669359D01*
X143092800Y-129669359D02*
X143045180Y-129526502D01*
X143045180Y-129526502D02*
X143045180Y-129431264D01*
X143045180Y-129431264D02*
X143092800Y-129288407D01*
X143092800Y-129288407D02*
X143188038Y-129193169D01*
X143188038Y-129193169D02*
X143283276Y-129145550D01*
X143283276Y-129145550D02*
X143473752Y-129097931D01*
X143473752Y-129097931D02*
X143616609Y-129097931D01*
X143616609Y-129097931D02*
X143807085Y-129145550D01*
X143807085Y-129145550D02*
X143902323Y-129193169D01*
X143902323Y-129193169D02*
X143997561Y-129288407D01*
X143997561Y-129288407D02*
X144045180Y-129431264D01*
X144045180Y-129431264D02*
X144045180Y-129526502D01*
X144045180Y-129526502D02*
X143997561Y-129669359D01*
X143997561Y-129669359D02*
X143949942Y-129716978D01*
X144045180Y-130621740D02*
X144045180Y-130145550D01*
X144045180Y-130145550D02*
X143568990Y-130097931D01*
X143568990Y-130097931D02*
X143616609Y-130145550D01*
X143616609Y-130145550D02*
X143664228Y-130240788D01*
X143664228Y-130240788D02*
X143664228Y-130478883D01*
X143664228Y-130478883D02*
X143616609Y-130574121D01*
X143616609Y-130574121D02*
X143568990Y-130621740D01*
X143568990Y-130621740D02*
X143473752Y-130669359D01*
X143473752Y-130669359D02*
X143235657Y-130669359D01*
X143235657Y-130669359D02*
X143140419Y-130621740D01*
X143140419Y-130621740D02*
X143092800Y-130574121D01*
X143092800Y-130574121D02*
X143045180Y-130478883D01*
X143045180Y-130478883D02*
X143045180Y-130240788D01*
X143045180Y-130240788D02*
X143092800Y-130145550D01*
X143092800Y-130145550D02*
X143140419Y-130097931D01*
X222234819Y-175716666D02*
X221758628Y-176049999D01*
X222234819Y-176288094D02*
X221234819Y-176288094D01*
X221234819Y-176288094D02*
X221234819Y-175907142D01*
X221234819Y-175907142D02*
X221282438Y-175811904D01*
X221282438Y-175811904D02*
X221330057Y-175764285D01*
X221330057Y-175764285D02*
X221425295Y-175716666D01*
X221425295Y-175716666D02*
X221568152Y-175716666D01*
X221568152Y-175716666D02*
X221663390Y-175764285D01*
X221663390Y-175764285D02*
X221711009Y-175811904D01*
X221711009Y-175811904D02*
X221758628Y-175907142D01*
X221758628Y-175907142D02*
X221758628Y-176288094D01*
X221663390Y-175145237D02*
X221615771Y-175240475D01*
X221615771Y-175240475D02*
X221568152Y-175288094D01*
X221568152Y-175288094D02*
X221472914Y-175335713D01*
X221472914Y-175335713D02*
X221425295Y-175335713D01*
X221425295Y-175335713D02*
X221330057Y-175288094D01*
X221330057Y-175288094D02*
X221282438Y-175240475D01*
X221282438Y-175240475D02*
X221234819Y-175145237D01*
X221234819Y-175145237D02*
X221234819Y-174954761D01*
X221234819Y-174954761D02*
X221282438Y-174859523D01*
X221282438Y-174859523D02*
X221330057Y-174811904D01*
X221330057Y-174811904D02*
X221425295Y-174764285D01*
X221425295Y-174764285D02*
X221472914Y-174764285D01*
X221472914Y-174764285D02*
X221568152Y-174811904D01*
X221568152Y-174811904D02*
X221615771Y-174859523D01*
X221615771Y-174859523D02*
X221663390Y-174954761D01*
X221663390Y-174954761D02*
X221663390Y-175145237D01*
X221663390Y-175145237D02*
X221711009Y-175240475D01*
X221711009Y-175240475D02*
X221758628Y-175288094D01*
X221758628Y-175288094D02*
X221853866Y-175335713D01*
X221853866Y-175335713D02*
X222044342Y-175335713D01*
X222044342Y-175335713D02*
X222139580Y-175288094D01*
X222139580Y-175288094D02*
X222187200Y-175240475D01*
X222187200Y-175240475D02*
X222234819Y-175145237D01*
X222234819Y-175145237D02*
X222234819Y-174954761D01*
X222234819Y-174954761D02*
X222187200Y-174859523D01*
X222187200Y-174859523D02*
X222139580Y-174811904D01*
X222139580Y-174811904D02*
X222044342Y-174764285D01*
X222044342Y-174764285D02*
X221853866Y-174764285D01*
X221853866Y-174764285D02*
X221758628Y-174811904D01*
X221758628Y-174811904D02*
X221711009Y-174859523D01*
X221711009Y-174859523D02*
X221663390Y-174954761D01*
D13*
X97029318Y-72648332D02*
X97936461Y-72648332D01*
X97936461Y-72648332D02*
X98117889Y-72708809D01*
X98117889Y-72708809D02*
X98238842Y-72829761D01*
X98238842Y-72829761D02*
X98299318Y-73011190D01*
X98299318Y-73011190D02*
X98299318Y-73132142D01*
X98299318Y-71378332D02*
X98299318Y-72104047D01*
X98299318Y-71741190D02*
X97029318Y-71741190D01*
X97029318Y-71741190D02*
X97210746Y-71862142D01*
X97210746Y-71862142D02*
X97331699Y-71983094D01*
X97331699Y-71983094D02*
X97392175Y-72104047D01*
D12*
X106224819Y-103066666D02*
X105748628Y-103399999D01*
X106224819Y-103638094D02*
X105224819Y-103638094D01*
X105224819Y-103638094D02*
X105224819Y-103257142D01*
X105224819Y-103257142D02*
X105272438Y-103161904D01*
X105272438Y-103161904D02*
X105320057Y-103114285D01*
X105320057Y-103114285D02*
X105415295Y-103066666D01*
X105415295Y-103066666D02*
X105558152Y-103066666D01*
X105558152Y-103066666D02*
X105653390Y-103114285D01*
X105653390Y-103114285D02*
X105701009Y-103161904D01*
X105701009Y-103161904D02*
X105748628Y-103257142D01*
X105748628Y-103257142D02*
X105748628Y-103638094D01*
X106224819Y-102114285D02*
X106224819Y-102685713D01*
X106224819Y-102399999D02*
X105224819Y-102399999D01*
X105224819Y-102399999D02*
X105367676Y-102495237D01*
X105367676Y-102495237D02*
X105462914Y-102590475D01*
X105462914Y-102590475D02*
X105510533Y-102685713D01*
X114548116Y-110395819D02*
X114595735Y-110348200D01*
X114595735Y-110348200D02*
X114738592Y-110300580D01*
X114738592Y-110300580D02*
X114833830Y-110300580D01*
X114833830Y-110300580D02*
X114976687Y-110348200D01*
X114976687Y-110348200D02*
X115071925Y-110443438D01*
X115071925Y-110443438D02*
X115119544Y-110538676D01*
X115119544Y-110538676D02*
X115167163Y-110729152D01*
X115167163Y-110729152D02*
X115167163Y-110872009D01*
X115167163Y-110872009D02*
X115119544Y-111062485D01*
X115119544Y-111062485D02*
X115071925Y-111157723D01*
X115071925Y-111157723D02*
X114976687Y-111252961D01*
X114976687Y-111252961D02*
X114833830Y-111300580D01*
X114833830Y-111300580D02*
X114738592Y-111300580D01*
X114738592Y-111300580D02*
X114595735Y-111252961D01*
X114595735Y-111252961D02*
X114548116Y-111205342D01*
X113595735Y-110300580D02*
X114167163Y-110300580D01*
X113881449Y-110300580D02*
X113881449Y-111300580D01*
X113881449Y-111300580D02*
X113976687Y-111157723D01*
X113976687Y-111157723D02*
X114071925Y-111062485D01*
X114071925Y-111062485D02*
X114167163Y-111014866D01*
X161140419Y-131185278D02*
X161092800Y-131137659D01*
X161092800Y-131137659D02*
X161045180Y-130994802D01*
X161045180Y-130994802D02*
X161045180Y-130899564D01*
X161045180Y-130899564D02*
X161092800Y-130756707D01*
X161092800Y-130756707D02*
X161188038Y-130661469D01*
X161188038Y-130661469D02*
X161283276Y-130613850D01*
X161283276Y-130613850D02*
X161473752Y-130566231D01*
X161473752Y-130566231D02*
X161616609Y-130566231D01*
X161616609Y-130566231D02*
X161807085Y-130613850D01*
X161807085Y-130613850D02*
X161902323Y-130661469D01*
X161902323Y-130661469D02*
X161997561Y-130756707D01*
X161997561Y-130756707D02*
X162045180Y-130899564D01*
X162045180Y-130899564D02*
X162045180Y-130994802D01*
X162045180Y-130994802D02*
X161997561Y-131137659D01*
X161997561Y-131137659D02*
X161949942Y-131185278D01*
X162045180Y-132042421D02*
X162045180Y-131851945D01*
X162045180Y-131851945D02*
X161997561Y-131756707D01*
X161997561Y-131756707D02*
X161949942Y-131709088D01*
X161949942Y-131709088D02*
X161807085Y-131613850D01*
X161807085Y-131613850D02*
X161616609Y-131566231D01*
X161616609Y-131566231D02*
X161235657Y-131566231D01*
X161235657Y-131566231D02*
X161140419Y-131613850D01*
X161140419Y-131613850D02*
X161092800Y-131661469D01*
X161092800Y-131661469D02*
X161045180Y-131756707D01*
X161045180Y-131756707D02*
X161045180Y-131947183D01*
X161045180Y-131947183D02*
X161092800Y-132042421D01*
X161092800Y-132042421D02*
X161140419Y-132090040D01*
X161140419Y-132090040D02*
X161235657Y-132137659D01*
X161235657Y-132137659D02*
X161473752Y-132137659D01*
X161473752Y-132137659D02*
X161568990Y-132090040D01*
X161568990Y-132090040D02*
X161616609Y-132042421D01*
X161616609Y-132042421D02*
X161664228Y-131947183D01*
X161664228Y-131947183D02*
X161664228Y-131756707D01*
X161664228Y-131756707D02*
X161616609Y-131661469D01*
X161616609Y-131661469D02*
X161568990Y-131613850D01*
X161568990Y-131613850D02*
X161473752Y-131566231D01*
X203140419Y-180855642D02*
X203092800Y-180808023D01*
X203092800Y-180808023D02*
X203045180Y-180665166D01*
X203045180Y-180665166D02*
X203045180Y-180569928D01*
X203045180Y-180569928D02*
X203092800Y-180427071D01*
X203092800Y-180427071D02*
X203188038Y-180331833D01*
X203188038Y-180331833D02*
X203283276Y-180284214D01*
X203283276Y-180284214D02*
X203473752Y-180236595D01*
X203473752Y-180236595D02*
X203616609Y-180236595D01*
X203616609Y-180236595D02*
X203807085Y-180284214D01*
X203807085Y-180284214D02*
X203902323Y-180331833D01*
X203902323Y-180331833D02*
X203997561Y-180427071D01*
X203997561Y-180427071D02*
X204045180Y-180569928D01*
X204045180Y-180569928D02*
X204045180Y-180665166D01*
X204045180Y-180665166D02*
X203997561Y-180808023D01*
X203997561Y-180808023D02*
X203949942Y-180855642D01*
X203045180Y-181808023D02*
X203045180Y-181236595D01*
X203045180Y-181522309D02*
X204045180Y-181522309D01*
X204045180Y-181522309D02*
X203902323Y-181427071D01*
X203902323Y-181427071D02*
X203807085Y-181331833D01*
X203807085Y-181331833D02*
X203759466Y-181236595D01*
X203949942Y-182188976D02*
X203997561Y-182236595D01*
X203997561Y-182236595D02*
X204045180Y-182331833D01*
X204045180Y-182331833D02*
X204045180Y-182569928D01*
X204045180Y-182569928D02*
X203997561Y-182665166D01*
X203997561Y-182665166D02*
X203949942Y-182712785D01*
X203949942Y-182712785D02*
X203854704Y-182760404D01*
X203854704Y-182760404D02*
X203759466Y-182760404D01*
X203759466Y-182760404D02*
X203616609Y-182712785D01*
X203616609Y-182712785D02*
X203045180Y-182141357D01*
X203045180Y-182141357D02*
X203045180Y-182760404D01*
X150853333Y-149654819D02*
X150377143Y-149654819D01*
X150377143Y-149654819D02*
X150377143Y-148654819D01*
X151091429Y-148654819D02*
X151710476Y-148654819D01*
X151710476Y-148654819D02*
X151377143Y-149035771D01*
X151377143Y-149035771D02*
X151520000Y-149035771D01*
X151520000Y-149035771D02*
X151615238Y-149083390D01*
X151615238Y-149083390D02*
X151662857Y-149131009D01*
X151662857Y-149131009D02*
X151710476Y-149226247D01*
X151710476Y-149226247D02*
X151710476Y-149464342D01*
X151710476Y-149464342D02*
X151662857Y-149559580D01*
X151662857Y-149559580D02*
X151615238Y-149607200D01*
X151615238Y-149607200D02*
X151520000Y-149654819D01*
X151520000Y-149654819D02*
X151234286Y-149654819D01*
X151234286Y-149654819D02*
X151139048Y-149607200D01*
X151139048Y-149607200D02*
X151091429Y-149559580D01*
X112820595Y-95629820D02*
X112820595Y-96439343D01*
X112820595Y-96439343D02*
X112868214Y-96534581D01*
X112868214Y-96534581D02*
X112915833Y-96582201D01*
X112915833Y-96582201D02*
X113011071Y-96629820D01*
X113011071Y-96629820D02*
X113201547Y-96629820D01*
X113201547Y-96629820D02*
X113296785Y-96582201D01*
X113296785Y-96582201D02*
X113344404Y-96534581D01*
X113344404Y-96534581D02*
X113392023Y-96439343D01*
X113392023Y-96439343D02*
X113392023Y-95629820D01*
X113820595Y-95725058D02*
X113868214Y-95677439D01*
X113868214Y-95677439D02*
X113963452Y-95629820D01*
X113963452Y-95629820D02*
X114201547Y-95629820D01*
X114201547Y-95629820D02*
X114296785Y-95677439D01*
X114296785Y-95677439D02*
X114344404Y-95725058D01*
X114344404Y-95725058D02*
X114392023Y-95820296D01*
X114392023Y-95820296D02*
X114392023Y-95915534D01*
X114392023Y-95915534D02*
X114344404Y-96058391D01*
X114344404Y-96058391D02*
X113772976Y-96629820D01*
X113772976Y-96629820D02*
X114392023Y-96629820D01*
X208940419Y-155233333D02*
X208892800Y-155185714D01*
X208892800Y-155185714D02*
X208845180Y-155042857D01*
X208845180Y-155042857D02*
X208845180Y-154947619D01*
X208845180Y-154947619D02*
X208892800Y-154804762D01*
X208892800Y-154804762D02*
X208988038Y-154709524D01*
X208988038Y-154709524D02*
X209083276Y-154661905D01*
X209083276Y-154661905D02*
X209273752Y-154614286D01*
X209273752Y-154614286D02*
X209416609Y-154614286D01*
X209416609Y-154614286D02*
X209607085Y-154661905D01*
X209607085Y-154661905D02*
X209702323Y-154709524D01*
X209702323Y-154709524D02*
X209797561Y-154804762D01*
X209797561Y-154804762D02*
X209845180Y-154947619D01*
X209845180Y-154947619D02*
X209845180Y-155042857D01*
X209845180Y-155042857D02*
X209797561Y-155185714D01*
X209797561Y-155185714D02*
X209749942Y-155233333D01*
X209416609Y-155804762D02*
X209464228Y-155709524D01*
X209464228Y-155709524D02*
X209511847Y-155661905D01*
X209511847Y-155661905D02*
X209607085Y-155614286D01*
X209607085Y-155614286D02*
X209654704Y-155614286D01*
X209654704Y-155614286D02*
X209749942Y-155661905D01*
X209749942Y-155661905D02*
X209797561Y-155709524D01*
X209797561Y-155709524D02*
X209845180Y-155804762D01*
X209845180Y-155804762D02*
X209845180Y-155995238D01*
X209845180Y-155995238D02*
X209797561Y-156090476D01*
X209797561Y-156090476D02*
X209749942Y-156138095D01*
X209749942Y-156138095D02*
X209654704Y-156185714D01*
X209654704Y-156185714D02*
X209607085Y-156185714D01*
X209607085Y-156185714D02*
X209511847Y-156138095D01*
X209511847Y-156138095D02*
X209464228Y-156090476D01*
X209464228Y-156090476D02*
X209416609Y-155995238D01*
X209416609Y-155995238D02*
X209416609Y-155804762D01*
X209416609Y-155804762D02*
X209368990Y-155709524D01*
X209368990Y-155709524D02*
X209321371Y-155661905D01*
X209321371Y-155661905D02*
X209226133Y-155614286D01*
X209226133Y-155614286D02*
X209035657Y-155614286D01*
X209035657Y-155614286D02*
X208940419Y-155661905D01*
X208940419Y-155661905D02*
X208892800Y-155709524D01*
X208892800Y-155709524D02*
X208845180Y-155804762D01*
X208845180Y-155804762D02*
X208845180Y-155995238D01*
X208845180Y-155995238D02*
X208892800Y-156090476D01*
X208892800Y-156090476D02*
X208940419Y-156138095D01*
X208940419Y-156138095D02*
X209035657Y-156185714D01*
X209035657Y-156185714D02*
X209226133Y-156185714D01*
X209226133Y-156185714D02*
X209321371Y-156138095D01*
X209321371Y-156138095D02*
X209368990Y-156090476D01*
X209368990Y-156090476D02*
X209416609Y-155995238D01*
X161140419Y-178472997D02*
X161092800Y-178425378D01*
X161092800Y-178425378D02*
X161045180Y-178282521D01*
X161045180Y-178282521D02*
X161045180Y-178187283D01*
X161045180Y-178187283D02*
X161092800Y-178044426D01*
X161092800Y-178044426D02*
X161188038Y-177949188D01*
X161188038Y-177949188D02*
X161283276Y-177901569D01*
X161283276Y-177901569D02*
X161473752Y-177853950D01*
X161473752Y-177853950D02*
X161616609Y-177853950D01*
X161616609Y-177853950D02*
X161807085Y-177901569D01*
X161807085Y-177901569D02*
X161902323Y-177949188D01*
X161902323Y-177949188D02*
X161997561Y-178044426D01*
X161997561Y-178044426D02*
X162045180Y-178187283D01*
X162045180Y-178187283D02*
X162045180Y-178282521D01*
X162045180Y-178282521D02*
X161997561Y-178425378D01*
X161997561Y-178425378D02*
X161949942Y-178472997D01*
X161045180Y-179425378D02*
X161045180Y-178853950D01*
X161045180Y-179139664D02*
X162045180Y-179139664D01*
X162045180Y-179139664D02*
X161902323Y-179044426D01*
X161902323Y-179044426D02*
X161807085Y-178949188D01*
X161807085Y-178949188D02*
X161759466Y-178853950D01*
X161711847Y-180282521D02*
X161045180Y-180282521D01*
X162092800Y-180044426D02*
X161378514Y-179806331D01*
X161378514Y-179806331D02*
X161378514Y-180425378D01*
X141899819Y-129585539D02*
X140899819Y-129585539D01*
X140899819Y-129585539D02*
X140899819Y-129347444D01*
X140899819Y-129347444D02*
X140947438Y-129204587D01*
X140947438Y-129204587D02*
X141042676Y-129109349D01*
X141042676Y-129109349D02*
X141137914Y-129061730D01*
X141137914Y-129061730D02*
X141328390Y-129014111D01*
X141328390Y-129014111D02*
X141471247Y-129014111D01*
X141471247Y-129014111D02*
X141661723Y-129061730D01*
X141661723Y-129061730D02*
X141756961Y-129109349D01*
X141756961Y-129109349D02*
X141852200Y-129204587D01*
X141852200Y-129204587D02*
X141899819Y-129347444D01*
X141899819Y-129347444D02*
X141899819Y-129585539D01*
X140995057Y-128633158D02*
X140947438Y-128585539D01*
X140947438Y-128585539D02*
X140899819Y-128490301D01*
X140899819Y-128490301D02*
X140899819Y-128252206D01*
X140899819Y-128252206D02*
X140947438Y-128156968D01*
X140947438Y-128156968D02*
X140995057Y-128109349D01*
X140995057Y-128109349D02*
X141090295Y-128061730D01*
X141090295Y-128061730D02*
X141185533Y-128061730D01*
X141185533Y-128061730D02*
X141328390Y-128109349D01*
X141328390Y-128109349D02*
X141899819Y-128680777D01*
X141899819Y-128680777D02*
X141899819Y-128061730D01*
X219534819Y-131866666D02*
X219058628Y-132199999D01*
X219534819Y-132438094D02*
X218534819Y-132438094D01*
X218534819Y-132438094D02*
X218534819Y-132057142D01*
X218534819Y-132057142D02*
X218582438Y-131961904D01*
X218582438Y-131961904D02*
X218630057Y-131914285D01*
X218630057Y-131914285D02*
X218725295Y-131866666D01*
X218725295Y-131866666D02*
X218868152Y-131866666D01*
X218868152Y-131866666D02*
X218963390Y-131914285D01*
X218963390Y-131914285D02*
X219011009Y-131961904D01*
X219011009Y-131961904D02*
X219058628Y-132057142D01*
X219058628Y-132057142D02*
X219058628Y-132438094D01*
X218534819Y-130961904D02*
X218534819Y-131438094D01*
X218534819Y-131438094D02*
X219011009Y-131485713D01*
X219011009Y-131485713D02*
X218963390Y-131438094D01*
X218963390Y-131438094D02*
X218915771Y-131342856D01*
X218915771Y-131342856D02*
X218915771Y-131104761D01*
X218915771Y-131104761D02*
X218963390Y-131009523D01*
X218963390Y-131009523D02*
X219011009Y-130961904D01*
X219011009Y-130961904D02*
X219106247Y-130914285D01*
X219106247Y-130914285D02*
X219344342Y-130914285D01*
X219344342Y-130914285D02*
X219439580Y-130961904D01*
X219439580Y-130961904D02*
X219487200Y-131009523D01*
X219487200Y-131009523D02*
X219534819Y-131104761D01*
X219534819Y-131104761D02*
X219534819Y-131342856D01*
X219534819Y-131342856D02*
X219487200Y-131438094D01*
X219487200Y-131438094D02*
X219439580Y-131485713D01*
X150833333Y-125738464D02*
X150357143Y-125738464D01*
X150357143Y-125738464D02*
X150357143Y-124738464D01*
X151119048Y-124833702D02*
X151166667Y-124786083D01*
X151166667Y-124786083D02*
X151261905Y-124738464D01*
X151261905Y-124738464D02*
X151500000Y-124738464D01*
X151500000Y-124738464D02*
X151595238Y-124786083D01*
X151595238Y-124786083D02*
X151642857Y-124833702D01*
X151642857Y-124833702D02*
X151690476Y-124928940D01*
X151690476Y-124928940D02*
X151690476Y-125024178D01*
X151690476Y-125024178D02*
X151642857Y-125167035D01*
X151642857Y-125167035D02*
X151071429Y-125738464D01*
X151071429Y-125738464D02*
X151690476Y-125738464D01*
X143140419Y-153633333D02*
X143092800Y-153585714D01*
X143092800Y-153585714D02*
X143045180Y-153442857D01*
X143045180Y-153442857D02*
X143045180Y-153347619D01*
X143045180Y-153347619D02*
X143092800Y-153204762D01*
X143092800Y-153204762D02*
X143188038Y-153109524D01*
X143188038Y-153109524D02*
X143283276Y-153061905D01*
X143283276Y-153061905D02*
X143473752Y-153014286D01*
X143473752Y-153014286D02*
X143616609Y-153014286D01*
X143616609Y-153014286D02*
X143807085Y-153061905D01*
X143807085Y-153061905D02*
X143902323Y-153109524D01*
X143902323Y-153109524D02*
X143997561Y-153204762D01*
X143997561Y-153204762D02*
X144045180Y-153347619D01*
X144045180Y-153347619D02*
X144045180Y-153442857D01*
X144045180Y-153442857D02*
X143997561Y-153585714D01*
X143997561Y-153585714D02*
X143949942Y-153633333D01*
X143045180Y-154109524D02*
X143045180Y-154300000D01*
X143045180Y-154300000D02*
X143092800Y-154395238D01*
X143092800Y-154395238D02*
X143140419Y-154442857D01*
X143140419Y-154442857D02*
X143283276Y-154538095D01*
X143283276Y-154538095D02*
X143473752Y-154585714D01*
X143473752Y-154585714D02*
X143854704Y-154585714D01*
X143854704Y-154585714D02*
X143949942Y-154538095D01*
X143949942Y-154538095D02*
X143997561Y-154490476D01*
X143997561Y-154490476D02*
X144045180Y-154395238D01*
X144045180Y-154395238D02*
X144045180Y-154204762D01*
X144045180Y-154204762D02*
X143997561Y-154109524D01*
X143997561Y-154109524D02*
X143949942Y-154061905D01*
X143949942Y-154061905D02*
X143854704Y-154014286D01*
X143854704Y-154014286D02*
X143616609Y-154014286D01*
X143616609Y-154014286D02*
X143521371Y-154061905D01*
X143521371Y-154061905D02*
X143473752Y-154109524D01*
X143473752Y-154109524D02*
X143426133Y-154204762D01*
X143426133Y-154204762D02*
X143426133Y-154395238D01*
X143426133Y-154395238D02*
X143473752Y-154490476D01*
X143473752Y-154490476D02*
X143521371Y-154538095D01*
X143521371Y-154538095D02*
X143616609Y-154585714D01*
X178234819Y-108066666D02*
X177758628Y-108399999D01*
X178234819Y-108638094D02*
X177234819Y-108638094D01*
X177234819Y-108638094D02*
X177234819Y-108257142D01*
X177234819Y-108257142D02*
X177282438Y-108161904D01*
X177282438Y-108161904D02*
X177330057Y-108114285D01*
X177330057Y-108114285D02*
X177425295Y-108066666D01*
X177425295Y-108066666D02*
X177568152Y-108066666D01*
X177568152Y-108066666D02*
X177663390Y-108114285D01*
X177663390Y-108114285D02*
X177711009Y-108161904D01*
X177711009Y-108161904D02*
X177758628Y-108257142D01*
X177758628Y-108257142D02*
X177758628Y-108638094D01*
X177234819Y-107209523D02*
X177234819Y-107399999D01*
X177234819Y-107399999D02*
X177282438Y-107495237D01*
X177282438Y-107495237D02*
X177330057Y-107542856D01*
X177330057Y-107542856D02*
X177472914Y-107638094D01*
X177472914Y-107638094D02*
X177663390Y-107685713D01*
X177663390Y-107685713D02*
X178044342Y-107685713D01*
X178044342Y-107685713D02*
X178139580Y-107638094D01*
X178139580Y-107638094D02*
X178187200Y-107590475D01*
X178187200Y-107590475D02*
X178234819Y-107495237D01*
X178234819Y-107495237D02*
X178234819Y-107304761D01*
X178234819Y-107304761D02*
X178187200Y-107209523D01*
X178187200Y-107209523D02*
X178139580Y-107161904D01*
X178139580Y-107161904D02*
X178044342Y-107114285D01*
X178044342Y-107114285D02*
X177806247Y-107114285D01*
X177806247Y-107114285D02*
X177711009Y-107161904D01*
X177711009Y-107161904D02*
X177663390Y-107209523D01*
X177663390Y-107209523D02*
X177615771Y-107304761D01*
X177615771Y-107304761D02*
X177615771Y-107495237D01*
X177615771Y-107495237D02*
X177663390Y-107590475D01*
X177663390Y-107590475D02*
X177711009Y-107638094D01*
X177711009Y-107638094D02*
X177806247Y-107685713D01*
X141899819Y-153501894D02*
X140899819Y-153501894D01*
X140899819Y-153501894D02*
X140899819Y-153263799D01*
X140899819Y-153263799D02*
X140947438Y-153120942D01*
X140947438Y-153120942D02*
X141042676Y-153025704D01*
X141042676Y-153025704D02*
X141137914Y-152978085D01*
X141137914Y-152978085D02*
X141328390Y-152930466D01*
X141328390Y-152930466D02*
X141471247Y-152930466D01*
X141471247Y-152930466D02*
X141661723Y-152978085D01*
X141661723Y-152978085D02*
X141756961Y-153025704D01*
X141756961Y-153025704D02*
X141852200Y-153120942D01*
X141852200Y-153120942D02*
X141899819Y-153263799D01*
X141899819Y-153263799D02*
X141899819Y-153501894D01*
X140899819Y-152597132D02*
X140899819Y-151978085D01*
X140899819Y-151978085D02*
X141280771Y-152311418D01*
X141280771Y-152311418D02*
X141280771Y-152168561D01*
X141280771Y-152168561D02*
X141328390Y-152073323D01*
X141328390Y-152073323D02*
X141376009Y-152025704D01*
X141376009Y-152025704D02*
X141471247Y-151978085D01*
X141471247Y-151978085D02*
X141709342Y-151978085D01*
X141709342Y-151978085D02*
X141804580Y-152025704D01*
X141804580Y-152025704D02*
X141852200Y-152073323D01*
X141852200Y-152073323D02*
X141899819Y-152168561D01*
X141899819Y-152168561D02*
X141899819Y-152454275D01*
X141899819Y-152454275D02*
X141852200Y-152549513D01*
X141852200Y-152549513D02*
X141804580Y-152597132D01*
D13*
X180174318Y-114421190D02*
X180174318Y-115025952D01*
X180174318Y-115025952D02*
X178904318Y-115025952D01*
X179509080Y-113997857D02*
X179509080Y-113574523D01*
X180174318Y-113393095D02*
X180174318Y-113997857D01*
X180174318Y-113997857D02*
X178904318Y-113997857D01*
X178904318Y-113997857D02*
X178904318Y-113393095D01*
X180174318Y-112848809D02*
X178904318Y-112848809D01*
X178904318Y-112848809D02*
X178904318Y-112546428D01*
X178904318Y-112546428D02*
X178964794Y-112364999D01*
X178964794Y-112364999D02*
X179085746Y-112244047D01*
X179085746Y-112244047D02*
X179206699Y-112183570D01*
X179206699Y-112183570D02*
X179448603Y-112123094D01*
X179448603Y-112123094D02*
X179630032Y-112123094D01*
X179630032Y-112123094D02*
X179871937Y-112183570D01*
X179871937Y-112183570D02*
X179992889Y-112244047D01*
X179992889Y-112244047D02*
X180113842Y-112364999D01*
X180113842Y-112364999D02*
X180174318Y-112546428D01*
X180174318Y-112546428D02*
X180174318Y-112848809D01*
X179025270Y-111639285D02*
X178964794Y-111578809D01*
X178964794Y-111578809D02*
X178904318Y-111457856D01*
X178904318Y-111457856D02*
X178904318Y-111155475D01*
X178904318Y-111155475D02*
X178964794Y-111034523D01*
X178964794Y-111034523D02*
X179025270Y-110974047D01*
X179025270Y-110974047D02*
X179146222Y-110913570D01*
X179146222Y-110913570D02*
X179267175Y-110913570D01*
X179267175Y-110913570D02*
X179448603Y-110974047D01*
X179448603Y-110974047D02*
X180174318Y-111699761D01*
X180174318Y-111699761D02*
X180174318Y-110913570D01*
D12*
X210940419Y-129787633D02*
X210892800Y-129740014D01*
X210892800Y-129740014D02*
X210845180Y-129597157D01*
X210845180Y-129597157D02*
X210845180Y-129501919D01*
X210845180Y-129501919D02*
X210892800Y-129359062D01*
X210892800Y-129359062D02*
X210988038Y-129263824D01*
X210988038Y-129263824D02*
X211083276Y-129216205D01*
X211083276Y-129216205D02*
X211273752Y-129168586D01*
X211273752Y-129168586D02*
X211416609Y-129168586D01*
X211416609Y-129168586D02*
X211607085Y-129216205D01*
X211607085Y-129216205D02*
X211702323Y-129263824D01*
X211702323Y-129263824D02*
X211797561Y-129359062D01*
X211797561Y-129359062D02*
X211845180Y-129501919D01*
X211845180Y-129501919D02*
X211845180Y-129597157D01*
X211845180Y-129597157D02*
X211797561Y-129740014D01*
X211797561Y-129740014D02*
X211749942Y-129787633D01*
X211511847Y-130644776D02*
X210845180Y-130644776D01*
X211892800Y-130406681D02*
X211178514Y-130168586D01*
X211178514Y-130168586D02*
X211178514Y-130787633D01*
X224334819Y-149616666D02*
X223858628Y-149949999D01*
X224334819Y-150188094D02*
X223334819Y-150188094D01*
X223334819Y-150188094D02*
X223334819Y-149807142D01*
X223334819Y-149807142D02*
X223382438Y-149711904D01*
X223382438Y-149711904D02*
X223430057Y-149664285D01*
X223430057Y-149664285D02*
X223525295Y-149616666D01*
X223525295Y-149616666D02*
X223668152Y-149616666D01*
X223668152Y-149616666D02*
X223763390Y-149664285D01*
X223763390Y-149664285D02*
X223811009Y-149711904D01*
X223811009Y-149711904D02*
X223858628Y-149807142D01*
X223858628Y-149807142D02*
X223858628Y-150188094D01*
X223334819Y-149283332D02*
X223334819Y-148616666D01*
X223334819Y-148616666D02*
X224334819Y-149045237D01*
D13*
X224174318Y-138396190D02*
X224174318Y-139000952D01*
X224174318Y-139000952D02*
X222904318Y-139000952D01*
X223509080Y-137972857D02*
X223509080Y-137549523D01*
X224174318Y-137368095D02*
X224174318Y-137972857D01*
X224174318Y-137972857D02*
X222904318Y-137972857D01*
X222904318Y-137972857D02*
X222904318Y-137368095D01*
X224174318Y-136823809D02*
X222904318Y-136823809D01*
X222904318Y-136823809D02*
X222904318Y-136521428D01*
X222904318Y-136521428D02*
X222964794Y-136339999D01*
X222964794Y-136339999D02*
X223085746Y-136219047D01*
X223085746Y-136219047D02*
X223206699Y-136158570D01*
X223206699Y-136158570D02*
X223448603Y-136098094D01*
X223448603Y-136098094D02*
X223630032Y-136098094D01*
X223630032Y-136098094D02*
X223871937Y-136158570D01*
X223871937Y-136158570D02*
X223992889Y-136219047D01*
X223992889Y-136219047D02*
X224113842Y-136339999D01*
X224113842Y-136339999D02*
X224174318Y-136521428D01*
X224174318Y-136521428D02*
X224174318Y-136823809D01*
X224174318Y-134888570D02*
X224174318Y-135614285D01*
X224174318Y-135251428D02*
X222904318Y-135251428D01*
X222904318Y-135251428D02*
X223085746Y-135372380D01*
X223085746Y-135372380D02*
X223206699Y-135493332D01*
X223206699Y-135493332D02*
X223267175Y-135614285D01*
D12*
X150853333Y-173471174D02*
X150377143Y-173471174D01*
X150377143Y-173471174D02*
X150377143Y-172471174D01*
X151615238Y-172804507D02*
X151615238Y-173471174D01*
X151377143Y-172423555D02*
X151139048Y-173137840D01*
X151139048Y-173137840D02*
X151758095Y-173137840D01*
X102524819Y-103066666D02*
X102048628Y-103399999D01*
X102524819Y-103638094D02*
X101524819Y-103638094D01*
X101524819Y-103638094D02*
X101524819Y-103257142D01*
X101524819Y-103257142D02*
X101572438Y-103161904D01*
X101572438Y-103161904D02*
X101620057Y-103114285D01*
X101620057Y-103114285D02*
X101715295Y-103066666D01*
X101715295Y-103066666D02*
X101858152Y-103066666D01*
X101858152Y-103066666D02*
X101953390Y-103114285D01*
X101953390Y-103114285D02*
X102001009Y-103161904D01*
X102001009Y-103161904D02*
X102048628Y-103257142D01*
X102048628Y-103257142D02*
X102048628Y-103638094D01*
X101620057Y-102685713D02*
X101572438Y-102638094D01*
X101572438Y-102638094D02*
X101524819Y-102542856D01*
X101524819Y-102542856D02*
X101524819Y-102304761D01*
X101524819Y-102304761D02*
X101572438Y-102209523D01*
X101572438Y-102209523D02*
X101620057Y-102161904D01*
X101620057Y-102161904D02*
X101715295Y-102114285D01*
X101715295Y-102114285D02*
X101810533Y-102114285D01*
X101810533Y-102114285D02*
X101953390Y-102161904D01*
X101953390Y-102161904D02*
X102524819Y-102733332D01*
X102524819Y-102733332D02*
X102524819Y-102114285D01*
X98313390Y-104828571D02*
X98265771Y-104923809D01*
X98265771Y-104923809D02*
X98218152Y-104971428D01*
X98218152Y-104971428D02*
X98122914Y-105019047D01*
X98122914Y-105019047D02*
X98075295Y-105019047D01*
X98075295Y-105019047D02*
X97980057Y-104971428D01*
X97980057Y-104971428D02*
X97932438Y-104923809D01*
X97932438Y-104923809D02*
X97884819Y-104828571D01*
X97884819Y-104828571D02*
X97884819Y-104638095D01*
X97884819Y-104638095D02*
X97932438Y-104542857D01*
X97932438Y-104542857D02*
X97980057Y-104495238D01*
X97980057Y-104495238D02*
X98075295Y-104447619D01*
X98075295Y-104447619D02*
X98122914Y-104447619D01*
X98122914Y-104447619D02*
X98218152Y-104495238D01*
X98218152Y-104495238D02*
X98265771Y-104542857D01*
X98265771Y-104542857D02*
X98313390Y-104638095D01*
X98313390Y-104638095D02*
X98313390Y-104828571D01*
X98313390Y-104828571D02*
X98361009Y-104923809D01*
X98361009Y-104923809D02*
X98408628Y-104971428D01*
X98408628Y-104971428D02*
X98503866Y-105019047D01*
X98503866Y-105019047D02*
X98694342Y-105019047D01*
X98694342Y-105019047D02*
X98789580Y-104971428D01*
X98789580Y-104971428D02*
X98837200Y-104923809D01*
X98837200Y-104923809D02*
X98884819Y-104828571D01*
X98884819Y-104828571D02*
X98884819Y-104638095D01*
X98884819Y-104638095D02*
X98837200Y-104542857D01*
X98837200Y-104542857D02*
X98789580Y-104495238D01*
X98789580Y-104495238D02*
X98694342Y-104447619D01*
X98694342Y-104447619D02*
X98503866Y-104447619D01*
X98503866Y-104447619D02*
X98408628Y-104495238D01*
X98408628Y-104495238D02*
X98361009Y-104542857D01*
X98361009Y-104542857D02*
X98313390Y-104638095D01*
X97884819Y-104114285D02*
X97884819Y-103447619D01*
X97884819Y-103447619D02*
X98884819Y-103876190D01*
X97884819Y-102876190D02*
X97884819Y-102780952D01*
X97884819Y-102780952D02*
X97932438Y-102685714D01*
X97932438Y-102685714D02*
X97980057Y-102638095D01*
X97980057Y-102638095D02*
X98075295Y-102590476D01*
X98075295Y-102590476D02*
X98265771Y-102542857D01*
X98265771Y-102542857D02*
X98503866Y-102542857D01*
X98503866Y-102542857D02*
X98694342Y-102590476D01*
X98694342Y-102590476D02*
X98789580Y-102638095D01*
X98789580Y-102638095D02*
X98837200Y-102685714D01*
X98837200Y-102685714D02*
X98884819Y-102780952D01*
X98884819Y-102780952D02*
X98884819Y-102876190D01*
X98884819Y-102876190D02*
X98837200Y-102971428D01*
X98837200Y-102971428D02*
X98789580Y-103019047D01*
X98789580Y-103019047D02*
X98694342Y-103066666D01*
X98694342Y-103066666D02*
X98503866Y-103114285D01*
X98503866Y-103114285D02*
X98265771Y-103114285D01*
X98265771Y-103114285D02*
X98075295Y-103066666D01*
X98075295Y-103066666D02*
X97980057Y-103019047D01*
X97980057Y-103019047D02*
X97932438Y-102971428D01*
X97932438Y-102971428D02*
X97884819Y-102876190D01*
X97884819Y-101923809D02*
X97884819Y-101828571D01*
X97884819Y-101828571D02*
X97932438Y-101733333D01*
X97932438Y-101733333D02*
X97980057Y-101685714D01*
X97980057Y-101685714D02*
X98075295Y-101638095D01*
X98075295Y-101638095D02*
X98265771Y-101590476D01*
X98265771Y-101590476D02*
X98503866Y-101590476D01*
X98503866Y-101590476D02*
X98694342Y-101638095D01*
X98694342Y-101638095D02*
X98789580Y-101685714D01*
X98789580Y-101685714D02*
X98837200Y-101733333D01*
X98837200Y-101733333D02*
X98884819Y-101828571D01*
X98884819Y-101828571D02*
X98884819Y-101923809D01*
X98884819Y-101923809D02*
X98837200Y-102019047D01*
X98837200Y-102019047D02*
X98789580Y-102066666D01*
X98789580Y-102066666D02*
X98694342Y-102114285D01*
X98694342Y-102114285D02*
X98503866Y-102161904D01*
X98503866Y-102161904D02*
X98265771Y-102161904D01*
X98265771Y-102161904D02*
X98075295Y-102114285D01*
X98075295Y-102114285D02*
X97980057Y-102066666D01*
X97980057Y-102066666D02*
X97932438Y-102019047D01*
X97932438Y-102019047D02*
X97884819Y-101923809D01*
X98884819Y-101161904D02*
X97884819Y-101161904D01*
X98503866Y-101066666D02*
X98884819Y-100780952D01*
X98218152Y-100780952D02*
X98599104Y-101161904D01*
D13*
X144270380Y-166251873D02*
X144270380Y-167279968D01*
X144270380Y-167279968D02*
X144330857Y-167400920D01*
X144330857Y-167400920D02*
X144391333Y-167461397D01*
X144391333Y-167461397D02*
X144512285Y-167521873D01*
X144512285Y-167521873D02*
X144754190Y-167521873D01*
X144754190Y-167521873D02*
X144875142Y-167461397D01*
X144875142Y-167461397D02*
X144935619Y-167400920D01*
X144935619Y-167400920D02*
X144996095Y-167279968D01*
X144996095Y-167279968D02*
X144996095Y-166251873D01*
X145479904Y-166251873D02*
X146326571Y-166251873D01*
X146326571Y-166251873D02*
X145782285Y-167521873D01*
D12*
X210809580Y-181141357D02*
X210857200Y-181188976D01*
X210857200Y-181188976D02*
X210904819Y-181331833D01*
X210904819Y-181331833D02*
X210904819Y-181427071D01*
X210904819Y-181427071D02*
X210857200Y-181569928D01*
X210857200Y-181569928D02*
X210761961Y-181665166D01*
X210761961Y-181665166D02*
X210666723Y-181712785D01*
X210666723Y-181712785D02*
X210476247Y-181760404D01*
X210476247Y-181760404D02*
X210333390Y-181760404D01*
X210333390Y-181760404D02*
X210142914Y-181712785D01*
X210142914Y-181712785D02*
X210047676Y-181665166D01*
X210047676Y-181665166D02*
X209952438Y-181569928D01*
X209952438Y-181569928D02*
X209904819Y-181427071D01*
X209904819Y-181427071D02*
X209904819Y-181331833D01*
X209904819Y-181331833D02*
X209952438Y-181188976D01*
X209952438Y-181188976D02*
X210000057Y-181141357D01*
X210904819Y-180188976D02*
X210904819Y-180760404D01*
X210904819Y-180474690D02*
X209904819Y-180474690D01*
X209904819Y-180474690D02*
X210047676Y-180569928D01*
X210047676Y-180569928D02*
X210142914Y-180665166D01*
X210142914Y-180665166D02*
X210190533Y-180760404D01*
X209904819Y-179284214D02*
X209904819Y-179760404D01*
X209904819Y-179760404D02*
X210381009Y-179808023D01*
X210381009Y-179808023D02*
X210333390Y-179760404D01*
X210333390Y-179760404D02*
X210285771Y-179665166D01*
X210285771Y-179665166D02*
X210285771Y-179427071D01*
X210285771Y-179427071D02*
X210333390Y-179331833D01*
X210333390Y-179331833D02*
X210381009Y-179284214D01*
X210381009Y-179284214D02*
X210476247Y-179236595D01*
X210476247Y-179236595D02*
X210714342Y-179236595D01*
X210714342Y-179236595D02*
X210809580Y-179284214D01*
X210809580Y-179284214D02*
X210857200Y-179331833D01*
X210857200Y-179331833D02*
X210904819Y-179427071D01*
X210904819Y-179427071D02*
X210904819Y-179665166D01*
X210904819Y-179665166D02*
X210857200Y-179760404D01*
X210857200Y-179760404D02*
X210809580Y-179808023D01*
D14*
%TO.C,U3*%
X109932250Y-105099801D02*
X111938850Y-105099801D01*
X111938850Y-101950201D02*
X109932250Y-101950201D01*
%TO.C,J3*%
X95377001Y-105869200D02*
X87528401Y-105869200D01*
X87528401Y-105869200D02*
X87528401Y-116130800D01*
X95377001Y-116130800D02*
X95377001Y-105869200D01*
X87528401Y-116130800D02*
X95377001Y-116130800D01*
D15*
X92131000Y-104091200D02*
G75*
G02*
X91369000Y-104091200I-381000J0D01*
G01*
X91369000Y-104091200D02*
G75*
G02*
X92131000Y-104091200I381000J0D01*
G01*
D14*
%TO.C,U1*%
X107298200Y-94548200D02*
X107298200Y-94739061D01*
X107298200Y-97760939D02*
X107298200Y-97951800D01*
X107298200Y-97951800D02*
X110701800Y-97951800D01*
X110701800Y-94548200D02*
X107298200Y-94548200D01*
X110701800Y-94739061D02*
X110701800Y-94548200D01*
X110701800Y-97951800D02*
X110701800Y-97760939D01*
%TO.C,C13*%
X141223004Y-173720563D02*
X141223004Y-181574547D01*
X141223004Y-181574547D02*
X141946563Y-181574547D01*
X141946563Y-173720563D02*
X141223004Y-173720563D01*
X143500000Y-172763364D02*
X143500000Y-172001364D01*
X143881000Y-172382364D02*
X143119000Y-172382364D01*
X145053437Y-181574547D02*
X145776996Y-181574547D01*
X145776996Y-173720563D02*
X145053437Y-173720563D01*
X145776996Y-181574547D02*
X145776996Y-173720563D01*
D16*
%TO.C,R4*%
X99340000Y-112222936D02*
X99340000Y-113677064D01*
X101160000Y-112222936D02*
X101160000Y-113677064D01*
D11*
%TO.C,U5*%
X133700000Y-114583645D02*
X133700000Y-118260645D01*
X133700000Y-114583645D02*
X158100000Y-114583645D01*
X133700000Y-123983645D02*
X133700000Y-120306645D01*
X158100000Y-114583645D02*
X158100000Y-118260645D01*
X158100000Y-123983645D02*
X133700000Y-123983645D01*
X158100000Y-123983645D02*
X158100000Y-120306645D01*
X133079490Y-119170645D02*
G75*
G02*
X132946510Y-119170645I-66490J0D01*
G01*
X132946510Y-119170645D02*
G75*
G02*
X133079490Y-119170645I66490J0D01*
G01*
D14*
%TO.C,C10*%
X156216800Y-149916300D02*
X156216800Y-160482700D01*
X156216800Y-160482700D02*
X160468760Y-160482700D01*
X160468760Y-149916300D02*
X156216800Y-149916300D01*
X162531240Y-160482700D02*
X166783200Y-160482700D01*
X166783200Y-149916300D02*
X162531240Y-149916300D01*
X166783200Y-160482700D02*
X166783200Y-149916300D01*
X161576200Y-148786000D02*
G75*
G02*
X161423800Y-148786000I-76200J0D01*
G01*
X161423800Y-148786000D02*
G75*
G02*
X161576200Y-148786000I76200J0D01*
G01*
D17*
%TO.C,PS3*%
X169095000Y-189040000D02*
X169095000Y-189040000D01*
X169195000Y-189040000D02*
X169195000Y-189040000D01*
X170405000Y-198500000D02*
X170405000Y-174500000D01*
X192355000Y-174300000D02*
X176355000Y-174300000D01*
X192355000Y-198700000D02*
X170355000Y-198700000D01*
X198305000Y-198700000D02*
X198305000Y-174500000D01*
X169095000Y-189040000D02*
G75*
G02*
X169195000Y-189040000I50000J0D01*
G01*
X169195000Y-189040000D02*
G75*
G02*
X169095000Y-189040000I-50000J0D01*
G01*
D18*
%TO.C,D4*%
X134047500Y-175088855D02*
X134047500Y-181943855D01*
X134047500Y-181943855D02*
X135100000Y-181943855D01*
X135100000Y-175088855D02*
X134047500Y-175088855D01*
X138900000Y-175088855D02*
X139952500Y-175088855D01*
X139952500Y-175088855D02*
X139952500Y-181943855D01*
X139952500Y-181943855D02*
X138900000Y-181943855D01*
D11*
X137200000Y-173016355D02*
G75*
G02*
X137000000Y-173016355I-100000J0D01*
G01*
X137000000Y-173016355D02*
G75*
G02*
X137200000Y-173016355I100000J0D01*
G01*
D16*
%TO.C,R3*%
X99340000Y-107222936D02*
X99340000Y-108677064D01*
X101160000Y-107222936D02*
X101160000Y-108677064D01*
D17*
%TO.C,J2*%
X190300000Y-65070000D02*
X190300000Y-76580000D01*
X190300000Y-76580000D02*
X200155000Y-76580000D01*
X199555000Y-54910000D02*
X199585000Y-65070000D01*
X199585000Y-65070000D02*
X190300000Y-65070000D01*
X200155000Y-76580000D02*
X200155000Y-89580000D01*
X200155000Y-89580000D02*
X235465000Y-89580000D01*
X235465000Y-76580000D02*
X245320000Y-76580000D01*
X235465000Y-89580000D02*
X235465000Y-76580000D01*
X236035000Y-54910000D02*
X199555000Y-54910000D01*
X236035000Y-65070000D02*
X236035000Y-54910000D01*
X245320000Y-65070000D02*
X236035000Y-65070000D01*
X245320000Y-76580000D02*
X245320000Y-65070000D01*
D11*
%TO.C,PS1*%
X168950000Y-126900000D02*
X168950000Y-126900000D01*
X169150000Y-126900000D02*
X169150000Y-126900000D01*
D17*
X172650000Y-123450000D02*
X205650000Y-123450000D01*
X172650000Y-146350000D02*
X172650000Y-123450000D01*
X205650000Y-123450000D02*
X205650000Y-146350000D01*
X205650000Y-146350000D02*
X172650000Y-146350000D01*
D11*
X168950000Y-126900000D02*
G75*
G02*
X169150000Y-126900000I100000J0D01*
G01*
X169150000Y-126900000D02*
G75*
G02*
X168950000Y-126900000I-100000J0D01*
G01*
%TO.C,LED3*%
X224450000Y-153050000D02*
X224450000Y-156975000D01*
X224450000Y-156975000D02*
X226950000Y-156975000D01*
X226950000Y-156975000D02*
X226950000Y-153050000D01*
D10*
%TO.C,PS2*%
X168950000Y-152680000D02*
X168950000Y-152680000D01*
X169150000Y-152680000D02*
X169150000Y-152680000D01*
D17*
X170650000Y-148850000D02*
X203650000Y-148850000D01*
X170650000Y-171730000D02*
X170650000Y-148850000D01*
X203650000Y-148850000D02*
X203650000Y-171730000D01*
X203650000Y-171730000D02*
X170650000Y-171730000D01*
D10*
X168950000Y-152680000D02*
G75*
G02*
X169150000Y-152680000I100000J0D01*
G01*
X169150000Y-152680000D02*
G75*
G02*
X168950000Y-152680000I-100000J0D01*
G01*
D11*
%TO.C,LED4*%
X222350000Y-179250000D02*
X222350000Y-183175000D01*
X222350000Y-183175000D02*
X224850000Y-183175000D01*
X224850000Y-183175000D02*
X224850000Y-179250000D01*
D16*
%TO.C,C7*%
X215490000Y-128188748D02*
X215490000Y-129611252D01*
X217310000Y-128188748D02*
X217310000Y-129611252D01*
D11*
%TO.C,U6*%
X133700000Y-138500000D02*
X133700000Y-142177000D01*
X133700000Y-138500000D02*
X158100000Y-138500000D01*
X133700000Y-147900000D02*
X133700000Y-144223000D01*
X158100000Y-138500000D02*
X158100000Y-142177000D01*
X158100000Y-147900000D02*
X133700000Y-147900000D01*
X158100000Y-147900000D02*
X158100000Y-144223000D01*
X133079490Y-143087000D02*
G75*
G02*
X132946510Y-143087000I-66490J0D01*
G01*
X132946510Y-143087000D02*
G75*
G02*
X133079490Y-143087000I66490J0D01*
G01*
D16*
%TO.C,C11*%
X213290000Y-153626248D02*
X213290000Y-155048752D01*
X215110000Y-153626248D02*
X215110000Y-155048752D01*
D14*
%TO.C,C5*%
X141223004Y-125956653D02*
X141223004Y-133810637D01*
X141223004Y-133810637D02*
X141946563Y-133810637D01*
X141946563Y-125956653D02*
X141223004Y-125956653D01*
X143500000Y-124999454D02*
X143500000Y-124237454D01*
X143881000Y-124618454D02*
X143119000Y-124618454D01*
X145053437Y-133810637D02*
X145776996Y-133810637D01*
X145776996Y-125956653D02*
X145053437Y-125956653D01*
X145776996Y-133810637D02*
X145776996Y-125956653D01*
D16*
%TO.C,R8*%
X222690000Y-176277064D02*
X222690000Y-174822936D01*
X224510000Y-176277064D02*
X224510000Y-174822936D01*
D17*
%TO.C,J1*%
X70215000Y-65050000D02*
X70215000Y-76560000D01*
X70215000Y-76560000D02*
X80070000Y-76560000D01*
X79470000Y-54890000D02*
X79500000Y-65050000D01*
X79500000Y-65050000D02*
X70215000Y-65050000D01*
X80070000Y-76560000D02*
X80070000Y-89560000D01*
X80070000Y-89560000D02*
X115380000Y-89560000D01*
X115380000Y-76560000D02*
X125235000Y-76560000D01*
X115380000Y-89560000D02*
X115380000Y-76560000D01*
X115950000Y-54890000D02*
X79470000Y-54890000D01*
X115950000Y-65050000D02*
X115950000Y-54890000D01*
X125235000Y-65050000D02*
X115950000Y-65050000D01*
X125235000Y-76560000D02*
X125235000Y-65050000D01*
D16*
%TO.C,R1*%
X103040000Y-102172936D02*
X103040000Y-103627064D01*
X104860000Y-102172936D02*
X104860000Y-103627064D01*
D14*
%TO.C,C1*%
X118714750Y-112000000D02*
G75*
G02*
X109951750Y-112000000I-4381500J0D01*
G01*
X109951750Y-112000000D02*
G75*
G02*
X118714750Y-112000000I4381500J0D01*
G01*
X119476750Y-112635000D02*
X119476750Y-111365000D01*
X120111750Y-112000000D02*
X118841750Y-112000000D01*
%TO.C,C6*%
X156216800Y-126068745D02*
X156216800Y-136635145D01*
X156216800Y-136635145D02*
X160468760Y-136635145D01*
X160468760Y-126068745D02*
X156216800Y-126068745D01*
X162531240Y-136635145D02*
X166783200Y-136635145D01*
X166783200Y-126068745D02*
X162531240Y-126068745D01*
X166783200Y-136635145D02*
X166783200Y-126068745D01*
X161576200Y-124938445D02*
G75*
G02*
X161423800Y-124938445I-76200J0D01*
G01*
X161423800Y-124938445D02*
G75*
G02*
X161576200Y-124938445I76200J0D01*
G01*
%TO.C,C12*%
X199969400Y-177967900D02*
X199969400Y-185029100D01*
X199969400Y-185029100D02*
X202621160Y-185029100D01*
X202621160Y-177967900D02*
X199969400Y-177967900D01*
X203500000Y-176761400D02*
X203500000Y-175999400D01*
X203881000Y-176380400D02*
X203119000Y-176380400D01*
X204378840Y-185029100D02*
X207030600Y-185029100D01*
X207030600Y-177967900D02*
X204378840Y-177967900D01*
X207030600Y-185029100D02*
X207030600Y-177967900D01*
D16*
%TO.C,L3*%
X146610000Y-149940000D02*
X146610000Y-150840000D01*
X146610000Y-149940000D02*
X155430000Y-149940000D01*
X146610000Y-159260000D02*
X146610000Y-158360000D01*
X146610000Y-159260000D02*
X155430000Y-159260000D01*
X155430000Y-149940000D02*
X155430000Y-150840000D01*
X155430000Y-159260000D02*
X155430000Y-158360000D01*
D14*
%TO.C,U2*%
X111880700Y-94473201D02*
X111880700Y-94664062D01*
X111880700Y-97685940D02*
X111880700Y-97876801D01*
X111880700Y-97876801D02*
X115284300Y-97876801D01*
X115284300Y-94473201D02*
X111880700Y-94473201D01*
X115284300Y-94664062D02*
X115284300Y-94473201D01*
X115284300Y-97876801D02*
X115284300Y-97685940D01*
%TO.C,C8*%
X205769400Y-151869400D02*
X205769400Y-158930600D01*
X205769400Y-158930600D02*
X208421160Y-158930600D01*
X208421160Y-151869400D02*
X205769400Y-151869400D01*
X209300000Y-150662900D02*
X209300000Y-149900900D01*
X209681000Y-150281900D02*
X208919000Y-150281900D01*
X210178840Y-158930600D02*
X212830600Y-158930600D01*
X212830600Y-151869400D02*
X210178840Y-151869400D01*
X212830600Y-158930600D02*
X212830600Y-151869400D01*
%TO.C,C14*%
X156216800Y-173832655D02*
X156216800Y-184399055D01*
X156216800Y-184399055D02*
X160468760Y-184399055D01*
X160468760Y-173832655D02*
X156216800Y-173832655D01*
X162531240Y-184399055D02*
X166783200Y-184399055D01*
X166783200Y-173832655D02*
X162531240Y-173832655D01*
X166783200Y-184399055D02*
X166783200Y-173832655D01*
X161576200Y-172702355D02*
G75*
G02*
X161423800Y-172702355I-76200J0D01*
G01*
X161423800Y-172702355D02*
G75*
G02*
X161576200Y-172702355I76200J0D01*
G01*
D18*
%TO.C,D2*%
X134047500Y-127324945D02*
X134047500Y-134179945D01*
X134047500Y-134179945D02*
X135100000Y-134179945D01*
X135100000Y-127324945D02*
X134047500Y-127324945D01*
X138900000Y-127324945D02*
X139952500Y-127324945D01*
X139952500Y-127324945D02*
X139952500Y-134179945D01*
X139952500Y-134179945D02*
X138900000Y-134179945D01*
D11*
X137200000Y-125252445D02*
G75*
G02*
X137000000Y-125252445I-100000J0D01*
G01*
X137000000Y-125252445D02*
G75*
G02*
X137200000Y-125252445I100000J0D01*
G01*
D16*
%TO.C,R5*%
X219990000Y-132427064D02*
X219990000Y-130972936D01*
X221810000Y-132427064D02*
X221810000Y-130972936D01*
%TO.C,L2*%
X146590000Y-126023645D02*
X146590000Y-126923645D01*
X146590000Y-126023645D02*
X155410000Y-126023645D01*
X146590000Y-135343645D02*
X146590000Y-134443645D01*
X146590000Y-135343645D02*
X155410000Y-135343645D01*
X155410000Y-126023645D02*
X155410000Y-126923645D01*
X155410000Y-135343645D02*
X155410000Y-134443645D01*
D14*
%TO.C,C9*%
X141223004Y-149873008D02*
X141223004Y-157726992D01*
X141223004Y-157726992D02*
X141946563Y-157726992D01*
X141946563Y-149873008D02*
X141223004Y-149873008D01*
X143500000Y-148915809D02*
X143500000Y-148153809D01*
X143881000Y-148534809D02*
X143119000Y-148534809D01*
X145053437Y-157726992D02*
X145776996Y-157726992D01*
X145776996Y-149873008D02*
X145053437Y-149873008D01*
X145776996Y-157726992D02*
X145776996Y-149873008D01*
D16*
%TO.C,R6*%
X178690000Y-108627064D02*
X178690000Y-107172936D01*
X180510000Y-108627064D02*
X180510000Y-107172936D01*
D18*
%TO.C,D3*%
X134047500Y-151241300D02*
X134047500Y-158096300D01*
X134047500Y-158096300D02*
X135100000Y-158096300D01*
X135100000Y-151241300D02*
X134047500Y-151241300D01*
X138900000Y-151241300D02*
X139952500Y-151241300D01*
X139952500Y-151241300D02*
X139952500Y-158096300D01*
X139952500Y-158096300D02*
X138900000Y-158096300D01*
D11*
X137200000Y-149168800D02*
G75*
G02*
X137000000Y-149168800I-100000J0D01*
G01*
X137000000Y-149168800D02*
G75*
G02*
X137200000Y-149168800I100000J0D01*
G01*
%TO.C,LED2*%
X178350000Y-111500000D02*
X178350000Y-115425000D01*
X178350000Y-115425000D02*
X180850000Y-115425000D01*
X180850000Y-115425000D02*
X180850000Y-111500000D01*
D14*
%TO.C,C4*%
X207769400Y-126423700D02*
X207769400Y-133484900D01*
X207769400Y-133484900D02*
X210421160Y-133484900D01*
X210421160Y-126423700D02*
X207769400Y-126423700D01*
X211300000Y-125217200D02*
X211300000Y-124455200D01*
X211681000Y-124836200D02*
X210919000Y-124836200D01*
X212178840Y-133484900D02*
X214830600Y-133484900D01*
X214830600Y-126423700D02*
X212178840Y-126423700D01*
X214830600Y-133484900D02*
X214830600Y-126423700D01*
D16*
%TO.C,R7*%
X224790000Y-150177064D02*
X224790000Y-148722936D01*
X226610000Y-150177064D02*
X226610000Y-148722936D01*
D11*
%TO.C,LED1*%
X219680000Y-135475000D02*
X219680000Y-139400000D01*
X219680000Y-139400000D02*
X222180000Y-139400000D01*
X222180000Y-139400000D02*
X222180000Y-135475000D01*
D16*
%TO.C,L4*%
X146610000Y-173756355D02*
X146610000Y-174656355D01*
X146610000Y-173756355D02*
X155430000Y-173756355D01*
X146610000Y-183076355D02*
X146610000Y-182176355D01*
X146610000Y-183076355D02*
X155430000Y-183076355D01*
X155430000Y-173756355D02*
X155430000Y-174656355D01*
X155430000Y-183076355D02*
X155430000Y-182176355D01*
%TO.C,R2*%
X99340000Y-102172936D02*
X99340000Y-103627064D01*
X101160000Y-102172936D02*
X101160000Y-103627064D01*
D11*
%TO.C,U7*%
X133700000Y-162347555D02*
X133700000Y-166024555D01*
X133700000Y-162347555D02*
X158100000Y-162347555D01*
X133700000Y-171747555D02*
X133700000Y-168070555D01*
X158100000Y-162347555D02*
X158100000Y-166024555D01*
X158100000Y-171747555D02*
X133700000Y-171747555D01*
X158100000Y-171747555D02*
X158100000Y-168070555D01*
X133079490Y-166934555D02*
G75*
G02*
X132946510Y-166934555I-66490J0D01*
G01*
X132946510Y-166934555D02*
G75*
G02*
X133079490Y-166934555I66490J0D01*
G01*
D16*
%TO.C,C15*%
X207690000Y-179787248D02*
X207690000Y-181209752D01*
X209510000Y-179787248D02*
X209510000Y-181209752D01*
%TD*%
M02*
