M48
; DRILL file {KiCad 7.0.8} date Thu Dec  7 17:58:41 2023
; FORMAT={-:-/ absolute / inch / decimal}
; #@! TF.CreationDate,2023-12-07T17:58:41-07:00
; #@! TF.GenerationSoftware,Kicad,Pcbnew,7.0.8
; #@! TF.FileFunction,Plated,1,2,PTH
FMAT,2
INCH
; #@! TA.AperFunction,Plated,PTH,ViaDrill
T1C0.0079
; #@! TA.AperFunction,Plated,PTH,ViaDrill
T2C0.0157
; #@! TA.AperFunction,Plated,PTH,ViaDrill
T3C0.0197
; #@! TA.AperFunction,Plated,PTH,ComponentDrill
T4C0.0276
; #@! TA.AperFunction,Plated,PTH,ComponentDrill
T5C0.0300
; #@! TA.AperFunction,Plated,PTH,ComponentDrill
T6C0.0571
; #@! TA.AperFunction,Plated,PTH,ComponentDrill
T7C0.0709
; #@! TA.AperFunction,Plated,PTH,ComponentDrill
T8C0.0945
%
G90
G05
T1
X2.29Y-3.73
X2.31Y-4.4
X2.32Y-3.905
X2.54Y-3.73
X2.54Y-3.83
X2.54Y-3.98
X3.04Y-2.86
X3.11Y-2.91
X3.15Y-2.98
X3.15Y-3.04
X3.19Y-4.3803
X3.2Y-2.91
X3.27Y-2.97
X3.33Y-3.04
X3.38Y-2.97
X3.45Y-3.04
X3.54Y-3.04
X3.54Y-3.45
X3.56Y-3.09
X3.59Y-3.4546
X3.66Y-3.04
X3.66Y-3.75
X3.6889Y-3.8211
X3.7Y-3.4
X3.7Y-3.52
X3.7Y-3.9
X3.71Y-3.87
X3.73Y-3.92
X3.7506Y-3.8389
X3.79Y-3.42
X3.79Y-3.52
X3.925Y-3.8526
X3.965Y-3.7
X3.995Y-4.06
X4.23Y-2.85
X4.24Y-3.78
X4.25Y-3.965
X4.25Y-3.9943
X4.28Y-2.89
X4.37Y-3.0
X4.39Y-2.89
X4.4Y-4.13
X4.43Y-4.17
X4.44Y-4.13
X4.47Y-3.07
X4.51Y-3.0
X4.57Y-3.07
X4.62Y-3.0
X4.68Y-3.07
X4.78Y-3.07
X4.79Y-3.11
X4.85Y-3.47
X4.86Y-3.06
X5.44Y-2.86
X5.51Y-2.92
X5.61Y-3.01
X5.63Y-2.92
X5.68Y-3.07
X5.72Y-3.01
X5.78Y-3.07
X5.83Y-3.01
X5.89Y-3.07
X5.98Y-3.07
X6.23Y-3.83
X6.6Y-2.96
X7.3Y-2.46
X7.33Y-3.57
X7.35Y-3.9
T2
X1.99Y-3.15
X2.3Y-2.96
X3.06Y-3.56
X3.09Y-3.44
T3
X2.33Y-4.94
T5
X1.7814Y-3.2525
X1.8814Y-3.2525
X1.9814Y-2.0532
X1.9814Y-3.2525
X2.0814Y-2.0532
X2.0814Y-3.2525
X2.1814Y-2.0532
X2.1814Y-3.2525
X2.2814Y-2.0532
X2.2814Y-3.2525
X2.3814Y-2.0532
X2.3814Y-3.2525
X2.4814Y-2.0532
X2.4814Y-3.2525
X2.5814Y-2.0532
X2.5814Y-3.2525
X2.6814Y-2.0532
X2.6814Y-3.2525
X2.7814Y-3.2525
X2.8814Y-3.2525
X2.9914Y-3.2525
X3.0914Y-3.2525
X3.1914Y-2.0532
X3.1914Y-3.2525
X3.2914Y-2.0532
X3.2914Y-3.2525
X3.3914Y-2.0532
X3.3914Y-3.2525
X3.4914Y-2.0532
X3.4914Y-3.2525
X3.5914Y-2.0532
X3.5914Y-3.2525
X3.6914Y-2.0532
X3.6914Y-3.2525
X3.7914Y-2.0532
X3.7914Y-3.2525
X3.8914Y-2.0532
X3.8914Y-3.2525
X3.9914Y-3.2525
X4.0914Y-3.2525
X4.2018Y-3.2525
X4.3018Y-3.2525
X4.4018Y-2.0532
X4.4018Y-3.2525
X4.5018Y-2.0532
X4.5018Y-3.2525
X4.6018Y-2.0532
X4.6018Y-3.2525
X4.7018Y-2.0532
X4.7018Y-3.2525
X4.8018Y-2.0532
X4.8018Y-3.2525
X4.9018Y-2.0532
X4.9018Y-3.2525
X5.0018Y-2.0532
X5.0018Y-3.2525
X5.1018Y-2.0532
X5.1018Y-3.2525
X5.2018Y-3.2525
X5.3018Y-3.2525
X5.4118Y-3.2525
X5.5118Y-3.2525
X5.6118Y-2.0532
X5.6118Y-3.2525
X5.7118Y-2.0532
X5.7118Y-3.2525
X5.8118Y-2.0532
X5.8118Y-3.2525
X5.8258Y-4.1004
X5.8258Y-4.1791
X5.8258Y-4.2579
X5.8258Y-4.3366
X5.8258Y-4.4154
X5.8258Y-4.4941
X5.8258Y-4.5728
X5.8258Y-4.6516
X5.8258Y-4.7303
X5.8258Y-4.8091
X5.9118Y-2.0532
X5.9118Y-3.2525
X6.0118Y-2.0532
X6.0118Y-3.2525
X6.1118Y-2.0532
X6.1118Y-3.2525
X6.2118Y-2.0532
X6.2118Y-3.2525
X6.3118Y-2.0532
X6.3118Y-3.2525
X6.4118Y-3.2525
X6.5118Y-3.2525
X6.6905Y-4.1004
X6.6905Y-4.1791
X6.6905Y-4.2579
X6.6905Y-4.3366
X6.6905Y-4.4154
X6.6905Y-4.4941
X6.6905Y-4.6516
X6.6905Y-4.7303
X6.6905Y-4.8091
X6.6918Y-4.5728
T6
X7.0199Y-2.1947
X7.0199Y-2.3447
X7.0199Y-2.4947
X7.0199Y-2.6447
X7.0199Y-3.4545
X7.0199Y-3.6045
X7.0199Y-3.7545
X7.0199Y-3.9045
X7.1381Y-2.1947
X7.1381Y-2.3447
X7.1381Y-2.4947
X7.1381Y-2.6447
X7.1381Y-3.4545
X7.1381Y-3.6045
X7.1381Y-3.7545
X7.1381Y-3.9045
T7
X4.8239Y-3.6624
X4.8239Y-4.1033
X5.0798Y-3.6624
T8
X7.079Y-1.9112
X7.079Y-2.9281
X7.079Y-3.171
X7.079Y-4.188
T4
G00X4.6054Y-3.7116
M15
G01X4.5188Y-3.7116
M16
G05
G00X4.6054Y-4.0541
M15
G01X4.5188Y-4.0541
M16
G05
G00X5.3849Y-3.7116
M15
G01X5.2983Y-3.7116
M16
G05
G00X5.3849Y-4.0541
M15
G01X5.2983Y-4.0541
M16
G05
T0
M30
