%TF.GenerationSoftware,KiCad,Pcbnew,7.0.8*%
%TF.CreationDate,2023-12-07T17:58:44-07:00*%
%TF.ProjectId,GR-LRR-CONTROL-PCB,47522d4c-5252-42d4-934f-4e54524f4c2d,rev?*%
%TF.SameCoordinates,Original*%
%TF.FileFunction,Legend,Bot*%
%TF.FilePolarity,Positive*%
%FSLAX46Y46*%
G04 Gerber Fmt 4.6, Leading zero omitted, Abs format (unit mm)*
G04 Created by KiCad (PCBNEW 7.0.8) date 2023-12-07 17:58:44*
%MOMM*%
%LPD*%
G01*
G04 APERTURE LIST*
%ADD10C,0.200000*%
%ADD11C,0.254000*%
%ADD12C,0.508000*%
%ADD13C,0.100000*%
%ADD14O,3.900000X1.700000*%
G04 APERTURE END LIST*
D10*
X52306500Y-126310380D02*
G75*
G03*
X52306500Y-126310380I-4000000J0D01*
G01*
D11*
X178660818Y-92431285D02*
X179567961Y-92431285D01*
X179567961Y-92431285D02*
X179749389Y-92370808D01*
X179749389Y-92370808D02*
X179870342Y-92249856D01*
X179870342Y-92249856D02*
X179930818Y-92068427D01*
X179930818Y-92068427D02*
X179930818Y-91947475D01*
X179930818Y-93701285D02*
X179930818Y-92975570D01*
X179930818Y-93338427D02*
X178660818Y-93338427D01*
X178660818Y-93338427D02*
X178842246Y-93217475D01*
X178842246Y-93217475D02*
X178963199Y-93096523D01*
X178963199Y-93096523D02*
X179023675Y-92975570D01*
X179930818Y-94910809D02*
X179930818Y-94185094D01*
X179930818Y-94547951D02*
X178660818Y-94547951D01*
X178660818Y-94547951D02*
X178842246Y-94426999D01*
X178842246Y-94426999D02*
X178963199Y-94306047D01*
X178963199Y-94306047D02*
X179023675Y-94185094D01*
X178660818Y-60431285D02*
X179567961Y-60431285D01*
X179567961Y-60431285D02*
X179749389Y-60370808D01*
X179749389Y-60370808D02*
X179870342Y-60249856D01*
X179870342Y-60249856D02*
X179930818Y-60068427D01*
X179930818Y-60068427D02*
X179930818Y-59947475D01*
X179930818Y-61701285D02*
X179930818Y-60975570D01*
X179930818Y-61338427D02*
X178660818Y-61338427D01*
X178660818Y-61338427D02*
X178842246Y-61217475D01*
X178842246Y-61217475D02*
X178963199Y-61096523D01*
X178963199Y-61096523D02*
X179023675Y-60975570D01*
X178660818Y-62487475D02*
X178660818Y-62608428D01*
X178660818Y-62608428D02*
X178721294Y-62729380D01*
X178721294Y-62729380D02*
X178781770Y-62789856D01*
X178781770Y-62789856D02*
X178902722Y-62850332D01*
X178902722Y-62850332D02*
X179144627Y-62910809D01*
X179144627Y-62910809D02*
X179447008Y-62910809D01*
X179447008Y-62910809D02*
X179688913Y-62850332D01*
X179688913Y-62850332D02*
X179809865Y-62789856D01*
X179809865Y-62789856D02*
X179870342Y-62729380D01*
X179870342Y-62729380D02*
X179930818Y-62608428D01*
X179930818Y-62608428D02*
X179930818Y-62487475D01*
X179930818Y-62487475D02*
X179870342Y-62366523D01*
X179870342Y-62366523D02*
X179809865Y-62306047D01*
X179809865Y-62306047D02*
X179688913Y-62245570D01*
X179688913Y-62245570D02*
X179447008Y-62185094D01*
X179447008Y-62185094D02*
X179144627Y-62185094D01*
X179144627Y-62185094D02*
X178902722Y-62245570D01*
X178902722Y-62245570D02*
X178781770Y-62306047D01*
X178781770Y-62306047D02*
X178721294Y-62366523D01*
X178721294Y-62366523D02*
X178660818Y-62487475D01*
D12*
%TO.C,J1*%
X165219200Y-47570380D02*
G75*
G03*
X165219200Y-47570380I-381000J0D01*
G01*
%TO.C,J6*%
X73693800Y-121234292D02*
G75*
G03*
X73693800Y-121234292I-381000J0D01*
G01*
%TO.C,J5*%
X93017800Y-121234292D02*
G75*
G03*
X93017800Y-121234292I-381000J0D01*
G01*
%TO.C,J7*%
X54389800Y-121234292D02*
G75*
G03*
X54389800Y-121234292I-381000J0D01*
G01*
%TO.C,J3*%
X103691200Y-47820468D02*
G75*
G03*
X103691200Y-47820468I-381000J0D01*
G01*
%TO.C,J4*%
X72977200Y-47824380D02*
G75*
G03*
X72977200Y-47824380I-381000J0D01*
G01*
%TO.C,J2*%
X134425200Y-47566468D02*
G75*
G03*
X134425200Y-47566468I-381000J0D01*
G01*
D10*
%TO.C,J11*%
X173506500Y-87744380D02*
G75*
G03*
X173406500Y-87744380I-50000J0D01*
G01*
X173406500Y-87744380D02*
G75*
G03*
X173506500Y-87744380I50000J0D01*
G01*
X173406500Y-87744380D02*
G75*
G03*
X173506500Y-87744380I50000J0D01*
G01*
D13*
X174306500Y-107549380D02*
X174306500Y-107549380D01*
X174306500Y-107549380D02*
X174306500Y-107549380D01*
X174306500Y-107549380D02*
X177556500Y-107549380D01*
X174306500Y-107549380D02*
X174306500Y-79369380D01*
X177556500Y-107549380D02*
X174306500Y-107549380D01*
X177556500Y-107549380D02*
X177556500Y-107549380D01*
X182056500Y-107549380D02*
X182056500Y-107549380D01*
X182056500Y-107549380D02*
X185306500Y-107549380D01*
X185306500Y-107549380D02*
X182056500Y-107549380D01*
X185306500Y-107549380D02*
X185306500Y-107549380D01*
X185306500Y-107549380D02*
X185306500Y-107549380D01*
X185306500Y-107549380D02*
X185306500Y-79369380D01*
D10*
X173406500Y-87744380D02*
X173406500Y-87744380D01*
X173506500Y-87744380D02*
X173506500Y-87744380D01*
X173506500Y-87744380D02*
X173506500Y-87744380D01*
D13*
X174306500Y-79369380D02*
X174306500Y-107549380D01*
X174306500Y-79369380D02*
X174306500Y-79369380D01*
X174306500Y-79369380D02*
X174306500Y-79369380D01*
X174306500Y-79369380D02*
X177556500Y-79369380D01*
X177556500Y-79369380D02*
X174306500Y-79369380D01*
X177556500Y-79369380D02*
X177556500Y-79369380D01*
X182056500Y-79369380D02*
X182056500Y-79369380D01*
X182056500Y-79369380D02*
X185306500Y-79369380D01*
X185306500Y-79369380D02*
X185306500Y-107549380D01*
X185306500Y-79369380D02*
X182056500Y-79369380D01*
X185306500Y-79369380D02*
X185306500Y-79369380D01*
X185306500Y-79369380D02*
X185306500Y-79369380D01*
D10*
%TO.C,J10*%
X173506500Y-55744380D02*
G75*
G03*
X173406500Y-55744380I-50000J0D01*
G01*
X173406500Y-55744380D02*
G75*
G03*
X173506500Y-55744380I50000J0D01*
G01*
X173406500Y-55744380D02*
G75*
G03*
X173506500Y-55744380I50000J0D01*
G01*
D13*
X174306500Y-75549380D02*
X174306500Y-75549380D01*
X174306500Y-75549380D02*
X174306500Y-75549380D01*
X174306500Y-75549380D02*
X177556500Y-75549380D01*
X174306500Y-75549380D02*
X174306500Y-47369380D01*
X177556500Y-75549380D02*
X174306500Y-75549380D01*
X177556500Y-75549380D02*
X177556500Y-75549380D01*
X182056500Y-75549380D02*
X182056500Y-75549380D01*
X182056500Y-75549380D02*
X185306500Y-75549380D01*
X185306500Y-75549380D02*
X182056500Y-75549380D01*
X185306500Y-75549380D02*
X185306500Y-75549380D01*
X185306500Y-75549380D02*
X185306500Y-75549380D01*
X185306500Y-75549380D02*
X185306500Y-47369380D01*
D10*
X173406500Y-55744380D02*
X173406500Y-55744380D01*
X173506500Y-55744380D02*
X173506500Y-55744380D01*
X173506500Y-55744380D02*
X173506500Y-55744380D01*
D13*
X174306500Y-47369380D02*
X174306500Y-75549380D01*
X174306500Y-47369380D02*
X174306500Y-47369380D01*
X174306500Y-47369380D02*
X174306500Y-47369380D01*
X174306500Y-47369380D02*
X177556500Y-47369380D01*
X177556500Y-47369380D02*
X174306500Y-47369380D01*
X177556500Y-47369380D02*
X177556500Y-47369380D01*
X182056500Y-47369380D02*
X182056500Y-47369380D01*
X182056500Y-47369380D02*
X185306500Y-47369380D01*
X185306500Y-47369380D02*
X185306500Y-75549380D01*
X185306500Y-47369380D02*
X182056500Y-47369380D01*
X185306500Y-47369380D02*
X185306500Y-47369380D01*
X185306500Y-47369380D02*
X185306500Y-47369380D01*
%TD*%
D14*
%TO.C,SW1*%
X115876500Y-94274380D03*
X115876500Y-102974380D03*
X135676500Y-94274380D03*
X135676500Y-102974380D03*
%TD*%
M02*
