%TF.GenerationSoftware,KiCad,Pcbnew,7.0.8*%
%TF.CreationDate,2023-12-07T17:58:44-07:00*%
%TF.ProjectId,GR-LRR-CONTROL-PCB,47522d4c-5252-42d4-934f-4e54524f4c2d,rev?*%
%TF.SameCoordinates,Original*%
%TF.FileFunction,Soldermask,Top*%
%TF.FilePolarity,Negative*%
%FSLAX46Y46*%
G04 Gerber Fmt 4.6, Leading zero omitted, Abs format (unit mm)*
G04 Created by KiCad (PCBNEW 7.0.8) date 2023-12-07 17:58:44*
%MOMM*%
%LPD*%
G01*
G04 APERTURE LIST*
G04 Aperture macros list*
%AMRoundRect*
0 Rectangle with rounded corners*
0 $1 Rounding radius*
0 $2 $3 $4 $5 $6 $7 $8 $9 X,Y pos of 4 corners*
0 Add a 4 corners polygon primitive as box body*
4,1,4,$2,$3,$4,$5,$6,$7,$8,$9,$2,$3,0*
0 Add four circle primitives for the rounded corners*
1,1,$1+$1,$2,$3*
1,1,$1+$1,$4,$5*
1,1,$1+$1,$6,$7*
1,1,$1+$1,$8,$9*
0 Add four rect primitives between the rounded corners*
20,1,$1+$1,$2,$3,$4,$5,0*
20,1,$1+$1,$4,$5,$6,$7,0*
20,1,$1+$1,$6,$7,$8,$9,0*
20,1,$1+$1,$8,$9,$2,$3,0*%
G04 Aperture macros list end*
%ADD10R,0.600000X0.850000*%
%ADD11C,2.250000*%
%ADD12R,0.700000X0.200000*%
%ADD13RoundRect,0.250000X0.400000X0.625000X-0.400000X0.625000X-0.400000X-0.625000X0.400000X-0.625000X0*%
%ADD14R,1.150000X1.800000*%
%ADD15R,1.800000X1.150000*%
%ADD16RoundRect,0.250000X-0.400000X-0.625000X0.400000X-0.625000X0.400000X0.625000X-0.400000X0.625000X0*%
%ADD17C,1.524000*%
%ADD18RoundRect,0.250000X-0.625000X0.400000X-0.625000X-0.400000X0.625000X-0.400000X0.625000X0.400000X0*%
%ADD19R,1.803400X3.911600*%
%ADD20R,1.295400X4.495800*%
%ADD21RoundRect,0.250000X0.625000X-0.400000X0.625000X0.400000X-0.625000X0.400000X-0.625000X-0.400000X0*%
%ADD22C,2.000000*%
%ADD23O,3.900000X1.700000*%
%ADD24R,1.550000X0.650000*%
%ADD25C,3.600000*%
%ADD26C,2.175000*%
%ADD27C,2.100000*%
G04 APERTURE END LIST*
D10*
%TO.C,Q2*%
X163942500Y-95576380D03*
X165842500Y-95576380D03*
X164892500Y-93076380D03*
%TD*%
%TO.C,Q1*%
X158354500Y-95556380D03*
X160254500Y-95556380D03*
X159304500Y-93056380D03*
%TD*%
D11*
%TO.C,U1*%
X46272500Y-108024380D03*
X108252500Y-108024380D03*
X46272500Y-86684380D03*
X108252500Y-86684380D03*
D12*
X59842500Y-105154380D03*
X62922500Y-105154380D03*
X59842500Y-104754380D03*
X62922500Y-104754380D03*
X59842500Y-104354380D03*
X62922500Y-104354380D03*
X59842500Y-103954380D03*
X62922500Y-103954380D03*
X59842500Y-103554380D03*
X62922500Y-103554380D03*
X59842500Y-103154380D03*
X62922500Y-103154380D03*
X59842500Y-102754380D03*
X62922500Y-102754380D03*
X59842500Y-102354380D03*
X62922500Y-102354380D03*
X59842500Y-101954380D03*
X62922500Y-101954380D03*
X59842500Y-101554380D03*
X62922500Y-101554380D03*
X59842500Y-101154380D03*
X62922500Y-101154380D03*
X59842500Y-100754380D03*
X62922500Y-100754380D03*
X59842500Y-100354380D03*
X62922500Y-100354380D03*
X59842500Y-99954380D03*
X62922500Y-99954380D03*
X59842500Y-99554380D03*
X62922500Y-99554380D03*
X59842500Y-99154380D03*
X62922500Y-99154380D03*
X59842500Y-98754380D03*
X62922500Y-98754380D03*
X59842500Y-98354380D03*
X62922500Y-98354380D03*
X59842500Y-97954380D03*
X62922500Y-97954380D03*
X59842500Y-97554380D03*
X62922500Y-97554380D03*
X59842500Y-97154380D03*
X62922500Y-97154380D03*
X59842500Y-96754380D03*
X62922500Y-96754380D03*
X59842500Y-96354380D03*
X62922500Y-96354380D03*
X59842500Y-95954380D03*
X62922500Y-95954380D03*
X59842500Y-95554380D03*
X62922500Y-95554380D03*
X59842500Y-95154380D03*
X62922500Y-95154380D03*
X59842500Y-94754380D03*
X62922500Y-94754380D03*
X59842500Y-94354380D03*
X62922500Y-94354380D03*
X59842500Y-93954380D03*
X62922500Y-93954380D03*
X59842500Y-93554380D03*
X62922500Y-93554380D03*
X59842500Y-93154380D03*
X62922500Y-93154380D03*
X59842500Y-92754380D03*
X62922500Y-92754380D03*
X59842500Y-92354380D03*
X62922500Y-92354380D03*
X59842500Y-91954380D03*
X62922500Y-91954380D03*
X59842500Y-91554380D03*
X62922500Y-91554380D03*
X59842500Y-91154380D03*
X62922500Y-91154380D03*
X59842500Y-90754380D03*
X62922500Y-90754380D03*
X59842500Y-90354380D03*
X62922500Y-90354380D03*
X59842500Y-89954380D03*
X62922500Y-89954380D03*
X59842500Y-89554380D03*
X62922500Y-89554380D03*
X106102500Y-89554380D03*
X103022500Y-89554380D03*
X106102500Y-89954380D03*
X103022500Y-89954380D03*
X106102500Y-90354380D03*
X103022500Y-90354380D03*
X106102500Y-90754380D03*
X103022500Y-90754380D03*
X106102500Y-91154380D03*
X103022500Y-91154380D03*
X106102500Y-91554380D03*
X103022500Y-91554380D03*
X106102500Y-91954380D03*
X103022500Y-91954380D03*
X106102500Y-92354380D03*
X103022500Y-92354380D03*
X106102500Y-92754380D03*
X103022500Y-92754380D03*
X106102500Y-93154380D03*
X103022500Y-93154380D03*
X106102500Y-93554380D03*
X103022500Y-93554380D03*
X106102500Y-93954380D03*
X103022500Y-93954380D03*
X106102500Y-94354380D03*
X103022500Y-94354380D03*
X106102500Y-94754380D03*
X103022500Y-94754380D03*
X106102500Y-95154380D03*
X103022500Y-95154380D03*
X106102500Y-95554380D03*
X103022500Y-95554380D03*
X106102500Y-95954380D03*
X103022500Y-95954380D03*
X106102500Y-96354380D03*
X103022500Y-96354380D03*
X106102500Y-96754380D03*
X103022500Y-96754380D03*
X106102500Y-97154380D03*
X103022500Y-97154380D03*
X106102500Y-97554380D03*
X103022500Y-97554380D03*
X106102500Y-97954380D03*
X103022500Y-97954380D03*
X106102500Y-98354380D03*
X103022500Y-98354380D03*
X106102500Y-98754380D03*
X103022500Y-98754380D03*
X106102500Y-99154380D03*
X103022500Y-99154380D03*
X106102500Y-99554380D03*
X103022500Y-99554380D03*
X106102500Y-99954380D03*
X103022500Y-99954380D03*
X106102500Y-100354380D03*
X103022500Y-100354380D03*
X106102500Y-100754380D03*
X103022500Y-100754380D03*
X106102500Y-101154380D03*
X103022500Y-101154380D03*
X106102500Y-101554380D03*
X103022500Y-101554380D03*
X106102500Y-101954380D03*
X103022500Y-101954380D03*
X106102500Y-102354380D03*
X103022500Y-102354380D03*
X106102500Y-102754380D03*
X103022500Y-102754380D03*
X106102500Y-103154380D03*
X103022500Y-103154380D03*
X106102500Y-103554380D03*
X103022500Y-103554380D03*
X106102500Y-103954380D03*
X103022500Y-103954380D03*
X106102500Y-104354380D03*
X103022500Y-104354380D03*
X106102500Y-104754380D03*
X103022500Y-104754380D03*
X106102500Y-105154380D03*
X103022500Y-105154380D03*
%TD*%
D13*
%TO.C,R14*%
X115316000Y-120142000D03*
X112216000Y-120142000D03*
%TD*%
%TO.C,R13*%
X115316000Y-123952000D03*
X112216000Y-123952000D03*
%TD*%
%TO.C,R8*%
X115316000Y-128016000D03*
X112216000Y-128016000D03*
%TD*%
%TO.C,R6*%
X158060500Y-85670380D03*
X154960500Y-85670380D03*
%TD*%
D14*
%TO.C,LED4*%
X174314500Y-112594380D03*
X177314500Y-112594380D03*
%TD*%
D15*
%TO.C,LED1*%
X143556500Y-113686380D03*
X143556500Y-116686380D03*
%TD*%
D16*
%TO.C,R12*%
X179598500Y-121230380D03*
X182698500Y-121230380D03*
%TD*%
D17*
%TO.C,DR2*%
X111806500Y-52152380D03*
X114346500Y-52152380D03*
X116886500Y-52152380D03*
X119426500Y-52152380D03*
X121966500Y-52152380D03*
X124506500Y-52152380D03*
X127046500Y-52152380D03*
X129586500Y-52152380D03*
X134666500Y-82612380D03*
X132126500Y-82612380D03*
X129586500Y-82612380D03*
X127046500Y-82612380D03*
X124506500Y-82612380D03*
X121966500Y-82612380D03*
X119426500Y-82612380D03*
X116886500Y-82612380D03*
X114346500Y-82612380D03*
X111806500Y-82612380D03*
X109266500Y-82612380D03*
X106726500Y-82612380D03*
%TD*%
D18*
%TO.C,R7*%
X143556500Y-118918380D03*
X143556500Y-122018380D03*
%TD*%
D19*
%TO.C,J1*%
X149620501Y-40770381D03*
X163520499Y-40770381D03*
D20*
X152820500Y-47570380D03*
X155320500Y-47570380D03*
X157820500Y-47570380D03*
X160320500Y-47570380D03*
%TD*%
D13*
%TO.C,R4*%
X171014500Y-67890380D03*
X167914500Y-67890380D03*
%TD*%
D17*
%TO.C,U2*%
X169939500Y-122150380D03*
X169939500Y-120150380D03*
X169939500Y-118150380D03*
X169972500Y-116150380D03*
X169939500Y-114150380D03*
X169939500Y-112150380D03*
X169939500Y-110150380D03*
X169939500Y-108150380D03*
X169939500Y-106150380D03*
X169939500Y-104150380D03*
X147976100Y-104150380D03*
X147976100Y-106150380D03*
X147976100Y-108150380D03*
X147976100Y-110150380D03*
X147976100Y-112150380D03*
X147976100Y-114150380D03*
X147976100Y-116150380D03*
X147976100Y-118150380D03*
X147976100Y-120150380D03*
X147976100Y-122150380D03*
%TD*%
D19*
%TO.C,J6*%
X88530499Y-128034291D03*
X74630501Y-128034291D03*
D20*
X85330500Y-121234292D03*
X82830500Y-121234292D03*
X80330500Y-121234292D03*
X77830500Y-121234292D03*
%TD*%
D17*
%TO.C,DR3*%
X75982500Y-82612380D03*
X78522500Y-82612380D03*
X81062500Y-82612380D03*
X83602500Y-82612380D03*
X86142500Y-82612380D03*
X88682500Y-82612380D03*
X91222500Y-82612380D03*
X93762500Y-82612380D03*
X96302500Y-82612380D03*
X98842500Y-82612380D03*
X101382500Y-82612380D03*
X103922500Y-82612380D03*
X98842500Y-52152380D03*
X96302500Y-52152380D03*
X93762500Y-52152380D03*
X91222500Y-52152380D03*
X88682500Y-52152380D03*
X86142500Y-52152380D03*
X83602500Y-52152380D03*
X81062500Y-52152380D03*
%TD*%
D16*
%TO.C,R5*%
X167914500Y-73478380D03*
X171014500Y-73478380D03*
%TD*%
D14*
%TO.C,LED6*%
X174314500Y-121992380D03*
X177314500Y-121992380D03*
%TD*%
%TO.C,LED2*%
X168678500Y-85670380D03*
X165678500Y-85670380D03*
%TD*%
D19*
%TO.C,J5*%
X107854499Y-128034291D03*
X93954501Y-128034291D03*
D20*
X104654500Y-121234292D03*
X102154500Y-121234292D03*
X99654500Y-121234292D03*
X97154500Y-121234292D03*
%TD*%
D19*
%TO.C,J7*%
X69226499Y-128034291D03*
X55326501Y-128034291D03*
D20*
X66026500Y-121234292D03*
X63526500Y-121234292D03*
X61026500Y-121234292D03*
X58526500Y-121234292D03*
%TD*%
D13*
%TO.C,R9*%
X163418500Y-85670380D03*
X160318500Y-85670380D03*
%TD*%
D16*
%TO.C,R11*%
X179598500Y-117420380D03*
X182698500Y-117420380D03*
%TD*%
D21*
%TO.C,R2*%
X56180500Y-114880380D03*
X56180500Y-111780380D03*
%TD*%
D16*
%TO.C,R10*%
X179598500Y-112594380D03*
X182698500Y-112594380D03*
%TD*%
D22*
%TO.C,SW1*%
X122526500Y-93024380D03*
X122526500Y-104224380D03*
X129026500Y-93024380D03*
D23*
X115876500Y-94274380D03*
X115876500Y-102974380D03*
X135676500Y-94274380D03*
X135676500Y-102974380D03*
%TD*%
D17*
%TO.C,DR1*%
X142540500Y-52152380D03*
X145080500Y-52152380D03*
X147620500Y-52152380D03*
X150160500Y-52152380D03*
X152700500Y-52152380D03*
X155240500Y-52152380D03*
X157780500Y-52152380D03*
X160320500Y-52152380D03*
X165400500Y-82612380D03*
X162860500Y-82612380D03*
X160320500Y-82612380D03*
X157780500Y-82612380D03*
X155240500Y-82612380D03*
X152700500Y-82612380D03*
X150160500Y-82612380D03*
X147620500Y-82612380D03*
X145080500Y-82612380D03*
X142540500Y-82612380D03*
X140000500Y-82612380D03*
X137460500Y-82612380D03*
%TD*%
%TO.C,DR4*%
X50328500Y-52152380D03*
X52868500Y-52152380D03*
X55408500Y-52152380D03*
X57948500Y-52152380D03*
X60488500Y-52152380D03*
X63028500Y-52152380D03*
X65568500Y-52152380D03*
X68108500Y-52152380D03*
X73188500Y-82612380D03*
X70648500Y-82612380D03*
X68108500Y-82612380D03*
X65568500Y-82612380D03*
X63028500Y-82612380D03*
X60488500Y-82612380D03*
X57948500Y-82612380D03*
X55408500Y-82612380D03*
X52868500Y-82612380D03*
X50328500Y-82612380D03*
X47788500Y-82612380D03*
X45248500Y-82612380D03*
%TD*%
D14*
%TO.C,LED5*%
X174338500Y-117420380D03*
X177338500Y-117420380D03*
%TD*%
D18*
%TO.C,R3*%
X50592500Y-111780380D03*
X50592500Y-114880380D03*
%TD*%
D19*
%TO.C,J3*%
X88092501Y-41020469D03*
X101992499Y-41020469D03*
D20*
X91292500Y-47820468D03*
X93792500Y-47820468D03*
X96292500Y-47820468D03*
X98792500Y-47820468D03*
%TD*%
D18*
%TO.C,R1*%
X77516500Y-114372380D03*
X77516500Y-117472380D03*
%TD*%
D19*
%TO.C,J4*%
X57378501Y-41024381D03*
X71278499Y-41024381D03*
D20*
X60578500Y-47824380D03*
X63078500Y-47824380D03*
X65578500Y-47824380D03*
X68078500Y-47824380D03*
%TD*%
D19*
%TO.C,J2*%
X118826501Y-40766469D03*
X132726499Y-40766469D03*
D20*
X122026500Y-47566468D03*
X124526500Y-47566468D03*
X127026500Y-47566468D03*
X129526500Y-47566468D03*
%TD*%
D24*
%TO.C,IC1*%
X124137000Y-128651000D03*
X124137000Y-127381000D03*
X124137000Y-126111000D03*
X124137000Y-124841000D03*
X124137000Y-123571000D03*
X124137000Y-122301000D03*
X124137000Y-121031000D03*
X124137000Y-119761000D03*
X118687000Y-119761000D03*
X118687000Y-121031000D03*
X118687000Y-122301000D03*
X118687000Y-123571000D03*
X118687000Y-124841000D03*
X118687000Y-126111000D03*
X118687000Y-127381000D03*
X118687000Y-128651000D03*
%TD*%
D25*
%TO.C,J11*%
X179806500Y-106374380D03*
X179806500Y-80544380D03*
D26*
X181306500Y-99174380D03*
X181306500Y-95364380D03*
X181306500Y-91554380D03*
X181306500Y-87744380D03*
X178306500Y-99174380D03*
X178306500Y-95364380D03*
X178306500Y-91554380D03*
X178306500Y-87744380D03*
D27*
X175806500Y-103874380D03*
X175806500Y-83044380D03*
%TD*%
D25*
%TO.C,J10*%
X179806500Y-74374380D03*
X179806500Y-48544380D03*
D26*
X181306500Y-67174380D03*
X181306500Y-63364380D03*
X181306500Y-59554380D03*
X181306500Y-55744380D03*
X178306500Y-67174380D03*
X178306500Y-63364380D03*
X178306500Y-59554380D03*
X178306500Y-55744380D03*
D27*
X175806500Y-71874380D03*
X175806500Y-51044380D03*
%TD*%
M02*
